<?xml version="1.0" encoding="utf-8"?>
<!-- Generator: Adobe Illustrator 26.0.0, SVG Export Plug-In . SVG Version: 6.00 Build 0)  -->
<svg version="1.1" id="Layer_1" xmlns="http://www.w3.org/2000/svg" xmlns:xlink="http://www.w3.org/1999/xlink" x="0px" y="0px"
	 viewBox="0 0 4000 4000" style="enable-background:new 0 0 4000 4000;" xml:space="preserve">
<style type="text/css">
	.st0{fill:#371A45;}
	.st1{fill:#E7A900;}
	.st2{fill:#FFFFFF;}
	.st3{opacity:0.2;}
	.st4{fill:#E81818;}
	.st5{opacity:0.7;}
	.st6{opacity:0.3;}
	.st7{fill:#FFFD01;}
	.st8{fill:#E2E8E8;}
	.st9{fill:#E5E5E5;}
	.st10{fill:#C93535;}
	.st11{fill:#D1D1D1;}
	.st12{opacity:0.5;}
	.st13{opacity:0.25;}
	.st14{fill:#000072;}
	.st15{fill:#22A7F0;}
	.st16{clip-path:url(#SVGID_00000165915180788056437430000000639257686172893628_);}
	.st17{filter:url(#Adobe_OpacityMaskFilter);}
	.st18{clip-path:url(#SVGID_00000143589698552990294980000002984613521456323006_);}
	.st19{clip-path:url(#SVGID_00000090253597120881950000000006618442341929449399_);}
	
		.st20{clip-path:url(#SVGID_00000048471248539349533280000006919824621308692899_);fill:url(#SVGID_00000029020412519032114740000001454469144362803329_);}
	
		.st21{clip-path:url(#SVGID_00000143589698552990294980000002984613521456323006_);mask:url(#SVGID_00000085231484831003071250000013090160342587004041_);fill:url(#SVGID_00000141428305773216898560000007182015603641839520_);}
	.st22{opacity:0.7;fill:url(#SVGID_00000102507481116806523870000014446662850206340515_);enable-background:new    ;}
	.st23{clip-path:url(#SVGID_00000140715458993798977510000002787651365668385951_);}
	.st24{filter:url(#Adobe_OpacityMaskFilter_00000136412347530371082670000012253284431878485120_);}
	.st25{clip-path:url(#SVGID_00000076586594878141871130000001154689978873622948_);}
	.st26{clip-path:url(#SVGID_00000044893227704133261940000000188370933127003821_);}
	
		.st27{clip-path:url(#SVGID_00000040557355198368239800000012179335790811228562_);fill:url(#SVGID_00000063622580045835243790000005600819084721575845_);}
	
		.st28{clip-path:url(#SVGID_00000076586594878141871130000001154689978873622948_);mask:url(#SVGID_00000011751274293500188340000004542151066305684128_);fill:url(#SVGID_00000119081717591364700280000018314308875340283827_);}
	.st29{opacity:0.7;fill:url(#SVGID_00000123412954606852856470000011350136357817236877_);enable-background:new    ;}
	.st30{fill:#1C7AEA;}
	.st31{fill:#220F2D;}
	.st32{fill:#D8D8D8;}
	.st33{fill:#FF0068;}
</style>
<g>
	<g>
		<g>
			<g>
				
					<ellipse transform="matrix(0.5574 -0.8303 0.8303 0.5574 -1120.6517 3634.5002)" class="st0" cx="2848.4" cy="2868.3" rx="984" ry="263.9"/>
			</g>
			<g>
				<path class="st1" d="M2476.2,3506.6c0,0-18.6-1.9-40.2-10.2c-12.8,27.6-27.6,46.9-27.6,46.9s4-24,15.3-52.2
					c-20.9-10.1-35-22.4-35-22.4s18.6,1.9,40.2,10.2c12.8-27.5,27.6-46.9,27.6-46.9s-4,24-15.3,52.2
					C2462.1,3494.4,2476.2,3506.6,2476.2,3506.6z"/>
			</g>
			<g>
				<path class="st2" d="M2916.3,2927.5c0,0-18.6-1.9-40.2-10.2c-12.8,27.6-27.6,46.9-27.6,46.9s4-24,15.3-52.2
					c-20.9-10.1-35-22.4-35-22.4s18.6,1.9,40.2,10.2c12.8-27.5,27.6-46.9,27.6-46.9s-4,24-15.3,52.2
					C2902.2,2915.2,2916.3,2927.5,2916.3,2927.5z"/>
			</g>
			<g>
				<path class="st2" d="M2490.3,3236.2c0,0-13.7-1.4-29.6-7.5c-9.4,20.3-20.3,34.5-20.3,34.5s2.9-17.7,11.3-38.4
					c-15.4-7.4-25.8-16.4-25.8-16.4s13.7,1.4,29.6,7.5c9.4-20.3,20.3-34.5,20.3-34.5s-2.9,17.7-11.3,38.4
					C2479.9,3227.2,2490.3,3236.2,2490.3,3236.2z"/>
			</g>
			<g>
				<path class="st2" d="M3025.8,2979.9c0,0-13.7-1.4-29.6-7.5c-9.4,20.3-20.3,34.5-20.3,34.5s2.9-17.7,11.3-38.4
					c-15.4-7.4-25.8-16.4-25.8-16.4s13.7,1.4,29.6,7.5c9.4-20.3,20.3-34.5,20.3-34.5s-2.9,17.7-11.3,38.4
					C3015.4,2970.9,3025.8,2979.9,3025.8,2979.9z"/>
			</g>
			<g>
				<path class="st2" d="M3211.6,2572.3c0,0-13.7-1.4-29.6-7.5c-9.4,20.3-20.3,34.5-20.3,34.5s2.9-17.7,11.3-38.4
					c-15.4-7.4-25.8-16.4-25.8-16.4s13.7,1.4,29.6,7.5c9.4-20.3,20.3-34.5,20.3-34.5s-2.9,17.7-11.3,38.4
					C3201.3,2563.3,3211.6,2572.3,3211.6,2572.3z"/>
			</g>
			<g>
				<path class="st1" d="M2720.7,3227.1c0,0-13.7-1.4-29.6-7.5c-9.4,20.3-20.3,34.5-20.3,34.5s2.9-17.7,11.3-38.4
					c-15.4-7.4-25.8-16.4-25.8-16.4s13.7,1.4,29.6,7.5c9.4-20.3,20.3-34.5,20.3-34.5s-2.9,17.7-11.3,38.4
					C2710.3,3218.1,2720.7,3227.1,2720.7,3227.1z"/>
			</g>
			<g>
				<path class="st1" d="M3276.1,2252c0,0-13.7-1.4-29.6-7.5c-9.4,20.3-20.3,34.5-20.3,34.5s2.9-17.7,11.3-38.4
					c-15.4-7.4-25.8-16.4-25.8-16.4s13.7,1.4,29.6,7.5c9.4-20.3,20.3-34.5,20.3-34.5s-2.9,17.7-11.3,38.4
					C3265.7,2243,3276.1,2252,3276.1,2252z"/>
			</g>
			<g>
				<path class="st1" d="M3009.5,2424.9c0,0-13.7-1.4-29.6-7.5c-9.4,20.3-20.3,34.5-20.3,34.5s2.9-17.7,11.3-38.4
					c-15.4-7.4-25.8-16.4-25.8-16.4s13.7,1.4,29.6,7.5c9.4-20.3,20.3-34.5,20.3-34.5s-2.9,17.7-11.3,38.4
					C2999.1,2415.9,3009.5,2424.9,3009.5,2424.9z"/>
			</g>
		</g>
		<g>
			<g>
				<g>
					<path class="st2" d="M2121.8,1181.2l-14.6,73.4l-7.4,37.4l-128.1,645.1c0,0,44.5,6.2,104.8,9.8c11.8,0.7,24.2,1.3,37,1.7
						c95.3,3.3,212.4-2.8,261.9-45.9c74-64.4,129-416.9,88.5-564.5c-18.6-67.6-150.1-112.5-244.5-136.4c-10.5-2.7-20.6-5.1-30.1-7.2
						C2149.5,1185.6,2121.8,1181.2,2121.8,1181.2z"/>
				</g>
				<g class="st3">
					<path class="st0" d="M2107.3,1254.6l-7.4,37.4l-101.8,512.2l-26.4,132.9c0,0,0.9,0.1,2.7,0.4c0.5,0.1,1.1,0.1,1.7,0.2
						c0.5,0.1,1.1,0.1,1.6,0.2c0.4,0.1,0.9,0.1,1.3,0.2c0.2,0,0.4,0.1,0.5,0.1c0.8,0.1,1.7,0.2,2.6,0.3c0.2,0,0.4,0.1,0.6,0.1
						c0.8,0.1,1.6,0.2,2.4,0.3c1.2,0.2,2.4,0.3,3.6,0.4c0.9,0.1,1.9,0.2,2.8,0.3c1,0.1,2,0.2,3,0.3c1.3,0.2,2.7,0.3,4.1,0.5
						c2.9,0.3,5.9,0.6,9.1,0.9c2.8,0.3,5.8,0.6,8.9,0.9c3.6,0.3,7.3,0.7,11.2,1.1c14.3,1.3,30.7,2.6,48.5,3.6
						c3.5,0.2,7,0.4,10.6,0.6c2.5,0.1,5,0.3,7.6,0.4c6.2,0.3,12.5,0.6,18.9,0.8c95.4,3.3,212.4-2.8,261.8-45.9
						c61-53,109-301.4,101.4-469.9c-13,144-51.6,294.9-97.6,334.9c-22.7,19.8-89.3-71.3-81.2-116.9
						c20.8-117.6,24.2-272.5-71.4-378.9C2224.1,1269.2,2159.3,1268,2107.3,1254.6z"/>
				</g>
				<g>
					<path class="st0" d="M2153.8,1964.8c-93.3,0-177.5-11.5-184.2-12.5l-16.1-2.3l156.2-786.3l14.6,2.3
						c33,5.3,323.2,54.9,354.3,168.2c42.4,154.4-15.1,512.2-93.2,580.1C2339.5,1954.3,2242.5,1964.8,2153.8,1964.8z M1989.9,1924
						c95.8,11.6,309.9,24.2,375.4-32.8c69-60,122.2-408.8,83.8-548.9c-20.8-75.7-222.2-126.9-315.1-143.6L1989.9,1924z"/>
				</g>
				<g>
					<path class="st2" d="M2438.3,1639.5l-129-9.7c-11.5-0.9-22.2,6.1-25.9,17c-13.7,40-40.4,134.1-5.2,171.8
						c29.2,31.3,83.6,36.4,119.3,14.4c39.9-24.6,57.6-118.1,64-164.7C2463.6,1653.7,2452.9,1640.6,2438.3,1639.5z"/>
				</g>
				<g class="st3">
					<path class="st0" d="M2283.5,1646.8c-13.7,40-40.4,134-5.2,171.8c29.2,31.3,83.6,36.4,119.3,14.4
						c24.5-15.1,40.6-56.3,50.9-96.6c-8.8,19.6-20.4,34.8-33.2,44c-73.7,52.7-110.5-28.2-110.5-28.2s-11,16.6-17.8,16.6
						c-28.4,0-9.5-86,1.3-130.2C2286.1,1640.9,2284.5,1643.7,2283.5,1646.8z"/>
				</g>
				<g>
					<path class="st0" d="M2347.6,1861.8c-30.3,0-60.5-11.3-80.5-32.8c-39.5-42.3-15.8-135.4,1.9-187.2c6-17.5,23.2-28.8,41.6-27.4
						l129,9.7c11.2,0.8,21.6,6.3,28.6,15c7,8.7,10.2,20.1,8.6,31.1c-9.1,65.8-28.9,149.6-71.2,175.7
						C2388.3,1856.7,2367.9,1861.8,2347.6,1861.8z M2307.5,1645c-4.3,0-8.1,2.7-9.5,6.7c-20,58.6-32.7,130.4-8.5,156.4
						c23.6,25.3,69.4,30.7,100,11.8c24.3-15,45.6-72.5,56.9-153.8c0.4-2.8-0.4-5.5-2.1-7.7c-1.8-2.2-4.3-3.5-7.1-3.7l-129-9.7
						C2308,1645,2307.7,1645,2307.5,1645z"/>
				</g>
				<g>
					<path class="st0" d="M2331,1857.1c-37.7-33.3-40-89.6-29.6-135.1c3.3-15.2,6.6-29.4,13.9-43.7c2.4-4.3,9.2-1.2,7.3,3.4
						c-5,12.8-7,28.2-8.5,42.2c-2.8,27.9-2.2,56.9,9.9,82c4.8,10.3,11.3,19.5,19.7,26.8c1,0.8,2.5,2,2.8,2.1c7,2.9,10.4,11,7.5,18
						C2350.3,1862.4,2338,1864.2,2331,1857.1L2331,1857.1z"/>
				</g>
				<g>
					<path class="st0" d="M2272.9,1291.4c48.3,0.8,96.2,3.4,143.9,11c16.1,2.7,32.2,5.9,48.5,11.2c8.1,2.6,12.5,11.3,9.9,19.3
						c-2.7,8.5-12.3,12.9-20.5,9.4c-42.7-16.7-90-23.6-135.6-29.9c-15.6-2-31.4-3.8-47-5.2
						C2262.2,1306.2,2262.9,1291.5,2272.9,1291.4L2272.9,1291.4z"/>
				</g>
			</g>
			<g>
				<g>
					<path class="st2" d="M1726.1,1155.6l-322.3,250.1c-75.9-25.7-151.7-0.9-183,75.3l272.5,108.6l293.9-344.3L1726.1,1155.6z"/>
				</g>
				<g>
					<path class="st0" d="M1493.3,1605.9c-2,0-4.1-0.4-6-1.2l-272.5-108.6c-4-1.6-7.3-4.8-8.9-8.8c-1.7-4-1.7-8.5-0.1-12.5
						c32-78,109.6-112.3,194.8-87.2l315.5-244.9c3.5-2.8,8.1-3.9,12.5-3.2c4.4,0.7,8.4,3.2,10.9,6.9l61.1,89.7
						c4.1,6.1,3.7,14.1-1.1,19.7l-293.9,344.3C1502.5,1603.9,1498,1605.9,1493.3,1605.9z M1243,1472.4l245.5,97.8l278.2-326
						l-44.4-65.1l-308.6,239.5c-4.3,3.3-10,4.3-15.2,2.6C1332.1,1398.6,1272.7,1418.8,1243,1472.4z"/>
				</g>
				<g>
					<path class="st0" d="M1581.2,1503c-1.1,0-2.3-0.1-3.4-0.4c-8.8-1.9-14.4-10.5-12.5-19.3c14.3-67.1-18.2-107.1-62.1-152.4
						c-6.3-6.4-6.1-16.7,0.3-23c6.4-6.3,16.7-6.1,23,0.3c47.3,48.7,88.2,99.2,70.6,181.8C1595.5,1497.7,1588.7,1503,1581.2,1503z"/>
				</g>
				<g>
					<ellipse class="st2" cx="1503.5" cy="1453.4" rx="37.7" ry="37.7"/>
				</g>
				<g>
					<path class="st0" d="M1503.5,1507.4c-0.1,0-0.2,0-0.3,0c-29.8-0.2-53.9-24.5-53.7-54.3c0,0,0,0,0,0c0.2-29.7,24.4-53.7,54-53.7
						c0.1,0,0.2,0,0.3,0c29.8,0.2,53.9,24.5,53.7,54.3c-0.1,14.4-5.8,28-16,38.1C1531.3,1501.9,1517.8,1507.4,1503.5,1507.4z
						 M1482,1453.3L1482,1453.3c-0.1,11.8,9.5,21.5,21.4,21.6c0,0,0.1,0,0.1,0c5.7,0,11-2.2,15.1-6.2c4.1-4,6.3-9.4,6.4-15.2
						c0.1-11.8-9.5-21.5-21.4-21.6c0,0-0.1,0-0.1,0C1491.7,1431.9,1482.1,1441.5,1482,1453.3z"/>
				</g>
				<g class="st3">
					<path class="st0" d="M1647.7,1309.6l-311.6,180.6l146.6,52C1513.6,1453,1575.7,1378.9,1647.7,1309.6z"/>
				</g>
			</g>
			<g>
				<g>
					<g>
						<path class="st4" d="M1565.9,2821c0.3,44.1,23.3,85,60.2,109.1c117.4,76.4,238.7,137.4,365.6,177.3
							c21.2,6.7,42.5,12.7,64,18.2c39.1,1.5,53.3-10.5,34.6-40.2l-186.4-164.5c-23.9-21.1-36.6-52.4-33-84.2
							c4.2-37,20.3-79.4,40-123.5l-292.4-96.2c-16.3,37.1-31.6,78.5-41.3,119.2C1569.9,2765.4,1565.7,2794.4,1565.9,2821z"/>
					</g>
					<g class="st5">
						<path class="st2" d="M1577,2736.1c9.8-40.6,25-82.1,41.3-119.2l23.6,7.8c-11.5,28.9-21.7,59.5-29,89.7
							c-7.1,29.4-11.4,58.3-11.2,84.9c0.3,44.1,23.3,85,60.2,109.1c117.4,76.4,238.7,137.4,365.6,177.3c21.2,6.7,42.5,12.7,64,18.2
							c2.3,0.1,4.4,0.1,6.6,0.1c2.4,16.1-12.9,22.7-42.5,21.6c-21.5-5.5-42.8-11.5-64-18.2c-126.8-39.9-248.2-100.9-365.6-177.3
							c-36.9-24.1-59.9-65-60.2-109.1C1565.7,2794.4,1569.9,2765.4,1577,2736.1z"/>
					</g>
					<g class="st6">
						<path class="st0" d="M1577,2736.1c140.9,63,287.1,187.1,414.6,371.2c21.2,6.7,42.5,12.7,64,18.2c39.1,1.5,53.3-10.5,34.6-40.2
							l-186.4-164.5c-23.9-21.1-36.6-52.4-33-84.2c4.2-37,20.3-79.4,40-123.5l-292.4-96.2C1602.1,2654,1586.8,2695.4,1577,2736.1z"
							/>
					</g>
					<g>
						<path class="st0" d="M2062.2,3141c-2.4,0-4.8-0.1-7.1-0.1c-1.1,0-2.2-0.2-3.2-0.5c-144.3-36.6-286.3-101.2-434.1-197.5
							c-41.7-27.2-66.9-72.7-67.2-121.8c-0.5-71.8,29-154.1,53.8-210.4c3.2-7.3,11.4-10.9,18.9-8.4l292.4,96.2
							c4.1,1.4,7.5,4.4,9.3,8.4c1.8,4,1.8,8.5,0,12.5c-15.8,35.3-34.4,80.6-38.7,119c-3,26.4,7.4,52.9,27.9,70.9l186.4,164.5
							c1.1,1,2.1,2.1,2.8,3.3c11.3,17.9,13.6,33.1,6.6,45.1C2100.7,3138.2,2079.7,3141,2062.2,3141z M2057.8,3110.2
							c17.9,0.5,23.8-2.4,25.2-3.3c-0.1-1.2-0.7-4.7-4.7-11.5l-184.7-163c-28-24.7-42.2-61.1-38.1-97.4
							c4.2-36.8,19.5-77.9,34.4-112.5l-262.9-86.5c-29.9,70.8-46,136.1-45.7,185c0.3,38.8,20.2,74.7,53.2,96.3
							C1779,3011.2,1917.5,3074.3,2057.8,3110.2z"/>
					</g>
				</g>
				<g>
					<g>
						<path class="st4" d="M2197.4,1800.3c41.6-14.5,87.9-6.6,123,20c111.4,84.8,209.7,178.6,289.9,284.7
							c13.4,17.7,26.3,35.8,38.7,54.1c14.5,36.3,8.1,53.7-26.2,46.1l-217.6-120.3c-27.9-15.4-61.7-16.8-90.3-2.8
							c-33.4,16.4-68,45.8-102.9,79.2l-189-243c29.4-27.8,63.4-56.1,98.3-79C2146.5,1822.8,2172.3,1809.1,2197.4,1800.3z"/>
					</g>
					<g class="st5">
						<path class="st2" d="M2121.3,1839.4c-35,22.9-68.9,51.2-98.3,79l15.2,19.6c23.4-20.5,48.7-40.5,74.7-57.5
							c25.3-16.6,51.1-30.3,76.2-39.1c41.6-14.5,87.9-6.6,123,20c111.4,84.8,209.7,178.6,289.9,284.7c13.4,17.7,26.3,35.8,38.7,54.1
							c0.8,2.1,1.6,4.2,2.3,6.1c16-3.1,17.1-19.8,6.1-47.3c-12.4-18.4-25.3-36.5-38.7-54.1c-80.2-106-178.5-199.8-289.9-284.7
							c-35.1-26.7-81.4-34.6-123-20C2172.3,1809.1,2146.5,1822.8,2121.3,1839.4z"/>
					</g>
					<g class="st3">
						<path class="st0" d="M2121.3,1839.4c106.7,111.5,272.8,207.5,489.1,265.6c13.4,17.7,26.3,35.8,38.7,54.1
							c14.5,36.3,8.1,53.7-26.2,46.1l-217.6-120.3c-27.9-15.4-61.7-16.8-90.3-2.8c-33.4,16.4-68,45.8-102.9,79.2l-189-243
							C2052.4,1890.5,2086.3,1862.2,2121.3,1839.4z"/>
					</g>
					<g>
						<path class="st0" d="M2636.7,2222.3c-5.2,0-11-0.7-17.3-2.1c-1.4-0.3-2.8-0.8-4.1-1.5l-217.6-120.2
							c-23.8-13.2-52.3-14.1-76.1-2.4c-34.7,17-71.1,49.8-99,76.5c-3.1,3-7.4,4.6-11.8,4.2c-4.3-0.3-8.3-2.5-11-5.9l-189-243
							c-4.9-6.3-4.2-15.2,1.6-20.6c44.7-42.3,112.2-97.8,180.1-121.4c46.4-16.2,97.7-7.8,137.4,22.3
							c140.4,106.9,249,218.9,332,342.4c0.6,0.9,1.1,1.9,1.5,2.9c6.9,17.2,14.4,41.9,0.8,57.9
							C2657.9,2218.7,2648.7,2222.3,2636.7,2222.3z M2628.2,2190.6c7.7,1.5,11.3,0.9,12.4,0.5c0.4-1.7,1.1-8.2-5.3-24.8
							c-81-120.1-187-229.3-324.2-333.7c-31.4-23.9-72-30.5-108.6-17.8c-46.1,16.1-102.2,53.3-158.8,105.2l169.9,218.5
							c27.5-25.6,61.1-53.9,94.4-70.2c32.8-16.1,71.9-14.9,104.6,3.1L2628.2,2190.6z"/>
					</g>
				</g>
				<g>
					<g>
						<g>
							<path class="st4" d="M2346.6,2870.6c0,0,119.1-41.4,198.4,195.6c3.7,11.1-3.8,22.8-15.7,24c-63.5,6.7-241.7,15-261.8-98.2
								L2346.6,2870.6z"/>
						</g>
						<g>
							<path class="st1" d="M2334.8,2887.9c0,0,84.5-29.4,140.6,139.2c2.5,7.4-2.6,15.1-10.4,15.9c-44,4.7-171.8,11.3-186.1-69.3
								L2334.8,2887.9z"/>
						</g>
						<g>
							<path class="st7" d="M2321,2899c0,0,57-19.8,94.8,93.9c1.7,5-1.7,10.2-7,10.8c-29.7,3.2-115.9,7.6-125.6-46.8L2321,2899z"/>
						</g>
						<g>
							<path class="st0" d="M2464.4,3105.5c-83.7,0-192.1-18.5-208.7-111.4c-0.5-3,0.1-6,1.7-8.6l79.1-121.4
								c1.4-2.2,3.6-3.9,6.1-4.7c1.4-0.5,35.3-11.8,79.2,9.8c55.4,27.2,100.6,92.3,134.4,193.3c2.9,8.7,1.7,18.1-3.2,25.8
								c-5,7.8-13.2,12.8-22.5,13.8C2513,3103.8,2489.8,3105.5,2464.4,3105.5z M2280.1,2994.4c22.8,99.6,195.1,89.5,248,83.9
								c2.8-0.3,4.3-2,5-3c0.6-0.9,1.5-2.9,0.7-5.4c-39.5-118.1-88.3-162.8-122.3-179.5c-27.2-13.4-49.1-11.1-57.3-9.5
								L2280.1,2994.4z"/>
						</g>
					</g>
					<g>
						<path class="st8" d="M2196.2,2931.6c15.7,40.8,51.6,64.3,51.6,64.3s31.9-15.7,67.7-68.8c35.8-53.1,38.1-88.1,38.1-88.1
							s-35.9-23.5-80.2-21.9L2196.2,2931.6z"/>
					</g>
					<g>
						<path class="st0" d="M2247.8,3008.3c-2.4,0-4.7-0.7-6.8-2c-1.6-1.1-39.5-26.2-56.4-70.2c-2.5-6.4,0.7-13.6,7.1-16
							c6.4-2.5,13.6,0.7,16,7.1c10.3,26.7,30.5,45.5,40.7,53.8c10.4-7.1,32.6-25,56.7-60.7c23.9-35.4,32-62.3,34.7-74.6
							c-11.7-6.1-37.2-17.2-66.1-16c-6.9,0.2-12.6-5.1-12.8-12c-0.2-6.8,5.1-12.6,12-12.8c47.7-1.6,85.8,22.9,87.4,23.9
							c3.8,2.5,5.9,6.7,5.6,11.2c-0.1,1.6-3,39-40.2,94.2c-37.2,55.2-71,72.3-72.5,73C2251.5,3007.9,2249.6,3008.3,2247.8,3008.3z"
							/>
					</g>
					<g>
						<path class="st4" d="M2146.1,2960.1c69.7,26.4,115.1-44.8,126.2-61.2c11.1-16.5,60.1-85.3,8.4-138.3
							c-52.3-53.6-329.2-206-392.1-112.6S2075.6,2933.5,2146.1,2960.1z"/>
					</g>
					<g class="st5">
						<path class="st2" d="M2282.4,2883.2c10.1-27.8,13.1-62.9-16.1-92.9c-51-52.3-315.3-198.3-386.9-119.3c1.4-8.2,4.4-16,9.2-23.1
							c63-93.4,339.8,59,392.2,112.6C2322,2803,2299,2855.4,2282.4,2883.2z"/>
					</g>
					<g class="st6">
						<path class="st0" d="M2161.4,2936.3c55,20.8,94.8-19,114.7-44.9c-13.8,2.8-29.1,2.1-45.9-4.2
							c-60.8-23-255.2-169.2-267.1-268.8c-27.5-0.7-50.6,5.1-66.2,19.8C1864.4,2735.5,2094.3,2910.9,2161.4,2936.3z"/>
					</g>
					<g>
						<path class="st0" d="M2176.5,2981.4c-13.2,0-25.3-2.8-35.9-6.8l0,0c-55.4-21-237.7-151.5-272-259.5
							c-9.3-29.4-6.9-54.8,7.2-75.7c14.1-20.9,37.1-32.9,68.3-35.8c114.3-10.3,306.7,104.3,347.7,146.3c27,27.7,47.9,77.3-5.7,156.4
							l-1.8,2.7C2246.6,2964.9,2208.4,2981.4,2176.5,2981.4z M1958.9,2633.7c-4.2,0-8.2,0.2-12.1,0.5c-21.8,2-36.7,9.3-45.5,22.3
							c-8.7,12.9-9.8,29-3.4,49.2c29,91.1,196.8,218.5,253.6,240c0,0,0,0,0,0c38,14.4,73-3.3,107.1-54l1.9-2.8
							c34.2-50.4,37.2-88.9,9.2-117.6C2229.3,2730,2058.1,2633.7,1958.9,2633.7z"/>
					</g>
					<g>
						<path class="st0" d="M2047.8,2908.1c-2.7,0-5.5-1.2-7.3-3.5c-3.2-4-2.5-9.9,1.5-13.1c64.9-51.4,111.3-120.1,134.2-198.9
							c0.2-0.5,0.4-1.1,0.6-1.6c2.3-4.6,7.9-6.4,12.5-4.2c4.2,2.1,6.1,6.9,4.7,11.2c-24,82.4-72.6,154.4-140.4,208.1
							C2051.8,2907.4,2049.8,2908.1,2047.8,2908.1z"/>
					</g>
					<g>
						<g>
							<path class="st4" d="M2638.6,2423.6c0,0,119.1-41.4,198.4,195.6c3.7,11.1-3.8,22.8-15.7,24c-63.5,6.7-241.7,15-261.8-98.2
								L2638.6,2423.6z"/>
						</g>
						<g>
							<path class="st1" d="M2626.8,2440.9c0,0,84.5-29.4,140.6,139.2c2.5,7.4-2.6,15.1-10.4,15.9c-44,4.7-171.8,11.3-186.1-69.3
								L2626.8,2440.9z"/>
						</g>
						<g>
							<path class="st7" d="M2613,2452c0,0,57-19.8,94.8,93.9c1.7,5-1.7,10.2-7,10.8c-29.7,3.2-115.9,7.6-125.6-46.8L2613,2452z"/>
						</g>
						<g>
							<path class="st0" d="M2756.4,2658.6c-83.7,0-192.1-18.5-208.7-111.4c-0.5-3,0.1-6,1.7-8.6l79.1-121.4
								c1.4-2.2,3.6-3.9,6.1-4.7c1.4-0.5,35.3-11.8,79.2,9.8c55.4,27.2,100.6,92.3,134.4,193.3c2.9,8.7,1.7,18.1-3.2,25.8
								c-5,7.8-13.2,12.8-22.5,13.8C2805,2656.9,2781.8,2658.6,2756.4,2658.6z M2572.1,2547.4c22.8,99.5,195.1,89.5,248,83.9
								c2.8-0.3,4.3-2,5-3c0.6-0.9,1.5-2.9,0.7-5.4c-39.5-118.1-88.3-162.8-122.3-179.5c-27.2-13.4-49.1-11.1-57.3-9.5
								L2572.1,2547.4z"/>
						</g>
					</g>
					<g>
						<path class="st8" d="M2488.2,2484.6c15.7,40.8,51.6,64.3,51.6,64.3s31.9-15.7,67.7-68.8c35.8-53.1,38.1-88.1,38.1-88.1
							s-35.9-23.5-80.2-21.9L2488.2,2484.6z"/>
					</g>
					<g>
						<path class="st0" d="M2539.8,2561.3c-2.4,0-4.7-0.7-6.8-2c-1.6-1.1-39.5-26.2-56.4-70.2c-2.5-6.4,0.7-13.6,7.1-16
							c6.4-2.5,13.6,0.7,16,7.1c10.3,26.7,30.5,45.5,40.7,53.8c10.4-7.1,32.6-25,56.7-60.7c23.9-35.4,32-62.3,34.7-74.6
							c-11.7-6.1-37.2-17.1-66.1-16c-7,0.2-12.6-5.1-12.8-12c-0.2-6.8,5.1-12.6,12-12.8c47.7-1.6,85.8,22.9,87.4,23.9
							c3.8,2.5,5.9,6.7,5.6,11.2c-0.1,1.6-3,39-40.2,94.2c-37.2,55.2-71,72.3-72.5,73C2543.5,2560.9,2541.7,2561.3,2539.8,2561.3z"
							/>
					</g>
					<g>
						<path class="st4" d="M2438.1,2513.2c69.7,26.4,115.1-44.8,126.2-61.2c11.1-16.5,60.1-85.3,8.4-138.3
							c-52.3-53.6-329.2-206-392.1-112.6S2367.6,2486.5,2438.1,2513.2z"/>
					</g>
					<g class="st5">
						<path class="st2" d="M2574.4,2436.2c10.1-27.8,13.1-62.9-16.1-92.9c-51-52.3-315.3-198.3-386.9-119.3c1.4-8.2,4.4-16,9.2-23.1
							c63-93.4,339.8,59,392.2,112.6C2614,2356,2591,2408.5,2574.4,2436.2z"/>
					</g>
					<g class="st6">
						<path class="st0" d="M2453.4,2489.3c55,20.8,94.8-19,114.7-44.9c-13.8,2.8-29.1,2.1-45.9-4.2
							c-60.8-23-255.2-169.2-267.1-268.8c-27.5-0.7-50.6,5.1-66.2,19.8C2156.4,2288.5,2386.3,2463.9,2453.4,2489.3z"/>
					</g>
					<g>
						<path class="st0" d="M2468.5,2534.4c-13.2,0-25.3-2.8-35.9-6.8l0,0c-55.4-21-237.7-151.5-272-259.5
							c-9.3-29.4-6.9-54.8,7.2-75.7c14.1-20.9,37.1-32.9,68.3-35.8c114.3-10.3,306.7,104.3,347.7,146.3c27,27.7,47.9,77.3-5.7,156.4
							l-1.8,2.7C2538.6,2517.9,2500.5,2534.4,2468.5,2534.4z M2250.9,2186.7c-4.2,0-8.2,0.2-12.1,0.5c-21.8,2-36.7,9.3-45.5,22.3
							c-8.7,12.9-9.8,29-3.4,49.2c29,91.1,196.8,218.5,253.6,240c0,0,0,0,0,0c38,14.4,73-3.3,107.1-54l1.9-2.8
							c34.2-50.4,37.2-88.9,9.2-117.6C2521.3,2283,2350.1,2186.7,2250.9,2186.7z"/>
					</g>
					<g>
						<path class="st0" d="M2339.8,2461.1c-2.7,0-5.5-1.2-7.3-3.5c-3.2-4-2.5-9.9,1.5-13.1c64.9-51.4,111.3-120.1,134.2-198.9
							c0.2-0.5,0.4-1.1,0.6-1.6c2.3-4.6,7.9-6.4,12.5-4.2c4.2,2.1,6.1,6.9,4.7,11.2c-24,82.4-72.6,154.4-140.4,208.1
							C2343.8,2460.5,2341.8,2461.1,2339.8,2461.1z"/>
					</g>
					<g>
						<path class="st8" d="M2075.7,2777.6l80.5,31.4c36.4,14.2,77.8,7.7,107.6-17l0,0c88.8-73.5,155.2-169.7,192.2-278l0,0
							c12.4-36.4,3.4-76.6-23.4-104.8l-59.2-62.3L2075.7,2777.6z"/>
					</g>
					<g>
						<path class="st8" d="M2439.7,2556.5c-19.7,46.3-45,90-75.3,130.2c-29.1,38.7-62.8,74-100.6,105.3
							c-29.8,24.7-71.2,31.2-107.6,17l-80.6-31.4l134.5-194.6l163.2-236l59.2,62.3c13.4,14.1,22.3,31.2,26.4,49.3
							c4,18.1,3.2,37.3-3,55.5C2451,2528.5,2445.6,2542.6,2439.7,2556.5z"/>
					</g>
					<g class="st6">
						<g>
							<path class="st2" d="M2388.5,2652.4c-3.5,5.4-7.1,10.7-10.8,16c23.2-38.2,42.2-78.8,56.7-121.4c6.2-18.2,7.1-37.3,3-55.5
								c-4.1-18.1-13-35.2-26.4-49.3l-59.2-62.2l11-15.8l10.5-17.1l59.2,62.3c13.4,14.1,22.4,31.2,26.4,49.3
								c4.1,18.1,3.2,37.3-3,55.5C2439.3,2563,2416.6,2609.4,2388.5,2652.4z"/>
						</g>
					</g>
					<g>
						<path class="st2" d="M667.5,1551.6c-0.4,2.3-0.8,4.6-1,7c-0.1,0.8-0.1,1.5-0.2,2.3c0,0.1,0,0.2,0,0.3
							c-0.1,0.8-0.1,1.7-0.1,2.5c0,0.8,0,1.7,0,2.6c0,0.9,0,1.7,0.1,2.6c0,0.5,0.1,0.9,0.1,1.4c0,0.4,0.1,0.9,0.1,1.4
							c0,0.3,0,0.5,0,0.8c0,0.3,0,0.5,0,0.7c0,0.1,0,0.2,0.1,0.2c0,0.3,0,0.5,0,0.7c0,0.1,0,0.1,0,0.2c0,0.1,0,0.1,0,0.2
							c0,0.4,0.1,0.9,0.1,1.3c0,0.1,0,0.2,0,0.3c0,0.1,0,0.2,0,0.3c0,0.7,0.1,1.4,0.2,2.1c0,0.4,0.1,0.9,0.1,1.4c0,0.3,0,0.6,0.1,1
							c0,0.3,0,0.7,0.1,1c0,0.2,0,0.4,0,0.6c0,0.3,0.1,0.5,0.1,0.7c0,0.1,0,0.3,0,0.4c-0.1,0,0,0.1,0,0.2c0,0.2,0,0.4,0,0.7
							c0.1,0.5,0.1,1.1,0.2,1.6c0,0.3,0,0.6,0.1,0.9c0,0.3,0.1,0.5,0.1,0.8l0,0.1c0,0.4,0,0.8,0.1,1.2c0,0,0,0.1,0,0.1
							c0,0.5,0.1,0.9,0.1,1.4c0,0.2,0,0.3,0,0.5c0,0.2,0,0.4,0.1,0.6c0,0.1,0,0.2,0,0.3c0.1,0.8,0.1,1.6,0.2,2.4
							c0.1,1,0.2,1.9,0.3,2.9c0.1,0.3,0.1,0.6,0.1,0.9c0.1,1,0.2,2.1,0.4,3.1c0.2,1.2,0.3,2.4,0.4,3.7c0.2,1.5,0.4,3,0.5,4.6
							c0.1,0.7,0.2,1.5,0.2,2.2c0.1,0.9,0.2,1.8,0.3,2.7c0.1,0.9,0.3,1.9,0.4,2.8c0,0.2,0.1,0.4,0.1,0.7c0,0.3,0,0.6,0.1,1
							c0,0.1,0,0.1,0,0.1c0.1,0.8,0.2,1.5,0.3,2.4c0,0.1,0,0.2,0,0.3c0.1,0.6,0.2,1.2,0.2,1.9c0,0,0,0.1,0,0.2c0,0.2,0,0.3,0.1,0.5
							c0.1,0.4,0.1,0.8,0.2,1.1c0,0.1,0.1,0.3,0.1,0.5c0,0.2,0,0.4,0.1,0.6c0,0.3,0.1,0.6,0.1,1c0.1,0.3,0.1,0.5,0.1,0.9
							c0,0.2,0.1,0.4,0.1,0.6c0.2,0.9,0.3,1.8,0.4,2.7c0.1,0.7,0.2,1.3,0.3,2c0.1,0.7,0.2,1.4,0.3,2.2c0.1,0.5,0.2,1,0.3,1.6
							c0,0.4,0.1,0.8,0.2,1.2c0.1,0.8,0.2,1.6,0.4,2.4c0,0.2,0,0.3,0,0.4c0.2,0.9,0.3,1.7,0.5,2.6c0,0.2,0.1,0.4,0.1,0.6
							c0,0.1,0,0.2,0,0.3c0.1,0.6,0.2,1.2,0.3,1.9c0.1,0.9,0.3,1.7,0.5,2.6c0,0.3,0.1,0.6,0.1,1s0.1,0.6,0.2,1c0,0.1,0,0.2,0,0.3
							c0,0.1,0,0.1,0,0.1c0.2,0.8,0.3,1.6,0.4,2.4c0,0.1,0,0.1,0,0.2c0,0.3,0.1,0.6,0.2,1c0.2,1,0.4,2.1,0.6,3.2
							c0.1,0.5,0.2,1.1,0.3,1.6c0,0.1,0,0.2,0.1,0.2c0,0.2,0.1,0.4,0.1,0.6c0.2,1.1,0.4,2.3,0.6,3.4c0.1,0.2,0.1,0.4,0.1,0.6
							c0,0.2,0,0.3,0,0.4c0.1,0.4,0.1,0.7,0.2,1.1c0,0.3,0.1,0.6,0.2,0.9c0.1,0.4,0.2,0.8,0.2,1.2c0.1,0.5,0.2,1.1,0.3,1.6
							c0,0.1,0,0.1,0,0.2c0,0.4,0.1,0.8,0.2,1.2c0.1,0.3,0.1,0.5,0.1,0.8c0.1,0.3,0.1,0.5,0.2,0.9c0,0.2,0.1,0.3,0.1,0.4
							c0,0.1,0,0.2,0,0.3c0,0.2,0.1,0.3,0.1,0.4c0,0.1,0.1,0.2,0.1,0.3c0,0.3,0.1,0.6,0.2,0.9c0.1,0.6,0.2,1.3,0.4,1.9
							c0.2,0.9,0.4,1.7,0.5,2.6c0.1,0.6,0.2,1.2,0.3,1.8c0.1,0.4,0.2,0.9,0.3,1.4c0,0.2,0.1,0.3,0.1,0.4c0.2,0.7,0.3,1.4,0.4,2
							c0.2,1.1,0.4,2.3,0.7,3.5c0,0,0,0.1,0,0.1c0,0.2,0,0.3,0.1,0.5c0,0.3,0.1,0.7,0.2,1.1c0,0.3,0.1,0.5,0.2,0.8
							c0.1,0.4,0.2,0.9,0.3,1.4c0,0.4,0.1,0.7,0.2,1.1c0.1,0.3,0.1,0.5,0.2,0.8c0,0.1,0,0.1,0,0.2c0.2,1.1,0.5,2.2,0.7,3.4
							c0,0.1,0,0.1,0,0.2c0.1,0.2,0.1,0.4,0.2,0.7c0,0.2,0,0.3,0.1,0.4c0.1,0.3,0.2,0.6,0.2,0.9c0.1,0.3,0.1,0.5,0.2,0.8
							c0.2,0.8,0.4,1.6,0.5,2.4c0.1,0.4,0.2,0.9,0.3,1.4c0.1,0.3,0.2,0.7,0.3,1c0,0.4,0.1,0.8,0.2,1.1c0,0,0,0.1,0,0.1
							c0.2,0.6,0.3,1.2,0.4,1.8c0,0.1,0,0.1,0.1,0.2c0,0.1,0.1,0.2,0.1,0.3c0.1,0.6,0.2,1.1,0.4,1.7l0.2,0.8c0,0.1,0.1,0.2,0.1,0.4
							c0,0.3,0.1,0.7,0.2,1.1c0.1,0.3,0.2,0.7,0.3,1c0.1,0.3,0.1,0.6,0.2,0.9c0.1,0.5,0.2,1,0.3,1.5c0.1,0.3,0.2,0.6,0.3,0.9
							c0,0.1,0,0.1,0,0.2c0,0.1,0.1,0.2,0.1,0.4c0.1,0.5,0.3,1,0.4,1.5c0,0,0,0.1,0,0.1c0.2,0.7,0.4,1.3,0.5,2
							c0.1,0.5,0.2,0.9,0.3,1.4c0.3,1.2,0.6,2.4,0.9,3.6c0.1,0.4,0.2,0.7,0.2,1c0,0.1,0.1,0.2,0.1,0.3c0.1,0.5,0.3,0.9,0.4,1.4
							c0,0.1,0,0.1,0,0.2c0.1,0.4,0.3,0.9,0.3,1.4c0.2,0.5,0.3,1,0.4,1.5c0.7,2.7,1.4,5.3,2.1,8c0.1,0.7,0.3,1.4,0.5,2.1
							c0.1,0.2,0.1,0.5,0.2,0.7c0.2,0.5,0.3,1,0.4,1.6c0.1,0.3,0.2,0.6,0.2,0.8c0.1,0.3,0.2,0.6,0.3,0.9l0.6,2.1
							c0.4,1.2,0.7,2.4,1,3.7c0,0.1,0,0.1,0,0.1c0.2,0.8,0.5,1.6,0.7,2.5c0.2,0.7,0.4,1.4,0.5,2.1c0.4,1.3,0.8,2.6,1.2,4
							c0.3,1,0.6,1.9,0.9,2.9c0.1,0.5,0.3,1,0.4,1.6c0.4,1.4,0.8,2.8,1.3,4.1c0.3,1.1,0.6,2.2,1,3.3c0.1,0.3,0.2,0.7,0.3,1
							c0.2,0.6,0.4,1.2,0.5,1.8c0.7,2.3,1.4,4.6,2.1,6.9c0.4,1.4,0.9,2.9,1.3,4.3c0.1,0.1,0.1,0.1,0.1,0.2c0,0.1,0,0.1,0.1,0.2
							c0.4,1.2,0.7,2.4,1.1,3.5c0.1,0.2,0.1,0.4,0.2,0.6c0.1,0.3,0.2,0.7,0.3,1c0.5,1.8,1.1,3.5,1.8,5.4c0.3,0.9,0.6,1.9,0.9,2.8
							c0.1,0.3,0.2,0.6,0.2,0.8c0,0.1,0.1,0.2,0.1,0.3c0.2,0.6,0.4,1.1,0.6,1.7c0.1,0.3,0.2,0.6,0.3,0.8c0.1,0.4,0.3,0.9,0.5,1.4
							c0.9,2.9,1.9,5.8,3,8.7c0.1,0.3,0.2,0.5,0.3,0.8c0.4,1.1,0.7,2.1,1.1,3.2c0.7,2,1.5,4.1,2.1,6.1c0.4,1,0.8,2,1.1,3
							c0,0.1,0,0.1,0,0.2c0.6,1.5,1.1,3,1.6,4.5c0.1,0.3,0.2,0.6,0.3,0.8l0.1,0c0.4,1.1,0.8,2.1,1.1,3.1c0.3,0.8,0.6,1.6,0.8,2.4
							c0.5,1.3,1,2.6,1.5,3.9c1.2,3.2,2.4,6.4,3.7,9.6c0.2,0.6,0.4,1.2,0.6,1.7c0.3,0.6,0.5,1.2,0.7,1.8c0.1,0.4,0.3,0.8,0.5,1.2
							c0.6,1.6,1.2,3.1,1.8,4.7l0.1,0.1c0.1,0.2,0.2,0.3,0.2,0.5c0,0.1,0.1,0.2,0.1,0.3c0.4,0.8,0.7,1.7,1.1,2.6
							c0.2,0.4,0.4,1,0.6,1.5c0.4,0.9,0.7,1.8,1.1,2.7c0,0.1,0.1,0.2,0.1,0.3c0.3,0.6,0.5,1.2,0.8,1.9c0.4,1.1,0.9,2.2,1.4,3.3
							c0.3,0.8,0.7,1.6,1,2.4c0.5,1.3,1.1,2.7,1.7,4c0.4,0.9,0.7,1.8,1.2,2.8c1,2.4,2.1,4.8,3.1,7.2c0.3,0.8,0.7,1.6,1,2.5
							c0.2,0.3,0.3,0.7,0.5,1c0.8,2.1,1.7,4.2,2.7,6.2c0.4,1.1,0.9,2.1,1.5,3.3c0.7,1.6,1.3,3.1,2.1,4.7c2.4,5.4,4.9,10.7,7.4,16.2
							c1.1,2.3,2.2,4.6,3.3,6.9c0.2,0.4,0.4,0.8,0.6,1.2c0.8,1.7,1.6,3.3,2.4,5c0.6,1.1,1.1,2.3,1.7,3.4c0.4,0.9,0.9,1.7,1.2,2.6
							c2.3,4.6,4.5,9.1,6.8,13.6c0.3,0.6,0.6,1.2,0.9,1.8c1.1,2.2,2.3,4.5,3.4,6.7c0.9,1.7,1.8,3.4,2.7,5.2c0.1,0.2,0.2,0.4,0.3,0.6
							c0.2,0.3,0.4,0.7,0.6,1c0.3,0.5,0.6,1,0.8,1.5c1.9,3.5,3.7,7,5.7,10.5c0,0.1,0,0.1,0,0.1c0.6,1,1.1,2,1.6,3
							c0.7,1.2,1.3,2.4,2,3.6c0.4,0.6,0.7,1.3,1.1,2c0.3,0.5,0.6,1,0.8,1.5c1.5,2.8,3.1,5.6,4.7,8.4c0.1,0.2,0.3,0.5,0.4,0.7
							c0.1,0.2,0.2,0.3,0.3,0.5c4.2,7.4,8.4,14.9,12.9,22.4c2.8,4.7,5.6,9.4,8.5,14.2c3,5,6,9.9,9.3,15c1.4,2.3,2.9,4.7,4.4,7
							c1.3,2.3,2.8,4.5,4.3,6.7c3,4.8,6.2,9.6,9.5,14.4c6.4,9.7,13.1,19.4,20,29.2l0,0c2.4,3.4,4.8,6.8,7.2,10.2
							c12.2,17.1,25.1,34.3,38.8,51.5l7.2,9c0.5,0.7,1,1.3,1.5,1.9c47.3,58.6,103,118.1,168.8,177.1c22.6,20.4,46.4,40.7,71.5,60.9
							c9.3,7.5,18.7,14.9,28.3,22.4c8.6,6.7,17.2,13.2,25.7,19.5c4.3,3.2,8.5,6.3,12.8,9.5c12.8,9.4,25.5,18.5,38.1,27.2
							c12.6,8.8,25.2,17.4,37.6,25.6c6.8,4.5,13.6,9,20.4,13.3c2.5,1.6,5.1,3.3,7.6,4.9c3.1,1.9,6.2,3.9,9.2,5.8
							c4.2,2.6,8.2,5.1,12.3,7.7c3.5,2.2,7,4.3,10.5,6.4c6.9,4.2,13.7,8.3,20.6,12.3c3.3,1.9,6.5,3.8,9.7,5.7
							c16,9.3,31.7,18,47.3,26.4c3.8,2,7.6,4.1,11.4,6s7.6,4,11.3,5.9c7.6,3.9,15,7.7,22.5,11.4c3.7,1.8,7.5,3.7,11.1,5.5
							c3.8,1.8,7.5,3.7,11.3,5.5c7.1,3.4,14.2,6.7,21.1,9.9c0.7,0.3,1.4,0.6,2.1,0.9c5.6,2.6,11.1,5.1,16.6,7.5
							c12.9,5.7,25.6,11.2,38.2,16.4c3.3,1.3,6.6,2.7,9.9,4c19.3,7.8,38.1,14.9,56.5,21.5c2.8,1.1,5.7,2.1,8.5,3
							c3.5,1.2,7,2.4,10.5,3.7c5.8,2,11.6,3.9,17.3,5.8c8.8,2.9,17.6,5.6,26.2,8.2c2.5,0.8,5,1.5,7.4,2.2c3.3,1,6.6,2,9.8,2.9
							c9.8,2.9,19.5,5.5,28.9,8.1c5.9,1.6,11.8,3.1,17.6,4.5c1.4,0.4,2.9,0.8,4.4,1.1c46.1,11.5,87.8,19.1,124.1,24.1
							c13.5,1.9,26.1,3.4,38.1,4.6c68.9,7,111.9,4.2,120.5,3.4c1.1-0.1,1.6-0.1,1.6-0.1l0.1,0c2.5-1.7,4.9-3.4,7.3-5.1
							c1.4-1,2.8-2.1,4.2-3.1c4.6-3.3,9.2-6.7,13.7-10.1c3.3-2.6,6.6-5.1,9.9-7.7c1.2-0.9,2.4-1.8,3.5-2.7
							c13.3-10.6,26.1-21.5,38.5-32.9c0.2-0.2,0.4-0.3,0.5-0.5c4-3.6,7.9-7.3,11.8-11c4-3.8,7.9-7.6,11.8-11.5c0.5-0.5,1-1,1.5-1.5
							c3.5-3.5,7-7.1,10.5-10.7c2.6-2.7,5.2-5.5,7.8-8.2c2.9-3.1,5.7-6.1,8.5-9.3c2.2-2.4,4.4-4.8,6.4-7.3
							c3.7-4.2,7.3-8.4,10.8-12.6c0.3-0.4,0.7-0.8,1-1.2l0.1,0c2.8-3.4,5.6-6.8,8.3-10.2c4-4.9,7.8-9.7,11.5-14.7
							c2.9-3.8,5.8-7.7,8.7-11.6c0.5-0.5,0.9-1.2,1.3-1.8c6.5-9,12.9-18.1,19-27.4c0.3-0.5,0.6-0.9,0.9-1.4c1.4-2.1,2.7-4.1,4.1-6.2
							c3-4.6,5.9-9.2,8.8-13.9c3.5-5.7,6.9-11.4,10.2-17.2c1.5-2.7,3-5.3,4.5-7.9c4.9-8.7,9.6-17.5,14.2-26.4
							c2.4-4.7,4.7-9.3,7-14.1c1.3-2.8,2.7-5.5,3.9-8.3c1.2-2.5,2.3-4.9,3.5-7.4c0.1-0.1,0.2-0.3,0.2-0.4c1.7-3.7,3.4-7.5,5-11.3
							c0.9-1.9,1.6-3.9,2.5-5.9c0.7-1.6,1.3-3.2,2-4.8c0.6-1.6,1.3-3.2,2-4.8c0.4-0.9,0.7-1.8,1-2.6c1.6-3.9,3.2-7.9,4.7-11.8
							c1-2.7,2.1-5.4,3.1-8.2c0.5-1.2,0.9-2.4,1.4-3.7c1.4-3.8,2.8-7.7,4.1-11.5c2.1-6.2,4.2-12.4,6.1-18.7c0.8-2.4,1.5-4.7,2.2-7.1
							c1.1-3.7,2.2-7.4,3.2-11.1c1.1-3.8,2.2-7.7,3.2-11.5c1.2-4.4,2.3-8.7,3.4-13.1l0-0.1c0,0,0,0-0.1,0c0-0.1,0-0.1,0-0.2
							c0-0.1-0.1-0.2-0.1-0.3c-0.1-0.3-0.2-0.7-0.4-1.3c-0.3-0.7-0.5-1.5-0.8-2.6c-0.2-0.8-0.5-1.7-0.9-2.7
							c-0.7-1.9-1.4-4.2-2.3-6.8c-0.4-0.9-0.8-2-1.1-3.1c-0.2-0.8-0.5-1.5-0.9-2.3c-0.9-2.5-2-5.2-3.1-8.2c-0.5-1.3-1-2.6-1.5-3.9
							c-1.4-3.4-2.8-6.9-4.4-10.8c-0.1-0.3-0.2-0.7-0.4-1.1c-1.3-3.1-2.8-6.5-4.3-10c0-0.1-0.1-0.2-0.2-0.3
							c-3.5-7.9-7.5-16.7-12-26.2c0-0.1-0.1-0.2-0.1-0.3c-5.7-11.8-12.2-24.6-19.7-38.5c-0.4-0.9-0.9-1.7-1.3-2.5
							c-2.2-4-4.5-8.1-6.9-12.3c-6.1-11-12.9-22.7-20.3-34.8c-0.7-1.2-1.4-2.4-2.2-3.6c0-0.1,0-0.1,0-0.1
							c-5.1-8.4-10.5-17-16.3-25.7c-1.1-1.7-2.2-3.3-3.3-5c-10-15.1-20.9-30.9-32.7-47c0,0,0.1,0,0-0.1
							c-22.7-31.2-49.1-64.2-79.4-98.3c-2.1-2.3-4.2-4.7-6.3-7.1c-6.3-7-12.8-14.1-19.6-21.3c-24.3-26-51-52.5-80.2-79.3
							c-2.8-2.6-5.7-5.2-8.6-7.9c-18.2-16.4-37.3-33-57.5-49.5c-3.3-2.8-6.7-5.5-10.1-8.2c-0.6-0.5-1.1-0.9-1.7-1.4
							c-6.1-4.9-12.4-9.9-18.7-14.8c-7.1-5.6-14.3-11.1-21.6-16.6c-3.6-2.7-7.3-5.5-10.9-8.2c-28.5-21.3-58.8-42.5-90.9-63.6
							c-3.7-2.5-7.4-4.9-11.2-7.3c-7.5-4.9-15.2-9.7-22.9-14.5c-7.7-4.9-15.5-9.6-23.5-14.5c-7.9-4.8-16-9.5-24.1-14.3
							c-4.1-2.5-8.2-4.8-12.2-7.2c-4.6-2.6-9.1-5.2-13.7-7.7c-1.9-1.1-3.8-2.1-5.7-3.2c-2.7-1.5-5.3-3-8-4.4
							c-4.8-2.7-9.6-5.3-14.4-7.9c-3.4-1.9-6.9-3.7-10.3-5.5c-30.1-16.1-59.8-30.8-89-44.3c-4.1-1.9-8.2-3.8-12.3-5.6
							c-1.3-0.6-2.7-1.2-4.1-1.8c-4.3-1.9-8.5-3.8-12.8-5.7c-0.7-0.3-1.5-0.7-2.1-0.9c-4.1-1.8-8.1-3.5-12.1-5.3
							c-0.5-0.2-1.1-0.4-1.6-0.6c-8.9-3.9-17.7-7.5-26.5-11c-4.6-1.9-9.1-3.7-13.6-5.4c-9-3.6-18.1-7-27-10.4
							c-0.7-0.3-1.4-0.6-2.1-0.8c-4.5-1.6-8.9-3.3-13.4-4.9c-2.8-1-5.5-2-8.4-3c-2.4-0.8-4.9-1.7-7.3-2.5c-2.4-0.8-4.7-1.6-7.1-2.5
							c-0.6-0.2-1.1-0.4-1.7-0.6c-22.1-7.6-43.9-14.4-65.4-20.7c-4.1-1.2-8.2-2.3-12.3-3.5c-3.7-1-7.4-2-11.1-3.1
							c-5.4-1.4-10.9-2.9-16.3-4.3c-7.7-2-15.4-3.9-23-5.7c-3.1-0.7-6.2-1.5-9.3-2.2c-0.9-0.2-1.9-0.5-2.8-0.7
							c-6.7-1.5-13.3-3-19.9-4.5c-6.6-1.4-13.1-2.7-19.7-4.1c-0.5-0.1-0.9-0.2-1.4-0.3c-11.4-2.3-22.7-4.4-33.8-6.3
							c-12.5-2.1-24.8-4-37-5.8c-0.9-0.2-1.8-0.2-2.6-0.4c-2.4-0.4-4.8-0.7-7.1-0.9c-0.5-0.1-1-0.1-1.4-0.2
							c-5.2-0.7-10.3-1.3-15.4-1.9c-2.1-0.3-4.3-0.6-6.4-0.8c-0.2,0-0.4,0-0.7-0.1c-3.6-0.4-7.2-0.8-10.7-1.2
							c-6.9-0.8-13.8-1.5-20.7-2.1c-0.1,0-0.2,0-0.3-0.1c-3.1-0.3-6.2-0.6-9.2-0.8c-3.9-0.3-7.8-0.6-11.6-0.9c-0.2,0-0.3,0-0.5,0
							c-6.2-0.5-12.4-0.9-18.5-1.2c-0.4,0-0.9,0-1.3-0.1c-0.4,0-0.8,0-1.2-0.1c-12.3-0.7-24.4-1.2-36.2-1.5c-0.2,0-0.4,0-0.6,0
							c-0.6,0-1.2,0-1.7,0c-5.5-0.1-11-0.3-16.4-0.3c-1.5,0-3,0-4.6,0c-5.1,0-10.1,0-15.1,0c-3.1,0.1-6.1,0.1-9.1,0.1
							c-3.8,0.1-7.6,0.1-11.4,0.2c-2.2,0-4.5,0.1-6.7,0.2c-1,0-1.9,0.1-2.9,0.1c-1.3,0.1-2.6,0.1-3.8,0.1c-1.7,0.1-3.4,0.2-5,0.2
							c-2.8,0.1-5.6,0.3-8.4,0.4c-1.8,0.1-3.5,0.2-5.3,0.3c-1.9,0.1-3.7,0.2-5.6,0.3c-1.3,0.1-2.6,0.1-3.8,0.2
							c-1.9,0.1-3.8,0.2-5.7,0.3c-1.8,0.1-3.6,0.3-5.4,0.4c-1.9,0.1-3.7,0.3-5.6,0.4c-0.9,0-1.8,0.1-2.8,0.2
							c-0.8,0.1-1.6,0.1-2.4,0.2c-2,0.1-3.9,0.3-5.8,0.5c-1.8,0.1-3.5,0.3-5.2,0.5c-1.6,0.1-3.2,0.2-4.7,0.4
							c-3.8,0.4-7.4,0.8-11.1,1.1c-1.4,0.1-2.9,0.3-4.2,0.4c-0.9,0.1-1.6,0.2-2.5,0.3c-1.3,0.1-2.7,0.3-4,0.5
							c-1.5,0.2-3,0.3-4.6,0.5c-3.8,0.4-7.4,0.9-11.1,1.4c-1.3,0.2-2.6,0.3-3.8,0.5c-2.5,0.4-4.9,0.7-7.3,1c-4.7,0.7-9.2,1.3-13.7,2
							c-2.9,0.4-5.7,0.9-8.5,1.3c-0.5,0.1-1,0.2-1.4,0.2c-6,1-11.8,2-17.5,3c-1,0.2-1.9,0.4-2.8,0.5c-1.2,0.3-2.5,0.5-3.7,0.7
							c-0.6,0.1-1.2,0.2-1.8,0.3c-0.5,0.1-1,0.2-1.5,0.3c-2.2,0.4-4.3,0.8-6.4,1.3c-3,0.6-5.9,1.2-8.9,1.8
							c-3.6,0.7-7.1,1.5-10.6,2.3c-0.4,0.1-0.8,0.2-1.2,0.3c-1,0.2-1.9,0.4-2.9,0.7c-0.9,0.2-1.8,0.4-2.8,0.6
							c-1.9,0.4-3.7,0.8-5.6,1.3c-0.2,0.1-0.4,0.1-0.7,0.1c-1.6,0.4-3.1,0.7-4.7,1.1c-1.1,0.3-2.2,0.6-3.3,0.8
							c-1.3,0.4-2.6,0.7-3.9,1c-1.1,0.3-2.2,0.6-3.3,0.9c-0.1,0-0.2,0.1-0.3,0.1c-2.7,0.7-5.4,1.4-8,2.1c-1.1,0.3-2.2,0.6-3.2,0.9
							c-1.1,0.3-2.2,0.6-3.2,0.9c-1,0.3-2.1,0.6-3.2,0.9c-1.6,0.5-3.1,0.9-4.6,1.3c-3,0.8-6,1.7-8.8,2.5c-0.3,0.1-0.5,0.2-0.8,0.2
							c-1.2,0.4-2.3,0.7-3.4,1c-1.4,0.4-2.7,0.8-4.1,1.2c-0.2,0.1-0.4,0.1-0.7,0.2c-1.2,0.4-2.4,0.7-3.5,1.1c-3.1,1-6.2,2.2-9.1,3.6
							c-2.9,1.4-5.7,2.9-8.3,4.7c-5.3,3.4-10,7.5-14.1,12.2c0,0,0.1,0,0,0.1c-4.1,4.6-7.5,9.8-10.1,15.3c-2,4.3-3.5,8.7-4.6,13.4
							c0,0,0-0.1-0.1-0.1c-0.2,0.6-0.3,1.2-0.4,1.9C667.6,1550.9,667.5,1551.3,667.5,1551.6z"/>
					</g>
					<g>
						<path class="st9" d="M1981.7,2029.9c-1-2.3-1.9-4.6-2.7-6.8C1980.7,2026.8,1981.5,2029.1,1981.7,2029.9z"/>
					</g>
					<g>
						<path class="st10" d="M873.7,2114.1c-54.3-77.1-94.5-151.7-124.3-220.3c-0.4-0.9-0.7-1.7-1.1-2.5c-4.2-9.6-8.1-19.2-11.9-28.6
							c-0.1-0.3-0.2-0.5-0.3-0.8c-1.3-3.2-2.5-6.4-3.8-9.6c-1.2-3.2-2.4-6.4-3.7-9.5c-1.3-3.4-2.6-6.8-3.8-10.3
							c-2.2-6-4.3-11.9-6.3-17.8c-3.2-9.2-6.2-18.2-9-27.1c-0.9-3-1.9-5.9-2.8-8.8c-3.6-11.7-6.9-23.1-9.9-34.2
							c-0.8-2.8-1.5-5.6-2.2-8.3c-6.5-24.6-11.6-47.7-15.6-68.9c-0.6-3.5-1.3-7-1.9-10.4c-0.6-3.6-1.2-7.2-1.8-10.7
							c-0.6-3.5-1.1-7-1.6-10.3c-0.4-2.8-0.8-5.7-1.3-8.4c-0.6-4.2-1.1-8.2-1.6-12.1c-2.1-16.8-3.5-31.7-4.4-44.6
							c4.7,9.4,9.5,18.8,14.5,28.2c61.5,116.7,145.6,242.3,260.6,369.3C916.9,2015.8,894.2,2064.4,873.7,2114.1z"/>
					</g>
					<g>
						<path class="st11" d="M873.7,2114.1c-54.9-78.1-95.5-153.5-125.4-222.8c-2.9-6.6-5.6-13.2-8.2-19.7c-1.3-3.3-2.6-6.5-3.9-9.7
							l-0.1-0.1c-1.2-3.2-2.5-6.3-3.7-9.4c-2.5-6.4-4.9-12.7-7.2-19c-2.1-5.7-4.1-11.3-6-16.8c-5.5-15.9-10.5-31.4-15-46.4
							c-0.8-2.5-1.5-5.1-2.2-7.6c-8.7-29.6-15.3-57.3-20.4-82.5c-0.4-1.8-0.8-3.7-1.1-5.5c-0.6-2.9-1.1-5.8-1.7-8.6
							c-1.4-7.5-2.6-14.8-3.8-21.8c-0.3-1.8-0.6-3.5-0.8-5.2c-0.5-3.4-1-6.8-1.5-10.2c-0.2-1.7-0.5-3.3-0.7-4.9
							c-0.5-3.3-0.9-6.5-1.3-9.6c-0.8-6.2-1.5-12.3-2.1-18c-1-10-1.8-19.2-2.3-27.4c-0.2-3.4-0.2-6.8,0.1-10.2
							c0.2-2.5,0.6-5,1.1-7.5c0.2-0.8,0.3-1.6,0.5-2.4c60.4,75.3,167.2,199.7,317,341.4C942.9,1961.9,905.6,2036.8,873.7,2114.1z"/>
					</g>
					<g>
						<path class="st4" d="M1305.6,1489.4c-75.2,70.5-143.9,147-205.5,228.6c-92,121.8-168.1,254.8-226.4,396.1
							c-167.4-238-201.1-451-207.4-545.3c-2-31.3,17.7-59.8,48-69.4c2.3-0.7,4.7-1.5,7.2-2.2
							C816.6,1468.3,1026.6,1424.9,1305.6,1489.4z"/>
					</g>
					<g class="st3">
						<path class="st0" d="M695,1617.2C695,1617.2,695,1617.3,695,1617.2c13.8,82.2,44.5,196.5,112.3,325.2
							c77.6,147.3,203.8,313.7,408.8,472.2c132.9,102.8,259.7,174.1,373.5,223.3c296.8,128.4,505.2,107.2,505.2,107.2c0,0,0,0,0,0
							l0,0l80.6,31.4c36.4,14.2,77.7,7.7,107.6-17c29.2-24.2,55.9-50.8,80-79.5l-111.7-75.1c2.6-3.5,5.1-6.9,7.6-10.4l-158.6-136.3
							c0,0-80.3,75.3,16.2,192c-106-20.6-235.6-56.8-380.9-119.7c-82.5-35.7-170.1-80.1-261.3-135c89.9-8.2,172.2-63.4,209.4-150.8
							c53.9-126.6-7.2-272.9-136.5-326.6c-129.3-53.7-277.8,5.4-331.6,132c-21.9,51.5-24.8,106.3-11.8,156.8
							C955.1,2008.8,796.3,1802.7,695,1617.2z"/>
					</g>
					<g class="st12">
						<path class="st2" d="M677.3,1603.6c-2-31.3,17.7-59.8,48-69.4c2.3-0.7,4.7-1.5,7.2-2.2c90.6-27.6,285.8-68.2,545.6-16.1
							c9.1-8.9,18.3-17.8,27.7-26.5c-279-64.4-489.1-21.1-584.1,7.8c-2.5,0.7-4.9,1.5-7.2,2.2c-30.3,9.6-50,38.1-48,69.4
							c3.3,49.4,14.1,131.4,47.7,232.5C689,1716.2,680.2,1647.2,677.3,1603.6z"/>
					</g>
					<g>
						<path class="st0" d="M873.7,2129.5c-5,0-9.7-2.4-12.6-6.5c-165-234.5-202.3-444.5-209.8-548.7c-3-41.1,22.8-78.4,62.6-90.8
							c101.2-31.3,313.2-74.2,595.1-9.1c5.5,1.3,9.9,5.5,11.4,11c1.5,5.5-0.2,11.3-4.3,15.2c-187,175.4-331,383.8-428.2,619.4
							c-2.1,5.2-6.9,8.8-12.5,9.4C874.9,2129.5,874.3,2129.5,873.7,2129.5z M1018.5,1471.1c-133.4,0-234.8,23-295.4,41.7
							c-26.1,8.1-42.9,32.4-41,59.1c7.1,97.7,41.1,291.2,188.4,510.2c94.8-220.1,230.4-416.4,403.6-584
							C1179.7,1478.5,1094,1471.1,1018.5,1471.1z"/>
					</g>
					<g>
						<path class="st0" d="M2039,2794.3c-21.1,0-50.6-1-87-4.7c-12-1.2-24.9-2.8-38.6-4.6c-40.9-5.7-83.2-13.9-125.8-24.5
							c-1.6-0.4-3.2-0.8-4.8-1.2c-5.5-1.4-11.5-2.9-17.5-4.5c-9.6-2.6-19.4-5.3-29.3-8.2l-10.6-3.1c-2.3-0.7-4.6-1.4-6.9-2.1
							c-9.2-2.8-17.9-5.5-26.3-8.3c-5.3-1.7-10.8-3.6-16.2-5.4l-11.8-4.1c-2.8-0.9-5.8-2-8.8-3.1c-18.6-6.6-37.8-13.9-56.9-21.7
							l-9.9-4c-13.8-5.7-26.4-11.1-38.6-16.6c-5.5-2.5-11.1-5-16.7-7.6l-0.7-0.3c-0.5-0.2-1.1-0.5-1.6-0.7c-6.9-3.2-14-6.5-21.1-9.9
							c-2.6-1.3-5.3-2.6-8-3.9l-14.5-7.1c-7.6-3.8-15.1-7.6-22.7-11.5c-3.4-1.8-6.8-3.5-10.1-5.3l-3.6-1.9c-3.1-1.6-6.2-3.3-9.3-4.9
							c-16.7-9-32.4-17.7-47.7-26.6c-2.4-1.3-4.8-2.8-7.3-4.2l-2.5-1.5c-6.9-4.1-13.8-8.2-20.8-12.4c-3.5-2.1-7.1-4.3-10.6-6.5
							c-2.6-1.6-5.1-3.2-7.7-4.8l-4.6-2.9c-3.1-2-6.2-3.9-9.3-5.8c-2.4-1.5-4.5-2.9-6.7-4.3l-1.1-0.7c-6.8-4.4-13.7-8.8-20.6-13.4
							c-12.3-8.1-25-16.8-37.9-25.8c-12.8-9-25.7-18.2-38.3-27.5l-4.1-3c-3-2.2-5.9-4.4-8.9-6.6c-9.2-6.8-17.7-13.3-25.8-19.6
							c-10.1-7.8-19.4-15.2-28.5-22.5c-24-19.3-48.2-39.9-72.2-61.4c-62.8-56.5-120.2-116.7-170.5-178.9c-0.2-0.2-0.4-0.5-0.6-0.8
							l-8.2-10.3c-13.5-17.1-26.7-34.6-39.3-52.1c-1.6-2.2-3.3-4.5-4.9-6.8l-2.4-3.4c-3.4-4.8-3.7-10.9-1.2-15.8
							c2.2-5.4,4.4-10.6,6.6-15.6c0.8-1.9,1.6-3.8,2.4-5.6c0.3-0.6,0.6-1.5,1-2.3l0.9-2.1c1.4-3.3,2.9-6.8,4.5-10.3
							c0.4-0.9,0.8-1.8,1.1-2.7l0.4-1c1.9-4.2,3.7-8.3,5.5-12.3l2.8-6.1c0.1-0.2,0.4-0.8,0.6-1.4l0.3-0.7c0.8-1.8,1.5-3.3,2.2-4.7
							c0.1-0.2,0.2-0.4,0.3-0.6l1.6-3.3c0.4-0.8,0.7-1.7,1.1-2.5c2.2-4.7,4.4-9.5,6.8-14.3c0.3-0.6,0.6-1.2,0.9-1.9
							c0.6-1.4,1.5-3.2,2.4-5l0.4-0.8c1.7-3.5,3.4-7.2,5.2-10.8l1.2-2.4c0.5-1,1-2,1.4-2.9l2.3-4.5c1.6-3.3,3.3-6.6,5-10.1l2.3-4.5
							c0.3-0.6,0.6-1.2,0.9-1.8c0.7-1.3,1.3-2.5,1.9-3.7c2.7-5.2,5.4-10.5,8.1-15.8c0.2-0.3,0.6-1.1,1-1.9l0.3-0.6
							c2.7-5,5.4-10.2,8.2-15.3l1.1-2.1c1.9-3.6,3.9-7.2,5.8-10.7c4.6-8.4,9.4-17,14.3-25.5c1.1-2,2.1-3.8,3.2-5.5l4-6.9
							c1.1-2,2.4-4.1,3.6-6.2c1.4-2.5,2.6-4.5,3.9-6.5c2.3-3.9,4.8-8,7.3-12.2c5-8.2,10-16.4,15.1-24.6c2.5-4,5.1-8.1,7.7-12.2
							c2.4-3.9,5.1-8,7.7-12c2.7-4.2,5.3-8.2,7.9-12.1c5.3-8.1,10.7-16.1,16.1-24c5.1-7.5,10.6-15.5,16.4-23.7l8-11.2
							c6-8.3,12.1-16.8,18.3-25c2.5-3.4,5.1-6.8,7.7-10.2c6.6-8.7,13.7-18,21.2-27.4c5-6.4,10.1-12.9,15.4-19.3l9.1-11.2
							c12.6-15.4,26-31.2,40-47c4-4.5,8-9.1,12-13.6c0.5-0.6,1-1.1,1.5-1.7c4.1-4.6,8.3-9.1,12.4-13.6c4.3-4.7,8.7-9.5,13.2-14.2
							c11.1-11.9,22.7-23.9,34.4-35.7c3.4-3.5,7-7.1,10.7-10.7c2.9-3,6-6,9.1-9l0.4-0.4c1.7-1.7,3.2-3.1,4.8-4.6
							c2.8-2.8,5.9-5.7,8.9-8.7c1.8-1.7,3.6-3.4,5.4-5.1c2.8-2.6,5.7-5.5,8.7-8.3c1.4-1.3,3-2.4,4.8-3.1c2.9-1.2,6.2-1.5,9.3-0.8
							c13.8,3.2,25,6,35.5,8.7c5.3,1.4,10.7,2.8,16.1,4.2l23.8,6.7c22,6.4,44.2,13.4,66.2,20.9c2.8,0.9,5.9,2,8.9,3l7.2,2.5
							c3,1.1,5.9,2.1,8.8,3.2c4.2,1.5,8.6,3.1,13,4.7c0.7,0.2,1.5,0.5,2.2,0.8c9.2,3.4,18.3,6.9,27.5,10.5c4.5,1.8,9.1,3.6,13.8,5.5
							c8.7,3.5,17.5,7.2,26.4,11c0.3,0.1,0.6,0.2,0.9,0.4c0.3,0.1,0.8,0.3,1.2,0.5l12.1,5.3c0.5,0.2,1.4,0.6,2.4,1l2.6,1.2
							c3.3,1.5,6.7,2.9,10,4.5c1.3,0.6,2.9,1.2,4.4,2c3.7,1.7,7.7,3.5,11.7,5.4c30.2,13.9,60.5,28.9,90.2,44.9l2.6,1.4
							c2.6,1.4,5.2,2.8,7.8,4.2c4.7,2.6,9.6,5.2,14.5,8l1.1,0.6c2.2,1.2,4.5,2.5,6.8,3.8c1.3,0.7,2.5,1.4,3.7,2.1l6,3.4
							c3.3,1.9,6.6,3.7,9.8,5.6c4.1,2.4,8.3,4.8,12.4,7.2c8.1,4.7,16.2,9.5,24.2,14.4c8,4.9,15.9,9.7,23.7,14.6
							c7.8,4.8,15.5,9.7,23.1,14.6c3.8,2.4,7.5,4.9,11.3,7.3c31.6,20.7,62.4,42.2,91.7,64.1c3.7,2.7,7.4,5.5,11,8.3
							c7.3,5.5,14.6,11.1,21.8,16.8c6.3,4.9,12.6,9.9,18.8,14.9l0.6,0.5c0.4,0.3,0.9,0.7,1.3,1.1l2.9,2.4c2.4,1.9,4.7,3.8,7.1,5.8
							c19.7,16.2,39.2,33,58,50c2.9,2.7,5.8,5.3,8.6,7.9c28.5,26.2,55.8,53.1,81.1,80.2c6.8,7.3,13.4,14.4,19.7,21.5l6.4,7.2
							c28.9,32.5,55.9,66,80.3,99.4c0.2,0.3,0.4,0.6,0.6,0.9c11,15,21.7,30.3,32.5,46.8c0.7,1,1.2,1.8,1.6,2.5
							c0.6,0.9,1.2,1.8,1.8,2.8c5.4,8.2,10.9,16.9,16.2,25.5c0.9,1.4,1.8,2.8,2.6,4.2c6.8,11,13.5,22.5,20.6,35.1
							c2,3.5,4,7.2,5.9,10.7l0.8,1.5c0.6,1,1.1,2.1,1.7,3.1c7,12.9,13.8,26.1,19.8,38.9h0c0.1,0.2,0.2,0.4,0.3,0.7
							c4.2,8.8,8.2,17.5,11.9,25.8c0.1,0.3,0.3,0.6,0.4,0.9l0,0l4.1,9.5c0.3,0.7,0.6,1.4,0.9,2.1c1.6,3.8,3,7.4,4.3,10.7
							c0.5,1.3,1.1,2.8,1.7,4.3c1,2.6,2.1,5.3,3,7.9c0.5,1.1,0.9,2.3,1.2,3.4c0.1,0.4,0.3,0.9,0.5,1.5c0.1,0.3,0.3,0.7,0.4,1h0
							c0.9,2.7,1.7,5,2.4,7c0.3,1,0.7,2.1,1,3.1c0.3,0.8,0.5,1.7,0.8,2.4c0.1,0.4,0.2,0.8,0.3,1.1c0.3,0.7,0.5,1.4,0.6,2.2
							c0.3,1.7,0.4,3.4,0.2,5.2c-0.1,0.6-0.2,1.2-0.3,1.7c-1.1,4.5-2.3,9-3.5,13.5c-1,3.8-2.1,7.8-3.3,11.7c-1,3.6-2.1,7.4-3.3,11.2
							c-0.7,2.3-1.4,4.5-2.1,6.7l-0.2,0.7c-1.9,6.2-4,12.7-6.2,19c-1.3,3.8-2.6,7.6-4,11.4c-0.4,1.4-1,2.9-1.5,4.3
							c-0.9,2.6-2,5.5-3.2,8.4c-1.7,4.7-3.7,9.6-5.7,14.6c-0.3,0.8-0.7,1.8-1.1,2.8l-1.8,4.2c-0.4,1-0.8,1.9-1.2,2.9l-1,2.3
							c-0.5,1.2-1,2.4-1.5,3.6c-1.6,3.7-3.2,7.4-4.9,11.1c-0.2,0.6-0.5,1.2-0.8,1.8c-1,2.3-2.1,4.6-3.2,6.8
							c-0.7,1.5-1.6,3.4-2.5,5.3l-1.3,2.7c-2.3,4.9-4.7,9.7-7.2,14.4c-4.8,9.4-9.7,18.5-14.5,27c-1.5,2.7-3,5.4-4.6,8.1
							c-3.1,5.5-6.6,11.4-10.4,17.6c-2.9,4.7-5.9,9.4-8.9,14.1c-0.7,1.1-1.6,2.5-2.5,4l-1.5,2.3c-0.5,0.7-0.9,1.3-1.3,1.8
							c-2.7,4.2-5.4,8.3-8.3,12.3c-3.6,5.2-7.3,10.4-11,15.5c-0.4,0.6-0.9,1.3-1.5,2c-2.9,3.9-5.8,7.8-8.7,11.6
							c-3.4,4.6-7.3,9.5-11.8,15c-1.7,2.2-3.6,4.5-5.5,6.8l-3.6,4.4c-0.1,0.1-0.3,0.4-0.4,0.5c-3.7,4.3-7.3,8.6-11.1,12.9
							c-2,2.4-4.2,4.9-6.6,7.4c-2.8,3.2-5.7,6.4-8.8,9.6c-2.4,2.6-5.1,5.4-7.7,8.2c-3.6,3.8-7.1,7.4-10.7,11
							c-0.5,0.5-0.8,0.8-1.2,1.2c-0.1,0.2-0.3,0.3-0.5,0.5l-1.2,1.2c-3.6,3.5-7.1,7-10.8,10.4c-3.9,3.7-7.9,7.5-12,11.2
							c-0.3,0.3-0.7,0.6-1.2,1.1c-12.3,11.2-25.2,22.3-38.4,32.7c-1.3,1.1-2.7,2.2-4.1,3.2l-9.7,7.5c-4.6,3.5-9.2,6.9-13.8,10.3
							c-1,0.7-1.6,1.2-2.2,1.6c-0.8,0.6-1.6,1.2-2.4,1.7c-2.4,1.7-5,3.6-7.6,5.3l0,0c-2,1.4-4.2,2.3-6.7,2.6c0,0-0.8,0.1-2.3,0.2
							C2071.4,2793.5,2058.9,2794.3,2039,2794.3z M940.7,2177.4c49.2,60.9,105.4,119.8,166.9,175.1c23.5,21.1,47.4,41.4,70.9,60.3
							c9.2,7.4,18.6,14.8,28.1,22.2c8,6.2,16.3,12.5,25.5,19.3c3,2.2,5.8,4.4,8.7,6.5l4.1,3c12.3,9,25,18.1,37.7,27
							c12.7,8.9,25.3,17.4,37.3,25.4c6.8,4.5,13.5,8.9,20.2,13.2l1.1,0.7c2.2,1.4,4.4,2.8,6.6,4.2c2.9,1.8,6,3.7,9,5.7l4.6,2.9
							c2.5,1.6,5,3.1,7.5,4.7c3.5,2.2,6.9,4.3,10.4,6.4c6.9,4.2,13.7,8.2,20.4,12.2l2.5,1.4c2.4,1.4,4.7,2.8,7.1,4.1
							c15.1,8.8,30.5,17.4,47,26.2c3,1.6,6,3.2,9,4.8l3.6,1.9c3.3,1.7,6.6,3.5,9.9,5.2c7.5,3.8,14.9,7.6,22.3,11.3l14.4,7.1
							c2.6,1.3,5.2,2.5,7.8,3.8c7.1,3.4,14,6.7,20.9,9.9l0.7,0.3c0.5,0.2,1.1,0.5,1.6,0.7c5.3,2.4,10.8,4.9,16.2,7.3
							c12.1,5.4,24.4,10.7,37.8,16.2l9.8,4c18.7,7.5,37.5,14.7,55.8,21.3c2.9,1.1,5.5,2,8.2,2.9l11.8,4.1c5.3,1.8,10.6,3.6,15.9,5.3
							c8.8,2.9,17.4,5.6,25.9,8.1c2.3,0.7,4.5,1.4,6.6,2l10.6,3.1c9.6,2.8,19.2,5.4,28.5,8c5.8,1.5,11.6,3,17.4,4.5
							c1.6,0.4,2.9,0.8,4.2,1.1c41.7,10.4,82.9,18.4,122.7,23.9c13.3,1.8,25.9,3.3,37.5,4.5c62.3,6.3,102.9,4.4,115.1,3.6
							c1.3-0.9,2.5-1.8,3.7-2.7l2-1.4c0.8-0.6,1.6-1.2,2.4-1.8c4.4-3.3,8.9-6.5,13.2-9.8l9.8-7.6c1.1-0.8,2-1.5,2.8-2.2
							c0.2-0.2,0.4-0.3,0.6-0.5c13-10.3,25.7-21.1,37.6-32.1c0.3-0.3,0.7-0.6,1-0.9c3.9-3.6,7.5-7,11-10.4c3.6-3.4,7-6.8,10.5-10.1
							l1-1c0.6-0.6,1.2-1.2,1.7-1.7c3.3-3.3,6.7-6.8,10.1-10.4c2.5-2.7,5.1-5.4,7.6-8.1c2.9-3,5.5-5.9,8.1-8.9
							c0.1-0.1,0.3-0.3,0.4-0.4c2.1-2.2,4-4.4,5.9-6.7c3.8-4.3,7.3-8.4,10.8-12.6c0,0,0.4-0.4,0.7-0.8l3-3.7
							c1.8-2.2,3.6-4.4,5.3-6.5c4.3-5.3,7.9-9.9,11.2-14.3c3-3.9,5.8-7.7,8.6-11.5c0.2-0.3,0.4-0.5,0.6-0.8l0.3-0.5
							c0.1-0.1,0.3-0.4,0.4-0.5c3.6-4.8,7.1-9.8,10.5-14.8c2.8-4,5.4-7.9,8-11.9c0.2-0.2,0.3-0.5,0.5-0.7l2-3.1
							c0.8-1.2,1.5-2.3,2.3-3.5c3.1-4.8,6-9.4,8.8-13.9c3.7-5.9,6.9-11.4,9.9-16.7c1.6-2.8,3-5.3,4.5-7.9
							c4.7-8.2,9.3-16.9,13.9-25.9c2.3-4.5,4.6-9.1,6.8-13.7l1.4-2.8c0.8-1.7,1.6-3.4,2.4-5.1c1.3-2.7,2.4-5,3.4-7.3
							c0.2-0.3,0.3-0.7,0.5-1c1.6-3.5,3.2-7.1,4.7-10.6c0.5-1.2,0.9-2.2,1.4-3.3l4.9-11.8c2-4.8,3.8-9.5,5.6-14.2
							c1.2-2.9,2.1-5.5,3-8c0.4-1.1,0.8-2,1-2.9c0.1-0.3,0.2-0.7,0.3-1c1.4-3.7,2.7-7.4,3.9-11.1c2.1-6,4.1-12.1,6-18.2l0.3-0.9
							c0.7-2,1.3-4,1.9-6.1c1.1-3.6,2.1-7.2,3.2-10.9c1.1-3.9,2.2-7.6,3.1-11.3c0.8-3,1.6-5.9,2.3-8.8c-0.3-0.9-0.5-1.6-0.8-2.4
							c-0.6-1.9-1.3-3.9-2.1-6.1c0-0.1-0.1-0.2-0.1-0.3c-0.4-1.2-0.9-2.5-1.4-3.8c-0.2-0.6-0.3-0.8-0.4-1.1
							c-0.1-0.3-0.3-0.6-0.4-0.9c-0.8-2.3-1.8-4.9-2.9-7.7c-0.5-1.5-1-2.6-1.4-3.7c-1.4-3.5-2.7-6.9-4.3-10.6
							c-0.1-0.2-0.2-0.5-0.3-0.7c-0.1-0.1-0.1-0.3-0.2-0.4l-4-9.4c-0.1-0.3-0.3-0.6-0.4-0.9c-3.6-8.3-7.5-16.9-11.8-25.6
							c-0.1-0.3-0.3-0.6-0.4-0.9c-5.8-12.1-12.2-24.7-19.1-37.3c-0.1-0.1-0.2-0.4-0.3-0.5c-0.2-0.5-0.5-0.9-0.7-1.4
							c-0.1-0.2-0.2-0.4-0.4-0.6l-1-1.8c-1.8-3.4-3.7-6.8-5.6-10.2c-7-12.4-13.5-23.6-20.1-34.4c-0.1-0.2-0.2-0.3-0.3-0.5
							c-0.4-0.8-0.9-1.6-1.4-2.4c-0.2-0.3-0.4-0.5-0.5-0.8c-5.2-8.5-10.5-17-16-25.2c-0.7-1-1.1-1.8-1.6-2.5
							c-0.6-0.9-1.2-1.8-1.8-2.8c-10.6-16.1-21.2-31.2-32.1-46.1c-0.2-0.3-0.5-0.6-0.7-1c-23.6-32.3-49.8-64.7-77.8-96.2l-6.3-7.1
							c-6.1-6.8-12.6-13.8-19.2-21c-24.8-26.5-51.5-52.9-79.4-78.5c-2.9-2.6-5.7-5.2-8.5-7.8c-18.4-16.6-37.5-33.1-56.9-49
							c-2.3-1.9-4.6-3.8-7-5.7l-3.1-2.5c-0.1-0.1-0.3-0.2-0.4-0.4l-1.4-1.2c-5.8-4.7-12-9.6-18.2-14.5c-7.1-5.6-14.2-11-21.4-16.5
							c-3.6-2.8-7.2-5.5-10.8-8.1c-28.8-21.5-59.1-42.7-90.2-63.1c-3.7-2.4-7.4-4.8-11.1-7.2c-7.5-4.9-15.1-9.6-22.7-14.4
							c-7.7-4.9-15.5-9.6-23.4-14.4c-7.8-4.7-15.8-9.4-23.9-14.2c-4-2.4-8-4.7-12.1-7c-3.3-1.9-6.5-3.7-9.7-5.5l-6-3.4
							c-1-0.6-2.1-1.2-3.1-1.7c-0.2-0.1-0.4-0.2-0.6-0.3c-2.1-1.2-4.3-2.4-6.4-3.5l-1.3-0.7c-4.9-2.7-9.6-5.3-14.3-7.9
							c-2.6-1.4-5.1-2.8-7.6-4.1l-2.6-1.4c-29.2-15.6-58.9-30.4-88.2-43.8c-4.3-2-8.3-3.8-12.2-5.6c-1.5-0.7-2.6-1.2-3.8-1.7
							c-3.5-1.6-6.8-3-10.1-4.5l-2.9-1.3c-0.7-0.3-1.2-0.5-1.6-0.7l-5.5-2.4c-2.3-1-4.5-2-6.7-2.9c-0.3-0.1-0.5-0.2-0.8-0.3
							c-0.3-0.1-0.7-0.3-1-0.4c-8.8-3.8-17.5-7.4-26.2-10.9c-4.6-1.9-9-3.6-13.5-5.4c-9.1-3.6-18-7-26.8-10.3c0,0-0.4-0.2-0.5-0.2
							c-0.3-0.1-0.6-0.3-0.9-0.4c-0.2-0.1-0.4-0.1-0.6-0.2c-4.4-1.6-8.8-3.3-13.2-4.8c-2.9-1.1-5.6-2.1-8.3-3l-7.1-2.5
							c-2.9-1-5.8-2-8.7-3c-21.6-7.4-43.4-14.3-64.9-20.5l-23.2-6.5c-5.3-1.4-10.6-2.8-15.9-4.2c-8.1-2.1-16.7-4.3-26.7-6.6
							c-0.9,0.9-1.8,1.7-2.7,2.6c-1.9,1.8-3.6,3.3-5.2,5c-3.1,2.9-6,5.8-9,8.7c-1.6,1.5-3,2.9-4.4,4.2l-0.6,0.6
							c-3,2.9-6,5.8-8.9,8.8c-3.6,3.6-7,7-10.4,10.5c-11.7,11.7-23,23.5-33.9,35.1c-4.4,4.7-8.7,9.3-13,14
							c-4.2,4.6-8.3,9.1-12.5,13.7c-0.1,0.2-0.3,0.3-0.4,0.5c-0.1,0.2-0.3,0.3-0.4,0.5c-4.1,4.5-8.1,9.1-12.1,13.7
							c-13.7,15.6-26.9,31.1-39.2,46.1l-9.1,11.1c-5,6.2-10.1,12.5-15,18.9c-7.4,9.3-14.4,18.5-20.9,27c-2.5,3.3-5,6.7-7.5,10
							c-6.1,8.2-12.1,16.4-18,24.6l-8,11.2c-5.6,7.9-11,15.7-16,23.1c-5.4,7.9-10.7,15.7-15.9,23.6c-2.6,3.9-5.2,7.9-7.8,11.9
							c-2.6,4-5.1,7.8-7.5,11.7c-2.6,4.1-5.2,8.2-7.7,12.1c-5,8-10,16.1-14.8,24.1c-2.4,4-4.9,8.1-7.3,12.1c-1.2,2-2.3,3.8-3.3,5.7
							c0,0-0.2,0.4-0.3,0.4c-1.3,2.2-2.4,4.1-3.5,6l-4.3,7.4c-1.1,1.8-1.9,3.2-2.7,4.7c-4.9,8.7-9.7,17.1-14.3,25.5
							c-2,3.5-3.8,6.9-5.6,10.2c-0.4,0.7-0.7,1.3-1,1.9l-0.1,0.3c-2.7,5.1-5.4,10.1-8.1,15.2l-0.4,0.8c-0.2,0.4-0.5,0.9-0.7,1.3
							c-2.9,5.6-5.6,10.8-8.2,15.9c-0.1,0.1-0.2,0.3-0.2,0.4c-0.6,1-1.1,2.1-1.6,3.1c-0.1,0.2-0.3,0.6-0.4,0.8l-2.8,5.5
							c-1.7,3.4-3.3,6.5-4.9,9.7l-1.1,2.1c-0.3,0.7-0.8,1.6-1.2,2.4c-0.3,0.7-0.9,1.9-1.5,3l-1.1,2.2c-1.8,3.6-3.5,7.2-5.2,10.7
							l-0.5,1c-0.8,1.6-1.5,3.1-2.2,4.7l-0.5,0.9c-0.1,0.3-0.2,0.4-0.3,0.7c-2.3,4.8-4.6,9.7-6.8,14.5c-0.2,0.5-0.4,0.8-0.5,1.2
							c-0.2,0.4-0.3,0.8-0.5,1.1l-1.7,3.5c-0.7,1.6-1.4,3.2-2.2,4.8l-3.8,8.3c-1.8,4-3.6,7.9-5.3,11.9l-0.5,1.2
							c-0.3,0.6-0.5,1.1-0.7,1.7c-0.1,0.3-0.2,0.6-0.4,0.9c-1.5,3.4-3,6.7-4.4,10.1l-1.8,4.2c-0.8,1.8-1.5,3.5-2.2,5.2
							c-0.1,0.2-0.1,0.3-0.2,0.5c-1.2,2.8-2.5,5.7-3.7,8.6c0.7,1,1.5,2.1,2.2,3.1c12.3,17.2,25.3,34.3,38.4,51l7.7,9.7
							C939.9,2176.4,940.3,2176.9,940.7,2177.4z M2143,2704.2c-0.1,0.1-0.2,0.2-0.3,0.3C2142.8,2704.4,2142.9,2704.3,2143,2704.2z
							 M2145.6,2702.4C2145.6,2702.4,2145.6,2702.4,2145.6,2702.4C2145.6,2702.4,2145.6,2702.4,2145.6,2702.4z M2344,2311.5
							C2344,2311.5,2344.1,2311.5,2344,2311.5C2344.1,2311.5,2344.1,2311.5,2344,2311.5z M2343.1,2309.4
							C2343.1,2309.4,2343.1,2309.4,2343.1,2309.4C2343.1,2309.4,2343.1,2309.4,2343.1,2309.4z M1209.7,1609.2
							C1209.7,1609.2,1209.7,1609.2,1209.7,1609.2C1209.7,1609.2,1209.7,1609.2,1209.7,1609.2z"/>
					</g>
					<g>
						<path class="st0" d="M2195.7,2828.9c-14.8,0-29.7-2.7-43.9-8.3l-80.5-31.4c-6.4-2.5-9.5-9.7-7.1-16.1
							c2.5-6.4,9.7-9.6,16.1-7.1l80.5,31.4c32.3,12.6,68.8,6.8,95.1-15c87-72.1,152.1-166.3,188.3-272.4c10.9-32,3-67.4-20.6-92.2
							l-59.2-62.3c-4.7-5-4.5-12.8,0.4-17.5c5-4.7,12.8-4.5,17.5,0.4l59.2,62.3c30,31.6,40,76.5,26.1,117.3
							c-37.7,110.5-105.4,208.5-196,283.5C2250.1,2819.5,2223.1,2828.9,2195.7,2828.9z"/>
					</g>
					<g class="st6">
						<path class="st2" d="M789,1552.6c67.5-32.5,272.7-38.3,295.7,23.4C1106.6,1634.7,721.5,1585.1,789,1552.6z"/>
					</g>
					<g>
						
							<ellipse transform="matrix(0.167 -0.986 0.986 0.167 -818.7536 3215.3887)" class="st4" cx="1493.5" cy="2092.2" rx="245.5" ry="250.2"/>
					</g>
					<g class="st5">
						<path class="st2" d="M1728.6,2177.7c-2.8,6.6-5.9,13.1-9.3,19.4c39-119.9-21.5-251.8-142.1-302
							c-120.7-50.2-258.4-0.6-317.8,110.8c2.2-6.8,4.7-13.5,7.6-20.1c53.1-124.9,199.6-183.2,327.1-130.2
							C1721.5,1908.6,1781.8,2052.8,1728.6,2177.7z"/>
					</g>
					<g class="st13">
						<path class="st14" d="M1724.2,2188.1c-53.1,124.9-199.6,183.2-327,130.2c-127.5-53-187.8-197.2-134.6-322.1
							c3-7,6.2-13.7,9.7-20.2c-38.4,119.6,22.1,251,142.5,301.1s257.7,0.8,317.3-110C1729.8,2174.2,1727.2,2181.2,1724.2,2188.1z"/>
					</g>
					<g>
						<path class="st0" d="M1494.6,2351.3c-34.2,0-69-6.6-102.6-20.5c-65.7-27.3-116.6-78.2-143.2-143.4
							c-26-63.6-25.5-133.4,1.3-196.4c55.9-131.5,210.5-193.1,344.6-137.4c65.7,27.3,116.6,78.2,143.2,143.4
							c26,63.6,25.5,133.4-1.3,196.4C1694.7,2292,1597.2,2351.3,1494.6,2351.3z M1492.1,1860.1c-92.2,0-179.6,53.1-217.2,141.5
							c-24,56.3-24.4,118.7-1.2,175.7c23.8,58.4,69.5,104.1,128.6,128.7c120.5,50,259.3-5.1,309.5-123.1
							c24-56.3,24.4-118.7,1.2-175.7c-23.8-58.4-69.5-104.1-128.6-128.7C1554.3,1866,1522.9,1860.1,1492.1,1860.1z"/>
					</g>
					<g>
						<path class="st15" d="M1637.4,2152.1c-19.9,46.7-60.7,78.5-107.4,89.3c-26.1,6.1-53.9,5.6-81-2.4c-5.3-1.6-10.6-3.4-15.8-5.6
							c-8.1-3.4-15.8-7.3-23-11.9c-24.5-15.2-43.6-36.4-56.1-60.8c-19.9-38.7-23.1-85.3-4.9-128.3c18.3-43,54.3-73.3,96.2-86.3
							c26.4-8.2,55.1-9.5,83.2-2.9c8.3,1.9,16.6,4.6,24.7,8c5.2,2.2,10.3,4.6,15.1,7.2c24.8,13.5,44.6,32.8,58.4,55.4
							C1651.7,2054.3,1657.3,2105.3,1637.4,2152.1z"/>
					</g>
					<g>
						<g>
							<defs>
								<polygon id="SVGID_1_" points="1,1 2,1 1,2 								"/>
							</defs>
							<defs>
								<polygon id="SVGID_00000134956052311005936240000001622218332975567763_" points="-1,-1 -2,-1 -1,-2 								"/>
							</defs>
							<clipPath id="SVGID_00000042001168707266410050000018207812930391636883_">
								<use xlink:href="#SVGID_1_"  style="overflow:visible;"/>
							</clipPath>
							
								<clipPath id="SVGID_00000161602005290752185900000000943868989061134221_" style="clip-path:url(#SVGID_00000042001168707266410050000018207812930391636883_);">
								<use xlink:href="#SVGID_00000134956052311005936240000001622218332975567763_"  style="overflow:visible;"/>
							</clipPath>
							<defs>
								<filter id="Adobe_OpacityMaskFilter" filterUnits="userSpaceOnUse" x="1334.8" y="1958.7" width="288.5" height="169.1">
									<feColorMatrix  type="matrix" values="1 0 0 0 0  0 1 0 0 0  0 0 1 0 0  0 0 0 1 0"/>
								</filter>
							</defs>
							
								<mask maskUnits="userSpaceOnUse" x="1334.8" y="1958.7" width="288.5" height="169.1" id="SVGID_00000142898916153311187190000002262978452418741680_">
								<g class="st17">
									<g>
										<defs>
											<polygon id="SVGID_00000116932630556422307770000013787633220510540673_" points="1,1 2,1 1,2 											"/>
										</defs>
										<defs>
											<polygon id="SVGID_00000070816417414880599390000011728557542589367433_" points="-1,-1 -2,-1 -1,-2 											"/>
										</defs>
										
											<clipPath id="SVGID_00000000913718785753465700000011383542607489697981_" style="clip-path:url(#SVGID_00000161602005290752185900000000943868989061134221_);">
											<use xlink:href="#SVGID_00000116932630556422307770000013787633220510540673_"  style="overflow:visible;"/>
										</clipPath>
										
											<clipPath id="SVGID_00000101815226963288112440000001904484369749033131_" style="clip-path:url(#SVGID_00000000913718785753465700000011383542607489697981_);">
											<use xlink:href="#SVGID_00000070816417414880599390000011728557542589367433_"  style="overflow:visible;"/>
										</clipPath>
										
											<linearGradient id="SVGID_00000172419672664939831620000009164464624683153587_" gradientUnits="userSpaceOnUse" x1="2745.1594" y1="669.7304" x2="2744.6292" y2="518.5822" gradientTransform="matrix(0.3778 0.9259 0.9259 -0.3778 -127.6065 -277.3062)">
											<stop  offset="0" style="stop-color:#FFFFFF"/>
											<stop  offset="1" style="stop-color:#000000"/>
										</linearGradient>
										
											<path style="clip-path:url(#SVGID_00000101815226963288112440000001904484369749033131_);fill:url(#SVGID_00000172419672664939831620000009164464624683153587_);" d="
											M1623.4,2014.4l-284.6,113.3c-6.5-27.7-4.8-55.9,3.9-81.7l219.5-87.4C1586.7,1971.2,1608.1,1990.2,1623.4,2014.4z"/>
									</g>
								</g>
							</mask>
							
								<linearGradient id="SVGID_00000011017732418842333680000010104124387362420907_" gradientUnits="userSpaceOnUse" x1="2745.1594" y1="669.7304" x2="2744.6292" y2="518.5822" gradientTransform="matrix(0.3778 0.9259 0.9259 -0.3778 -127.6065 -277.3062)">
								<stop  offset="0" style="stop-color:#FFFFFF"/>
								<stop  offset="1" style="stop-color:#000000"/>
							</linearGradient>
							
								<path style="clip-path:url(#SVGID_00000161602005290752185900000000943868989061134221_);mask:url(#SVGID_00000142898916153311187190000002262978452418741680_);fill:url(#SVGID_00000011017732418842333680000010104124387362420907_);" d="
								M1623.4,2014.4l-284.6,113.3c-6.5-27.7-4.8-55.9,3.9-81.7l219.5-87.4C1586.7,1971.2,1608.1,1990.2,1623.4,2014.4z"/>
						</g>
					</g>
					
						<linearGradient id="SVGID_00000098938360682683772900000014580291533565715127_" gradientUnits="userSpaceOnUse" x1="2745.1594" y1="669.7304" x2="2744.6292" y2="518.5822" gradientTransform="matrix(0.3778 0.9259 0.9259 -0.3778 -127.6065 -277.3062)">
						<stop  offset="0" style="stop-color:#FFFFFF"/>
						<stop  offset="1" style="stop-color:#FFFFFF"/>
					</linearGradient>
					
						<path style="opacity:0.7;fill:url(#SVGID_00000098938360682683772900000014580291533565715127_);enable-background:new    ;" d="
						M1623.4,2014.4l-284.6,113.3c-6.5-27.7-4.8-55.9,3.9-81.7l219.5-87.4C1586.7,1971.2,1608.1,1990.2,1623.4,2014.4z"/>
					<g>
						<g>
							<defs>
								<polygon id="SVGID_00000020387819417358750970000013338680719488847242_" points="1,1 2,1 1,2 								"/>
							</defs>
							<defs>
								<polygon id="SVGID_00000030473339449547602410000008028800670051566008_" points="-1,-1 -2,-1 -1,-2 								"/>
							</defs>
							<clipPath id="SVGID_00000098904567527135518490000005868230674631855759_">
								<use xlink:href="#SVGID_00000020387819417358750970000013338680719488847242_"  style="overflow:visible;"/>
							</clipPath>
							
								<clipPath id="SVGID_00000001639503722562901820000006875281740676261770_" style="clip-path:url(#SVGID_00000098904567527135518490000005868230674631855759_);">
								<use xlink:href="#SVGID_00000030473339449547602410000008028800670051566008_"  style="overflow:visible;"/>
							</clipPath>
							<defs>
								
									<filter id="Adobe_OpacityMaskFilter_00000145025998214188153710000001973825805727697805_" filterUnits="userSpaceOnUse" x="1353.8" y="2052.8" width="293.2" height="172.2">
									<feColorMatrix  type="matrix" values="1 0 0 0 0  0 1 0 0 0  0 0 1 0 0  0 0 0 1 0"/>
								</filter>
							</defs>
							
								<mask maskUnits="userSpaceOnUse" x="1353.8" y="2052.8" width="293.2" height="172.2" id="SVGID_00000008848047930671070360000004015597373107297673_">
								<g style="filter:url(#Adobe_OpacityMaskFilter_00000145025998214188153710000001973825805727697805_);">
									<g>
										<defs>
											<polygon id="SVGID_00000012435955602139380420000005623849777252021664_" points="1,1 2,1 1,2 											"/>
										</defs>
										<defs>
											<polygon id="SVGID_00000115509416816304646500000010248426312330159547_" points="-1,-1 -2,-1 -1,-2 											"/>
										</defs>
										
											<clipPath id="SVGID_00000182501896260100411420000016388825361070716570_" style="clip-path:url(#SVGID_00000001639503722562901820000006875281740676261770_);">
											<use xlink:href="#SVGID_00000012435955602139380420000005623849777252021664_"  style="overflow:visible;"/>
										</clipPath>
										
											<clipPath id="SVGID_00000045591064624364760280000000732520385196961169_" style="clip-path:url(#SVGID_00000182501896260100411420000016388825361070716570_);">
											<use xlink:href="#SVGID_00000115509416816304646500000010248426312330159547_"  style="overflow:visible;"/>
										</clipPath>
										
											<linearGradient id="SVGID_00000011729981709999494250000001854034498693000634_" gradientUnits="userSpaceOnUse" x1="2861.5278" y1="670.3904" x2="2860.9932" y2="517.9811" gradientTransform="matrix(0.3778 0.9259 0.9259 -0.3778 -127.6065 -277.3062)">
											<stop  offset="0" style="stop-color:#FFFFFF"/>
											<stop  offset="1" style="stop-color:#000000"/>
										</linearGradient>
										
											<path style="clip-path:url(#SVGID_00000045591064624364760280000000732520385196961169_);fill:url(#SVGID_00000011729981709999494250000001854034498693000634_);" d="
											M1642.4,2132.3l-232.8,92.7c-22.9-13.8-42.4-33.5-55.8-57.9l287-114.3C1648.7,2079.4,1648.9,2106.8,1642.4,2132.3z"/>
									</g>
								</g>
							</mask>
							
								<linearGradient id="SVGID_00000021097430501726062320000011494645521627543225_" gradientUnits="userSpaceOnUse" x1="2861.5278" y1="670.3904" x2="2860.9932" y2="517.9811" gradientTransform="matrix(0.3778 0.9259 0.9259 -0.3778 -127.6065 -277.3062)">
								<stop  offset="0" style="stop-color:#FFFFFF"/>
								<stop  offset="1" style="stop-color:#000000"/>
							</linearGradient>
							
								<path style="clip-path:url(#SVGID_00000001639503722562901820000006875281740676261770_);mask:url(#SVGID_00000008848047930671070360000004015597373107297673_);fill:url(#SVGID_00000021097430501726062320000011494645521627543225_);" d="
								M1642.4,2132.3l-232.8,92.7c-22.9-13.8-42.4-33.5-55.8-57.9l287-114.3C1648.7,2079.4,1648.9,2106.8,1642.4,2132.3z"/>
						</g>
					</g>
					
						<linearGradient id="SVGID_00000072271383719002442040000006010125965559153549_" gradientUnits="userSpaceOnUse" x1="2861.5278" y1="670.3904" x2="2860.9932" y2="517.9811" gradientTransform="matrix(0.3778 0.9259 0.9259 -0.3778 -127.6065 -277.3062)">
						<stop  offset="0" style="stop-color:#FFFFFF"/>
						<stop  offset="1" style="stop-color:#FFFFFF"/>
					</linearGradient>
					
						<path style="opacity:0.7;fill:url(#SVGID_00000072271383719002442040000006010125965559153549_);enable-background:new    ;" d="
						M1642.4,2132.3l-232.8,92.7c-22.9-13.8-42.4-33.5-55.8-57.9l287-114.3C1648.7,2079.4,1648.9,2106.8,1642.4,2132.3z"/>
					<g>
						<path class="st0" d="M1494.1,2255.7c-21.6,0-43.5-4.2-64.7-12.9c-41.5-17.2-73.5-49.3-90.3-90.4
							c-16.4-40.2-16.1-84.2,0.8-123.9c35.3-82.9,132.8-121.8,217.4-86.7c41.5,17.2,73.5,49.3,90.3,90.4
							c16.4,40.2,16.1,84.2-0.8,123.9C1620.3,2218.3,1558.9,2255.7,1494.1,2255.7z M1492.6,1949.1c-56.8,0-110.7,32.8-133.9,87.2
							c-14.8,34.7-15,73.2-0.7,108.3c14.7,36,42.8,64.2,79.3,79.3c74.3,30.9,159.9-3.1,190.8-75.9l0,0c14.8-34.7,15-73.2,0.7-108.3
							c-14.7-36-42.8-64.2-79.3-79.3C1530.9,1952.8,1511.6,1949.1,1492.6,1949.1z"/>
					</g>
					<g>
						<g>
							<path class="st4" d="M2564.3,2685.6c0,0,119.1-41.4,198.4,195.6c3.7,11.1-3.8,22.8-15.7,24c-63.5,6.7-241.7,15-261.8-98.2
								L2564.3,2685.6z"/>
						</g>
						<g>
							<path class="st1" d="M2552.5,2702.9c0,0,84.5-29.4,140.6,139.2c2.5,7.4-2.6,15.1-10.4,15.9c-44,4.7-171.8,11.3-186.1-69.3
								L2552.5,2702.9z"/>
						</g>
						<g>
							<path class="st7" d="M2538.7,2714c0,0,57-19.8,94.8,93.9c1.7,5-1.7,10.2-7,10.8c-29.7,3.2-115.9,7.6-125.6-46.8L2538.7,2714z
								"/>
						</g>
						<g>
							<path class="st0" d="M2682.1,2920.5c-83.7,0-192.1-18.5-208.7-111.4c-0.5-3,0.1-6,1.7-8.6l79.2-121.4
								c1.4-2.2,3.6-3.9,6.1-4.7c1.4-0.5,35.3-11.8,79.2,9.8c55.4,27.2,100.6,92.3,134.4,193.3c2.9,8.7,1.7,18.1-3.2,25.8
								c-5,7.8-13.2,12.8-22.5,13.8C2730.7,2918.8,2707.6,2920.5,2682.1,2920.5z M2497.8,2809.4c22.8,99.5,195.1,89.5,248,83.9
								c2.8-0.3,4.3-2,5-3c0.6-0.9,1.5-2.9,0.7-5.4c-67.2-200.9-159.8-193.2-179.6-189L2497.8,2809.4z"/>
						</g>
					</g>
					<g>
						<path class="st8" d="M2413.9,2746.6c15.7,40.8,51.6,64.3,51.6,64.3s31.9-15.7,67.7-68.8c35.8-53.1,38.1-88.1,38.1-88.1
							s-35.9-23.5-80.2-21.9L2413.9,2746.6z"/>
					</g>
					<g>
						<path class="st0" d="M2465.5,2823.3c-2.4,0-4.7-0.7-6.8-2c-1.6-1.1-39.5-26.2-56.4-70.2c-2.5-6.4,0.7-13.6,7.1-16
							c6.4-2.5,13.6,0.7,16,7.1c10.3,26.7,30.5,45.5,40.7,53.8c10.4-7.1,32.6-25,56.7-60.7c23.9-35.4,32-62.3,34.7-74.6
							c-11.7-6.1-37.2-17.1-66.1-16c-6.9,0.2-12.6-5.1-12.8-12c-0.2-6.8,5.1-12.6,12-12.8c47.6-1.5,85.8,22.9,87.4,23.9
							c3.8,2.5,5.9,6.7,5.6,11.2c-0.1,1.6-3,39-40.2,94.2c-37.2,55.2-71,72.3-72.5,73C2469.2,2822.8,2467.4,2823.3,2465.5,2823.3z"
							/>
					</g>
					<g>
						<path class="st4" d="M2363.8,2775.1c69.7,26.4,115.1-44.8,126.2-61.2c11.1-16.5,60.1-85.3,8.4-138.3
							c-52.3-53.6-329.2-206-392.1-112.6C2043.3,2556.3,2293.3,2748.4,2363.8,2775.1z"/>
					</g>
					<g class="st5">
						<path class="st2" d="M2500.1,2698.2c10.1-27.8,13.1-62.9-16.1-92.9c-51-52.3-315.3-198.3-386.9-119.3c1.4-8.2,4.4-16,9.2-23.1
							c63-93.4,339.8,59,392.2,112.6C2539.8,2617.9,2516.7,2670.4,2500.1,2698.2z"/>
					</g>
					<g class="st6">
						<path class="st0" d="M2379.1,2751.3c55,20.8,94.8-19,114.7-44.9c-13.8,2.8-29.1,2.1-45.9-4.2
							c-60.8-23-255.2-169.2-267.1-268.8c-27.5-0.7-50.6,5.1-66.2,19.8C2082.2,2550.4,2312,2725.9,2379.1,2751.3z"/>
					</g>
					<g>
						<path class="st0" d="M2394.2,2796.3c-13.2,0-25.3-2.8-35.9-6.8c-55.4-21-237.7-151.5-272-259.5c-9.3-29.4-6.9-54.8,7.2-75.7
							c14.1-20.9,37.1-32.9,68.2-35.8c114.4-10.3,306.7,104.3,347.7,146.3c27,27.7,47.9,77.3-5.7,156.4l-1.8,2.7
							C2464.3,2779.8,2426.2,2796.3,2394.2,2796.3z M2176.7,2448.7c-4.2,0-8.2,0.2-12.1,0.5c-21.8,2-36.7,9.3-45.5,22.3
							c-8.7,12.9-9.8,29-3.4,49.2c29,91.1,196.8,218.5,253.6,240c0,0,0,0,0,0c38,14.4,73-3.3,107.1-54l1.9-2.8
							c34.2-50.4,37.2-88.9,9.2-117.6C2447,2545,2275.8,2448.7,2176.7,2448.7z"/>
					</g>
					<g>
						<path class="st0" d="M2265.5,2723.1c-2.7,0-5.5-1.2-7.3-3.5c-3.2-4-2.5-9.9,1.5-13.1c64.9-51.3,111.3-120.1,134.2-198.9
							c1.4-4.9,6.5-7.7,11.4-6.4c4.9,1.3,7.8,6.3,6.6,11.2c-24.1,82.9-72.7,154.9-140.6,208.7
							C2269.5,2722.4,2267.5,2723.1,2265.5,2723.1z"/>
					</g>
				</g>
			</g>
			<g class="st3">
				<path class="st0" d="M1738.4,2236.7c227.4-88.7,409.4-230.6,606.2,22.5c-88.4-144.1-176.2-261.7-263.1-339.4
					c-59.4,82.3-141.4,129.3-278.1,91C1805,2084.5,1784.8,2159.7,1738.4,2236.7z"/>
			</g>
			<g>
				<g>
					<path class="st2" d="M1432.6,2161.8c4.4,15.3,14.7,28.4,28.3,36.7c0.2,0.2,0.5,0.3,0.7,0.4c85.7,51,179.6,72.4,278.8,74.6
						c20.1,0.4,39.7-7.1,53.9-21.3c43.1-43.4,56.9-127.4,57.6-229.7c112,27.1,173.8-5.9,195.1-19.5
						c60.5-38.6,83.8-105.8,110.7-219.6c5-21.3,10.2-44.2,15.8-68.9c14.2-63.2,24.5-110.3,24.1-176.2
						c-0.6-100.7-25.8-181.2-46.1-231.5c-127.2-31.9-254.5-63.8-381.7-95.6l-108.6,87.1c-47.4,39.1-81.3,78.3-81.2,117.5
						l188.7,331.6l12.1,21.3l3.5,6.2c-156.1,27.9-286.3,30-248.9,280.4C1464.1,2045.4,1411.5,2089.8,1432.6,2161.8z"/>
				</g>
				<g>
					<path class="st0" d="M2213.6,1540.6c-17.2,117-24.7,235.2-64.6,348.5c-35.3,97.9-102.2,158.9-209.8,158.9
						c-30.9,0.4-61.2-3.6-90.7-9.4l19.5-15.8c-0.4,34.8-1.9,69.8-6.9,104.9c-8.3,53.5-23.3,114.7-70.2,148
						c-17.3,11.3-38.2,15.5-58.6,14c-35-1-70.1-4.7-104.8-11.2c-52-10-103-27-149.9-51.8c-17.1-9.2-35.1-17.5-47.1-33.6
						c-13-16.5-17.5-37.3-18.8-57.6c-2.5-43.7,26.1-81.3,68-92.6c19.2-5.7,39-6,57.8-3.5l-18.3,18.5c-12.9-84.9-14.6-194.7,68-245.8
						c58.3-35.7,129.5-40.6,194.1-53c0,0-11.3,24-11.3,24l-204.3-359.1c-1.5-2.4-2.4-5.4-2.2-8c4.7-55.6,53-91.8,93.5-122.2
						c6.3-4.1,13.4,3.8,7.8,9.5c-29.9,30-70.4,68-68.9,112.6c0,0-2.1-8-2.1-8c0,0,204.4,359.2,204.4,359.2c5.6,9.5-0.4,22.3-11.3,24
						c-66.2,13.5-151.1,16.8-201.7,63.7c-50.2,49.4-42.7,132.9-34,198.2c1.7,10.5-7.8,20.1-18.3,18.5c-15.1-2.1-30.5-1.6-44.2,2.5
						c-28,7.6-46.2,30.9-44.5,60.1c1,13.4,3.4,28.1,12,38.9c9.1,11.8,23.9,17.5,36.6,24.8c44.2,23.3,91.9,39.2,141,48.7
						c32.8,6.1,66.2,9.7,99.7,10.7c21.6,2.2,41.8-5.6,55.1-22.9c25.1-31.2,34.1-70.6,40.4-111.2c4.7-32.9,6.2-66.7,6.6-100.5
						c0-10.1,9.5-17.8,19.4-15.8c80.1,16.6,172.1,15.7,224.8-55.9c50.5-69,63.6-156.9,77.8-240.7c8.9-57.5,15.9-115.6,23.8-173.8
						C2184.5,1515.4,2215.8,1518.7,2213.6,1540.6L2213.6,1540.6z"/>
				</g>
				<g>
					<path class="st0" d="M1833.1,1789.1C1833,1789.1,1833,1789.1,1833.1,1789.1l-49-0.3c-7.7,0-13.9-6.3-13.9-14
						c0-7.7,6.3-13.9,13.9-13.9c0,0,0.1,0,0.1,0l48.9,0.3c7.7,0,13.9,6.3,13.9,14C1847,1782.9,1840.7,1789.1,1833.1,1789.1z"/>
				</g>
				<g>
					<path class="st0" d="M1658.8,2131.8c-3.6,0-7.1-1.4-9.9-4.1c-40.6-40.5-91.5-62.7-136.4-59.1c-27.5,2.2-49.9,14-64.6,34.3
						c-4.5,6.2-13.2,7.6-19.5,3.1c-6.2-4.5-7.6-13.2-3.1-19.5c19.7-27.1,49.1-42.9,85-45.7c52.9-4.1,112.1,21,158.3,67.2
						c5.4,5.4,5.4,14.3,0,19.7C1665.9,2130.4,1662.3,2131.8,1658.8,2131.8z"/>
				</g>
				<g>
					<path class="st0" d="M1851.8,2036.5c-6.5,0-12.3-4.5-13.6-11.1c-18.1-87-59.3-150.1-116.1-177.4
						c-42.7-20.6-92.5-19.7-136.6,2.6c-6.9,3.5-15.3,0.7-18.7-6.2s-0.7-15.3,6.2-18.7c51.8-26.2,110.6-27.2,161.2-2.8
						c64.8,31.2,111.4,101.2,131.3,196.9c1.6,7.5-3.3,14.9-10.8,16.5C1853.7,2036.4,1852.7,2036.5,1851.8,2036.5z"/>
				</g>
				<g class="st3">
					<path class="st0" d="M1460.8,2198.5c0.2,0.2,0.5,0.3,0.7,0.4c85.7,51,179.6,72.4,278.8,74.6c20.1,0.4,39.7-7.1,53.9-21.3
						c43.1-43.4,56.9-127.4,57.6-229.7c112,27.1,173.8-5.9,195.1-19.5c60.5-38.6,83.8-105.8,110.7-219.6l-2.2-6.4l-291.7-72.1
						l-95.1,42.5l-89.3,39.9c19.9-6.2,58.5-16.9,101.5-18.6c31.9-1.2,66.2,2.6,97,16.8c15.7,7.2,39.8,18.9,47.2,43.4
						c8.2,27.4-10.1,53-13.3,57.4c-8,11.2-18.1,18.9-28.6,24.2c-56.4,28.5-104.4,71.7-134,127.6c-16.6,31.1-29.9,62.9-38.7,95.5
						c-11.7,43.6-47.9,76.8-92.6,82.6C1573,2222.1,1518.5,2212.8,1460.8,2198.5z"/>
				</g>
				<g class="st3">
					<path class="st0" d="M1682.1,1189.8c78.9,89.2,191.8,164.2,325.5,230.4c45.3,22.5,69.5,72.9,58.8,122.3l-31.9,146.7l138.8,25.3
						c29.7-166.8,39-321.8-5.5-445.8L1682.1,1189.8z"/>
				</g>
			</g>
			<g>
				<g>
					<path class="st2" d="M1498.9,1630.9l246.3,115.6c29.1,13.7,64.2,1,77.9-28.1l61.5-131.1c12-25.6,3.8-55.6-18-71.9
						c-3.1-2.3-6.5-4.3-10.1-6.1l-246.3-115.6c-29.2-13.7-64.3-1.1-77.9,28.1l-48.8,103.8l-12.8,27.3
						C1457,1582.1,1469.7,1617.2,1498.9,1630.9z"/>
				</g>
				<g>
					<path class="st2" d="M1498.9,1630.9l246.3,115.6c29.1,13.7,64.2,1,77.9-28.1l61.5-131.1c12-25.6,3.8-55.6-18-71.9
						c-3.1-2.3-6.5-4.3-10.1-6.1l-246.3-115.6c-29.2-13.7-64.3-1.1-77.9,28.1l-48.8,103.8l-12.8,27.3
						C1457,1582.1,1469.7,1617.2,1498.9,1630.9z"/>
				</g>
				<g>
					<path class="st2" d="M1498.9,1630.9l246.3,115.6c29.1,13.7,64.2,1,77.9-28.1l61.5-131.1c12-25.6,3.8-55.6-18-71.9
						c-3.1-2.3-6.5-4.3-10.1-6.1l-246.3-115.6c-29.2-13.7-64.3-1.1-77.9,28.1l-48.8,103.8l-12.8,27.3
						C1457,1582.1,1469.7,1617.2,1498.9,1630.9z"/>
				</g>
				<g class="st6">
					<path class="st0" d="M1498.5,1630.7l246.3,115.6c29.1,13.7,64.2,1,77.9-28.1l61.5-131.1c12-25.6,3.8-55.6-18.1-71.9
						c-18.3,2.7-30,4.5-30,4.5c-61.4,99.6-116,138-247.6,78.8c-56.8-25.6-88.4-50.9-105.4-73l-12.8,27.3
						C1456.6,1582,1469.3,1617,1498.5,1630.7z"/>
				</g>
				<g>
					<path class="st0" d="M1762.1,1760.6c-12.6,0-25.5-2.7-37.6-8.4l-216.7-101.7c-44.4-20.8-63.5-73.9-42.7-118.2l47.7-101.5
						c10.1-21.4,27.9-37.7,50.3-45.7c22.4-8.1,46.5-7,67.9,3.1l216.7,101.7c44.4,20.8,63.5,73.9,42.7,118.2l-47.7,101.5
						C1827.5,1741.7,1795.5,1760.6,1762.1,1760.6z M1736.3,1727c30.4,14.3,66.8,1.2,81.1-29.3l47.7-101.5
						c14.3-30.4,1.2-66.8-29.3-81.1l-216.7-101.7c-14.7-6.9-31.2-7.6-46.6-2.1c-15.4,5.6-27.6,16.7-34.5,31.4l-47.7,101.5
						c-14.3,30.4-1.2,66.8,29.3,81.1L1736.3,1727z"/>
				</g>
				<g>
					<path class="st2" d="M1586.4,1670.9l0.1,1.2l158.7,74.5c21.4,10,45.9,5.9,62.9-8.5c6.2-5.2,11.4-11.8,15-19.6l27.4-58.2l9-19.2
						l15.8-33.7l9.3-19.9c13.7-29.2,1-64.2-28.1-77.9l-53.2-25c22.4,16.1,30.9,46.5,18.8,72.3l-18.2,38.9l-15,31.9l-28.3,60.3
						c-13.7,29.1-48.8,41.8-77.9,28.1L1586.4,1670.9z"/>
				</g>
				<g class="st6">
					<path class="st0" d="M1561.3,1659.1l0.1,1.2l183.8,86.3c21.4,10,45.9,5.9,62.9-8.5c6.2-5.2,11.4-11.8,15-19.6l27.4-58.2l9-19.2
						l15.8-33.7c-10-6.5-24.8-11.7-39.9,0.5c-20.9,16.8-28.8,4.3-31.5-12l-15,31.9l-28.3,60.3c-13.7,29.1-48.8,41.8-77.9,28.1
						L1561.3,1659.1z"/>
				</g>
				<g>
					<path class="st0" d="M1769.9,1766c-10.5,0-20.9-2.3-30.6-6.9l-222.9-104.7c0,0,0,0,0,0l0,0l-12.5-5.9l5.8-12.6
						c4.3-9.2,11.7-8.8,18.4-6.5l0.1-0.3l3.9,1.8c1.1,0.5,2.1,0.9,3,1.4l153.6,71c10.8,5.1,22.9,5.6,34.2,1.5
						c11.3-4.1,20.2-12.2,25.3-23l61.5-131.1c9.1-19.4,3.1-42.6-14.3-55.2l14.1-23.9l53.2,25c36.2,17,51.8,60.3,34.8,96.5
						l-61.5,131.1c-8.2,17.5-22.8,30.7-41,37.3C1786.6,1764.6,1778.2,1766,1769.9,1766z M1739,1728.2l12.1,5.7
						c10.7,5,22.8,5.6,34.1,1.5c11.3-4.1,20.2-12.2,25.3-23l0,0l61.5-131.1c10.5-22.3,0.8-48.9-21.4-59.4l-10.6-5
						c3.2,15,1.6,31-5.3,45.7l-61.5,131.1C1766,1709,1754,1721,1739,1728.2z"/>
				</g>
				<g>
					<path class="st15" d="M1693.2,1578.6c-2.5,4.7-16,46.5-16,46.5s12.1,6.4,27,14.2c18.6,9.8,43.8-1.5,56.3-25.3s7.6-50.9-11-60.7
						c-12.5-6.6-27-14.2-27-14.2S1697.3,1570.9,1693.2,1578.6z"/>
				</g>
				<g>
					<path class="st30" d="M1693.2,1578.6c-2.5,4.7-16,46.5-16,46.5s12.1,6.4,27,14.2c18.6,9.8,43.8-1.5,56.3-25.3s7.6-50.9-11-60.7
						c-12.5-6.6-27-14.2-27-14.2S1697.3,1570.9,1693.2,1578.6z"/>
				</g>
				<g>
					<path class="st0" d="M1718.6,1652.1c-6.5,0-12.8-1.5-18.7-4.5l-18.8-9.9c-8.8-4.6-13-14.9-9.9-24.3
						c11.3-34.5,13-37.8,13.7-39.1l0,0c2.4-4.6,10.6-15.9,24.5-33.6c6.1-7.8,16.8-10.1,25.5-5.5l18.8,9.9
						c23.1,12.2,29.8,45,14.9,73.3C1757.7,1639.4,1737.7,1652.1,1718.6,1652.1z M1701.5,1582.9c-0.9,1.8-4.7,12.4-12.5,36.2
						c-0.3,0.8,0.1,1.7,0.9,2.1l18.8,9.9c14,7.4,33.6-2.2,43.7-21.4c10.1-19.2,6.9-40.8-7.1-48.2l-18.8-9.9
						c-0.8-0.4-1.7-0.2-2.2,0.5C1709.6,1570.7,1702.9,1580.2,1701.5,1582.9z M1693.2,1578.6L1693.2,1578.6L1693.2,1578.6z"/>
				</g>
				<g>
					
						<ellipse transform="matrix(0.4656 -0.885 0.885 0.4656 -491.6262 2349.8027)" class="st15" cx="1699.9" cy="1582" rx="48.6" ry="38"/>
				</g>
				<g class="st5">
					<path class="st2" d="M1733.6,1599.8c-0.9,1.8-1.9,3.5-3,5.1c6.3-20.7,0.4-41.7-15.4-50.1c-17.2-9.1-40,0-53.3,20.2
						c1.1-3.6,2.5-7.2,4.4-10.7c12.5-23.7,37.7-35.1,56.3-25.3S1746.1,1576.1,1733.6,1599.8z"/>
				</g>
				<g>
					<path class="st30" d="M1733.6,1599.8c-12.5,23.7-37.7,35.1-56.3,25.3c-18.6-9.8-23.5-37-11-60.7c2-3.7,4.3-7.2,6.8-10.3
						c-3.5,18.6,2.7,36.3,17,43.8c15.6,8.2,36,1.5,49.5-15C1738.4,1588.6,1736.5,1594.3,1733.6,1599.8z"/>
				</g>
				<g>
					<path class="st0" d="M1691.8,1637.9c-6.6,0-13-1.5-18.8-4.6c-23.1-12.2-29.8-45-14.9-73.3l0,0c7-13.3,17.8-23.7,30.3-29.4
						c13.3-6,27-5.9,38.6,0.2c11.6,6.1,19.4,17.3,22,31.7c2.5,13.5-0.1,28.3-7.1,41.6s-17.8,23.7-30.3,29.4
						C1704.9,1636.4,1698.3,1637.9,1691.8,1637.9z M1674.5,1568.7L1674.5,1568.7c-10.1,19.2-6.9,40.8,7.1,48.2
						c6.4,3.4,14.3,3.3,22.3-0.3c8.7-3.9,16.4-11.4,21.4-21.1c5.1-9.7,6.9-20.2,5.2-29.6c-1.6-8.6-6-15.2-12.4-18.6
						c-6.4-3.4-14.3-3.3-22.3,0.3C1687.2,1551.6,1679.6,1559.1,1674.5,1568.7z"/>
				</g>
				<g>
					<path class="st0" d="M1571.1,1672.1c-1.7,0-3.5-0.4-5.2-1.2c-5.7-2.9-8-9.8-5.1-15.4l32.9-65.4c5.9-11.8,5.6-25.6-1-37
						c-10.6-18.6-11-41-1-59.9l48.3-91.3c3-5.6,9.9-7.8,15.5-4.8c5.6,3,7.8,9.9,4.8,15.5l-48.3,91.3c-6.3,11.9-6.1,26,0.6,37.7
						c10.4,18.1,11,40.1,1.6,58.8l-32.9,65.4C1579.4,1669.7,1575.3,1672.1,1571.1,1672.1z"/>
				</g>
				<g>
					<g>
						<path class="st2" d="M1888,1634.8c0,0-55.1-19.1-73.3,21.2c-18.2,40.2,36,68.7,36,68.7s192.2,89.2,347,93.4
							c71.4-21.4,27.1-87.2,27.1-87.2S2045.9,1708.5,1888,1634.8z"/>
					</g>
					<g class="st6">
						<path class="st0" d="M1850.8,1724.6c0,0,192.2,89.2,346.9,93.4c31.8-9.6,40.7-27.9,40.7-45.3c-5.6,3.8-12.7,7.2-21.6,9.8
							c-154.8-4.2-347-93.4-347-93.4s-39.1-20.5-39.7-51.3c-6.2,3.9-11.6,9.8-15.3,18.1C1796.6,1696.2,1850.8,1724.6,1850.8,1724.6z
							"/>
					</g>
					<g>
						<path class="st0" d="M2199.3,1829.6l-1.8-0.1c-155.4-4.3-343.6-90.8-351.5-94.5l-0.5-0.2c-22.1-11.6-59.1-43.9-41.2-83.6
							c17.8-39.4,65-35.1,87.5-27.3l1.1,0.4c154.3,72.1,331.6,94.9,333.4,95.1l5.2,0.6l2.9,4.3c1,1.4,23.6,35.6,12.4,66.9
							c-6.4,17.8-21.8,30.5-45.8,37.7L2199.3,1829.6z M1855.9,1714.3c8.4,3.9,192.7,87.5,340.3,92.2c15.6-5,25.4-12.7,29-22.9
							c5.5-15.3-2.9-33.9-7.4-42.1c-31.8-4.6-192.1-29.9-334-96c-5.3-1.7-45.6-13.5-58.6,15.2
							C1812.1,1689.7,1852,1712.2,1855.9,1714.3z"/>
					</g>
				</g>
			</g>
			<g>
				<path class="st2" d="M2161.1,1597.5l-17.5-234.4c49.6,0.7,97.5-3.3,143.5-14.7c27-6.7,53.3-15.8,79-28
					c58.3-27.6,113.1-70.6,164.2-134.6c35.1-49.2,72.4-37.6,70.4,38.3c-0.3,10.6,8.9,19,19.5,17.4c23.1-3.6,46-11.1,68.7-23.4
					c40.6-22.1,92.3-11.6,119.2,26c3.7,5.2,6.8,10.6,9.2,16.3C2880.9,1407.4,2520.8,1696.4,2161.1,1597.5z"/>
			</g>
			<g>
				<path class="st0" d="M2313.6,1634.3c-51,0-103.6-6.5-156.8-21.1c-8.7-2.4-13.7-11.3-11.4-20s11.3-13.7,20-11.4
					c148.7,40.9,281.6,10.7,367-21.8c103-39.3,193.5-104.2,242-173.7c21.3-30.5,52.2-88.3,20.4-132.8
					c-21.9-30.6-64.1-39.7-98.2-21.2c-23.3,12.7-48.2,21.1-74,25.2c-9.7,1.5-19.5-1.3-26.9-7.8c-7.5-6.6-11.6-16.1-11.4-26.1
					c0.9-33.9-7-49.3-12.3-51c-3.9-1.3-15.1,3.7-28.6,22.6c-0.2,0.2-0.4,0.5-0.5,0.7c-50.7,63.4-106.3,109-170,139.1
					c-65.8,31.2-141,45.7-229.7,44.3c-9-0.1-16.1-7.5-16-16.5c0.1-9,7.6-16.3,16.5-16c83.6,1.3,154-12.2,215.3-41.2
					c59-28,110.8-70.4,158.2-129.7c20.6-28.7,44.3-41.2,65.1-34.2c13.6,4.5,36.1,21.3,34.4,82.7c0,0.3,0.1,0.6,0.3,0.8
					c22.7-3.4,43.5-10.4,63.8-21.5c48.5-26.3,108.8-13.1,140.2,30.8c31.7,44.4,24.3,106.5-20.2,170.3
					C2726.9,1511,2535.9,1634.2,2313.6,1634.3z"/>
			</g>
			<g>
				<path class="st0" d="M2427.5,1622.8c-3,0-6.1-0.8-8.8-2.6c-129.7-83.4-100.9-214.3-68-305.5c3-8.4,12.4-12.8,20.8-9.8
					c8.4,3,12.8,12.4,9.8,20.8c-47.6,131.8-31.2,211.7,55,267.1c7.6,4.9,9.7,14.9,4.9,22.5
					C2438.1,1620.2,2432.9,1622.8,2427.5,1622.8z"/>
			</g>
			<g class="st3">
				<g>
					<path class="st0" d="M2161.1,1597.5l-17.5-234.4c49.6,0.7,97.5-3.3,143.5-14.7c-5.3,10.9-9.8,22.2-12.9,34
						c-6.6,25.2-5.8,53.4,7.6,75.8c15.1,25.1,43.9,39.4,72.9,43.2c29,3.9,58.4-1.3,87-7.5c85.7-18.6,170.4-46.7,243.6-95
						c53.6-35.4,100.7-82.7,131.9-138.5C2880.9,1407.4,2520.8,1696.4,2161.1,1597.5z"/>
				</g>
			</g>
			<g>
				<g>
					<path class="st2" d="M1628.4,986.9c11.2,71.6,40.5,140.8,87.8,200.5c9.6,12.2,20,23.9,31.1,35.2c5.4,5.5,11,10.9,16.7,16.2
						c17.4,16,35.8,30.3,54.9,43c16.5,11,33.6,20.7,51,29.2c21.1,10.3,42.9,18.7,65,25.5c8.1,2.4,16.2,4.6,24.4,6.6
						c149.5,36.1,313.4-6.3,425.2-124.9c164.8-174.7,154.1-448.8-23.8-612.1c-34.3-31.4-72.3-56.5-112.5-75.2
						c-4.7-2.2-9.4-4.3-14.2-6.3c-12.8-5.4-25.8-10.2-38.9-14.4c-30.4-9.6-61.6-15.9-92.9-18.8c-31.3-3-62.9-2.6-94.1,1.1
						c-9.9,1.2-19.8,2.7-29.6,4.5c-14.8,2.8-29.4,6.2-43.8,10.5c-72.1,21.2-139.6,61-194.5,119.2
						C1645.4,727.3,1608.7,860.6,1628.4,986.9z"/>
					<path class="st0" d="M2063.9,1357c-34.9,0-70.1-4.1-104.9-12.5c-8.2-2-16.4-4.2-24.4-6.6c-22.5-6.8-44.4-15.4-65.2-25.5
						c-17.8-8.7-35-18.5-51.2-29.3c-19.3-12.8-37.9-27.3-55.1-43.1c-6.3-5.8-11.8-11.2-16.8-16.3c-10.9-11.1-21.4-23-31.2-35.3
						c-46.2-58.4-76.6-127.9-88.1-201.2c-20.7-132.2,20.2-263.9,112.2-361.4c53.2-56.4,120.6-97.8,195.1-119.6
						c14.1-4.2,28.9-7.7,44-10.6c9.7-1.8,19.7-3.3,29.7-4.5c31.3-3.7,63.1-4.1,94.4-1.1c31.7,3,63,9.3,93.2,18.8
						c13.1,4.2,26.3,9,39,14.4c5,2.1,9.9,4.2,14.3,6.3c41,19,79,44.4,112.8,75.4c86.7,79.6,136.7,187.6,140.9,304
						c4.2,115.6-37.4,225.7-117.1,310.2C2301.8,1308.1,2184.6,1357,2063.9,1357z M1629.9,986.6c11.4,72.8,41.6,141.8,87.5,199.8
						c9.7,12.3,20.1,24.1,30.9,35.1c5,5.1,10.4,10.4,16.7,16.2c17.1,15.7,35.5,30.1,54.7,42.8c16.1,10.7,33.2,20.5,50.9,29.1
						c20.7,10.1,42.5,18.6,64.8,25.4c8,2.4,16.2,4.6,24.3,6.6c154,37.2,316.3-10.5,423.8-124.5c79.1-83.9,120.4-193.3,116.3-308
						c-4.2-115.7-53.9-222.9-139.9-301.9c-33.6-30.8-71.3-56-112.1-74.9c-4.4-2.1-9.2-4.2-14.2-6.3c-12.7-5.4-25.7-10.2-38.8-14.3
						c-30-9.5-61.1-15.8-92.6-18.7c-31.2-2.9-62.7-2.6-93.8,1.1c-10,1.2-19.9,2.7-29.5,4.5c-15,2.8-29.7,6.4-43.7,10.5
						c-74,21.7-141,62.8-193.8,118.8C1650,724.6,1609.4,855.4,1629.9,986.6L1629.9,986.6z"/>
				</g>
				<g class="st3">
					<path class="st0" d="M2384.5,1218.1c-111.8,118.7-275.8,161-425.2,124.9c-8.2-2-16.3-4.2-24.4-6.6c-22.2-6.7-43.9-15.2-65-25.4
						c-17.5-8.5-34.6-18.2-51-29.2c-19.2-12.7-37.5-27-55-43c-5.7-5.4-11.3-10.7-16.7-16.2c-11.1-11.3-21.4-23.1-31-35.2
						c-47.2-59.7-76.6-128.9-87.8-200.5c-6.2-39.3-6.8-79.4-2-118.9c12.3,68.1,41.1,133.7,86.1,190.6c9.6,12.2,20,23.9,31,35.2
						c5.4,5.5,11,10.9,16.7,16.2c17.4,16,35.8,30.3,54.9,43c16.5,10.9,33.6,20.6,51,29.2c21.1,10.3,42.9,18.7,65,25.4
						c8.1,2.4,16.2,4.6,24.4,6.6c149.4,36.1,313.4-6.3,425.2-124.9c65.3-69.2,103-154,113.7-241.3
						C2518,977.2,2481.8,1115,2384.5,1218.1z"/>
				</g>
				<g>
					<path class="st0" d="M2063.9,1367.1c-35.7,0-71.7-4.2-107.3-12.8c-8.4-2-16.8-4.3-25-6.8c-23-7-45.4-15.8-66.7-26.1
						c-18.2-8.9-35.8-18.9-52.4-29.9c-19.8-13.1-38.7-27.9-56.4-44.1c-6.5-6-12.1-11.4-17.2-16.7c-11.1-11.3-21.8-23.5-31.8-36.1
						c-47.3-59.7-78.4-130.9-90.1-205.9h0c-21.1-135.3,20.7-270.1,114.8-369.9c54.4-57.7,123.4-100,199.6-122.4
						c14.4-4.3,29.5-7.9,45-10.8c9.9-1.9,20.2-3.4,30.4-4.6c32-3.8,64.5-4.2,96.6-1.1c32.4,3,64.5,9.5,95.3,19.3
						c13.4,4.3,26.9,9.2,39.9,14.8c5.1,2.1,10.1,4.3,14.7,6.5c41.9,19.4,80.7,45.4,115.3,77.1c88.7,81.4,139.9,191.9,144.2,311.1
						c4.3,118.3-38.3,231.1-119.8,317.5C2307.2,1317.1,2187.3,1367.1,2063.9,1367.1z M1639.9,985.1c11.1,71,40.6,138.5,85.4,195.1
						c9.5,12,19.7,23.5,30.2,34.3c4.9,5,10.2,10.2,16.3,15.9c16.7,15.3,34.7,29.4,53.4,41.8c15.7,10.5,32.4,20,49.7,28.4
						c20.2,9.8,41.5,18.2,63.3,24.8c7.8,2.3,15.8,4.5,23.7,6.4c150.4,36.3,309.1-10.3,414-121.6c77.2-81.9,117.5-188.7,113.5-300.7
						c-4.1-112.9-52.6-217.6-136.7-294.8c-32.8-30.1-69.7-54.7-109.5-73.2c-4.3-2.1-9-4.1-13.8-6.1c-12.5-5.3-25.2-10-37.9-14
						c-29.3-9.3-59.7-15.4-90.5-18.3c-30.5-2.9-61.3-2.5-91.7,1.1c-9.7,1.1-19.5,2.6-28.9,4.4c-14.6,2.8-29,6.2-42.7,10.3
						c-72.3,21.2-137.7,61.4-189.3,116C1659.6,729.2,1619.9,856.9,1639.9,985.1L1639.9,985.1z"/>
				</g>
				<g>
					<path class="st0" d="M2063.9,1370.5c-36,0-72.3-4.2-108.1-12.9c-8.4-2.1-16.9-4.3-25.2-6.8c-23.2-7-45.8-15.9-67.3-26.3
						c-18.3-8.9-36.1-19.1-52.8-30.2c-19.9-13.2-39-28.1-56.8-44.4c-6.5-6.1-12.2-11.5-17.3-16.8c-11.2-11.4-22-23.7-32.1-36.4
						c-47.6-60.2-79-131.9-90.8-207.5l0,0c-21.3-136.3,20.9-272.2,115.7-372.7c54.8-58.1,124.4-100.8,201.2-123.3
						c14.5-4.3,29.8-8,45.3-10.9c10-1.9,20.3-3.4,30.7-4.7c32.2-3.8,65-4.2,97.3-1.1c32.6,3,64.9,9.6,96,19.4
						c13.5,4.3,27.1,9.3,40.2,14.9c5.2,2.1,10.2,4.4,14.8,6.6c42.2,19.6,81.3,45.7,116.2,77.7c89.4,82,141,193.4,145.3,313.5
						c4.3,119.2-38.6,232.8-120.8,319.9C2309,1320.1,2188.2,1370.5,2063.9,1370.5z M1643.3,984.5c11,70.5,40.3,137.4,84.7,193.5
						c9.4,11.9,19.5,23.3,30,34c4.8,5,10.1,10.1,16.2,15.8c16.5,15.2,34.4,29.1,53,41.5c15.6,10.4,32.2,19.9,49.3,28.2
						c20,9.8,41.2,18,62.8,24.6c7.7,2.3,15.7,4.5,23.6,6.4c149.2,36,306.6-10.2,410.7-120.6c76.6-81.2,116.6-187.1,112.6-298.2
						c-4-112-52.2-215.9-135.6-292.4c-32.6-29.9-69.1-54.3-108.6-72.6c-4.3-2.1-8.9-4.1-13.7-6.1c-12.4-5.3-25-9.9-37.7-13.9
						c-29-9.2-59.2-15.3-89.8-18.1c-30.2-2.9-60.8-2.5-91,1.1c-9.7,1.1-19.3,2.6-28.6,4.3c-14.5,2.7-28.8,6.2-42.3,10.2
						c-71.7,21.1-136.6,60.9-187.8,115.1C1662.7,730.8,1623.4,857.4,1643.3,984.5L1643.3,984.5z"/>
				</g>
				<g>
					<path class="st0" d="M1659.7,1093.6c181.7,253.2,554.4,252,676.2-29.5c82.9-191.5-43.6-420.2-235.5-487.8
						c-139.7-49.2-297.6-37-433.3,155.6c0,0-46.7,94.5-43.4,169.7s19.4,147.8,19.4,147.8L1659.7,1093.6z"/>
				</g>
				<g>
					<path class="st31" d="M2335.9,1064.1c-121.9,281.5-494.5,282.6-676.2,29.5l-3.4-9c249.5,142,572.2,79.7,700.8-202.6
						C2367.2,942.4,2361.5,1005,2335.9,1064.1z"/>
				</g>
				<g>
					<path class="st0" d="M2011,1339.2c-66.7,0-134.7-14.7-198.4-43.7l-2.1-1.1c-19.9-13.2-39-28.1-56.8-44.4
						c-6.5-6.1-12.2-11.5-17.3-16.8c-11.2-11.4-22-23.7-32.1-36.4c-47.6-60.2-79-131.9-90.8-207.5l0,0
						c-21.3-136.3,20.9-272.2,115.7-372.7c54.8-58.1,124.4-100.8,201.2-123.3l1.5-0.4l1.5-0.1c58.3-4.7,120.6,4.4,185.2,27.2
						c116.4,41,216.4,135.4,267.6,252.7c46.2,105.7,48.3,217.9,5.9,315.8c-46.1,106.5-124.9,183.6-227.8,223.2
						C2116,1330,2063.9,1339.2,2011,1339.2z M1826.2,1268.6c106.6,48.3,225.9,53.7,327.4,14.7c95.2-36.6,168.2-108.2,211-207.1
						c39-90.2,37-193.8-5.8-291.8c-47.9-109.8-141.4-198.1-250.1-236.4c-60-21.1-117.7-29.8-171.3-25.7
						c-71.1,21.2-135.5,60.8-186.3,114.7c-88.4,93.7-127.7,220.4-107.9,347.5l0,0c11,70.5,40.3,137.4,84.7,193.5
						c9.4,11.9,19.5,23.3,30,34c4.8,5,10.1,10.1,16.2,15.8C1790.4,1242.7,1808,1256.5,1826.2,1268.6z"/>
				</g>
				<g>
					<path class="st2" d="M2525.8,1111.7c-24.1,81.9-93.5,136.4-154.9,121.5s-91.7-93.2-67.5-175.2c0.1-0.5,0.3-1.1,0.5-1.6
						c24.5-81.1,93.4-134.7,154.4-120c47.4,11.4,76.3,60.9,75.8,120.5C2534,1074.6,2531.3,1093.1,2525.8,1111.7z"/>
				</g>
				<g>
					<path class="st32" d="M2525.8,1111.7c-24.1,81.9-93.5,136.4-154.9,121.5s-91.7-93.2-67.5-175.2c0.1-0.5,0.3-1.1,0.5-1.6
						c4.3,10,12.3,20.9,27.4,21.5c26.4,1.1,86.6-40.8,86.6-40.8s50.4,8.3,116.2,19.8C2534,1074.6,2531.3,1093.1,2525.8,1111.7z"/>
				</g>
				<g>
					<path class="st0" d="M2391.1,1250.6c-8,0-15.9-0.9-23.8-2.8c-28.1-6.8-51.3-24.8-67-52c-22.4-38.8-26.6-90.5-11.4-142
						c26.3-89.4,103.9-148.5,172.8-131.9c28.1,6.8,51.3,24.8,67,52c22.4,38.8,26.6,90.5,11.4,142l0,0
						C2516.9,1195.1,2453.3,1250.6,2391.1,1250.6z M2437.4,949.1c-48.9,0-100.1,46.9-119.6,113.2c-12.7,43-9.4,87.3,8.6,118.5
						c11.5,20,28.1,33.1,48,37.9c53.7,12.9,115.1-36.9,137-111.2l0,0c12.7-43,9.4-87.3-8.6-118.5c-11.5-20-28.1-33.1-48-37.9
						C2449,949.7,2443.2,949.1,2437.4,949.1z"/>
				</g>
				<g>
					
						<ellipse transform="matrix(0.3731 -0.9278 0.9278 0.3731 506.0384 2964.041)" class="st2" cx="2446.4" cy="1107.6" rx="123" ry="92.9"/>
					<path class="st0" d="M2427.2,1228.3c-19.2,0-36.6-7-50.8-20.4c-38.8-36.9-39.1-112-0.8-167.3c21.4-30.9,51-50.3,81.3-53.4
						c22.6-2.3,43,4.6,59.2,20c38.8,36.9,39.1,112,0.8,167.3c-21.4,30.9-51,50.3-81.3,53.4C2432.8,1228.2,2430,1228.3,2427.2,1228.3
						z M2465.3,989.8c-2.7,0-5.3,0.1-8.1,0.4c-29.4,3-58.2,22-79.1,52.1c-37.5,54.1-37.3,127.4,0.4,163.3
						c15.5,14.7,35.1,21.4,56.7,19.1c29.4-3,58.2-22,79.1-52.1c37.5-54.1,37.3-127.4-0.4-163.3
						C2500.4,996.5,2483.7,989.8,2465.3,989.8z"/>
				</g>
				<g class="st3">
					<path class="st0" d="M2347.2,1132.9c0.8-23.3,8.2-46.4,19.9-66.6c2.6,53.2,41.4,85.9,90.6,74c31.8-7.7,60.5-32.2,78.7-63.6
						c0.2,3.4,0.2,6.8,0.1,10.4c-2.2,59.2-46.3,117.5-98.6,130.2C2385.6,1230,2345,1192.2,2347.2,1132.9z"/>
				</g>
				<g>
					<path class="st0" d="M2425.9,1242.1c-5.9,0-11.9-0.7-17.7-2c-21.2-4.9-38.8-18.5-50.8-39.2c-18.2-31.4-21.3-76.3-8.2-120.1
						c22.5-75.3,83.1-124.3,138-111.5c21.2,4.9,38.8,18.5,50.8,39.2c18.2,31.4,21.3,76.3,8.2,120.1l0,0
						C2526.1,1195.8,2475.6,1242.1,2425.9,1242.1z M2469.7,997.2c-35.9,0-76.1,39.2-91.9,92.1c-10.7,36-8.7,72,5.4,96.4
						c5.4,9.3,15.3,21.3,31.6,25.1c38.1,8.9,85.1-32.7,102.4-90.9v0c10.8-36,8.7-72-5.4-96.4c-5.4-9.3-15.3-21.3-31.6-25.1
						C2476.9,997.6,2473.3,997.2,2469.7,997.2z"/>
				</g>
				<g class="st12">
					<path class="st2" d="M2172.3,695.2c0,0-185.5-52.5-322.1,15.2c-0.1,0.1-0.3,0.1-0.4,0.2c-28.7,14.3-53,36-70.4,62.7
						c-23,35.3-33.6,62.9-42,87.6c-25.5,75.2-23.1,115.1-23.1,115.1c-29.9-54.2-39.1-107.4-18.5-170.2c2-6.2,4.4-12.5,7-18.9
						c0.6-1.5,1.2-2.9,1.9-4.4c0,0,0-0.1,0.1-0.1c6.2-12.6,15-28.8,26.5-46.3c34.6-52.7,93.4-116.9,178.8-127.3
						C2069.6,589.4,2181.2,689.5,2172.3,695.2z"/>
				</g>
				<g class="st12">
					
						<ellipse transform="matrix(5.319914e-02 -0.9986 0.9986 5.319914e-02 1180.8071 3097.759)" class="st2" cx="2224" cy="926.2" rx="67.4" ry="58.7"/>
				</g>
				<g class="st12">
					
						<ellipse transform="matrix(0.9992 -3.980030e-02 3.980030e-02 0.9992 -39.978 89.0402)" class="st2" cx="2216.3" cy="1048.6" rx="24.2" ry="27.9"/>
				</g>
			</g>
		</g>
		<g>
			<g>
				<path class="st2" d="M1440.5,849.8c17.4-28.4,26-62.6,22.3-98.3c-8.9-86.7-86.4-149.8-173.1-140.9
					c-86.7,8.9-149.8,86.4-140.8,173.1c8.9,86.7,86.4,149.8,173.1,140.8c24.1-2.5,46.4-10.3,65.8-22.1l73,16.4L1440.5,849.8z"/>
			</g>
			<g class="st12">
				<g>
					<path class="st2" d="M1292.8,640.8c81-8.3,153.9,46.2,170.4,124c0-5.6-0.2-11.2-0.8-16.8c-8.9-86.7-86.4-149.8-173.1-140.9
						c-86.7,8.9-149.8,86.4-140.8,173.1c0.6,5.7,1.5,11.3,2.6,16.7C1151.4,717.4,1211.8,649.1,1292.8,640.8z"/>
				</g>
			</g>
			<g>
				<path class="st0" d="M1305.5,940.4c-39.6,0-77.6-13.5-108.8-38.8c-35.8-29.1-58.1-70.5-62.8-116.4
					c-4.7-45.9,8.7-90.9,37.9-126.7c29.1-35.8,70.5-58.1,116.4-62.8c94.8-9.7,179.8,59.5,189.6,154.3c3.7,35.7-3.6,70.7-21,101.8
					l18.4,62.9c1.5,5.1,0.2,10.6-3.5,14.5c-3.6,3.9-9.1,5.5-14.2,4.4l-67.3-15.1c-20.6,11.6-43,18.6-66.7,21.1
					C1317.4,940.1,1311.4,940.4,1305.5,940.4z M1305.9,624.8c-4.9,0-9.8,0.2-14.7,0.8c-37.9,3.9-72.1,22.3-96.2,51.9
					c-24.1,29.6-35.2,66.8-31.3,104.7c3.9,37.9,22.3,72.1,51.9,96.2c29.6,24.1,66.8,35.2,104.7,31.3c21.3-2.2,41.3-8.9,59.5-20
					c3.3-2,7.3-2.7,11.1-1.8l48.1,10.8L1426,854c-1.2-4.1-0.6-8.4,1.6-12.1c16.4-26.8,23.4-57.6,20.2-88.9
					C1440.3,679.6,1378.1,624.8,1305.9,624.8z"/>
			</g>
			<g class="st3">
				<path class="st0" d="M1441.4,848.3c-43.2,36.6-102.8,52.6-161.9,37.8c-65.6-16.3-113.9-66.3-131.3-126.9
					c-0.4,8-0.2,16.2,0.6,24.5c8.9,86.7,86.4,149.8,173.1,140.8c24.1-2.5,46.4-10.3,65.8-22.1l73,16.4l-20.3-69.1
					C1440.8,849.3,1441.1,848.8,1441.4,848.3z"/>
			</g>
			<g>
				<path class="st33" d="M1356.2,723.3L1356.2,723.3c-13.7-13.7-35.8-11.2-49.5,2.4l-2.1,2.1l-2.1-2.1
					c-13.7-13.7-35.8-16.1-49.5-2.4l0,0c-13.7,13.7-13.7,35.8,0,49.5l2.1,2.1l42.9,42.9c3.6,3.6,9.4,3.6,13,0l42.9-42.9l2.1-2.1
					C1369.9,759.1,1369.9,736.9,1356.2,723.3z"/>
			</g>
		</g>
	</g>
</g>
</svg>
