<svg width="298" height="179" viewBox="0 0 298 179" fill="none" xmlns="http://www.w3.org/2000/svg">
<path d="M102.513 145.86C101.727 147.647 100.822 149.402 99.8029 151.111C97.4635 155.039 94.514 158.729 90.9489 162.053C70.3913 181.23 37.2952 181.012 17.0219 161.568C0.879837 146.084 -2.26183 123.078 7.50535 104.666C10.0058 99.953 13.3479 95.5432 17.535 91.6352C24.074 85.5372 31.8792 81.3999 40.137 79.2223C41.4648 78.8685 42.8073 78.5672 44.1563 78.3184C51.4215 76.9724 58.9239 77.0957 66.1407 78.6879C66.2039 78.7028 66.2678 78.7151 66.3311 78.7301C66.7725 78.8284 67.2126 78.9318 67.6529 79.0432C68.5264 79.2613 69.3931 79.5017 70.2538 79.7617C76.1001 81.5354 81.6795 84.3071 86.6881 88.0727C88.3444 89.3127 89.9407 90.6644 91.4615 92.1234C91.7878 92.4384 92.1115 92.7528 92.4269 93.0755C92.6189 93.2677 92.8067 93.4641 92.9919 93.6599C106.932 108.196 110.079 128.65 102.513 145.86Z" fill="#FFD243"/>
<path d="M5.7873 108.271C5.56776 108.783 5.35723 109.301 5.15552 109.817C5.3344 109.296 5.54412 108.78 5.7873 108.271Z" fill="#FCAC38"/>
<path d="M100.247 145.313C99.6736 146.495 99.0467 147.659 98.364 148.804C96.1291 152.559 93.3073 156.086 89.8988 159.265C70.2395 177.602 38.5921 177.395 19.2067 158.801C8.06851 148.118 3.40044 133.688 5.1787 119.864C13.0531 146.064 76.0542 175.637 100.247 145.313Z" fill="#FCAC38"/>
<path d="M8.46055 107.831C8.25083 108.318 8.04991 108.81 7.86041 109.301C8.02948 108.806 8.22959 108.316 8.46055 107.831Z" fill="#FCAC38"/>
<path d="M100.247 145.313C99.6736 146.495 99.0467 147.659 98.364 148.804C96.1291 152.559 93.3073 156.086 89.8988 159.265C70.2395 177.602 38.5921 177.395 19.2067 158.801C8.06851 148.118 3.40044 133.688 5.1787 119.864C13.0531 146.064 76.0542 175.637 100.247 145.313Z" fill="#FCAC38"/>
<path d="M83.1459 140.509C79.9846 145.911 80.4096 151.112 84.0953 152.124C87.7809 153.137 93.6182 149.819 96.7795 144.416C99.9408 139.014 99.2292 133.573 95.5436 132.561C91.858 131.548 86.3074 135.107 83.1459 140.509Z" fill="#FCAC38"/>
<path d="M81.5768 135.889C77.4773 140.329 75.5415 149.366 80.9531 153.491C81.2709 153.667 81.032 154.159 80.6848 154.049C72.936 151.096 74.6017 138.811 81.0673 135.3C81.4527 135.073 81.8881 135.58 81.5768 135.889Z" fill="#371A45"/>
<path d="M45.3071 93.2474C45.8438 90.9886 44.0096 88.6749 41.2103 88.0797C38.411 87.4844 35.7065 88.833 35.1698 91.0918C34.6331 93.3505 36.4672 95.6642 39.2666 96.2594C42.0659 96.8547 44.7703 95.5061 45.3071 93.2474Z" fill="#FCAC38"/>
<path d="M41.1618 96.8005C43.3126 96.6591 44.9584 95.2137 44.8378 93.572C44.7173 91.9304 42.876 90.7141 40.7252 90.8554C38.5745 90.9968 36.9287 92.4422 37.0492 94.0839C37.1698 95.7255 39.0111 96.9418 41.1618 96.8005Z" fill="#FFD243"/>
<path d="M39.0006 96.7794C34.9455 96.4631 32.1799 91.8039 35.1005 88.6563C37.7767 85.7798 43.0084 86.2644 45.308 89.2811C46.9208 91.1384 46.6347 94.3336 44.4366 95.611C44.1293 95.8095 43.7665 95.4067 44.0094 95.1501C46.9496 91.8579 42.6552 87.9928 38.9283 88.8568C34.385 89.8254 35.2338 94.63 39.195 96.0412C39.629 96.1908 39.45 96.8392 39.0006 96.7794Z" fill="#371A45"/>
<path d="M47.7366 91.0483C48.8508 93.0729 48.3186 95.7588 46.6397 97.4139C43.2321 100.89 36.8867 100.391 33.7126 96.927C32.1327 95.2906 31.3894 92.7702 32.2923 90.6932C32.3602 90.535 32.5508 90.4587 32.7181 90.5225C32.8581 90.5765 32.9376 90.7116 32.92 90.8466C32.5007 94.7454 36.3579 97.6114 40.1475 97.7304C43.944 98.0173 47.8015 95.2158 46.9742 91.2903C46.8737 90.8652 47.5476 90.6587 47.7366 91.0483Z" fill="#371A45"/>
<path d="M23.4413 99.168C33.7977 103.563 30.1885 117.208 20.8438 120.689C17.9303 121.885 14.5288 122.069 11.6298 120.994C11.4624 120.932 11.3801 120.754 11.4456 120.595C11.5034 120.455 11.6624 120.379 11.813 120.406C14.6866 120.913 17.6008 120.367 20.0858 119.155C27.6943 115.678 31.02 104.736 23.0763 99.8462C22.6643 99.6186 23.0054 98.9902 23.4413 99.168Z" fill="#371A45"/>
<path d="M23.3304 112.901C25.5432 108.683 24.3409 103.856 20.6449 102.122C16.9489 100.387 12.1589 102.4 9.94608 106.619C7.73328 110.837 8.93564 115.663 12.6316 117.398C16.3276 119.133 21.1176 117.12 23.3304 112.901Z" fill="#FCAC38"/>
<path d="M14.2123 116.671C16.7538 117.407 19.8558 116.484 22.0431 114.094C24.9539 110.911 25.1405 106.329 22.4605 103.859C22.0825 103.51 21.6667 103.222 21.2228 102.995C19.127 103.198 16.9792 104.248 15.3097 106.071C12.3532 109.304 11.9455 113.848 14.2123 116.671Z" fill="#FFD243"/>
<path d="M10.5491 104.791C16.196 98.0952 27.3222 102.373 24.642 111.126C22.4249 118.435 10.3433 120.762 8.30618 112.306C8.24431 111.944 8.81612 111.818 8.93564 112.16C9.92547 115.077 13.1963 116.608 16.2453 115.968C20.5992 115.179 24.0924 110.575 22.4944 106.517C20.6961 102.176 14.5313 102.283 11.1363 105.311C10.7862 105.63 10.242 105.139 10.5491 104.791Z" fill="#371A45"/>
<path d="M76.8872 124.058C76.4994 130.068 71.1929 135.533 64.8401 136.644C56.2455 138.397 47.1995 132.869 44.853 124.998C44.2744 123.094 44.0538 121.102 44.2664 119.17C44.2914 118.944 44.5047 118.781 44.7431 118.804C44.9539 118.825 45.1137 118.986 45.1307 119.178C45.5019 122.785 47.0483 126.198 49.5515 128.888C57.5621 137.577 72.3655 135.371 75.8311 123.879C75.9823 123.3 76.9579 123.468 76.8872 124.058Z" fill="#371A45"/>
<path d="M72.1518 120.457C72.2143 114.983 67.1196 110.492 60.7725 110.427C54.4254 110.363 49.2294 114.748 49.1669 120.222C49.1044 125.696 54.1991 130.186 60.5461 130.251C66.8932 130.316 72.0892 125.931 72.1518 120.457Z" fill="#FCAC38"/>
<path d="M50.82 120.459C50.7476 123.971 53.0329 127.429 56.9126 129.078C62.0792 131.271 68.1187 129.422 70.404 124.95C70.7274 124.319 70.9576 123.668 71.099 123.01C70.1035 120.482 67.9849 118.274 65.0246 117.015C59.777 114.788 53.7104 116.343 50.82 120.459Z" fill="#FFD243"/>
<path d="M65.0382 110.511C70.8741 112.612 74.0178 119.77 71.1414 125.151C68.3829 131.043 59.9337 132.595 54.6418 128.856C48.2313 124.857 47.3718 114.858 54.4153 111.112C54.8642 110.871 55.2998 111.489 54.9008 111.788C47.7458 117.38 52.8333 128.553 61.7378 128.179C71.3119 127.508 72.2187 115.758 64.5569 111.419C64.0015 111.115 64.4558 110.274 65.0382 110.511Z" fill="#371A45"/>
<path d="M24.0056 139.112C21.281 139.633 18.9067 140.837 17.1983 142.741C14.1023 146.191 14.0663 150.942 16.284 155.749C17.7389 158.902 20.2355 161.989 23.6396 164.541C32.2326 170.983 43.355 171.573 48.4821 165.86C50.3899 163.734 51.199 161.035 51.02 158.151C50.7179 153.286 45.3853 150.366 39.9899 146.322" fill="#FFD243"/>
<path d="M17.6072 143.066C15.0534 146.431 15.4215 150.717 17.0458 154.366C20.3663 161.678 28.0491 167.237 36.3399 168.528C40.5031 169.137 45.024 168.474 48.1527 165.592C48.5038 165.237 49.1201 165.735 48.8115 166.121C47.4573 167.943 45.3812 169.286 43.127 170.032C31.6226 173.403 18.5786 165.57 14.6988 155.204C13.0819 151.048 13.2307 145.64 16.7896 142.41C17.2428 141.983 17.9794 142.579 17.6072 143.066Z" fill="#371A45"/>
<path d="M45.79 161.592C48.9218 156.692 45.6826 149.415 38.555 145.339C31.4275 141.262 23.1106 141.93 19.9788 146.831C16.8471 151.731 20.0862 159.008 27.2138 163.084C34.3413 167.16 42.6582 166.492 45.79 161.592Z" fill="#FCAC38"/>
<path d="M44.1439 162.572C46.1298 158.803 42.6173 153.333 36.2986 150.353C29.9798 147.374 23.2476 148.014 21.2618 151.783C19.2759 155.552 22.7884 161.023 29.1071 164.002C35.4258 166.981 42.158 166.341 44.1439 162.572Z" fill="#FFD243"/>
<path d="M39.4783 165.333C48.8946 162.759 45.9613 152.521 39.8748 147.99C34.8809 143.544 23.6452 140.836 20.6255 148.499C19.1273 153.287 22.399 158.518 26.125 161.744C26.5289 162.068 26.0077 162.679 25.5883 162.385C12.6388 153.941 17.0315 137.386 33.9642 141.746C39.7048 143.502 44.7334 147.559 46.9237 152.926C48.6965 156.957 48.0237 162.342 43.901 164.856C43.2333 165.365 39.2756 167.104 39.0886 165.888C39.0547 165.635 39.2273 165.401 39.4783 165.333Z" fill="#371A45"/>
<path d="M81.4253 106.103C83.5257 105.495 85.2951 104.376 86.4842 102.754C88.6388 99.8161 88.2813 96.077 86.147 92.4581C84.7468 90.0839 82.5327 87.8372 79.6482 86.0775C72.3673 81.636 63.5723 81.9801 60.004 86.8459C58.6762 88.6565 58.2592 90.8381 58.6342 93.0928C59.2668 96.8972 62.2683 100.734 66.8401 103.522" fill="#FFD243"/>
<path d="M86.1538 102.537C87.922 99.7096 87.2771 96.3396 85.7051 93.5773C82.5 88.0441 75.984 84.2194 69.337 83.8173C66.0052 83.6476 62.4805 84.5001 60.2704 87.0207C60.1553 87.1515 59.95 87.1691 59.8119 87.0599C59.6898 86.9637 59.6629 86.7977 59.7376 86.671C60.6582 85.1438 62.1924 83.9662 63.8903 83.2065C74.2201 79.1077 88.298 87.2775 88.666 97.9807C88.6309 99.7833 88.0181 101.612 86.8148 102.971C86.5095 103.322 85.9121 102.927 86.1538 102.537Z" fill="#371A45"/>
<path d="M83.9677 99.7306C86.0325 95.6495 82.8942 90.1625 76.9581 87.475C71.022 84.7875 64.536 85.9172 62.4712 89.9982C60.4064 94.0793 63.5447 99.5664 69.4808 102.254C75.4169 104.941 81.9029 103.812 83.9677 99.7306Z" fill="#FCAC38"/>
<path d="M82.5571 95.9298C83.8129 92.8216 80.6065 88.7745 75.3955 86.8905C70.1844 85.0066 64.942 85.9991 63.6862 89.1073C62.4304 92.2156 65.6368 96.2626 70.8478 98.1466C76.0589 100.031 81.3013 99.0381 82.5571 95.9298Z" fill="#FFD243"/>
<path d="M67.1207 86.5825C59.879 89.2808 63.0104 97.1759 68.1904 100.314C72.5053 103.472 81.6196 104.77 83.3681 98.4791C84.1413 94.5714 81.1734 90.7385 77.9294 88.4399C77.6006 88.2272 77.9444 87.7323 78.2807 87.9247C84.7785 91.0542 88.8574 100.5 80.5665 104.17C71.9411 107.611 58.8553 99.3162 61.6102 90.1465C62.4332 87.9535 64.5388 86.3293 66.8857 85.8547C67.365 85.745 67.5752 86.4238 67.1207 86.5825Z" fill="#371A45"/>
<path d="M92.9462 144.532C96.1663 140.195 96.8391 135.391 94.4491 133.803C92.059 132.216 87.5111 134.444 84.2911 138.782C81.071 143.119 80.3982 147.922 82.7882 149.51C85.1783 151.098 89.7262 148.869 92.9462 144.532Z" fill="#FFD243"/>
<path d="M98.5072 136.74C96.319 130.192 88.0285 134.717 85.2983 138.585C82.3778 141.862 79.3363 150.31 85.9013 151.274C89.7223 151.439 93.2916 148.813 95.7325 146.115C95.976 145.818 96.4773 146.165 96.2583 146.474C94.5727 148.988 92.1484 151.253 89.1383 152.368C85.793 153.783 81.4487 152.676 80.3297 149.093C77.9106 141.628 86.594 130.832 95.0054 132.05C96.1426 132.29 97.2347 132.861 97.9851 133.699C98.7501 134.532 99.1543 135.57 99.2951 136.584C99.3241 136.793 99.1683 136.985 98.9475 137.013C98.7477 137.037 98.5623 136.917 98.5072 136.74Z" fill="#371A45"/>
<g opacity="0.6">
<path d="M90.6205 103.391C89.0917 109.196 97.5465 116.647 96.7747 132.624C96.4473 139.401 104.138 133.691 102.449 120.343C100.884 107.972 91.698 99.299 90.6205 103.391Z" fill="white"/>
</g>
<g opacity="0.6">
<path d="M78.1564 91.5168C79.0436 93.5905 83.2532 95.3914 86.39 98.9317C89.7437 102.717 93.4204 101.289 88.8654 93.967C84.0099 86.1616 76.4843 87.6076 78.1564 91.5168Z" fill="white"/>
</g>
<path d="M54.2457 178.117C40.2321 178.117 26.2263 173.026 15.6323 162.865C-0.693334 147.206 -4.65987 123.486 5.76159 103.84C8.41676 98.8358 11.9164 94.2878 16.1644 90.3233C22.7113 84.2181 30.8193 79.7657 39.6127 77.4464C40.9755 77.0834 42.3802 76.7677 43.7826 76.5088C51.2718 75.1217 59.1564 75.2535 66.5838 76.8925L66.7974 76.9396C67.2393 77.0381 67.6977 77.1459 68.1568 77.262C69.0327 77.4807 69.9395 77.7313 70.8472 78.0055C77.0597 79.8902 82.7967 82.7916 87.9016 86.6294C89.628 87.9218 91.2937 89.3356 92.8512 90.8297C93.1943 91.1612 93.5307 91.4882 93.8586 91.8238C94.0492 92.0144 94.2482 92.2223 94.4452 92.4301C108.467 107.051 112.344 128.306 104.314 146.571C103.503 148.416 102.557 150.25 101.502 152.019C99.0256 156.179 95.9356 159.997 92.3184 163.369C81.771 173.208 68.0049 178.117 54.2457 178.117ZM54.2345 79.2476C50.9757 79.2476 47.7151 79.5417 44.531 80.1316C43.2312 80.3712 41.9311 80.6638 40.6656 81.0009C32.5033 83.1533 24.9802 87.2857 18.9041 92.9517C14.961 96.6317 11.7126 100.852 9.24843 105.496C-0.42285 123.727 3.25918 145.741 18.4104 160.273C37.8955 178.962 69.8214 179.172 89.5783 160.741C92.9368 157.61 95.8046 154.066 98.1024 150.207C99.0815 148.565 99.9588 146.864 100.711 145.154L100.711 145.153C108.163 128.202 104.566 108.477 91.5466 94.9018C91.3648 94.7099 91.1882 94.5249 91.0084 94.3446C90.6913 94.0209 90.3804 93.7191 90.0671 93.4166C88.6266 92.0341 87.0811 90.7223 85.4769 89.5216C80.7389 85.9594 75.4176 83.2683 69.6576 81.521C68.8153 81.2666 67.9722 81.0337 67.1546 80.8293C66.7269 80.7212 66.3055 80.6227 65.8833 80.5284L65.6706 80.4812C61.9482 79.6601 58.0925 79.2476 54.2345 79.2476Z" fill="#371A45"/>
<path d="M264.595 44.967C264.925 47.0384 265.114 49.1005 265.167 51.1425C255.064 55.2343 236.186 59.6961 214.299 62.8074C192.414 65.9185 172.982 66.9028 162.053 65.8007C161.47 63.8339 161.01 61.8103 160.681 59.7389C160.665 59.6414 160.65 59.5459 160.636 59.4482C160.495 58.5342 160.384 57.6238 160.3 56.7155C160.098 54.5888 160.044 52.4785 160.128 50.3933C160.131 50.3088 160.134 50.2243 160.139 50.1395C160.281 47.0435 160.728 44.0061 161.458 41.0554C162.844 35.4417 165.248 30.1484 168.501 25.3871C176.4 13.8277 189.308 5.40964 204.83 3.20325C220.225 1.01484 235.062 5.38123 246.173 14.0919C250.736 17.6658 254.669 21.9743 257.757 26.86C259.409 29.4721 260.817 32.2519 261.951 35.1723C262.044 35.4074 262.133 35.6428 262.22 35.8805C262.948 37.8501 263.552 39.8825 264.02 41.9713C264.195 42.7457 264.35 43.5286 264.486 44.3182C264.525 44.5335 264.561 44.7491 264.595 44.967Z" fill="#FFB200"/>
<path d="M261.698 70.1572C260.926 72.057 260.034 73.9053 259.025 75.692C257.612 78.2044 255.972 80.5949 254.13 82.8381C246.143 92.5693 234.342 99.5228 220.446 101.498C206.52 103.478 193.049 100.093 182.38 92.9829C180.037 91.4205 177.829 89.6788 175.783 87.7753C174.177 86.284 172.672 84.6924 171.275 83.0112C184.558 83.378 200.312 82.4534 217.042 80.0752C233.77 77.6972 249.116 74.2007 261.698 70.1572Z" fill="#FF9100"/>
<path d="M265.167 51.1398C255.065 55.2314 236.185 59.6946 214.299 62.8053C192.414 65.9162 172.98 66.9001 162.051 65.7992C161.471 63.8309 161.011 61.8078 160.679 59.7364C160.664 59.6383 160.65 59.5444 160.635 59.4463C160.496 58.5312 160.382 57.6219 160.3 56.7141C160.098 54.5886 160.044 52.4777 160.126 50.3908C160.13 50.3063 160.133 50.2218 160.14 50.1385C160.283 47.0416 160.729 44.004 161.457 41.0534C162.845 35.4412 165.249 30.1472 168.502 25.3839C174.892 16.0354 184.551 8.74345 196.227 5.12988C180.383 13.1062 159.985 45.981 194.267 58.624C214.942 66.2486 257.858 52.0434 265.054 49.5961C265.219 51.0057 265.129 49.7438 265.167 51.1398Z" fill="#FF9100"/>
<path d="M217.042 80.0752C233.77 77.6972 249.116 74.2007 261.698 70.1572C260.926 72.057 260.034 73.9053 259.025 75.692C249.255 79.0934 234.251 82.5062 217.245 84.9238C200.955 87.2395 186.138 88.1715 175.784 87.7753C174.177 86.284 172.673 84.6924 171.276 83.0112C184.558 83.378 200.313 82.4536 217.042 80.0752Z" fill="#D66B09"/>
<path d="M264.486 44.3164C264.525 44.5317 264.561 44.7475 264.596 44.9653C264.925 47.0366 265.114 49.0987 265.168 51.1407C255.064 55.2325 236.186 59.6943 214.299 62.8056C192.414 65.9168 172.982 66.901 162.053 65.799C161.47 63.8321 161.01 61.8085 160.681 59.7371C160.665 59.6396 160.65 59.5442 160.637 59.4464C170.831 61.0574 190.525 60.3445 212.836 57.173C236.028 53.8761 255.694 48.8254 264.486 44.3164Z" fill="#D66B09"/>
<path d="M160.889 42.6436L162.027 39.4713C168.816 41.6523 188.458 41.057 209.793 38.0241C235.246 34.4058 252.588 29.0467 256.565 25.623L258.949 28.101C253.687 32.6311 234.145 37.9505 210.32 41.3373C188.137 44.4907 168.272 45.0161 160.889 42.6436Z" fill="#D66B09"/>
<path d="M168.275 27.0448L168.728 23.722C176.803 24.706 191.545 23.935 207.202 21.7091C223.608 19.377 238.244 15.8797 245.397 12.582L246.949 15.5941C239.494 19.0306 224.466 22.6434 207.729 25.0223C191.77 27.2908 176.652 28.0658 168.275 27.0448Z" fill="#D66B09"/>
<path d="M159.649 51.7486L160.629 48.5292C168.526 50.6804 188.845 49.9918 211.19 46.8154C234.629 43.4832 255.054 38.1528 260.859 33.8525L263.043 36.4904C256.706 41.1842 236.079 46.6654 211.717 50.1286C188.558 53.4207 168.12 54.0565 159.649 51.7486Z" fill="#D66B09"/>
<path d="M182.201 93.8048L182.38 92.9868L182.196 92.165L182.377 92.1292L182.56 92.1639C189.537 93.5275 203.766 93.0266 218.809 90.8882C233.936 88.7378 247.309 85.3714 253.71 82.1025L254.551 83.5766C247.983 86.9311 234.388 90.3675 219.073 92.545C203.605 94.7438 189.477 95.2263 182.201 93.8048Z" fill="#D66B09"/>
<path d="M212.674 104.134C196.014 104.134 180.008 96.9104 169.543 84.3004L166.638 80.8006L171.339 80.9306C184.97 81.3078 200.66 80.2995 216.715 78.0166C232.77 75.7343 248.08 72.3349 260.99 68.1859L265.443 66.7549L263.755 70.9075C256.69 88.2846 240.22 100.797 220.773 103.561C218.071 103.945 215.363 104.134 212.674 104.134ZM176.163 85.1739C187.409 96.3333 203.834 101.755 220.118 99.4397C236.404 97.1246 250.418 87.3757 257.698 73.583C245.603 77.153 231.773 80.091 217.37 82.1383C202.967 84.1862 188.812 85.215 176.163 85.1739Z" fill="#371A45"/>
<path d="M295.18 47.7364C296.324 54.9366 282.949 63.3272 261.698 70.1566C249.116 74.2001 233.77 77.6968 217.042 80.0746C200.312 82.4528 184.558 83.3774 171.275 83.0105C148.841 82.3912 133.452 78.0894 132.308 70.8894C131.27 64.3503 142.201 56.8326 160.128 50.3899C160.044 52.4751 160.098 54.5855 160.3 56.7122C155.256 58.7852 152.488 60.7596 152.75 62.4124C153.018 64.0959 156.397 65.2256 162.053 65.7974C172.981 66.8993 192.414 65.915 214.299 62.8041C236.186 59.6928 255.064 55.2309 265.168 51.1392C270.394 49.0206 273.273 47.0012 273.005 45.3177C272.743 43.6668 269.483 42.5473 264.021 41.9677C263.553 39.879 262.949 37.8466 262.22 35.877C281.357 37.051 294.141 41.1973 295.18 47.7364Z" fill="#FFD766"/>
<path d="M160.224 55.8555C160.248 56.1422 160.272 56.4289 160.3 56.7176C155.255 58.7887 152.486 60.7601 152.749 62.4141C153.018 64.1015 156.4 65.2309 162.053 65.8C169.301 66.5316 180.297 66.3445 193.267 65.2265C192.788 66.1407 192.51 67.0498 192.446 67.9388C187.456 68.3141 182.661 68.541 178.154 68.6191C158.56 68.9579 149.195 66.3322 148.785 63.7481C148.543 62.2394 151.436 59.384 160.224 55.8555Z" fill="#FFAA39"/>
<path d="M159.588 53.1719L159.862 53.7986C155.379 55.4923 151.816 57.1286 149.046 58.667C151.307 56.8775 154.813 55.0544 159.588 53.1719Z" fill="#FF9100"/>
<path d="M160.139 54.4206L159.862 53.7989C159.94 53.7654 160.026 53.7357 160.112 53.7061L160.139 54.4206Z" fill="#FF9100"/>
<path d="M149.046 58.665C146.679 60.5228 145.666 62.3419 145.951 64.1515C146.233 65.9126 147.741 67.2668 150.084 68.3018C156.194 71.0015 167.967 71.5068 178.204 71.3282C182.838 71.2491 187.772 71.0103 192.904 70.625C193.472 71.929 194.542 73.1208 196.069 74.2021C188.473 74.8125 181.196 75.0998 174.475 75.0543C150.511 74.8911 141.354 70.6944 140.79 67.1511C140.477 65.1835 142.704 62.1801 149.046 58.665Z" fill="#FFAA39"/>
<path d="M216.013 80.2216C199.667 82.4959 184.286 83.3726 171.274 83.013C148.84 82.3948 133.45 78.0917 132.306 70.889C131.268 64.3533 142.202 56.837 160.128 50.3926C160.103 51.0123 160.094 51.6337 160.094 52.2588L159.569 50.9897C149.123 54.8601 136.892 60.8755 137.958 67.554C138.368 70.138 140.61 72.0819 143.912 73.5408C151.684 76.9697 165.299 77.7051 174.453 77.7674C182.486 77.8243 191.298 77.4072 200.477 76.5478C204.426 78.1568 209.7 79.3924 216.013 80.2216Z" fill="#FFAA39"/>
<path d="M192.904 70.6263C187.772 71.0117 182.838 71.2504 178.204 71.3295C167.967 71.5079 156.195 71.0026 150.084 68.3031C147.741 67.268 146.233 65.9139 145.951 64.1528C145.666 62.3431 146.679 60.5239 149.046 58.6663C151.816 57.1279 155.379 55.4916 159.863 53.7979L160.139 54.4204C160.162 54.8993 160.191 55.376 160.224 55.8548C151.436 59.3832 148.544 62.2386 148.785 63.7473C149.195 66.3313 158.56 68.957 178.154 68.6182C182.661 68.5402 187.457 68.3133 192.446 67.9379C192.409 68.3803 192.426 68.8152 192.494 69.2464C192.57 69.7178 192.706 70.1792 192.904 70.6263Z" fill="#FFCF6E"/>
<path d="M159.862 53.7995C155.379 55.4933 151.816 57.1296 149.046 58.668C151.307 56.8785 154.813 55.0554 159.588 53.1729L159.862 53.7995Z" fill="#FFEC90"/>
<path d="M160.139 54.4209L160.691 55.6682C160.534 55.729 160.377 55.7899 160.224 55.8529C160.191 55.3751 160.162 54.899 160.139 54.4209Z" fill="#FFEC90"/>
<path d="M251.449 60.9207C240.797 63.8138 228.248 66.3323 215.153 68.1929C207.539 69.2749 200.031 70.0961 192.904 70.6271C192.706 70.18 192.57 69.7186 192.494 69.2474C192.426 68.816 192.41 68.3814 192.446 67.9389C199.574 67.4187 207.097 66.5988 214.729 65.5146C227.701 63.6676 240.126 61.1775 250.653 58.313C269.487 53.1871 277.622 48.0717 277.214 45.4941C276.967 43.9517 273.193 41.9873 263.323 41.0876L263.532 39.0584L263.6 38.3848C268.772 38.8562 272.7 39.6274 275.422 40.7099C278.234 41.8324 279.758 43.2877 280.048 45.0888C281.061 51.4618 265.052 57.2157 251.449 60.9207Z" fill="#FFEC90"/>
<path d="M200.477 76.5454C191.298 77.4048 182.486 77.8218 174.453 77.765C165.299 77.7027 151.684 76.9673 143.911 73.5384C140.61 72.0797 138.368 70.1356 137.958 67.5516C136.892 60.8731 149.123 54.8577 159.568 50.9873L160.093 52.2564C160.091 52.7403 160.096 53.2217 160.112 53.7032C160.026 53.7327 159.939 53.7624 159.862 53.7962L159.588 53.1695C154.813 55.052 151.306 56.8753 149.045 58.6646C142.704 62.1797 140.477 65.1832 140.79 67.1506C141.354 70.6939 150.511 74.8906 174.474 75.0539C181.196 75.0995 188.473 74.812 196.069 74.2016C197.263 75.0528 198.739 75.8351 200.477 76.5454Z" fill="#FFCF6E"/>
<path d="M159.588 53.1719L159.862 53.7986C155.379 55.4923 151.816 57.1286 149.046 58.667C151.307 56.8775 154.813 55.0544 159.588 53.1719Z" fill="#FFAA39"/>
<path d="M160.094 52.2588L160.614 53.5132C160.444 53.5787 160.276 53.6397 160.112 53.7031C160.096 53.2225 160.092 52.7419 160.094 52.2588Z" fill="#FFEC90"/>
<path d="M257.031 66.0296C245.081 69.6 230.957 72.5956 216.185 74.695C210.88 75.4523 205.622 76.069 200.477 76.5476C198.739 75.8374 197.263 75.055 196.069 74.2041C202.458 73.6961 209.074 72.9607 215.763 72.0121C230.386 69.9354 244.357 66.971 256.17 63.4444C279.025 56.6239 286.473 50.064 285.913 46.5226C285.598 44.5595 282.549 42.3105 275.422 40.7096C272.287 40.0072 268.362 39.4303 263.532 39.0581C263.266 39.0396 262.995 39.0189 262.724 38.9983L262.94 36.2949C274.125 37.0875 287.685 39.4405 288.747 46.1171C290.126 54.7948 269.47 62.316 257.031 66.0296Z" fill="#FFEC90"/>
<path d="M177.032 85.1745C175.055 85.1745 173.115 85.1481 171.211 85.0955C156.629 84.6932 131.901 82.3531 130.13 71.201C128.527 61.112 147.746 52.612 159.345 48.4437L162.456 47.3257L162.329 50.4713C162.248 52.4823 162.304 54.5199 162.494 56.5284L162.635 58.0265L161.177 58.6257C156.879 60.3925 155.505 61.5956 155.089 62.0819C155.65 62.4383 157.398 63.2328 162.287 63.7271C173.367 64.8451 193.172 63.7018 213.971 60.7452C234.77 57.7888 254.054 53.3745 264.3 49.225C268.816 47.3949 270.241 46.1496 270.666 45.6521C270.116 45.3025 268.428 44.5345 263.775 44.0408L262.195 43.8733L261.865 42.4022C261.423 40.4291 260.843 38.4659 260.14 36.5669L259.042 33.5957L262.363 33.7991C274.744 34.5587 295.756 37.3396 297.358 47.4282C299.131 58.5799 276.22 67.6924 262.407 72.1317C249.253 76.3587 233.68 79.8187 217.37 82.1372C203.296 84.1383 189.479 85.1741 177.032 85.1745ZM157.901 53.4557C139.807 60.3821 133.884 66.7852 134.487 70.5814C135.174 74.9046 145.237 80.209 171.339 80.9295C184.971 81.3067 200.66 80.2984 216.715 78.0155C232.77 75.7332 248.08 72.3338 260.989 68.1848C285.717 60.2384 293.688 52.3711 293.001 48.0477C292.398 44.2516 284.747 39.7785 265.301 38.1884C265.489 38.8178 265.664 39.4507 265.827 40.0855C271.871 40.8997 274.776 42.441 275.184 45.0095C275.632 47.8286 272.81 50.3102 266.035 53.0567C255.308 57.4007 236.09 61.816 214.627 64.8667C193.161 67.9183 173.421 69.042 161.819 67.8718C154.488 67.1305 151.02 65.5428 150.572 62.7241C150.163 60.1552 152.461 57.8742 157.987 55.4154C157.946 54.7629 157.917 54.1095 157.901 53.4557Z" fill="#371A45"/>
<g opacity="0.41">
<path d="M265.131 51.309C263.955 51.7857 262.663 52.2656 261.257 52.7499C261.161 51.3658 261.004 49.9719 260.783 48.578C260.747 48.3604 260.71 48.1454 260.673 47.9306C260.539 47.1392 260.384 46.3564 260.208 45.5824C259.74 43.4938 259.135 41.4601 258.409 39.4906C258.322 39.2539 258.23 39.0191 258.139 38.7842C257.006 35.8636 255.597 33.0817 253.943 30.47C250.855 25.585 246.924 21.2762 242.36 17.7041C231.248 8.99312 216.411 4.62445 201.016 6.81399C190.74 8.27533 181.607 12.4605 174.316 18.4789C182.113 10.6223 192.653 5.09584 204.796 3.36955C220.189 1.18285 235.027 5.54867 246.137 14.2585C250.699 17.8335 254.635 22.1406 257.721 27.0284C259.372 29.6388 260.782 32.4179 261.915 35.3386C262.009 35.5746 262.097 35.8114 262.184 36.0479C262.913 38.0185 263.517 40.0482 263.984 42.1368C264.159 42.9137 264.314 43.6964 264.45 44.4851C264.49 44.701 264.527 44.9159 264.558 45.1352C264.887 47.2055 265.077 49.2672 265.131 51.309Z" fill="white"/>
</g>
<path d="M172.427 68.3266C168.414 68.3266 164.841 68.1777 161.819 67.873L160.335 67.7232L159.932 66.3633C159.322 64.3077 158.841 62.1829 158.502 60.0487C158.337 59.0074 158.203 57.9476 158.105 56.8989C157.899 54.717 157.839 52.5007 157.927 50.3133C158.932 25.5145 178.52 4.83514 204.503 1.14203C230.488 -2.55373 255.634 11.7683 264.3 35.1916C265.064 37.2574 265.695 39.3928 266.176 41.5386C266.405 42.5555 266.607 43.6054 266.774 44.6564V44.6567C267.114 46.7919 267.314 48.9565 267.37 51.0903L267.408 52.502L266.035 53.0583C255.308 57.4019 236.09 61.8172 214.627 64.8679C198.753 67.1245 183.82 68.3266 172.427 68.3266ZM163.79 63.8619C175.104 64.7446 194.082 63.5738 213.972 60.7464C233.86 57.919 252.364 53.759 262.905 49.7724C262.818 48.2747 262.654 46.7683 262.417 45.2766C262.263 44.3094 262.078 43.3439 261.866 42.4066C261.423 40.4303 260.843 38.4671 260.14 36.5681C252.174 15.0329 229.044 1.86891 205.158 5.26373C181.266 8.65988 163.254 27.673 162.33 50.4729C162.249 52.4833 162.304 54.521 162.494 56.5296C162.584 57.4965 162.707 58.4711 162.859 59.4288C163.096 60.9203 163.408 62.4058 163.79 63.8619Z" fill="#371A45"/>
</svg>
