<?xml version="1.0" encoding="utf-8"?>
<!-- Generator: Adobe Illustrator 26.0.0, SVG Export Plug-In . SVG Version: 6.00 Build 0)  -->
<svg version="1.1" id="Layer_1" xmlns="http://www.w3.org/2000/svg" xmlns:xlink="http://www.w3.org/1999/xlink" x="0px" y="0px"
	 viewBox="0 0 4000 4000" style="enable-background:new 0 0 4000 4000;" xml:space="preserve">
<style type="text/css">
	.st0{opacity:0.25;fill:#371A45;enable-background:new    ;}
	.st1{fill:#FFFFFF;}
	.st2{opacity:0.2;}
	.st3{fill:#371A45;}
	.st4{opacity:0.25;}
	.st5{fill:#00AAFF;}
	.st6{opacity:0.35;}
	.st7{opacity:0.5;}
	.st8{fill:#111A28;}
	.st9{fill:url(#SVGID_1_);}
	.st10{clip-path:url(#SVGID_00000181063192835703646110000013814323808080574356_);}
	.st11{fill:#77E236;}
	.st12{fill:#54A520;}
	.st13{opacity:0.41;}
	.st14{fill:none;}
	.st15{fill:#32B1D1;}
	.st16{fill:#29B8FF;}
	.st17{fill:#2C96FF;}
	.st18{fill:#2366F9;}
	.st19{fill:#2276FC;}
	.st20{opacity:0.6;}
	.st21{fill:#FFD243;}
	.st22{fill:#FCAC38;}
	.st23{fill:#FFB200;}
	.st24{fill:#FF9100;}
	.st25{fill:none;stroke:#293856;stroke-width:16.4175;stroke-linecap:round;stroke-miterlimit:10;}
	.st26{fill:#D66B09;}
	.st27{fill:#FFD766;}
	.st28{fill:#FFAA39;}
	.st29{fill:#FFCF6E;}
	.st30{fill:#FFEC90;}
	.st31{fill:#FFA92C;}
	.st32{fill:none;stroke:#371A45;stroke-width:5.6669;stroke-linecap:round;stroke-miterlimit:10;}
</style>
<g>
	<g>
		<ellipse class="st0" cx="2022.5" cy="3670.8" rx="596.7" ry="94.2"/>
		<g>
			<g>
				<g>
					<path class="st1" d="M2548.8,2993.9h-1073l18.4-837c0-70.6,57.2-127.8,127.8-127.8h817.4c70.6,0,127.8,57.2,127.8,127.8
						L2548.8,2993.9z"/>
				</g>
				<g class="st2">
					<path d="M2548.8,2993.9h-1073l18.4-837c0-70.6,57.2-127.8,127.8-127.8h817.4c70.6,0,127.8,57.2,127.8,127.8L2548.8,2993.9z"/>
				</g>
				<g>
					<path class="st3" d="M2548.8,3012.3h-1073c-4.9,0-9.7-2-13.1-5.5c-3.5-3.5-5.3-8.3-5.2-13.2l18.4-837
						c0-80.2,65.6-145.8,146.2-145.8h817.4c80.6,0,146.2,65.6,146.2,146.2l-18.4,837.4C2566.9,3004.3,2558.8,3012.3,2548.8,3012.3z
						 M1494.5,2975.6h1036.3l18-819c0-59.9-49.1-109-109.5-109h-817.4c-60.3,0-109.4,49.1-109.4,109.4L1494.5,2975.6z"/>
				</g>
			</g>
			<g class="st2">
				<path d="M2474.1,2686.8l-6.8-70.2c-2.4-25.1-23.5-44.2-48.7-44.2h-61.2v-30.6c0-49.9-40.4-90.3-90.3-90.3h-502
					c-49.9,0-90.3,40.4-90.3,90.3v30.6h-55.1c-25.2,0-46.3,19.1-48.7,44.2l-6.8,70.2c-1.4,15,10.3,27.9,25.3,27.9h85.2v79.6
					c0,49.9,40.4,90.3,90.3,90.3h502c49.9,0,90.3-40.4,90.3-90.3v-79.6h91.3C2463.8,2714.8,2475.6,2701.8,2474.1,2686.8z"/>
			</g>
			<g>
				<path class="st3" d="M1581.4,2356.7l8.7,305.7c0.4,12.7-9.7,23.3-22.4,23.7c-13.9,0.5-25.3-12-23.5-25.8
					C1544.2,2660.2,1581.4,2356.7,1581.4,2356.7L1581.4,2356.7z"/>
			</g>
			<g>
				<path class="st3" d="M2418.9,2329.1c45.3,102.2,71.4,213.1,81.4,324.8c1.2,12.7-8.2,23.9-20.8,25s-23.9-8.2-25-20.8
					c2.1-55.4,1.7-111.1-4.3-166.8C2444.4,2436.8,2434.1,2382.5,2418.9,2329.1L2418.9,2329.1z"/>
			</g>
			<g>
				<path class="st1" d="M1600.8,2966.3"/>
			</g>
			<g>
				<g>
					<path class="st1" d="M1778.1,2066c-186.9,34.7-328.6,130.2-410.2,306.2c-73.7,100.4-147.4,200.8-221.1,301.3
						c32.3,18.1,97.6,48.8,185.1,50.7c113.8,2.4,195.9-45.5,226.8-65.7V2859c-257.1-27.1-357.4,253.1-112.5,409
						c50.5,32.2,108.2,50.8,167.7,57.9c56.6,6.7,108,19.5,152.2,40.9c33,16,69.1,25.1,105.8,23.6c46.1-1.8,86.4-14.5,118.9-41.6
						c82.3,58.8,187.5,50.4,300.8,18.4c613-76.5,503.8-449.3,177.3-523.5v-192.1c16,13.8,111.3,93.2,249.9,79.1
						c129.8-13.1,205.1-98.8,220.2-116.7c-98.2-92.8-196.4-185.7-294.5-278.5c-73.3-156.9-203.9-241.6-354-301.8L1778.1,2066z"/>
				</g>
				<g class="st2">
					<g>
						<path class="st3" d="M1558.7,2658.5V2536c-30.8,20.2-113,68.1-226.8,65.7c-45.7-1-85.2-9.8-117.3-20.6
							c-22.6,30.8-45.2,61.6-67.9,92.5c32.3,18.1,97.6,48.8,185.1,50.7C1445.6,2726.6,1527.8,2678.7,1558.7,2658.5z"/>
					</g>
					<g>
						<path class="st3" d="M2291.6,3244.7c-113.3,32.1-218.5,40.4-300.8-18.4c-32.6,27.1-72.8,39.8-118.9,41.6
							c-36.7,1.4-72.8-7.6-105.8-23.6c-44.2-21.4-95.6-34.2-152.2-40.9c-59.5-7-117.2-25.7-167.7-57.9
							c-70.7-45-112.6-100.4-130.3-155.8c-29.7,86.9,5.4,198.8,130.3,278.3c50.5,32.2,108.2,50.8,167.7,57.9
							c56.6,6.7,108,19.5,152.2,40.9c33,16,69.1,25.1,105.8,23.6c46.1-1.8,86.4-14.5,118.9-41.6c82.3,58.8,187.5,50.4,300.8,18.4
							c375.1-46.8,479.8-204.5,429.7-336.9C2683.9,3124.9,2554,3212,2291.6,3244.7z"/>
					</g>
					<g>
						<path class="st3" d="M2718.8,2608.3c-138.6,14-233.9-65.3-249.9-79.1v122.5c16,13.8,111.3,93.2,249.9,79.1
							c129.8-13.1,205.1-98.8,220.2-116.7c-22.1-20.9-44.3-41.9-66.4-62.8C2835.5,2576.7,2784,2601.7,2718.8,2608.3z"/>
					</g>
				</g>
				<g>
					<path class="st3" d="M2136.9,3410.7c-56.8,0-104.1-13-145.4-39.3c-32.3,23-72.2,35.5-118.9,37.3c-38.1,1.5-76.6-7.1-114.5-25.5
						c-40.2-19.5-88.1-32.3-146.4-39.2c-65.4-7.7-124.4-28.1-175.4-60.6c-120.5-76.7-174.4-194.9-137.4-301
						c32.7-93.8,126.3-148.5,241.4-143.3v-148.4c-46.1,25.1-118.8,53.5-208.8,51.7c-67.3-1.4-134.3-19.8-193.7-53
						c-4.6-2.6-7.9-7-9-12.1c-1.1-5.1,0-10.5,3.1-14.8l220-299.8c80.3-171.8,222.5-277.7,422.8-314.9c0.7-0.1,1.5-0.2,2.2-0.3
						l512.4-32.4c2.7-0.2,5.5,0.3,8,1.3c184.6,74.1,296.5,169.2,362.3,307.9l292,276.2c7.1,6.7,7.7,17.7,1.4,25.2
						c-27.6,32.7-105.4,110.3-232.4,123.1c-106,10.7-188.5-30.3-233.4-60.5v140.8c159.6,41.2,269.8,153.9,263.9,272
						c-2.3,46.6-24,114.9-114.4,175.7c-79.1,53.3-194,89.7-341.5,108.2C2235.1,3402.2,2182.9,3410.7,2136.9,3410.7z M1990.8,3330.5
						c3.7,0,7.5,1.1,10.7,3.4c66.8,47.7,154.7,52.5,285.1,15.6c0.9-0.3,1.8-0.4,2.7-0.6c260.1-32.5,419-125.7,425.2-249.5
						c5.2-103.8-99.9-203.8-249.7-237.8c-8.4-1.9-14.3-9.3-14.3-17.9v-192.1c0-7.2,4.2-13.7,10.7-16.7c6.5-3,14.2-1.9,19.6,2.8
						c24,20.7,112.1,87.3,236.1,74.8c99.2-10,164.9-64.3,196.4-97.4l-281.5-266.3c-1.7-1.6-3-3.5-4-5.6
						c-60.9-130.4-165.9-220.3-340.3-291l-507.1,32c-190.6,35.6-320.1,132.4-395.9,295.7c-0.5,1.1-1.1,2.2-1.9,3.1l-208.4,284
						c38,18.6,92.2,37.3,158.1,38.7c101.8,2.3,179.2-38.3,216.3-62.7c5.6-3.7,12.9-4,18.8-0.8c5.9,3.2,9.6,9.4,9.6,16.2V2859
						c0,5.2-2.2,10.2-6.1,13.7c-3.9,3.5-9,5.2-14.2,4.6c-106.8-11.3-194.3,34.8-223.2,117.3c-31.2,89.5,16.8,190.7,122.4,257.9
						c46.3,29.5,100.1,48,160,55.1c62.4,7.4,114.1,21.3,158.1,42.6c32.5,15.7,65.1,23.1,97.1,21.8c44.5-1.7,79.8-14,107.9-37.4
						C1982.4,3331.9,1986.6,3330.5,1990.8,3330.5z M1367.8,2372.3L1367.8,2372.3L1367.8,2372.3z"/>
				</g>
				<g>
					<path class="st3" d="M2468.9,2923.3c-29.5,14.9-61.6,21.9-93.4,28.3c-30.9,6.6-61.3,14.6-91.3,24.2
						c-60.4,19-118.2,44.1-175.8,70.6c-6.3,3.4-13.9,2.8-19.4-1.1c-37.7-26.1-82.7-49.1-128.4-49c-36.4-0.5-63.9,20.8-69.7,55.5
						c-9.6,52.7,14.1,113,37.2,160.3c21.8,43.8,48.5,85.7,77.7,125.8c6,8.2,4.2,19.7-4,25.6c-8.2,6-19.7,4.2-25.6-4
						c-30-41.3-57.8-84.7-80.9-131.1c-25.9-53.6-48.4-112-42-173.3c6.1-57.7,49.2-95.8,106.9-95.5c56,0.1,105.7,25.3,150.1,55.7
						l-19.4-1.1c27.7-17.9,57-33.5,87.3-46.9c60.5-27.1,125.5-45.1,191.3-53.1C2402.6,2910.1,2437.2,2910.6,2468.9,2923.3
						L2468.9,2923.3z"/>
				</g>
				<g>
					<path class="st3" d="M1545.4,2963.1c32.8-17.6,73.3-7.1,101.8,14.6c0,0-8.5-4.9-8.5-4.9l237.8,61c23.2,6.7,14.7,40.9-9.1,35.6
						l-237.8-61c-3.3-0.8-6.3-2.5-8.5-4.9C1605.4,2977.4,1576.9,2959.1,1545.4,2963.1L1545.4,2963.1z"/>
				</g>
				<g>
					<path class="st3" d="M2113.1,3032.5c-13,52.6-7.7,108.9,10.9,160.2c-27.8-49.4-42.5-106.9-38.1-164.3
						C2087.9,3008.7,2116.9,3013,2113.1,3032.5L2113.1,3032.5z"/>
				</g>
				<g>
					<path class="st3" d="M1558.6,3334.2c-8.6,0-16.3-6.1-18-14.9c-23.8-124.4,2-235.4,78.7-339.5c6-8.2,17.5-9.9,25.7-3.9
						c8.2,6,9.9,17.5,3.9,25.7c-70.3,95.4-94,197.1-72.2,310.8c1.9,10-4.6,19.6-14.6,21.5
						C1560.9,3334.1,1559.8,3334.2,1558.6,3334.2z"/>
				</g>
				<g>
					<path class="st3" d="M2453.5,3354.6c-0.1,0-0.3,0-0.4,0c-10.1-0.2-18.2-8.6-17.9-18.8c4-175.3-36.6-299.4-124.3-379.4
						c-7.5-6.8-8-18.5-1.2-25.9c6.8-7.5,18.5-8,25.9-1.2c95.9,87.5,140.5,220.8,136.2,407.4
						C2471.6,3346.6,2463.4,3354.6,2453.5,3354.6z"/>
				</g>
				<g class="st4">
					<path class="st3" d="M1614,2974c254.3-7.4,548.3-16.1,774.5-43.4c-125.1,9.9-222.4,38.3-278.3,94.1
						c-105-57.2-198.8-85.6-238.2,27L1614,2974z"/>
				</g>
			</g>
			<g>
				<path class="st1" d="M1677.8,2661.3h-85.2c-15,0-26.8-13-25.4-27.9l6.8-70.2c2.4-25.1,23.5-44.2,48.7-44.2h55.1L1677.8,2661.3
					L1677.8,2661.3z"/>
			</g>
			<g class="st2">
				<path d="M2473.3,2593.2c-4.5,7.1-12.4,11.8-21.5,11.8h-91.3v56.3h91.3c15,0,26.8-13,25.4-27.9L2473.3,2593.2z"/>
			</g>
			<g>
				<circle class="st5" cx="2179.9" cy="2549.6" r="71.9"/>
			</g>
			<g>
				<g class="st4">
					<path class="st3" d="M1571.1,2593.2l-3.9,40.1c-1.4,15,10.3,27.9,25.4,27.9h85.2v-56.3h-85.2
						C1583.5,2605.1,1575.6,2600.3,1571.1,2593.2z"/>
				</g>
				<g>
					<path class="st1" d="M2360.5,2661.3h91.3c15,0,26.8-13,25.4-27.9l-6.8-70.2c-2.4-25.1-23.5-44.2-48.7-44.2h-61.2V2661.3z"/>
				</g>
				<g>
					<path class="st1" d="M1677.8,2488.3v252.6c0,49.9,40.4,90.3,90.3,90.3h502.1c49.9,0,90.3-40.4,90.3-90.3v-252.6
						c0-49.9-40.4-90.3-90.3-90.3h-502.1C1718.2,2398,1677.8,2438.5,1677.8,2488.3z"/>
				</g>
				<g class="st4">
					<path class="st3" d="M2270.2,2709.5h-502.1c-49.9,0-90.3-40.4-90.3-90.3v121.7c0,49.9,40.4,90.3,90.3,90.3h502.1
						c49.9,0,90.3-40.4,90.3-90.3v-121.7C2360.5,2669.1,2320.1,2709.5,2270.2,2709.5z"/>
				</g>
				<g>
					<g class="st4">
						<ellipse class="st3" cx="2176.8" cy="2619" rx="85.7" ry="76.7"/>
					</g>
					<g>
						<circle class="st5" cx="2179.9" cy="2590.9" r="71.9"/>
					</g>
					<g class="st4">
						<path class="st3" d="M2179.9,2631.5c-34.3,0-63-24.1-70.2-56.3c-1.1,5.1-1.8,10.3-1.8,15.7c0,39.7,32.2,71.9,71.9,71.9
							c39.7,0,71.9-32.2,71.9-71.9c0-5.4-0.6-10.6-1.8-15.7C2242.9,2607.4,2214.2,2631.5,2179.9,2631.5z"/>
					</g>
					<g>
						<path class="st3" d="M2179.9,2676.6c-47.3,0-85.7-38.5-85.7-85.7s38.5-85.7,85.7-85.7s85.7,38.5,85.7,85.7
							S2227.1,2676.6,2179.9,2676.6z M2179.9,2532.7c-32.1,0-58.2,26.1-58.2,58.2s26.1,58.2,58.2,58.2s58.2-26.1,58.2-58.2
							S2211.9,2532.7,2179.9,2532.7z"/>
					</g>
				</g>
				<g>
					<path class="st3" d="M2270.2,2849.6h-502.1c-59.9,0-108.7-48.8-108.7-108.7v-252.6c0-59.9,48.8-108.7,108.7-108.7h502.1
						c59.9,0,108.7,48.8,108.7,108.7v252.6C2378.9,2800.8,2330.1,2849.6,2270.2,2849.6z M1768.1,2416.4c-39.7,0-71.9,32.3-71.9,71.9
						v252.6c0,39.7,32.3,71.9,71.9,71.9h502.1c39.7,0,71.9-32.3,71.9-71.9v-252.6c0-39.7-32.3-71.9-71.9-71.9H1768.1z"/>
				</g>
				<g>
					<path class="st3" d="M1978.9,2849.6c-10.1,0-18.3-8.1-18.4-18.3l-1.1-175.8l-81.6-40.5c-6.2-3.1-10.2-9.5-10.2-16.4V2398
						c0-10.1,8.2-18.4,18.4-18.4c10.1,0,18.4,8.2,18.4,18.4v189.1l81.5,40.5c6.2,3.1,10.2,9.4,10.2,16.3l1.2,187.1
						c0.1,10.1-8.1,18.4-18.3,18.5C1978.9,2849.6,1978.9,2849.6,1978.9,2849.6z"/>
				</g>
				<g>
					<path class="st3" d="M1677.8,2679.7h-85.2c-12.3,0-24.2-5.2-32.5-14.4c-8.3-9.1-12.4-21.4-11.2-33.7l6.8-70.2
						c3.4-34.7,32.2-60.8,67-60.8h55.1c10.1,0,18.4,8.2,18.4,18.4v142.4C1696.2,2671.4,1687.9,2679.7,1677.8,2679.7z M1622.7,2537.3
						c-15.8,0-28.9,11.9-30.4,27.6l-6.8,70.2c-0.3,2.7,1,4.6,1.8,5.5c0.8,0.9,2.5,2.3,5.3,2.3h66.9v-105.6L1622.7,2537.3
						L1622.7,2537.3z"/>
				</g>
				<g>
					<path class="st3" d="M2451.8,2679.7h-91.3c-10.1,0-18.4-8.2-18.4-18.4V2519c0-10.1,8.2-18.4,18.4-18.4h61.2
						c34.8,0,63.6,26.1,67,60.8l6.8,70.2c1.2,12.3-2.9,24.6-11.2,33.7C2476,2674.4,2464.2,2679.7,2451.8,2679.7z M2378.9,2642.9h73
						c2.7,0,4.5-1.5,5.3-2.3c0.8-0.9,2.1-2.7,1.8-5.5l-6.8-70.2c-1.5-15.8-14.6-27.6-30.4-27.6h-42.8L2378.9,2642.9L2378.9,2642.9z"
						/>
				</g>
				<g>
					<circle class="st1" cx="2198.2" cy="2575.2" r="24.5"/>
				</g>
			</g>
			<g>
				<path class="st1" d="M1215.5,2703.8c106.5-63.1,128-172.5,119.7-298.3l-160.1-83.9c-6.4-3.4-11.2-9.2-13.2-16.1l-34.4-118.7
					c-8.7-30.2-29.2-55.6-56.8-70.6l-40.9-22.2c-21.8-11.8-48.9-4.7-62.1,16.3l0,0c-12.9,20.6-7.9,47.7,11.5,62.3l30.6,23
					c14,10.6,18.5,29.7,10.6,45.4l-19.6,38.9c-19.8-43.1-50.5-50.1-88.3-33l-3.8-27.8c-1.8-12.8,2-25.7,10.4-35.5l10-11.7
					c14-16.3,11.7-41-5.1-54.5l0,0c-15-12-36.6-11-50.4,2.5l-43,42c-20.6,20.1-31.1,49-26,77.3c4.7,25.6,20,43,50.2,49
					c-47.8,139.4-12.8,225.4,124.7,245.2C1054.6,2610.8,1132.2,2673.7,1215.5,2703.8z"/>
			</g>
			<g class="st4">
				<g>
					<path class="st3" d="M1270.3,2636.8c-83.2-30.1-160.9-93-236.2-170.3c-137.1-19.8-172.3-105.3-125-244.1l-0.2-1.2
						c-29.8-6.1-45-23.4-49.6-48.8c-2.6-14.2-1.2-28.5,3.3-41.8l-32.1,31.3c-20.6,20.1-31.1,49-26,77.3c4.7,25.6,20,43,50.2,49
						c-47.8,139.4-12.8,225.4,124.7,245.2c75.2,77.3,152.9,140.2,236.2,170.3c40.3-23.8,68.3-54.3,87.3-89.8
						C1292.9,2622.1,1282.2,2629.8,1270.3,2636.8z"/>
				</g>
			</g>
			<g>
				<path class="st3" d="M1215.5,2722.1c-2.1,0-4.2-0.4-6.2-1.1c-75.6-27.3-151.5-81.5-238.8-170.3c-64.2-10.4-109-35.8-133.3-75.5
					c-26-42.6-27.9-101.3-5.8-174.8c-24.6-10.4-40-30.1-45-57.8c-6.1-33.7,5.5-68.7,31.2-93.8l43-42c20.4-19.9,52.5-21.4,74.7-3.6
					c4,3.2,7.5,6.8,10.4,10.8c1.6-4.6,3.8-9.1,6.5-13.5c18.2-29.1,56.2-39.1,86.4-22.7l40.9,22.2c31.7,17.2,55.6,46.9,65.7,81.6
					l34.4,118.7c0.6,2.1,2.1,3.9,4.1,5l160.1,83.9c5.7,3,9.4,8.7,9.8,15.1c6.5,98.8,0.3,238.9-128.7,315.3
					C1222,2721.3,1218.7,2722.1,1215.5,2722.1z M900.1,2127.6c-5,0-10,1.9-13.8,5.6l-43,42c-16.9,16.5-24.7,39.3-20.7,60.9
					c3.5,19.5,14.6,30,35.7,34.3c5.2,1,9.7,4.3,12.3,8.9c2.6,4.6,3.2,10.1,1.5,15.1c-24.4,71.2-25.6,125.6-3.5,161.8
					c19.1,31.2,57.2,51.2,113.4,59.3c4,0.6,7.7,2.5,10.5,5.4c81.8,84,152.3,136,221,162.7c78.6-50.2,110.9-133.1,103.9-266.5
					l-150.9-79.1c-10.8-5.6-18.9-15.6-22.3-27.3l-34.4-118.7c-7.3-25.3-24.8-47-47.9-59.5l-40.9-22.2c-13.2-7.2-29.8-2.8-37.8,9.9
					c-7.9,12.6-4.9,28.9,7,37.9l30.6,23c21.2,15.9,27.9,44.7,15.9,68.3l-19.6,38.9c-3.2,6.3-9.8,10.1-16.7,10.1
					c-7.1-0.1-13.4-4.3-16.4-10.7c-14.3-31.1-32.8-38-64.1-23.9c-5.3,2.4-11.4,2.1-16.4-0.7c-5.1-2.8-8.5-7.8-9.3-13.6l-3.8-27.8
					c-2.5-18,2.9-36.2,14.7-50l10-11.7c3.5-4.1,5.1-9.3,4.6-14.7c-0.5-5.4-3.1-10.2-7.3-13.5C908.8,2129,904.4,2127.6,900.1,2127.6z
					 M947.4,2220.1c20,0,37.3,7.8,51.4,23.2l5.3-10.4c3.9-7.8,1.7-17.2-5.2-22.4l-30.5-23c-6.7-5-12.1-11.1-16.3-17.8
					c-2.2,5.1-5.2,10-9,14.3l-10,11.7c-5,5.8-7.2,13.5-6.2,21.1l0.8,5.7C934.4,2220.8,941,2220.1,947.4,2220.1z"/>
			</g>
			<g>
				<path class="st3" d="M850,2281.8c42.3-71.4,133.6-48.6,174.3,11.7c30.6,44.9,14.1,105.5-25.7,138.3
					c-11.7,10.9-25.4,18.9-39.1,25.8c10.3-11.7,20.5-22.8,28.6-35.1c24.5-33.6,31.9-76.3,10.3-113.1c-24.4-46.6-96.6-67.9-126-14.6
					C863.8,2310.8,840.4,2297.3,850,2281.8L850,2281.8z"/>
			</g>
			<g>
				<g>
					<path class="st1" d="M2829.5,2703.8c-106.5-63.1-128-172.5-119.7-298.3l160.1-83.9c6.4-3.4,11.2-9.2,13.2-16.1l34.4-118.7
						c8.7-30.2,29.2-55.6,56.8-70.6l40.9-22.2c21.8-11.8,48.9-4.7,62.1,16.3l0,0c12.9,20.6,7.9,47.7-11.5,62.3l-30.6,23
						c-14,10.6-18.5,29.7-10.6,45.4l19.6,38.9c19.8-43.1,50.5-50.1,88.3-33l3.8-27.8c1.8-12.8-2-25.7-10.4-35.5l-10-11.7
						c-14-16.3-11.7-41,5.1-54.5l0,0c15-12,36.6-11,50.4,2.5l43,42c20.6,20.1,31.1,49,26,77.3c-4.7,25.6-20,43-50.2,49
						c47.8,139.4,12.8,225.4-124.7,245.2C2990.4,2610.8,2912.7,2673.7,2829.5,2703.8z"/>
				</g>
				<g class="st4">
					<g>
						<path class="st3" d="M2774.7,2636.8c83.2-30.1,160.9-93,236.1-170.3c137.1-19.8,172.3-105.3,125-244.1l0.2-1.2
							c29.8-6.1,45-23.4,49.6-48.8c2.6-14.2,1.2-28.5-3.3-41.8l32.1,31.3c20.6,20.1,31.1,49,26,77.3c-4.7,25.6-20,43-50.2,49
							c47.8,139.4,12.8,225.4-124.7,245.2c-75.2,77.3-152.9,140.2-236.1,170.3c-40.3-23.8-68.3-54.3-87.3-89.8
							C2752,2622.1,2762.8,2629.8,2774.7,2636.8z"/>
					</g>
				</g>
				<g>
					<path class="st3" d="M2829.5,2722.1c-3.3,0-6.5-0.9-9.4-2.6c-128.9-76.4-135.2-216.5-128.7-315.3c0.4-6.4,4.1-12.1,9.8-15.1
						l160.1-83.9c2-1,3.4-2.8,4.1-5l34.4-118.7c10-34.6,34-64.4,65.7-81.6l40.9-22.2c30.2-16.4,68.1-6.4,86.4,22.7
						c2.7,4.3,4.9,8.8,6.5,13.5c2.9-4,6.4-7.6,10.4-10.8c22.2-17.8,54.3-16.2,74.7,3.6l43,42c25.7,25,37.3,60.1,31.2,93.8
						c-5,27.7-20.5,47.4-45,57.8c22.2,73.5,20.2,132.3-5.8,174.8c-24.3,39.7-69.1,65.1-133.3,75.5c-87.2,88.9-163.2,143-238.8,170.3
						C2833.7,2721.8,2831.6,2722.1,2829.5,2722.1z M2727.5,2417c-7,133.3,25.3,216.2,103.9,266.5c68.8-26.8,139.3-78.7,221-162.7
						c2.8-2.9,6.5-4.8,10.5-5.4c56.2-8.1,94.3-28.1,113.4-59.3c22.1-36.2,21-90.6-3.5-161.8c-1.7-5-1.2-10.5,1.4-15.1
						c2.6-4.6,7.1-7.8,12.3-8.9c21.1-4.2,32.1-14.8,35.7-34.3c3.9-21.6-3.8-44.4-20.7-60.9l-43-42c-7.1-6.9-18.3-7.5-26.1-1.3
						c-4.2,3.4-6.8,8.2-7.3,13.5c-0.5,5.4,1.1,10.6,4.6,14.7l10,11.7c11.8,13.8,17.1,32,14.7,50l-3.8,27.8
						c-0.8,5.7-4.2,10.8-9.3,13.6c-5.1,2.8-11.2,3-16.4,0.7c-31.3-14.1-49.9-7.2-64.1,23.9c-2.9,6.4-9.3,10.6-16.4,10.7
						c-6.9,0.1-13.6-3.8-16.7-10.1l-19.6-38.9c-11.9-23.6-5.2-52.4,15.9-68.3l30.5-23c11.9-9,14.9-25.3,7-37.9
						c-8-12.7-24.6-17.1-37.8-9.9l-40.9,22.2c-23.1,12.6-40.6,34.2-47.9,59.5l-34.4,118.7c-3.4,11.7-11.5,21.6-22.3,27.3
						L2727.5,2417z M3093,2169.6c-4.2,6.7-9.6,12.7-16.3,17.8l-30.5,23c-6.9,5.2-9.1,14.7-5.2,22.4l5.3,10.4
						c18.5-20.2,42.8-27.4,71.2-20.8l0.8-5.7c1-7.6-1.2-15.3-6.2-21.1l-10-11.7C3098.2,2179.6,3095.2,2174.7,3093,2169.6z"/>
				</g>
				<g>
					<path class="st3" d="M3172.5,2294.8c-20.3-38.2-67.9-39.2-99.9-15.1c-21.2,15.7-34.6,40.2-38.2,65.8
						c-6.1,43.5,23,81.5,51.1,112c-43.8-20.6-82.6-62.6-80.8-114.3c1.6-69.1,88.2-128.1,152.1-97.6c8.1,3.7,15.5,9.6,22,15.4
						c3,3.2,5.9,6.6,8.8,9.9l7.3,10.8C3204.5,2297.3,3181.2,2310.8,3172.5,2294.8L3172.5,2294.8z"/>
				</g>
			</g>
			<g class="st4">
				<path class="st3" d="M2432.5,2101.5c-110.1,112.3-264.9,182.2-436.3,182.2c-153.7,0-294-56.2-400.7-148.7
					c56.8-31.4,120.7-53,191-66.1l512.4-32.3C2345.7,2055.3,2390.6,2076.5,2432.5,2101.5z"/>
			</g>
			<g>
				<g>
					<path class="st1" d="M2593.8,1787.4l-12.2,0c-6.2,0-11.3-5.1-11.2-11.3l1.4-357.9c0-6.2,5.1-11.3,11.3-11.2l12.2,0
						c65.4,0.3,118.2,53.5,118,118.9l-0.6,143.6C2712.4,1734.9,2659.2,1787.7,2593.8,1787.4z"/>
					<path class="st3" d="M2594.2,1790.9c-0.2,0-0.3,0-0.5,0l-12.2,0c-8.2,0-14.8-6.7-14.8-14.9l1.4-357.9c0-8.2,6.7-14.8,14.8-14.8
						c0,0,0,0,0.1,0l12.2,0c32.6,0.1,63.2,12.9,86.1,36.1c22.9,23.1,35.5,53.8,35.4,86.4l-0.6,143.6
						C2715.9,1736.6,2661.3,1790.9,2594.2,1790.9z M2593.8,1783.9c0.2,0,0.3,0,0.5,0c63.1,0,114.6-51.2,114.9-114.4l0.6-143.6
						c0.1-30.7-11.7-59.6-33.3-81.4c-21.6-21.8-50.4-33.9-81.1-34l-12.2,0c0,0,0,0,0,0c-4.3,0-7.7,3.5-7.8,7.7l-1.4,357.9
						c0,4.3,3.4,7.8,7.7,7.8L2593.8,1783.9z"/>
				</g>
				<g class="st4">
					<path class="st3" d="M2712.9,1601.4l-0.2,56.9c-0.3,71.5-58.5,129.3-130.1,129.1c-6.8,0-12.3-5.6-12.3-12.4l0.3-94.6
						c1.9,4.3,6.2,7.3,11.2,7.4l8.4,0C2646.9,1688,2695.1,1651.9,2712.9,1601.4z"/>
				</g>
				<g>
					<path class="st3" d="M2594.3,1807.1c-0.2,0-0.4,0-0.6,0l-12.2,0c-17.1-0.1-30.9-14-30.9-31.1l1.4-357.9c0-8.3,3.3-16,9.2-21.9
						c5.9-5.8,13.6-8.8,21.9-9l12.2,0c36.9,0.1,71.5,14.7,97.5,40.8c26,26.2,40.2,60.9,40.1,97.8l-0.6,143.6
						C2732.1,1745.5,2670.2,1807.1,2594.3,1807.1z M2593.9,1767.7c0.1,0,0.3,0,0.4,0c54.3,0,98.5-44,98.7-98.4l0.6-143.6
						c0.1-26.4-10.1-51.2-28.6-69.9c-18.6-18.7-43.3-29.1-69.7-29.2l-3.8,0l-1.4,341.1L2593.9,1767.7z"/>
				</g>
				<g>
					<path class="st1" d="M1398.6,1402.2l12.2,0c6.2,0,11.3,5.1,11.2,11.3l-1.4,357.9c0,6.2-5.1,11.3-11.3,11.2l-12.2,0
						c-65.4-0.3-118.2-53.5-118-118.9l0.6-143.6C1280,1454.7,1333.2,1401.9,1398.6,1402.2z"/>
					<path class="st3" d="M1409.4,1786.2C1409.3,1786.2,1409.3,1786.2,1409.4,1786.2l-12.3,0c-32.6-0.1-63.2-12.9-86.1-36.1
						c-22.9-23.1-35.5-53.8-35.4-86.4l0.6-143.6c0.1-32.6,12.9-63.2,36.1-86.1c23-22.8,53.5-35.4,85.9-35.4c0.2,0,0.3,0,0.5,0
						l12.2,0c8.2,0,14.8,6.7,14.8,14.9l-1.4,357.9c0,4-1.6,7.7-4.4,10.5C1417,1784.7,1413.3,1786.2,1409.4,1786.2z M1398.1,1405.7
						c-30.5,0-59.2,11.8-80.9,33.3c-21.8,21.6-33.9,50.4-34,81.1l-0.6,143.6c-0.1,30.7,11.7,59.6,33.3,81.4
						c21.6,21.8,50.4,33.9,81.1,34l12.2,0c0,0,0,0,0,0c2.1,0,4-0.8,5.5-2.2c1.5-1.5,2.3-3.4,2.3-5.5l1.4-357.9
						c0-4.3-3.4-7.8-7.7-7.8l-12.2,0C1398.4,1405.7,1398.3,1405.7,1398.1,1405.7z"/>
				</g>
				<g class="st4">
					<path class="st3" d="M1421.1,1671.7l-0.4,98.7c0,6.8-5.6,12.3-12.4,12.3c-37.6-0.2-71.4-16.3-94.9-41.9
						c-21.3-23.2-34.2-54.2-34.1-88.1l0.2-51.1c20.1,44.9,65.3,76.4,117.7,76.6l13,0.1C1414.9,1678.1,1418.9,1675.5,1421.1,1671.7z"
						/>
				</g>
				<g>
					<path class="st3" d="M1409.4,1802.4c0,0-0.1,0-0.1,0l-12.2,0c-36.9-0.1-71.5-14.6-97.5-40.8c-26-26.2-40.2-60.9-40.1-97.8
						l0.6-143.6c0.1-36.9,14.7-71.5,40.8-97.5c26.1-25.8,60.6-40.1,97.3-40.1c0.2,0,0.4,0,0.6,0l12.2,0c17.1,0.1,30.9,14,30.9,31.1
						l-1.4,357.9c0,8.3-3.3,16-9.2,21.9C1425.3,1799.2,1417.6,1802.4,1409.4,1802.4z M1409.4,1763L1409.4,1763
						C1409.4,1763,1409.4,1763,1409.4,1763z M1398.1,1421.8c-26.2,0-50.9,10.2-69.5,28.6c-18.7,18.6-29.1,43.3-29.2,69.7l-0.6,143.6
						c-0.1,26.4,10.1,51.2,28.6,69.9c18.6,18.7,43.3,29.1,69.7,29.2l3.8,0l1.4-341.1l-3.8,0
						C1398.4,1421.8,1398.3,1421.8,1398.1,1421.8z"/>
				</g>
				<g>
					
						<ellipse transform="matrix(0.7071 -0.7071 0.7071 0.7071 -542.9981 1878.6571)" class="st1" cx="1996.2" cy="1594.8" rx="606.3" ry="606.3"/>
					<path class="st3" d="M1996.7,2204.6c-15.3,0-30.6-0.6-46.1-1.7c-335.3-25.2-587.6-318.5-562.4-653.8
						c12.2-162.4,86.9-310.4,210.4-416.6c123.5-106.2,281-158,443.4-145.8c162.4,12.2,310.4,86.9,416.6,210.4
						c106.2,123.5,158,281,145.8,443.4C2580.4,1960.3,2312.4,2204.6,1996.7,2204.6z M1995.3,992c-144,0-281.8,50.9-392.2,145.9
						c-122.1,105-195.9,251.2-208,411.8c-24.9,331.4,224.5,621.3,555.9,646.2c15.3,1.1,30.5,1.7,45.6,1.7
						c312.1,0,576.9-241.5,600.6-557.6c12.1-160.6-39.1-316.2-144.1-438.2s-251.2-195.9-411.8-208C2026,992.6,2010.6,992,1995.3,992
						z"/>
				</g>
				<g class="st6">
					<path class="st3" d="M2601.4,1556.1c1.8,27.6,1.6,55.7-0.5,84.1c-25.1,333.9-316.1,584.2-650,559.2
						c-333.9-25.1-584.2-316.1-559.2-650c0.7-9.6,1.7-19.2,2.8-28.6c18.7,297.4,254.2,542.9,559.7,565.9
						C2278.5,2111,2562.2,1875.5,2601.4,1556.1z"/>
				</g>
				<g>
					<path class="st3" d="M1996.7,2220.8c-15.7,0-31.4-0.6-47.3-1.8c-344.2-25.9-603.2-326.9-577.3-671.1
						c12.5-166.7,89.2-318.6,216-427.7c126.8-109,288.4-162.2,455.1-149.7c166.7,12.5,318.6,89.2,427.7,216s162.2,288.4,149.7,455.1
						C2595.8,1970,2320.8,2220.8,1996.7,2220.8z M1995.3,1008.1c-140.2,0-274.3,49.6-381.6,142
						c-118.8,102.2-190.7,244.5-202.4,400.8c-24.2,322.5,218.5,604.7,541,628.9c14.9,1.1,29.7,1.7,44.4,1.7
						c303.7,0,561.4-235,584.6-542.7c11.7-156.2-38.1-307.7-140.3-426.5c-102.2-118.8-244.5-190.7-400.8-202.4
						C2025.2,1008.7,2010.2,1008.1,1995.3,1008.1z"/>
				</g>
				<g>
					<path class="st3" d="M2597.8,1655.6c-7.1,118.4-52.1,226.1-123.3,313.1c-53.4,65.2-263.2,172.5-513.5,159.7
						c-232.1-11.8-435.8-148.2-481-219.3c-60.3-94.9-92.2-207.2-85.1-325.6c18.8-313.4,295.8-427.2,628-407.3
						C2355.1,1196.1,2616.5,1342.2,2597.8,1655.6z"/>
				</g>
				<g class="st7">
					
						<ellipse transform="matrix(0.2368 -0.9716 0.9716 0.2368 278.3797 3567.0278)" class="st1" cx="2409.6" cy="1606.3" rx="107.3" ry="77.7"/>
				</g>
				<g class="st7">
					
						<ellipse transform="matrix(0.3688 -0.9295 0.9295 0.3688 -231.9216 3283.9192)" class="st1" cx="2302" cy="1812.7" rx="49.2" ry="42.3"/>
				</g>
				<g class="st6">
					<path class="st8" d="M2498.3,1356.2c69.3,74.6,107,173.5,99.4,299.4c-7.1,118.5-52.2,226.1-123.3,313.1
						c-53.4,65.2-263.2,172.5-513.5,159.7c-88.4-4.5-172.6-27-245.6-57.2c308.1,9.1,563.7-122.6,629.9-203.6
						c90.4-110.5,147.5-247.1,156.5-397.4C2504.1,1430.1,2502.8,1392.1,2498.3,1356.2z"/>
				</g>
				<g>
					<path class="st3" d="M2549,1392l-1.8-1.7l-1.4-2.2c-92.6-147.9-283.5-241-523.7-255.4c-241.4-14.5-442,57.8-550.2,198.2
						l-1.6,1.8c-7.5,7.7-19.7,8-27.6,0.6c-7.6-7.2-8.3-19-1.7-26.9c116.4-150.6,329-228.2,583.4-213
						c253,15.2,455.2,114.9,554.7,273.8l-16.6,10.5L2549,1392z"/>
				</g>
				<g class="st7">
					<path class="st1" d="M1523.8,1783c0,0-78.5-315,95.5-428.2s413.7-98.4,407.2-83.3c0,0-269.2,48.3-385.7,251.9
						C1551,1680.4,1523.8,1783,1523.8,1783z"/>
				</g>
			</g>
		</g>
		<g>
			<g>
				
					<linearGradient id="SVGID_1_" gradientUnits="userSpaceOnUse" x1="641.618" y1="2502.1736" x2="923.1172" y2="2211.4036" gradientTransform="matrix(1 0 0 -1 0 4000)">
					<stop  offset="0" style="stop-color:#FFFFFF"/>
					<stop  offset="0" style="stop-color:#27D6FF"/>
					<stop  offset="1" style="stop-color:#29B3FF"/>
				</linearGradient>
				<path class="st9" d="M1084.3,1711.6c-0.2,2.6-0.4,5.1-0.7,7.7c-14.6,136.8-135.4,238.1-273.4,227.5
					c-138.1-10.6-242.1-129-235.7-266.4c0.1-2.6,0.3-5.1,0.5-7.7c2.5-32.2,10.8-62.5,23.9-90.1c43.5-91.6,139.5-151.9,246.3-145.4
					c1.3,0.1,2.6,0.2,3.9,0.3c1.3,0.1,2.6,0.2,4,0.3c106.6,9.8,192.3,84,221.3,181.1C1083.2,1648.1,1086.8,1679.3,1084.3,1711.6z"/>
				<g>
					<g>
						<defs>
							
								<ellipse id="SVGID_00000072966142115160979190000000223038284321467800_" transform="matrix(0.7071 -0.7071 0.7071 0.7071 -953.48 1082.2678)" cx="829.7" cy="1692.1" rx="255.4" ry="255.4"/>
						</defs>
						<clipPath id="SVGID_00000044855862857978400180000008206206914564849284_">
							<use xlink:href="#SVGID_00000072966142115160979190000000223038284321467800_"  style="overflow:visible;"/>
						</clipPath>
						<g style="clip-path:url(#SVGID_00000044855862857978400180000008206206914564849284_);">
							<g>
								<g>
									<path class="st11" d="M953,1843.8c-0.2-12.7-6.3-25-16.2-32.7c-12.7-9.9-14.3-29.7-15.1-43.9c-0.6-11.4-7.1-20.8-18.7-13.8
										c-26.7,16-61.4-14.1-66.6-40.8c-4.2-28.4,4.4-52.4,20.4-75.1c11.1-15.8,32.2-19.1,48.3-9.7c18.9,11.1,51.8-16.3,56.4-35.4
										c0.5-2.2,1-5.2,0.4-7c-6.6-18.4-33.7-21.7-44-5.8c-6.7,10.3-19.2,13.2-29.6,6.6c-19.2-12.2-26.1-3.8-34.4,15.3
										c-2.7,6.2-3.6,17.6-11,12.1c-7.3-5.4-13.2-15.4-8.5-24.2c11.5-21.4,22.3-44.2,30-67.6c0.5-1.5,2.2-3.5,3.3-3.5
										c25-0.7,24.8-32.9,31.1-50.3c2.2-6.2,1.1-9.1-2.8-11.9c-3.9-2.9-6.1-0.1-8,4.2c-3.3,7.2-6.5,14.5-9.8,21.6
										c-1.7,3.7-2.6,9.4-6.8,8.5c-4.9-1.1-7-7.3-6.3-12.8c2-15.6,7.5-32.8,18-44.7c7.9-9,22.4-14.9,32.9-6.7
										c13,10.2,23.8,10.1,39.4,3.5c6.6-2.8,13.6-5.8,20.5-7.3c11.5-2.5,20.3-11,24-22.3c3.9-11.2,13.7-18.8,25.4-20.1
										c7.3-0.8,12.3-4.5,15.1-13c4.9-15.3,18.1-26,33.3-29.9c22.6-5.7,40.6-3.1,55.3,14.5c4,4.8,8.7,3.4,13,2.8
										c11.3-1.5,23.3-2.5,34.1-4.3c8.2-1.4,19.3,3.3,24,10.1c3.2,4.6,7.2,5.4,11.2,5.1c5.6-0.4,11.5,0,16.7-0.2
										c12.6-0.5,17.8,2.5,23.5,14.3c1.8,11.3-6.7,25.5-17.3,27.4c-3.1,0.6-6.8,0.8-10.2,0.6c-9.7-0.6-11.8,5.4-9.5,17.9
										c5,26.8-6.7,64.9-35.5,72.5c-7,1.8-11,4.2-8.6,15.3c1.2,5.8,1.7,12.5-1.6,18.2c-7.4,12.9-12,27.8-9,42.5
										c2.4,11.6-9.2,19.3-18.9,12.5c-10.6-7.3-20.8-15.6-30.5-24.2c-7.5-6.7-12.2-5.1-16.4,5.3c-3.6,8.9-9.1,17.9-12,26.6
										c-3.7,11.1-13.8,18.1-23.5,8.7c-11.3-8.4-17.4-11.8-29.8-9.6c-4.4,0.8-9.1-1.3-13.1-4.8c-4-3.6-8.7-7.5-11.6,1.1
										c-2.7,8.1,4.1,8.1,7,10.8c5.2,5,11,9,16.5,13.2c9.7,7.3,10.1,17.7,2.7,26.8c-7.2,8.9-20,15.8-30.7,7.1
										c-7.2-5.4-14.3-11-21.5-16.5c-3.4-2.6-6.5-6.9-10.4,1.1c-4.2,8.5,0.8,9.5,4,12.1c12.6,10,25.2,19.8,38.1,29.3
										c11.1,8.2,13.9,23.3,6.8,34.9c-14.7,23.9-14.3,51.1-7.4,79.8c2.8,11.7,4.8,23.3,6.4,35.3c3.3,23.9-10.4,58.1-36.8,62.4
										c-10.5,1.5-18.5-6.3-20.7-16C955.9,1861.3,954.5,1852.4,953,1843.8z"/>
								</g>
								<g>
									<path class="st11" d="M476.7,1645.6c-9.1-23.1-6.1-40.4,19.4-48.1c37.9-13.1,75.4-27.4,112.5-42.6
										c6.2-2.6,12.7-5.7,17.5,1.3c4.1,5.9,3.2,13,0.4,20.3c-5.1,12.9,4.5,17,13.4,22.2c7.5,4.4,16.5,0.2,23.4-5.8
										c6.1-5.2,0.8-12.7,0.2-19.1c-0.5-4.5-2.6-9.3,1-12.9c3.8-3.7,7,0.3,9.8,2.6c5.6,4.6,11.2,5.6,18.1,2.4
										c6-2.8,12.2-2.2,16.1,4.8c3.9,6.9,2.6,14.9-0.6,22.1c-13,29-27.5,58.3-40.2,86.6c-5.5,12.1-19.7,15.3-31.1,19.1
										c-11.4,3.8-12.7,16.1-8.6,25.8c1.7,4,3.7,6.9,7.3,5.8c14.4-4.6,25.4,6.5,35.2,14.5c7.5,6.1,18.1,10.4,28,6.2
										c11.8-5.1,21.1-3.7,31.9,3.9c8.4,6,20.2,14.9,31.4,12.6c14.6-3,18.9,39.1,15.2,49.5c-10.1,28.7-23.3,59.1-36.5,87
										c-7.2,15.2-9.4,30.9-5.4,46.6c2,7.9,3.3,17,4.6,25.7c0.8,5.4,4.1,12.1,0.9,15.9c-3.9,4.8-8.8-0.9-12.6-3.7
										c-13.2-9.3-20.6-25.5-23.5-40.8c-2.2-11.4-4.8-23.1-6.2-34.5c-2.9-22.7-9-47-28.6-61.5c-17.7-14.3-21.5-54.1-14.3-73.4
										c1.9-5,9-10.1,4.3-16.2c-4.9-6.4-11.4-14.8-18.9-12.5c-15.3,4.7-30.8-5.8-41.6-15.5c-10.5-9.5-21.1-19-33-26.8
										c-17.5-11.3-21-33.2-25.9-51.3c-4.2-15.4-24.8-33.7-40.9-32.9C487.5,1623.5,482.7,1636.6,476.7,1645.6z"/>
								</g>
								<g>
									<path class="st11" d="M1298.6,1692c0.1,0.5,0.3,0.9,0.3,1.4c0.1,7.1,7.5,14.9,0.6,20.7c-6.5,5.5-19.2,10.7-27.5,5.4
										c-12.9-5.2-18.2-4.8-30,0.6c-9.6,4.4-21.4,3.3-27.8-6.2c-7.4-10.4-5.7-23.7-0.7-34.6c7.8-17,26.2-33.9,45.7-31.3
										C1278.5,1650.5,1294.1,1674.1,1298.6,1692z"/>
								</g>
								<g>
									<path class="st11" d="M742.2,1436.9c4.8-2.2,9.9-4.5,14.4-6.4c9.6-4.2,26.7-16.7,34-1.3c10.5,22.1,11.5,42,2.2,63.1
										c-8,18-17.5,37.2-25.3,56.2c-6.5,16-13.2,17.5-23.2,7.5c-5.7-5.8-12.4-11.2-14.2-19.9c-2.9-14.3-12.4-25.6-24.3-33.3
										c-6.6-4.3-13.6-10.4-10.3-23.1c2.9-11,6.4-24.8,18-29.6C722.9,1446,732.7,1441.4,742.2,1436.9
										C742.2,1437,742.2,1437,742.2,1436.9z"/>
								</g>
								<g>
									<path class="st11" d="M660.2,1535.6c-8.3,4.2-15.3,7.1-22.4,3.5c-3-1.5-5.4-4.2-5.7-8.1c-0.4-5.2,3.8-5.9,6.6-7.3
										c4.8-2.4,9.7-4.3,14.5-6.5c8.6-4,18.2-5.8,20,6.8C674.9,1535.6,663.5,1531.2,660.2,1535.6z"/>
								</g>
								<g>
									<path class="st11" d="M1154.7,1617.7c11.4-0.1,27.3,9.6,32.1,18.5c3.1,5.7-2.1,8.4-5,8.7c-8.6,0.8-27.7-11.2-32.1-19.3
										C1148.2,1622.6,1150,1619.3,1154.7,1617.7z"/>
								</g>
								<g>
									<path class="st11" d="M1020.9,1790c-1.1-9.8-0.9-22.4,8.7-27.9c7.2-4.1,7.4,6.1,8.3,11.8c1.6,9.8,1.6,22.4-8.4,27.9
										C1021.4,1806.1,1023.1,1795.2,1020.9,1790z"/>
								</g>
								<g>
									<path class="st11" d="M1244.1,1454.8c0.8,11.9-11.7,33.6-21,35.2c-2.4,0.4-6.3-2.7-4.8-5.7c4.8-10.7,9.1-23.9,19.4-30
										C1239.4,1453.1,1243.5,1451.6,1244.1,1454.8z"/>
								</g>
								<g>
									<path class="st11" d="M1225.6,1633.7c-3.4-0.4-10.4,7.4-11.7-3.6c-1.4-11.8,6.4-15.4,14.3-16.5c4.2-0.6,10.9-6.3,12.4,1.8
										C1243,1625.7,1235.1,1632.8,1225.6,1633.7z"/>
								</g>
								<g>
									<path class="st11" d="M1324.8,1698.4c-0.8,3.6,6.4,9.3-1.3,10.7c-8,1.5-11.5-6-12.7-13.6c-0.7-4.4-5.6-11.7,0.7-13.1
										C1322.4,1679.8,1321.9,1691.4,1324.8,1698.4z"/>
								</g>
								<g>
									<path class="st11" d="M844.1,1510.6c1.5,8.3,4.3,20.7-4.9,25.4c-5.8,3-5.9-5.9-6.4-10.6c-0.9-8.3-4.5-21.1,4-26.5
										C844.1,1494.3,841.1,1508.2,844.1,1510.6z"/>
								</g>
								<g>
									<path class="st11" d="M1196.9,1587.4c1.4,8.5,3,17.1-5.6,19.2c-6.8,1.7-5.6-6.8-6.9-11.5c-2.3-8-0.1-15.5,5.7-17.8
										C1197.3,1574.4,1195,1584.1,1196.9,1587.4z"/>
								</g>
								<g>
									<path class="st11" d="M827.8,1530.4c0.8,5.5-0.1,9.7-4.7,11.4c-3.1,1.2-5.4,0-6.2-4.2c-1-5.3,0.4-9.8,4.2-12.4
										C825.1,1522.4,826.8,1525.9,827.8,1530.4z"/>
								</g>
							</g>
							<g>
								<g>
									<g>
										<path class="st12" d="M976,1888.3c-10.7,0-18.3-8.7-20.5-18.1c-1.6-6.9-2.8-14.3-4-21.3l-0.8-5
											c-0.2-12-5.9-23.5-15.3-30.9c-13-10.1-15-28.9-16-45.6c-0.4-6.4-2.6-11.5-5.9-13.2c-2.4-1.3-5.5-0.9-9.2,1.3
											c-10.2,6.1-22.1,6.4-34.5,0.9c-17.3-7.7-32.3-25.9-35.7-43.3c-3.9-26.9,2.7-51.3,20.8-76.9c11.6-16.4,33.7-20.8,51.4-10.4
											c6.8,4,15,1.9,20.7-0.5c14.5-6.1,29.2-21.4,32.1-33.4c0.7-3,0.7-4.9,0.4-5.6c-2.8-7.7-10-13.2-18.9-14.2
											c-8.6-1-16.7,2.4-20.9,8.9c-7.5,11.6-21.4,14.6-32.9,7.3c-7.2-4.6-12.7-6.2-16.8-4.9c-5.6,1.7-9.7,8.9-14.2,19.2
											c-0.6,1.3-1,2.9-1.5,4.4c-1.4,4.5-2.8,9.1-6.5,10.3c-2,0.7-4.3,0.1-6.6-1.6c-8.5-6.2-14.4-17.6-9.2-27.2
											c13.7-25.6,23.2-47,29.8-67.2c0.7-2.1,3-5.1,5.5-5.2c17.4-0.5,21.3-17.8,25.1-34.6c1.2-5.1,2.3-10,3.8-14.2
											c1.9-5.3,0.9-7.1-1.9-9.2c-0.7-0.5-1.4-0.8-1.7-0.7c-0.4,0.1-1.3,0.8-2.7,3.9l-3.3,7.4c-2.1,4.8-4.3,9.5-6.4,14.3
											c-0.3,0.7-0.6,1.5-0.9,2.3c-1.3,3.5-3.2,8.7-8.6,7.5c-6.4-1.4-8.9-9-8.1-15.4c1.4-10.9,5.7-31.3,18.6-46
											c8.9-10.1,24.6-16,36.2-7c11.5,9,21.2,9.8,37.1,3.2c7-2.9,13.9-5.9,20.9-7.4c10.4-2.3,18.8-10,22.3-20.7
											c4.2-12,14.7-20.3,27.4-21.7c6.8-0.8,10.8-4.2,13.1-11.4c5-15.4,18.1-27.2,35-31.5c25.7-6.5,43.5-1.8,57.7,15.3
											c2.6,3.1,5.2,2.9,9.4,2.2l1.5-0.2c4.6-0.6,9.2-1.1,13.9-1.7c6.7-0.8,13.7-1.5,20.1-2.6c9.1-1.5,21.2,3.5,26.4,11.1
											c2.2,3.2,4.8,4.4,9.1,4.1c3.2-0.2,6.5-0.2,9.8-0.2c2.4,0,4.8,0,7-0.1c13.7-0.6,19.7,3.1,25.8,15.6l0.2,0.7
											c2,12.9-7.7,28.1-19.2,30.1c-3.4,0.6-7.2,0.8-10.8,0.6c-3.1-0.2-5.1,0.4-6.3,1.7c-1.8,2-2,6.4-0.7,13.4
											c5.5,29.5-8.5,67.7-37.3,75.3c-5.9,1.6-8.9,2.8-6.9,12.5c1.7,8.2,1.1,14.7-1.8,19.9c-8.4,14.6-11.3,28.3-8.7,40.8
											c1.3,6.4-1,12.4-6,15.6c-5,3.3-11.3,3-16.6-0.7c-10-7-20.4-15.2-30.8-24.4c-2.9-2.6-5.2-3.7-6.9-3.3
											c-1.9,0.4-3.8,3-5.7,7.7c-1.6,4-3.6,7.9-5.5,11.8c-2.5,5.1-4.9,9.9-6.5,14.6c-2.5,7.6-7.5,13-13.3,14.4
											c-3.4,0.8-8.5,0.7-14.1-4.7c-10.6-7.9-16.2-11-27.8-9c-4.9,0.8-10.2-1.1-15.1-5.3c-1.5-1.3-4.2-3.8-5.5-3.4
											c-0.5,0.1-1.4,1.1-2.2,3.5c-1.3,3.9,0,4.6,2.9,6.1c1.2,0.6,2.5,1.2,3.5,2.2c4.2,4,8.9,7.5,13.4,10.9l2.9,2.1
											c5,3.7,8,8.5,8.6,13.7c0.7,5.5-1.2,11.2-5.5,16.6c-5.4,6.7-12.7,11.1-19.6,11.9c-5.2,0.6-10.1-0.9-14.4-4.4
											c-3.7-2.8-7.5-5.7-11.2-8.6c-3.4-2.6-6.8-5.3-10.2-7.8c-0.5-0.4-1-0.8-1.5-1.2c-0.9-0.8-2.4-2-2.9-1.8
											c-0.1,0-1,0.3-2.5,3.3c-2.5,5.2-1.2,6.1,1.5,7.8c0.6,0.4,1.3,0.8,1.8,1.3c10.3,8.2,24,18.9,38,29.3
											c12.1,8.9,15.2,25.2,7.4,38.1c-12.7,20.8-15,45.5-7.1,78c2.5,10.5,4.6,21.8,6.4,35.5c3.3,24-9.8,60.3-38.8,65.1
											C977.9,1888.2,976.9,1888.3,976,1888.3z M955.4,1843.6l0.8,4.5c1.2,7,2.4,14.3,4,21.1c1.8,7.8,8.2,15.6,18.1,14.2
											c25.7-4.2,37.8-38.2,34.8-59.7c-1.8-13.6-3.8-24.7-6.3-35.1c-8.2-33.8-5.7-59.7,7.7-81.6c6.5-10.7,3.9-24.3-6.1-31.7
											c-14.1-10.4-27.8-21.2-38.2-29.4c-0.5-0.4-1-0.7-1.5-1c-3-2-7.6-4.9-3.2-13.9c1.7-3.5,3.5-5.4,5.8-5.9
											c2.8-0.6,5.1,1.3,6.9,2.8c0.4,0.4,0.8,0.7,1.3,1c3.4,2.6,6.9,5.2,10.3,7.9c3.7,2.9,7.5,5.8,11.2,8.6c3.4,2.7,7,3.9,11,3.4
											c5.6-0.6,11.8-4.4,16.4-10.1c3.5-4.3,5-8.8,4.5-13c-0.5-3.9-2.8-7.5-6.8-10.5l-2.8-2.1c-4.7-3.5-9.5-7-13.9-11.2
											c-0.5-0.5-1.4-0.9-2.3-1.4c-3-1.5-7.9-4-5.3-11.9c1.3-3.8,3.1-5.9,5.5-6.6c3.7-1,7.2,2,9.9,4.5c3.7,3.3,7.7,4.8,11.1,4.2
											c13.4-2.3,20.2,1.5,31.7,10.1c3.4,3.3,6.6,4.5,9.8,3.7c4.1-1,8-5.3,9.9-11.2c1.7-5.1,4.3-10.2,6.8-15.3
											c1.9-3.8,3.8-7.7,5.3-11.5c2.6-6.4,5.4-9.7,9-10.6c3.3-0.8,6.9,0.6,11.1,4.4c10.2,9.1,20.4,17.2,30.3,24
											c3.7,2.6,7.9,2.8,11.3,0.6c3.3-2.2,4.8-6.3,3.9-10.7c-2.8-13.7,0.3-28.6,9.3-44.2c2.4-4.1,2.8-9.5,1.3-16.5
											c-2.6-12.2,1.8-15.8,10.3-18.1c26.2-6.9,38.9-42.3,33.8-69.8c-1.6-8.8-1.1-14.2,1.8-17.5c2.2-2.5,5.5-3.5,10.1-3.3
											c3.2,0.2,6.7,0,9.7-0.5c9-1.6,16.8-14,15.4-24.3c-5.2-10.6-9.4-13.1-21.1-12.6c-2.3,0.1-4.8,0.1-7.2,0.1
											c-3.1,0-6.4,0-9.4,0.2c-3.8,0.2-9.2-0.1-13.3-6.1c-4.1-6-14.4-10.3-21.7-9.1c-6.5,1.1-13.5,1.9-20.3,2.6
											c-4.6,0.5-9.3,1-13.8,1.7l-1.4,0.2c-3.9,0.6-9.3,1.4-13.8-3.9c-12.9-15.5-29.2-19.7-52.9-13.7
											c-15.3,3.9-27.1,14.5-31.6,28.3c-2.9,9-8.4,13.7-17.1,14.7c-10.9,1.2-19.9,8.3-23.4,18.5c-4.1,12.2-13.7,21.2-25.8,23.8
											c-6.5,1.4-13.3,4.3-19.8,7c-15.1,6.3-27.2,7.9-42.1-3.7c-9.3-7.2-22.2-2.1-29.6,6.4c-12,13.7-16.1,33.1-17.4,43.4
											c-0.6,4.3,1,9.3,4.4,10.1c1,0.2,1.6-0.7,3-4.5c0.3-0.9,0.7-1.8,1.1-2.6c2.2-4.7,4.3-9.5,6.4-14.2l3.3-7.4
											c1.3-2.8,3-5.8,5.8-6.6c1.8-0.5,3.8,0,5.8,1.4c5,3.6,6,7.9,3.6,14.7c-1.4,3.9-2.5,8.6-3.6,13.6
											c-3.8,16.8-8.6,37.7-29.6,38.3c0,0.1-0.9,1.2-1.1,1.9c-6.7,20.5-16.3,42.1-30.1,67.9c-3.9,7.3,1,16.1,7.8,21.1
											c1,0.7,1.9,1.1,2.3,0.9c1.3-0.4,2.6-4.5,3.4-7.2c0.5-1.7,1.1-3.5,1.7-4.9c5.1-11.8,9.8-19.6,17.1-21.8
											c5.6-1.7,12.2,0,20.8,5.4c9.2,5.9,20.3,3.4,26.3-5.9c5.3-8.1,15-12.3,25.5-11.1c10.7,1.3,19.4,7.9,22.8,17.4
											c0.7,2,0.6,4.8-0.3,8.4c-3.3,13.5-19,30-34.9,36.7c-9.7,4.1-18.3,4.2-25,0.2c-15.6-9.2-35-5.3-45.1,9
											c-17.3,24.6-23.7,47.9-20,73.4c3.1,15.9,16.9,32.6,32.9,39.7c7.6,3.4,18.9,6,30.1-0.7c6.5-3.9,11.1-2.9,13.9-1.4
											c4.8,2.6,8,9,8.5,17.2c0.9,15.7,2.7,33.2,14.1,42.1C948.7,1817.4,955.1,1830.2,955.4,1843.6z"/>
									</g>
									<g>
										<path class="st12" d="M737.3,1996.2c-3.1,0-5.9-2.3-8.5-4.3c-0.7-0.6-1.4-1.2-2.1-1.7c-12.1-8.6-21-24-24.5-42.4
											c-0.6-3.1-1.2-6.1-1.8-9.2c-1.7-8.4-3.4-17-4.4-25.4c-2.6-20.2-8-45.3-27.7-59.9c-19.1-15.4-22.3-56.8-15.1-76.1
											c0.7-1.8,1.8-3.4,2.8-5c2.8-4.2,3.8-6.3,1.8-9c-4.1-5.4-10.3-13.5-16.3-11.7c-12.9,4-27.7-1.4-43.9-16
											c-10.2-9.2-20.8-18.7-32.7-26.6c-16-10.4-20.8-29.1-25.1-45.6c-0.6-2.4-1.2-4.8-1.9-7.1c-3.9-14.3-23.2-31.9-38.5-31.1
											c-8.2,0.4-12.8,8.3-17.2,15.9c-1.2,2-2.3,3.9-3.5,5.8l-2.5,3.8l-1.7-4.3c-5.7-14.4-6.4-25.6-2.2-34.3
											c3.8-7.7,11.5-13.4,23.1-16.9c37.1-12.9,74.9-27.2,112.2-42.6l1-0.4c5.8-2.4,13.8-5.7,19.5,2.5c4.1,5.9,4.3,13.3,0.6,22.5
											c-3.7,9.5,1.2,12.9,10.2,18l2.2,1.3c7.4,4.3,16.1-1.6,20.6-5.5c3-2.6,2.3-5.9,0.8-10.9c-0.6-2-1.2-4-1.4-6.1
											c-0.1-0.9-0.3-1.9-0.5-2.9c-0.7-3.7-1.6-8.3,2.2-12c4.8-4.8,9.4-0.7,11.9,1.4c0.4,0.3,0.8,0.7,1.2,1
											c5.2,4.2,9.8,4.8,15.6,2.1c7.9-3.7,15.1-1.6,19.2,5.8c3.8,6.7,3.6,15.1-0.5,24.2c-6.7,15-13.9,30.2-20.9,44.9
											c-6.5,13.8-13.2,28-19.4,41.6c-5.3,11.8-17.7,15.7-28.7,19.1c-1.3,0.4-2.6,0.8-3.8,1.2c-3.7,1.2-6.3,3.5-7.7,6.7
											c-2,4.3-1.7,10.3,0.6,15.9c2.2,5.2,3.5,4.7,4.4,4.4c14.2-4.5,25.3,4.9,34.3,12.4c1,0.9,2.1,1.7,3.1,2.6
											c8.5,6.9,18,9.1,25.6,5.8c12.4-5.3,22.6-4.1,34.2,4.2l1.2,0.8c7.9,5.6,18.7,13.4,28.4,11.4c2.5-0.5,6.3-0.3,9.9,3.9
											c9.3,10.7,11.1,40,8,48.8c-9.1,25.9-21.8,56.1-36.6,87.3c-7.2,15.2-9,30.3-5.3,45c2.1,8.2,3.5,18,4.6,25.9
											c0.2,1.4,0.6,2.9,1,4.4c1.2,4.5,2.5,9.6-0.5,13.4c-1.3,1.6-2.9,2.5-4.6,2.7C737.7,1996.2,737.5,1996.2,737.3,1996.2z
											 M643.4,1746.5c7.7,0,13.9,8.2,18.2,13.9c4.3,5.7,0.9,10.8-1.6,14.5c-1,1.4-1.9,2.8-2.3,4c-6.7,18.2-3.3,57.1,13.6,70.7
											c21,15.5,26.8,41.9,29.5,63c1,8.2,2.7,16.8,4.4,25.1c0.6,3.1,1.2,6.2,1.8,9.3c3.2,17.1,11.5,31.5,22.5,39.3
											c0.8,0.5,1.6,1.2,2.4,1.8c1.9,1.5,4.2,3.4,5.6,3.2c0.2,0,0.7-0.1,1.4-1c1.5-1.9,0.6-5.6-0.4-9.2c-0.4-1.7-0.9-3.4-1.1-4.9
											c-1.1-7.8-2.5-17.5-4.5-25.4c-4-15.8-2.1-32,5.6-48.2c14.7-31.1,27.3-61.1,36.4-86.8c2.7-7.6,0.6-35.2-7.1-44.1
											c-2.3-2.6-4.1-2.6-5.4-2.3c-11.7,2.4-23.5-6-32.1-12.2l-1.1-0.8c-10.2-7.2-18.7-8.3-29.5-3.7c-9.2,4-20.6,1.5-30.5-6.5
											c-1-0.8-2.1-1.7-3.1-2.6c-8.9-7.5-18.1-15.2-29.8-11.5c-6.3,2-9.2-4.6-10.2-7.1c-2.9-6.8-3.1-14.2-0.6-19.7
											c2-4.4,5.7-7.6,10.6-9.3c1.3-0.4,2.6-0.8,3.9-1.2c10.5-3.3,21.3-6.7,25.8-16.6c6.2-13.7,12.9-27.9,19.4-41.7
											c6.9-14.7,14.1-29.9,20.8-44.8c2.4-5.4,4.5-13.2,0.7-19.9c-2.9-5.2-7.3-6.5-13-3.8c-7.5,3.5-14,2.7-20.6-2.7
											c-0.4-0.3-0.9-0.7-1.3-1.1c-3.3-2.9-4-2.9-5.3-1.6c-1.8,1.8-1.5,4.1-0.8,7.8c0.2,1.1,0.4,2.2,0.5,3.2
											c0.2,1.6,0.7,3.3,1.2,5.2c1.5,5,3.3,11.2-2.2,15.9c-9.4,8.1-18.9,10.2-26.1,6l-2.1-1.2c-8.3-4.7-17.7-10.1-12.3-23.9
											c3.1-7.8,3-13.5-0.1-18c-3.3-4.8-7.2-3.6-13.7-0.8l-1,0.4c-37.4,15.4-75.3,29.8-112.6,42.7c-10.5,3.2-17.1,7.9-20.3,14.5
											c-3.2,6.6-3,15.1,0.6,25.9c0.3-0.5,0.5-0.9,0.8-1.4c4.8-8.3,10.3-17.7,21.1-18.2c17.8-0.8,38.9,18.6,43.3,34.7
											c0.6,2.3,1.3,4.7,1.9,7.1c4.2,16.4,8.6,33.4,23.1,42.8c12.2,8,23,17.7,33.3,27c14.9,13.4,28.1,18.4,39.3,15
											C641.2,1746.7,642.3,1746.5,643.4,1746.5z"/>
									</g>
									<g>
										<path class="st12" d="M1230.9,1724.9c-7,0-14-2.8-18.6-9.8c-6.9-9.6-7.2-23.1-0.9-36.9c8.4-18.3,27.7-35.4,48.2-32.7
											c21.4,2.8,37.1,28.5,41.4,45.8l0,0l-2.3,0.6l2.4-0.3c0.1,0.4,0.3,1,0.3,1.6c0,2,0.8,4.3,1.7,6.7c1.7,4.9,3.9,11-1.9,15.8
											c-6.5,5.5-20.5,11.8-30.3,5.5c-12.1-4.9-16.6-4.3-27.8,0.8C1239.3,1723.9,1235.1,1724.9,1230.9,1724.9z M1255.3,1650.1
											c-16.7,0-32.6,15-39.6,30.2c-2.7,5.8-7.9,20.5,0.5,32.2c6,8.9,16.8,9.1,24.9,5.4c12.1-5.5,18-6.3,31.9-0.7
											c7.6,4.9,19.2,0,25-5c3.1-2.6,2.2-5.5,0.4-10.6c-0.9-2.7-1.9-5.4-1.9-8.3l-0.2-0.8c-4.6-18.5-20.2-40-37.4-42.2
											C1257.7,1650.2,1256.5,1650.1,1255.3,1650.1z"/>
									</g>
									<g>
										<path class="st12" d="M755.2,1564.6c-3.8,0-7.8-2.3-12.5-7c-0.8-0.8-1.6-1.6-2.4-2.4c-5.3-5.2-10.8-10.5-12.4-18.8
											c-3.3-15.9-14.5-26.1-23.3-31.8c-7.2-4.6-15-11.8-11.3-25.8l0.1-0.5c3-11.4,6.7-25.5,19.2-30.7c6.6-2.7,13.4-5.9,20.1-9
											c2.3-1.1,4.6-2.1,6.9-3.2v0l3-1.5c4.4-2,9-4.1,13.1-5.8c1.5-0.7,3.3-1.6,5.2-2.5c7.2-3.7,16.1-8.2,23.6-5.7
											c3.6,1.2,6.4,3.9,8.4,8.1c11,23.1,11.6,43.8,2.2,65.1c-2.9,6.5-6,13.2-9.1,20c-5.5,11.8-11.2,24.1-16.1,36.2
											c-3.8,9.3-7.8,14.1-12.7,15.1C756.4,1564.6,755.8,1564.6,755.2,1564.6z M744.9,1438.3L744.9,1438.3l-1.7,0.8
											c-2.8,1.3-5.7,2.6-8.5,3.9c-6.7,3.1-13.6,6.3-20.3,9c-10.3,4.3-13.7,17.1-16.4,27.5l-0.1,0.5c-2.7,10.3,1.7,15.7,9.2,20.5
											c9.6,6.2,21.8,17.3,25.4,34.9c1.4,6.8,6.1,11.4,11.1,16.3c0.8,0.8,1.7,1.6,2.5,2.5c4.2,4.2,7.5,6,10,5.5
											c3-0.6,6.1-4.7,9.2-12.2c5-12.2,10.7-24.5,16.2-36.4c3.1-6.8,6.2-13.4,9.1-19.9c8.9-19.9,8.2-39.3-2.1-61.1
											c-1.4-3-3.2-4.8-5.6-5.6c-5.5-1.9-13.5,2.2-19.9,5.4c-2,1-3.8,1.9-5.4,2.7C753.6,1434.4,749.2,1436.4,744.9,1438.3z"/>
									</g>
									<g>
										<path class="st12" d="M644.6,1543.1c-2.6,0-5.2-0.6-7.8-1.9c-4.1-2.1-6.6-5.7-7-10c-0.5-6.1,3.9-8,6.5-9.1
											c0.5-0.2,0.9-0.4,1.4-0.6c2.8-1.4,5.7-2.6,8.6-3.9c2-0.9,4-1.7,6-2.7c7.5-3.5,13.1-4.1,17.2-1.9c3.3,1.8,5.4,5.4,6.1,10.6
											c1.4,9.7-5.3,11-9.3,11.8c-1.8,0.3-3.6,0.7-4.2,1.5l-0.8,0.7C655.7,1540.6,650.1,1543.1,644.6,1543.1z M663.9,1516.6
											c-2.5,0-5.7,0.9-9.7,2.7c-2,1-4.1,1.8-6.2,2.7c-2.8,1.2-5.6,2.4-8.3,3.8c-0.5,0.3-1.1,0.5-1.6,0.7
											c-2.9,1.2-3.8,1.8-3.6,4.3c0.3,3.5,2.9,5.4,4.4,6.1c5.6,2.8,11.1,1.1,19.8-3.3c1.7-1.9,4.4-2.4,6.7-2.9
											c4.1-0.8,6.2-1.2,5.5-6.5c-0.5-3.6-1.8-6-3.7-7C666.3,1516.8,665.2,1516.6,663.9,1516.6z"/>
									</g>
									<g>
										<path class="st12" d="M1181,1647.3c-10.1,0-28.8-12.3-33.3-20.6c-1-1.8-1.1-3.9-0.4-5.7c1-2.4,3.3-4.4,6.7-5.5l0.7-0.1
											c0.1,0,0.1,0,0.2,0c11.8,0,28.6,9.7,34,19.7c1.9,3.4,1.3,6.1,0.4,7.6c-1.5,2.8-4.7,4.3-7.3,4.6
											C1181.7,1647.3,1181.4,1647.3,1181,1647.3z M1155.1,1620.1c-1.7,0.6-3,1.6-3.4,2.6c-0.2,0.6-0.2,1.1,0.2,1.7
											c4.2,7.6,22.5,18.8,29.7,18.1c1.2-0.1,2.9-0.9,3.5-2c0.2-0.3,0.6-1.2-0.4-3.1C1180.6,1629.7,1165.9,1620.2,1155.1,1620.1z
											"/>
									</g>
									<g>
										<path class="st12" d="M1026.3,1805.2c-0.8,0-1.6-0.2-2.3-0.5c-3-1.4-3.6-5.2-4.2-8.9c-0.3-1.8-0.6-3.6-1.1-4.8l-0.2-0.7
											c-0.6-5.7-2.6-23.2,9.9-30.2c2.5-1.4,4.7-1.6,6.5-0.7c3.6,1.8,4.3,7.1,5,11.8c0.1,0.8,0.2,1.6,0.3,2.4
											c3.1,19.1-3.5,27-9.6,30.4C1029,1804.7,1027.6,1805.2,1026.3,1805.2z M1023.2,1789.4c0.7,1.7,1,3.7,1.3,5.6
											c0.3,1.7,0.8,5,1.6,5.4c0.2,0.1,0.8,0.1,2.2-0.7c6.9-3.8,9.3-12.3,7.2-25.4c-0.1-0.8-0.2-1.6-0.4-2.5
											c-0.3-2.6-1-7.5-2.4-8.1c-0.3-0.2-1.1,0-2.1,0.6C1024.2,1767.8,1021.7,1776.1,1023.2,1789.4z"/>
									</g>
									<g>
										<path class="st12" d="M1222.6,1492.4c-2.1,0-4.4-1.2-5.8-3.1c-1.4-1.9-1.7-4.1-0.7-6.1c0.6-1.5,1.3-3.1,2-4.7
											c4.1-9.7,8.8-20.7,18.3-26.4c1-0.6,4.6-2.5,7.5-1.2c1.4,0.6,2.3,1.8,2.6,3.4l0,0.3c0.9,12.4-12.1,35.8-23,37.7
											C1223.2,1492.4,1222.9,1492.4,1222.6,1492.4z M1241.7,1455.1c-0.2,0.1-1.6,0.4-2.9,1.2c-8.1,4.8-12.3,14.7-16.3,24.1
											c-0.7,1.6-1.4,3.3-2.1,4.8c-0.1,0.2-0.3,0.6,0.2,1.2c0.6,0.8,1.7,1.2,2.1,1.2C1230.5,1486.3,1242.4,1466,1241.7,1455.1
											C1241.7,1455.1,1241.7,1455.1,1241.7,1455.1z"/>
									</g>
									<g>
										<path class="st12" d="M1217.8,1638.4c-0.9,0-1.8-0.2-2.7-0.7c-2-1.1-3.2-3.5-3.6-7.3c-0.9-7.6,1.2-17.1,16.3-19.1
											c0.8-0.1,2-0.6,3.1-1c2.7-1.1,5.8-2.3,8.6-0.8c1.7,1,2.9,2.8,3.4,5.5c1.2,4.8,0.4,9.4-2.4,13.2c-3.1,4.4-8.5,7.3-14.7,7.9
											l-0.3,0l-0.2,0c0,0,0,0,0,0c-0.4,0-1.6,0.5-2.4,0.9C1221.4,1637.7,1219.6,1638.4,1217.8,1638.4z M1236.6,1613.6
											c-1,0-2.7,0.7-4,1.2c-1.4,0.6-2.8,1.1-4.2,1.3c-9.3,1.3-13.2,5.6-12.2,13.8c0.4,3.2,1.2,3.7,1.3,3.8
											c0.6,0.3,2.4-0.5,3.5-1c1.5-0.7,3.1-1.3,4.6-1.3c4.7-0.5,8.8-2.7,11.1-5.9c1.9-2.7,2.4-5.9,1.6-9.4
											c-0.4-1.9-0.9-2.3-1-2.4C1237,1613.6,1236.8,1613.6,1236.6,1613.6z"/>
									</g>
									<g>
										<path class="st12" d="M1321.6,1711.6c-2.3,0-4.3-0.6-6.2-1.9c-4.4-3.1-6.2-9.3-6.9-13.9c-0.1-0.9-0.6-2.1-1-3.4
											c-1.1-3.1-2.3-6.6-0.8-9.4c0.8-1.5,2.3-2.5,4.3-2.9c10.5-2.4,12.9,6.5,14.4,12.4c0.5,1.9,1,3.6,1.6,5.1l0.3,0.7l-0.2,0.8
											c-0.1,0.5,0.6,2,1,2.8c0.9,1.9,2,4.4,0.9,6.6c-0.8,1.6-2.4,2.5-5,3C1323.1,1711.5,1322.3,1711.6,1321.6,1711.6z
											 M1314.3,1684.3c-0.7,0-1.4,0.1-2.2,0.3c-0.4,0.1-1,0.3-1.2,0.6c-0.5,0.9,0.4,3.7,1.1,5.6c0.5,1.4,1,2.9,1.2,4.3
											c0.8,5.3,2.6,9.1,5,10.8c1.4,1,3,1.3,4.9,0.9c1.3-0.2,1.7-0.6,1.7-0.6c0-0.3-0.6-1.6-1-2.4c-0.7-1.5-1.5-3.3-1.4-5.1
											c-0.6-1.6-1.1-3.4-1.5-5.1C1319.2,1687.3,1318,1684.3,1314.3,1684.3z"/>
									</g>
									<g>
										<path class="st12" d="M837.1,1539.1c-1,0-1.8-0.3-2.3-0.6c-3.3-1.8-3.8-7-4.2-11.1l-0.2-1.6c-0.1-1.3-0.3-2.6-0.6-4
											c-1.2-8.2-2.9-19.3,5.6-24.8c2.2-1.4,4.1-1.7,5.7-0.9c2.8,1.3,3.2,4.9,3.6,8.4c0.2,1.4,0.5,3.9,0.9,4.4l0.7,0.6l0.3,2.1
											c1.6,8.5,3.9,21.4-6.4,26.7C839.1,1538.9,838,1539.1,837.1,1539.1z M839.1,1500.4c-0.1,0.1-0.4,0.2-1,0.6
											c-5.9,3.8-4.6,12.4-3.5,20.1c0.2,1.5,0.4,2.9,0.6,4.2l0.2,1.7c0.2,1.9,0.6,6.8,1.7,7.4c0,0,0.4,0,1.1-0.3
											c6.6-3.4,5.7-11.8,3.9-21.6l-0.1-0.6c-1.3-1.6-1.6-4.1-1.9-6.8C839.9,1503.6,839.6,1501.1,839.1,1500.4z"/>
									</g>
									<g>
										<path class="st12" d="M1189.7,1609.2c-1.3,0-2.4-0.3-3.4-1c-2.7-1.8-3.1-5.5-3.5-8.8c-0.2-1.3-0.3-2.5-0.6-3.6
											c-2.7-9.4,0.2-17.9,7.1-20.7c2.3-0.9,4.3-0.9,5.8,0c2.6,1.5,2.9,4.8,3.3,7.7c0.1,1.3,0.3,2.8,0.7,3.5l0.3,0.8l-2.4,0.4
											l2.4-0.1c1.4,8.4,3.2,18.9-7.4,21.6C1191.1,1609.1,1190.4,1609.2,1189.7,1609.2z M1192.4,1579.2c-0.2,0-0.7,0.1-1.4,0.4
											c-4.6,1.8-6.4,8-4.3,15c0.4,1.3,0.6,2.9,0.8,4.3c0.3,2,0.6,4.8,1.5,5.5c0.4,0.3,1.3,0.1,1.8,0c5.7-1.4,5.5-6.2,3.9-16.1
											c-0.6-1.4-0.8-3.1-1-4.8c-0.1-1.2-0.4-3.8-1-4.1C1192.6,1579.2,1192.6,1579.2,1192.4,1579.2z"/>
									</g>
									<g>
										<path class="st12" d="M820.9,1544.6c-1,0-2-0.2-2.9-0.7c-1.8-1-3-3-3.5-5.9c-1.2-6.4,0.7-11.8,5.2-14.8c2-1.4,4-1.7,5.7-1
											c2.9,1.1,4,4.7,4.7,7.7l0,0.2c1.1,7.3-1,12-6.3,14C822.8,1544.4,821.8,1544.6,820.9,1544.6z M823.6,1526.6
											c-0.1,0-0.5,0.1-1.2,0.6c-3.9,2.6-3.7,7.4-3.2,10c0.2,1.3,0.7,2.3,1.2,2.6c0.5,0.3,1.4,0,1.8-0.2c2.1-0.8,4.2-2.4,3.2-8.7
											C824.5,1526.9,823.7,1526.6,823.6,1526.6C823.6,1526.6,823.6,1526.6,823.6,1526.6z"/>
									</g>
								</g>
							</g>
						</g>
					</g>
				</g>
				<g class="st2">
					<path class="st3" d="M810.2,1813c-110.7-8.5-199.5-86.4-227.1-187.7c-4.1,15.2-6.9,31.1-8.1,47.4c-0.2,2.6-0.4,5.1-0.5,7.7
						c-6.4,137.4,97.6,255.9,235.7,266.4c138.1,10.6,258.9-90.7,273.4-227.5c0.3-2.6,0.5-5.1,0.7-7.7c2.3-29.9-0.7-59-8.1-86.4
						C1044.9,1741.3,934.6,1822.5,810.2,1813z"/>
				</g>
				<g class="st13">
					<g>
						<path class="st1" d="M575,1698.1c2.5-32.2,10.8-62.5,23.9-90.1c43.5-91.6,139.5-151.9,246.3-145.4c1.3,0.1,2.6,0.2,3.9,0.3
							c1.3,0.1,2.6,0.2,4,0.3c106.6,9.8,192.3,84,221.3,181.1c5.8,19.3,9.3,39.5,10.3,60.3c1.5-29.8-2.2-58.7-10.3-85.8
							c-29.1-97.1-114.7-171.3-221.3-181.1c-1.3-0.1-2.6-0.2-4-0.3c-1.3-0.1-2.6-0.2-3.9-0.3c-106.9-6.5-202.8,53.8-246.3,145.4
							c-13.1,27.5-21.4,57.9-23.9,90.1c-0.2,2.6-0.4,5.1-0.5,7.7c-0.4,8.3-0.4,16.6,0,24.8C574.7,1702.8,574.9,1700.4,575,1698.1z"
							/>
					</g>
				</g>
				<g>
					
						<ellipse transform="matrix(0.7071 -0.7071 0.7071 0.7071 -953.48 1082.2678)" class="st14" cx="829.7" cy="1692.1" rx="255.4" ry="255.4"/>
				</g>
				<g>
					<path class="st15" d="M764.6,1788.4"/>
				</g>
				<g>
					<path class="st3" d="M830,1958.6c-6.9,0-13.7-0.3-20.6-0.8c-69.6-5.3-133.3-37.1-179.5-89.4c-46.1-52.2-69.7-119.2-66.4-188.6
						c0.1-2.7,0.3-5.4,0.5-8c2.5-32.9,10.9-64.5,24.9-94c46.9-98.8,147.8-158.4,257-151.7c1.2,0.1,2.5,0.2,3.8,0.3
						c1.6,0.1,3.1,0.2,4.5,0.4c108.9,10,199.5,84.2,230.9,189c9.4,31.3,12.9,63.8,10.3,96.7l0,0c-0.2,2.7-0.4,5.4-0.7,8
						c-7.4,69.1-40.8,131.8-94.3,176.4C952.1,1937,892.3,1958.6,830,1958.6z M829.4,1447.8c-94.2,0-179.6,53.5-220.4,139.5
						c-12.8,27-20.5,56-22.8,86.2c-0.2,2.5-0.3,4.9-0.5,7.4c-6.2,132.8,92.8,244.7,225.4,254.8c132.6,10.1,247.5-85.5,261.5-217.6
						c0.3-2.4,0.5-4.9,0.7-7.4l0,0c2.3-30.1-0.9-60-9.5-88.6C1035.1,1526,952,1458,852.1,1448.8c-1.3-0.1-2.6-0.2-3.8-0.3
						c-1.4-0.1-2.5-0.2-3.7-0.3C839.5,1447.9,834.4,1447.8,829.4,1447.8z"/>
				</g>
			</g>
			<g>
				<g>
					<g>
						<path class="st16" d="M3385.2,1697.8c2.1,13.1,3.1,26,3,38.8c-0.1,20-2.7,39.6-7.6,58.4c-5,19.4-12.5,37.9-22.1,55.1
							c-34,61.2-94.8,106.7-169.3,118.7c-66.3,10.7-130.6-7.3-180.2-44.9c-17.5-13.2-33.1-28.8-46.4-46.4l0,0
							c-4.6-6.1-8.9-12.4-12.9-19c-4.8-7.8-9.1-15.9-13-24.3c-3.5-7.6-6.6-15.5-9.3-23.5c-4.1-12.2-7.2-24.8-9.3-37.9
							c-0.7-4.2-1.2-8.4-1.7-12.5c-0.9-8.9-1.4-17.7-1.3-26.4c0-11.9,1-23.7,2.8-35.2c5.6-35.9,19.4-69.5,39.6-98.6
							c35.4-50.8,90.6-87.8,156.6-98.4c69.7-11.2,137.2,9.3,187.8,50.9c14.4,11.9,27.5,25.4,38.8,40.5c4.6,6.1,8.9,12.4,12.9,18.9
							c5.2,8.4,9.8,17.2,13.9,26.4c4.3,9.6,8,19.6,11.1,29.9c1.6,5.6,3.1,11.3,4.3,17.1C3383.7,1689.4,3384.5,1693.6,3385.2,1697.8z
							"/>
					</g>
					<g>
						<path class="st17" d="M3372.8,1749.2c-7.9,99.4-82.7,184.2-185.5,200.7c-120.7,19.4-234.2-62.7-253.7-183.3
							c66.5,61.4,161.2,78.8,259.4,63.1C3265.4,1818.1,3327.8,1796.9,3372.8,1749.2z"/>
					</g>
					<g>
						<path class="st17" d="M3372.8,1749.2c-7.9,99.4-82.7,184.2-185.5,200.7c-120.7,19.4-234.2-62.7-253.7-183.3
							c66.5,61.4,161.2,78.8,259.4,63.1C3265.4,1818.1,3327.8,1796.9,3372.8,1749.2z"/>
					</g>
					<g>
						<path class="st18" d="M2988.5,1842.1c-16.1,4.7-28.5,11.1-38.8,16.5c-2.6-4.3-5.2-8.7-7.5-13.3c-0.8-1.6-1.6-3.1-2.4-4.7
							c-1-2.1-2-4.2-3-6.4c13.1-4.3,28.4-10.8,45.7-15.6c6-1.6,12.6-1.9,19.7-1.8c10.9,5.8,22.1,11,33.7,15.4
							C3013,1840.5,3005,1837.3,2988.5,1842.1z"/>
					</g>
					<g>
						<path class="st18" d="M3380.6,1795c-0.5,1.8-1,3.7-1.5,5.5c-0.3,1.2-0.7,2.3-1,3.4c-0.6,1.9-1.1,3.7-1.8,5.6
							c-0.6,1.7-1.1,3.3-1.7,5c-1.2,3.2-2.4,6.5-3.7,9.6c0,0.1-0.1,0.2-0.1,0.3c-0.6,1.5-1.3,3-1.9,4.5c-1.4,3.2-2.8,6.4-4.4,9.6
							c-0.7,1.6-1.5,3.1-2.3,4.7c-0.8,1.5-1.6,3.1-2.4,4.6c-0.4,0.8-0.9,1.6-1.3,2.4c-24.9,1-50,4.4-73.7,11
							c-41.5,11.5-52.2,45.7-121.4,33.3c-57.8-10.3-106.5-3.2-149.2,26.1c-1.7,1.2-3.4,2.3-5.2,3.4c-0.8-0.6-1.6-1.2-2.3-1.8
							c-1-0.8-2-1.6-3-2.4c-1-0.8-2-1.6-3-2.4c-2-1.6-3.9-3.2-5.8-4.9c-1.2-1.1-2.4-2.2-3.6-3.2c-0.1-0.1-0.2-0.2-0.3-0.3
							c-1.3-1.2-2.5-2.4-3.8-3.6c-0.1-0.1-0.2-0.2-0.2-0.2c-1.4-1.3-2.7-2.7-4-4c-1.1-1.1-2.2-2.2-3.2-3.3c-1.7-1.8-3.4-3.7-5.1-5.5
							c-1.1-1.2-2.2-2.5-3.3-3.7c-0.8-1-1.7-2-2.5-3c-1.3-1.5-2.5-3.1-3.7-4.7c-0.9-1.1-1.7-2.2-2.5-3.3c16.6,1.9,34.7,2,53.3-1
							c28.1-4.5,49.1-16.8,69.1-30c0,0,0,0,0,0c34.7,7,71.2,8,108.2,2c35.5-5.7,68.6-17.3,98.4-33.8c15.8,0.7,33.2-0.8,54-6.2
							C3359,1805.1,3370.6,1800.3,3380.6,1795z"/>
					</g>
					<g>
						<path class="st19" d="M3059.6,1822c-42.7,21-49.9,13.9-71.1,20.1c-16.1,4.7-28.5,11.1-38.8,16.5c-4.8-7.8-9.1-15.9-13-24.3
							c13.1-4.3,28.4-10.8,45.7-15.6c19.8-5.5,47.1,4.1,75.1-5.4C3090.9,1801.8,3076.7,1813.5,3059.6,1822z"/>
					</g>
					<g>
						<path class="st18" d="M3035.9,1832.3c-22.8,8.2-30.8,5-47.3,9.8c-16.1,4.7-28.5,11.1-38.8,16.5c-2.6-4.3-5.2-8.7-7.5-13.3
							c-0.8-1.6-1.6-3.1-2.4-4.7c-1-2.1-2-4.2-3-6.4c13.1-4.3,28.4-10.8,45.7-15.6c6-1.6,12.6-1.9,19.7-1.8
							C3013,1822.7,3024.3,1827.8,3035.9,1832.3z"/>
					</g>
					<g>
						<path class="st19" d="M3367.5,1638.4c-2.9,1-5.8,2.1-8.9,3.3c-68.1,26.2-126.3,0.7-131.2-1.4c-7.4-3,35.2-0.1,62.8-6.3
							c21.9-4.9,44-12.2,63.4-22C3358.8,1620.4,3363.4,1629.2,3367.5,1638.4z"/>
					</g>
					<g>
						<path class="st19" d="M3380.6,1795c-5,19.4-12.5,37.9-22.1,55.1c-24.9,1-50,4.4-73.7,11c-41.5,11.5-52.2,45.7-121.4,33.3
							c-57.8-10.3-106.5-3.2-149.2,26.1c-1.7,1.2-3.4,2.3-5.2,3.4c-17.5-13.2-33.1-28.8-46.4-46.4c16.6,1.8,34.7,2,53.3-1
							c71.7-11.5,97.8-73.5,177.1-74c54.2-0.3,86.8,23.5,152.6,6C3359,1805.1,3370.6,1800.3,3380.6,1795z"/>
					</g>
					<g>
						<path class="st19" d="M3380.6,1795c-5,19.4-12.5,37.9-22.1,55.1c-24.9,1-50,4.4-73.7,11c-41.5,11.5-52.2,45.7-121.4,33.3
							c-57.8-10.3-106.5-3.2-149.2,26.1c-1.7,1.2-3.4,2.3-5.2,3.4c-17.5-13.2-33.1-28.8-46.4-46.4c16.6,1.9,34.7,2,53.3-1
							c71.7-11.5,97.8-73.5,177.1-74c54.2-0.3,86.8,23.5,152.6,6C3359,1805.1,3370.6,1800.3,3380.6,1795z"/>
					</g>
					<g>
						<path class="st18" d="M3380.6,1795c-0.5,1.8-1,3.7-1.5,5.5c-0.3,1.2-0.7,2.3-1,3.4c-0.6,1.9-1.1,3.7-1.8,5.6
							c-0.6,1.7-1.1,3.3-1.7,5c-1.2,3.2-2.4,6.5-3.7,9.6c0,0.1-0.1,0.2-0.1,0.3c-0.6,1.5-1.3,3-1.9,4.5c-1.4,3.2-2.8,6.4-4.4,9.6
							c-0.7,1.6-1.5,3.1-2.3,4.7c-0.8,1.5-1.6,3.1-2.4,4.6c-0.4,0.8-0.9,1.6-1.3,2.4l0,0c-24.9,1-50,4.4-73.7,11
							c-41.5,11.5-52.2,45.7-121.4,33.3c-57.8-10.3-106.5-3.2-149.2,26.1c-1.7,1.2-3.4,2.3-5.2,3.4c-0.8-0.6-1.6-1.2-2.3-1.8
							c-1-0.8-2-1.6-3-2.4c-1-0.8-2-1.6-3-2.4c-2-1.6-3.9-3.2-5.8-4.9c-1.2-1.1-2.4-2.2-3.6-3.2c-0.1-0.1-0.2-0.2-0.3-0.3
							c-1.3-1.2-2.5-2.4-3.8-3.6c-0.1-0.1-0.2-0.2-0.2-0.2c-1.4-1.3-2.7-2.7-4-4c-1.1-1.1-2.2-2.2-3.2-3.3c-1.7-1.8-3.4-3.7-5.1-5.5
							c-1.1-1.2-2.2-2.5-3.3-3.7c-0.8-1-1.7-2-2.5-3c-1.3-1.5-2.5-3.1-3.7-4.7c-0.9-1.1-1.7-2.2-2.5-3.3c16.6,1.9,34.7,2,53.3-1
							c28.1-4.5,49.1-16.8,69.1-30c0,0,0,0,0,0c34.7,7,71.2,8,108.2,2c35.5-5.7,68.6-17.3,98.4-33.8c15.8,0.7,33.2-0.8,54-6.2
							C3359,1805.1,3370.6,1800.3,3380.6,1795z"/>
					</g>
					<g>
						<path class="st19" d="M3385.2,1697.8c2.1,13.1,3.1,26,3,38.8c-29,14.4-70.6,19.5-111.5,17c-46.9-2.9-92.2-12.2-132.8,11.2
							c-73.3,42.3-101.6,4.8-152.1,16.3c-28.2,6.4-48,18.9-64.4,29.6c-4.1-12.2-7.2-24.8-9.3-37.9c-0.7-4.2-1.2-8.4-1.7-12.5
							c-0.9-8.9-1.4-17.7-1.3-26.4c22.6,5,49.9,7.8,78.4,3.3c71.7-11.5,97.8-73.5,177.1-74c54.2-0.3,95,37.2,155.5,28
							c22.1-3.3,39.3-12.3,52.4-22.9c1.6,5.6,3.1,11.3,4.3,17.1C3383.7,1689.4,3384.5,1693.6,3385.2,1697.8z"/>
					</g>
					<g>
						<path class="st19" d="M3340.7,1593.1c-13.8-2-30.6-2-51.2,4.7c-43.1,14-89.3,34.3-167.8,28.3c-64.5-5-101.5,13.5-139.9,42
							c-21.7,16.1-41.8,26.8-63.9,30.7c5.6-35.9,19.4-69.5,39.6-98.6c4.5-0.4,9.1-0.9,13.7-1.7c71.7-11.5,114.9-40.7,182.8-52.3
							c52.7-9,101.6,9,147.9,6.4C3316.4,1564.5,3329.4,1578.1,3340.7,1593.1z"/>
					</g>
					<g>
						<ellipse class="st14" cx="3151.6" cy="1735.3" rx="236.5" ry="236.5"/>
					</g>
					<g>
						<path class="st16" d="M3227.5,1704.1c-22.2-10.9-42.4-19.9-62.6-18.3c-16.2,1.4-22.5,3-53.1,24.7
							c-24.7,17.5-59.2,36.1-39.7,44.6c16.3,7.1,39.1-19.9,76.5-24.7c40.1-5.2,59.6,1.7,77.3-2.9
							C3251.8,1720.8,3249.7,1715,3227.5,1704.1z"/>
					</g>
					<g class="st13">
						<g>
							<path class="st1" d="M2916.5,1760.3c0.5,2.3,1,4.5,1.5,6.8c-7.4-107.3,79.8-206.6,202.4-226.3
								c122.6-19.7,236.5,47.3,263.2,151.5c-0.2-2.3-0.4-4.6-0.7-6.9c-26.3-122.2-144-203.6-268.8-183.6
								C2989.3,1521.8,2903.1,1636.1,2916.5,1760.3z"/>
						</g>
					</g>
					<g class="st20">
						<path class="st1" d="M3246.8,1605.7c5.6,27.6,54.8,43.2,84.1,112.6c12.4,29.5,31.8-9.6-2.1-63.2
							C3297.4,1605.6,3242.8,1586.3,3246.8,1605.7z"/>
					</g>
					<g class="st20">
						<path class="st1" d="M3172.5,1579.1c7.8,7.1,28.4,6.7,48.2,15.8c21.2,9.7,33.1-3.5-0.1-25.9
							C3185.2,1545.1,3157.9,1565.7,3172.5,1579.1z"/>
					</g>
					<g>
						<path class="st18" d="M2961.9,1791.2c-13.4,6-24.5,13.1-34.4,19.5c-0.4-1.2-0.8-2.3-1.1-3.5c-0.3-0.9-0.6-1.9-0.9-2.8
							c-0.3-0.9-0.6-1.9-0.9-2.8c-0.4-1.5-0.9-3.1-1.3-4.7c-0.2-0.7-0.4-1.4-0.5-2.1c-0.4-1.2-0.7-2.5-1-3.8c-0.1-0.3-0.2-0.7-0.2-1
							c-0.3-1.4-0.7-2.7-0.9-4.1c-0.1-0.6-0.3-1.2-0.4-1.9c-0.4-1.7-0.7-3.5-1-5.2c-0.4-2-0.7-4-1.1-6c-0.7-4.2-1.2-8.4-1.7-12.5
							c-0.2-1.9-0.4-3.7-0.5-5.6c0-0.4-0.1-0.8-0.1-1.3c-0.2-1.8-0.3-3.6-0.4-5.5C2929.4,1764,2945,1778.5,2961.9,1791.2z"/>
					</g>
					<g>
						<path class="st18" d="M2961.9,1791.2c-13.4,6-24.5,13.1-34.4,19.5c-0.4-1.2-0.8-2.3-1.1-3.5c-0.3-0.9-0.6-1.9-0.9-2.8
							c-0.3-0.9-0.6-1.9-0.9-2.8c-0.4-1.5-0.9-3.1-1.3-4.7c-0.2-0.7-0.4-1.4-0.5-2.1c-0.4-1.2-0.7-2.5-1-3.8c-0.1-0.3-0.2-0.7-0.2-1
							c-0.3-1.4-0.7-2.7-0.9-4.1c-0.1-0.6-0.3-1.2-0.4-1.9c-0.4-1.7-0.7-3.5-1-5.2c-0.4-2-0.7-4-1.1-6c-0.7-4.2-1.2-8.4-1.7-12.5
							c-0.2-1.9-0.4-3.7-0.5-5.6c0-0.4-0.1-0.8-0.1-1.3c-0.2-1.8-0.3-3.6-0.4-5.5C2929.4,1764,2945,1778.5,2961.9,1791.2z"/>
					</g>
					<g>
						<path class="st3" d="M3151.5,1982.9c-119.4,0-224.8-86.8-244.3-208.3l0,0c-0.7-4.4-1.3-8.7-1.8-13
							c-14-130.9,76.9-249.8,206.9-270.7c130.1-20.9,253.6,63.5,281.3,192.2c0.9,4.3,1.7,8.6,2.4,13c10.5,65.3-5.1,130.8-43.8,184.4
							c-38.7,53.6-96,88.9-161.3,99.4C3177.7,1981.9,3164.5,1982.9,3151.5,1982.9z M2929,1771.1c19.7,122.8,135.6,206.6,258.4,186.8
							c59.5-9.6,111.6-41.7,146.9-90.5c35.3-48.8,49.5-108.4,39.9-167.9c-0.6-4-1.4-8-2.2-11.9c-25.2-117.1-137.8-194-256.2-174.9
							c-118.4,19-201.2,127.3-188.4,246.5C2927.9,1763.1,2928.4,1767.1,2929,1771.1L2929,1771.1z"/>
					</g>
				</g>
			</g>
			<g>
				<g>
					<g>
						<g>
							<path class="st21" d="M1453.8,1043.7c-3.9,9.4-8.4,18.7-13.5,27.7c-11.7,20.7-26.4,40.2-44.2,57.8
								c-102.7,101.3-268,100.1-369.2-2.6c-80.6-81.8-96.3-203.2-47.5-300.4c12.5-24.9,29.2-48.2,50.1-68.8
								c32.7-32.2,71.6-54,112.9-65.5c6.6-1.9,13.3-3.5,20.1-4.8c36.3-7.1,73.8-6.5,109.8,2c0.3,0.1,0.6,0.1,1,0.2
								c2.2,0.5,4.4,1.1,6.6,1.7c4.4,1.2,8.7,2.4,13,3.8c29.2,9.4,57.1,24,82.1,43.9c8.3,6.5,16.2,13.7,23.8,21.4
								c1.6,1.7,3.2,3.3,4.8,5c1,1,1.9,2.1,2.8,3.1C1475.8,844.9,1491.6,952.9,1453.8,1043.7z"/>
						</g>
						<g>
							<path class="st22" d="M970.7,845.3c-1.1,2.7-2.1,5.4-3.2,8.2C968.4,850.7,969.4,848,970.7,845.3z"/>
						</g>
						<g>
							<path class="st22" d="M1442.5,1040.8c-2.9,6.2-6,12.4-9.4,18.4c-11.2,19.8-25.3,38.4-42.3,55.2
								c-98.2,96.8-256.3,95.7-353.1-2.5c-55.6-56.4-78.9-132.6-70.1-205.6C1006.9,1044.8,1321.6,1200.9,1442.5,1040.8z"/>
						</g>
						<g>
							<path class="st22" d="M984,842.9c-1,2.6-2,5.2-3,7.8C981.9,848.1,982.9,845.5,984,842.9z"/>
						</g>
						<g>
							<path class="st22" d="M1442.5,1040.8c-2.9,6.2-6,12.4-9.4,18.4c-11.2,19.8-25.3,38.4-42.3,55.2
								c-98.2,96.8-256.3,95.7-353.1-2.5c-55.6-56.4-78.9-132.6-70.1-205.6C1006.9,1044.8,1321.6,1200.9,1442.5,1040.8z"/>
						</g>
						<g>
							<path class="st22" d="M1357,1015.5c-15.8,28.5-13.7,56,4.7,61.3c18.4,5.3,47.6-12.2,63.4-40.7s12.2-57.3-6.2-62.6
								S1372.8,987,1357,1015.5z"/>
						</g>
						<g>
							<path class="st3" d="M1349.2,991.1c-20.5,23.4-30.1,71.2-3.1,92.9c1.6,0.9,0.4,3.5-1.3,2.9c-38.7-15.6-30.4-80.5,1.9-99
								C1348.6,986.8,1350.8,989.5,1349.2,991.1L1349.2,991.1z"/>
						</g>
						<g>
							
								<ellipse transform="matrix(0.2193 -0.9757 0.9757 0.2193 150.3866 1708.4183)" class="st22" cx="1142.7" cy="760.2" rx="22.1" ry="25.9"/>
						</g>
						<g>
							
								<ellipse transform="matrix(0.9976 -6.929971e-02 6.929971e-02 0.9976 -50.5352 81.2837)" class="st21" cx="1146.3" cy="769" rx="19.5" ry="15.7"/>
						</g>
						<g>
							<path class="st3" d="M1136.5,784.6c-20.3-1.7-34.1-26.3-19.5-42.9c13.4-15.2,39.5-12.6,51,3.3c8.1,9.8,6.6,26.7-4.4,33.4
								c-1.5,1-3.3-1.1-2.1-2.4c14.7-17.4-6.8-37.8-25.4-33.2c-22.7,5.1-18.5,30.5,1.3,37.9C1139.7,781.5,1138.8,784.9,1136.5,784.6
								L1136.5,784.6z"/>
						</g>
						<g>
							<path class="st3" d="M1180.2,754.3c5.6,10.7,2.9,24.9-5.5,33.6c-17,18.4-48.7,15.7-64.6-2.6c-7.9-8.6-11.6-21.9-7.1-32.9
								c0.3-0.8,1.3-1.2,2.1-0.9c0.7,0.3,1.1,1,1,1.7c-2.1,20.6,17.2,35.7,36.1,36.3c19,1.5,38.2-13.3,34.1-34
								C1175.9,753.4,1179.2,752.3,1180.2,754.3L1180.2,754.3z"/>
						</g>
						<g>
							<path class="st3" d="M1058.8,797.2c51.7,23.2,33.7,95.3-13,113.6c-14.6,6.3-31.5,7.3-46,1.6c-0.8-0.3-1.2-1.3-0.9-2.1
								c0.3-0.7,1.1-1.1,1.8-1c14.4,2.7,28.9-0.2,41.3-6.6c38-18.4,54.6-76.1,14.9-102C1055,799.6,1056.7,796.3,1058.8,797.2
								L1058.8,797.2z"/>
						</g>
						<g>
							
								<ellipse transform="matrix(0.4445 -0.8958 0.8958 0.4445 -194.903 1391.9648)" class="st22" cx="1024.9" cy="853.1" rx="45" ry="37.3"/>
						</g>
						<g>
							<path class="st21" d="M1012.7,889.6c12.7,3.9,28.2-1,39.1-13.6c14.5-16.8,15.5-41,2.1-54c-1.9-1.8-4-3.4-6.2-4.6
								c-10.5,1.1-21.2,6.6-29.5,16.2C1003.4,850.7,1001.4,874.7,1012.7,889.6z"/>
						</g>
						<g>
							<path class="st3" d="M994.4,826.9c28.2-35.4,83.8-12.8,70.4,33.4c-11.1,38.6-71.4,50.9-81.6,6.2c-0.3-1.9,2.5-2.6,3.1-0.8
								c4.9,15.4,21.3,23.5,36.5,20.1c21.7-4.2,39.2-28.5,31.2-49.9c-9-22.9-39.8-22.4-56.7-6.4
								C995.6,831.3,992.9,828.7,994.4,826.9L994.4,826.9z"/>
						</g>
						<g>
							<path class="st3" d="M1325.8,928.6c-1.9,31.7-28.4,60.6-60.2,66.5c-42.9,9.3-88.1-19.9-99.8-61.5c-2.9-10.1-4-20.6-2.9-30.8
								c0.1-1.2,1.2-2.1,2.4-1.9c1.1,0.1,1.9,1,1.9,2c1.9,19,9.6,37.1,22.1,51.3c40,45.9,114,34.2,131.3-26.5
								C1321.3,924.6,1326.1,925.5,1325.8,928.6L1325.8,928.6z"/>
						</g>
						<g>
							
								<ellipse transform="matrix(1.080045e-02 -0.9999 0.9999 1.080045e-02 322.3436 2143.8318)" class="st22" cx="1244.7" cy="909" rx="52.3" ry="57.4"/>
						</g>
						<g>
							<path class="st21" d="M1195.6,909.6c-0.4,18.5,11.1,36.8,30.4,45.5c25.8,11.6,56,1.8,67.4-21.8c1.6-3.3,2.8-6.8,3.5-10.2
								c-5-13.3-15.6-25-30.3-31.7C1240.3,879.7,1210,887.9,1195.6,909.6z"/>
						</g>
						<g>
							<path class="st3" d="M1266.6,857.1c29.1,11.1,44.9,48.9,30.5,77.3c-13.8,31.1-56,39.3-82.4,19.6c-32-21.1-36.3-73.9-1.1-93.7
								c2.2-1.3,4.4,2,2.4,3.6c-35.7,29.5-10.3,88.5,34.1,86.5c47.8-3.5,52.3-65.6,14.1-88.5
								C1261.4,860.3,1263.7,855.8,1266.6,857.1L1266.6,857.1z"/>
						</g>
						<g>
							<g>
								<path class="st21" d="M1061.7,1008.1c-13.6,2.7-25.5,9.1-34,19.2c-15.5,18.2-15.6,43.3-4.6,68.7c7.3,16.7,19.7,33,36.7,46.4
									c42.9,34,98.5,37.1,124.1,7c9.5-11.2,13.6-25.5,12.7-40.7c-1.5-25.7-28.1-41.1-55.1-62.5"/>
							</g>
							<g>
								<path class="st3" d="M1029.7,1029c-12.8,17.8-10.9,40.4-2.8,59.7c16.6,38.6,55,68,96.4,74.8c20.8,3.2,43.4-0.3,59-15.5
									c1.8-1.9,4.8,0.8,3.3,2.8c-6.8,9.6-17.1,16.7-28.4,20.6c-57.5,17.8-122.6-23.6-142-78.3c-8.1-21.9-7.3-50.5,10.4-67.6
									C1027.9,1023.3,1031.6,1026.4,1029.7,1029L1029.7,1029z"/>
							</g>
							<g>
								
									<ellipse transform="matrix(0.5174 -0.8558 0.8558 0.5174 -397.1279 1471.4753)" class="st22" cx="1106" cy="1087.8" rx="54.7" ry="75.3"/>
							</g>
							<g>
								
									<ellipse transform="matrix(0.4461 -0.895 0.895 0.4461 -375.4884 1600.2712)" class="st21" cx="1105.1" cy="1103.5" rx="40.3" ry="63.9"/>
							</g>
							<g>
								<path class="st3" d="M1138.9,1146.6c47-13.6,32.4-67.6,2-91.6c-24.9-23.5-81.1-37.8-96.1,2.7c-7.5,25.3,8.9,52.9,27.5,69.9
									c2,1.7-0.6,4.9-2.7,3.4c-64.7-44.6-42.7-132,41.8-109c28.7,9.3,53.8,30.7,64.7,59c8.9,21.3,5.5,49.7-15.1,63
									c-3.3,2.7-23.1,11.9-24,5.4C1136.8,1148.1,1137.7,1146.9,1138.9,1146.6L1138.9,1146.6z"/>
							</g>
						</g>
						<g>
							<g>
								<path class="st21" d="M1348.4,833.8c10.5-3.2,19.3-9.1,25.3-17.7c10.8-15.5,9-35.3-1.7-54.4c-7-12.5-18.1-24.4-32.5-33.7
									c-36.4-23.5-80.3-21.6-98.1,4.1c-6.6,9.6-8.7,21.1-6.8,33c3.2,20.1,18.2,40.3,41,55.1"/>
							</g>
							<g>
								<path class="st3" d="M1372.1,815c8.8-14.9,5.6-32.7-2.2-47.3c-16-29.2-48.6-49.4-81.8-51.5c-16.6-0.9-34.2,3.6-45.3,16.9
									c-0.6,0.7-1.6,0.8-2.3,0.2c-0.6-0.5-0.7-1.4-0.4-2.1c4.6-8.1,12.3-14.3,20.7-18.3c51.6-21.6,121.9,21.5,123.7,78
									c-0.2,9.5-3.2,19.2-9.2,26.3C1373.8,819.1,1370.9,817,1372.1,815L1372.1,815z"/>
							</g>
							<g>
								
									<ellipse transform="matrix(0.4317 -0.902 0.902 0.4317 44.4441 1619.4734)" class="st22" cx="1307.5" cy="774.5" rx="43.3" ry="59.5"/>
							</g>
							<g>
								
									<ellipse transform="matrix(0.357 -0.9341 0.9341 0.357 128.4928 1710.8867)" class="st21" cx="1307" cy="762.1" rx="31.8" ry="50.5"/>
							</g>
							<g>
								<path class="st3" d="M1277,730.7c-36.2,14.2-20.5,55.9,5.3,72.5c21.6,16.7,67.1,23.5,75.8-9.7c3.9-20.6-11-40.9-27.2-53
									c-1.6-1.1,0.1-3.7,1.8-2.7c32.5,16.5,52.8,66.4,11.4,85.8c-43.1,18.2-108.4-25.6-94.7-74c4.1-11.6,14.6-20.2,26.3-22.7
									C1278.2,726.3,1279.3,729.9,1277,730.7L1277,730.7z"/>
							</g>
						</g>
						<g>
							
								<ellipse transform="matrix(0.5747 -0.8183 0.8183 0.5747 -247.2391 1567.3297)" class="st21" cx="1384.4" cy="1021.5" rx="50.7" ry="26.4"/>
						</g>
						<g>
							<path class="st3" d="M1433.8,995.6c-10.9-34.6-52.3-10.7-66,9.7c-14.6,17.3-29.8,61.9,3,67c19.1,0.9,36.9-13,49.1-27.2
								c1.2-1.6,3.7,0.3,2.6,1.9c-8.4,13.3-20.5,25.2-35.6,31.1c-16.7,7.5-38.4,1.6-44-17.3c-12.1-39.4,31.3-96.4,73.3-90
								c5.7,1.3,11.1,4.3,14.9,8.7c3.8,4.4,5.8,9.9,6.5,15.2c0.1,1.1-0.6,2.1-1.7,2.3C1435,997.1,1434,996.5,1433.8,995.6
								L1433.8,995.6z"/>
						</g>
						<g class="st20">
							<path class="st1" d="M1394.4,819.5c-7.6,30.7,34.6,70,30.7,154.4c-1.6,35.8,36.8,5.6,28.3-64.8
								C1445.6,843.7,1399.8,797.9,1394.4,819.5z"/>
						</g>
						<g class="st20">
							<path class="st1" d="M1332.1,756.8c4.4,10.9,25.5,20.5,41.1,39.2c16.8,20,35.1,12.4,12.4-26.2
								C1361.4,728.5,1323.8,736.2,1332.1,756.8z"/>
						</g>
						<g>
							<path class="st3" d="M1212.7,1214c-70,0-140-26.9-192.9-80.5c-81.5-82.7-101.4-207.9-49.3-311.7c13.3-26.4,30.7-50.4,52-71.4
								c32.7-32.2,73.2-55.7,117.1-68c6.8-1.9,13.8-3.6,20.8-5c37.4-7.3,76.8-6.6,113.9,2l1.1,0.2c2.2,0.5,4.5,1.1,6.8,1.7
								c4.4,1.2,8.9,2.5,13.4,3.9c31,10,59.7,25.3,85.2,45.5c8.6,6.8,16.9,14.3,24.7,22.2c1.7,1.8,3.4,3.5,5,5.2
								c1,1,1.9,2.1,2.9,3.2c70,77.2,89.4,189.4,49.3,285.9c-4.1,9.7-8.8,19.4-14,28.8c-12.4,22-27.8,42.1-45.9,59.9
								C1350.2,1188.1,1281.4,1214,1212.7,1214z M1212.6,692c-16.3,0-32.6,1.6-48.5,4.7c-6.5,1.3-13,2.8-19.3,4.6
								c-40.8,11.4-78.3,33.2-108.7,63.1c-19.7,19.4-35.9,41.7-48.2,66.2c-48.3,96.3-29.9,212.5,45.8,289.2
								c97.3,98.7,256.8,99.8,355.5,2.5c16.8-16.5,31.1-35.2,42.6-55.6c4.9-8.7,9.3-17.7,13-26.7l0,0
								c37.2-89.5,19.3-193.7-45.8-265.3c-0.9-1-1.8-2-2.7-2.9c-1.6-1.7-3.1-3.3-4.7-4.9c-7.2-7.3-14.9-14.2-22.9-20.6
								c-23.7-18.8-50.2-33-79-42.2c-4.2-1.3-8.4-2.6-12.5-3.7c-2.1-0.6-4.2-1.1-6.3-1.6l-1.1-0.2
								C1251.2,694.2,1231.9,692,1212.6,692z"/>
						</g>
					</g>
				</g>
			</g>
			<g>
				<g>
					<g>
						<g>
							<path class="st23" d="M2263.3,511c1.6,10.9,2.6,21.8,2.9,32.6c-50.5,21.6-144.8,45.2-254.1,61.6
								c-109.3,16.4-206.4,21.6-261,15.8c-2.9-10.4-5.2-21.1-6.9-32c-0.1-0.5-0.2-1-0.2-1.5c-0.7-4.8-1.3-9.6-1.7-14.4
								c-1-11.2-1.3-22.4-0.9-33.4c0-0.4,0-0.9,0.1-1.3c0.7-16.3,2.9-32.4,6.6-48c6.9-29.6,18.9-57.6,35.2-82.7
								c39.5-61,103.9-105.5,181.5-117.1c76.9-11.6,151,11.5,206.5,57.5c22.8,18.9,42.4,41.6,57.9,67.4
								c8.3,13.8,15.3,28.5,20.9,43.9c0.5,1.2,0.9,2.5,1.3,3.7c3.6,10.4,6.7,21.1,9,32.2c0.9,4.1,1.6,8.2,2.3,12.4
								C2263,508.7,2263.2,509.9,2263.3,511z"/>
						</g>
						<g>
							<path class="st24" d="M2248.9,644c-3.9,10-8.3,19.8-13.4,29.2c-7.1,13.3-15.2,25.9-24.4,37.7
								c-39.9,51.4-98.8,88.1-168.2,98.5c-69.6,10.5-136.8-7.4-190.1-45c-11.7-8.2-22.7-17.4-32.9-27.5c-8-7.9-15.5-16.3-22.5-25.2
								c66.3,1.9,145-2.9,228.6-15.5C2109.4,683.9,2186,665.4,2248.9,644z"/>
						</g>
						<g>
							<path class="st24" d="M2266.2,543.6c-50.5,21.6-144.8,45.2-254.1,61.6c-109.3,16.4-206.4,21.6-261,15.8
								c-2.9-10.4-5.2-21.1-6.9-32c-0.1-0.5-0.1-1-0.2-1.5c-0.7-4.8-1.3-9.6-1.7-14.4c-1-11.2-1.3-22.4-0.9-33.4
								c0-0.4,0-0.9,0.1-1.3c0.7-16.4,2.9-32.4,6.6-48c6.9-29.6,18.9-57.6,35.2-82.7c31.9-49.4,80.2-87.9,138.5-106.9
								c-79.1,42.1-181,215.7-9.8,282.5c103.3,40.3,317.6-34.7,353.6-47.7C2266.5,542.9,2266,536.3,2266.2,543.6z"/>
						</g>
						<g>
							<path class="st25" d="M1838.5,416.5"/>
						</g>
						<g>
							<path class="st26" d="M2025.8,696.4c83.6-12.6,160.2-31,223-52.4c-3.9,10-8.3,19.8-13.4,29.2c-48.8,18-123.7,36-208.7,48.7
								c-81.4,12.2-155.4,17.1-207.1,15.1c-8-7.9-15.5-16.3-22.5-25.2C1863.6,713.9,1942.3,709,2025.8,696.4z"/>
						</g>
						<g>
							<path class="st26" d="M2262.8,507.6c0.2,1.1,0.4,2.3,0.5,3.4c1.6,10.9,2.6,21.8,2.9,32.6c-50.5,21.6-144.8,45.2-254.1,61.6
								c-109.3,16.4-206.4,21.6-261,15.8c-2.9-10.4-5.2-21.1-6.9-32c-0.1-0.5-0.2-1-0.2-1.5c50.9,8.5,149.3,4.7,260.7-12
								C2120.7,558.1,2218.9,531.4,2262.8,507.6z"/>
						</g>
						<g>
							<g>
								<path class="st26" d="M1745.4,498.7l5.7-16.8c33.9,11.5,132,8.4,238.6-7.6c127.1-19.1,213.8-47.4,233.6-65.5l11.9,13.1
									c-26.3,23.9-123.9,52-242.9,69.9C1881.5,508.5,1782.2,511.3,1745.4,498.7z"/>
							</g>
						</g>
						<g>
							<g>
								<path class="st26" d="M1782.2,416.4l2.3-17.5c40.3,5.2,114,1.1,192.2-10.6c81.9-12.3,155-30.8,190.8-48.2l7.8,15.9
									c-37.2,18.1-112.3,37.2-195.9,49.8C1899.6,417.7,1824.1,421.8,1782.2,416.4z"/>
							</g>
						</g>
						<g>
							<g>
								<path class="st26" d="M1739.2,546.8l4.9-17c39.4,11.4,140.9,7.7,252.5-9c117.1-17.6,219.1-45.7,248.1-68.4l10.9,13.9
									c-31.7,24.8-134.7,53.7-256.4,72C1883.6,555.7,1781.5,559,1739.2,546.8z"/>
							</g>
						</g>
						<g>
							<g>
								<path class="st26" d="M1851.8,768.9l0.9-4.3l-0.9-4.3l0.9-0.2l0.9,0.2c34.8,7.2,105.9,4.6,181.1-6.7
									c75.6-11.4,142.4-29.1,174.3-46.4l4.2,7.8c-32.8,17.7-100.7,35.9-177.2,47.4C1958.7,773.9,1888.1,776.4,1851.8,768.9z"/>
							</g>
						</g>
						<g>
							<path class="st3" d="M2004,823.4c-83.2,0-163.2-38.1-215.4-104.7l-14.5-18.5l23.5,0.7c68.1,2,146.4-3.3,226.6-15.4
								c80.2-12.1,156.7-30,221.1-51.9l22.2-7.6l-8.4,21.9c-35.3,91.8-117.5,157.8-214.7,172.4C2031,822.4,2017.4,823.4,2004,823.4z
								 M1821.6,723.3c56.2,58.9,138.2,87.6,219.5,75.3c81.3-12.2,151.3-63.7,187.7-136.5c-60.4,18.8-129.5,34.4-201.4,45.2
								C1955.5,718.1,1884.8,723.5,1821.6,723.3z"/>
						</g>
						<g>
							<path class="st27" d="M2416.1,525.7c5.7,38-61.1,82.3-167.2,118.4c-62.8,21.3-139.5,39.8-223,52.4
								c-83.6,12.6-162.3,17.4-228.6,15.5c-112.1-3.3-188.9-26-194.6-64c-5.2-34.5,49.4-74.2,139-108.2c-0.4,11-0.1,22.2,0.9,33.4
								c-25.2,10.9-39,21.4-37.7,30.1c1.3,8.9,18.2,14.9,46.5,17.9c54.6,5.8,151.6,0.6,261-15.8c109.3-16.4,203.6-40,254.1-61.6
								c26.1-11.2,40.5-21.8,39.1-30.7c-1.3-8.7-17.6-14.6-44.9-17.7c-2.3-11-5.4-21.8-9-32.2
								C2347.1,469.2,2410.9,491.1,2416.1,525.7z"/>
						</g>
						<g>
							<path class="st28" d="M1742,568.5c0.1,1.5,0.2,3,0.4,4.6c-25.2,10.9-39,21.3-37.7,30.1c1.3,8.9,18.2,14.9,46.5,17.9
								c36.2,3.9,91.1,2.9,155.9-3c-2.4,4.8-3.8,9.6-4.1,14.3c-24.9,2-48.9,3.2-71.4,3.6c-97.9,1.8-144.6-12.1-146.7-25.7
								C1683.7,602.2,1698.1,587.2,1742,568.5z"/>
						</g>
						<g>
							<path class="st24" d="M1738.9,554.4l1.4,3.3c-22.4,8.9-40.2,17.6-54,25.7C1697.5,573.9,1715,564.3,1738.9,554.4z"/>
						</g>
						<g>
							<path class="st24" d="M1741.6,560.9l-1.4-3.3c0.4-0.2,0.8-0.3,1.2-0.5L1741.6,560.9z"/>
						</g>
						<g>
							<path class="st28" d="M1686.2,583.4c-11.8,9.8-16.9,19.4-15.5,29c1.4,9.3,8.9,16.4,20.6,21.9c30.5,14.3,89.3,16.9,140.5,16
								c23.1-0.4,47.8-1.7,73.4-3.7c2.8,6.9,8.2,13.2,15.8,18.9c-37.9,3.2-74.3,4.7-107.9,4.5c-119.7-0.9-165.4-23-168.2-41.7
								C1643.4,617.8,1654.5,601.9,1686.2,583.4z"/>
						</g>
						<g>
							<path class="st28" d="M2020.7,697.2c-81.6,12-158.5,16.6-223.5,14.7c-112-3.3-188.9-26-194.6-64
								c-5.2-34.5,49.4-74.2,139-108.2c-0.1,3.3-0.2,6.6-0.2,9.9l-2.6-6.7c-52.2,20.4-113.3,52.2-107.9,87.5
								c2,13.6,13.2,23.9,29.7,31.6c38.8,18.1,106.8,22,152.5,22.3c40.1,0.3,84.1-1.9,130-6.4
								C1962.8,686.3,1989.2,692.8,2020.7,697.2z"/>
						</g>
						<g>
							<g>
								<path class="st29" d="M1905.3,646.5c-25.6,2-50.3,3.3-73.4,3.7c-51.1,0.9-109.9-1.7-140.5-16c-11.7-5.5-19.2-12.6-20.6-21.9
									c-1.4-9.6,3.6-19.2,15.5-29c13.8-8.1,31.6-16.8,54-25.7l1.4,3.3c0.1,2.5,0.3,5,0.4,7.6c-43.9,18.6-58.3,33.7-57.1,41.7
									c2,13.6,48.8,27.5,146.7,25.7c22.5-0.4,46.5-1.6,71.4-3.6c-0.2,2.3-0.1,4.6,0.2,6.9C1903.6,641.7,1904.3,644.2,1905.3,646.5
									z"/>
							</g>
							<g>
								<path class="st30" d="M1740.2,557.7c-22.4,8.9-40.2,17.6-54,25.7c11.3-9.4,28.8-19.1,52.7-29L1740.2,557.7z"/>
							</g>
							<g>
								<path class="st30" d="M1741.6,560.9l2.8,6.6c-0.8,0.3-1.6,0.6-2.3,1C1741.9,566,1741.7,563.5,1741.6,560.9z"/>
							</g>
							<g>
								<path class="st30" d="M2197.7,595.3c-53.2,15.3-115.9,28.6-181.3,38.4c-38,5.7-75.5,10-111.1,12.9c-1-2.4-1.7-4.8-2-7.3
									c-0.3-2.3-0.4-4.6-0.2-6.9c35.6-2.7,73.2-7.1,111.3-12.8c64.8-9.8,126.9-22.9,179.4-38c94.1-27.1,134.7-54.1,132.7-67.7
									c-1.2-8.1-20.1-18.5-69.4-23.3l1-10.7l0.3-3.6c25.8,2.5,45.5,6.6,59,12.3c14,5.9,21.7,13.6,23.1,23.1
									C2345.6,545.3,2265.6,575.7,2197.7,595.3z"/>
							</g>
						</g>
						<g>
							<g>
								<path class="st29" d="M1943.1,677.8c-45.8,4.5-89.9,6.7-130,6.4c-45.7-0.3-113.7-4.2-152.5-22.3
									c-16.5-7.7-27.7-18-29.7-31.6c-5.3-35.3,55.8-67,107.9-87.5l2.6,6.7c0,2.6,0,5.1,0.1,7.6c-0.4,0.2-0.9,0.3-1.2,0.5l-1.4-3.3
									c-23.9,9.9-41.4,19.6-52.7,29c-31.7,18.6-42.8,34.4-41.2,44.8c2.8,18.7,48.6,40.9,168.2,41.7c33.6,0.2,69.9-1.3,107.9-4.5
									C1927,669.9,1934.4,674,1943.1,677.8z"/>
							</g>
							<g>
								<path class="st28" d="M1738.9,554.4l1.4,3.3c-22.4,8.9-40.2,17.6-54,25.7C1697.5,573.9,1715,564.3,1738.9,554.4z"/>
							</g>
							<g>
								<path class="st30" d="M1741.4,549.5l2.6,6.6c-0.8,0.3-1.7,0.7-2.5,1C1741.4,554.6,1741.4,552.1,1741.4,549.5z"/>
							</g>
							<g>
								<path class="st30" d="M2225.6,622.2c-59.7,18.9-130.2,34.7-204,45.8c-26.5,4-52.8,7.3-78.5,9.8c-8.7-3.8-16.1-7.9-22-12.4
									c31.9-2.7,65-6.6,98.4-11.6c73-11,142.8-26.6,201.8-45.2c114.2-36,151.4-70.7,148.6-89.3c-1.6-10.4-16.8-22.2-52.4-30.7
									c-15.7-3.7-35.3-6.8-59.4-8.7c-1.3-0.1-2.7-0.2-4-0.3l1.1-14.3c55.9,4.2,123.6,16.6,128.9,51.9
									C2390.9,562.9,2287.7,602.6,2225.6,622.2z"/>
							</g>
						</g>
						<g>
							<path class="st3" d="M1826,723.3c-9.9,0-19.6-0.1-29.1-0.4c-72.8-2.1-196.3-14.5-205.2-73.4c-8-53.3,88-98.2,145.9-120.2
								l15.5-5.9l-0.6,16.6c-0.4,10.6-0.1,21.4,0.8,32l0.7,7.9l-7.3,3.2c-21.5,9.3-28.3,15.7-30.4,18.2c2.8,1.9,11.5,6.1,36,8.7
								c55.3,5.9,154.3-0.1,258.2-15.7c103.9-15.6,200.2-38.9,251.4-60.8c22.6-9.7,29.7-16.2,31.8-18.9c-2.7-1.8-11.2-5.9-34.4-8.5
								l-7.9-0.9l-1.6-7.8c-2.2-10.4-5.1-20.8-8.6-30.8l-5.5-15.7l16.6,1.1c61.8,4,166.8,18.7,174.8,72
								c8.9,58.9-105.6,107-174.6,130.4c-65.7,22.3-143.5,40.6-224.9,52.8C1957.2,717.9,1888.2,723.3,1826,723.3z M1730.4,555.9
								c-90.4,36.6-120,70.4-117,90.4c3.4,22.8,53.7,50.8,184.1,54.6c68.1,2,146.4-3.3,226.6-15.4c80.2-12.1,156.7-30,221.1-51.9
								c123.5-42,163.3-83.5,159.9-106.3l0,0c-3-20-41.2-43.7-138.4-52.1c0.9,3.3,1.8,6.7,2.6,10c30.2,4.3,44.7,12.4,46.7,26
								c2.2,14.9-11.9,28-45.7,42.5c-53.6,22.9-149.6,46.2-256.8,62.4c-107.2,16.1-205.8,22-263.8,15.9
								c-36.6-3.9-53.9-12.3-56.2-27.2c-2-13.6,9.4-25.6,37-38.6C1730.7,562.8,1730.5,559.3,1730.4,555.9z"/>
						</g>
						<g class="st13">
							<g>
								<path class="st1" d="M2266,544.5c-5.9,2.5-12.3,5.1-19.4,7.6c-0.5-7.3-1.3-14.7-2.4-22c-0.2-1.1-0.4-2.3-0.5-3.4
									c-0.7-4.2-1.4-8.3-2.3-12.4c-2.3-11-5.4-21.8-9-32.2c-0.4-1.2-0.9-2.5-1.4-3.7c-5.7-15.4-12.7-30.1-21-43.9
									c-15.4-25.8-35.1-48.5-57.9-67.4c-55.5-46-129.6-69.1-206.5-57.5c-51.3,7.7-96.9,29.8-133.4,61.6
									c38.9-41.5,91.6-70.7,152.2-79.8c76.9-11.5,151,11.5,206.5,57.5c22.8,18.9,42.4,41.6,57.9,67.4
									c8.2,13.8,15.3,28.5,20.9,43.9c0.5,1.2,0.9,2.5,1.3,3.7c3.6,10.4,6.7,21.1,9,32.1c0.9,4.1,1.6,8.2,2.3,12.4
									c0.2,1.1,0.4,2.3,0.5,3.4C2264.8,522.8,2265.7,533.7,2266,544.5z"/>
							</g>
						</g>
						<g>
							<path class="st3" d="M1803,634.4c-20,0-37.9-0.8-53-2.4l-7.4-0.8l-2-7.2c-3-10.9-5.4-22.1-7.1-33.3c-0.8-5.5-1.5-11.1-2-16.6
								c-1-11.5-1.3-23.2-0.9-34.8c5-130.9,102.9-240.1,232.6-259.6c129.8-19.5,255.4,56.1,298.7,179.8c3.8,10.9,7,22.2,9.4,33.5
								c1.1,5.4,2.2,10.9,3,16.5v0c1.7,11.3,2.7,22.7,3,34l0.2,7.5l-6.9,2.9c-53.6,22.9-149.6,46.2-256.8,62.4
								C1934.5,628,1859.9,634.4,1803,634.4z M1759.8,610.8c56.5,4.7,151.3-1.5,250.6-16.5c99.3-14.9,191.8-36.9,244.4-57.9
								c-0.4-7.9-1.3-15.9-2.4-23.7c-0.8-5.1-1.7-10.2-2.8-15.2c-2.2-10.4-5.1-20.8-8.6-30.8c-39.8-113.7-155.3-183.2-274.6-165.3
								c-119.3,17.9-209.3,118.3-213.9,238.7c-0.4,10.6-0.1,21.4,0.8,32c0.5,5.1,1.1,10.3,1.8,15.3
								C1756.4,595.3,1757.9,603.1,1759.8,610.8z"/>
						</g>
					</g>
				</g>
			</g>
			<g>
				<g>
					<g>
						<path class="st21" d="M3239.2,1157c-16,24.4-35,46.6-56.2,66.2c-21.3,19.6-44.9,36.6-70.4,50.5c-14.8,8.1-30.3,15.2-46.2,21.1
							c-7.2,2.7-14.5,5.1-21.8,7.3c-44.8,13.4-92.9,18.2-142.3,12.5c-47-5.4-90.9-19.8-129.9-41.3c-12.5-6.8-24.4-14.4-35.9-22.6
							c-101-72.6-160.8-196.3-145.5-328.6c12.5-107.9,72.3-199,156.3-254.7c15.7-10.4,36,4.2,30.9,22.3c-1.7,6.1-3.3,12.3-4.7,18.6
							c-2.7,12-4.7,24.3-6.2,36.8c-3,26.4-3.1,52.4-0.5,77.8c0.5,4.5,1,9,1.7,13.5c1.6,11,3.6,21.8,6.2,32.4
							c1.9,7.7,4,15.3,6.3,22.8c1.1,3.6,2.3,7.3,3.6,10.9c3.2,9,6.7,17.9,10.5,26.6c2.1,4.7,4.3,9.4,6.6,14.1c1.6,3.3,3.3,6.5,5,9.7
							c2,3.8,4.1,7.5,6.3,11.2c4.6,7.9,9.5,15.6,14.7,23.1c0.7,1,1.4,2,2.1,3c4.3,6.1,8.8,12,13.4,17.7l0,0c1.1,1.3,2.2,2.7,3.3,4
							c4.7,5.7,9.6,11.2,14.6,16.5c2.7,2.9,5.5,5.8,8.3,8.5c0.6,0.6,1.2,1.2,1.8,1.8c0.4,0.4,0.8,0.8,1.3,1.2
							c0.9,0.9,1.8,1.8,2.8,2.7c4.9,4.7,10,9.2,15.1,13.6c1.6,1.3,3.1,2.6,4.7,3.9c1.7,1.4,3.4,2.8,5.2,4.1
							c4.5,3.6,9.2,7.1,13.9,10.4c7.4,5.3,14.9,10.2,22.7,14.9c8,4.8,16.1,9.3,24.5,13.4c11.1,5.5,22.6,10.5,34.3,14.9
							c11,4.1,22.4,7.7,34,10.7c2.4,0.6,4.8,1.2,7.1,1.8c5.1,1.2,10.3,2.3,15.6,3.3c8.6,1.6,17.3,3,26.2,4c0.6,0.1,1.2,0.1,1.7,0.2
							c7,0.8,13.9,1.3,20.9,1.7c14,0.7,27.9,0.6,41.6-0.3c4.1-0.3,8.2-0.6,12.2-1c21.1-2.1,41.8-6.1,61.8-11.8
							C3234.6,1121.2,3249.5,1141.3,3239.2,1157z"/>
					</g>
					<g>
						<path class="st31" d="M2747.1,667.3c-84,55.7-143.8,146.7-156.2,254.7c-22.4,194.3,117,370.1,311.3,392.6
							c49.4,5.7,97.6,1,142.3-12.5c38.1-11.4,73.8-29.2,105.6-52.2c-15.1,7-30.8,12.9-46.8,17.8c-44.8,13.4-92.9,18.2-142.3,12.5
							c-115.9-13.4-212.3-81.3-266.4-175.3c5.7,0,11.3-1.2,16.5-3.7c24.9-12.2,32.6-50.7,17.4-86c-15.3-35.2-47.8-53.9-72.7-41.7
							c-1.8,0.9-3.5,1.9-5.2,3.1c-4-28.9-4.4-58.7-0.9-89c10.3-89.3,53-167,115-222.8C2759.2,663,2752.9,663.5,2747.1,667.3z"/>
					</g>
					<g>
						
							<ellipse transform="matrix(0.3185 -0.9479 0.9479 0.3185 930.3488 3709.7083)" class="st31" cx="3045.2" cy="1207.8" rx="34" ry="39.9"/>
					</g>
					<g>
						<path class="st14" d="M2876.9,1064.5"/>
					</g>
					<g>
						
							<ellipse transform="matrix(3.360119e-02 -0.9994 0.9994 3.360119e-02 1725.4169 4227.9746)" class="st21" cx="3049" cy="1221.8" rx="24.2" ry="30"/>
					</g>
					<g>
						<path class="st21" d="M2889.8,1236.5c-1.1,3.1-2.6,6.1-4.5,9c-13.5,20-42.8,23.2-65.4,7.2c-17-12-25.3-31.5-22.7-48.8
							L2889.8,1236.5z"/>
					</g>
					<g>
						<path class="st3" d="M2892.3,1237.4c-4.4,27.7-39.6,39.5-63.5,28.4c-23.9-9.3-41.7-37.1-33.9-62.2c0.7-2.3,4.4-1.8,4.3,0.7
							c0.2,43.6,62.8,73.4,87.9,31.5C2888.6,1232.9,2892.9,1234.5,2892.3,1237.4L2892.3,1237.4z"/>
					</g>
					<g>
						<path class="st21" d="M2700.4,955.9c-11.2-5.7-23.2-7.8-34.9-5.5c-21.2,4.2-35.4,21.9-41.8,46.2c-4.2,15.9-4.5,34.5,0,53.6
							c11.3,48.2,49,81.7,84.1,74.6c13.1-2.6,23.9-10.5,31.9-21.8c13.4-19.1,17.1-47.7,10-78L2700.4,955.9z"/>
					</g>
					<g>
						<path class="st3" d="M2665.5,950.4c-22.9,7.6-33.9,30-37.4,52.1c-6,42.5,12,92.8,51.4,113.4c20.4,10.5,44.9,4.7,60.1-12.9
							c-5.4,10.6-14.8,19.7-26.8,24.2c-24.8,9.2-52.2-3.6-68.9-22.2c-25.1-27.8-36-68.3-26.9-104.8
							C2622.4,977,2640,951.8,2665.5,950.4L2665.5,950.4z"/>
					</g>
					<g>
						<path class="st3" d="M3031.9,1243.7c-46.7-11.7-45.3-74.2,4.5-79.2c19.4-1.7,39.2,7.6,49.1,24.4c10.7,16,6,41-11.4,49.7
							c-2.2,1.2-4.4-1.9-2.5-3.6c11.8-10.4,13-27.6,3.8-39.6c-12.2-17.1-40.1-22.9-56.3-8.8c-18.2,15.9-4.7,43.1,14.6,51.9
							C3036.6,1239.9,3034.9,1244.5,3031.9,1243.7L3031.9,1243.7z"/>
					</g>
					<g>
						<path class="st3" d="M3103,1204.8c6.5,17.1,0.2,37.9-13.9,49.8c-28.6,24.9-75.9,16-97.1-14c-10.7-14.3-14.3-34.8-6-50.8
							c1.1-2.3,4.7-0.9,4.1,1.5c-3.5,15.2,1.4,30.5,11.4,41.9c28.9,35.2,100.2,26.4,96.3-27.2
							C3097.3,1202.9,3102,1201.8,3103,1204.8L3103,1204.8z"/>
					</g>
					<g>
						<path class="st31" d="M2813.7,1209.5c-1.7,10.2,3.8,21.7,14.7,28.8c14.5,9.5,33.3,7.6,42-4.1c1.2-1.7,2.2-3.4,2.9-5.3
							c8.2-20.3-6.3-35.8-20.9-41.2C2835.8,1181.5,2818.3,1187.1,2813.7,1209.5z"/>
					</g>
					<g>
						<path class="st21" d="M2814.9,1211.2c-1.7,10.2,3.8,21.7,14.7,28.8c14.5,9.5,33.3,7.6,42-4.1c1.2-1.7,2.2-3.4,2.9-5.3
							c-1.9-8-7.4-15.7-15.7-21.1C2844,1199.9,2825.2,1200.8,2814.9,1211.2z"/>
					</g>
					<g>
						<path class="st3" d="M2862.1,1189.4c34,18.2,20.2,68.1-19.5,61.9c-15.8-2.7-29-14.7-32.8-30c-4.4-14.7,4.1-33.2,19.5-36.3
							c2.4-0.6,3.7,2.9,1.6,4.1c-10.3,6-13.8,18.2-9.6,28.8c6.6,19.5,38.8,28.6,47,6.3c3.3-9.5-0.6-21.8-9.3-30.4
							C2856.7,1191.8,2859.5,1188,2862.1,1189.4L2862.1,1189.4z"/>
					</g>
					<g>
						
							<ellipse transform="matrix(0.9369 -0.3497 0.3497 0.9369 -193.1358 1005.1356)" class="st31" cx="2687.1" cy="1037.4" rx="49.5" ry="68.2"/>
					</g>
					<g>
						
							<ellipse transform="matrix(0.9053 -0.4247 0.4247 0.9053 -191.6133 1236.375)" class="st21" cx="2677.5" cy="1048" rx="36.4" ry="57.8"/>
					</g>
					<g>
						<path class="st3" d="M2677.5,1097.3c40.7,16.2,60-29.8,52-63.5c-4.5-30.2-35.6-71.5-68.6-51.7c-19.3,13.6-23.4,41.8-19.9,64.5
							c0.5,2.6-3.5,3.5-4.2,1c-14.2-40.2,9-97.8,59.4-80.8c50.8,19.5,70,108.8,19.2,137.9c-6.5,3.1-13.8,4.6-20.9,4
							c-4.2-0.1-23.4-4.7-20.3-10.3C2674.9,1097.3,2676.3,1096.8,2677.5,1097.3L2677.5,1097.3z"/>
					</g>
					<g>
						<path class="st32" d="M2941.4,1088"/>
					</g>
					<g class="st6">
						<path class="st1" d="M2871.3,1040.2c101.4,156.7,320,107.6,339.3,118.5c20.6,11.7-31.6,62.8-31.6,62.8l2.8,1.9
							c21.3-19.6,40.2-41.8,56.2-66.2c10.3-15.7-4.5-35.8-22.6-30.6c-43.6,12.5-90.3,16.8-138.1,11.2
							C2996.7,1128.5,2925.4,1092.8,2871.3,1040.2z"/>
					</g>
					<g>
						<path class="st3" d="M2943.2,1326.7c-0.2,0-0.4,0-0.7,0c-0.6,0-1.3,0-1.9,0l-0.4-9.7l-0.3,9.7l-10.4-0.2
							c-1.5-0.1-2.9-0.1-4.4-0.2l-0.3,0l-0.4,0l-0.1,0.1l-12.5-0.9c-0.5,0-1.2-0.1-1.9-0.2c-0.5,0-0.9-0.1-1.4-0.1l-2.3-0.2
							c-0.2,0-0.6,0-1.1-0.1l-7.5-0.8l-0.2,0.2l-14.7-2.3c-1.1-0.2-2.4-0.4-3.6-0.6l-8.2-1.5l-4-0.8c-1.3-0.3-2.7-0.6-4-0.9
							l-3.9-0.9c-172-40.6-289.7-198-279.9-374.3c0.2-3.5,0.4-7,0.7-10.5c0.3-3.5,0.6-7,1-10.5c0.3-2.7,0.6-5.4,1-8.1
							c0.4-2.7,0.8-5.4,1.2-8.1c0.4-2.6,0.9-5.2,1.3-7.8l1.5-8.1c0.3-1.4,0.6-2.7,0.9-4.1c0.3-1.3,0.6-2.6,0.9-4l1.9-7.8
							c0.3-1.3,0.7-2.6,1-3.9l2.3-8.3c0.3-1.2,0.7-2.5,1.1-3.8c1.8-6.1,3.8-12.3,6-18.3l1-2.7c0.6-1.6,1.2-3.2,1.8-4.8
							c0.3-0.8,0.6-1.6,1-2.5c2-5.2,4.2-10.5,6.5-15.6l1.9-4.1c0.4-1,1-2.2,1.6-3.4c2.1-4.5,4.5-9.2,6.9-13.8
							c0.6-1.1,1.2-2.3,1.8-3.4c4.8-8.9,10.1-17.8,15.8-26.4c1.4-2.1,2.7-4.1,4.1-6.1c2.9-4.3,5.9-8.4,9-12.5c0.6-0.8,1.3-1.8,2-2.6
							c3.1-4.1,6.5-8.3,10-12.5c1.5-1.8,3-3.5,4.5-5.3c2.1-2.5,4.3-4.9,6.6-7.4c1.1-1.2,2.3-2.4,3.4-3.6l0,0
							c7.6-8,15.6-15.8,24-23.1c2.9-2.5,5.8-5,8.7-7.4c1.7-1.4,3.4-2.7,5-4.1c1.8-1.5,3.6-2.9,5.5-4.3c3.4-2.6,6.7-5.1,10.2-7.5
							c2.3-1.6,4.6-3.2,6.9-4.8l3.5-2.3c0.9-0.6,1.8-1.1,2.7-1.6c0.1-0.1,0.4-0.2,0.6-0.3c0.2-0.1,0.4-0.2,0.6-0.3l0.5-0.4l1.7-0.6
							c0.4-0.1,0.7-0.3,1.1-0.4l0.9-0.3c5.8-1.7,11.8-1.6,17.4,0.2l1.2,0.4c1.2,0.4,2.4,1,3.5,1.5c12.2,6.3,18.5,19.6,15.7,32.9
							c-0.1,0.7-0.3,1.3-0.5,2c-0.5,1.7-0.9,3.4-1.4,5.1c-0.3,1.1-0.6,2.1-0.8,3.2c-0.5,1.9-0.9,3.7-1.3,5.5
							c-0.3,1.2-0.6,2.3-0.8,3.5c-1.5,6.5-2.7,13.1-3.8,19.6c-0.2,1.2-0.4,2.2-0.5,3.3c-0.2,1.2-0.4,2.3-0.5,3.5
							c-0.4,2.9-0.8,5.7-1.1,8.6l-0.6,5.2c-0.2,1.5-0.3,2.6-0.4,3.7l-0.5,6.2c-0.1,1.9-0.2,3.3-0.3,4.8c-0.1,1.7-0.2,3.3-0.3,5
							c-0.1,2.3-0.2,4.5-0.2,6.7l-0.1,5.7c-0.6,51.3,10.1,101.1,31.7,147.8c35.2,76.1,96.5,136.7,172.6,170.7
							c17.8,8,36.4,14.4,55.3,19.2l5,1.2c1.3,0.3,2.5,0.6,3.7,0.9l2.3,0.5c2.1,0.5,4.1,0.9,6.2,1.3c2.7,0.5,5.3,1,8,1.5l4.7,0.8
							c1.6,0.3,3.3,0.5,4.9,0.8l0.6,0.1c1.6,0.2,3.1,0.4,4.7,0.6l4.8,0.6c8.6,1,17.4,1.7,26.1,2.1l4.3,0.1c1.5,0,2.9,0.1,4.4,0.1
							c1.5,0,2.9,0,4.3,0c26.6,0,53.4-2.9,79.3-9l7.3-1.8c1.7-0.4,3.4-0.9,5-1.3l3.7-1c4.6-1.3,8.8-1.6,13-1
							c0.7,0.1,1.5,0.2,2.2,0.4c1.1,0.2,2.4,0.6,3.6,1.1l2.2,0.9c1.6,0.8,3.2,1.7,4.7,2.7c3.5,2.5,6.5,5.8,8.8,9.5
							c3,5.1,4.4,10.8,4.2,16.6c-0.2,4.4-1.4,8.7-3.5,12.7c-0.1,0.3-0.4,0.8-0.7,1.2c-0.3,0.5-0.5,0.9-0.8,1.3
							c-1.8,2.8-3.7,5.5-5.6,8.3c-1,1.4-1.9,2.7-2.9,4.1c-2.9,4.1-6,8.1-9.1,12.1c-2.1,2.7-4.2,5.3-6.3,7.8
							c-9.5,11.4-19.7,22.4-30.5,32.5l-3.3,3.1c-1.5,1.4-2.7,2.4-3.8,3.5l-3.5,3.1c-2.7,2.4-5.5,4.7-8.2,7
							c-5.2,4.3-10.5,8.4-15.9,12.4l-8.1,5.8c-0.7,0.5-1.2,0.8-1.7,1.1l-1.7,1.1c-0.5,0.4-1,0.7-1.5,1c-0.6,0.4-1.2,0.8-1.8,1.2
							l-1.5,1c-0.2,0.2-0.6,0.4-1,0.7c-0.2,0.1-0.4,0.3-0.6,0.4c-1.1,0.7-2.2,1.4-3.3,2.1l-4.8,3c-1.2,0.8-2.7,1.6-4.1,2.5l-2.9,1.7
							c-0.5,0.3-1.2,0.7-1.9,1.1l-0.8,0.4c-0.3,0.2-0.6,0.3-0.8,0.5v0l-17.4,9.2c-1.2,0.6-2.3,1.2-3.5,1.7l-3.6,1.7
							c-0.2,0.1-0.6,0.3-1,0.5l-4.9,2.2c-1,0.5-2.1,0.9-3.2,1.4c-0.2,0.1-0.8,0.4-1.4,0.6c-0.9,0.4-2.1,0.9-3.3,1.4l-4.2,1.7
							c-0.5,0.2-1.3,0.5-2,0.8l-0.7,0.3c-1.4,0.6-2.7,1.1-4,1.6c-0.3,0.1-0.9,0.3-1.4,0.5l-3.9,1.4c-0.2,0.1-0.4,0.2-0.7,0.2
							c-0.4,0.1-0.8,0.3-1.2,0.4c-0.7,0.3-1.7,0.6-2.7,0.9l-1.4,0.5l-3,1c-0.4,0.1-0.9,0.3-1.5,0.5c-1,0.3-2.3,0.8-3.6,1.2
							c-0.6,0.2-1.5,0.5-2.3,0.7l-12.1,3.5c-2.8,0.8-5.6,1.5-8.4,2.2c-3.5,0.9-7,1.7-10.5,2.4c-1,0.2-2.2,0.5-3.3,0.7l-2.9,0.6
							c-0.6,0.1-1.3,0.3-2.1,0.4l-3.7,0.7c-1.3,0.2-2.6,0.5-3.9,0.7c-0.1,0-0.4,0.1-0.8,0.1c-1,0.2-2,0.3-3,0.5
							c-1.1,0.2-2.2,0.4-3.4,0.5l-2.4,0.4c-0.1,0-0.6,0.1-1,0.1c0,0-0.5,0.1-0.9,0.1l-2.4,0.3c-1.5,0.2-3.1,0.4-4.7,0.6
							c-2.3,0.3-4.6,0.5-7,0.7l-5.9,0.6l-0.1-0.1l-4.5,0.4l-0.1,0c-0.5,0-0.9,0.1-1.4,0.1l-1.5,0.1c-0.8,0-1.5,0.1-2.1,0.1
							c-0.3,0-0.6,0-0.9,0l-5.4,0.2c-0.8,0-1.6,0.1-2.4,0.1l-1.6,0c-0.2,0-0.8,0-1.5,0c-0.2,0-0.7,0-1.2,0l-0.7,0c-0.3,0-0.7,0-1,0
							c-0.1,0-0.6,0-1.1,0c-0.2,0-1,0-1.7,0l-1.7,0C2943.5,1326.7,2943.4,1326.7,2943.2,1326.7z M2925.4,1306.7l0.4,0
							c1.5,0.1,2.9,0.2,4.4,0.2l9.6,0.2l0.7,9.7l0.1-9.7c0.7,0,1.3,0,1.8,0l0.3,0l0.3,0l0.2,0l0.3,0l1.1,0l0.8,0l2.4,0
							c0.1,0,0.1,0,0.1,0l0.3,0l0.6,0l12.4-0.4l0.1,0l16.2-1.6l0.4,0.3c1.7-0.2,3.3-0.3,5-0.5c1.5-0.2,2.9-0.3,4.4-0.5l6.5-0.9
							c1.1-0.2,2.2-0.3,3.2-0.5c1.1-0.2,2-0.3,3-0.5l12.1-2.3c1.1-0.2,2.3-0.5,3.4-0.7c3.4-0.7,6.7-1.5,10-2.3
							c2.7-0.7,5.3-1.3,7.9-2.1l11.7-3.4c0.8-0.2,1.4-0.4,2-0.6c1.4-0.4,2.5-0.8,3.7-1.2l5-1.7c1-0.3,2-0.7,3-1.1l6.4-2.4
							c1.4-0.5,2.6-1,3.8-1.5l0.6-0.2c0.9-0.4,1.5-0.6,2.1-0.8l3.9-1.6c1.2-0.5,2.3-1,3.4-1.4l1-0.4c1.3-0.6,2.2-1,3.2-1.4l8.5-3.9
							l4.7,8.5l-4.2-8.8c1.1-0.5,2.1-1,3.2-1.5l18.4-9.8c0.5-0.3,1-0.6,1.5-0.9l1.5-0.9c0.5-0.3,0.8-0.5,1.2-0.7
							c1.3-0.8,2.6-1.6,3.9-2.4l1.4-0.8l5.6,8l-5.1-8.3l3-1.9c1-0.6,2-1.3,3-1.9l3-2c0.5-0.3,1-0.6,1.4-1l12.4-8.7
							c5.2-3.8,10.2-7.7,15.1-11.8c2.6-2.2,5.2-4.4,7.8-6.6l3.3-2.9c1.1-1,2.2-2,3.3-3l3.5-3.2c10.1-9.6,19.8-19.9,28.8-30.7
							c2-2.5,4-4.9,6-7.4c2.9-3.7,5.8-7.5,8.6-11.4c0.9-1.3,1.8-2.6,2.7-3.9c1.8-2.6,3.6-5.2,5.4-7.9l0.4-0.6c1-1.8,1.4-3.2,1.4-4.7
							c0.1-2-0.4-4-1.5-5.8c-0.8-1.4-1.9-2.6-3.2-3.5c-0.7-0.5-1.5-0.9-2.3-1.2l-0.3-0.1c-0.3-0.1-0.6-0.2-0.8-0.2l-0.8-0.2
							c-1.4-0.2-2.9-0.1-4.5,0.4l-4.2,1.2c-1.8,0.5-3.6,1-5.5,1.4l-7.6,1.9c-27.5,6.4-55.6,9.7-83.9,9.5c-1.5,0-3.1,0-4.6-0.1
							c-1.5,0-3,0-4.5-0.1l-4.5-0.2c-9.2-0.4-18.5-1.1-27.6-2.2c-1.7-0.2-3.3-0.4-5-0.6c-1.8-0.2-3.5-0.5-5.3-0.7l-0.6-0.1
							c-1.7-0.2-3.3-0.5-5-0.8l-4.7-0.8c-3.1-0.6-5.9-1.1-8.7-1.6c-2.2-0.4-4.4-0.9-6.6-1.4l-2.4-0.5c-1.3-0.3-2.6-0.6-4-0.9
							l-5.3-1.3c-19.9-5.1-39.6-11.9-58.4-20.3c-80.4-35.9-145.1-99.9-182.3-180.3c-22.9-49.4-34.1-101.9-33.5-156.2l0.1-6.1
							c0.1-2.3,0.1-4.7,0.3-7c0.1-1.7,0.2-3.5,0.3-5.3c0.1-1.6,0.2-3.2,0.3-4.8c0-0.1,0-0.6,0.1-1.1c0.1-0.9,0.2-2.1,0.3-3.3
							l0.2-2.4c0.1-1.1,0.2-2.3,0.3-3.6l0.7-6c0.3-2.9,0.8-5.9,1.2-8.9c0.2-1.2,0.4-2.5,0.6-3.8c0.2-1.1,0.4-2.3,0.6-3.5
							c1.1-6.8,2.5-13.8,4-20.6c0.3-1.2,0.6-2.4,0.9-3.7c0.4-1.8,0.9-3.8,1.4-5.8c0.3-1.1,0.6-2.3,0.9-3.4c0.4-1.7,0.9-3.5,1.4-5.3
							c0.1-0.2,0.1-0.5,0.2-0.8c1.2-5.8-2.3-9.9-5.6-11.7c-0.4-0.2-0.8-0.4-1.2-0.5l-0.5-0.2c-1.3-0.4-3.4-0.8-5.8-0.1l-2.2,0.9
							c-0.2,0.1-0.5,0.3-0.8,0.5l-3.4,2.3c-2.2,1.5-4.4,3-6.5,4.5c-3.2,2.3-6.4,4.7-9.6,7.1c-1.7,1.3-3.5,2.7-5.2,4.1
							c-1.6,1.3-3.2,2.6-4.8,3.9c-2.8,2.3-5.5,4.6-8.2,7c-7.9,6.9-15.5,14.3-22.7,21.9l0,0c-1.1,1.1-2.2,2.3-3.2,3.5
							c-2.1,2.3-4.2,4.6-6.2,7c-1.5,1.7-2.9,3.3-4.3,5c-3.3,3.9-6.5,7.9-9.5,11.8c-0.6,0.8-1.2,1.6-1.8,2.4c-3,4-5.8,7.9-8.6,11.9
							c-1.3,1.9-2.6,3.8-3.9,5.8c-5.4,8.1-10.4,16.6-15,25c-0.6,1.1-1.2,2.1-1.7,3.2c-2.3,4.4-4.6,8.9-6.6,13.2
							c-0.5,1.1-1,2.2-1.5,3.3l-1.7,3.8c-2.2,4.8-4.3,9.8-6.2,14.8l-0.9,2.3c-0.6,1.5-1.1,3-1.7,4.4l-0.9,2.6
							c-2,5.7-4,11.5-5.7,17.3c-0.4,1.2-0.7,2.4-1,3.6l-2.2,7.9c-0.3,1.2-0.6,2.4-0.9,3.6l-1.8,7.4c-0.3,1.2-0.5,2.4-0.8,3.7
							l-2.3,11.5c-0.4,2.4-0.9,4.9-1.3,7.4c-0.4,2.5-0.8,5.1-1.1,7.7c-0.3,2.5-0.7,5.1-1,7.7c-0.4,3.3-0.7,6.6-1,10
							c-0.3,3.3-0.5,6.6-0.7,9.9c-9.3,166.9,102.1,315.9,264.9,354.3l18.8,3.9c1.2,0.2,2.5,0.4,3.7,0.6l4.6,0.7l0.2-0.2l20.7,2.8
							c0.5,0.1,1,0.1,1.5,0.1l11.9,0.8L2925.4,1306.7z M2947.5,1307.2C2947.5,1307.2,2947.5,1307.2,2947.5,1307.2L2947.5,1307.2z
							 M3060.2,1286.6c-0.1,0-0.1,0.1-0.2,0.1L3060.2,1286.6z M3060.8,1286.4c-0.2,0-0.3,0.1-0.5,0.1L3060.8,1286.4z M2685.2,719.4
							L2685.2,719.4L2685.2,719.4z"/>
					</g>
				</g>
				<g>
					<path class="st21" d="M2724.8,845.5c4.2-8.7,7.2-19.2,8.5-30.7c3.9-34.6-9.3-65.3-29.5-68.7c-20.1-3.4-39.6,21.9-43.4,56.5
						c-3.9,34.6,9.3,65.3,29.5,68.7L2724.8,845.5z"/>
				</g>
				<g>
					<path class="st3" d="M2698.4,748.5c-19.8,7.2-28.1,31.2-32,50.5c-0.6,2.6-0.5,6.2-0.4,8.8c0.8,17.6,2.9,35.3,12,50.1
						c3,4.7,6.8,8.7,12.2,11.2c2.1,0.9,1.4,4.2-0.8,4.2c-15,0.6-26.3-13.4-31.4-26.1c-14.1-32.1,2.1-95.1,39.1-104
						C2700.4,742.6,2701.7,747.5,2698.4,748.5L2698.4,748.5z"/>
				</g>
				<g>
					<path class="st31" d="M2677.1,795.3c-2.3,10.2-2.3,20.6-0.4,29.5c2.3,10.5,7.2,18.9,14,22.5c12.6,6.7,27-5.8,32.1-27.9
						c4.9-21-0.4-43.2-11.9-51c-0.5-0.4-1.1-0.7-1.7-1C2696.6,760.7,2682.2,773.2,2677.1,795.3z"/>
				</g>
				<g>
					
						<ellipse transform="matrix(0.9917 -0.1284 0.1284 0.9917 -83.643 353.218)" class="st21" cx="2697.7" cy="825.3" rx="18.4" ry="33"/>
				</g>
				<g>
					<path class="st3" d="M2715,832.2c4.8-17.1,5.2-42.4-8.8-54.5c-3.7-2.4-7.1-2-11.3,1.5c-9,8-12.7,22.5-13.4,34.7
						c-0.3,12.1,1.5,28.6,13.8,34c2.5,0.6,1.8,4.5-0.7,4.3c-29.2-5.2-30.1-52.9-17.4-73.5c6.6-13.2,23.8-22.8,37.3-12.6
						c14,11.1,16.2,30.3,13.7,46.7c-0.7,4.3-6.1,26.1-12,22.7C2715.1,834.6,2714.7,833.4,2715,832.2L2715,832.2z"/>
				</g>
			</g>
		</g>
	</g>
</g>
</svg>
