<?xml version="1.0" encoding="utf-8"?>
<!-- Generator: Adobe Illustrator 26.0.0, SVG Export Plug-In . SVG Version: 6.00 Build 0)  -->
<svg version="1.1" id="Layer_1" xmlns="http://www.w3.org/2000/svg" xmlns:xlink="http://www.w3.org/1999/xlink" x="0px" y="0px"
	 viewBox="0 0 4000 4000" style="enable-background:new 0 0 4000 4000;" xml:space="preserve">
<style type="text/css">
	.st0{fill:#491670;}
	.st1{opacity:0.35;}
	.st2{clip-path:url(#SVGID_00000006682719199737121220000016354812986102036404_);}
	.st3{fill:#FFD243;}
	.st4{fill:#FCAC38;}
	.st5{fill:#371A45;}
	.st6{opacity:0.6;}
	.st7{fill:#FFFFFF;}
	.st8{fill:#EECC13;}
	.st9{fill:url(#SVGID_00000084528720508605919610000015027121879663422389_);}
	.st10{fill:#FFAC48;}
	.st11{fill:url(#SVGID_00000035503095929445477530000010577489342835818402_);}
	.st12{fill:url(#SVGID_00000129925382046840439370000017747548417512757377_);}
	.st13{fill:#B2B2B2;}
	.st14{fill:#DB3E3E;}
	.st15{fill:#F75252;}
	.st16{fill:#FF2727;}
	.st17{opacity:0.7;}
	.st18{opacity:0.2;}
	.st19{fill:#D8D8D8;}
	.st20{fill:#E5E5E5;}
	.st21{fill:#22A7F0;}
	.st22{fill:#1C7AEA;}
	.st23{fill:url(#SVGID_00000103962783357103094510000003596072167358674315_);}
	.st24{fill:#CC3232;}
	.st25{fill:#30AAFC;}
	.st26{opacity:0.3;}
	.st27{opacity:0.5;}
	.st28{fill:#111A28;}
</style>
<g>
	<g>
		<g>
			<g>
				<g>
					<path id="SVGID_1_" class="st0" d="M394.3,1745c131.6,560-17.9,725.1,92.1,1075.9c66.7,212.7,220.5,323.7,411.5,454.7
						c134.6,92.4,277.1,237.9,465.1,330.9c421.9,208.6,949.4-2.4,1381.6-38.4c701.9-58.5,1060.2-377.9,813.9-1249.7
						c-81.6-288.8,135.5-587.2,62.9-967.9c-40.5-212.7-251.9-403.2-429.9-529.8c-270.2-192.1-338.4-416.3-622.9-496.5
						c-304.5-85.9-549.9,114-931.8,104.6c-212.4-5.2-531.5-137.7-787.3,313.1C718,973.9,272.4,1226.1,394.3,1745z"/>
				</g>
			</g>
		</g>
		<g class="st1">
			<g>
				<defs>
					<path id="SVGID_00000080198673615647200030000014565721553475694525_" d="M394.3,1745c131.6,560-17.9,725.1,92.1,1075.9
						c66.7,212.7,220.5,323.7,411.5,454.7c134.6,92.4,277.1,237.9,465.1,330.9c421.9,208.6,949.4-2.4,1381.6-38.4
						c701.9-58.5,1060.2-377.9,813.9-1249.7c-81.6-288.8,135.5-587.2,62.9-967.9c-40.5-212.7-251.9-403.2-429.9-529.8
						c-270.2-192.1-338.4-416.3-622.9-496.5c-304.5-85.9-549.9,114-931.8,104.6c-212.4-5.2-531.5-137.7-787.3,313.1
						C718,973.9,272.4,1226.1,394.3,1745z"/>
				</defs>
				<clipPath id="SVGID_00000159428351676399384740000015482700099764901818_">
					<use xlink:href="#SVGID_00000080198673615647200030000014565721553475694525_"  style="overflow:visible;"/>
				</clipPath>
				<g style="clip-path:url(#SVGID_00000159428351676399384740000015482700099764901818_);">
					<g>
						<g>
							<g>
								<path class="st3" d="M2889.3,3802.7c-5.9,53.9-15.1,107.8-27.5,161.4c-28.5,123-74.5,244.2-138.9,360.1
									c-371.6,668.8-1215,909.6-1883.8,538c-532.5-295.9-793.7-890.9-690.4-1458.7c26.4-145.3,76.7-288.8,152.4-425.1
									c118.2-212.7,284.1-382.1,476.9-502.2c31-19.4,62.7-37.5,95.1-54.3c174.1-90.3,365.9-143,562-153.9c1.7-0.1,3.4-0.2,5.2-0.3
									c12-0.6,24-1.1,36.1-1.4c23.9-0.6,47.9-0.6,71.8-0.1c162.6,4.1,326.4,37,483.4,100.9c51.9,21,103.1,45.4,153.3,73.3
									c10.8,6,21.5,12.1,32.1,18.4c6.4,3.7,12.7,7.6,19,11.5C2704.9,2757.3,2946.1,3283.7,2889.3,3802.7z"/>
							</g>
						</g>
						<g>
							<g>
								<path class="st3" d="M2889.4,3802.7c-5.9,53.9-15.1,107.8-27.5,161.4c-28.5,123-74.5,244.2-138.9,360.1
									c-371.6,668.7-1215,909.6-1883.7,538c-532.5-295.9-793.7-890.9-690.4-1458.7c26.5-145.3,76.7-288.7,152.4-425
									c82.1-147.6,187-274.4,308.1-378.3c53.4-45.8,109.8-87.1,168.8-123.9c31-19.4,62.7-37.5,95.1-54.2
									c174.1-90.4,365.9-143,561.9-153.9c1.7-0.1,3.4-0.2,5.2-0.3c11.9-0.6,24-1.1,36.1-1.4c23.9-0.7,47.9-0.7,71.8-0.1
									c162.6,4.1,326.4,37,483.4,100.9c51.9,21,103.2,45.4,153.3,73.3c10.8,6,21.5,12.1,32,18.4c6.4,3.7,12.7,7.7,19,11.5
									c74.3,45.5,143,96.9,205.6,153.5C2773.9,2924,2937.1,3366,2889.4,3802.7z"/>
							</g>
						</g>
						<g>
							<g>
								<path class="st4" d="M960,2933.1c-28.5-57.6-39.6-116.5-43.8-155.9c39.8-3.8,77,12.6,92,44.1
									C1026.7,2860.1,1005.2,2908.1,960,2933.1z"/>
							</g>
						</g>
						<g>
							<g>
								<path class="st4" d="M839.1,4862.2c668.8,371.6,1512.1,130.7,1883.7-538c64.4-115.9,110.4-237.1,138.9-360.1
									c12.5-53.5,21.6-107.5,27.5-161.4c10.5-96,10.8-192.4,1.4-287.4c-0.5,4.4-0.9,8.8-1.4,13.2c-5.9,53.9-15,107.8-27.5,161.4
									c-28.5,123-74.5,244.2-138.9,360.1c-371.7,668.8-1215,909.6-1883.7,538c-412.6-229.3-662.3-638.1-705.7-1074.7
									C80.2,4046.6,340.9,4585.3,839.1,4862.2z"/>
							</g>
						</g>
						<g>
							<g>
								<path class="st4" d="M2354.7,3803.2c-37.8,168.8,14,305.4,115.7,305.2c101.7-0.3,224-133,261.8-301.8
									s-23.1-309.8-124.9-309.5C2505.6,3497.4,2392.5,3634.5,2354.7,3803.2z"/>
							</g>
						</g>
						<g>
							<g>
								<path class="st5" d="M2279.4,3691.5c-53.5,125.4-46.8,274.8,23,391.3c23.3,37.6,55.4,69.2,99.3,84.9
									c5.1,1.8,7.7,7.4,5.9,12.5c-1.4,3.9-5,6.3-8.9,6.5c-26.4,0.7-53.5-7.1-77.3-20.1c-156.9-92.3-186.8-359.4-61.6-488.5
									C2269.1,3668.5,2285,3679.3,2279.4,3691.5L2279.4,3691.5z"/>
							</g>
						</g>
						<g>
							<g>
								
									<ellipse transform="matrix(0.998 -6.399680e-02 6.399680e-02 0.998 -178.8823 62.3117)" class="st4" cx="883.2" cy="2823.5" rx="137.7" ry="117.4"/>
							</g>
						</g>
						<g>
							<g>
								
									<ellipse transform="matrix(0.9378 -0.3471 0.3471 0.9378 -936.9194 495.0731)" class="st3" cx="913.5" cy="2862.8" rx="103.4" ry="83.5"/>
							</g>
						</g>
						<g>
							<g>
								<path class="st5" d="M887.4,2954.4c-62.4,10.1-134.5-22.3-159.6-83.4c-28.7-66.9,9.9-141.4,71.8-172
									c86.4-46.5,218.6-9.6,238.1,94.8c4.2,24.1,0.7,48.8-10.2,70.4c-3.5,7.1-8.2,13.3-12.5,19.6c-2.1,3-6.3,3.8-9.3,1.7
									c-2.7-1.9-3.6-5.5-2.2-8.4c12.2-24.9,15.2-52.7,7-76.9c-29.2-88.4-158.6-101.8-219.6-39.9c-49.1,47.1-35.8,118,20.2,153
									c21.7,14.3,48.1,22.2,75.7,24.5C896.6,2938.5,897.1,2952.9,887.4,2954.4L887.4,2954.4z"/>
							</g>
						</g>
						<g>
							<g>
								<path class="st5" d="M1062.6,2739c67.1,77.4,38.4,190-42,246.3c-99.8,73.8-263.1,55.6-328.6-54.7
									c-15.3-26.7-23.3-57.6-21.1-87.4c0.7-8,12.2-8.3,13.4-0.4c16.2,110.2,141.6,163.2,241.4,137.2
									c73.3-16.7,141.2-77.2,142.3-156.1c0.7-25.6-6.3-51.4-19-75.4C1044.3,2739.8,1056.1,2731.7,1062.6,2739L1062.6,2739z"/>
							</g>
						</g>
						<g>
							<g>
								<path class="st5" d="M510.9,3135.7c135,9.9,234,128.6,247.3,259.1c17.8,149.9-63.3,305-194.6,378
									c-36.7,20.4-77.5,34.6-119.2,39.4c-20.7,3-41.7,2.4-62.1,0.6c-5.3-0.5-9.2-5.1-8.8-10.4c0.4-4.8,4.2-8.4,8.8-8.8
									c6.8-1.1,14.5-2.3,21.3-3.2c4.2-1.1,16.5-3.5,20.9-4.6c45.1-11.9,88.1-32.8,124.9-61.6c125.7-95.6,187.7-279.6,118.3-426
									c-30.9-66.3-91-117.3-161.2-139C493.1,3155,496.8,3134.8,510.9,3135.7L510.9,3135.7z"/>
							</g>
						</g>
						<g>
							<g>
								
									<ellipse transform="matrix(0.1745 -0.9847 0.9847 0.1745 -3071.3916 3281.0254)" class="st4" cx="421.1" cy="3472.3" rx="238.9" ry="198"/>
							</g>
						</g>
						<g>
							<g>
								<path class="st3" d="M413.9,3676.3c70.4,0.8,142-47.1,178.8-127.6c48.9-107.3,17.6-231.8-70-278.2
									c-12.4-6.6-25.2-11.2-38.3-14c-51.7,21.1-98,65.3-126.1,126.8C308.6,3492.1,334,3617.3,413.9,3676.3z"/>
							</g>
						</g>
						<g>
							<g>
								<path class="st5" d="M226,3383.6c34.1-90.5,130.6-160.8,230.3-151.2c111.3,8.6,185.8,110,182.6,217.1
									c-1,47.4-15.2,94-39.7,134.4c-52.4,87.8-163.3,146.4-264.3,113.5c-23.7-7.8-45.7-20.1-63.9-36.4
									c-18.3-16.2-32.8-36-42.6-57.5c-2.2-4.9-0.1-10.6,4.8-12.8c4.3-2,9.2-0.5,11.9,3.1c50.1,69.5,139.8,85.9,213.7,45.7
									c52.1-27.7,90.6-77.8,107.3-133.9c28.2-92.5-14.4-200.9-116.4-216.5c-79.7-12.4-158.9,37.7-202.4,105.3
									C239.5,3406.5,220.9,3397,226,3383.6L226,3383.6z"/>
							</g>
						</g>
						<g>
							<g>
								<path class="st5" d="M2060,3408.2c18.6,107.5-11.5,223.6-80.5,308.8c-144.5,181.9-416.2,199.1-599,65.5
									c-88.3-63.5-154.3-158.6-178.1-264.5c-1.5-8.1,9.9-11.6,12.9-3.6c17.6,48.9,42.4,94.7,74.1,134.9
									c93.6,119.6,247.6,190.2,399.3,174.9c151.3-13.1,287.9-117.4,334.4-262.9c16.1-48.1,22.7-99.7,20.5-151.3
									C2043,3400,2058.1,3397.9,2060,3408.2L2060,3408.2z"/>
							</g>
						</g>
						<g>
							<g>
								
									<ellipse transform="matrix(0.9626 -0.2709 0.2709 0.9626 -868.0287 568.2721)" class="st4" cx="1624.5" cy="3428.4" rx="304.6" ry="277.7"/>
							</g>
						</g>
						<g>
							<g>
								<path class="st3" d="M1374.6,3505.1c25.8,94.9,111.2,170.9,222.8,186.3c148.7,20.4,287.7-74.3,310.5-211.5
									c3.3-19.4,4-38.6,2.4-57.3c-45.2-60.5-116.5-104.1-201.7-115.9C1557.7,3285.9,1415.7,3372.9,1374.6,3505.1z"/>
							</g>
						</g>
						<g>
							<g>
								<path class="st5" d="M1656.8,3137.6c125,15.1,234.8,118.5,256.3,243.5c26.4,131.4-52.9,266.3-180.3,307.6
									c-91.8,31.4-197.3,12.7-275.2-44.1c-118.3-84.1-167.4-250.3-89.3-377.5c8.1-13.2,17.6-25.5,27.8-37c2.5-2.8,6.7-3,9.5-0.5
									c2.6,2.3,2.9,6.2,0.9,8.9c-17.3,23.5-30.3,49.8-38.4,77.3c-16.1,54.7-12.8,114.3,8.3,166.9
									c75.6,193.3,351.2,248.9,466.9,63.3c59.7-95.9,35-227.7-42.6-307.1c-38.8-41.5-90.4-71.2-146.9-85.1
									C1643.7,3151.5,1646.4,3136.4,1656.8,3137.6L1656.8,3137.6z"/>
							</g>
						</g>
						<g>
							<g>
								<g>
									<path class="st3" d="M839.7,4206.4c-65.2,34.3-116.1,84.4-144.5,148.3c-51.5,115.8-15,243.8,79.3,356.5
										c61.8,73.9,149.7,138.3,256.3,181.5c269.3,109.1,556.8,42.1,642.1-149.7c31.8-71.4,31.1-150,3.8-226.1
										c-46-128.5-204.6-167.3-373.7-235.8"/>
								</g>
							</g>
							<g>
								<g>
									<path class="st5" d="M706.1,4359.5c-40.6,109.1,1.9,225.3,72.6,312.1c169.3,210,521.7,319.9,767,186.2
										c49.3-28,91.1-68.5,118.5-118.7c2.5-4.7,8.5-6.5,13.2-3.9c4.2,2.3,6,7.3,4.4,11.7c-10.4,29-26,56.5-45.5,81
										c-79.8,98.8-210.4,141.6-333.8,146.2c-216.5,6.3-440.2-91.7-568.3-268.8c-64.3-87.9-103.7-205.1-68.2-312.3
										c5-14.9,11-29.4,18.4-43.1c3.1-5.8,10.4-8,16.2-4.9C705.8,4347.8,708.1,4354,706.1,4359.5L706.1,4359.5z"/>
								</g>
							</g>
							<g>
								<g>
									
										<ellipse transform="matrix(0.2558 -0.9667 0.9667 0.2558 -3514.2195 4528.2285)" class="st4" cx="1184" cy="4546.7" rx="290.4" ry="399.6"/>
								</g>
							</g>
							<g>
								<g>
									
										<ellipse transform="matrix(0.1763 -0.9843 0.9843 0.1763 -3563.9297 4995.7627)" class="st3" cx="1203.1" cy="4627.4" rx="213.6" ry="338.7"/>
								</g>
							</g>
							<g>
								<g>
									<path class="st5" d="M1440.9,4798.1c137.6-83.7,140.5-235.6,41.8-352.6c-90.1-107-231.8-168-370.3-172.1
										c-250.7-5.8-384,192.1-213.4,397.8c45.9,54.6,106.2,97.7,172.3,129.6c4.8,2.3,6.8,8.1,4.5,12.9c-2.1,4.4-7.2,6.5-11.8,4.9
										c-108.2-36.7-210.9-111.1-263.8-216.3c-86.1-171.6,15.2-337.5,194.3-379.8c155.2-37.8,323.8,7,448.8,103.3
										c93.9,72.7,169.9,188.5,152.1,311.8c-11.5,80.8-69.6,149.6-143.4,181.5C1438.2,4825.1,1428.4,4805.9,1440.9,4798.1
										L1440.9,4798.1z"/>
								</g>
							</g>
						</g>
						<g>
							<g>
								<g>
									<path class="st3" d="M2039.8,2891.2c48.6-32,84.8-75.3,102.3-127.7c31.6-95-6.9-192.9-89.7-274.3
										c-54.3-53.4-128.3-97.3-215.5-123.1c-220.2-65.1-441.1,9.7-493.5,167.1c-19.5,58.6-12.9,120.3,14.4,178.1
										c46.1,97.6,152.6,178.3,290.9,219.2"/>
								</g>
							</g>
							<g>
								<g>
									<path class="st5" d="M2134.2,2760.8c24.6-89-17.8-178.8-80.2-242c-149.6-153.8-437.5-213.2-620.6-87.2
										c-36.7,26.2-66.4,61.7-83.7,103.7c-1.4,3.4-5.4,5.1-8.8,3.6c-3.1-1.3-4.7-4.7-3.9-7.9c12.2-47.5,41.7-89.9,78.9-121.6
										c207.2-168.7,576.9-82.2,710.3,142.6c25,42.6,41.1,92.1,39.1,142c-0.9,24.9-6.2,49.4-15.4,72c-1.7,4.3-6.6,6.3-10.9,4.6
										C2135.2,2769,2133.1,2764.8,2134.2,2760.8L2134.2,2760.8z"/>
								</g>
							</g>
							<g>
								<g>
									
										<ellipse transform="matrix(0.1606 -0.987 0.987 0.1606 -1153.0663 3944.8486)" class="st4" cx="1742.8" cy="2650.4" rx="229.5" ry="315.8"/>
								</g>
							</g>
							<g>
								<g>
									
										<ellipse transform="matrix(7.980087e-02 -0.9968 0.9968 7.980087e-02 -995.5217 4097.4214)" class="st3" cx="1721.5" cy="2587.9" rx="168.8" ry="267.7"/>
								</g>
							</g>
							<g>
								<g>
									<path class="st5" d="M1520.9,2471.1c-71.3,51.4-96.5,138.2-55.5,217.3c65.4,123.8,220.1,183.2,355,174.1
										c105.9-6,224-72.7,214-191.3c-13.3-114.9-119.1-193.3-222.2-230.6c-7.9-2.8-4.3-14.7,3.8-12.8
										c116.1,27.7,237.2,112.9,255.1,239.4c14.1,103.7-61.6,189-155.4,220.3c-88.5,31.4-187.6,25.3-274.9-5.7
										c-87.4-31.8-169-91.6-208.1-178.2c-34.3-74.5-20.2-163.9,41.9-219.1c11.5-10.5,24.1-19.4,37.2-27.3
										c3.9-2.4,9.1-1.1,11.4,2.9C1525.4,2463.8,1524.4,2468.6,1520.9,2471.1L1520.9,2471.1z"/>
								</g>
							</g>
						</g>
						<g>
							<g>
								
									<ellipse transform="matrix(0.3213 -0.947 0.947 0.3213 -1892.7444 4944.8174)" class="st3" cx="2503.3" cy="3792.9" rx="268.8" ry="140.1"/>
							</g>
						</g>
						<g>
							<g>
								<path class="st5" d="M2717.6,3586.2c-44.5-74.1-123.3-82.6-192.5-36c-104.4,71-164.2,210.1-168.5,334.1
									c-1.7,69.6,16.1,157.6,85.6,188c45.2,18.8,96.7,1.8,136.4-25.4c65.6-45.2,110.6-113,142.1-186.2c3.2-7.7,15-3.5,12.6,4.5
									c-31.2,104.4-103,216.3-213.9,248.1c-102.6,27.2-178.6-47.9-198.9-143.6c-19.1-84.7-4.7-173.7,26.9-252.9
									c32.5-78.8,84.5-153.1,159-197.3c66.2-39.6,151.4-41.7,203.3,22.3c9.2,11.3,16.6,23.8,22.7,36.6c2,4.2,0.2,9.1-4,11.1
									C2724.4,3591.3,2719.8,3589.8,2717.6,3586.2L2717.6,3586.2z"/>
							</g>
						</g>
						<g class="st6">
							<g>
								<path class="st7" d="M2589.4,3152.3c-61.9,146,116.6,374.2,31.3,789.4c-36.2,176.1,177.9,56.8,191.4-299.2
									C2824.5,3312.4,2633,3049.4,2589.4,3152.3z"/>
							</g>
						</g>
						<g class="st6">
							<g>
								<path class="st7" d="M2329.9,2792.6c13.4,57.8,110.2,121.4,173.2,226.4c67.4,112.2,164.3,89.3,81.9-120.3
									C2497,2675.4,2304.7,2683.7,2329.9,2792.6z"/>
							</g>
						</g>
						<g>
							<g>
								<path class="st5" d="M1509.9,5052.2c-234.9,0-467.1-59.7-678.1-176.9C307.1,4583.7,26.6,3991.2,134,3400.9
									c27.4-150.4,79.2-294.9,154-429.6c115.4-207.5,282.1-383,482.1-507.6c31-19.4,63.4-37.9,96.1-54.9
									c175-90.8,371.4-144.6,568-155.6l2.5-0.1c0.9-0.1,1.9-0.1,2.8-0.2c12.9-0.7,24.9-1.2,36.4-1.4c23.6-0.6,48-0.7,72.5-0.1
									c168.3,4.2,332.7,38.6,488.7,102c52.7,21.3,104.9,46.2,154.9,74.1c10.5,5.9,21.6,12.1,32.5,18.6c6.4,3.7,12.8,7.7,19.2,11.6
									c229.7,140.5,412.8,342.9,529.5,585.3c114.2,237.2,159.5,500.5,130.9,761.3l0,0c-5.9,54.3-15.3,109.2-27.8,163.1
									c-29.4,126.9-76.7,249.4-140.4,364c-181.7,326.9-479.8,563.5-839.4,666.3C1769,5034.2,1639,5052.2,1509.9,5052.2z
									 M1513.3,2280.9c-12.3,0-24.5,0.2-36.6,0.5c-11.2,0.3-22.9,0.7-35.7,1.4l-2.4,0.1c-1,0.1-2,0.1-3,0.2
									c-192.2,10.8-384.4,63.4-555.7,152.3c-32,16.6-63.7,34.6-94,53.7c-195.8,121.9-358.9,293.7-471.8,496.7
									c-73.2,131.9-123.9,273.3-150.7,420.5C58.4,3983.9,332.8,4563.8,846.4,4849.2c210.2,116.8,438.2,172.2,663.2,172.2
									c481.9,0,950-254.2,1200.1-704.5c62.4-112.2,108.6-232,137.4-356.3c12.3-52.8,21.4-106.5,27.2-159.6v0
									c57.5-525.3-196.3-1042.6-646.4-1317.9c-6.2-3.9-12.4-7.7-18.7-11.3c-10.7-6.4-21.6-12.5-31.8-18.3
									c-49-27.2-100-51.6-151.6-72.5c-152.6-62.1-313.5-95.7-478.2-99.8C1536.2,2281,1524.7,2280.9,1513.3,2280.9z"/>
							</g>
						</g>
					</g>
				</g>
			</g>
		</g>
		<g>
			<path class="st5" d="M1796.3,3715.3c-153.2,0-302-24.2-441.1-93c-125.1-61.8-231.3-147.4-325.1-223
				c-49.6-40-96.5-77.7-142.2-109.1c-178.8-122.7-347.7-238.5-418.4-464c-52.9-168.6-46.9-294.4-39.9-440
				c7.7-161.3,16.4-344-52.5-637.2c-91.4-389.2,127.4-630.2,303.3-823.8c61.5-67.7,119.6-131.6,153.8-192
				c97.1-171,211.7-275.5,350.6-319.3c119.9-37.8,236.8-24.4,339.9-12.6c40.1,4.6,78,9,112.6,9.8c168.9,4.1,308.9-32.8,444.4-68.5
				c164.2-43.3,319.3-84.2,491.8-35.5c175.8,49.6,269.4,150.6,377.7,267.6c71,76.7,144.4,156,250.7,231.5
				c176.2,125.3,395.1,320.8,437,540.8c37.6,197.4-2,376.4-36.9,534.4c-33.5,151.5-65.2,294.6-26.4,432
				c117.2,414.8,103.5,718.4-41.8,928.1c-137.8,198.8-395.4,311.3-787.5,344c-121.1,10.1-248,33.7-382.3,58.7
				C2174.9,3679.5,1982.4,3715.3,1796.3,3715.3z M411.5,1741c70,298,61.2,483.3,53.4,646.9c-6.8,142.2-12.6,265.1,38.4,427.7
				c67,213.8,231,326.3,404.7,445.5c46.9,32.2,94.3,70.3,144.4,110.8c92.3,74.4,197,158.8,318.6,218.8
				c297.6,147.1,647.8,82,986.5,19c135.3-25.2,263-48.9,385.9-59.2c381-31.8,630.1-139.4,761.5-329
				c139-200.5,151.1-494.4,36.9-898.4c-41.2-146-8.6-293.3,25.9-449.2c35.9-162.2,73-329.8,36.7-520.1
				c-39.7-208.5-251.8-397.2-422.8-518.7c-109.2-77.6-187.3-161.9-256.1-236.3c-104.7-113.1-195.1-210.8-361.4-257.6
				c-163.2-46-306.9-8.2-473.3,35.7c-137.8,36.3-280.4,73.9-454.2,69.6c-36.1-0.9-74.8-5.3-115.7-10
				C1321,413.5,1072.4,385,864.9,750.6c-36.2,63.7-95.5,129.1-158.3,198.3C536.3,1136.4,324.3,1369.9,411.5,1741z"/>
		</g>
		<g>
			<polygon class="st7" points="3389.5,1365.2 3367.9,1369.1 3363.8,1397.9 3359.6,1369.1 3338,1365.2 3359.6,1361.2 3363.8,1332.4 
				3367.9,1361.2 			"/>
		</g>
		<g>
			<polygon class="st8" points="3131.6,1105.6 3110.1,1109.6 3105.9,1138.4 3101.7,1109.6 3080.2,1105.6 3101.7,1101.7 
				3105.9,1072.9 3110.1,1101.7 			"/>
		</g>
		<g>
			<polygon class="st7" points="2742.6,554.6 2721.1,558.6 2716.9,587.3 2712.7,558.6 2691.2,554.6 2712.7,550.6 2716.9,521.9 
				2721.1,550.6 			"/>
		</g>
		<g>
			<polygon class="st7" points="1631.3,655.3 1609.7,659.3 1605.6,688 1601.4,659.3 1579.8,655.3 1601.4,651.3 1605.6,622.6 
				1609.7,651.3 			"/>
		</g>
		<g>
			<polygon class="st8" points="792.5,1125.9 770.9,1129.9 766.8,1158.7 762.6,1129.9 741,1125.9 762.6,1122 766.8,1093.2 
				770.9,1122 			"/>
		</g>
		<g>
			<polygon class="st7" points="830.2,1718.3 808.7,1722.2 804.5,1751 800.3,1722.2 778.8,1718.3 800.3,1714.3 804.5,1685.5 
				808.7,1714.3 			"/>
		</g>
		<g>
			<polygon class="st8" points="1326.2,1951.4 1304.6,1955.4 1300.4,1984.2 1296.2,1955.4 1274.7,1951.4 1296.3,1947.5 
				1300.4,1918.7 1304.6,1947.5 			"/>
		</g>
		<g>
			<polygon class="st8" points="881.7,2480.3 860.1,2484.3 855.9,2513.1 851.8,2484.3 830.2,2480.3 851.8,2476.4 855.9,2447.6 
				860.1,2476.4 			"/>
		</g>
		<g>
			<polygon class="st7" points="1366.4,2344.7 1344.8,2348.7 1340.6,2377.4 1336.5,2348.7 1314.9,2344.7 1336.5,2340.7 1340.6,2312 
				1344.8,2340.7 			"/>
		</g>
		<g>
			<polygon class="st7" points="1621.9,3474.9 1600.4,3478.8 1596.2,3507.6 1592,3478.8 1570.5,3474.9 1592,3470.9 1596.2,3442.1 
				1600.4,3470.9 			"/>
		</g>
		<g>
			<polygon class="st7" points="3277.1,1918.7 3255.5,1922.7 3251.4,1951.4 3247.2,1922.7 3225.6,1918.7 3247.2,1914.7 3251.4,1886 
				3255.5,1914.7 			"/>
		</g>
		<g>
			<polygon class="st8" points="3170.5,2667.5 3149,2671.5 3144.8,2700.2 3140.6,2671.5 3119.1,2667.5 3140.6,2663.5 3144.8,2634.8 
				3149,2663.5 			"/>
		</g>
		<g>
			<polygon class="st7" points="3436.7,3053.8 3415.2,3057.8 3411,3086.6 3406.8,3057.8 3385.3,3053.8 3406.8,3049.9 3411,3021.1 
				3415.2,3049.9 			"/>
		</g>
		<g>
			<polygon class="st7" points="3001.8,3116.2 2980.3,3120.2 2976.1,3149 2971.9,3120.2 2950.4,3116.2 2971.9,3112.3 2976.1,3083.5 
				2980.3,3112.3 			"/>
		</g>
		<g>
			
				<linearGradient id="SVGID_00000093899328109473923110000008212956993981259440_" gradientUnits="userSpaceOnUse" x1="1674.5192" y1="1042.5643" x2="950.3082" y2="529.8492" gradientTransform="matrix(1 0 0 -1 0 4000)">
				<stop  offset="0" style="stop-color:#FF4545"/>
				<stop  offset="1" style="stop-color:#F7931E"/>
			</linearGradient>
			<path style="fill:url(#SVGID_00000093899328109473923110000008212956993981259440_);" d="M1015.7,3444.8
				c0,0,80.7-171.7,94.2-279.8c13.5-108.1,29.8-147.5,58-182.6c0,0-50.8,12-62.8,8.1c0,0,45.6-81.7,72.4-134.1
				c51.1-99.7,138.9-257,432.1-246.9l374.4,522.1c0,0-39.4,222.6-291.4,324.6C1461.8,3549.4,1133.1,3418,1015.7,3444.8z"/>
			<g>
				<path class="st5" d="M1490.8,3503.8c-94.4,0-190.3-15.7-274.6-29.5c-83.9-13.7-156.4-25.6-197.5-16.2
					c-5.1,1.2-10.4-0.7-13.6-4.7c-3.3-4.1-3.9-9.6-1.7-14.3c0.8-1.7,80-171,93-275.7c10.7-85.8,23.3-129.2,41.3-161
					c-14.8,2.4-29.2,3.5-36.8,1.1c-3.9-1.3-7-4.2-8.5-8c-1.5-3.8-1.2-8.1,0.8-11.6c0.5-0.8,45.8-82.1,72.2-133.6
					c47.4-92.6,135.7-264.9,444.7-254.3c4.2,0.1,8.1,2.2,10.6,5.7l374.4,522.1c2.1,3,3,6.7,2.3,10.3
					c-1.7,9.4-43.6,231.2-299.7,334.8C1633.6,3494.6,1562.6,3503.8,1490.8,3503.8z M1054.8,3427.5c44.4,0,101.9,9.4,165.9,19.9
					c145,23.7,325.5,53.3,467-4c220-89,273.8-274.9,281.9-308.9l-366.9-511.7c-286.4-7.3-368.5,153.2-412.9,239.7
					c-18.3,35.8-45.6,85.7-61,113.5c10.9-1.6,24.4-4.2,36.2-7c5.7-1.3,11.6,1.1,14.7,6c3.1,4.9,2.7,11.3-0.9,15.8
					c-26.1,32.4-41.7,68.5-55.1,175.8c-10.8,86.8-62.8,210.8-85.2,261.4C1043.5,3427.7,1049,3427.5,1054.8,3427.5z"/>
			</g>
			<g>
				<path class="st10" d="M1594.4,2717.1c0,0-94.7-7-177.3,44c-70.5,43.5-91.1,92.4-96.9,135.8c-5.8,43.4-6.9,95.4-44.8,124.6
					c0,0,30.1,8.1,49.8-1.5c0,0-62.6,98.2-24.5,213.5c0,0,39.1,2.6,71.8,10.9c32.6,8.3,140.4,15.1,169.6,15.6
					c0,0-38.8,30.5-40.6,43.6c0,0,47.6-4.7,86.4,6s235.2,13.4,267.6-169.1C1887.8,2958,1594.4,2717.1,1594.4,2717.1z"/>
			</g>
			
				<linearGradient id="SVGID_00000014635427381281583070000017088873383329912707_" gradientUnits="userSpaceOnUse" x1="1062.5687" y1="879.6019" x2="949.3439" y2="727.9235" gradientTransform="matrix(1 0 0 -1 0 4000)">
				<stop  offset="0" style="stop-color:#FF4545"/>
				<stop  offset="1" style="stop-color:#F7931E"/>
			</linearGradient>
			<path style="fill:url(#SVGID_00000014635427381281583070000017088873383329912707_);" d="M1089,3060.3c0,0-11.5,26.9-13.6,62
				s-14.5,89.5-68.8,123.5c-54.3,34-75.2,27.7-75.2,27.7s44-29,55.8-76.8C999,3148.9,1018.2,3078.3,1089,3060.3z"/>
			<g>
				<path class="st5" d="M936.2,3287.6c-4.6,0-7.4-0.6-8.6-1c-5.1-1.5-8.8-5.8-9.5-11.1c-0.8-5.2,1.6-10.4,6-13.3
					c0.4-0.2,39.7-26.9,50-68.7c10.8-44,31-125.9,111.6-146.4c5-1.3,10.3,0.4,13.7,4.4c3.4,3.9,4.2,9.4,2.2,14.2
					c-0.2,0.4-10.7,25.5-12.5,57.5c-2.4,41.3-17.4,98.1-75.1,134.3C972.9,3283.1,948.3,3287.6,936.2,3287.6z M1067.6,3083.4
					c-40.7,23.1-56,71.5-67.1,116.6c-4.5,18.2-13,33.8-22.3,46.5c6.3-3.3,13.4-7.3,21.3-12.2c47.9-30,60.4-77.9,62.4-112.8
					C1062.7,3107.2,1065,3094.1,1067.6,3083.4z"/>
			</g>
			
				<linearGradient id="SVGID_00000043445681492606376020000007647639480078174392_" gradientUnits="userSpaceOnUse" x1="984.7584" y1="528.8389" x2="903.5784" y2="459.4084" gradientTransform="matrix(1 0 0 -1 0 4000)">
				<stop  offset="0" style="stop-color:#FF4545"/>
				<stop  offset="1" style="stop-color:#F7931E"/>
			</linearGradient>
			<path style="fill:url(#SVGID_00000043445681492606376020000007647639480078174392_);" d="M988.1,3395.3
				c0,0-83.3,47.4-104.9,111.8s-21.4,81.2-46.1,92.4c0,0,58.2,1.8,100.6-33.6s74.5-76.2,120.7-78.7c0,0-59-14-103.3,2.2
				C955.2,3489.4,959.9,3442.2,988.1,3395.3z"/>
			<g>
				<path class="st5" d="M838.8,3613.1c-1.1,0-1.8,0-2,0c-6.3-0.2-11.7-4.7-12.9-10.9c-1.2-6.2,1.9-12.5,7.7-15.1
					c13.7-6.2,16.3-13.4,27.9-50.4c3-9.7,6.5-20.7,10.9-33.9c23-68.6,107.5-117.3,111.1-119.3c5.4-3.1,12.1-2.1,16.5,2.3
					c4.3,4.4,5.1,11.2,1.9,16.5c-15.3,25.5-23.4,51.4-27.4,68.6c42.6-7.6,87.1,2.7,89.3,3.2c6.6,1.6,11,7.7,10.4,14.5
					s-6.1,12-12.8,12.4c-31,1.6-56,24.5-84.9,50.9c-8.9,8.1-18,16.5-27.8,24.6C904.7,3611.2,850.1,3613.1,838.8,3613.1z
					 M954.2,3436.1c-22.5,18.8-48,45.3-58,75.3c-4.3,13-7.7,23.8-10.8,33.4c-4.8,15.4-8.6,27.4-13,37c17.6-3.9,38.8-11.5,56.7-26.4
					c9.3-7.8,18.3-15.9,26.9-23.8c14.4-13.2,28.5-26,43.5-36.3c-13.3,0.4-27.2,2.3-39.6,6.9c-4.4,1.6-9.3,0.8-13-2
					c-3.7-2.9-5.7-7.4-5.2-12.1C941.8,3486.7,944.1,3464.9,954.2,3436.1z"/>
			</g>
			<g>
				<path class="st13" d="M1811.2,3190.1c0,0-15.2-34,0.4-63.9s50.4-8.4,50.4-8.4l42.3,31.5l-6.4,33.7L1811.2,3190.1z"/>
			</g>
			<g>
				<path class="st13" d="M1498.7,2754.3c0,0,27.3,25.3,60.6,20.1s24.2-45,24.2-45l-16.2-50.2l-34-4.8L1498.7,2754.3z"/>
			</g>
			<g>
				<path class="st5" d="M1811.2,3203.7c-5.3,0-10.2-3.1-12.4-8.1c-0.7-1.6-17.7-40.4,0.7-75.7c5.8-11.2,14.7-18.7,25.7-21.7
					c20.8-5.7,41.6,6.5,43.9,7.9c0.3,0.2,0.7,0.4,1,0.7l42.3,31.5c4.2,3.1,6.2,8.3,5.3,13.5l-6.4,33.7c-1.1,6-6.2,10.5-12.3,11
					l-86.7,7.2C1811.9,3203.7,1811.6,3203.7,1811.2,3203.7z M1836.8,3124c-1.5,0-3,0.2-4.4,0.6c-2.3,0.6-5.7,2.2-8.7,8
					c-8,15.4-5.6,32.8-2.9,43.1l65.7-5.4l2.9-15.1l-34.9-25.9C1851.4,3127.4,1843.7,3124,1836.8,3124z"/>
			</g>
			<g>
				<path class="st14" d="M1950.6,2118.8l-278.2-193.4c0,0-95.9-46-145.3,2.2c-49.4,48.3-218.3,300.7-218.3,300.7
					s148.3-92.2,262.9-103.1s260.8,136.5,260.8,136.5"/>
			</g>
			<g>
				<path class="st5" d="M1832.4,2275.4c-3.5,0-7-1.3-9.7-4c-1.4-1.4-143-142.7-249.8-132.5c-110,10.5-255.5,100.2-257,101.1
					c-5.4,3.4-12.5,2.5-17-2.1c-4.5-4.6-5.1-11.7-1.5-17c6.9-10.4,170.3-254.2,220.1-302.9c55.5-54.3,156.5-6.8,160.7-4.8
					c0.7,0.3,1.3,0.7,1.9,1.1l278.2,193.4c6.2,4.3,7.7,12.8,3.4,19c-4.3,6.2-12.8,7.7-19,3.4l-277.2-192.7
					c-9.4-4.2-89.4-38.6-129,0.1c-34.8,34-132.6,175.2-184.1,250.6c54.2-28.6,142.3-69.1,217.8-76.2
					c119.7-11.4,265.6,134.2,271.7,140.4c5.3,5.3,5.3,14-0.1,19.3C1839.3,2274.1,1835.9,2275.4,1832.4,2275.4z"/>
			</g>
			<g>
				<path class="st15" d="M1889.3,2169L1587,1916.3c0,0-38.1-8.7-78.3,23.6c-42.8,34.3-163.2,162.5-187.9,223.8
					c-6.8,16.9-12,64.7-12,64.7s74.7-64.1,123.3-99.9c48.5-35.8,72-49.2,82.7-27.2c11.3,23.1,145.4,369.3,146.7,406
					C1662.7,2543.9,1889.3,2169,1889.3,2169z"/>
			</g>
			<g>
				<path class="st16" d="M1889.3,2169c0,0-125.3,207.3-190,298.5c-22.3,31.5-37.5,49.1-37.8,39.7c-1.3-36.7-135.4-382.9-146.7-406
					c-10.8-22-34.2-8.6-82.7,27.2c-48.6,35.8-123.3,100-123.3,100s5.2-47.8,12-64.7c24.7-61.2,145.1-189.4,187.9-223.8
					c40.2-32.3,78.3-23.6,78.3-23.6l16.3,13.6L1889.3,2169z"/>
			</g>
			<g class="st17">
				<path class="st7" d="M1889.3,2169c0,0-2.5,4.2-7,11.6l-269.2-225l-16.3-13.6c0,0-38.1-8.7-78.3,23.6
					c-42.8,34.3-163.2,162.5-187.9,223.8c-2.4,5.9-4.6,15.8-6.4,26c-9.5,8-15.4,13.1-15.4,13.1s5.2-47.8,12-64.7
					c24.7-61.2,145.1-189.4,187.9-223.8c40.2-32.3,78.3-23.6,78.3-23.6l16.3,13.6L1889.3,2169z"/>
			</g>
			<g class="st18">
				<path class="st5" d="M1889.3,2169c0,0-125.3,207.3-190,298.5c-49.8-111.7-133.3-330.4-96.1-537.6L1889.3,2169z"/>
			</g>
			<g>
				<path class="st5" d="M1664.1,2523.7c-1.7,0-3.2-0.4-4.8-0.8c-5.1-1.3-11.1-6.1-11.4-15.2c-1.1-31.6-129.9-369-145.3-400.5
					c-0.8-1.6-1.7-2.9-2.2-3c-9.4-2.3-45,23.9-60.2,35.2c-47.6,35.1-121.8,98.7-122.5,99.3c-4.2,3.6-10.3,4.3-15.2,1.7
					c-4.9-2.6-7.8-8-7.2-13.5c0.6-5.1,5.6-50.2,12.9-68.3c25.9-64.2,148.1-194,192-229.3c44.8-36,88.1-26.6,89.9-26.2
					c2.1,0.5,4,1.4,5.7,2.8l302.3,252.7c5.2,4.3,6.4,11.7,2.9,17.5c-0.5,0.9-52.9,87.5-106.8,172.4
					C1694.7,2505.2,1675.6,2523.7,1664.1,2523.7z M1499.4,2076.9c2.6,0,5,0.3,7.4,0.9c8.8,2.2,15.6,8,20.2,17.5
					c8.3,16.9,118.8,299.9,143.3,388.8c34.6-43.8,122.8-182.4,201.3-312l-290.5-242.8c-8.6-1-35.3-1.7-63.9,21.3
					c-41.1,33-159.9,159-183.8,218.3c-2.2,5.5-4.4,15.5-6.2,26.2c26.4-22.1,66.7-55.3,96.8-77.5
					C1460.7,2090.3,1482.2,2076.9,1499.4,2076.9z"/>
			</g>
			<g>
				<g>
					<path class="st7" d="M2007.8,1261.1l-13.8,81.6l-7,41.6l-121.5,716.9c0,0-47.4-11.3-109.7-31.6c-12.2-4-25-8.3-38-12.9
						c-97.6-34.6-213.4-87.4-246.6-151.6c-49.7-95.9,31.9-481.7,130.2-617.9c45-62.4,195.4-56.4,300-43.5c11.7,1.4,22.8,3,33.2,4.5
						C1978.2,1254.6,2007.8,1261.1,2007.8,1261.1z"/>
				</g>
				<g>
					<path class="st19" d="M1994,1342.7l-7,41.6l-96.5,569.2l-25,147.7c0,0-1-0.2-2.9-0.7c-0.5-0.1-1.2-0.3-1.8-0.5
						c-0.5-0.1-1.1-0.3-1.7-0.4c-0.5-0.1-0.9-0.2-1.4-0.3c-0.2-0.1-0.4-0.1-0.6-0.1c-0.8-0.2-1.8-0.5-2.8-0.7
						c-0.2,0-0.4-0.1-0.7-0.2c-0.8-0.2-1.7-0.4-2.6-0.7c-1.2-0.3-2.5-0.7-3.8-1c-0.9-0.3-2-0.5-3-0.8c-1.1-0.3-2.1-0.6-3.2-0.9
						c-1.4-0.4-2.8-0.8-4.3-1.1c-3-0.8-6.2-1.7-9.5-2.6c-3-0.8-6.1-1.7-9.3-2.6c-3.7-1.1-7.6-2.2-11.7-3.4
						c-14.9-4.4-32-9.6-50.4-15.6c-3.6-1.2-7.2-2.4-10.9-3.6c-2.6-0.8-5.2-1.7-7.8-2.6c-6.3-2.1-12.8-4.4-19.4-6.7
						c-97.6-34.6-213.4-87.4-246.6-151.6c-41-79,7.1-354.5,80.3-525.4c-42.9,153.9-62.6,325-31.7,384.5
						c15.3,29.4,117.9-38.1,127.5-88.3c24.8-129.7,81.5-290.9,219.5-362.7C1870.3,1311.3,1936.2,1335.8,1994,1342.7z"/>
				</g>
				<g>
					<path class="st5" d="M1880.2,2123.3l-18.9-4.5c-14-3.3-342.7-82.7-406.3-205.4c-37.3-72-3.4-252.4,7.9-306
						c29.4-139.2,76.7-266,123.7-331c76.1-105.4,389.6-40.9,425.1-33.2l17,3.7L1880.2,2123.3z M1777.2,1253.4
						c-71.9,0-136.8,10.8-161.1,44.5c-93.2,129.1-175.1,509.7-128.8,598.9c43.5,84,261.8,155.6,363.6,182l136.1-803.5
						C1935.5,1265.3,1852.6,1253.4,1777.2,1253.4z"/>
				</g>
				<g>
					<path class="st7" d="M1509.9,1608.2l134,41.3c12,3.7,20,15.1,19.5,27.9c-1.8,46.7-11.3,154.5-61.5,179.4
						c-41.7,20.7-98.6,4.3-126.1-32.6c-30.7-41.2-12.2-144.8-0.6-195.5C1478.9,1612.9,1494.8,1603.6,1509.9,1608.2z"/>
				</g>
				<g>
					<path class="st19" d="M1663.5,1677.4c-1.7,46.7-11.3,154.5-61.5,179.4c-41.7,20.7-98.6,4.3-126.1-32.6
						c-18.9-25.4-19.1-74.3-13.8-120c1.3,23.7,7,44.1,16.4,58.7c53.9,83.7,122.6,14.9,122.6,14.9s4.7,21.5,11.5,24.3
						c28.7,11.3,43-85,49.3-134.9C1663.1,1670.3,1663.6,1673.8,1663.5,1677.4z"/>
				</g>
				<g>
					<path class="st5" d="M1561.6,1884c-37.9,0-77.1-17.7-100.3-48.9c-32.8-44-20.1-138.7-3.7-210.4c2.9-12.5,10.8-23.3,21.8-29.7
						c10.8-6.3,23.9-7.7,35.8-4.1l134,41.3c19.8,6.1,33.1,25,32.3,45.9c-2.3,60.7-14.6,166.7-71.6,195
						C1595.1,1880.5,1578.5,1884,1561.6,1884z M1502,1625.2c-2,0-3.5,0.7-4.4,1.2c-1.4,0.8-3.7,2.6-4.6,6.4
						c-20.2,88.2-21.1,155.7-2.6,180.6c23.1,31.1,70.5,43.5,103.4,27.1c28.5-14.1,48.2-76.9,51.5-163.8c0.2-4.5-2.6-8.6-6.7-9.9
						l-134-41.3C1503.7,1625.3,1502.8,1625.2,1502,1625.2z"/>
				</g>
				<g>
					<path class="st5" d="M1526.1,1845.6c43-13.3,64.9-60,75.8-101c4-15,8-31,8-46.5c-0.1-5.9,8.7-6.7,9.5-0.8
						c2,17.1-0.2,33.6-2.7,50.5c-5.2,33.9-14.8,67.6-37.3,94.9c-11.9,14.5-27.3,27.6-45.4,34
						C1513.5,1881.3,1505.8,1851.4,1526.1,1845.6L1526.1,1845.6z"/>
				</g>
				<g>
					<path class="st5" d="M1806.7,1331.9c-64.1-17.4-131.2-35.4-197.8-35.7c-24,0-25.1-34.9-1-36.3c54.2,3.7,104.9,20.1,155.9,36.7
						c16.4,5.6,32.7,11.4,49,17.6c4.8,1.9,7.2,7.3,5.4,12.1C1816.3,1330.9,1811.3,1333.3,1806.7,1331.9L1806.7,1331.9z"/>
				</g>
			</g>
			<g>
				<path class="st19" d="M1254.8,1009.1c4.8-12.2,10.7-18,10.7-18S1261.8,998.9,1254.8,1009.1z"/>
			</g>
			<g>
				<path class="st7" d="M2023.2,1387.6c0,0-430.2-415.7-732.4-490.8c-78.4-19.5-174.2-49-178.2,31.8
					c-38.6,30-65.2,108.4-43.1,155.4c17.4,36.9,69.1,51.2,122.9,86.8s427.8,271.1,602.3,534"/>
			</g>
			<g>
				<path class="st7" d="M2023.2,1387.6l-188.7,261.9l-39.8,55.2c-1.4-2.1-2.8-4.1-4.2-6.2c-176.1-260.4-544.8-492.5-598.1-527.8
					c-53.8-35.7-105.5-49.9-122.9-86.8c-16.7-35.6-5.5-89.3,17.7-126.3c7.4-11.8,16-21.8,25.4-29.1c3.9-80.8,99.7-51.3,178.2-31.8
					C1593,971.9,2023.2,1387.6,2023.2,1387.6z"/>
			</g>
			<g>
				<path class="st20" d="M1992.7,1361.9l-70.9,98.4c-92.3-70.3-152.7-176.1-157.5-295.3C1896,1268.5,1992.7,1361.9,1992.7,1361.9z"
					/>
			</g>
			<g>
				<path class="st20" d="M2418.7,1487.3c-66.1,39.5-144.4,62.3-228.5,62.3c-6.8,0-13.4-0.1-20.1-0.5l4.1-227.1
					C2174.2,1322,2291.6,1385.6,2418.7,1487.3z"/>
			</g>
			<g>
				<path class="st19" d="M2291.2,1538.2c-32.4,7.4-66.2,11.3-101,11.3c-162.9,0-304.4-85.7-376.2-211.7
					c78.5-57.7,199.1-111.8,332.4-48C2329,1377.2,2308.4,1492.8,2291.2,1538.2z"/>
			</g>
			<g>
				<path class="st19" d="M1913,1557.8l-118.2,146.9c-1.4-2.1-2.8-4.1-4.2-6.2c-176.1-260.4-544.8-492.5-598.1-527.8
					c-53.8-35.7-105.5-49.9-122.9-86.8c-16.7-35.6-5.5-89.3,17.7-126.3c21.5,39.1,46.5,87.4,72.9,95.4c46.2,13.9,78.9-21,94.6-43.9
					c-14,35.7-5.7,120.2,184.9,268.7C1661.2,1450.3,1790.1,1532.1,1913,1557.8z"/>
			</g>
			<g>
				<path class="st5" d="M1794.8,1722.9c-5.9,0-11.7-2.9-15.1-8.1c-74.2-111.8-236-292.9-585.1-521c-5-3.3-9-5.9-12.1-7.9
					c-17.1-11.3-33.8-20.3-50-29.1c-34.9-18.8-65.1-35-79.2-65.2c-25.4-54,1.7-135.1,42.1-172.1c2.6-21.1,11.3-37.1,25.8-47.9
					c36.8-27.2,99.4-11.4,159.9,3.9c4.8,1.2,9.6,2.4,14.4,3.6c303.4,75.5,722.9,478.3,740.6,495.4c7.2,7,7.4,18.5,0.4,25.7
					c-7,7.2-18.5,7.4-25.7,0.4c-4.3-4.1-430.2-413.1-724.1-486.3c-4.8-1.2-9.6-2.4-14.5-3.7c-47.4-12-106.4-26.9-129.4-9.9
					c-2.7,2-10.8,8-11.8,28.6c-0.3,5.3-2.8,10.2-7,13.5c-32.1,24.9-56.2,94-37.8,133.3c9.1,19.3,33.1,32.3,63.6,48.7
					c16.1,8.7,34.4,18.5,52.9,30.8c3,2,7,4.6,11.9,7.8c354.3,231.4,519.4,416.7,595.5,531.3c5.5,8.4,3.3,19.6-5.1,25.2
					C1801.7,1721.9,1798.2,1722.9,1794.8,1722.9z"/>
			</g>
			<g>
				<path class="st7" d="M1439.7,958.4c0,0-28.9-133.8-89.5-124.6c-42.7,6.5-32.5,78.2-36.8,98.3c-2.7,6.4-39.8,16.9-82.2,118"/>
			</g>
			<g>
				<path class="st5" d="M1421.9,962.3c-5.8-20.7-13-42.3-22.4-61.6c-7.8-16.4-19-36.3-33.8-44.7c-34.7-17-30.8,48.2-33.1,68.7
					c-0.4,5.7-1.1,14.9-5.9,19.9c-1.9,2.2-3.7,3.6-5.4,5c-17.6,11.8-31.3,27-44,44.3c-13.9,18.9-25.8,39.4-37.8,59.8
					c-2.6,4.4-8.2,5.8-12.6,3.2c-3.6-2.1-5.2-6.4-4.2-10.3c3.2-12,7.4-23.7,12.1-35.4c13.9-34.3,34.5-68,64.7-90.5
					c-2,1.7-3.3,5-3.9,7.6c1.8-24-0.6-46.5,6.7-71.2c9.4-36.8,48.3-54.9,82.3-36.4c14.5,7.9,24.1,18.9,32,29.7
					c18.4,26.4,28.5,55.6,36.8,86c1.5,6,2.8,11.7,4.1,18.2c1.9,9.8-4.5,19.4-14.4,21.3C1433.5,977.8,1424.2,971.6,1421.9,962.3
					L1421.9,962.3z"/>
			</g>
			<g>
				<path class="st5" d="M1462.4,1377.3c-5.3,0-10.3-3.1-12.5-8.3c-2.9-6.9,0.3-14.9,7.2-17.8c135.4-57.3,189.2-264,189.8-266.1
					c1.8-7.3,9.3-11.7,16.5-9.9c7.3,1.8,11.7,9.2,9.9,16.5c-2.3,9-57.7,221.9-205.5,284.5C1466,1376.9,1464.2,1377.3,1462.4,1377.3z
					"/>
			</g>
			<g>
				<path class="st7" d="M2174.2,1322c0,0,368,199.2,505.6,456.2l-218.3,91.9c0,0-132.4-150.2-293.6-198.1"/>
			</g>
			<g>
				<path class="st7" d="M2679.8,1778.2l-151.6,63.8l-66.7,28.1c0,0-132.4-150.2-293.6-198.1l2.1-118.7l4.1-231.3
					C2174.2,1322,2542.1,1521.2,2679.8,1778.2z"/>
			</g>
			<g>
				<path class="st20" d="M2528.2,1842l-66.7,28.1c0,0-132.4-150.2-293.6-198.1c0,0,55.9-218,113.6-105.8
					C2339.3,1678.5,2412.3,1688,2528.2,1842z"/>
			</g>
			<g>
				<path class="st20" d="M2418.7,1487.3c-66.1,39.5-144.4,62.3-228.5,62.3c-6.8,0-13.4-0.1-20.1-0.5l4.1-227.1
					C2174.2,1322,2291.6,1385.6,2418.7,1487.3z"/>
			</g>
			<g>
				<path class="st5" d="M2461.5,1883.7c-3.8,0-7.6-1.6-10.2-4.6c-1.3-1.5-131.8-147.8-287.3-194c-7.2-2.1-11.3-9.7-9.2-16.9
					c2.1-7.2,9.7-11.3,16.9-9.2c144.5,42.9,264.1,163.6,293.3,194.8l195.5-82.3c-139.4-244.1-489.3-435.6-492.8-437.5
					c-6.6-3.6-9.1-11.8-5.5-18.5c3.6-6.6,11.8-9.1,18.5-5.5c15.2,8.2,373.1,204.1,511.1,461.7c1.8,3.4,2.1,7.4,0.8,11
					c-1.3,3.6-4,6.5-7.6,8l-218.3,91.9C2465.1,1883.3,2463.3,1883.7,2461.5,1883.7z"/>
			</g>
			<g>
				<path class="st5" d="M2339.2,1774.9c-1.8,0-3.7-0.4-5.5-1.2c-6.9-3-10-11-7-17.9c3-6.9,75.8-169.5,212.8-173.7
					c7.5-0.3,13.8,5.7,14,13.2s-5.7,13.8-13.2,14c-119.6,3.6-188,155.9-188.7,157.4C2349.5,1771.8,2344.5,1774.9,2339.2,1774.9z"/>
			</g>
			<g>
				<path class="st7" d="M1720.7,1425.3c-41.6,66.8-139.9,264.2-130.6,437.9c6,111.6,50.5,150.9,132.6,209.4
					c230,163.8,642.5-200.3,642.5-200.3s-60.2-89.5-72.2-156.6c-6.6-36.8-16.9-69.5-10.8-157.9c0,0,96.6-156.8-135.6-268
					C1914.2,1178.7,1720.7,1425.3,1720.7,1425.3z"/>
			</g>
			<g>
				<path class="st7" d="M2365.1,1872.3c0,0-412.4,364.1-642.5,200.2c-82.2-58.5-126.7-97.7-132.6-209.3c-1.9-35,0.6-71,6.1-106.6
					c21.9-141.4,91.3-278,124.5-331.3c0,0,193.6-246.6,425.8-135.5c232.2,111.2,135.6,268,135.6,268c-6.1,88.4,4.2,121,10.8,157.8
					c2.8,15.4,8.1,32.1,14.7,48.5C2329.5,1819.2,2365.1,1872.3,2365.1,1872.3z"/>
			</g>
			<g>
				<path class="st20" d="M2365.1,1872.3c0,0-412.4,364.1-642.5,200.2c-82.2-58.5-126.7-97.7-132.6-209.3c-1.9-35,0.6-71,6.1-106.6
					c167.1,78.7,580.6,96.1,711.4,7.5C2329.5,1819.2,2365.1,1872.3,2365.1,1872.3z"/>
			</g>
			<g>
				<path class="st20" d="M2291.2,1538.2c-32.4,7.4-66.2,11.3-101,11.3c-162.9,0-304.4-85.7-376.2-211.7
					c78.5-57.7,199.1-111.8,332.4-48C2329,1377.2,2308.4,1492.8,2291.2,1538.2z"/>
			</g>
			<g>
				<path class="st5" d="M1728.4,1430.1c-68.7,127.4-152.8,361.3-108.1,502.9c17.3,55.2,64.3,90.1,110.4,123
					c22.7,16.3,47.7,28,74.9,34.2c179.8,39.4,414.3-120,547.5-231.6c0,0-3.1,23.7-3.1,23.7c-24.7-35.5-45.2-72.8-60.5-113.3
					c-10.6-26.6-14.6-56.2-18.7-84.4c-6.2-42.2-3.8-86,2.2-127.6c1.5-10.8,17.9-10.1,18.1,1.2c0.3,27.5,1,54.9,4.2,81.5
					c3.2,26.4,9.8,53.5,15.9,79.2c14.2,49.8,42.6,98.4,69.1,143.4c5.1,7.6,3.6,17.7-3.2,23.5c-46.6,40-95.1,75.6-146.2,109.1
					c-122.4,78.2-284.2,163.2-433.7,130.6c-31.4-7.1-61.8-21.3-87.7-40c-50.4-35.1-105.1-79-123.8-141.1
					c-14.9-46.5-16.1-93.2-13.2-140.6c4.5-76.9,25.8-151.7,55.2-222.4c23.4-56.2,51-110.6,85.1-161
					C1719.7,1411.3,1733.7,1420,1728.4,1430.1L1728.4,1430.1z"/>
			</g>
			<g>
				<g>
					<path class="st7" d="M1896.7,1924.2l322.9,10.9c21.5,0.7,39.7-16.3,40.5-37.8l6.9-203.3c0.7-21.5-16.3-39.7-37.8-40.5
						l-322.9-10.9c-21.5-0.7-39.7,16.3-40.5,37.8l-6.9,203.3C1858.1,1905.3,1875.1,1923.5,1896.7,1924.2z"/>
				</g>
				<g>
					<path class="st20" d="M1861,1818.7l-2.4,71.6c-0.6,18,13.6,33.2,31.6,33.8l335.8,11.4c17.9,0.6,33.1-13.6,33.7-31.6l7.3-216.2
						c0.6-18-13.6-33.2-31.5-33.8l-41.1-1.4l-4.9,144.7c-0.6,18-15.8,32.2-33.8,31.6L1861,1818.7z"/>
				</g>
				<g>
					<path class="st5" d="M2220.9,1953.4c-0.7,0-1.3,0-2,0l-322.9-10.9c-15.3-0.5-29.4-7-39.9-18.2c-10.5-11.2-16-25.8-15.4-41
						l6.9-203.3c0.5-15.3,7-29.4,18.2-39.9c11.2-10.5,25.8-15.9,41-15.4l322.9,10.9c31.6,1.1,56.4,27.6,55.3,59.2l-6.9,203.3
						C2277.1,1928.9,2251.6,1953.4,2220.9,1953.4z M1904.8,1660.8c-11.3,0-20.6,9-21,20.3l-6.9,203.3c-0.2,5.6,1.8,10.9,5.7,15
						c3.8,4.1,9,6.5,14.6,6.7h0l322.9,10.9c11.5,0.5,21.3-8.7,21.7-20.3l6.9-203.3c0.4-11.6-8.7-21.3-20.3-21.7l-322.9-10.9
						C1905.3,1660.8,1905.1,1660.8,1904.8,1660.8z"/>
				</g>
				<g>
					<path class="st7" d="M1958.6,1926.5l308,10.4c15,0.5,27.6-11.3,28.1-26.3l7.7-227.1c0.5-15-11.3-27.6-26.3-28.1l-308-10.4
						c-15-0.5-27.6,11.3-28.1,26.3l-7.7,227.1C1931.8,1913.4,1943.6,1926,1958.6,1926.5z"/>
				</g>
				<g>
					<path class="st7" d="M2302.4,1686l-7.5,222c-0.6,16.5-14.4,29.3-30.8,28.8l-302.8-10.2c-16.5-0.6-29.3-14.3-28.8-30.8l7.5-222
						c0.6-16.4,14.3-29.3,30.8-28.8l302.8,10.2C2290,1655.8,2302.9,1669.6,2302.4,1686z"/>
				</g>
				<g>
					<path class="st20" d="M2296.8,1851l-1.9,57c-0.6,16.5-14.4,29.3-30.8,28.8l-300-10.2c-18-0.6-32.2-15.8-31.6-33.8l3.1-90.7
						c0,0.1,0.1,0.2,0.1,0.3c36.4,56.2,52.7-15.9,52.7-15.9l95.2,3.2c0,0,0.1,83.7,90.6,92.1
						C2227.2,1886.8,2268.9,1869.1,2296.8,1851z"/>
				</g>
				<g>
					<path class="st5" d="M2267.6,1955.1c-0.5,0-1.1,0-1.6,0l-308-10.4c-12.1-0.4-23.4-5.5-31.6-14.4c-8.3-8.9-12.6-20.4-12.2-32.5
						l7.7-227.1c0.8-25,21.9-44.7,46.9-43.8l308,10.4c25,0.8,44.7,21.9,43.8,46.9l-7.7,227.1c-0.4,12.1-5.5,23.4-14.4,31.6
						C2290.1,1950.8,2279.1,1955.1,2267.6,1955.1z M1967.2,1663.1c-4.9,0-8.9,3.9-9.1,8.8l-7.7,227.1c-0.1,3.3,1.5,5.5,2.4,6.5
						c1,1,3.1,2.8,6.3,2.9h0l308,10.4c3.2,0.2,5.5-1.5,6.5-2.4c1-1,2.8-3.1,2.9-6.3l7.7-227.1c0.2-5-3.8-9.2-8.8-9.4l-308-10.4
						C1967.5,1663.1,1967.4,1663.1,1967.2,1663.1z"/>
				</g>
				<g>
					<path class="st7" d="M2248.2,1654.4l-2.7,81c-0.7,21.5-11.4,41.4-29,53.9l0,0c-17.5,12.5-28.2,32.4-29,53.9l-3.1,90.9"/>
					<path class="st5" d="M2184.5,1947.8c-0.2,0-0.3,0-0.5,0c-7.5-0.3-13.4-6.6-13.1-14.1l3.1-90.9c0.9-25.6,13.8-49.7,34.7-64.6
						c14-10,22.7-26.2,23.3-43.3l2.7-81c0.3-7.5,6.4-13.4,14.1-13.1c7.5,0.3,13.4,6.6,13.1,14.1l-2.7,81
						c-0.9,25.6-13.8,49.7-34.7,64.6c-14,10-22.7,26.2-23.3,43.3l-3.1,90.9C2197.9,1942,2191.8,1947.8,2184.5,1947.8z"/>
				</g>
				<g>
					<g>
						<path class="st21" d="M1988.5,1786.5c-0.9,27.9,16.6,51.1,39.3,51.9l38.3,1.3l3.4-101l-38.3-1.3
							C2008.5,1736.7,1989.4,1758.7,1988.5,1786.5z"/>
					</g>
					<g class="st17">
						<path class="st7" d="M1991.6,1769c7.8-9.7,18.7-15.6,30.6-15.1l38.2,1.3l-2.9,84.2l8.4,0.3l3.4-101l-38.3-1.3
							C2013.6,1736.8,1998.1,1750,1991.6,1769z"/>
					</g>
					<g>
						<path class="st22" d="M1988.5,1786.6c-0.9,27.9,16.7,51.1,39.3,51.9l38.3,1.3l3.4-101l-20.6-0.7l-1.7,49.5l-38.2-1.3
							c-7.3-0.2-14-2.8-19.8-7.1C1988.8,1781.6,1988.6,1784,1988.5,1786.6z"/>
					</g>
					<g>
						<path class="st5" d="M2066,1853.3c-0.2,0-0.3,0-0.5,0l-38.3-1.3c-15.1-0.5-28.9-8-38.9-21.1c-9.3-12.3-14.1-28.2-13.5-44.8
							c0.6-16.6,6.4-32.1,16.5-43.8c10.8-12.4,25.1-19,40.2-18.5l38.3,1.3c7.5,0.3,13.4,6.6,13.1,14.1l-3.4,101
							C2079.4,1847.5,2073.3,1853.3,2066,1853.3z M2030,1751.1c-6.5,0-12.9,3.2-18.1,9.1c-6,6.9-9.5,16.4-9.9,26.8c0,0,0,0,0,0
							c-0.4,10.4,2.5,20.1,8,27.4c4.9,6.5,11.3,10.1,18.1,10.4l24.7,0.8l2.5-73.7l-24.7-0.8
							C2030.5,1751.1,2030.3,1751.1,2030,1751.1z M1988.5,1786.5L1988.5,1786.5L1988.5,1786.5z"/>
					</g>
					<g>
						
							<ellipse transform="matrix(3.379953e-02 -0.9994 0.9994 3.379953e-02 209.5202 3795.2395)" class="st21" cx="2067.6" cy="1789.3" rx="50.5" ry="41"/>
					</g>
					<g class="st17">
						<path class="st7" d="M2026.8,1787.9c-0.1,3,0,6,0.3,9c4.2-23.5,21.5-40.8,41.7-40.2c20.1,0.7,36.3,19.2,38.9,42.9
							c0.5-2.9,0.8-5.9,0.9-8.9c0.9-27.9-16.6-51.1-39.2-51.9C2046.8,1738,2027.7,1760,2026.8,1787.9z"/>
					</g>
					<g>
						<path class="st22" d="M2026.8,1787.9c-0.9,27.9,16.6,51.1,39.3,51.9c22.6,0.8,41.7-21.2,42.6-49.1c0.1-1.7,0-3.4-0.1-5
							c-7.3,16.2-21.5,26.9-37.4,26.4c-21.3-0.7-38.1-21.3-39.2-46.8C2028.9,1771.9,2027.1,1779.6,2026.8,1787.9z"/>
					</g>
					<g>
						<path class="st5" d="M2067.2,1853.4c-0.5,0-1.1,0-1.6,0c-15.1-0.5-28.9-8-38.9-21.2c-9.3-12.3-14.1-28.2-13.5-44.8v0
							c0.6-16.6,6.4-32.1,16.5-43.8c10.8-12.4,25.1-19,40.2-18.5c15.1,0.5,28.9,8,38.9,21.2c9.3,12.3,14.1,28.2,13.5,44.8
							c-0.6,16.6-6.4,32.1-16.5,43.8C2095.4,1846.8,2081.7,1853.4,2067.2,1853.4z M2040.4,1788.3L2040.4,1788.3
							c-0.3,10.4,2.5,20.1,8,27.4c4.9,6.5,11.3,10.1,18.1,10.4c6.8,0.2,13.4-3,18.7-9.1c6-6.9,9.5-16.4,9.9-26.8
							c0.3-10.4-2.5-20.1-8-27.4c-4.9-6.5-11.3-10.1-18.1-10.4c-6.8-0.3-13.4,3-18.7,9.1C2044.3,1768.4,2040.7,1777.9,2040.4,1788.3
							z"/>
					</g>
				</g>
			</g>
			
				<linearGradient id="SVGID_00000124847052481966310190000014518134274196162701_" gradientUnits="userSpaceOnUse" x1="745.7483" y1="368.0179" x2="664.5684" y2="295.3832" gradientTransform="matrix(1 0 0 -1 0 4000)">
				<stop  offset="0" style="stop-color:#FF4545"/>
				<stop  offset="1" style="stop-color:#F7931E"/>
			</linearGradient>
			<path style="fill:url(#SVGID_00000124847052481966310190000014518134274196162701_);" d="M763.2,3627.1c0,0-8.2,39.2-50,65.6
				c-30.1,19-59.6,52.3-59.6,52.3S649.7,3617.7,763.2,3627.1z"/>
			<g>
				<path class="st5" d="M653.6,3758.6c-1.6,0-3.1-0.3-4.6-0.8c-5.2-1.9-8.8-6.8-9-12.4c-0.1-2.7-1.6-67.3,38.7-105.5
					c21.5-20.4,50.3-29.3,85.6-26.3c3.9,0.3,7.5,2.3,9.8,5.4c2.3,3.1,3.2,7.1,2.4,10.9c-0.4,1.8-9.9,45.2-56,74.3
					c-28,17.7-56.4,49.5-56.7,49.8C661.1,3757,657.4,3758.6,653.6,3758.6z M743.6,3640.5c-18.7,1.4-34.1,7.8-46,19
					c-14.1,13.4-21.7,31.8-25.7,48.1c10.1-9.1,22-18.8,34.1-26.5C726.3,3668.3,737.5,3652.3,743.6,3640.5z"/>
			</g>
			<g>
				<path class="st5" d="M1550.3,2788.8c-33.9,0-59.6-23.4-60.8-24.5c-4.2-3.9-5.5-10.1-3.2-15.4l34.6-79.8
					c2.4-5.6,8.3-8.9,14.4-8.1l34,4.8c5.2,0.7,9.5,4.3,11.1,9.3l16.2,50.2c0.1,0.4,0.2,0.8,0.3,1.1c0.6,2.6,5.6,26.2-6.6,44.1
					c-6.4,9.4-16.3,15.4-28.8,17.4C1557.6,2788.5,1553.9,2788.8,1550.3,2788.8z M1515.5,2750c8.9,5.8,24.6,13.7,41.8,11.1
					c6.5-1,9-3.7,10.4-5.7c4.5-6.6,3.5-18.1,2.7-22.4l-13.4-41.4l-15.3-2.1L1515.5,2750z M1498.7,2754.3L1498.7,2754.3
					L1498.7,2754.3z"/>
			</g>
			<g>
				<path class="st19" d="M1624.7,2616.6c0,0-49.8-17.1-64.4-7.7c-24.2,15.7-62.4,106.7-62.4,106.7s-0.4,37,0.8,38.8
					c0,0,50.8-49.7,52.8-48.6c-3.3,16-1.3,71.1-1.4,77.9c0,0-33.5,40.5-35.4,47.3s0.5,78.4,77.7,186.1l177.5-127.3L1624.7,2616.6z"
					/>
			</g>
			<g class="st17">
				<path class="st7" d="M1769.9,2889.7l-5,3.6l-133.2-250.6c0,0-49.8-17.2-64.4-7.7c-24.2,15.7-62.4,106.7-62.4,106.7s0,2.7,0,6.7
					c-3.7,3.6-6,5.9-6,5.9c-1.3-1.8-0.9-38.7-0.9-38.7s38.2-91.1,62.4-106.7c14.6-9.4,64.4,7.7,64.4,7.7L1769.9,2889.7z"/>
			</g>
			<g>
				<path class="st13" d="M1982.1,3115c0,0,0.2,52.7-13.4,63.5c-22.6,17.9-121.1,24.9-121.1,24.9s-35.2-11.4-36.4-13.2
					c0,0,63.4-32.1,63-34.4c-16.2-2-67.8-21.6-74.3-23.6c0,0-49.1,18.7-56.2,18.4c-7.1-0.3-74.1-25.6-151.3-133.4l177.5-127.3
					L1982.1,3115z"/>
			</g>
			<g>
				<path class="st5" d="M1592.4,3030.7c-4.2,0-8.4-2-11.1-5.7c-80.6-112.4-82.7-187.7-79.8-197.8c0.7-2.5,2.6-9.1,34.9-48.4
					c0-1.4-0.1-3.1-0.1-5c-0.2-12.2-0.4-24.9-0.3-36.5c-8.6,8.1-18.5,17.7-27.8,26.8c-2.8,2.8-6.7,4.2-10.7,3.8
					c-4-0.3-7.6-2.4-9.9-5.6c-2.8-3.9-3.9-5.4-3.4-46.9c0-1.8,0.4-3.5,1.1-5.1c6.7-15.9,41.2-95.8,67.6-112.9
					c18.2-11.8,59.4,0.4,76.2,6.2c3.3,1.1,6,3.4,7.6,6.5l145.2,273.2c3.2,6,1.5,13.5-4.1,17.5l-177.5,127.3
					C1598,3029.9,1595.2,3030.7,1592.4,3030.7z M1527.9,2834.9c-0.9,13.8,8.3,76.1,67.8,163.1l156.7-112.3l-137.1-257.9
					c-20.5-6.5-42.4-9.9-47.7-7.4c-13.8,8.9-40.7,61.8-56.1,98c0,1.5,0,3.1,0,4.7c1.2-1.1,2.4-2.3,3.5-3.4
					c29.2-27.8,33-31.3,42.9-26.1c5.4,2.8,8.2,8.8,7,14.8c-2.3,11.1-1.6,48.8-1.3,64.9c0.1,5.2,0.2,9.1,0.1,10.6
					c-0.1,3.1-1.2,6-3.1,8.4C1547.2,2808.6,1531.5,2828.7,1527.9,2834.9z"/>
			</g>
			<g>
				<path class="st5" d="M1545.6,2681.4c0.2-22.8-4.4-79.9,22.5-88.5c7.3-1.9,14.7,2.5,16.6,9.8c1.9,7.3-2.5,14.7-9.8,16.6
					c1.8-0.6,2.2-1.5,2.1-1.5c-6.1,6.4-7.9,16.7-10.6,25.6c-3.2,12.5-5.5,25.7-7.2,38.7C1558.1,2690.3,1546,2689.6,1545.6,2681.4
					L1545.6,2681.4z"/>
			</g>
			<g>
				<path class="st5" d="M1566.7,2816.4c6.9,25.5,16.8,54.5,33.3,74.5c12.1,15.3-11.5,32.2-22.1,15.9c-16.2-28.2-21-57.2-24.6-88.3
					C1552.5,2810.1,1564.8,2808.2,1566.7,2816.4L1566.7,2816.4z"/>
			</g>
			<g>
				<path class="st5" d="M1578.6,2769.4l48.5-4.3c7.6-0.7,14.2,4.9,14.9,12.5c0.9,9-7.5,16.5-16.3,14.7l-47.8-9.3
					C1570.2,2781.4,1570.8,2770,1578.6,2769.4L1578.6,2769.4z"/>
			</g>
			<g>
				<path class="st5" d="M1847.6,3217c-1.4,0-2.9-0.2-4.2-0.7c-39.4-12.8-40.5-14.3-43.3-18.2c-2.3-3.2-3.1-7.3-2.2-11.2
					c0.9-3.9,3.5-7.1,7.1-8.9c11.6-5.9,23.8-12.2,34.3-17.7c-11-3.6-23-7.9-34.5-12c-1.8-0.6-3.3-1.2-4.7-1.7
					c-47.6,17.9-54.4,17.6-57,17.5c-10.6-0.5-81.2-26.6-161.8-139c-4.4-6.1-3-14.6,3.1-19l177.5-127.3c5.5-4,13.2-3.2,17.8,1.7
					l212.2,225.2c2.4,2.5,3.7,5.8,3.7,9.3c0.1,17.8-1.6,60.8-18.6,74.2c-24.7,19.5-111.4,26.6-128.6,27.8
					C1848.3,3216.9,1848,3217,1847.6,3217z M1844.9,3188.1c1.5,0.5,3,1,4.5,1.5c39.2-3,98-11.5,111-21.8c4-4.1,7.7-25.9,8.2-47.4
					l-200.2-212.6l-156.7,112.3c63.3,84.3,119.4,113,132.7,116.6c7-1.4,31.1-9.8,50.8-17.3c2.9-1.1,6-1.2,9-0.3
					c1.5,0.5,5.1,1.7,10,3.5c15.1,5.4,50.6,18.2,61.9,19.6c6,0.8,10.8,5.4,11.7,11.4c1.8,11.1-2.8,13.5-38.5,32.3
					C1847.7,3186.6,1846.3,3187.3,1844.9,3188.1z"/>
			</g>
			<g>
				<path class="st5" d="M1899.2,3156c18.7,3.5,38.5,6.8,57.3,5.8c3.6-0.4,6.7-0.5,9.1-2.1c0-0.2-1,0-2.1,1.5
					c4.1-6.3,12.6-8,18.9-3.9c11.7,8.3,5.1,22.7-5.9,26.5c-14.1,4.9-28.5,0.9-41.9-2c-13.6-3.5-26.5-7.7-39.4-12.6
					c-3.5-1.3-5.3-5.3-4-8.8C1892.6,3157.1,1896,3155.3,1899.2,3156L1899.2,3156z"/>
			</g>
			<g>
				<path class="st5" d="M1767.9,3117.9c-28.3-13.4-54.2-27.3-75.7-51.6c-4.9-5.8-4.2-14.4,1.6-19.3c6.3-5.5,16.3-3.8,20.6,3.4
					c6.3,10.5,15.9,20.6,26.3,29.9c10.5,9.3,22.1,18,33.8,25.7C1781.3,3110.5,1775.5,3121.2,1767.9,3117.9L1767.9,3117.9z"/>
			</g>
			<g>
				<path class="st15" d="M2547.1,2950.6l93.9,325.5c0,0,12.8,105.6-48.7,136.9s-354.9,110.3-354.9,110.3s134.9-110.9,182-215.9
					s-45.6-290.8-45.6-290.8"/>
			</g>
			<g>
				<path class="st16" d="M2592.3,3413.1c-61.6,31.3-354.9,110.3-354.9,110.3s134.9-110.9,181.9-215.9
					c18.7-41.8,15.3-96.3,4.5-146.8c-16.5-76.5-50.1-144-50.1-144l173.4-66.1l38.7,134.3l55.2,191.3
					C2641,3276.2,2653.8,3381.8,2592.3,3413.1z"/>
			</g>
			<g>
				<path class="st24" d="M2567.4,3423.7c-92.3,35.6-330,99.6-330,99.6s134.9-110.9,181.9-215.9c3.8-8.5,6.7-17.6,8.8-27
					L2567.4,3423.7z"/>
			</g>
			<g class="st18">
				<path class="st5" d="M2585.8,3084.9l-45.5,63.7c0,0-59.6,6.4-116.5,12c-16.5-76.5-50.1-144-50.1-144l173.4-66.1L2585.8,3084.9z"
					/>
			</g>
			<g>
				<path class="st5" d="M1809.5,3105.9l6.5-48.3c1-7.5,7.9-12.8,15.5-11.8c8.9,1.1,14.5,11,10.7,19.2l-19.6,44.6
					C1819.4,3116.8,1808.4,3113.7,1809.5,3105.9L1809.5,3105.9z"/>
			</g>
			<g>
				<path class="st5" d="M2237.4,3537c-5,0-9.7-2.8-12.1-7.4c-2.9-5.7-1.5-12.7,3.5-16.8c1.3-1.1,133-110.1,178.2-211
					c43.9-98-44.5-277.3-45.4-279.1c-3.4-6.7-0.6-14.9,6.1-18.3c6.7-3.4,14.9-0.6,18.3,6.1c3.9,7.8,95,192.8,45.8,302.4
					c-31,69.2-97.6,139.6-142.1,181.8c87.9-24.5,253-71.9,296.4-93.9c49.4-25.1,42.5-111.8,41.5-122.1l-93.6-324.4
					c-2.1-7.2,2.1-14.8,9.3-16.9c7.2-2.1,14.8,2.1,16.9,9.3l93.9,325.5c0.2,0.7,0.3,1.4,0.4,2.1c0.6,4.7,13.2,115.5-56.1,150.7
					c-62.1,31.5-345.5,108.1-357.5,111.3C2239.7,3536.9,2238.6,3537,2237.4,3537z"/>
			</g>
			<g>
				<path class="st15" d="M2479.9,2992.6l142.3,367.4c0,0-4,38.9-47.4,66.6c-46.2,29.5-206.3,102.4-272.2,106.1
					c-18.1,1-65.1-9.4-65.1-9.4s84.7-50.2,134.2-84.7c49.5-34.5,69.7-52.4,52.3-69.6c-18.3-18.1-303.1-256.2-337.5-269.2
					S2479.9,2992.6,2479.9,2992.6z"/>
			</g>
			<g>
				<path class="st16" d="M2622.2,3360c0,0-4,38.9-47.4,66.6c-46.3,29.5-206.3,102.4-272.2,106.2c-18.2,1-65.1-9.4-65.1-9.4
					s84.7-50.2,134.2-84.7c49.5-34.5,69.7-52.3,52.3-69.6c-8.9-8.8-80.4-69.3-155.7-130.8c-79.9-65.3-164.1-131.7-181.8-138.4
					c-34.4-13,393.5-107.3,393.5-107.3l60.5,156.1L2622.2,3360z"/>
			</g>
			<g class="st18">
				<path class="st5" d="M2540.3,3148.6c-103.6,41.7-199.4,71.1-272.1,89.6c-79.9-65.3-164.1-131.7-181.8-138.4
					c-34.4-13,393.5-107.3,393.5-107.3L2540.3,3148.6z"/>
			</g>
			<g>
				<path class="st5" d="M2299.9,3546.5c-20.8,0-60.8-8.7-65.5-9.8c-5.5-1.2-9.6-5.6-10.5-11.1c-0.9-5.5,1.7-11,6.5-13.9
					c0.8-0.5,84.9-50.3,133.4-84.1c15.5-10.8,51.8-36.1,52.6-45.7c0-0.5-0.8-1.8-2.1-3c-24.9-24.7-303.1-254.9-332.7-266.1
					c-8.5-3.2-11.1-10.5-10.7-15.7c0.9-12.9,1.5-21.4,208.6-71.9c97.7-23.8,196.5-45.6,197.5-45.8c6.5-1.4,13.2,2.1,15.6,8.4
					l142.3,367.4c0.8,2,1.1,4.2,0.8,6.3c-0.2,1.9-5.2,45.8-53.7,76.7c-47.5,30.3-209.7,104.3-278.8,108.3
					C2302.2,3546.4,2301.1,3546.5,2299.9,3546.5z M2275,3516.6c10.7,1.7,20.9,2.9,26.8,2.5c63.8-3.6,221.2-75.7,265.7-104
					c30.9-19.7,38.8-45.2,40.7-53.7l-136.7-353c-148,32.8-307.5,71.9-360.1,90.5c76.3,51.7,308.9,247.2,322.2,260.4
					c7.5,7.4,10.8,15.7,10.1,24.7c-1.7,19.1-21.1,35.7-64.2,65.7C2348.7,3471.2,2304.4,3498.7,2275,3516.6z"/>
			</g>
			<g>
				<path class="st7" d="M2063.2,3146.6c-254.5-29.2-350.6-215.7-350.6-215.7s-145.8-150.8-91.8-401.3
					c53.9-250.4,419-605.2,822.7-732.4c46.3-14.6,91.2-24.4,134.4-30.4c71.4-9.9,138.2-9.2,199.1-2c223.3,26.3,367,139.7,367,139.7
					s61.4,172.4,14.6,392.3c-12.8,59.9-33.6,123.5-65.9,188c-19.5,39-43.2,78.3-71.8,117.5C2770.9,2944,2317.7,3175.9,2063.2,3146.6
					z"/>
				<path class="st5" d="M2108.5,3167.2c-16.4,0-32.3-0.9-47.4-2.6l0,0c-248.6-28.6-350.6-199.8-363.4-223
					c-17.9-19.6-147.4-171.1-94.7-415.8c27.4-127,131.5-280.9,285.7-422c162-148.3,357.1-263.4,549.3-323.9
					c45.2-14.2,91.5-24.7,137.4-31c67.4-9.3,135.9-10,203.7-2.1c225.8,26.6,370.1,138.8,376.1,143.5c2.7,2.1,4.7,4.9,5.9,8.2
					c2.6,7.2,62.6,179.8,15.3,402.2c-14.2,66.6-36.8,131.3-67.4,192.4c-20.6,41.2-45.3,81.6-73.4,120.1
					c-119,162.6-290.5,310.5-483,416.3C2390.8,3118.4,2232.3,3167.2,2108.5,3167.2z M2685.2,1777.6c-35.1,0-70.1,2.4-104.9,7.2
					c-43.9,6.1-88.1,16.1-131.4,29.7c-187.2,59-377.4,171.2-535.7,316c-148.8,136.2-248.9,283-274.7,402.8
					c-51.1,237.4,85.8,383.4,87.1,384.9c1.2,1.3,2.3,2.7,3.1,4.3c0.9,1.7,95.3,178.2,336.5,206c0,0,0,0,0,0
					c121.8,14,293-33.7,469.7-130.9c187.9-103.4,355.3-247.6,471.2-406c26.9-36.8,50.5-75.4,70.3-114.9
					c29.2-58.3,50.8-120.1,64.3-183.7c40.7-191.5-3.1-347.9-12.3-377.4c-25-18.2-159.2-109.9-353.6-132.8
					C2745,1779.4,2715.1,1777.6,2685.2,1777.6z"/>
			</g>
			<g>
				<path class="st7" d="M2063.2,3146.6c-254.5-29.2-350.6-215.7-350.6-215.7s-145.8-150.8-91.8-401.3
					c53.9-250.4,419-605.2,822.7-732.4c46.3-14.6,91.2-24.4,134.4-30.4c71.4-9.9,138.2-9.2,199.1-2c223.3,26.3,367,139.7,367,139.7
					s61.4,172.4,14.6,392.3c-12.8,59.9-33.6,123.5-65.9,188c-19.5,39-43.2,78.3-71.8,117.5C2770.9,2944,2317.7,3175.9,2063.2,3146.6
					z"/>
			</g>
			<g>
				<path class="st7" d="M3158.5,2296.9c-12.8,60-33.5,123.5-65.9,188c-19.5,39-43.2,78.3-71.8,117.4
					c-249.9,341.6-703.1,573.5-957.6,544.2c-133.1-15.3-222.9-73.6-278.3-125.8c-50.5-47.5-72.3-89.9-72.3-89.9
					s-145.8-150.8-91.8-401.3c54-250.4,419-605.2,822.7-732.4c46.3-14.6,91.2-24.4,134.4-30.4c71.5-9.9,138.2-9.2,199.1-2
					c223.3,26.3,366.9,139.7,366.9,139.7s22.4,62.9,29.8,161.3C3178.6,2130.3,3177,2209.9,3158.5,2296.9z"/>
			</g>
			<g>
				<path class="st7" d="M3158.5,2296.9c-12.8,60-33.5,123.5-65.9,188c-19.5,39-43.2,78.3-71.8,117.4
					c-249.9,341.6-703.1,573.5-957.6,544.2c-133.1-15.3-222.9-73.6-278.3-125.8c-50.5-47.5-72.3-89.9-72.3-89.9
					s-145.8-150.8-91.8-401.3c16.6-76.7,62.3-163.2,129.4-250c80.9-104.6,192.8-209.6,322.1-298.1c113.4-77.8,240.3-143,371.2-184.2
					c46.3-14.6,91.2-24.4,134.4-30.4c71.5-9.9,138.2-9.2,199.1-2c223.3,26.3,366.9,139.7,366.9,139.7s22.4,62.9,29.8,161.3
					C3178.6,2130.3,3177,2209.9,3158.5,2296.9z"/>
			</g>
			<g class="st18">
				<path class="st5" d="M2016.5,2409c0,0,6.4,181.6-112.2,197.1c-155,20.2-125-204.3-125-204.3l-29.2-122.2
					c80.9-104.6,192.8-209.6,322.1-298.1c29.2,44.1,64.8,117.9,65,216C2137.5,2350.6,2016.5,2409,2016.5,2409z"/>
			</g>
			<g class="st18">
				<path class="st5" d="M3158.5,2296.9c-12.8,60-33.5,123.5-65.9,188c-19.5,39-43.2,78.3-71.8,117.4
					c-249.9,341.6-703.1,573.5-957.6,544.2c-133.1-15.3-222.9-73.6-278.3-125.8c116.6-67.4,236.9-176.7,199.2-339.2
					c-3.3-14.4,350.6-275.3,350.6-275.3s165.2,123.3,332.3,9.7c202.6-137.7,471.8-614.6,506.7-350.1
					C3178.6,2130.3,3177,2209.9,3158.5,2296.9z"/>
			</g>
			<g>
				<path class="st24" d="M2495.3,3039c-3.5,1.8-7,3.5-10.5,5.2c-5.2,2.6-10.4,5.1-15.7,7.6c-4.2,2-8.4,3.9-12.6,5.9
					c-0.2,0.1-0.4,0.2-0.6,0.3c-4.1,1.9-8.2,3.8-12.3,5.6c-0.4,0.2-0.9,0.4-1.3,0.6c-4,1.9-8.1,3.6-12.1,5.4
					c-9.9,4.3-19.7,8.4-29.5,12.4c-4.2,1.7-8.4,3.4-12.6,5c-3.9,1.5-7.9,3.1-11.8,4.5c-2.6,1-5.1,2-7.7,3
					c-18,6.7-35.8,12.8-53.3,18.4c-3,1-6.1,1.9-9.1,2.8c-3.8,1.1-7.5,2.3-11.2,3.3c-2.8,0.9-5.7,1.6-8.4,2.4c-3.7,1.1-7.4,2.1-11,3
					c-3.1,0.8-6.2,1.6-9.3,2.4c-6.4,1.7-12.8,3.2-19.1,4.6c-5.8,1.4-11.6,2.7-17.3,3.9c-3.7,0.8-7.4,1.5-11.1,2.2
					c-3.9,0.8-7.8,1.5-11.6,2.1c-3.4,0.6-6.9,1.2-10.3,1.7c-1.4,0.3-2.8,0.5-4.2,0.7c-6.6,1-13.1,2-19.6,2.7
					c-7.4,0.9-14.8,1.7-22.1,2.3c-3.6,0.3-7.3,0.6-10.8,0.8c-3.6,0.2-7.2,0.4-10.7,0.6c-23.3,1-45.5,0.4-66.4-2
					c-15.5-1.8-30.4-4.2-44.8-7c-0.5-0.1-1-0.2-1.6-0.3c-7.1-1.4-14-3-20.7-4.7c-0.2,0-0.4-0.1-0.6-0.1c-3.4-0.9-6.9-1.8-10.2-2.7
					c-3.4-0.9-6.9-1.9-10.2-2.9c-3.4-1-6.7-2-10-3c-3.3-1-6.5-2.1-9.8-3.2c-3.2-1.1-6.4-2.2-9.5-3.4c-3.2-1.1-6.3-2.3-9.4-3.5
					c-3-1.2-6.1-2.4-9.1-3.6c-6-2.4-11.9-5-17.7-7.6c-2.9-1.3-5.7-2.6-8.5-4c-2.7-1.3-5.4-2.6-8-3.9c-0.3-0.2-0.6-0.3-0.9-0.5
					c-2.5-1.3-5-2.6-7.4-3.9c-5-2.6-9.9-5.3-14.6-8.1c-0.3-0.2-0.6-0.4-0.9-0.5c-2.5-1.5-5-3-7.5-4.4c-7.4-4.4-14.4-9-21.2-13.7
					c-2.3-1.5-4.5-3.1-6.7-4.6c-2.2-1.6-4.4-3.1-6.5-4.7c-3.2-2.4-6.4-4.8-9.4-7.1c-1.5-1.1-3-2.3-4.4-3.4c-4.2-3.3-8.3-6.7-12.1-10
					c-2-1.6-3.9-3.3-5.7-4.9c-1.8-1.6-3.6-3.3-5.4-4.9c-1.8-1.6-3.6-3.3-5.3-4.9c52.4-30.3,105.5-69,144.7-117.2
					C2164.7,3133,2485,3042,2495.3,3039z"/>
			</g>
			<g>
				<path class="st20" d="M3176,2118.7c0.6,53.2-3.8,113.7-17.5,178.2c-1.6,7.5-3.3,15.1-5.2,22.7c-0.9,3.6-1.8,7.3-2.8,11
					c-1.9,7.4-3.9,14.7-6.1,22.1c-0.6,2.3-1.3,4.5-2,6.8c-0.1,0.5-0.3,0.9-0.4,1.4c0,0.2-0.1,0.3-0.2,0.5
					c-28.4,93.5-107.4,163.2-204.1,176.8c-108.6,15.2-215.7-16.6-309.8-99.6c13-6.2,26-13.6,39.1-22.5
					c202.5-137.7,471.6-614.3,506.6-350.4c0.1,1.2,0.2,2.4,0.3,3.6c0.3,3.7,0.5,7.4,0.8,11.3c0.1,1.9,0.2,3.8,0.3,5.8
					c0.1,2,0.2,3.9,0.3,5.8c0.1,1.4,0.1,2.8,0.2,4.2c0.1,2.5,0.2,5.1,0.3,7.7c0.1,2.7,0.1,5.4,0.2,8.2
					C3175.9,2114.3,3176,2116.5,3176,2118.7z"/>
			</g>
			<g>
				<path class="st5" d="M2108.5,3167.2c-16.4,0-32.3-0.9-47.4-2.6l0,0c-248.6-28.6-350.6-199.8-363.4-223
					c-17.9-19.6-147.4-171.1-94.7-415.8c27.4-127,131.5-280.9,285.7-422c162-148.3,357.1-263.4,549.3-323.9
					c45.2-14.2,91.5-24.7,137.4-31c67.4-9.3,135.9-10,203.7-2.1c225.8,26.6,370.1,138.8,376.1,143.5c2.7,2.1,4.7,4.9,5.9,8.2
					c2.6,7.2,62.6,179.8,15.3,402.2c-14.2,66.6-36.8,131.3-67.4,192.4c-20.6,41.2-45.3,81.6-73.4,120.1
					c-119,162.6-290.5,310.5-483,416.3C2390.8,3118.4,2232.3,3167.2,2108.5,3167.2z M2685.2,1777.6c-35.1,0-70.1,2.4-104.9,7.2
					c-43.9,6.1-88.1,16.1-131.4,29.7c-187.2,59-377.4,171.2-535.7,316c-148.8,136.2-248.9,283-274.7,402.8
					c-51.1,237.4,85.8,383.4,87.1,384.9c1.2,1.3,2.3,2.7,3.1,4.3c0.9,1.7,95.3,178.2,336.5,206c0,0,0,0,0,0
					c121.8,14,293-33.7,469.7-130.9c187.9-103.4,355.3-247.6,471.2-406c26.9-36.8,50.5-75.4,70.3-114.9
					c29.2-58.3,50.8-120.1,64.3-183.7c40.7-191.5-3.1-347.9-12.3-377.4c-25-18.2-159.2-109.9-353.6-132.8
					C2745,1779.4,2715.1,1777.6,2685.2,1777.6z"/>
			</g>
			<g>
				<path class="st16" d="M2495.4,3039c-159.9,80.3-316.6,120.9-432.2,107.6c-254.5-29.2-350.6-215.7-350.6-215.7
					s-145.8-150.8-91.8-401.3c24.5-113.8,113.2-249.1,240.6-374.8c-4.2,6-236.6,339.1,0.2,669.2
					C2098.5,3154.4,2488.9,3040.9,2495.4,3039z"/>
			</g>
			<g class="st17">
				<path class="st7" d="M1638.4,2579.9c-20.5,95.2-12.2,176,6.1,239.6c-28.7-68.8-50.1-167.4-23.7-289.9
					c24.5-113.8,113.2-249.1,240.6-374.8c-1.7,2.4-41.1,58.8-71.3,147.1C1710.8,2398,1656.7,2494.9,1638.4,2579.9z"/>
			</g>
			<g class="st18">
				<path class="st5" d="M2495.3,3039c-3.5,1.8-7,3.5-10.6,5.2c-5.2,2.6-10.4,5.1-15.7,7.6c-4.2,2-8.4,3.9-12.6,5.9
					c-0.2,0.1-0.4,0.2-0.6,0.3c-4.1,1.9-8.2,3.8-12.3,5.6c-0.4,0.2-0.9,0.4-1.3,0.6c-4,1.9-8.1,3.6-12.1,5.4
					c-9.9,4.3-19.7,8.4-29.5,12.4c-4.2,1.7-8.4,3.4-12.6,5c-3.9,1.5-7.9,3.1-11.8,4.5c-2.6,1-5.1,2-7.7,3
					c-18,6.7-35.8,12.8-53.3,18.4c-3,1-6.1,1.9-9.1,2.8c-3.8,1.1-7.5,2.3-11.2,3.3c-2.8,0.9-5.7,1.6-8.4,2.4c-3.7,1.1-7.4,2.1-11,3
					c-3.1,0.8-6.2,1.6-9.3,2.4c-6.4,1.7-12.8,3.2-19.1,4.6c-5.8,1.4-11.6,2.7-17.3,3.9c-3.7,0.8-7.4,1.5-11.1,2.2
					c-3.9,0.8-7.8,1.5-11.6,2.1c-3.4,0.6-6.9,1.2-10.3,1.7c-1.4,0.3-2.8,0.5-4.2,0.7c-6.6,1-13.1,1.9-19.6,2.7
					c-7.4,0.9-14.8,1.7-22.1,2.3c-3.6,0.3-7.3,0.6-10.8,0.8c-3.6,0.2-7.2,0.4-10.7,0.6c-23.3,1-45.5,0.4-66.4-2
					c-15.5-1.8-30.4-4.1-44.8-7c-0.5-0.1-1-0.2-1.6-0.3c-7-1.5-14-3-20.7-4.7c-0.2,0-0.4-0.1-0.6-0.1c-3.4-0.9-6.9-1.8-10.2-2.7
					c-3.4-0.9-6.9-1.9-10.2-2.9c-3.4-1-6.7-2-10-3c-3.3-1-6.5-2.1-9.8-3.2c-3.2-1.1-6.4-2.2-9.5-3.4c-3.2-1.1-6.3-2.3-9.4-3.5
					c-3-1.2-6.1-2.4-9.1-3.6c-6-2.5-11.9-5-17.7-7.6c-2.9-1.3-5.7-2.6-8.5-4c-2.7-1.3-5.4-2.6-8-3.9c-0.3-0.2-0.6-0.3-0.9-0.5
					c-2.5-1.3-5-2.6-7.4-3.9c-5-2.6-9.9-5.4-14.6-8.1c-0.3-0.2-0.6-0.4-0.9-0.5c-2.5-1.5-5-3-7.5-4.4c-7.4-4.4-14.4-9-21.2-13.7
					c-2.3-1.5-4.5-3.1-6.7-4.6c-2.2-1.6-4.4-3.1-6.5-4.7c-3.2-2.4-6.4-4.8-9.4-7.1c-1.5-1.1-3-2.3-4.4-3.4c-4.2-3.3-8.3-6.7-12.1-10
					c-2-1.6-3.9-3.3-5.7-4.9s-3.7-3.3-5.4-4.9c-1.8-1.6-3.6-3.3-5.3-4.9c52.4-30.3,105.5-69,144.7-117.2
					C2164.7,3133,2485,3042,2495.3,3039C2495.3,3039,2495.3,3039,2495.3,3039z"/>
			</g>
			<g>
				<path class="st5" d="M2109.2,3167.3c-16.7,0-32.7-0.9-48.1-2.7c-248.6-28.6-350.6-199.8-363.4-223
					c-17.9-19.6-147.4-171.1-94.7-415.8c24.9-115.8,112.1-252.2,245.6-383.9c6.7-6.6,17.3-7,24.5-0.9c7.2,6.1,8.5,16.6,3.1,24.3
					c-2.4,3.4-59.3,85.2-87.4,206.7c-37.1,160.2-7.7,308.8,87.5,441.5c227.3,317,598.3,212.7,613.9,208.1c9-2.6,18.6,2,22,10.8
					c3.4,8.7-0.3,18.7-8.7,22.9C2358,3128.3,2220.2,3167.3,2109.2,3167.3z M1783.7,2266.8c-76.7,93.8-128.1,187.3-145.1,266.7
					c-51.1,237.4,85.8,383.4,87.1,384.8c1.2,1.3,2.3,2.7,3.1,4.3c0.9,1.7,95.3,178.2,336.5,205.9c80.6,9.3,185.4-9.3,298.6-51.6
					c-140.7,6.8-360.7-24.2-517.1-242.2c-100.1-139.6-132.4-302.4-93.4-470.8C1761.8,2328,1772.5,2295.3,1783.7,2266.8z"/>
			</g>
			<g>
				<path class="st16" d="M2373.9,2809l-37,26.6l-4-5.6c-92.2,31-215.2-21.4-294.8-132.4c-79.6-111-89.7-244.3-30.8-321.7l-4-5.6
					l37-26.6c93.4-66.9,243.8-17.1,335.9,111.5C2468.3,2583.6,2467.3,2742,2373.9,2809z"/>
			</g>
			<g>
				<path class="st5" d="M2276.3,2852.5c-87.3,0-183-54.6-249.3-147c-79.7-111.1-93.9-245-36.3-329.9c-2.5-5.7-0.7-12.6,4.6-16.4
					l37-26.6c99.3-71.2,258.5-19.8,354.9,114.6c96.4,134.4,93.9,301.7-5.4,372.9l-37,26.6c-5.3,3.8-12.4,3.3-17-0.9
					C2311.2,2850.3,2293.9,2852.5,2276.3,2852.5z M2020.8,2374.4c0.4,3.4-0.5,6.9-2.7,9.7c-56.1,73.7-43,202.2,31.1,305.5
					c74.1,103.3,191.6,156.9,279.4,127.4c3.4-1.1,7-0.9,10.1,0.6l27.4-19.6l0,0c87.1-62.5,86.7-212.7-0.9-334.9
					c-87.6-122.2-229.8-170.8-316.9-108.3L2020.8,2374.4z"/>
			</g>
			<g>
				
					<ellipse transform="matrix(0.8127 -0.5827 0.5827 0.8127 -1111.8071 1743.6714)" class="st19" cx="2156.3" cy="2601.2" rx="208" ry="286.3"/>
			</g>
			<g>
				<path class="st16" d="M2335.6,2833.7c-93.4,67-243.7,17.1-335.9-111.4c-35.5-49.5-57.2-103.4-65.1-154.8
					c-10.8-70.3,4.1-136,44.8-179.3c6.8-7.3,14.3-13.9,22.5-19.8c93.4-67,243.7-17.1,335.9,111.4
					C2430,2608.3,2429,2766.8,2335.6,2833.7z"/>
			</g>
			<g class="st18">
				<path class="st5" d="M1978.1,2546.8c-13.4,25.2-35.5,26.8-55.9,20.7c-10.8-70.3,4.1-136,44.8-179.3
					C1983.9,2434.4,2001.4,2502.8,1978.1,2546.8z"/>
			</g>
			<g>
				<path class="st5" d="M2240.6,2878.7c-86.4,0-183.7-53.3-250.6-146.6c-46.2-64.5-71.4-138.4-71-208
					c0.4-71.3,27.6-129.9,76.4-164.8c48.8-35,112.9-41.9,180.6-19.4c66.1,21.9,128,69.5,174.3,134c96.4,134.4,94,301.7-5.3,372.9
					C2314.5,2868.4,2278.6,2878.7,2240.6,2878.7z M2100,2354c-33.2,0-63.6,9.2-88.8,27.2c-41.5,29.8-64.6,80.5-65,142.9
					c-0.4,64,23,132.2,65.9,192c87.6,122.2,229.8,170.8,316.9,108.3c87.1-62.5,86.7-212.7-0.9-334.9c-42.9-59.8-100-103.9-160.7-124
					C2144.1,2357.8,2121.5,2354,2100,2354z"/>
			</g>
			<g>
				<path class="st25" d="M2299.1,2767.3c-3.7,3.5-7.7,6.8-11.9,9.8c-18,12.9-39,19.8-61.3,21.3c-15.9,1.1-32.4-0.6-49.1-4.9
					c-40.7-10.4-82.2-36.2-116.2-74.7c-6.4-7.2-12.5-14.9-18.4-23c-67.2-93.7-66.5-209.3,1.6-258.1c5.3-3.8,10.9-7.1,16.7-9.9
					c34-16.4,75.5-15.3,116.2,0.8c16.7,6.6,33.2,15.6,49.1,27c23,16.4,44.5,37.8,62.9,63.4c3.6,5,7,10.2,10.3,15.3
					C2352,2619,2351.9,2717.1,2299.1,2767.3z"/>
			</g>
			<g class="st26">
				<path class="st7" d="M2176.9,2428.6v364.9c-40.7-10.4-82.2-36.2-116.2-74.7v-291C2094.7,2411.4,2136.2,2412.6,2176.9,2428.6z"/>
			</g>
			<g class="st26">
				<path class="st7" d="M2299.1,2534.3v233c-3.7,3.5-7.7,6.8-11.9,9.8c-18,12.9-39,19.8-61.3,21.3v-342.8
					c23,16.4,44.5,37.8,62.9,63.4C2292.4,2524,2295.9,2529.2,2299.1,2534.3z"/>
			</g>
			<g>
				<path class="st5" d="M2216.8,2812.5c-18.2,0-37.2-3.2-56.6-9.6c-49-16.2-94.8-51.4-128.9-99.1c-34.2-47.6-52.8-102.3-52.5-153.9
					c0.3-53.2,20.7-97,57.2-123.2c36.6-26.2,84.5-31.4,135-14.7c49,16.2,94.8,51.4,128.9,99.1s52.8,102.3,52.5,153.9
					c-0.3,53.2-20.7,97-57.2,123.2l0,0C2272.6,2804.3,2245.8,2812.5,2216.8,2812.5z M2114.4,2429.6c-23.5,0-44.9,6.4-62.6,19.2
					c-29.3,21-45.6,57-45.9,101.2c-0.3,45.9,16.5,94.8,47.4,137.8c30.8,43,71.8,74.6,115.4,89.1c42,13.9,81.3,10,110.6-11l0,0
					c29.3-21,45.6-56.9,45.9-101.2c0.3-45.9-16.5-94.8-47.4-137.8c-30.8-43-71.8-74.6-115.4-89.1
					C2145.8,2432.4,2129.7,2429.6,2114.4,2429.6z"/>
			</g>
			<g>
				<path class="st16" d="M2287.2,2777.1c-68.1,48.8-177.7,12.4-244.9-81.3c-67.2-93.7-66.5-209.2,1.6-258.1c4.8-3.4,9.8-6.5,15-9
					c-54.4,53.7-50.6,159.7,11.8,246.7c62.4,87.1,161.5,124.6,229.9,90.3C2296.4,2769.9,2292,2773.6,2287.2,2777.1z"/>
			</g>
			<g>
				<path class="st5" d="M2216.9,2806.1c-62.2,0-132.4-38.5-180.7-105.9c-33.4-46.6-51.7-100-51.3-150.3
					c0.3-51.2,19.7-93.2,54.6-118.2c5.1-3.7,10.5-6.9,16.1-9.7c3.3-1.6,7.3-0.6,9.4,2.4c2.1,3,1.8,7.1-0.8,9.7
					c-52.5,51.8-47.1,153.7,12.6,237c59.7,83.3,154.5,121.1,220.4,88c3.3-1.6,7.3-0.7,9.5,2.3c2.2,3,1.8,7.1-0.8,9.7
					c-4.4,4.4-9.2,8.4-14.3,12.1C2269.8,2798.7,2244.1,2806.1,2216.9,2806.1z M2025,2466.6c-16.2,21.7-25,50.4-25.2,83.3
					c-0.3,47.2,16.9,97.4,48.5,141.4c55.7,77.6,141.4,114.8,205.3,94.2c-64.6,3.8-138.9-35.8-189.1-105.8
					C2014.3,2609.7,2000.6,2526.7,2025,2466.6z"/>
			</g>
			<g>
				<path class="st16" d="M3142.1,2360.8c-28.3,93.7-107.4,163.7-204.3,177.3c-144.8,20.3-286.7-42.9-399.1-199.6
					c-96.3-134.3-115.6-283.9-78.7-403.1c33.6-108.3,136.2-179.2,249.5-175.6c23.2,0.7,45.7,2.5,67.4,5
					c223.3,26.3,367,139.7,367,139.7s61.4,172.4,14.6,392.3C3154.1,2317.8,3148.6,2339.2,3142.1,2360.8z"/>
			</g>
			<g class="st27">
				<path class="st7" d="M2578.9,1878.6c4.3-33.6,52.7-63.3,127.6-67.8c96.7-5.9,297.9,60.2,284.5,91.7
					C2970.2,1951.8,2574.6,1912.3,2578.9,1878.6z"/>
			</g>
			<g class="st18">
				<path class="st5" d="M3176,2118.7c0.6,53.2-3.8,113.7-17.5,178.2c-1.6,7.5-3.3,15.1-5.2,22.7c-0.9,3.6-1.8,7.3-2.8,11
					c-1.9,7.4-3.9,14.7-6.1,22.1c-0.6,2.3-1.3,4.5-2,6.8c-0.1,0.5-0.3,0.9-0.4,1.4c0,0.2-0.1,0.3-0.2,0.5
					c-28.4,93.5-107.4,163.2-204.1,176.8c-108.6,15.2-215.7-16.6-309.8-99.6c13-6.2,26-13.6,39.1-22.5
					c202.5-137.7,471.6-614.3,506.6-350.4c0.1,1.2,0.2,2.4,0.3,3.6c0.3,3.7,0.5,7.4,0.8,11.3c0.1,1.9,0.2,3.8,0.3,5.8
					c0.1,2,0.2,3.9,0.3,5.8c0.1,1.4,0.1,2.8,0.2,4.2c0.1,2.5,0.2,5.1,0.3,7.7c0.1,2.7,0.1,5.4,0.2,8.2
					C3175.9,2114.3,3176,2116.5,3176,2118.7z"/>
			</g>
			<g>
				<path class="st5" d="M2886,2560c-136.6,0-263.5-73.4-362-210.8c-92.3-128.7-122.7-285.4-81.2-419.1
					c35.6-114.7,145.5-192.1,267.4-188.4c22.9,0.7,46.1,2.4,68.9,5.1c225.8,26.6,370.1,138.8,376.1,143.5c2.7,2.1,4.7,4.9,5.9,8.2
					c2.6,7.2,62.6,179.8,15.3,402.2c-4.7,22-10.3,44-16.8,65.4l0,0c-30.6,101-116.6,175.6-219.1,190
					C2922.1,2558.7,2903.9,2560,2886,2560z M2701.5,1777.9c-102.6,0-194.1,66.1-224.1,163c-38.1,122.9-9.6,267.6,76.1,387.1
					c104.7,146.1,236.8,212.5,381.8,192.2c88.6-12.4,163-77,189.4-164.6c6.2-20.5,11.6-41.5,16.1-62.5
					c40.7-191.5-3.1-347.9-12.3-377.4c-25-18.2-159.2-109.9-353.6-132.8c-21.8-2.6-44-4.2-65.8-4.9
					C2706.5,1777.9,2704,1777.9,2701.5,1777.9z M3142.1,2360.8L3142.1,2360.8L3142.1,2360.8z"/>
			</g>
			<g>
				<path class="st5" d="M2495.4,3052.6c-4.2,0-8.3-1.9-11-5.5c-4.5-6.1-3.2-14.6,2.9-19c2.8-2.1,6.4-3,9.9-2.6
					c7.5,0.9,12.8,7.7,11.8,15.2c-0.7,5.3-4.3,9.5-9.1,11.2C2498.5,3052.3,2496.9,3052.6,2495.4,3052.6z"/>
			</g>
			<g>
				<path class="st16" d="M1735.5,3056.3c-21.1,11.9-456.8,234.2-481.7,203.6c-21-33.4,329.4-374.7,347.4-390.9
					c18.1-16.2,202.2-145,202.2-145l0,0c15.1,33.2,34.2,66.6,58.2,100c24,33.4,49.5,62.3,76,87.2l0,0
					C1937.7,2911.3,1756.7,3044.4,1735.5,3056.3z"/>
			</g>
			<g class="st17">
				<path class="st7" d="M1815.4,2748.8c-38.9,27.3-176.4,123.9-191.9,137.8c-15.8,14.2-308.1,286.4-365.5,375.6
					c-1.9-0.5-3.3-1.2-4.2-2.3c-21-33.4,329.4-374.7,347.4-390.9c18.1-16.3,202.2-145,202.2-145l0,0
					C1807.2,2732.3,1811.2,2740.6,1815.4,2748.8z"/>
			</g>
			<g>
				<path class="st24" d="M1937.7,2911.3c0,0-181,133.1-202.2,145c-21.1,11.9-456.8,234.2-481.7,203.6c-0.6-1-0.9-2.2-0.9-3.6
					c98.6-29.4,430.9-232.3,449.4-242.8c19.1-10.8,168.9-120.5,197.4-141.5C1912.1,2886.1,1924.8,2899.1,1937.7,2911.3
					L1937.7,2911.3z"/>
			</g>
			<g>
				<path class="st5" d="M1263.2,3276.4c-10.4,0-16-3.1-20-7.9c-0.4-0.4-0.7-0.9-1-1.4c-7.9-12.5-3.2-31.1,43.9-88.8
					c27.1-33.2,66.4-76.9,116.9-129.8c87.6-91.9,179.4-181.1,189.1-189.7c18.5-16.6,195.9-140.7,203.5-146c3-2.1,6.6-2.9,10.2-2.2
					c3.6,0.6,6.7,2.7,8.8,5.7c0.5,0.7,0.9,1.4,1.2,2.1c15.2,33.4,34.3,66.3,56.9,97.7c22.6,31.5,47.6,60.1,74.3,85.2
					c0.9,0.8,1.6,1.7,2.2,2.7c3.8,6,2.3,14-3.5,18.2c-7.4,5.5-181.9,133.7-203.6,145.9c0,0,0,0,0,0
					c-11.3,6.4-125.2,64.8-240.4,118.2c-66.3,30.8-120.3,54-160.4,69.1C1301,3270.6,1277.6,3276.4,1263.2,3276.4z M1798,2744.4
					c-58,40.6-174.4,122.8-187.7,134.7c-8.7,7.8-94.2,90.8-178.5,178.7c-122.7,128.1-154.5,174.8-162.6,191
					c18-2.5,72.4-17.6,233.1-92.8c110.3-51.6,216.3-105.9,226.5-111.7c15.5-8.7,130.7-92.7,187.8-134.5
					c-23.6-23.5-45.8-49.6-66.1-77.9C1830.3,2803.8,1812.6,2774.4,1798,2744.4z M1735.5,3056.3L1735.5,3056.3L1735.5,3056.3z"/>
			</g>
			<g>
				<path class="st7" d="M2006.2,1969.1c0,0,153.7,221.2-66.7,388.2c0,0,31.4,153.1-54.1,179.6c-96.3,29.8-183.3-62.2-185.5-180.8
					c-1.7-94,63.3-198,63.3-198s-181.1-89.2-173.6-347.8l31.9,12.1l228.3,114.3L2006.2,1969.1z"/>
			</g>
			<g>
				<path class="st7" d="M1990,2311.5c-14.1,15.6-30.8,30.9-50.5,45.9c0,0,3.7,18.1,5.1,42.9c1.6,29.7,0,69.1-15.3,98.6
					c-9.1,17.5-23,31.6-43.9,38c-96.2,29.8-183.3-62.2-185.5-180.7c-1.7-94.1,63.3-198,63.3-198s-181.1-89.2-173.6-347.7l31.9,12.1
					l228.3,114.3l156.3,32.3c0,0,6.7,9.6,15.3,26.3C2050.4,2051.8,2100.8,2189,1990,2311.5z"/>
			</g>
			<g>
				<path class="st20" d="M1772.9,2007.8c-39.4,51.8,69.8,107.1,51,190.9c-6.9,31-64.9,176,166.1,112.8
					c-14.1,15.6-30.8,30.9-50.5,45.9c0,0,3.7,18.1,5.1,42.9c-41-10.4-133.6-28.1-154.8,15.8c-28,57.7,58,108.8,139.5,82.8
					c-9.1,17.5-23,31.6-43.9,38c-96.2,29.8-183.3-62.2-185.5-180.7c-1.7-94.1,63.3-198,63.3-198s-181.1-89.2-173.6-347.7l31.9,12.1
					l228.3,114.3l156.3,32.3c0,0,6.7,9.6,15.3,26.3l0,0.1C2021.5,1995.5,1837.1,1923.5,1772.9,2007.8z"/>
			</g>
			<g>
				<path class="st5" d="M2013.7,1963.9c48.5,60.3,71.9,139.7,60.7,216.9c-11.2,78-62.1,144.7-123.9,190.9c0,0,6.8-18.1,6.8-18.1
					c11.5,67.5,14.2,170.3-63.1,199.4c-24.5,8.3-51,10-76.2,4c-82.9-20-130.5-106.7-135.6-186.6c-4.8-79.2,26.7-154.7,65.4-222
					c0,0,7.4,25.9,7.4,25.9c-63.2-35.1-112.3-92.9-143.4-157.6c-30.7-64.3-42.4-136.4-40.3-207c1.4-23.7,36.1-23.2,36.3,1
					c-0.9,32.9,1.3,65.8,7.2,97.8c15.6,87.5,63.6,169.9,136.8,221.1c4.7,3.2,10,6.6,14.9,9.5c1.7,1,3.5,2,4.7,2.6
					c9,4.7,12.5,15.8,7.8,24.8c-34.7,60.5-64.9,130.4-60.6,201.2c4.4,64.9,40.8,137.1,107.6,153.8c23.2,5.1,50.6,3.3,70.4-10.7
					c37.8-31.6,32.7-103.9,25.1-150.1c-1.4-7.1,1.5-14,6.8-18.1c27.8-21.1,52.8-45.7,71.6-74.1c18.9-28.3,31.3-60.3,36.4-93.6
					c7.9-50.4-1.1-103.5-17.9-152c-5.7-16.7-12.7-33.7-20.2-49.3C1993.9,1964.3,2006.8,1955.8,2013.7,1963.9L2013.7,1963.9z"/>
			</g>
			<g>
				<g>
					<g>
						<path class="st7" d="M2717.2,1069.2c0,0,77.8,80.4,79.3,102.5c2.8,41-90.4,230.4-163.7,256.8c-28.7,10.3-180.9-39-180.9-39
							L2717.2,1069.2z"/>
					</g>
					<g>
						<path class="st20" d="M2451.9,1389.6c0,0,152.2,49.3,180.9,38.9c28.6-10.3,60.3-45.4,88-86.9c-2.3,0.7-73.6,20.6-132.9-115.9
							c0-0.1-0.1-0.2-0.1-0.2L2451.9,1389.6z"/>
					</g>
					<g>
						<path class="st7" d="M1821.5,1093.3c0,0-135-85.7-145.4-114.4c-10.3-28.6-3.5-75.4,10.7-123.2c0,0,0,0,0,0
							c22.2-74.7,62.2-152,82.5-166.6c18-13,129.5-4.4,129.5-4.4l-37.8,199.3L1821.5,1093.3z"/>
					</g>
					<g>
						<path class="st20" d="M1821.5,1093.3c0,0-135-85.7-145.4-114.4c-10.3-28.6-3.5-75.4,10.7-123.2c0.9,2.2,31.1,69.8,174.1,28.4
							c0.1,0,0.2,0,0.3-0.1L1821.5,1093.3z"/>
					</g>
					<g>
						<path class="st5" d="M2622.1,1447.8c-44,0-134.7-27.7-175.8-41l-25.5-8.2l295.3-356.6l14.1,14.6
							c30.8,31.8,82.7,88.9,84.4,113.9c3.1,46.6-93.7,245.6-175.7,275.1C2634.7,1447.1,2629,1447.8,2622.1,1447.8z M2483.2,1380.3
							c63,19.1,130,34.9,143.6,31.1c64.6-23.2,152.9-204,151.6-237.9c-2.9-10.6-31.2-45.4-60.3-76.8L2483.2,1380.3z"/>
					</g>
					<g>
						<path class="st5" d="M1834.4,1122.9l-22.6-14.3c-42.2-26.8-141.5-92.4-152.7-123.6c-29.6-81.9,61.9-283.5,99.7-310.8
							c20.3-14.7,97.4-11.1,141.6-7.7l20.2,1.6L1834.4,1122.9z M1779.6,704c-27,20.6-109.8,204-86.4,268.7
							c5.7,12.8,60.6,54.3,115.5,90.6l68.6-361.9C1834.5,699,1789.7,699.4,1779.6,704z"/>
					</g>
				</g>
				<g>
					<polygon class="st19" points="2212.9,1075.6 2212.2,1077.3 2211.5,1076 					"/>
				</g>
				<g>
					<polygon class="st19" points="2211.5,1076 2210.1,1076.3 2210.9,1074.7 					"/>
				</g>
				<g>
					<circle class="st7" cx="2251.8" cy="996.6" r="485.1"/>
				</g>
				<g>
					<path class="st20" d="M2690.8,1203c-114,242.5-403,346.7-645.4,232.7s-346.7-403-232.7-645.5c12-25.6,26-49.7,41.7-72.1
						c-61.5,223.4,44.7,465.4,261.6,567.3s470.9,29.4,603.7-160.6C2712.5,1151.3,2702.9,1177.4,2690.8,1203z"/>
				</g>
				<g>
					<path class="st5" d="M2251,1499.9c-71.6,0-144.3-15.3-213.3-47.8c-121.7-57.2-213.8-158.3-259.4-284.8
						c-45.6-126.5-39.2-263.1,18-384.8c118.1-251.2,418.4-359.4,669.6-241.4c251.2,118.1,359.4,418.4,241.4,669.6l0,0
						C2621.6,1392.9,2440.1,1499.9,2251,1499.9z M2252.5,529.7c-175.5,0-343.9,99.3-423.3,268.3c-109.5,233-9.1,511.7,224,621.3
						c233,109.5,511.7,9,621.3-224l0,0c109.5-233,9.1-511.7-224-621.3C2386.4,543.9,2318.9,529.7,2252.5,529.7z M2690.8,1203
						L2690.8,1203L2690.8,1203z"/>
				</g>
				<g>
					<path class="st5" d="M2251,1499.9c-71.6,0-144.3-15.3-213.3-47.8c-121.7-57.2-213.8-158.3-259.4-284.8
						c-45.6-126.5-39.2-263.1,18-384.8c118.1-251.2,418.4-359.4,669.6-241.4c251.2,118.1,359.4,418.4,241.4,669.6l0,0
						C2621.6,1392.9,2440.1,1499.9,2251,1499.9z M2252.5,529.7c-175.5,0-343.9,99.3-423.3,268.3c-109.5,233-9.1,511.7,224,621.3
						c233,109.5,511.7,9,621.3-224l0,0c109.5-233,9.1-511.7-224-621.3C2386.4,543.9,2318.9,529.7,2252.5,529.7z M2690.8,1203
						L2690.8,1203L2690.8,1203z"/>
				</g>
				<g>
					<path class="st5" d="M2251,1499.9c-71.6,0-144.3-15.3-213.3-47.8c-121.7-57.2-213.8-158.3-259.4-284.8
						c-45.6-126.5-39.2-263.1,18-384.8c118.1-251.2,418.4-359.4,669.6-241.4c251.2,118.1,359.4,418.4,241.4,669.6l0,0
						C2621.6,1392.9,2440.1,1499.9,2251,1499.9z M2252.5,529.7c-175.5,0-343.9,99.3-423.3,268.3c-109.5,233-9.1,511.7,224,621.3
						c233,109.5,511.7,9,621.3-224l0,0c109.5-233,9.1-511.7-224-621.3C2386.4,543.9,2318.9,529.7,2252.5,529.7z M2690.8,1203
						L2690.8,1203L2690.8,1203z"/>
				</g>
				<g>
					<path class="st5" d="M2251.8,1500c-72.3,0-145.4-15.6-214.2-47.9c-207.5-97.5-322.8-322.6-280.8-547.5c0-0.4,0.1-0.7,0.2-1.1
						c7.8-41.5,21-82.2,39.2-121c8.1-17.2,17.1-33.9,26.9-49.7c134-218.5,410.3-300.9,642.7-191.7
						c232.5,109.3,345.3,374.7,262.5,617.4c-6,17.6-13.1,35.2-21.1,52.2l0,0c-18.2,38.7-41.1,74.8-68.1,107.4
						c-0.2,0.3-0.5,0.6-0.7,0.8C2540.5,1436.6,2397.7,1500,2251.8,1500z M1792.7,910.3L1792.7,910.3c-39.5,209,67.6,418.3,260.4,509
						c192.7,90.6,422.1,39.6,557.9-124c0.3-0.4,0.6-0.7,0.9-1c24.7-30,45.8-63.3,62.5-98.9l0,0c7.4-15.8,14-32.1,19.6-48.4
						c76.8-225.2-27.8-471.5-243.5-572.8c-215.6-101.3-472-24.9-596.4,177.9c-9.1,14.7-17.4,30.2-24.9,46.1
						c-16.8,35.7-29,73.1-36.2,111.3C1792.9,909.6,1792.8,909.9,1792.7,910.3z"/>
				</g>
				<g>
					<path class="st5" d="M2729.7,1093.5c-0.4,0-0.9,0-1.3-0.1c-6.7-0.7-11.8-6.5-11.5-13.2c6.3-193.1-107-373.1-288.8-458.6
						c-181.6-85.4-392.5-57.9-537.2,70c-5.1,4.5-12.7,4.3-17.5-0.5c-4.8-4.7-5.2-12.4-0.8-17.5c145-170.7,388.1-223.3,591.1-127.8
						c203.1,95.5,317.7,316.3,278.7,537C2741.2,1089.1,2735.8,1093.5,2729.7,1093.5z M2209.8,546.8c77.1,0,155.4,16.9,229.1,51.6
						c131.2,61.7,228.4,170.3,274.4,298.2c-30.7-140.4-124.8-263.5-260.7-327.3c-135.8-63.9-290.6-57.8-418.3,8.1
						C2090.3,557.1,2149.7,546.8,2209.8,546.8z"/>
				</g>
				<g>
					<path class="st5" d="M2690.8,1203c-17.9,38-40,72.7-65.6,103.5c0,0,0,0-0.1,0c-145.3,111.4-366.6,161.9-553.8,73.9
						c-187.2-88-289.4-290.6-296.4-473.6c0,0,0-0.1,0-0.1c7.4-39.4,20-78.6,37.8-116.6c7.8-16.6,16.4-32.6,25.9-47.9
						c136.3-136,364.9-173.3,569.1-77.4c204.2,96,321.4,295.9,303.5,487.7C2705.3,1169.6,2698.6,1186.4,2690.8,1203z"/>
				</g>
				<g class="st1">
					<path class="st28" d="M2690.8,1203c-17.9,38-40,72.7-65.6,103.5c0,0,0,0-0.1,0c-145.3,111.4-366.6,161.9-553.8,73.9
						s-289.4-290.6-296.4-473.6c0,0,0-0.1,0-0.1c4.4-23.5,10.7-46.9,18.8-70c46.5,156.9,151.8,304.6,311.1,379.5
						c203,95.4,441.2,48,606.6-66.2c-0.1,0.9-0.1,1.7-0.2,2.5C2705.4,1169.6,2698.6,1186.5,2690.8,1203z"/>
				</g>
				<g class="st27">
					
						<ellipse transform="matrix(0.5633 -0.8262 0.8262 0.5633 175.5871 2620.3691)" class="st7" cx="2566.8" cy="1144.1" rx="84.6" ry="61.3"/>
				</g>
				<g class="st27">
					
						<ellipse transform="matrix(0.6721 -0.7405 0.7405 0.6721 -140.8822 2214.8091)" class="st7" cx="2430.2" cy="1266.5" rx="38.8" ry="33.3"/>
				</g>
				<g class="st27">
					<path class="st7" d="M1861.9,979.5c0,0,20.8-253,178.1-293.2c157.3-40.2,331.1,30.9,322.5,40.4c0,0-211.5-31.7-348.8,89.9
						C1907.7,910.3,1861.9,979.5,1861.9,979.5z"/>
				</g>
			</g>
			<g>
				<path class="st7" d="M1916.2,1808.5c-5.9,39.9-56.2,53.2-56.2,53.2s-197.8,20-265.8-65.1c-58.4-80.6,21.7-138.4,21.7-138.4
					s10.1,11.3,31.4,25.3c36.9,24.2,107.4,56.3,217,51c0,0,49.6,16.3,52.4,62.6C1916.9,1801.1,1916.7,1804.9,1916.2,1808.5z"/>
			</g>
			<g>
				<path class="st19" d="M1916.2,1808.5c-5.9,39.9-56.2,53.2-56.2,53.2s-197.8,20-265.8-65.1c-58.4-80.6,21.7-138.4,21.7-138.4
					s10.1,11.3,31.4,25.3c-3,42.9,6.9,97,66,122.5C1778.4,1834.1,1867,1824.4,1916.2,1808.5z"/>
			</g>
			<g>
				<path class="st5" d="M1809.9,1881.9c-66.5,0-178.9-10.2-229.9-74c-0.2-0.2-0.4-0.5-0.5-0.7c-20.2-27.9-28.1-56.7-23.5-85.5
					c7.7-47.7,47.6-77,49.3-78.2c7.5-5.4,17.9-4.3,24.1,2.6c0.8,0.9,73.2,78.2,234,70.3c2.2-0.1,4.4,0.2,6.6,0.9
					c2.5,0.8,61.3,20.8,64.9,78.7c3.1,50.3-44.6,76.5-70.2,83.3c-0.9,0.2-1.9,0.4-2.8,0.5C1859.2,1880,1838.9,1881.9,1809.9,1881.9z
					 M1608.6,1785.6c50.4,62.4,194.4,63.2,247.9,58.1c7.3-2.3,43.9-15.1,42-45.6c-1.7-28.2-28.5-41.7-37.2-45.3
					c-138.1,5.7-216.6-45.7-245.8-70.2C1598.8,1699.8,1573.8,1737.2,1608.6,1785.6z"/>
			</g>
			<g>
				<path class="st5" d="M1927.5,2265.6c-1.4,0-2.9,0-4.3,0c-68-1.5-103.2-39.8-128.9-67.9c-12.5-13.6-23.2-25.3-32-25.9
					c-7.5-0.5-13.1-7.1-12.6-14.6c0.5-7.5,7.1-13.2,14.6-12.6c19.5,1.4,33.7,16.8,50.1,34.7c23.6,25.8,53.1,57.8,109.4,59
					c97.2,2.1,119.8-80,120.7-83.5c1.9-7.3,9.3-11.6,16.6-9.8c7.3,1.9,11.6,9.2,9.8,16.5C2070.6,2162.6,2043.1,2265.6,1927.5,2265.6
					z"/>
			</g>
			<g>
				<path class="st5" d="M1777,2333.3c39.7,24.3,92.7,29.7,136.9,15.2c14.7-5,28.3-12.2,40.9-21.1c6.1-4.6,14.9-3.2,19.3,3.1
					c4.5,6.4,2.7,15.4-4,19.5c-15.4,9.4-32.1,16.8-49.5,21.4c-34.4,9.1-71,6.7-104.6-3.8c-16.6-5.3-32.6-12.4-47.1-23.4
					c-3-2.3-3.6-6.5-1.3-9.5C1769.8,2331.6,1774,2331.1,1777,2333.3L1777,2333.3z"/>
			</g>
			<g>
				<path class="st5" d="M1617.6,2913.7c37.7,20.9,71.6,60.8,85.7,101.6C1665.5,2994.5,1631.8,2954.4,1617.6,2913.7L1617.6,2913.7z"
					/>
			</g>
		</g>
	</g>
</g>
</svg>
