<?xml version="1.0" encoding="utf-8"?>
<!-- Generator: Adobe Illustrator 26.0.0, SVG Export Plug-In . SVG Version: 6.00 Build 0)  -->
<svg version="1.1" id="Layer_1" xmlns="http://www.w3.org/2000/svg" xmlns:xlink="http://www.w3.org/1999/xlink" x="0px" y="0px"
	 viewBox="0 0 4000 4000" style="enable-background:new 0 0 4000 4000;" xml:space="preserve">
<style type="text/css">
	.st0{fill:#FFFFFF;}
	.st1{fill:#371A45;}
	.st2{fill:#FFD243;}
	.st3{fill:#FCAC38;}
	.st4{fill:#FF941F;}
	.st5{opacity:0.6;}
	.st6{fill:#E5E5E5;}
	.st7{fill:#E8E8E8;}
	.st8{opacity:0.7;}
	.st9{fill:#D8D8D8;}
	.st10{fill:#22A7F0;}
	.st11{fill:#1675DB;}
	.st12{fill:#220F2D;}
	.st13{opacity:0.5;}
	.st14{fill:#FF4545;}
	.st15{fill:#FF1D1D;}
	.st16{opacity:0.2;}
	.st17{fill:#B5B5B5;}
	.st18{fill:#8E8E8E;}
	.st19{fill:#DBDBDB;}
</style>
<g>
	<g>
		<g>
			<path class="st0" d="M1179,2035.5c0,0-67.8,27.1-22.6,84.7c0,0-35.3-9.9-54.6,15.4c-15.5,20.3-7.2,53.1-7.2,53.1
				s-39.1-43.6-74.2-30.5c-32.4,12.1-32.7,44.1-12.8,58.7c0,0-58,31.2-40.3,80.6s92.2,44.4,94.9-7.2c0,0,41.5,47.6,81.3,15.1
				c33.7-27.6,1.1-62.9,1.1-62.9s43.7,18.2,64.4-8.7c22.2-28.9-14.7-68.5-14.7-68.5s35.7-2.5,47.1-32.2c9.5-24.6-8.7-43.8-8.7-43.8
				s53.5-12.4,5.3-63.6"/>
		</g>
		<g>
			<path class="st0" d="M1289.4,2300.5c0,0-39.1,28-50.2-5.7c-11.1-33.7,35.9-38,35.9-38s-4.7-38,23-39.8s37,34.4,25.1,51.3
				c0,0,36.6,16.1,18.3,44.8C1323.2,2341.8,1289.4,2300.5,1289.4,2300.5z"/>
		</g>
		<g>
			<path class="st1" d="M1016.9,2343.7c-23.3,0-49.9-12.4-60.6-42.2c-13.9-38.8,11.1-70.2,33.2-86.8c-5.7-8.7-8.2-19.2-6.8-29.5
				c2.4-17,14.6-30.8,33.6-37.9c23.7-8.9,47.8,2.3,64.6,14.1c0.9-10.9,3.9-22.9,11.5-32.8c12-15.7,28.4-20.7,42-21.8
				c-5.6-12.8-6.8-25.2-3.6-37.2c8.2-30.4,42.3-44.4,43.8-44.9c6-2.4,12.9,0.5,15.3,6.6c2.4,6-0.5,12.9-6.5,15.3
				c-0.6,0.2-24.8,10.4-29.8,29.3c-2.9,10.8,1.2,23.3,12.1,37.2c3.1,4,3.3,9.6,0.5,13.8c-2.8,4.2-8,6.2-13,4.8
				c-1.1-0.3-27.9-7.3-42,11.2c-9.8,12.8-7,35.4-5.1,43.1c1.3,5.2-1.1,10.7-5.9,13.3c-4.8,2.5-10.7,1.5-14.3-2.5
				c-9.4-10.4-38.9-35.7-61.3-27.3c-10.8,4-17.3,10.8-18.5,19.1c-1,7.1,2.3,14.5,8.6,19.1c3.2,2.4,5,6.3,4.8,10.3
				c-0.3,4-2.6,7.6-6.2,9.5c-2,1.1-48.8,27.1-34.8,66.2c7.7,21.3,28.3,28.5,44.2,26.2c6.2-0.9,26.6-5.8,27.8-29.9
				c0.2-4.8,3.4-8.9,7.9-10.5c4.5-1.6,9.6-0.2,12.7,3.4c1.4,1.6,34.6,38.6,65,13.7c6.8-5.6,10.4-11.6,10.9-18.4
				c1.1-14-10.9-27.3-11-27.5c-3.7-4.1-4.1-10.2-0.9-14.7c3.2-4.5,9-6.2,14.1-4.1c0.3,0.1,35.7,14.3,50.5-5
				c15.7-20.4-13.7-53-14-53.3c-3.1-3.3-4-8.1-2.3-12.3s5.6-7.1,10.1-7.4c1.1-0.1,28.5-2.5,37-24.7c6.7-17.5-6.1-31.4-6.3-31.5
				c-2.9-3.1-3.9-7.4-2.7-11.5c1.2-4,4.5-7.1,8.6-8.1c3.4-0.8,13.8-4.8,15.9-11.8c2.1-7.1-3.9-18.9-16.5-32.3
				c-4.5-4.7-4.2-12.2,0.5-16.6c4.7-4.4,12.2-4.2,16.6,0.5c19.4,20.6,26.7,39.2,21.9,55.3c-3.2,10.7-11,17.6-18.2,21.8
				c5,10.2,8.9,25.3,2.2,42.7c-7.9,20.5-24.6,30.5-37.9,35.3c10.6,16.8,22.2,44.5,3.8,68.4c-13.6,17.7-34,20.4-50.5,18.9
				c1.9,5.9,3.1,12.5,2.6,19.5c-0.9,13.4-7.5,25.2-19.5,35c-29.5,24.2-61.3,13-82.1-2.3c-7.5,16.4-22.9,27.8-42.8,30.8
				C1023.2,2343.5,1020.1,2343.7,1016.9,2343.7z"/>
		</g>
		<g>
			<g>
				<path class="st2" d="M3185,3591.3c-290.5,89-656.4,142-1053.8,142c-397.4,0-763.3-53-1053.8-141.9c0-0.4,0-0.9,0-1.3
					c-0.1-4.1-0.2-8.2-0.2-12.3v-0.9c-0.3-19.9,0-39.9,1-59.9c0.2-3.9,0.4-7.8,0.6-11.7c2.4-43,7.5-85.9,15.2-128.7
					c2.5-13.8,5.3-27.6,8.4-41.4c2.3-10.4,4.8-20.7,7.4-30.9c1.8-6.9,3.6-13.7,5.5-20.6c0.9-3.4,1.9-6.8,2.9-10.2
					c2-6.8,4-13.6,6.1-20.5c4.2-13.6,8.8-27.2,13.6-40.7c2.4-6.7,4.9-13.5,7.5-20.2c3.8-10.1,7.8-20.2,12-30.2
					c2.8-6.7,5.6-13.3,8.6-20c1.5-3.3,2.9-6.7,4.4-10c12-26.6,25.2-52.8,39.6-78.8c8.4-15.1,17.2-30,26.2-44.6
					c2.9-4.6,5.7-9.2,8.6-13.7c0.9-1.4,1.8-2.7,2.7-4.1c2.3-3.6,4.6-7.1,7-10.6c4.3-6.5,8.7-12.9,13.1-19.2c1.6-2.4,3.4-4.9,5.1-7.3
					c1.2-1.8,2.5-3.5,3.7-5.2c2.5-3.5,5-6.9,7.6-10.4c3.3-4.6,6.7-9,10.1-13.5c3.4-4.5,6.9-8.9,10.3-13.3c3.5-4.4,7-8.8,10.5-13.1
					c0,0,0,0,0,0c3.1-3.8,6.1-7.5,9.2-11.1c1-1.1,1.9-2.2,2.8-3.3c2.5-2.9,4.9-5.8,7.5-8.7c1.3-1.5,2.6-3.1,4-4.6
					c3-3.5,6.1-6.9,9.1-10.3c3.7-4.1,7.5-8.2,11.2-12.3c3.8-4.1,7.6-8.1,11.4-12.1c3.4-3.6,6.9-7.1,10.3-10.6
					c0.6-0.6,1.2-1.3,1.8-1.9c3.6-3.6,7.2-7.2,10.8-10.7c0.1-0.2,0.2-0.3,0.4-0.4c7.8-7.7,15.8-15.3,23.8-22.6
					c4-3.7,8.1-7.4,12.2-11.1c8.2-7.4,16.6-14.6,25.1-21.7c4.1-3.4,8.2-6.8,12.3-10.1c4.2-3.5,8.5-6.9,12.8-10.2
					c5.1-4,10.2-7.9,15.3-11.8c3.5-2.7,7.1-5.3,10.6-7.9c4.4-3.2,8.7-6.4,13.1-9.5c6-4.3,12-8.4,18-12.6c2.5-1.7,5-3.4,7.6-5.1
					c1.5-1,2.9-2,4.4-2.9c2.1-1.4,4.2-2.8,6.3-4.2c1.1-0.7,2.3-1.5,3.5-2.2c0.4-0.2,0.8-0.5,1.2-0.7c4.4-2.9,8.7-5.6,13.2-8.4
					c8.8-5.5,17.7-10.9,26.8-16.2c3-1.8,6-3.5,9.1-5.3c9-5.1,18.2-10.2,27.3-15c3.1-1.6,6.2-3.2,9.2-4.8
					c16.6-8.6,33.3-16.7,50.3-24.4c8.5-3.8,17-7.6,25.6-11.2c17.2-7.2,34.5-14,52-20.3c13.1-4.7,26.3-9.2,39.6-13.4
					c26.6-8.4,53.5-15.8,80.6-22.1c18.1-4.2,36.3-8,54.6-11.2c17.7-3.1,35.5-5.8,53.4-8c1.1-0.2,2.3-0.3,3.4-0.4
					c8.7-1.1,17.4-2,26.2-2.9c9.3-0.9,18.6-1.6,27.9-2.3c4.6-0.3,9.3-0.6,14-0.9c1.3-0.1,2.6-0.2,3.9-0.2c4.6-0.2,9.1-0.5,13.7-0.6
					c4.6-0.2,9.1-0.4,13.7-0.5c4.7-0.1,9.3-0.2,14-0.3c13.5-0.2,27.1-0.1,40.7,0.2c3.9,0.1,7.8,0.2,11.6,0.4
					c7.7,0.3,15.5,0.6,23.2,1.1c11.6,0.7,23.3,1.6,34.9,2.6c7.7,0.7,15.4,1.5,23.1,2.4c0,0,0,0,0,0c92.8,10.6,185.3,33.9,274.9,70.3
					c34.6,14,68.7,30,102.3,47.9c4.8,2.6,9.6,5.2,14.4,7.9c8.2,4.6,16.3,9.1,24.4,14c4.9,2.9,9.7,5.8,14.4,8.7
					c5.1,3.1,10,6.2,15,9.4c6.7,4.2,13.2,8.6,19.8,12.9c1.6,1,3.2,2,4.7,3.1c1.6,1.1,3.3,2.2,4.9,3.4c4.5,3.1,9,6.2,13.5,9.3
					c0.7,0.5,1.4,1,2.1,1.5c4.4,3.1,8.7,6.2,13,9.3c4.7,3.5,9.3,6.9,14,10.4c4.6,3.5,9.2,7,13.7,10.6c4.6,3.6,9.1,7.2,13.5,10.8
					c4.5,3.6,8.9,7.3,13.3,11c4.4,3.7,8.8,7.4,13.1,11.2c4.4,3.8,8.6,7.5,12.9,11.4c4.2,3.8,8.5,7.6,12.7,11.5
					c8.4,7.7,16.6,15.6,24.7,23.6c20.2,19.9,39.5,40.6,57.9,62c11.1,12.8,21.7,25.9,32,39.1c3.4,4.4,6.8,8.9,10.2,13.3
					s6.7,9,10,13.5c9.9,13.5,19.5,27.3,28.6,41.3c3,4.5,5.9,9.1,8.8,13.6c0.2,0.3,0.4,0.6,0.6,0.9c2.9,4.6,5.7,9.1,8.5,13.6
					c2.9,4.7,5.8,9.5,8.6,14.3c2.8,4.8,5.6,9.6,8.4,14.4c5.5,9.6,10.9,19.4,16,29.2c5.2,9.8,10.2,19.7,15.1,29.7
					c2.4,5,4.8,10,7.2,15c7.1,15,13.8,30.2,20.1,45.5c2.1,5.1,4.2,10.2,6.2,15.4c8.1,20.5,15.6,41.3,22.4,62.3
					c0.1,0.3,0.2,0.6,0.3,0.9c1.6,5,3.2,10,4.7,15.1c1.6,5.3,3.2,10.6,4.8,15.9c1.5,5.3,3,10.6,4.5,15.9c1.5,5.3,2.9,10.7,4.3,16
					c1.3,4.9,2.5,9.9,3.7,14.9c0.2,0.9,0.5,1.9,0.7,2.9c1.1,4.8,2.3,9.6,3.3,14.5c2.4,10.8,4.7,21.6,6.7,32.5c1,5.5,2,10.9,3,16.3
					c1,5.5,1.9,10.9,2.7,16.4c0.9,5.5,1.7,10.9,2.5,16.4c0.7,5,1.4,10,2,15c0.1,0.8,0.2,1.6,0.3,2.3c0.6,4.9,1.2,9.8,1.7,14.7
					c0,0.4,0.1,0.9,0.2,1.3c0.6,5.4,1.1,10.7,1.6,16.2c0.5,5.5,1,11,1.5,16.6c0.9,11.1,1.6,22.1,2.1,33.2
					C3185.3,3541.1,3185.5,3566.2,3185,3591.3z"/>
			</g>
			<g>
				<path class="st2" d="M3185.2,3578.5c0,3.7-0.1,7.3-0.2,11c0,0.6,0,1.1,0,1.7c-9.3,2.8-18.6,5.7-28.1,8.4
					c-29,8.5-58.8,16.7-89.2,24.5c-21.4,5.5-43.1,10.8-65.2,15.9c-71.2,16.5-145.7,31-223.1,43.5c-2.5,0.4-5.1,0.8-7.6,1.2
					c-0.1,0-0.2,0-0.4,0.1c-8.2,1.3-16.5,2.6-24.8,3.8c-21.5,3.2-43.2,6.3-65,9.2c-9.6,1.3-19.3,2.5-29,3.7
					c-164.4,20.6-339.6,31.6-521.4,31.6c-269.6,0-524.7-24.4-751.6-67.8c-11.7-2.2-23.3-4.5-34.8-6.9c-84.1-17-164-36.7-239.2-58.8
					c-9.5-2.8-18.9-5.6-28.3-8.5h0c0-0.4,0-0.9,0-1.3c0-2.8-0.1-5.6-0.2-8.4c0-1.3,0-2.6-0.1-3.9v-0.9c0-2.2,0-4.4,0-6.6
					c-0.1-11.4,0-22.8,0.3-34.1c0.2-6.4,0.4-12.8,0.7-19.1c0-1.4,0.1-2.9,0.2-4.3c0-0.3,0-0.7,0.1-1c0.1-2.1,0.2-4.3,0.3-6.4
					c0.1-2.1,0.2-4,0.4-6.1c0.2-4.2,0.5-8.5,0.8-12.7c0.7-8.8,1.5-17.6,2.3-26.4c2.7-27.9,6.6-55.7,11.7-83.5
					c2.5-13.8,5.3-27.6,8.4-41.4c2.3-10.4,4.8-20.7,7.4-31c1.8-6.9,3.6-13.7,5.5-20.6c0.9-3.4,1.9-6.8,2.9-10.2
					c2-6.9,4-13.7,6.1-20.5c4.2-13.6,8.8-27.2,13.6-40.7c2.4-6.7,4.9-13.4,7.4-20.2c3.8-10.1,7.9-20.2,12-30.2
					c2.8-6.7,5.7-13.3,8.6-20c1.5-3.3,2.9-6.7,4.5-10c12-26.5,25.2-52.8,39.6-78.7c8.4-15.2,17.2-30,26.2-44.6
					c2.9-4.6,5.7-9.2,8.6-13.7c0.9-1.4,1.8-2.7,2.7-4.1c2.3-3.6,4.6-7.1,7-10.6c4.3-6.5,8.7-12.9,13.1-19.2c1.7-2.4,3.4-4.9,5.1-7.2
					c1.2-1.8,2.5-3.5,3.7-5.2c2.5-3.5,5-6.9,7.6-10.4c3.3-4.5,6.7-9,10.1-13.5c3.4-4.5,6.9-8.9,10.3-13.3c3.5-4.4,7-8.8,10.5-13.1
					c0,0,0,0,0,0c3.1-3.8,6.2-7.5,9.2-11.1c1-1.1,1.9-2.2,2.8-3.3c2.4-2.9,4.9-5.8,7.4-8.7c1.4-1.5,2.6-3.1,3.9-4.6
					c3-3.4,6.1-6.9,9.1-10.3c3.8-4.1,7.5-8.2,11.2-12.3c3.8-4.1,7.6-8.1,11.4-12.1c3.4-3.6,6.9-7.1,10.3-10.6
					c0.6-0.6,1.2-1.2,1.8-1.9c3.6-3.6,7.2-7.2,10.8-10.7c0.1-0.2,0.2-0.3,0.4-0.4c7.9-7.7,15.8-15.2,23.8-22.6
					c4-3.7,8.1-7.4,12.2-11.1c8.2-7.4,16.6-14.6,25.1-21.7c4.1-3.4,8.2-6.8,12.3-10.1c4.2-3.5,8.5-6.9,12.8-10.2
					c5.1-4,10.2-7.9,15.3-11.8c3.4-2.6,6.8-5.1,10.2-7.6c0.2-0.1,0.3-0.2,0.5-0.3c4.3-3.2,8.7-6.4,13.1-9.5c6-4.3,12-8.4,18-12.5
					c2.5-1.7,5-3.4,7.5-5.1c1.5-1,2.9-1.9,4.4-2.9c3.2-2.1,6.5-4.3,9.7-6.4c0.4-0.2,0.8-0.5,1.2-0.7c4.4-2.8,8.7-5.6,13.2-8.4
					c8.8-5.5,17.8-11,26.8-16.2c3-1.8,6-3.5,9.1-5.3c9.1-5.1,18.2-10.2,27.3-15c3.1-1.6,6.2-3.2,9.2-4.8
					c16.6-8.6,33.3-16.8,50.3-24.4c8.5-3.8,17-7.6,25.6-11.2c17.2-7.2,34.5-14,52-20.3c13.1-4.7,26.3-9.2,39.6-13.4
					c26.6-8.4,53.5-15.8,80.6-22.1c18.1-4.2,36.3-7.9,54.7-11.2c17.7-3.1,35.5-5.8,53.4-8c1.1-0.2,2.2-0.3,3.4-0.4
					c8.7-1.1,17.4-2,26.2-2.9c9.3-0.9,18.5-1.7,27.9-2.3c4.6-0.3,9.3-0.6,14-0.9c1.3,0,2.6-0.2,3.9-0.2c4.6-0.3,9.1-0.5,13.7-0.7
					c4.6-0.2,9.2-0.3,13.7-0.4c4.6-0.1,9.3-0.2,13.9-0.3c13.5-0.2,27.1-0.1,40.7,0.2c3.9,0.1,7.7,0.2,11.7,0.3
					c7.7,0.3,15.4,0.7,23.2,1.1c11.6,0.7,23.3,1.6,34.8,2.6c7.7,0.7,15.5,1.5,23.1,2.4c0,0,0,0,0,0c92.9,10.7,185.4,33.9,274.9,70.3
					c34.6,14,68.8,29.9,102.3,47.9c4.8,2.6,9.6,5.2,14.4,7.9c8.2,4.6,16.3,9.2,24.4,14c4.9,2.8,9.7,5.8,14.4,8.7
					c5,3.1,10,6.2,15,9.3c9.9,6.3,19.7,12.8,29.4,19.4c4.5,3.1,9,6.2,13.4,9.3c0.7,0.5,1.4,1,2.1,1.5c4.4,3.1,8.7,6.2,13,9.3
					c4.7,3.4,9.3,6.9,13.9,10.4c4.6,3.5,9.2,7,13.7,10.6s9.1,7.2,13.5,10.8c4.5,3.6,8.9,7.3,13.4,11c4.4,3.7,8.8,7.4,13.1,11.1
					c4.4,3.8,8.6,7.5,12.9,11.4c4.2,3.8,8.5,7.7,12.7,11.5c8.4,7.8,16.6,15.6,24.7,23.6c20.2,20,39.5,40.7,57.9,62
					c11,12.8,21.7,25.9,32.1,39.1c3.4,4.5,6.8,8.9,10.2,13.4c3.4,4.5,6.7,9,10,13.5c9.9,13.6,19.4,27.4,28.6,41.3
					c3,4.5,5.9,9.1,8.8,13.6c0.2,0.3,0.4,0.6,0.6,0.9c2.9,4.6,5.7,9.1,8.5,13.7c2.9,4.7,5.8,9.5,8.6,14.3c2.8,4.8,5.6,9.6,8.4,14.4
					c5.5,9.6,10.9,19.4,16.1,29.1c5.1,9.8,10.2,19.7,15.1,29.7c2.4,5,4.8,10,7.2,15c7,15,13.8,30.2,20.1,45.5
					c2.1,5.1,4.2,10.2,6.2,15.4c8.1,20.5,15.6,41.3,22.4,62.2c0.1,0.3,0.2,0.6,0.3,0.9c1.6,5,3.2,10.1,4.7,15.1
					c1.7,5.3,3.2,10.6,4.8,15.9c1.5,5.3,3,10.6,4.5,15.9c1.5,5.3,2.9,10.7,4.3,16.1c1.2,4.9,2.5,9.9,3.7,14.9
					c0.2,0.9,0.5,1.9,0.7,2.9c1.2,4.8,2.3,9.6,3.3,14.5c2.4,10.8,4.7,21.6,6.8,32.5c1,5.4,2,10.8,3,16.3c1,5.5,1.9,10.9,2.7,16.4
					c0.9,5.5,1.7,10.9,2.5,16.4c0.7,5,1.4,10,2,15c0.1,0.8,0.2,1.6,0.3,2.3c0.6,4.9,1.2,9.8,1.7,14.7c0,0.4,0.1,0.9,0.2,1.4
					c0.4,3.9,0.8,7.7,1.2,11.7c0.2,1.5,0.3,3,0.5,4.5c0.6,5.5,1,11,1.5,16.6c0.4,5.3,0.8,10.7,1.1,16.1c0.7,9.3,1.1,18.5,1.4,27.8
					c0.2,4.4,0.3,8.7,0.4,13.1c0.1,3.3,0.2,6.7,0.2,10C3185.3,3559.4,3185.3,3569,3185.2,3578.5z"/>
			</g>
			<g>
				<path class="st2" d="M3185.2,3578.5c0,3.7-0.1,7.3-0.2,11c0,0.6,0,1.1,0,1.7c-9.3,2.8-18.6,5.7-28.1,8.4
					c-29,8.5-58.8,16.7-89.3,24.5c-21.4,5.5-43.1,10.8-65.2,15.9c-71.2,16.5-145.7,31-223.1,43.5c-2.5,0.4-5.1,0.8-7.7,1.2
					c-0.1,0-0.2,0-0.4,0.1c-8.3,1.3-16.5,2.6-24.8,3.8c-21.5,3.2-43.2,6.3-65,9.2c-9.6,1.3-19.3,2.5-28.9,3.7
					c-164.5,20.6-339.6,31.6-521.5,31.6c-269.6,0-524.7-24.3-751.5-67.8c-11.7-2.2-23.3-4.5-34.8-6.9c-84.1-17-164-36.7-239.2-58.7
					c-9.5-2.8-18.9-5.6-28.2-8.5h-0.1c0-0.4,0-0.9,0-1.3c0-2.8-0.1-5.6-0.2-8.4c0-1.3,0-2.6-0.1-3.9v-0.9c0-2.1,0-4.4,0-6.6
					c-0.1-11.4,0-22.8,0.4-34.1c0.2-6.4,0.4-12.8,0.6-19.1c0.1-1.5,0.1-2.9,0.2-4.3c0-0.3,0-0.7,0.1-1c0.1-2.1,0.2-4.3,0.3-6.4
					c0.1-2.1,0.2-4,0.4-6.1c0.2-4.2,0.5-8.5,0.8-12.7c0.6-8.8,1.5-17.6,2.3-26.4c2.8-27.9,6.6-55.7,11.7-83.5
					c2.5-13.8,5.4-27.6,8.4-41.4c2.3-10.4,4.7-20.7,7.4-31c1.8-6.8,3.6-13.7,5.5-20.6c0.9-3.4,1.9-6.8,2.9-10.2
					c2-6.9,4-13.7,6.1-20.5c4.2-13.6,8.8-27.2,13.6-40.7c2.4-6.7,4.9-13.4,7.4-20.2c3.8-10.1,7.9-20.2,12-30.2
					c2.8-6.7,5.7-13.3,8.6-20c1.5-3.3,2.9-6.7,4.4-10c12-26.5,25.2-52.8,39.6-78.7c8.4-15.2,17.2-30,26.3-44.6
					c2.8-4.6,5.7-9.2,8.6-13.7c0.9-1.4,1.8-2.7,2.7-4.1c2.3-3.6,4.6-7.1,7-10.6c4.3-6.5,8.7-12.9,13.1-19.2c1.7-2.4,3.4-4.9,5.1-7.2
					c1.2-1.8,2.5-3.5,3.7-5.2c2.5-3.5,5.1-6.9,7.6-10.4c3.3-4.5,6.7-9,10.1-13.5c3.4-4.5,6.9-8.9,10.3-13.3c3.5-4.4,7-8.8,10.5-13.1
					c0-0.1,0-0.1,0-0.1c3.1-3.8,6.1-7.5,9.2-11.1c1-1.1,1.9-2.3,2.8-3.3c2.4-3,4.9-5.9,7.4-8.7c1.3-1.6,2.6-3.1,3.9-4.6
					c3-3.4,6.1-6.9,9.1-10.3c3.8-4.1,7.5-8.2,11.2-12.3c3.8-4.1,7.6-8.1,11.4-12.1c3.4-3.6,6.8-7.1,10.3-10.6
					c0.6-0.6,1.2-1.2,1.8-1.8c3.5-3.7,7.2-7.2,10.8-10.7c0.1-0.2,0.2-0.3,0.4-0.4c7.9-7.7,15.8-15.2,23.8-22.6
					c4-3.7,8.1-7.4,12.2-11.1c8.2-7.4,16.6-14.6,25.1-21.7c4.1-3.4,8.2-6.8,12.3-10.1c4.2-3.5,8.5-6.9,12.8-10.2
					c5.1-4,10.2-7.9,15.3-11.8c3.4-2.6,6.8-5.1,10.2-7.6c0.2-0.1,0.3-0.2,0.5-0.4c4.3-3.2,8.7-6.4,13.1-9.5c6-4.2,12-8.4,18.1-12.5
					c2.5-1.8,5-3.4,7.5-5.1c1.5-1,2.9-1.9,4.4-2.9c3.2-2.1,6.5-4.3,9.7-6.4c0.4-0.2,0.8-0.5,1.1-0.8c4.4-2.8,8.7-5.6,13.2-8.3
					c8.8-5.5,17.8-10.9,26.8-16.2c3-1.8,6-3.5,9-5.3c9.1-5.1,18.2-10.2,27.3-15c3.1-1.6,6.1-3.2,9.2-4.8
					c16.6-8.6,33.3-16.8,50.3-24.4c0.2-0.1,0.5-0.2,0.7-0.3c8.2-3.8,16.6-7.4,24.9-10.9c17.2-7.2,34.5-14,52-20.3
					c13.1-4.7,26.3-9.2,39.6-13.4c26.6-8.4,53.4-15.8,80.6-22.1c18.1-4.2,36.3-7.9,54.7-11.2c17.7-3.1,35.5-5.8,53.4-8
					c1.1-0.2,2.3-0.3,3.4-0.4c8.7-1.1,17.4-2,26.2-2.8c9.3-0.9,18.5-1.7,27.9-2.3c4.6-0.3,9.3-0.6,14-0.9c1.3,0,2.6-0.2,3.9-0.2
					c4.6-0.3,9.1-0.5,13.7-0.7c4.6-0.2,9.2-0.3,13.8-0.4c4.6-0.1,9.3-0.2,13.9-0.3c13.6-0.2,27.1-0.1,40.7,0.2
					c3.9,0.1,7.7,0.2,11.6,0.4c7.7,0.3,15.4,0.7,23.2,1.1c11.6,0.7,23.3,1.6,34.8,2.6c7.7,0.7,15.5,1.5,23.2,2.4c0,0,0,0,0,0
					c92.9,10.7,185.4,33.9,274.9,70.4c34.6,14,68.8,29.9,102.3,47.9c1.6,0.9,3.2,1.7,4.8,2.6c3.2,1.7,6.4,3.5,9.6,5.3
					c8.2,4.6,16.3,9.2,24.3,14c4.9,2.8,9.7,5.8,14.5,8.8c5,3.1,10,6.2,15,9.3c9.9,6.3,19.8,12.8,29.4,19.4c4.5,3.1,9,6.1,13.4,9.3
					c0.7,0.5,1.4,1.1,2.1,1.5c4.4,3.1,8.7,6.2,13,9.3c4.7,3.4,9.3,6.9,13.9,10.4c4.6,3.5,9.2,7,13.7,10.6c4.5,3.6,9.1,7.2,13.5,10.8
					c4.5,3.6,9,7.3,13.3,11c4.4,3.7,8.8,7.4,13.1,11.2c4.4,3.8,8.6,7.5,12.9,11.4c4.2,3.8,8.5,7.7,12.6,11.5
					c8.3,7.8,16.6,15.6,24.7,23.6c20.2,20,39.5,40.7,57.9,62c11,12.8,21.7,25.9,32,39.1c3.4,4.5,6.8,8.9,10.2,13.4
					c3.4,4.4,6.7,9,10,13.5c9.9,13.6,19.4,27.4,28.6,41.3c3,4.5,5.9,9,8.8,13.6c0.2,0.3,0.4,0.6,0.6,0.9c2.9,4.6,5.7,9.1,8.5,13.7
					c2.9,4.7,5.7,9.5,8.6,14.3c2.8,4.7,5.6,9.6,8.4,14.4c5.5,9.6,10.9,19.4,16.1,29.1c5.1,9.8,10.2,19.7,15.1,29.7
					c2.4,5,4.8,10,7.2,15c7,15,13.8,30.2,20.1,45.5c2.1,5.2,4.2,10.2,6.2,15.4c8.1,20.5,15.6,41.3,22.4,62.2
					c0.1,0.3,0.2,0.6,0.3,0.9c1.6,5,3.2,10.1,4.7,15.1c1.7,5.3,3.2,10.6,4.8,15.9c1.5,5.3,3,10.6,4.4,15.9
					c1.5,5.4,2.9,10.7,4.3,16.1c1.2,4.9,2.5,9.9,3.7,14.9c0.2,0.9,0.5,1.9,0.7,2.8c1.1,4.8,2.3,9.6,3.3,14.5
					c2.4,10.8,4.7,21.6,6.8,32.5c1,5.4,2,10.8,3,16.3c1,5.4,1.8,10.9,2.7,16.4c0.9,5.5,1.7,10.9,2.5,16.4c0.7,5,1.4,10,2,15
					c0.1,0.8,0.2,1.6,0.3,2.3c0.6,4.9,1.2,9.8,1.8,14.7c0,0.4,0.1,0.9,0.2,1.4c0.4,3.9,0.8,7.7,1.1,11.6c0.2,1.5,0.3,3,0.5,4.5
					c0.6,5.5,1,11,1.5,16.5c0.4,5.4,0.8,10.7,1.1,16.1c0.7,9.3,1.1,18.5,1.5,27.8c0.2,4.4,0.3,8.7,0.4,13.1c0.1,3.3,0.2,6.7,0.2,10
					C3185.3,3559.4,3185.3,3569,3185.2,3578.5z"/>
			</g>
			<g>
				<path class="st2" d="M3185.2,3578.5c0,3.7-0.1,7.3-0.2,11c0,0.6,0,1.1,0,1.7c-9.3,2.8-18.6,5.7-28.1,8.4
					c-29,8.5-58.8,16.7-89.3,24.5c-21.4,5.5-43.1,10.8-65.2,15.9c-71.2,16.5-145.7,31-223.1,43.5c-2.5,0.4-5.1,0.8-7.7,1.2
					c-0.1,0-0.2,0-0.4,0.1c-8.3,1.3-16.5,2.6-24.8,3.8c-21.5,3.2-43.2,6.3-65,9.2c-9.6,1.3-19.3,2.5-28.9,3.7
					c-164.5,20.6-339.6,31.6-521.5,31.6c-269.6,0-524.7-24.3-751.5-67.8c-11.7-2.2-23.3-4.5-34.8-6.9c-84.1-17-164-36.7-239.2-58.7
					c-9.5-2.8-18.9-5.6-28.2-8.5h-0.1c0-0.4,0-0.9,0-1.3c0-2.8-0.1-5.6-0.2-8.4c0-1.3,0-2.6-0.1-3.9v-0.9c0-2.1,0-4.4,0-6.6
					c-0.1-11.4,0-22.8,0.4-34.1c0.2-6.4,0.4-12.8,0.6-19.1c0.1-1.5,0.1-2.9,0.2-4.3c0-0.3,0-0.7,0.1-1c0.1-2.1,0.2-4.3,0.3-6.4
					c0.1-2.1,0.2-4,0.4-6.1c0.2-4.2,0.5-8.5,0.8-12.7c0.6-8.8,1.5-17.6,2.3-26.4c2.8-27.9,6.6-55.7,11.7-83.5
					c2.5-13.8,5.4-27.6,8.4-41.4c2.3-10.4,4.7-20.7,7.4-31c1.8-6.8,3.6-13.7,5.5-20.6c0.9-3.4,1.9-6.8,2.9-10.2
					c2-6.9,4-13.7,6.1-20.5c4.2-13.6,8.8-27.2,13.6-40.7c2.4-6.7,4.9-13.4,7.4-20.2c3.8-10.1,7.9-20.2,12-30.2
					c2.8-6.7,5.7-13.3,8.6-20c1.5-3.3,2.9-6.7,4.4-10c12-26.5,25.2-52.8,39.6-78.7c8.4-15.2,17.2-30,26.3-44.6
					c2.8-4.6,5.7-9.2,8.6-13.7c0.9-1.4,1.8-2.7,2.7-4.1c2.3-3.6,4.6-7.1,7-10.6c4.3-6.5,8.7-12.9,13.1-19.2c1.7-2.4,3.4-4.9,5.1-7.2
					c1.2-1.8,2.5-3.5,3.7-5.2c2.5-3.5,5.1-6.9,7.6-10.4c3.3-4.5,6.7-9,10.1-13.5c3.4-4.5,6.9-8.9,10.3-13.3c3.5-4.4,7-8.8,10.5-13.1
					c0-0.1,0-0.1,0-0.1c3.1-3.8,6.1-7.5,9.2-11.1c1-1.1,1.9-2.3,2.8-3.3c2.4-3,4.9-5.9,7.4-8.7c1.3-1.6,2.6-3.1,3.9-4.6
					c3-3.4,6.1-6.9,9.1-10.3c3.8-4.1,7.5-8.2,11.2-12.3c3.8-4.1,7.6-8.1,11.4-12.1c3.4-3.6,6.8-7.1,10.3-10.6
					c0.6-0.6,1.2-1.2,1.8-1.8c3.5-3.7,7.2-7.2,10.8-10.7c0.1-0.2,0.2-0.3,0.4-0.4c7.9-7.7,15.8-15.2,23.8-22.6
					c4-3.7,8.1-7.4,12.2-11.1c8.2-7.4,16.6-14.6,25.1-21.7c4.1-3.4,8.2-6.8,12.3-10.1c4.2-3.5,8.5-6.9,12.8-10.2
					c5.1-4,10.2-7.9,15.3-11.8c3.4-2.6,6.8-5.1,10.2-7.6c0.2-0.1,0.3-0.2,0.5-0.4c4.3-3.2,8.7-6.4,13.1-9.5c6-4.2,12-8.4,18.1-12.5
					c2.5-1.8,5-3.4,7.5-5.1c1.5-1,2.9-1.9,4.4-2.9c3.2-2.1,6.5-4.3,9.7-6.4c0.4-0.2,0.8-0.5,1.1-0.8c4.4-2.8,8.7-5.6,13.2-8.3
					c8.8-5.5,17.8-10.9,26.8-16.2c3-1.8,6-3.5,9-5.3c9.1-5.1,18.2-10.2,27.3-15c3.1-1.6,6.1-3.2,9.2-4.8
					c16.6-8.6,33.3-16.8,50.3-24.4c0.2-0.1,0.5-0.2,0.7-0.3c8.2-3.8,16.6-7.4,24.9-10.9c17.2-7.2,34.5-14,52-20.3
					c13.1-4.7,26.3-9.2,39.6-13.4c26.6-8.4,53.4-15.8,80.6-22.1c18.1-4.2,36.3-7.9,54.7-11.2c17.7-3.1,35.5-5.8,53.4-8
					c1.1-0.2,2.3-0.3,3.4-0.4c8.7-1.1,17.4-2,26.2-2.8c9.3-0.9,18.5-1.7,27.9-2.3c4.6-0.3,9.3-0.6,14-0.9c1.3,0,2.6-0.2,3.9-0.2
					c4.6-0.3,9.1-0.5,13.7-0.7c4.6-0.2,9.2-0.3,13.8-0.4c4.6-0.1,9.3-0.2,13.9-0.3c13.6-0.2,27.1-0.1,40.7,0.2
					c3.9,0.1,7.7,0.2,11.6,0.4c7.7,0.3,15.4,0.7,23.2,1.1c11.6,0.7,23.3,1.6,34.8,2.6c7.7,0.7,15.5,1.5,23.2,2.4c0,0,0,0,0,0
					c92.9,10.7,185.4,33.9,274.9,70.4c29.3,11.9,58.3,25.1,86.9,39.8c5.1,2.6,10.3,5.3,15.4,8c1.6,0.9,3.2,1.7,4.8,2.6
					c3.2,1.7,6.4,3.5,9.6,5.3c8.2,4.6,16.3,9.2,24.3,14c4.9,2.8,9.7,5.8,14.5,8.8c5,3.1,10,6.2,15,9.3c9.9,6.3,19.8,12.8,29.4,19.4
					c4.5,3.1,9,6.1,13.4,9.3c0.7,0.5,1.4,1.1,2.1,1.5c4.4,3.1,8.7,6.2,13,9.3c4.7,3.4,9.3,6.9,13.9,10.4c4.6,3.5,9.2,7,13.7,10.6
					c4.5,3.6,9.1,7.2,13.5,10.8c4.5,3.6,9,7.3,13.3,11c4.4,3.7,8.8,7.4,13.1,11.2c4.4,3.8,8.6,7.5,12.9,11.4
					c4.2,3.8,8.5,7.7,12.6,11.5c0.8,0.7,1.5,1.4,2.2,2.1c7.6,7.1,15.1,14.2,22.4,21.5c20.2,20,39.5,40.7,57.9,62
					c11,12.8,21.7,25.9,32,39.1c3.4,4.5,6.8,8.9,10.2,13.4c3.4,4.4,6.7,9,10,13.5c9.9,13.6,19.4,27.4,28.6,41.3
					c3,4.5,5.9,9,8.8,13.6c0.2,0.3,0.4,0.6,0.6,0.9c2.9,4.6,5.7,9.1,8.5,13.7c2.9,4.7,5.7,9.5,8.6,14.3c2.8,4.7,5.6,9.6,8.4,14.4
					c5.5,9.6,10.9,19.4,16.1,29.1c5.1,9.8,10.2,19.7,15.1,29.7c2.4,5,4.8,10,7.2,15c7,15,13.8,30.2,20.1,45.5
					c2.1,5.2,4.2,10.2,6.2,15.4c8.1,20.5,15.6,41.3,22.4,62.2c0.1,0.3,0.2,0.6,0.3,0.9c1.6,5,3.2,10.1,4.7,15.1
					c1.7,5.3,3.2,10.6,4.8,15.9c1.5,5.3,3,10.6,4.4,15.9c1.5,5.4,2.9,10.7,4.3,16.1c1.2,4.9,2.5,9.9,3.7,14.9
					c0.2,0.9,0.5,1.9,0.7,2.8c1.1,4.8,2.3,9.6,3.3,14.5c2.4,10.8,4.7,21.6,6.8,32.5c1,5.4,2,10.8,3,16.3c1,5.4,1.8,10.9,2.7,16.4
					c0.9,5.5,1.7,10.9,2.5,16.4c0.7,5,1.4,10,2,15c0.1,0.8,0.2,1.6,0.3,2.3c0.6,4.9,1.2,9.8,1.8,14.7c0,0.4,0.1,0.9,0.2,1.4
					c0.4,3.9,0.8,7.7,1.1,11.6c0.2,1.5,0.3,3,0.5,4.5c0.6,5.5,1,11,1.5,16.5c0.4,5.4,0.8,10.7,1.1,16.1c0.7,9.3,1.1,18.5,1.5,27.8
					c0.2,4.4,0.3,8.7,0.4,13.1c0.1,3.3,0.2,6.7,0.2,10C3185.3,3559.4,3185.3,3569,3185.2,3578.5z"/>
			</g>
			<g>
				<path class="st3" d="M2535.8,2674.7c-69.4,82.1-259,69.4-374.6,9.2c-115.7,60.2-330.1,111.4-429.5,32.7
					c-45.7-36.2-49.8-75.6-35.7-111.6c8.2-3.8,16.6-7.4,24.9-10.9c17.2-7.2,34.5-14,52-20.3c13.1-4.7,26.3-9.2,39.6-13.4
					c26.6-8.4,53.4-15.8,80.6-22.1c18.1-4.2,36.3-7.9,54.7-11.2c17.7-3.1,35.5-5.8,53.4-8c1.1-0.2,2.3-0.3,3.4-0.4
					c8.7-1.1,17.4-2,26.2-2.8c9.3-0.9,18.5-1.7,27.9-2.3c4.6-0.3,9.3-0.6,14-0.9c1.3,0,2.6-0.2,3.9-0.2c4.6-0.3,9.1-0.5,13.7-0.7
					c4.6-0.2,9.2-0.3,13.8-0.4c4.6-0.1,9.3-0.2,13.9-0.3c13.6-0.2,27.1-0.1,40.7,0.2c3.9,0.1,7.7,0.2,11.6,0.4
					c7.7,0.3,15.4,0.7,23.2,1.1c11.6,0.7,23.3,1.6,34.8,2.6c7.7,0.7,15.5,1.5,23.2,2.4c0,0,0,0,0,0c92.9,10.7,185.4,33.9,274.9,70.4
					C2561,2602.1,2562,2643.7,2535.8,2674.7z"/>
			</g>
			<g>
				<path class="st3" d="M1082.2,3460.1c4.7,47.1,12.6,93.8,23.5,139.7c-9.5-2.8-18.9-5.6-28.2-8.5c-0.1-3.2-0.2-6.4-0.2-9.7
					c-0.1-3.8-0.1-7.6-0.1-11.5c-0.1-11.4,0-22.8,0.4-34.1c0.2-7.8,0.5-15.6,0.9-23.4c0-0.3,0-0.6,0-0.9c0.2-4.2,0.4-8.4,0.7-12.5
					c0.2-4.2,0.5-8.5,0.8-12.7C1080.5,3477.6,1081.3,3468.8,1082.2,3460.1z"/>
			</g>
			<g>
				<path class="st4" d="M3185.2,3578.5c0,3.7-0.1,7.3-0.2,11c0,0.6,0,1.1,0,1.7c-9.3,2.8-18.6,5.6-28.1,8.4
					c0.4-1.8,0.9-3.5,1.3-5.3c9.5-40.7,16.4-81.7,20.9-122.8c0.4-3.3,0.7-6.6,1-9.8c0-0.1,0-0.1,0-0.2c0.2,1.6,0.3,3.1,0.4,4.7
					c0.5,5.5,1,11,1.5,16.6c0.4,5.4,0.8,10.7,1.1,16.1c0.6,9.3,1.1,18.5,1.4,27.8c0.2,4.4,0.3,8.7,0.4,13.1c0.1,3.3,0.2,6.7,0.2,10
					C3185.3,3559.4,3185.3,3569,3185.2,3578.5z"/>
			</g>
			<g>
				<path class="st3" d="M3067.6,3624.2c-21.4,5.5-43.1,10.8-65.2,15.9c-71.2,16.5-145.7,31.1-223.1,43.5c-2.5,0.4-5.1,0.8-7.6,1.2
					c-0.1,0-0.2,0-0.4,0.1c0.3-1.4,0.6-2.7,0.9-4.1c28.8-128.4,114.9-232.7,192.2-232.9c38.8-0.1,69.9,26.9,87.5,70
					C3063.9,3547,3069.8,3583.6,3067.6,3624.2z"/>
			</g>
			<g>
				<path class="st1" d="M2712.3,3593.7L2712.3,3593.7c-16.7,32.5-26.7,66.9-30.6,102c-0.1,0.7-0.2,1.4-0.2,2.1
					c-9.6,1.3-19.3,2.5-28.9,3.7c0.5-3.3,1.1-6.7,1.7-10c7.3-38.2,23.3-75.2,48.4-104.3c2.1-2.4,5.8-2.7,8.2-0.6
					C2713,3588.4,2713.5,3591.4,2712.3,3593.7z"/>
			</g>
			<g>
				
					<ellipse transform="matrix(0.998 -6.399680e-02 6.399680e-02 0.998 -184.4569 111.7892)" class="st3" cx="1652.8" cy="2935.2" rx="104.8" ry="89.4"/>
			</g>
			<g>
				
					<ellipse transform="matrix(0.9378 -0.3471 0.3471 0.9378 -925.0685 766)" class="st2" cx="1675.7" cy="2965.2" rx="78.7" ry="63.5"/>
			</g>
			<g>
				<path class="st1" d="M1655.8,3034.3c-47.2,7.2-101.3-17.3-120.2-63.4c-26.7-65.6,24.8-129.3,89.1-141.4
					c36.2-7.3,75.6-0.3,105.3,22.1c41.5,29.1,54.8,89.1,22.5,129.2c-3.5,4.4-10.4-0.1-7.9-5c19.6-37,5.6-82.1-29.3-103
					c-48.1-31.1-123.9-16.8-150.2,35.5c-28.7,60.6,31.4,112.2,90.2,114.4C1662.3,3023.1,1662.7,3033.4,1655.8,3034.3L1655.8,3034.3z
					"/>
			</g>
			<g>
				<path class="st1" d="M1788.7,2871.2c50.2,58.3,28.2,143.9-32.3,186c-57.2,41.3-139.3,45.3-199.4,8
					c-39.6-23.5-68.7-68.5-65.5-115c0.2-2.6,2.4-4.6,5-4.4c2.3,0.1,4.1,1.9,4.4,4.1c11.5,84.4,108.2,126,184.4,105.8
					c56.3-12.8,108.6-59.7,108.9-120.2c0.4-19.6-5.1-39.4-15-57.6C1775.9,2871.9,1784.2,2866,1788.7,2871.2L1788.7,2871.2z"/>
			</g>
			<g>
				<path class="st1" d="M1542.8,3465.8c-7.6,30.9-19.7,60.6-36.4,87.5c-16.8,26.8-37.5,51.2-61.7,71.5c-2.9,2.7-6.1,5-9.2,7.4
					l-9.5,7.1l-9.8,6.5c-3.3,2.2-6.6,4.3-10.1,6.2l-10.3,5.7c-3.4,2-7.1,3.5-10.6,5.2c-1.8,0.9-3.6,1.8-5.5,2.6
					c-11.7-2.2-23.3-4.5-34.8-6.9c0.4-0.2,0.8-0.3,1.2-0.5c3.4-1.4,6.8-2.6,10-4.3l9.8-4.7c3.3-1.5,6.4-3.5,9.5-5.2
					c3.1-1.8,6.4-3.4,9.4-5.5l9.1-6c3.1-1.9,5.9-4.1,8.8-6.3l8.7-6.4l8.2-7c2.7-2.4,5.6-4.6,8.1-7.2c20.9-19.8,39-42.4,53.3-67.3
					c14.3-24.9,25.2-51.7,31.5-79.5c6.5-27.7,8.8-56.5,5.9-84.7c-2.5-28.2-10.2-55.9-22.7-81.3c-6.2-12.7-13.8-24.7-22.6-35.8
					c-8.7-11.2-18.7-21.4-29.8-30.4c-22-18.2-48.3-31.5-76.6-39.1l0,0c-3.1-0.8-4.9-4-4.1-7.1c0.8-2.9,3.5-4.6,6.3-4.3
					c7.7,0.9,15.4,2.3,23.1,4c7.6,1.9,15.1,4.2,22.5,7c14.7,5.7,28.8,13,42,22c13.1,9.1,25.1,19.7,35.9,31.6
					c10.7,11.9,20,25.1,27.8,39.1c15.8,28,25,59.3,28.8,91C1552.3,3402.6,1550.3,3434.9,1542.8,3465.8z"/>
			</g>
			<g>
				
					<ellipse transform="matrix(0.1745 -0.9847 0.9847 0.1745 -2302.1536 4111.6255)" class="st3" cx="1301.1" cy="3428.8" rx="181.7" ry="150.6"/>
			</g>
			<g>
				<path class="st2" d="M1295.6,3584.1c53.6,0.6,108.1-35.8,136.1-97.1c37.2-81.6,13.4-176.4-53.3-211.7c-9.4-5-19.2-8.5-29.1-10.7
					c-39.3,16-74.6,49.7-96,96.5C1215.5,3444,1234.8,3539.2,1295.6,3584.1z"/>
			</g>
			<g>
				<path class="st1" d="M1154.2,3362.3c26.8-67.1,98.7-118.9,173.1-111.5c81.9,6.5,136.8,81.8,134.5,160.7
					c-0.9,35.2-11.2,69.9-29.3,99.9c-38.9,65.4-120.7,109.4-196.2,85.8c-17.7-5.6-34.2-14.6-48-26.6c-13.9-11.9-24.8-26.7-32.6-42.6
					c-1.4-2.9-0.2-6.4,2.7-7.8c2.6-1.3,5.7-0.4,7.4,1.9c24.6,36,67.7,57.5,111,53.7c81.6-6,146-85.7,146-164.7
					c1.6-80.5-63.7-141.8-144.2-124.3c-46.8,9.7-85.8,41.3-111.5,82.2C1162.6,3376.4,1150.9,3370.4,1154.2,3362.3L1154.2,3362.3z"/>
			</g>
			<g>
				<path class="st1" d="M2509.1,3388.6c15,72.2-4.6,151.8-50.7,209.8c-125.4,159.5-376.8,129.3-482.5-35.6
					c-19.8-30.9-34-65.1-40.7-100.4c-0.7-3.8,1.8-7.5,5.6-8.2c3.4-0.7,6.7,1.3,7.9,4.4c12.8,31.8,29.7,61.2,50.9,86.9
					c132,162.3,398.9,150.6,476-56.8c11.2-30.9,16.3-64.3,16.2-98.2C2491.7,3380,2506.9,3378.3,2509.1,3388.6L2509.1,3388.6z"/>
			</g>
			<g>
				
					<ellipse transform="matrix(0.9626 -0.2709 0.2709 0.9626 -838.7598 727.9113)" class="st3" cx="2217.4" cy="3402.2" rx="190.2" ry="173.4"/>
			</g>
			<g>
				<path class="st2" d="M2051.8,3453.1c17.1,62.9,73.7,113.2,147.7,123.4c98.5,13.5,190.6-49.2,205.8-140.2
					c2.2-12.8,2.6-25.6,1.6-38c-30-40.1-77.2-69-133.6-76.8C2173.1,3307.9,2079,3365.5,2051.8,3453.1z"/>
			</g>
			<g>
				<path class="st1" d="M2239.3,3206.4c85.4,7.7,161.5,78.2,176.7,163.2c19.1,90.5-36.2,185.1-124.2,213.2
					c-131.7,44.7-278-59-274.7-198.7c0.8-21.5,4.8-42.7,12.9-62.4c7.9-19.7,19.6-37.6,34-52.5c2.7-2.8,7.2-2.9,9.9-0.2
					c2.5,2.4,2.8,6.3,0.9,9.1c-91.9,136.7,49.6,310,201.8,260.3c88.4-30,123.8-130.7,83.3-212.7c-23.7-50.2-69.4-87-123.7-102.2
					C2226,3220.7,2228.8,3205.5,2239.3,3206.4L2239.3,3206.4z"/>
			</g>
			<g>
				<g>
					
						<ellipse transform="matrix(0.1606 -0.987 0.987 0.1606 -830.9255 4630.0718)" class="st3" cx="2306.7" cy="2803.6" rx="174.6" ry="240.3"/>
				</g>
				<g>
					
						<ellipse transform="matrix(0.1606 -0.987 0.987 0.1606 -830.9255 4630.0718)" class="st3" cx="2306.7" cy="2803.6" rx="174.6" ry="240.3"/>
				</g>
				<g>
					
						<ellipse transform="matrix(0.1606 -0.987 0.987 0.1606 -876.0098 4657.311)" class="st2" cx="2300.2" cy="2843.7" rx="133" ry="183.1"/>
				</g>
				<g>
					<path class="st1" d="M2138.4,2667.9c-77.2,57.6-70.1,149.6-4.3,213.2c59.8,58.5,148.6,87.2,231.5,81.3
						c79.1-4.3,168.4-54.4,161-142.8c-9.8-86.7-89.5-146.1-167.2-175c-6.8-2.5-3.7-12.8,3.4-11.2c89,20.5,182.1,85.7,196,182.7
						c11.2,79.7-47.3,146.1-119.5,170.2c-67.9,24.2-143.9,19.5-210.8-4.4c-67-24.4-129.5-70.4-159.4-137
						c-32.3-71.2-7-151,61.5-189.1C2138.4,2651.3,2145.6,2662.4,2138.4,2667.9L2138.4,2667.9z"/>
				</g>
				<g>
					<path class="st1" d="M2603.6,2887.3c17.8-68-14.4-134.5-61.7-182.3c-71.8-73-174.3-112.3-275.9-116.8
						c-99.1-4.3-215.2,30.2-257.8,128.1c-2.7,6.4-12.8,3.2-11.1-3.7c9-36.1,31.3-68.9,59.8-93.5c144.9-118.9,391-73.2,509.8,63
						c43.4,48.5,74.1,116.9,59,183c-2.1,9.2-5,18.2-8.5,26.9c-1.5,3.7-5.8,5.5-9.5,4C2604.5,2894.4,2602.7,2890.7,2603.6,2887.3
						L2603.6,2887.3z"/>
				</g>
			</g>
			<g>
				<path class="st2" d="M3002.5,3640.1c-71.2,16.5-145.7,31.1-223.1,43.5c-2.5,0.4-5.1,0.8-7.6,1.2c0.6-3,1.3-6,2-9.1
					c23.5-101.1,86-185.5,144.2-197.9c4.3-0.9,8.6-1.5,12.9-1.6C2986.7,3474.8,3016.1,3545.9,3002.5,3640.1z"/>
			</g>
			<g>
				<path class="st1" d="M3056.4,3517.6c-1.4,0.7-3,0.7-4.4,0.2c-1.3-0.4-2.4-1.3-3.1-2.4l0-0.1c-10.3-17-24.2-31.5-40.8-40.3
					c-16.6-8.9-35.8-11.6-54.2-8.8c-12.4,1.8-24.4,5.8-35.9,11.5c-5.7,2.8-11.2,6-16.6,9.5c-16.2,10.6-31,23.6-44,38.3
					c-26.2,29.4-46.6,64.2-60.8,101.2c-7.3,18.4-12.9,37.5-17.1,56.8c-2.5,0.4-5.1,0.8-7.6,1.2c-0.1,0-0.2,0-0.4,0.1
					c-8.2,1.3-16.5,2.6-24.8,3.8c4.6-25.1,12-49.7,21.4-73.2c8.1-20,17.9-39.3,29.4-57.5c11.4-18.3,24.6-35.6,39.7-51.2
					c7.5-7.8,15.5-15.2,24.1-22.1c8.5-6.8,17.4-13.3,27-18.8c19.1-11,40.5-19.2,63.2-21.2c22.6-2,46.3,3.1,65.4,15.4
					c9.5,6.2,17.9,13.7,25,22.2c7,8.6,12.7,18,17.3,27.7C3060.5,3512.7,3059.3,3516.2,3056.4,3517.6z"/>
			</g>
			<g class="st5">
				<path class="st0" d="M2694.3,2888.4c5.2,127.4,213.5,231.9,294.3,563c34.3,140.5,148.9-19.9,36.2-283.4
					C2920.4,2923.9,2690.6,2798.6,2694.3,2888.4z"/>
			</g>
			<g>
				<path class="st1" d="M1077.3,3608.8c-9.4,0-17.2-7.5-17.5-17c-1.9-73,3.7-146.5,16.8-218.3c20.9-115.1,60.6-225.7,117.8-328.7
					c88.2-158.8,215.8-293.1,368.9-388.5c24-15,48.8-29.1,73.6-42c133.8-69.4,284.1-110.6,434.6-119.1l1.9-0.1
					c0.8-0.1,1.7-0.1,2.5-0.1c9.8-0.6,19-0.9,27.6-1.1c17.8-0.5,36.5-0.5,55.4-0.1c128.9,3.3,254.8,29.5,374,78.1
					c40.3,16.3,80.2,35.4,118.6,56.7c7.5,4.2,16.2,9.1,24.9,14.3c4.8,2.8,9.8,5.8,14.7,8.9c162.2,99.2,295.3,240.2,384.7,407.7
					c87.2,163.3,131,347.3,126.6,532.2c-0.2,9.7-8.4,17.5-17.9,17.1c-9.7-0.2-17.3-8.3-17.1-17.9c8.8-368.8-180.7-717.2-494.7-909.3
					c-4.8-3-9.4-5.8-14.1-8.5c-8.4-5.1-16.9-9.8-24.1-13.9c-37-20.6-75.6-39-114.7-54.8c-115.4-47-237-72.4-361.7-75.5
					c-18.3-0.4-36.3-0.4-53.7,0.1c-8.4,0.2-17.1,0.5-27,1.1l-1.9,0.1c-0.8,0.1-1.7,0.1-2.5,0.1c-145.1,8.2-290.5,48-420,115.2
					c-24,12.4-47.9,26.1-71.1,40.6c-148.1,92.2-271.5,222.2-356.9,375.8c-55.4,99.7-93.7,206.7-114,318
					c-12.6,69.5-18.1,140.5-16.2,211.1c0.3,9.7-7.4,17.7-17,18C1077.6,3608.8,1077.5,3608.8,1077.3,3608.8z"/>
			</g>
		</g>
		<g>
			<g>
				<path class="st0" d="M2126.9,1269.5l-3.7,99.2l-1.9,50.6l-33,871.8c0,0,59.6-1.1,139.3-9c15.6-1.6,32-3.4,48.8-5.5
					c125.6-15.6,277.6-48.1,333.4-114.8c83.5-99.8,81.8-573.1-2.1-757.9c-38.4-84.7-220.1-116-348.8-127.5
					c-14.4-1.3-28.1-2.4-40.9-3.2C2164.1,1269.6,2126.9,1269.5,2126.9,1269.5z"/>
			</g>
			<g>
				<path class="st6" d="M2123.1,1368.8l-1.9,50.6l-26.2,692.2l-6.8,179.6c0,0,1.2,0,3.6-0.1c0.7,0,1.5-0.1,2.3-0.1
					c0.7,0,1.4-0.1,2.2-0.1c0.6,0,1.2,0,1.7,0c0.2,0,0.5,0,0.7,0c1.1,0,2.3-0.1,3.5-0.1c0.3,0,0.5,0,0.8,0c1,0,2.1-0.1,3.3-0.1
					c1.6,0,3.2-0.1,4.9-0.2c1.2-0.1,2.5-0.1,3.8-0.2c1.3-0.1,2.7-0.1,4.1-0.2c1.7-0.1,3.6-0.2,5.4-0.2c3.8-0.2,7.8-0.4,12.1-0.7
					c3.7-0.2,7.7-0.4,11.8-0.7c4.7-0.3,9.7-0.6,14.8-1c19-1.3,40.8-3,64.3-5.4c4.6-0.5,9.2-0.9,13.9-1.4c3.3-0.3,6.6-0.7,10-1.1
					c8.1-0.9,16.5-1.9,24.9-2.9c125.6-15.6,277.6-48.1,333.4-114.8c68.8-82.2,79.8-417.6,34.7-636.7c13,191.4-6,397.1-57.8,459
					c-25.6,30.6-68.9-91.4-67.9-152.9c2.6-158.4-88.2-345.2-235.6-464.6C2279.3,1363.5,2194.1,1375.4,2123.1,1368.8z"/>
			</g>
			<g>
				<path class="st1" d="M2071.9,2307.1l39.9-1053.3l15.1,0c17.6,0,430.8,1.9,495.1,143.5c87.3,192.3,87.2,670-0.2,774.5
					c-105,125.5-515.9,134.6-533.3,135L2071.9,2307.1z M2142,1285.4l-37.5,989.6c78.1-3.1,408.5-21.9,493.3-123.2
					c35.8-42.8,58.6-175,58.1-337c-0.5-165.8-24.4-320.7-62.4-404.4C2548.8,1312.1,2265.7,1287.3,2142,1285.4z"/>
			</g>
			<g>
				<path class="st0" d="M2699.2,1784.4c-26.5-20.4-194.8-15.2-194.8-15.2c-18.6,2.1-33.3,16.5-35.9,35
					c-9.6,67.7-23.5,224.9,43.8,274.1c55.9,40.8,131.8,19.9,172.2-20.9c31.6-31.8,37.1-89.7,36.9-147.4
					C2721.3,1847.5,2719.9,1800.3,2699.2,1784.4z"/>
			</g>
			<g>
				<path class="st0" d="M2721.5,1910c0.1,29.7-1.3,59.5-7.1,85.8c-5.3,24.7-14.5,46.2-29.8,61.6c-40.5,40.8-116.3,61.7-172.2,20.9
					c-52.8-38.6-55.6-143.7-49.8-219.8c0-0.1,0-0.1,0-0.1c1.6-20.9,3.9-39.6,5.9-54.1c2.6-18.5,17.4-32.9,35.9-34.9
					c0,0,168.2-5.2,194.8,15.2C2719.9,1800.3,2721.3,1847.5,2721.5,1910z"/>
			</g>
			<g>
				<path class="st6" d="M2714.4,1995.8c-5.3,24.7-14.5,46.2-29.8,61.6c-40.5,40.8-116.3,61.7-172.2,20.9
					c-52.8-38.6-55.6-143.7-49.8-219.8c0.5,3.1,11.4,81.7,36.6,74.7c19.9-5.4,30.3-46.4,31-48.9c0.7,5.1,21,160.3,105.2,149.2
					C2673.2,2028.5,2698.1,2013.3,2714.4,1995.8z"/>
			</g>
			<g>
				<path class="st1" d="M2581.5,2115.9c-27.2,0-54.5-7.5-78.4-25c-71.7-52.4-62.2-203.5-50.1-288.9c3.6-25.5,24-45.4,49.7-48.4
					l1.3-0.1c40.8-1.2,176.1-3.6,204.8,18.4l0,0c26.1,20,28.2,67.6,28.4,137.9c0.2,57.6-4.6,121.4-41.4,158.5
					C2667.4,2097,2624.6,2115.9,2581.5,2115.9z M2505.6,1784.9c-11.2,1.5-20,10.3-21.6,21.5c-7,49.3-24.8,213.7,37.6,259.2
					c48.1,35.2,115,17.8,151.8-19.3c28.9-29.2,32.5-88.2,32.3-136.3c-0.1-42.6-0.3-101-16.1-113.1l0,0
					C2676.5,1786.8,2584,1782.5,2505.6,1784.9z"/>
			</g>
			<g>
				<path class="st1" d="M2638.4,2103.1c-30.1,6-59.2-12.4-76.6-35c-39.5-53.6-39.9-121.9-37.1-184.9c1.1-12.9,2.3-25.1,6.1-37.8
					c0.7-2.2,3-3.4,5.2-2.7c2.2,0.7,3.4,3.1,2.7,5.3c-2.5,11.2-3,24-3.2,35.7c1.3,57.8,5.7,124.3,43.9,169.8
					c12.6,14.7,34.1,27.6,52.5,22.7C2650.6,2071.4,2657.2,2098.9,2638.4,2103.1L2638.4,2103.1z"/>
			</g>
			<g>
				<path class="st1" d="M2348,1384.8c84.8-10.4,170.1-20.6,255.6-9c20.9,4.1,15.1,34.7-6,30.8c-60.1-12.5-123.7-11.1-185.2-9.3
					c-20.9,0.8-41.9,2-62.7,3.6C2339.6,1401.5,2337.8,1386.3,2348,1384.8L2348,1384.8z"/>
			</g>
		</g>
		<g>
			<path class="st7" d="M2373,1378.2c-76.5,64.5-189.3,105.2-315,105.2c-75.1,0-145.6-14.5-206.5-40l50.4-121.4
				c268.8-475.5,338.8-65.5,338.8-65.5S2309.5,1291.4,2373,1378.2z"/>
		</g>
		<g>
			<path class="st0" d="M1360.2,1645c0,0,85.4,204.8,267.3,202.1c186.7-2.8,282.8-202.1,282.8-202.1s71-266.2,21.1-270.7
				c-123.7-11.2-231.6,134.1-292.8,142.1c-17.8-7.6-115.8-90-165.5-116.6c-15.2-8.1-149.6-15.8-178.5,60.4
				C1278,1504.1,1360.2,1645,1360.2,1645z"/>
		</g>
		<g>
			<path class="st0" d="M1943.4,1486.7c-10.8,74.4-33.2,158.3-33.2,158.3s-96.2,199.3-282.8,202.1c-181.9,2.8-267.3-202-267.3-202
				s-82.2-140.9-65.5-184.9c28.9-76.1,163.3-68.5,178.5-60.4c49.6,26.6,147.6,109.1,165.5,116.6c37.6-4.9,92.8-61.7,158.6-102.1
				c41.2-25.3,86.5-44.2,134.2-39.9C1953.2,1376.3,1951.9,1428.6,1943.4,1486.7z"/>
		</g>
		<g>
			<path class="st0" d="M1943.4,1486.7c-10.8,74.4-33.1,158.3-33.1,158.3s-10.8,22.3-32.1,52.1c-42.4,59.3-126.5,148.1-250.7,150
				c-181.9,2.8-267.3-202.1-267.3-202.1s-49.8-85.4-64-144c-4-16.7-5.2-31.2-1.5-41c28.9-76.1,163.3-68.5,178.5-60.4
				c49.6,26.6,147.6,109.1,165.4,116.6c37.6-4.9,92.9-61.7,158.6-102.1c41.2-25.3,86.5-44.2,134.2-39.9
				C1953.2,1376.3,1951.9,1428.6,1943.4,1486.7z"/>
		</g>
		<g>
			<path class="st7" d="M1878.2,1697.1c-42.4,59.3-126.5,148.1-250.7,150c-181.9,2.8-267.3-202.1-267.3-202.1s-49.8-85.4-64-144
				c46.4-42.8,95.9-81.4,121.7-79.6c56.9,4,27.2,285.9,177.9,321c150.7,35.2,194.9-189.4,227.6-218.5
				C1837.9,1511,1859.2,1597.5,1878.2,1697.1z"/>
		</g>
		<g>
			<path class="st7" d="M1943.4,1486.7c-54.9-16.2-104.5-41-146.2-72.4c41.2-25.3,86.5-44.2,134.2-39.9
				C1953.2,1376.3,1951.9,1428.6,1943.4,1486.7z"/>
		</g>
		<g>
			<path class="st7" d="M2427.3,1381.8c-39.6,38.6-89.6,70.3-146.7,92.2l-38.3-159.2C2242.3,1314.8,2333.2,1303.1,2427.3,1381.8z"/>
		</g>
		<g>
			<path class="st7" d="M2394.6,1410.3c-77.6,60.4-183.9,97.7-301.2,97.7c-90.5,0-174.4-22.2-243.7-60l52.3-126
				c268.8-475.5,338.8-65.5,338.8-65.5S2326.3,1299.9,2394.6,1410.3z"/>
		</g>
		<g>
			<path class="st1" d="M1623.7,1862.8c-183,0-270-193.1-277.6-210.7c-15.4-26.6-84.3-149.5-66.1-197.5c10.6-28,33.4-48.7,67.8-61.6
				c50.5-18.9,116.2-15.9,132.7-7.1c29.7,15.9,75.1,50.4,111.6,78c18.8,14.2,39.7,30.1,48.9,35.9c18.9-5,46.4-25.8,75.3-47.8
				c59.3-45,133.1-101,216.3-93.4c6.1,0.5,14.7,3.2,21.5,12.9c30.3,43.3-14.4,223.3-28.9,277.4c-0.3,1-0.6,1.9-1,2.8
				c-4.1,8.5-102.6,208.1-296.7,211C1626.4,1862.8,1625,1862.8,1623.7,1862.8z M1374.7,1639c1.1,2.5,82.8,192.4,249.2,192.4
				c1.1,0,2.2,0,3.3,0c167.4-2.5,259.9-175.5,268.3-192c2.5-9.6,16.2-62.7,26.4-118.5c19.2-105.1,9.3-127.5,6.9-131.1
				c-70.7-5.7-138.7,45.8-193.4,87.3c-36.3,27.5-67.6,51.3-94.8,54.8c-2.8,0.4-5.6,0-8.2-1.1c-8.9-3.8-26.5-17-59.3-41.8
				c-35.6-27-79.9-60.6-107.5-75.4c-8.3-3.3-68.3-8.3-113.7,11.5c-21.8,9.5-36.1,23.2-42.7,40.6c-9.7,25.5,31.9,115.6,64.4,171.4
				C1374.1,1637.7,1374.4,1638.4,1374.7,1639z"/>
		</g>
		<g>
			<path class="st1" d="M1595.7,1860c-7.2,0-13.6-4.9-15.3-12.2c-1.9-8.4,3.3-16.9,11.8-18.8c36.1-8.3,60.9-34.6,73.6-78.2
				c23-78.8-2.2-186.7-38.4-223.4c-6.1-6.2-6-16.1,0.2-22.2c6.2-6.1,16.1-6,22.2,0.2c42.9,43.6,72.5,164.1,46.2,254.2
				c-15.9,54.6-49.4,89.1-96.7,100C1598,1859.8,1596.8,1860,1595.7,1860z"/>
		</g>
		<g>
			<path class="st0" d="M2297.8,1812.8c0,0-121,188.9-152.2,278.5c-41.7,119.8,4.6,448.5-27.5,508.7c-14,26.2-39.8,50.8-173.7,50.8
				c-101.5,0-170.7,0.1-172.9-69.7c-1.6-52,66.5-75.7,66.5-75.7l-76.5-569.3"/>
		</g>
		<g>
			<path class="st0" d="M2145.6,2091.2c-41.8,119.8,4.6,448.5-27.5,508.7c-14,26.2-39.8,50.9-173.7,50.9
				c-101.5,0-170.7,0.1-172.9-69.8c-0.1-1.6,0-3.1,0.1-4.7c2.4-48.7,66.4-71,66.4-71l-55.3-412l-21.2-157.4l536.3-123.2
				C2297.8,1812.7,2176.8,2001.7,2145.6,2091.2z"/>
		</g>
		<g>
			<path class="st7" d="M2145.6,2091.2c-41.8,119.8,4.6,448.5-27.5,508.7c-14,26.2-39.8,50.9-173.7,50.9
				c-101.5,0-170.7,0.1-172.9-69.8c-0.1-1.6,0-3.1,0.1-4.7c15.3,12,51.6,30.4,130.3,30.9c117.6,0.8,182.7-10.4,194.1-76.6
				c11.4-66.2,5.7-179.3-32.4-243.8c-38.7-65.4-187.7-50.7-280.9-193.6l-21.2-157.4l536.3-123.2
				C2297.8,1812.7,2176.8,2001.7,2145.6,2091.2z"/>
		</g>
		<g>
			<path class="st1" d="M2311,1821.2c-53.9,87.6-110.3,175.5-149,271c-11.5,31.2-14.3,64.2-16.9,98.1c-5.1,82.9-1,165.7,0.4,249.1
				c1.6,171.1,9.9,222.8-183.7,226.9c-28.5,0.3-56,0.4-84.5-0.8c-58.5-2.1-122.2-15-121.4-87.8c0.3-35,27.5-62,55.6-77.3
				c7.2-3.9,13.4-7,21.4-9.9l-10.4,16.9l-76.5-569.3c-2.2-20.3,27.5-24.9,31.1-4.2l76.5,569.3c1,7.5-3.5,14.5-10.4,16.9
				c-22,8.5-45.3,24.5-52.9,43.5c-3.8,8.7-3.5,18-2.1,27.3c6.6,40.6,57.2,40.6,90.5,43.2c53.8,1.3,110.3,3,163-6
				c69.9-12.2,69.5-43.5,72.3-105.5c2-83.2-3.2-166.3-2.8-250c0.7-57.1,1-113.4,14.5-169.9c7.4-28,20.3-54.3,32.7-80.2
				c37.9-75.3,81.2-147.1,126.1-218.3C2295.8,1787.4,2322,1802.8,2311,1821.2L2311,1821.2z"/>
		</g>
		<g>
			<path class="st1" d="M1997.8,2358.6c-60.4,0-131.9-10.6-193.5-48.8c-5.5-3.4-7.2-10.7-3.8-16.2c3.4-5.5,10.7-7.2,16.2-3.8
				c126.9,78.6,305.9,30.2,307.7,29.7c6.3-1.7,12.7,1.9,14.5,8.2c1.7,6.3-1.9,12.7-8.2,14.5
				C2126.5,2343.4,2070.1,2358.6,1997.8,2358.6z"/>
		</g>
		<g>
			<path class="st0" d="M2474.3,1926.2c-2,18.4-4.4,36.2-7.2,53.4c-38,229.1-351.5,284.5-547.3,187.1L1801,2065
				c-12.9-19.9-23-41.7-29.6-65.5c-3.2-11.7-6-23.6-8.2-35.7c-30.3-164.3,31.3-354.8,65.3-465l73.4-176.8
				c268.8-475.5,338.8-65.5,338.8-65.5s201.2,102.2,232.7,391C2484.2,1745.8,2483.5,1842,2474.3,1926.2z"/>
		</g>
		<g>
			<path class="st7" d="M2394.6,1410.3c-77.6,60.4-183.9,97.7-301.2,97.7c-90.5,0-174.4-22.2-243.7-60l52.3-126
				c268.8-475.5,338.8-65.5,338.8-65.5S2326.3,1299.9,2394.6,1410.3z"/>
		</g>
		<g>
			<path class="st7" d="M2474.3,1926.2c-2,18.4-4.4,36.2-7.2,53.4c-38,229.1-351.5,284.5-547.3,187.1L1801,2065
				c-12.9-19.9-23-41.7-29.6-65.5c-3.2-11.7-6-23.6-8.2-35.7c-12.2-113.8,178.7-135.2,530.6-116.7c31.8,1.7,37.4-78.5,50.8-207.5
				C2476.2,1666.7,2447.8,1919.7,2474.3,1926.2z"/>
		</g>
		<g>
			<path class="st1" d="M1794.4,2069.3c-13.5-13.8-24.2-30.3-32.6-47.7c-2.8-5.9-5.7-11.8-6.6-18.3c-6.6-24.5-10.9-49.4-13.4-74.3
				c-13.6-148.6,28.2-294.9,79.3-432.4c1.5-4.1,6-6.2,10.1-4.6c3.8,1.4,5.8,5.4,4.9,9.3c-34.9,138.6-76.2,280.6-61.7,424.4
				c3.3,35,12.7,68.3,21.6,101.9c3.4,11,7.2,22.2,11.6,33.4C1810.7,2068.7,1800.3,2075.5,1794.4,2069.3L1794.4,2069.3z"/>
		</g>
		<g>
			<path class="st1" d="M1888.3,1314.3c53.5-93.2,197.6-337.9,314.7-193.2c29.2,40,43.5,85.3,53.2,132.8c0,0-8.4-11.3-8.4-11.3
				c4.3,2.2,7.5,4.1,11,6.3c37.3,22.9,70.1,52.4,99.1,85c97.4,109.6,133.5,248,138.6,391.5c4.1,93.1,1.9,187.6-16.8,279.2
				c-40.8,167.6-227.7,234.8-384.2,223.3c-31.5-2.1-62.9-6.5-93.4-15c-30.4-8.5-59.9-21-85.9-39.1c-3.6-2.5-4.5-7.5-2-11
				c2-2.9,5.6-4,8.9-3c57.2,17.9,114.4,33.1,174.2,36.1c139.9,8.6,311.4-50.3,348.6-199.6c17.7-88.3,20.4-179.2,16.8-269.1
				c-4.3-136.8-37.1-267.1-129-372c-28.9-32.7-62.1-62.9-100.1-84.5l-7-3.7l-1.4-7.6c-8.2-41.1-22.3-85.4-47.2-119.1
				c-46.1-63.4-106.5-19.9-148,24.7c-45.5,49.1-81,106.7-114.5,165C1905,1347.5,1878.5,1332.7,1888.3,1314.3L1888.3,1314.3z"/>
		</g>
		<g class="st8">
			
				<ellipse transform="matrix(4.870066e-02 -0.9988 0.9988 4.870066e-02 1163.731 3432.3271)" class="st0" cx="2383.7" cy="1105.2" rx="36.9" ry="32.1"/>
		</g>
		<g>
			<path class="st0" d="M2131,2195.2c0.3,180.3,34.9,348.9,34.9,348.9s-36.4,47.1-0.6,90.4c21.8,26.4,75.4,26.4,75.4,26.4h151.4
				c0,0,41.4-4,57.3-49.7c7.9-22.6,4.9-324.3,14.2-521.9c2.8-60.3,9-90.9,13.8-154.3L2131,2195.2z"/>
		</g>
		<g>
			<path class="st0" d="M2477.4,1935c-4.7,63.4-10.9,94-13.8,154.3c-2.2,46.5-3.7,98.7-4.8,151.7c-3.7,172.4-3.4,353-9.4,370.2
				c-15.9,45.7-57.3,49.7-57.3,49.7h-151.4c0,0-53.6,0-75.4-26.4c-35.8-43.3,0.6-90.4,0.6-90.4s-27.7-135.1-33.8-292.7
				c-0.7-18.5-1.1-37.2-1.2-56.1L2477.4,1935z"/>
		</g>
		<g>
			<path class="st7" d="M2452.5,2578.5c-0.8,17.4-1.8,28.9-3.1,32.6c-15.9,45.7-57.3,49.7-57.3,49.7h-151.4c0,0-53.6,0-75.4-26.4
				c-15.3-18.5-17.4-37.8-14.8-53.7c0.9,1.3,2,2.6,3.1,3.9c23.6,28.6,54.9,35,144.3,35C2387.2,2619.7,2432.2,2610.2,2452.5,2578.5z"
				/>
		</g>
		<g>
			<path class="st7" d="M2420,1978.1c22.2-16.6,53.5,1.2,50.5,28.8c-2.8,25.4-5.3,49.5-6.9,82.4c-1.7,35.2-2.9,73.7-3.9,113.3
				c-0.5,19.4-18.1,33.8-37.2,30.4c-68.2-12.2-152.1-12.4-252.9,9.5c-19.5,4.2-38.1-10.5-38.3-30.4c0-0.2,0-0.4,0-0.6
				c-0.1-10.1,4.5-19.7,12.6-25.8L2420,1978.1z"/>
		</g>
		<g>
			<path class="st1" d="M2138.8,2195.2c10.4,83.4,17,176.9,28.2,260.1c3.9,28.7,8.7,57.6,14.2,85.7c0.9,4.6-0.3,9.1-2.8,12.6
				c-6.3,8.8-11,20.1-12.6,30.8c-5.2,45.1,33.3,59.1,71.8,60.8c6.3,0.2,23.7,0.1,30.3,0.1c26.3,0,97,0,124.2,0l-1.5,0.1l1.4-0.2
				c11.2-2.3,21.8-8.3,29.5-16.7c5.8-6.2,10.9-15.2,13.1-22.9c3.8-30.4,3.2-72.5,4.3-103.8c3.3-149.2,1.3-326.5,13.5-474.1
				c3.3-31.7,7-62.6,9.2-93.8c0.6-8.6,8.1-15.1,16.8-14.5c8.7,0.6,15.2,8.2,14.5,16.9c-2.3,31.8-6.1,63.5-9.3,94.6
				c-12,145.9-10.1,323.8-13.4,471.5c-1.4,33.9-0.3,75.2-4.8,108.8c-0.9,5.1-3.1,10.2-5.2,14.9c-12.1,26.8-38.5,47.7-68.2,50.6
				c-27.5,0-97.6,0-124.2,0c-12.7-0.4-30.5,0.8-43.1-1c-22.9-2.7-48-8.7-66.3-25.4c-18.6-17.8-27.9-45-23.8-70.4
				c2.6-16.7,8.9-31.6,18.7-45.3l-3,12.7c-5.8-29.3-10.3-58.3-14.8-87.5c-8.8-58.3-16-117-16.6-176c-0.5-29.5,0.8-59.1,4-88.5
				C2124.3,2186.1,2137.7,2185.8,2138.8,2195.2L2138.8,2195.2z"/>
		</g>
		<g>
			<path class="st0" d="M2140.4,2363.3c0,0,100.9,46.1,313.8-6"/>
			<path class="st1" d="M2266.6,2394c-85.8,0-128.4-18.8-131.1-20c-5.9-2.7-8.5-9.7-5.8-15.6c2.7-5.9,9.7-8.5,15.6-5.8
				c1.2,0.5,100.9,43.5,306.2-6.7c6.3-1.5,12.7,2.3,14.2,8.6s-2.3,12.7-8.6,14.2C2379,2387.8,2315.7,2394,2266.6,2394z"/>
		</g>
		<g>
			<g>
				<path class="st0" d="M2396.2,2529.9c0,0-90.1-31.6-200,0.8"/>
			</g>
			<g>
				<path class="st1" d="M2393.7,2537.3c-64.1-13.6-130.9-11.5-195.2,1c-9.4,1.9-13.4-11.6-4.4-15c32.4-12.6,67.4-18.7,102.1-18.8
					c35.1,0,69.7,4.8,102.7,18c4,1.6,5.9,6.2,4.3,10.2C2401.6,2536.5,2397.4,2538.3,2393.7,2537.3L2393.7,2537.3z"/>
			</g>
		</g>
		<g>
			<g>
				<path class="st0" d="M1831.4,1808.2c0,0-55,5.2-74-13.8c0,0-72.5,40.4-21.2,105.5c39.4,49.9,145.2,37.5,145.2,37.5"/>
			</g>
			<g>
				<path class="st7" d="M1881.4,1937.4c0,0-105.8,12.4-145.2-37.5c-26.1-33.1-20.1-59.9-7.9-78.1c2.9,7.9,7.6,16.3,14.5,25.1
					c26.8,34.1,84.6,39.1,118.6,38.9L1881.4,1937.4z"/>
			</g>
			<g>
				<path class="st1" d="M1852.9,1954.5c-37.1,0-98.7-6.3-129.1-44.9c-18.1-22.9-24.9-46.1-20.4-69c7.6-38,44.7-59.1,46.3-59.9
					l10.4-5.8l8.4,8.4c9.4,9.4,42.2,11.1,61.4,9.3c8.7-0.8,16.3,5.5,17.1,14.1c0.8,8.6-5.5,16.3-14.1,17.1
					c-9,0.9-49.8,3.8-75.6-10.3c-8.1,6.4-20,18.1-23,33.4c-2.6,13.4,2.2,27.9,14.3,43.2c27.7,35.2,104,34.8,131.1,31.7
					c8.7-1,16.4,5.2,17.4,13.8c1,8.6-5.2,16.4-13.8,17.4C1881.8,1953.1,1869.9,1954.5,1852.9,1954.5z"/>
			</g>
			<g>
				<path class="st0" d="M1839.6,2009.5l322.5,14.3c38.2,1.7,70.8-28.1,72.5-66.4l7.6-171.6c1.5-33.5-21.2-62.6-52.6-70.5
					c-4.4-1.1-9.1-1.8-13.8-2l-322.5-14.3c-38.2-1.7-70.9,28.1-72.5,66.4l-6.1,135.9l-1.6,35.7
					C1771.5,1975.2,1801.4,2007.8,1839.6,2009.5z"/>
			</g>
			<g>
				<path class="st0" d="M1839.6,2009.5l322.5,14.3c38.2,1.7,70.8-28.1,72.5-66.4l7.6-171.6c1.5-33.5-21.2-62.6-52.6-70.5
					c-4.4-1.1-9.1-1.8-13.8-2l-322.5-14.3c-38.2-1.7-70.9,28.1-72.5,66.4l-6.1,135.9l-1.6,35.7
					C1771.5,1975.2,1801.4,2007.8,1839.6,2009.5z"/>
			</g>
			<g>
				<path class="st0" d="M2242.3,1785.8l-3.3,74.5l-4.3,97.1c-1.7,38.2-34.4,68.1-72.5,66.4l-322.5-14.3
					c-38.2-1.7-68.1-34.3-66.4-72.5l1.6-35.7l1.4-31.8l4.6-104.1c1.7-38.2,34.3-68.1,72.5-66.4l322.5,14.3c4.8,0.2,9.4,0.9,13.8,2
					C2221,1723.2,2243.7,1752.4,2242.3,1785.8z"/>
			</g>
			<g>
				<path class="st7" d="M2239,1860.3l-4.3,97.1c-1.7,38.2-34.4,68.1-72.5,66.4l-322.5-14.3c-38.2-1.7-68.1-34.3-66.4-72.5l1.6-35.7
					l1.4-31.8c10,30.6,30.2,69,69.4,79.8c95,26.1,144.6-15.9,169-98.3c0,0,90.9-24.6,106.1-1.4c15.2,23.2,6.5,65,26.6,61.4
					c20.1-3.6,19.6-70.8,19.6-70.8L2239,1860.3z"/>
			</g>
			<g>
				<path class="st1" d="M2168.7,2039.8c-1.2,0-2.4,0-3.7-0.1l-329.8-14.7c-44.9-2-79.9-40.2-77.9-85.1l8-178.9
					c2-44.9,40-79.9,85.1-77.9l329.8,14.7c44.9,2,79.9,40.2,77.9,85.1l-8,178.9c-1,21.7-10.4,41.8-26.5,56.5
					C2208.5,2032.2,2189.1,2039.8,2168.7,2039.8z M2166.4,2008.3c13.2,0.6,26.1-4.1,36.1-13.2c9.9-9.1,15.7-21.4,16.3-34.8l8-178.9
					c1.2-27.7-20.3-51.2-47.9-52.4l-329.8-14.7c-27.4-1.2-51.1,20.3-52.4,47.9l-8,178.9c-1.2,27.7,20.3,51.2,47.9,52.4
					L2166.4,2008.3z"/>
			</g>
			<g>
				<path class="st0" d="M2242.3,1785.8l-1,22.5l-2.1,47.8l-1.1,25.2l-3.4,76.3c-0.4,10.2-3.1,19.8-7.5,28.4c-12,23.6-37,39.2-65,38
					l-82.5-4.9c38.2,1.7,70.8-28.2,72.5-66.4l2.7-61.4l0.8-17.6l4.1-92.7c1.5-33.8-21.7-63.2-53.6-70.7l69.7,3.1
					C2214.1,1715,2244,1747.6,2242.3,1785.8z"/>
			</g>
			<g>
				<path class="st9" d="M2241.3,1808.3l-2.1,47.8l-1.1,25.2l-3.4,76.3c-0.4,10.2-3.1,19.8-7.5,28.4c-12,23.6-37,39.2-65,38
					l-82.5-4.9c38.2,1.7,70.8-28.2,72.5-66.4l2.7-61.4c5.5,3.9,12.2,6.1,17-1.2c9.5-14.3,15.8-78.2,38.4-85.7
					C2217.9,1801.9,2229.3,1804.1,2241.3,1808.3z"/>
			</g>
			<g>
				<path class="st1" d="M2165.3,2039.6c-1.3,0-2.6,0-3.9-0.1l-290.9-14.2l0-0.3c-7.9-1.2-15.5-4.7-15-16l0.7-15.6l16.4,0.6
					c9.6,0.4,138.9,6.2,207.8,9.3c14.3,0.6,28-4.4,38.6-14.1c10.7-9.7,16.9-23,17.5-37.3l7.6-171.7c1.2-25.8-16.3-48.8-41.5-54.8
					l4.3-30.9l69.7,3.1c47,2.1,83.5,42,81.3,88.9l-7.6,171.6c-1,22.7-10.8,43.6-27.7,59C2206.8,2031.7,2186.5,2039.6,2165.3,2039.6z
					 M2145.2,2007.3l17.7,0.9c14.2,0.6,27.9-4.4,38.6-14.1c10.7-9.7,16.9-23,17.5-37.3v0l7.6-171.7c1.3-29.6-21.7-54.8-51.4-56.2
					l-15.6-0.7c10.8,15.1,16.8,33.7,15.9,53.4l-7.6,171.7C2166.9,1973.6,2159,1992.5,2145.2,2007.3z"/>
			</g>
			<g>
				<path class="st10" d="M2028.7,1862.5c-0.2,6.3,6.7,57.9,6.7,57.9s16.2,0.6,36.2,1.4c24.9,1,46.1-24,47.3-55.9
					s-18-58.4-42.9-59.3c-16.8-0.7-36.2-1.4-36.2-1.4S2029.1,1852.1,2028.7,1862.5z"/>
			</g>
			<g>
				<path class="st11" d="M2028.7,1862.5c-0.2,6.3,6.7,57.9,6.7,57.9s16.2,0.6,36.2,1.4c24.9,1,46.1-24,47.3-55.9
					s-18-58.4-42.9-59.3c-16.8-0.7-36.2-1.4-36.2-1.4S2029.1,1852.1,2028.7,1862.5z"/>
			</g>
			<g>
				<path class="st1" d="M2073,1933.6c-0.6,0-1.2,0-1.8,0l-31.8-1.2c-8.3-0.3-15.1-6.5-16.2-14.7c-6.5-48.9-6.3-54-6.2-55.6v0
					c0.3-8.5,5.9-34.7,10.5-55.2c1.8-8,9.2-13.5,17.2-13.2l31.8,1.2c31.4,1.2,55.7,33.3,54.2,71.6
					C2129.2,1903.9,2103.5,1933.6,2073,1933.6z M2045.8,1909.1l26.3,1c18.5,0.8,34.1-19.3,35.1-44.6c1-25.3-13.2-46.4-31.6-47.1
					l-26.4-1c-5.1,23.3-8.5,40.8-8.7,45.5C2040.5,1865.7,2042.1,1881,2045.8,1909.1z M2040.5,1862.9L2040.5,1862.9L2040.5,1862.9z"
					/>
			</g>
			<g>
				
					<ellipse transform="matrix(3.869810e-02 -0.9993 0.9993 3.869810e-02 97.5518 3827.0242)" class="st10" cx="2037.8" cy="1862.8" rx="57.6" ry="45.1"/>
			</g>
			<g>
				<path class="st11" d="M2082.8,1864.6c-1.2,31.8-22.4,56.8-47.3,55.9c-24.9-1-44.1-27.5-42.9-59.4c0.2-4.3,0.7-8.5,1.6-12.5
					c5.6,22.1,21.5,38.3,40.8,39c21.5,0.8,40.3-17.7,45.7-43.3C2082.3,1850.6,2083,1857.5,2082.8,1864.6z"/>
			</g>
			<g>
				<path class="st0" d="M2082.8,1864.6c-0.1,2.2-0.3,4.3-0.6,6.4c-4-25.1-21-44.2-42-45c-23.2-0.9-43.2,20.8-46.8,49.5
					c-0.8-4.6-1-9.4-0.9-14.4c1.2-31.8,22.4-56.8,47.3-55.9C2064.8,1806.2,2084,1832.8,2082.8,1864.6z"/>
			</g>
			<g>
				<path class="st1" d="M2036.9,1932.2c-0.6,0-1.3,0-1.9,0c-15.7-0.6-30.1-8.8-40.3-23c-9.6-13.3-14.5-30.6-13.9-48.6l0,0
					c0.7-18,6.9-34.8,17.6-47.4c11.3-13.4,26.2-20.4,42-19.8c31.4,1.2,55.7,33.3,54.2,71.6c-0.7,18-6.9,34.8-17.6,47.4
					C2066.1,1925.2,2051.9,1932.2,2036.9,1932.2z M2004.3,1861.5c-0.5,12.8,2.8,24.8,9.4,33.9c5.9,8.2,13.8,12.9,22.2,13.2
					c8.4,0.3,16.6-3.8,23.1-11.5c7.2-8.6,11.5-20.3,12-33.1c1-25.3-13.2-46.4-31.6-47.1c-8.3-0.2-16.6,3.8-23.1,11.5
					C2009.1,1837,2004.8,1848.8,2004.3,1861.5L2004.3,1861.5z"/>
			</g>
			<g>
				<path class="st1" d="M1939.9,2024.5c-0.1,0-0.2,0-0.2,0c-6.5-0.1-11.7-5.5-11.5-12l2-97.2c0.2-9.8-4.5-18.9-12.5-24.5
					l-17.2-11.9c-14.9-10.3-23.4-27.3-22.6-45.4l5.4-133c0.3-6.5,5.9-11.5,12.2-11.3c6.5,0.3,11.5,5.7,11.3,12.2l-5.4,133
					c-0.4,10,4.3,19.4,12.5,25.1l17.2,11.9c14.6,10.1,23,26.7,22.6,44.3l-2,97.2C1951.5,2019.4,1946.3,2024.5,1939.9,2024.5z"/>
			</g>
			<g>
				<path class="st0" d="M2481.4,1817.7c0,0-79.5,10.9-239.6,6.5c0,0-48.8,1.5-53.1,50c-4.5,51.5,47.5,68.8,47.5,68.8
					s136.8,25.7,238.1-16.8C2535.9,1900.4,2481.4,1817.7,2481.4,1817.7z"/>
			</g>
			<g>
				<path class="st0" d="M2474.3,1926.2c-101.3,42.5-238,16.8-238,16.8s-47.2-15.7-47.8-61.6c-0.1-2.3,0-4.7,0.3-7.2
					c4.3-48.5,53.1-50,53.1-50c41,1.2,76.7,1.3,107.2,0.8c88.4-1.3,132.4-7.3,132.4-7.3S2535.9,1900.4,2474.3,1926.2z"/>
			</g>
			<g>
				<path class="st7" d="M2474.3,1926.2c-101.3,42.5-238,16.8-238,16.8s-47.2-15.7-47.8-61.6c9.2,9.9,34.9,28.2,97.5,24.1
					c48.7-3.2,61.1-45.4,63-80.5c88.4-1.3,132.4-7.3,132.4-7.3S2535.9,1900.4,2474.3,1926.2z"/>
			</g>
			<g>
				<path class="st1" d="M2330.8,1966.5c-53.4,0-94.3-7.5-97.4-8c-0.7-0.1-1.4-0.3-2.1-0.5c-22.1-7.4-62.6-34.6-58.2-85.1
					c4.4-49.3,46.5-63.7,68.2-64.3c0.3,0,0.6,0,0.9,0c156.5,4.3,236.2-6.2,237-6.3c6-0.8,11.9,1.9,15.2,6.9
					c3.5,5.4,34.2,53.6,22,93.6c-5.2,17.2-17.7,30.3-36.1,38C2432.1,1961,2376.8,1966.5,2330.8,1966.5z M2240.3,1927.8
					c13.5,2.3,137.1,22,227.9-16.1c9.9-4.2,15.7-9.9,18.2-18.2c5.5-18-5.5-44.3-13.4-59.1c-26.4,2.8-102.8,8.9-231.1,5.4
					c-4.8,0.3-34.8,3.4-37.6,35.7C2201.2,1911,2234.1,1925.4,2240.3,1927.8z"/>
			</g>
		</g>
		<g>
			<g>
				<path class="st0" d="M1838.1,2505.3c0,0,76.3,15.3,140.4,10.6"/>
			</g>
			<g>
				<path class="st1" d="M1840.4,2493.8c44.9,9.5,91.7,15.9,137.6,14.3c10-0.3,11,14.6,1,15.6c-36,3.4-71.8,1.6-107.6-2.1
					c-11.9-1.3-23.6-2.8-35.7-4.8c-6.4-1.1-10.8-7.1-9.7-13.5C1827.1,2496.6,1833.8,2492.2,1840.4,2493.8L1840.4,2493.8z"/>
			</g>
		</g>
		<g>
			<g>
				<path class="st0" d="M2242.3,1314.8c0,0,175-22.7,290.9,205.3c22.5,44.2,64.1,155.4,68.3,283.3c4.9,152.7-20.6,317.1-90.8,382.7
					c-35.5,33.2-70.7,24.7-98.7,30c-113.9,45.7-100.1-70.7-100.9-90.1c-18.9-3.4-45.3-11.7-42.1-45.1c3.5-36.9,55.4-75.8,55.4-75.8
					s57.4-162.9-3.8-365.5"/>
			</g>
			<g>
				<path class="st0" d="M2270.1,2074c-0.6,2.3-1,4.6-1.2,6.9c-3.2,33.4,23.2,41.6,42.1,45.1c0.8,19.4-13,135.8,100.9,90.1
					c28-5.3,63.2,3.2,98.8-30c17.6-16.4,32.3-39,44.5-66c0.1-0.2,0.1-0.3,0.2-0.4c0.1-0.2,0.2-0.3,0.2-0.5c0-0.1,0.1-0.1,0.1-0.2
					c36.2-81.1,49.5-201.7,45.8-315.7c-4.2-127.9-45.8-239.1-68.2-283.3c-115.9-228-290.9-205.3-290.9-205.3l78.2,324.8
					c61.2,202.5,3.8,365.5,3.8,365.5S2278.8,2039.3,2270.1,2074z"/>
			</g>
			<g>
				<path class="st0" d="M2555.7,2119.1c0,0.1-0.1,0.1-0.1,0.2c-0.1,0.2-0.1,0.3-0.2,0.5c0,0.1-0.1,0.2-0.2,0.4
					c-12.2,27-26.9,49.6-44.5,66c-35.5,33.2-70.7,24.7-98.7,30c-113.9,45.7-100.1-70.7-100.9-90.1c-18.9-3.4-45.3-11.7-42.1-45.1
					c0.2-2.3,0.6-4.6,1.2-6.9c8.6-34.7,54.3-68.9,54.3-68.9s57.4-162.9-3.9-365.5l-2.2-9.1l-76-315.7c0,0,108.2-14,210.8,90.8
					c27.9,28.5,55.4,65.7,80.1,114.5c22.4,44.2,64.1,155.4,68.2,283.3C2605.2,1917.4,2591.9,2038,2555.7,2119.1z"/>
			</g>
			<g>
				<path class="st7" d="M2427.3,1381.8c-39.6,38.6-89.6,70.3-146.7,92.2l-38.3-159.2C2242.3,1314.8,2333.2,1303.1,2427.3,1381.8z"
					/>
			</g>
			<g>
				<path class="st7" d="M2269,2080.9c-3.2,33.4,23.2,41.6,42.1,45.1c0.8,19.4-13,135.8,100.9,90.1c28-5.3,63.2,3.2,98.8-30
					c17.6-16.4,32.3-39,44.5-66c-3.8,7.8-30.6,58.2-100.7,57c-90.9-1.5-106.8,13.7-117-15.3c-10.2-29,16.3-63.2-12.7-84.8
					c-14.5,16.6-36.7,20.9-54.6-3C2269.6,2076.3,2269.2,2078.6,2269,2080.9z"/>
			</g>
			<g>
				<path class="st1" d="M2240.3,1299.3c105.4-7.3,203.7,58.7,262.8,141.5c30,40.9,53.4,86.3,70,134.1
					c33.8,94.5,48,195.2,44.2,295.3c-3.4,104.3-22.5,295.7-126.6,348.1c-23.4,11.5-52.8,9.9-75.9,13.1
					c-72.5,29.9-123.3-2.4-119.6-94.7c0.1-3.7,0.2-7.8,0.1-10.2l12.9,14.8c-38.3-5.4-63.4-32.5-52.9-72.4
					c9.8-32.2,34.2-55.8,59.6-76.4c0.2-0.2-5.4,7.3-5.3,7.3c0.9-3,1.9-6.8,2.8-10.3c20.9-83.9,24.9-171.7,15.1-257.6
					c-3-30.3-8.7-60.2-14.4-90.4c-1.7-9.2,11.7-13.2,15.1-4.2c11,29.4,20.4,59.5,26.1,90.5c16.5,85.2,14.6,175-7.6,259
					c-2,7.9-4.4,15.4-7.4,23.7c-1.1,3-3,5.4-5.3,7.1c-9.6,7.5-19.6,16.8-27.8,26.1c-12.8,15.1-28.7,36.4-18.1,54.8
					c3.7,5.7,13.9,9.9,26,11.9c7.4,1.2,12.7,7.5,12.9,14.8c-1.8,66,7.5,105.2,82.3,75.3c14.3-2.5,26.8-2.3,38-3.5
					c22.3-1.8,40.5-9.4,55.8-25.6c66.3-70,79.7-208.6,83.1-302.2c3.8-96.3-9.8-193.2-42.4-284c-15.6-44.9-37.7-87.8-65.8-126.1
					c-50.9-70.8-128.6-126.2-217.4-129.3c-5.3-0.3-11.7,0.1-16.5,0.5C2223.3,1332.3,2219.7,1302.1,2240.3,1299.3L2240.3,1299.3z"/>
			</g>
			<g>
				<g>
					<path class="st0" d="M2315,2071.9c0,0,22.4,20.6,1.6,72.9"/>
				</g>
				<g>
					<path class="st1" d="M2319,2067.6c20,13.1,21.5,41.3,13.9,61.6c-3.2,6.4-10.4,25.4-19.7,18.1c-1.4-1.3-2-2.9-2-4.7
						c-0.1-22.3,6.1-44.6-0.1-66.4c0,0,0.4-4.9,0.4-4.9C2311.7,2067.8,2316,2065.6,2319,2067.6L2319,2067.6z"/>
				</g>
			</g>
			<g>
				<path class="st1" d="M2348.4,1821.6c-4.9,0-9.4-3.1-11.1-7.9c-2.1-6.1,1.1-12.8,7.3-15c167.2-57.7,258.9-7.7,262.7-5.5
					c5.7,3.2,7.7,10.4,4.5,16c-3.2,5.7-10.4,7.7-16,4.5c-0.8-0.5-87.1-46.7-243.4,7.3C2351,1821.4,2349.7,1821.6,2348.4,1821.6z"/>
			</g>
		</g>
		<g>
			<g>
				<path class="st0" d="M1560.7,1120.7c43.8,83.2,109,155.9,192.1,209.3c17,10.9,34.6,21,52.9,30.2c8.9,4.5,18.1,8.8,27.4,12.9
					c28.1,12.3,56.7,22.2,85.5,29.7c24.8,6.5,49.9,11.3,74.9,14.4c30.2,3.7,60.5,5,90.5,3.9c10.9-0.4,21.8-1.1,32.7-2.1
					c198.7-18.6,382.2-139.5,469.7-332.2c128.9-283.9,0.6-616-286.6-741.7c-55.3-24.2-112.5-39-169.7-45c-6.7-0.8-13.4-1.3-20.1-1.8
					c-18-1.3-35.9-1.7-53.8-1.3c-41.3,1-82.3,6.4-122,16c-39.7,9.6-78.4,23.3-115.1,41c-11.7,5.6-23.2,11.6-34.5,18
					c-16.9,9.6-33.4,20-49.4,31.4c-79.7,56.3-145.8,133.6-188.7,228.2C1472.4,794.8,1483.4,974,1560.7,1120.7z"/>
				<path class="st1" d="M2063.7,1423.1c-23.6,0-47.2-1.4-70.3-4.3c-25.5-3.1-50.8-8-75.2-14.4c-29.1-7.6-58-17.6-85.8-29.8
					c-10.2-4.5-19.2-8.8-27.5-12.9c-18-9-35.9-19.2-53.1-30.3c-81.2-52.2-147.8-124.8-192.7-209.9
					c-80.9-153.5-86.1-332.4-14.2-490.7c41.5-91.6,107-170.7,189.2-228.8c15.6-11.1,32.2-21.7,49.5-31.5c11.1-6.3,22.8-12.4,34.6-18
					c36.8-17.7,75.7-31.5,115.4-41.1c40.1-9.7,81.3-15.1,122.3-16.1c17.9-0.4,36,0,54,1.3c7.1,0.5,13.9,1.1,20.2,1.8
					c58.4,6.1,115.6,21.3,170.2,45.2c139.8,61.2,246.6,172.7,300.7,313.9c53.7,140.1,48.9,292.7-13.4,429.9
					c-84.5,186.3-265,313.9-471,333.2c-10.9,1-21.9,1.7-32.8,2.1C2077.4,1423,2070.6,1423.1,2063.7,1423.1z M2069.2,298.4
					c-4.3,0-8.6,0-12.9,0.1c-40.8,1-81.8,6.3-121.7,16c-39.6,9.5-78.2,23.2-114.8,40.8c-11.8,5.6-23.3,11.7-34.4,17.9
					c-17.2,9.8-33.8,20.3-49.3,31.3c-81.8,57.8-146.8,136.5-188.2,227.6c-71.5,157.4-66.3,335.2,14.1,487.9
					c44.6,84.6,110.8,156.8,191.6,208.7c17.1,11,34.9,21.1,52.8,30.1c8.2,4.2,17.2,8.4,27.3,12.9c27.6,12.1,56.3,22,85.3,29.6
					c24.3,6.4,49.4,11.2,74.7,14.3c29.6,3.7,60,5,90.3,3.9c10.8-0.4,21.8-1.1,32.6-2.1c204.8-19.1,384.3-146.1,468.4-331.3
					c61.9-136.4,66.6-288.2,13.3-427.5c-53.8-140.4-160-251.3-299-312.2c-54.3-23.7-111.2-38.8-169.3-44.9
					c-6.3-0.7-13.1-1.3-20.1-1.8C2096.5,298.8,2082.8,298.4,2069.2,298.4z"/>
			</g>
			<g>
				<path class="st7" d="M2586.6,1086.8c-87.5,192.8-271,313.7-469.7,332.2c-10.9,1-21.8,1.7-32.7,2.1c-30,1.1-60.3-0.2-90.5-3.9
					c-25-3.1-50.1-7.8-74.9-14.4c-28.9-7.5-57.4-17.4-85.6-29.7c-9.3-4.2-18.4-8.4-27.4-12.9c-18.4-9.2-36-19.3-52.9-30.2
					c-83.1-53.4-148.3-126.1-192.1-209.3c-24.1-45.7-41.8-94.6-52.4-145.2c43.7,78.5,106.6,146.9,185.9,197.9
					c16.9,10.9,34.6,21,52.9,30.2c8.9,4.5,18.1,8.8,27.4,12.9c28.1,12.3,56.7,22.2,85.5,29.7c24.9,6.5,49.9,11.2,74.9,14.4
					c30.2,3.7,60.5,5,90.5,3.9c11-0.4,21.9-1.1,32.7-2.1c198.7-18.5,382.2-139.5,469.7-332.2c51.1-112.4,61.7-232.4,38.2-344.1
					C2649.1,734.8,2662.7,919.2,2586.6,1086.8z"/>
			</g>
			<g>
				<path class="st1" d="M2063.7,1433.7c-24.1,0-48.1-1.5-71.6-4.4c-25.9-3.2-51.7-8.1-76.5-14.7c-29.6-7.7-59-17.9-87.3-30.3
					c-10.4-4.6-19.6-8.9-28-13.2c-18.3-9.2-36.5-19.6-54-30.8c-82.7-53.2-150.6-127.2-196.3-213.9c-82.4-156.5-87.7-338.7-14.4-500
					c42.3-93.3,109-173.9,192.7-233.1c15.8-11.3,32.8-22,50.4-32c11.3-6.4,23.2-12.6,35.2-18.4c37.5-18,77.1-32.1,117.5-41.8
					c40.8-9.9,82.8-15.4,124.6-16.3c18.2-0.4,36.7,0,55,1.3c7.2,0.5,14.1,1.1,20.6,1.8c59.4,6.2,117.7,21.7,173.2,46
					c142.5,62.4,251.3,176,306.4,319.8c54.7,142.7,49.9,298.3-13.6,438c-86.1,189.7-269.9,319.7-479.6,339.3
					c-11.1,1-22.3,1.7-33.4,2.2C2077.7,1433.5,2070.7,1433.7,2063.7,1433.7z M2069.2,308.9c-4.2,0-8.5,0-12.7,0.1
					c-40.1,0.9-80.2,6.2-119.4,15.7c-38.8,9.3-76.8,22.8-112.7,40.1c-11.6,5.5-22.9,11.5-33.8,17.6c-16.9,9.6-33.2,19.9-48.3,30.7
					c-80.3,56.8-144.1,134-184.7,223.3c-70.1,154.4-65.1,328.8,13.8,478.6c43.7,83,108.7,153.8,187.9,204.8
					c16.8,10.8,34.2,20.7,51.8,29.5c8.1,4.1,16.9,8.2,26.9,12.7c27.1,11.8,55.2,21.6,83.7,29c23.8,6.3,48.5,11,73.4,14.1
					c29.1,3.6,58.9,4.9,88.6,3.8c10.6-0.4,21.4-1.1,32-2.1c201.1-18.8,377.2-143.4,459.7-325.2c60.7-133.8,65.4-282.7,13-419.3
					c-52.8-137.7-157-246.5-293.4-306.2c-53.3-23.3-109.1-38.1-166.1-44.1c-6.2-0.7-12.8-1.3-19.7-1.7
					C2096,309.4,2082.5,308.9,2069.2,308.9z"/>
			</g>
			<g>
				<path class="st1" d="M2063.7,1437.2c-24.2,0-48.3-1.5-72-4.4c-26.1-3.2-52-8.2-77-14.8c-29.8-7.8-59.4-18-87.8-30.5
					c-10.5-4.7-19.7-9-28.2-13.3c-18.4-9.3-36.7-19.7-54.3-31c-83.2-53.5-151.5-128-197.5-215.2c-82.9-157.4-88.2-340.8-14.5-503.1
					c42.6-93.8,109.6-174.9,193.9-234.5c15.9-11.3,33-22.2,50.7-32.2c11.4-6.5,23.3-12.7,35.5-18.5c37.7-18.1,77.5-32.3,118.2-42.1
					c41.1-9.9,83.2-15.5,125.3-16.4c18.3-0.4,36.9,0,55.3,1.3c7.2,0.5,14.2,1.1,20.8,1.8c59.7,6.3,118.4,21.8,174.2,46.3
					c143.3,62.8,252.8,177,308.3,321.8c55,143.6,50.2,300.2-13.7,440.8c-86.6,190.9-271.5,321.7-482.5,341.4
					c-11.1,1-22.4,1.7-33.6,2.2C2077.8,1437.1,2070.7,1437.2,2063.7,1437.2z M2069.2,312.5c-4.2,0-8.4,0-12.6,0.1
					c-39.8,0.9-79.7,6.2-118.7,15.6c-38.6,9.3-76.3,22.7-112,39.8c-11.5,5.5-22.8,11.4-33.6,17.5c-16.8,9.5-33,19.8-48,30.5
					c-79.8,56.4-143.2,133.1-183.5,221.9c-69.7,153.4-64.7,326.7,13.7,475.5c43.5,82.5,108,152.8,186.7,203.4
					c16.7,10.7,34,20.6,51.5,29.4c8.1,4.1,16.8,8.2,26.7,12.6c26.9,11.8,54.9,21.5,83.1,28.8c23.7,6.2,48.2,10.9,72.9,14
					c28.9,3.6,58.5,4.9,88,3.8c10.6-0.4,21.3-1.1,31.8-2.1c199.8-18.7,374.8-142.5,456.8-323.1c60.4-132.9,65-280.8,12.9-416.6
					c-52.4-136.9-156-244.9-291.5-304.3c-52.9-23.1-108.5-37.9-165.1-43.8c-6.2-0.7-12.7-1.3-19.5-1.7
					C2095.8,312.9,2082.4,312.5,2069.2,312.5z"/>
			</g>
			<g>
				<path class="st1" d="M1644,1238.7c329.6,234.5,786.8,76.3,818.1-320.6c21.3-270-230.2-497.8-494.4-500
					c-192.3-1.7-381.1,79.7-466.8,373.3c0,0-17.6,135.7,18.1,226.6c35.7,90.9,85.9,173.4,85.9,173.4L1644,1238.7z"/>
			</g>
			<g>
				<path class="st12" d="M2462.1,918.1c-31.3,396.9-488.5,555.1-818.1,320.6l-7.9-9.6c366.2,69.5,736.2-142.7,775.5-543.5
					C2449.3,755.5,2468.6,834.8,2462.1,918.1z"/>
			</g>
			<g>
				<path class="st1" d="M1979.3,1418.3c-20.5,0-41.2-1-61.9-3.1l-1.9-0.3c-29.7-7.7-59.1-17.9-87.4-30.3
					c-10.4-4.6-19.6-8.9-28-13.2c-18.4-9.2-36.6-19.6-54.1-30.8c-82.8-53.2-150.7-127.3-196.4-214l0,0
					c-82.5-156.5-87.7-338.9-14.5-500.3c42.3-93.3,109-174,192.8-233.2l1.1-0.7l1.2-0.5c68.7-29.9,147.9-44.6,236.1-44
					c158.2,1.4,318.9,74.5,429.9,195.5c99.8,109,148.9,243.9,138.2,380c-11.7,148.2-75.1,274.5-183.5,365.1
					C2250.6,1372.4,2117.8,1418.3,1979.3,1418.3z M1920.9,1390.5c153.3,14.9,304.1-29.3,414-121.2
					c103.1-86.2,163.4-206.6,174.6-347.9c10.2-129.1-36.6-257.4-131.7-361.2c-106.3-116.1-260.2-186.1-411.7-187.4
					c-83.8-0.6-159.5,13.2-224.7,41.4c-79.7,56.6-143.1,133.5-183.5,222.4c-70.1,154.3-65,328.6,13.8,478.3l0,0
					c43.7,83,108.7,153.7,187.8,204.6c16.8,10.8,34.2,20.7,51.8,29.5c8.1,4.1,16.9,8.2,26.9,12.7
					C1865,1373.5,1892.8,1383.1,1920.9,1390.5z"/>
			</g>
			<g>
				<path class="st1" d="M1980.4,1360.9c-118.9,0-239.7-38-343.7-112l-1.3-1l-41.1-50.1c-0.5-0.8-51.3-84.4-86.9-175.3
					c-36.4-92.9-19.6-227.1-18.8-232.8l0.4-1.9c74-253.7,233.2-382.3,473.1-382.3c1.9,0,3.9,0,5.8,0
					c141.2,1.2,284.5,66.4,383.4,174.4c89.1,97.2,132.9,217.7,123.3,339.1c-13.9,176.1-111.9,319.2-269,392.5
					C2134.9,1344.6,2058.1,1360.9,1980.4,1360.9z M1652.6,1229.4c164.4,116.3,372.1,139.1,542.5,59.5
					c148.7-69.4,241.5-205,254.6-371.9c9-114.5-32.5-228.2-116.8-320.3c-94.4-103-230.9-165.1-365.2-166.3
					c-230.4-2.1-383.2,120.3-454.4,363.4c-1.4,12-15.1,136.5,17.4,219.5c33.1,84.3,79.5,162.3,84.5,170.7L1652.6,1229.4z"/>
			</g>
			<g>
				<path class="st0" d="M2715.3,896.7c4.8,110.8-57.4,206.8-139.1,214.4c-81.7,7.6-151.8-76-156.6-186.7c0-0.7-0.1-1.4-0.1-2.1
					c-4-109.9,58.1-204.7,139.2-212.3c63.1-5.9,119.3,42.7,143.8,116.1C2709.7,847.6,2714.2,871.5,2715.3,896.7z"/>
			</g>
			<g>
				<path class="st7" d="M2715.3,896.7c4.8,110.8-57.4,206.8-139.1,214.4c-81.7,7.6-151.8-76-156.6-186.7c0-0.7-0.1-1.4-0.1-2.1
					c9.5,10.5,23.9,20.4,42.7,14.9c32.9-9.7,89.3-86.5,89.3-86.5s65.4-11.1,151-24.5C2709.7,847.6,2714.2,871.5,2715.3,896.7z"/>
			</g>
			<g>
				<path class="st1" d="M2565.7,1127.2c-32,0-62.7-12.1-89.3-35.4c-43-37.5-69.4-98.3-72.4-166.9
					c-5.2-118.8,63.6-222.3,153.3-230.7c36.3-3.4,71.3,8.6,101.3,34.8c43,37.5,69.4,98.3,72.4,166.9l0,0
					c5.2,118.8-63.6,222.3-153.3,230.7C2573.6,1127.1,2569.6,1127.2,2565.7,1127.2z M2569,725.1c-3,0-5.9,0.1-8.9,0.4
					c-73.3,6.9-129.4,95.7-124.9,198.1c2.6,59.1,25.6,113.2,61.7,144.6c23.4,20.4,50.3,29.8,77.8,27.2
					c73.3-6.9,129.4-95.7,124.9-198.1l0,0c-2.6-59.1-25.6-113.2-61.7-144.6C2617.1,734.6,2593.4,725.1,2569,725.1z"/>
			</g>
			<g>
				
					<ellipse transform="matrix(1.400003e-02 -0.9999 0.9999 1.400003e-02 1658.9227 3523.8279)" class="st0" cx="2616.2" cy="920.8" rx="164" ry="111.8"/>
			</g>
			<g>
				<path class="st7" d="M2622.8,1084.3c61.7-6.2,108.7-84.5,105.1-174.9c-0.4-9.8-1.4-19.4-2.9-28.6
					c-13.8,62.9-53,110.5-100.9,115.3c-54.1,5.4-101.6-45.6-115.4-118.4c-3.3,17.2-4.8,35.5-4,54.3
					C2508.3,1022.4,2561.2,1090.6,2622.8,1084.3z"/>
			</g>
			<g>
				<path class="st1" d="M2614.9,1100.4c-23.7,0-46.5-9-66.5-26.4c-34.8-30.3-57-83.1-59.3-141.3c-4-100,48.4-183.9,119.2-191.1
					c27.1-2.7,53.3,6.2,76,25.9c34.8,30.3,57,83.1,59.3,141.3v0c4,100-48.4,183.9-119.2,191.1
					C2621.2,1100.3,2618,1100.4,2614.9,1100.4z M2617.6,772.5c-2.1,0-4.1,0.1-6.2,0.3c-52.5,5.3-94.2,78-91,158.6
					c2,49.7,20.1,94.2,48.6,118.9c16,13.9,34.1,20.2,52.3,18.4c52.5-5.3,94.2-78,91-158.6c-2-49.7-20.1-94.2-48.6-118.9
					C2649.5,778.9,2633.7,772.5,2617.6,772.5z"/>
			</g>
			<g class="st13">
				<path class="st0" d="M2102,518.1c0,0-253.6-16-397.8,129.5c-0.2,0.2-0.3,0.3-0.5,0.5c-30.3,30.7-56.7,98.8-67.2,140.3
					c-13.9,54.9-15.4,94.6-15.3,129.7c0.3,106.6,20.7,156.4,20.7,156.4c-61.7-55.9-96.5-119.5-97.7-208.3
					c-0.1-8.8,0.1-17.8,0.7-27.1c0.1-2.1,0.3-4.2,0.5-6.4c0,0,0-0.1,0-0.1c2.4-18.7,6.6-43.2,13.5-70.4
					c21-82.1,67.9-189.3,171.9-239.7C1925.5,428.3,2110.9,506.9,2102,518.1z"/>
			</g>
			<g class="st13">
				
					<ellipse transform="matrix(0.962 -0.2732 0.2732 0.962 -138.3728 655.0765)" class="st0" cx="2283.1" cy="824.4" rx="74.1" ry="85.1"/>
			</g>
			<g class="st13">
				
					<ellipse transform="matrix(0.9324 -0.3614 0.3614 0.9324 -194.7537 905.6868)" class="st0" cx="2324" cy="973.5" rx="30.6" ry="35.2"/>
			</g>
		</g>
		<g>
			<path class="st14" d="M1075.4,1719.4c0,0-120.9,63.1-110.8,222.2c4.7,74,50.1,164.6,74.5,163.6c24.4-1.1-12.1-174.9,80.7-215.6
				C1222.1,1844.8,1075.4,1719.4,1075.4,1719.4z"/>
		</g>
		<g>
			<path class="st15" d="M1119.8,1889.6c-92.8,40.7-56.4,214.6-80.7,215.6c-9.5,0.4-22.1-13-34.3-33.9
				c-19.2-32.9-37.3-84.4-40.1-129.6c-3.2-51.7,7.3-93.3,23.1-125.9c32.7-67.6,87.7-96.3,87.7-96.3S1222.1,1844.8,1119.8,1889.6z"/>
		</g>
		<g class="st16">
			<path class="st1" d="M1119.8,1889.6c-92.8,40.7-56.4,214.6-80.7,215.6c-9.5,0.4-22.1-13-34.3-33.9c11.8,1.3,22-4.8,22.6-29.3
				c1.8-68.1,20.7-107.6,13.1-128.7c-8.1-22.4-35.9-57.4-52.7-97.5c32.7-67.6,87.7-96.3,87.7-96.3S1222.1,1844.8,1119.8,1889.6z"/>
		</g>
		<g>
			<path class="st1" d="M1038.7,2120.9c-42,0-85.5-110.4-89.8-178.3c-10.5-167.3,113.9-234.3,119.2-237.1c5.7-3,12.6-2.2,17.5,2
				c9.7,8.3,94.6,82.8,85.4,144.4c-2.3,15.8-12,37.7-45,52.1c-52.3,22.9-57,101.1-60.1,152.8c-2.3,38-3.8,63.1-26.2,64.1
				C1039.4,2120.9,1039.1,2120.9,1038.7,2120.9z M1039.8,2089.7L1039.8,2089.7L1039.8,2089.7z M1073.6,1738.9
				c-26.6,17.7-101.1,78.7-93.4,201.8c3.9,61.7,34.7,123.9,52.2,143.2c1-8.1,1.7-19.2,2.2-28.9c3.3-55.7,8.9-149.1,78.8-179.7
				c23.9-10.5,25.9-23.6,26.5-27.9C1144.6,1816.6,1104.6,1767.7,1073.6,1738.9z"/>
		</g>
		<g class="st8">
			<path class="st0" d="M995,1961.1c-9.6-18.7-12.2-76,5.2-82.6C1016.8,1872.2,1004.6,1979.9,995,1961.1z"/>
		</g>
		<g>
			<path class="st14" d="M1325.1,1667.4c0,0,136,9.6,190.4,159.4c25.3,69.7,19.8,170.9-2.9,179.7s-58.8-165.2-160.2-165.4
				C1240.7,1840.9,1325.1,1667.4,1325.1,1667.4z"/>
		</g>
		<g>
			<path class="st15" d="M1352.4,1841.1c101.4,0.2,137.4,174.2,160.2,165.4c8.9-3.4,15.1-20.8,17.9-44.8c4.4-37.8,0.5-92.3-15-134.9
				c-17.7-48.7-44-82.6-71.5-106.1c-56.9-48.9-118.9-53.2-118.9-53.2S1240.7,1840.9,1352.4,1841.1z"/>
		</g>
		<g class="st16">
			<path class="st1" d="M1352.4,1841.1c101.4,0.2,137.4,174.2,160.2,165.4c8.9-3.4,15.1-20.8,17.9-44.8c-10.3,6-22.1,4.4-32.4-17.8
				c-28.9-61.7-62-90.4-63.4-112.8c-1.6-23.7,10-66.9,9.4-110.4c-56.9-48.9-118.9-53.2-118.9-53.2S1240.7,1840.9,1352.4,1841.1z"/>
		</g>
		<g>
			<path class="st1" d="M1510,2022.8c-16,0-26.6-20.7-41.4-49.9c-23.5-46.2-59-116-116.2-116.1c-35.9-0.1-53.6-16.2-62-29.8
				c-33-52.8,15.1-155,20.7-166.5c2.8-5.8,8.8-9.2,15.2-8.8c6,0.4,146.8,12.1,204,169.7c23.4,64.5,27.5,184.5-12,199.7
				C1515.3,2022.2,1512.6,2022.8,1510,2022.8z M1516.1,1992.6L1516.1,1992.6L1516.1,1992.6z M1505.7,1992.5L1505.7,1992.5
				L1505.7,1992.5z M1334.5,1684.5c-16.9,38.8-34,99.6-17.5,125.9c2.3,3.7,9.4,15,35.5,15c76.4,0.1,118.8,83.4,144.1,133.2
				c4.4,8.6,9.5,18.6,13.6,25.6c8.3-24.7,11.7-94-9.4-152.1C1458.6,1716.2,1366,1690.1,1334.5,1684.5z"/>
		</g>
		<g class="st8">
			<path class="st0" d="M1495.3,1856.8c1.3-21-19.2-74.5-37.8-73.6C1439.8,1784,1494.1,1877.8,1495.3,1856.8z"/>
		</g>
		<g>
			<path class="st17" d="M1401.3,1931.8c9.1,20.2,3.9,44-12.7,58.7c-20.4,18-55.9,39.5-115.6,52c-59.7,12.4-100.8,6.9-126.7-1.4
				c-21.1-6.8-35.4-26.5-35.1-48.7l2.8-233c0.1-9,6.5-16.7,15.3-18.6l154.9-32.3c8.8-1.8,17.7,2.7,21.4,10.9L1401.3,1931.8z"/>
		</g>
		<g>
			<path class="st17" d="M1388.6,1990.5c-20.4,18-55.9,39.5-115.6,52c-59.7,12.4-100.8,6.9-126.7-1.4c-21.1-6.8-35.4-26.5-35.1-48.7
				l0.4-35.5l2.4-197.5c0.1-9,6.5-16.7,15.3-18.6l154.9-32.3c8.8-1.8,17.8,2.7,21.4,10.9l81.1,180.1l14.6,32.4
				C1410.4,1952,1405.2,1975.8,1388.6,1990.5z"/>
		</g>
		<g>
			<path class="st18" d="M1386.7,1899.4c-2.9,6.9-7.3,13.3-13.2,18.5c-20.4,18-55.9,39.5-115.6,52s-100.8,6.9-126.7-1.4
				c-7.5-2.4-14.1-6.5-19.5-11.7l2.4-197.5c0.1-9,6.5-16.7,15.3-18.6l154.9-32.3c8.8-1.8,17.8,2.7,21.4,10.9L1386.7,1899.4z"/>
		</g>
		<g>
			<path class="st1" d="M1207.4,2065.3c-28.8,0-50.7-4.5-66-9.4c-27.8-9-46.3-34.6-46-63.8l2.8-233c0.2-16.5,11.6-30.4,27.8-33.7
				L1281,1693c16.2-3.4,32.2,4.8,38.9,19.8l95.7,212.5l0,0c12,26.6,5.3,57.5-16.6,76.9c-20.3,17.9-58,42.1-122.8,55.6
				C1250,2063.2,1227.1,2065.3,1207.4,2065.3z M1288.1,1723.7c-0.2,0-0.5,0-0.7,0.1l-154.9,32.3c-1.6,0.3-2.8,1.7-2.8,3.4l-2.8,233
				c-0.2,15.4,9.6,28.8,24.2,33.6c22.1,7.1,60.7,13.1,118.7,1c58-12.1,91-33,108.4-48.4c11.6-10.2,15.1-26.5,8.8-40.4l-95.7-212.5
				C1290.7,1724.4,1289.5,1723.7,1288.1,1723.7z"/>
		</g>
		<g>
			<path class="st1" d="M1195.9,2002.1c-27.8,0-48.8-4.3-63.5-9.1c-10.5-3.4-19.8-9.7-26.9-18.2c-1.2-1.4-1.8-3.2-1.8-5.1l2.5-210.7
				c0.1-12.6,9.2-23.6,21.5-26.2l154.9-32.3c12.4-2.6,25.1,3.9,30.2,15.4l86.5,192.1c0.8,1.7,0.9,3.6,0.4,5.4
				c-3.1,10.6-9.1,20.1-17.4,27.4c-19.6,17.3-56.1,40.6-119.2,53.8C1237.4,2000.1,1215,2002.1,1195.9,2002.1z M1119.3,1967
				c4.9,5.1,11,9,17.8,11.2c23.1,7.4,63,13.7,122.7,1.2c59.7-12.4,93.9-34.2,112-50.2c5.4-4.7,9.4-10.7,11.8-17.3l-85.3-189.3
				c-2.2-4.8-7.5-7.5-12.7-6.5l-154.9,32.3c-5.2,1.1-9,5.7-9,11L1119.3,1967z"/>
		</g>
		<g>
			<path class="st1" d="M1510,2022.8c-16,0-26.6-20.7-41.4-49.9c-23.5-46.2-59-116-116.2-116.1c-35.9-0.1-53.6-16.2-62-29.8
				c-33-52.8,15.1-155,20.7-166.5c2.8-5.8,8.8-9.2,15.2-8.8c6,0.4,146.8,12.1,204,169.7c23.4,64.5,27.5,184.5-12,199.7
				C1515.3,2022.2,1512.6,2022.8,1510,2022.8z M1516.1,1992.6L1516.1,1992.6L1516.1,1992.6z M1505.7,1992.5L1505.7,1992.5
				L1505.7,1992.5z M1334.5,1684.5c-16.9,38.8-34,99.6-17.5,125.9c2.3,3.7,9.4,15,35.5,15c76.4,0.1,118.8,83.4,144.1,133.2
				c4.4,8.6,9.5,18.6,13.6,25.6c8.3-24.7,11.7-94-9.4-152.1C1458.6,1716.2,1366,1690.1,1334.5,1684.5z"/>
		</g>
		<g>
			<path class="st0" d="M975.6,726.4c11.1-12.4,29-16.1,44.2-9.2c161.9,73.8,345.3,271,391.3,563.9c40.7,259.2-2.4,488.8-19.2,562.7
				c-4,17.8-14.7,33.4-29.8,43.6c-22,14.9-59.2,35-111.8,45.9c-52.6,11-94.7,7.4-120.8,2.6c-18-3.4-34-13.4-44.8-28.1
				c-44.9-61-176.2-254.3-242.4-508.1C767.4,1112.7,856.7,858.7,975.6,726.4z"/>
		</g>
		<g>
			<path class="st0" d="M1411.1,1281c24.3,154.5,18.8,298.4,6.8,405.2c0,0,0,0,0,0.1c-8.1,72.3-19.2,127.5-25.9,157.3
				c-4,17.7-14.5,33.3-29.6,43.5c-21.9,14.9-59.3,35.1-112.1,46.1c-52.8,11-95.1,7.4-121.2,2.5c-17.9-3.3-33.7-13.4-44.4-28
				c-18.1-24.7-50.4-70.8-86.7-133.9c0,0-0.1-0.1-0.1-0.1c-53.7-93.1-116.3-222.8-155.7-374.2c-74.8-286.9,14.5-540.9,133.4-673.3
				c11.1-12.4,29-16.1,44.2-9.2C1181.7,790.9,1365,988.1,1411.1,1281z"/>
		</g>
		<g>
			<path class="st0" d="M1428.1,1497.2c0.4,70.3-4.1,134.5-10.2,189.1c0,0,0,0,0,0.1c-8.1,72.3-19.2,127.5-25.9,157.3
				c-4,17.7-14.5,33.3-29.6,43.5c-21.9,14.9-59.3,35.1-112.1,46.1s-95.1,7.4-121.2,2.5c-17.8-3.3-33.7-13.4-44.4-28
				c-18.2-24.6-50.4-70.8-86.7-133.9c0,0,0,0,0,0c-53.7-93.1-116.3-222.9-155.7-374.2c-74.8-286.9,14.5-540.9,133.4-673.3
				c11.1-12.4,29-16.1,44.2-9.2c161.9,73.8,345.3,271,391.3,563.9c3.9,24.6,7,49,9.4,72.9
				C1425.6,1403.6,1427.8,1451.7,1428.1,1497.2z"/>
		</g>
		<g>
			<path class="st7" d="M1428.1,1497.2c-27.9-4.1-71-17.9-91.7-63c-17.9-39.3,50.3-68.5,84.2-80.3
				C1425.6,1403.6,1427.8,1451.7,1428.1,1497.2z"/>
		</g>
		<g>
			<path class="st19" d="M1417.8,1686.3c-8.1,72.3-19.2,127.5-25.9,157.3c-4,17.7-14.5,33.3-29.6,43.5
				c-21.9,14.9-59.3,35.1-112.1,46.1c-52.8,11-95.1,7.4-121.2,2.5c-17.9-3.3-33.7-13.4-44.4-28c-18.1-24.7-50.4-70.8-86.7-133.9
				c2.4,3.6,83.3,125.2,125.6,101.3c49.2-27.8,14.5-125.2,84.8-142.8c71.4-12,78.6,91.2,134.8,97
				C1391.4,1834.3,1417.1,1690.6,1417.8,1686.3z"/>
		</g>
		<g>
			<path class="st1" d="M1181.7,1956.2c-22.3,0-41-2.3-55.2-4.9c-22-4.1-41.3-16.3-54.5-34.2c-51.7-70.3-179.2-261.2-245-513.5
				c-79.9-306.2,23.8-561.8,136.9-687.7v0c15.8-17.6,40.9-22.8,62.4-13c153.9,70.2,351.2,263.1,400.3,575.7
				c40.5,257.6-0.1,483.4-19.4,568.6c-4.9,21.7-17.8,40.6-36.3,53.2c-23.2,15.7-62.3,36.8-117.4,48.3
				C1226.8,1954.2,1202.7,1956.2,1181.7,1956.2z M987.3,736.8L987.3,736.8c-107.9,120.1-206.6,364.7-129.9,658.8
				c66.2,254,200.4,449.1,239.9,502.8c8.5,11.5,20.9,19.3,35,22c24.7,4.6,64.7,7.9,114.8-2.5c50.1-10.4,85.4-29.4,106.2-43.6
				c11.9-8.1,20.2-20.2,23.3-34.1c14.8-65.1,59.8-297.5,19-556.8c-47.2-300.3-235.5-485.1-382.3-552
				C1004.3,727.3,993.8,729.5,987.3,736.8z"/>
		</g>
		<g>
			<path class="st15" d="M1291.9,964.3c-67.9,28.9-145.4,53.3-228.9,70.7c-83.5,17.4-164.3,26-238.1,26.7
				c22.8-141.2,81.9-258.8,150.8-335.5c11.1-12.4,29-15.9,44.1-9C1113.6,759.9,1214.6,844.1,1291.9,964.3z"/>
		</g>
		<g>
			<path class="st1" d="M824.9,1073.4c-3.4,0-6.7-1.5-8.9-4.1c-2.3-2.6-3.2-6.1-2.7-9.5c21.4-132.1,77.4-256.6,153.7-341.5
				c14.6-16.2,37.8-21,57.7-11.9c103.7,47.3,204.7,139,277.1,251.5c1.9,2.9,2.4,6.5,1.3,9.8c-1,3.3-3.4,6-6.6,7.4
				c-70.8,30.2-148.6,54.2-231.1,71.4C982.9,1063.7,902,1072.8,824.9,1073.4C825,1073.4,824.9,1073.4,824.9,1073.4z M1003.8,725.4
				c-7.3,0-14.3,3-19.4,8.6c-70.7,78.6-123.3,193.1-145.6,315.6c71.2-1.6,145.7-10.4,221.7-26.2c76-15.8,147.8-37.5,213.7-64.6
				C1205,855.5,1111.1,771.7,1015,727.9C1011.4,726.2,1007.6,725.4,1003.8,725.4z"/>
		</g>
		<g>
			<path class="st15" d="M1279.5,2073.5c-158.2-251.2-95.6-324.9-68.9-330.5C1237.3,1737.4,1324.1,1780.1,1279.5,2073.5z"/>
		</g>
		<g class="st8">
			<path class="st0" d="M1239.6,1835.7c7.2,34.7,8.9,63.6,3.8,64.7c-5.1,1.1-15.1-26.2-22.3-60.8s-8.9-63.6-3.8-64.7
				C1222.3,1773.8,1232.3,1801.1,1239.6,1835.7z"/>
		</g>
		<g>
			<path class="st1" d="M1279.5,2089.2c-5.3,0-10.4-2.7-13.3-7.3c-114.6-182-116.2-273.1-97.4-317.4c8.4-19.8,22.8-33.5,38.6-36.8
				c15.8-3.3,34.5,3.6,50.1,18.3c35,33.1,69.9,117.2,37.5,329.9c-1,6.5-5.9,11.7-12.3,13C1281.6,2089.1,1280.6,2089.2,1279.5,2089.2
				z M1215.2,1758.3c-0.6,0-1.1,0-1.4,0.1c-2.5,0.5-10.4,4.9-16.1,18.4c-9.7,22.9-20.6,91.5,72.2,250.7
				c21.4-183-15.9-241.5-34-258.7C1226.7,1760.1,1218.8,1758.3,1215.2,1758.3z"/>
		</g>
		<g class="st13">
			<path class="st0" d="M909.3,967.5C904.6,914.3,952.7,777,1000,778C1045,778.8,914.1,1020.8,909.3,967.5z"/>
		</g>
		<g>
			<path class="st15" d="M985.6,1378.9c-10.6,63.5,18.8,129.5,78.3,162.6c63.3,35.3,140.5,22,188.7-27.7l0,0
				c9.3-9.6,17.5-20.6,24.4-32.8c42.1-75.5,15-170.9-60.5-213c-75.6-42.1-170.9-15-213.1,60.5
				C994.3,1344.6,988.4,1361.6,985.6,1378.9z"/>
		</g>
		<g class="st8">
			<path class="st0" d="M1053.8,1534c-54.8-49.3-70.3-131.6-32.9-198.7c34.1-61.3,102.2-91.7,167.6-80.8
				c-69.7-22.6-147.8,6.4-184.8,72.8C963.7,1399.3,986.3,1489.2,1053.8,1534z"/>
		</g>
		<g>
			<path class="st1" d="M1139.8,1573c-27.7,0-55.8-6.8-81.7-21.3l0,0c-81.1-45.2-110.3-148-65.1-229.1
				c45.2-81.1,147.9-110.3,229.1-65.1c39.3,21.9,67.7,57.8,80,101c12.3,43.3,7,88.7-14.9,128C1256.4,1541.9,1198.9,1573,1139.8,1573
				z M1069.5,1531.2c69.8,38.9,158.2,13.8,197-56c18.8-33.8,23.4-72.9,12.8-110.1s-35-68.1-68.8-86.9c-69.8-38.9-158.2-13.8-197,56
				C974.6,1403.9,999.8,1492.3,1069.5,1531.2L1069.5,1531.2z"/>
		</g>
		<g>
			<ellipse class="st10" cx="1142.5" cy="1403.9" rx="110.2" ry="110.2"/>
		</g>
		<g>
			<path class="st10" d="M1238.7,1457.6c-10.9,19.6-26.9,34.5-45.4,44.1c-16.3,8.5-34.5,12.8-52.9,12.4c-10.1-0.2-20.3-1.8-30.2-4.8
				c-7.3-2.2-14.4-5.3-21.3-9.1c-20-11.2-35.2-27.7-44.8-46.7c-15.8-31.5-16.3-70,2.2-103.1c11.1-19.9,27.5-35.1,46.5-44.6
				c26.2-13.3,57.4-15.9,86.3-5.6c5.8,2,11.5,4.6,17.1,7.7c3.5,1.9,6.9,4.1,10.1,6.3c15.4,10.9,27.3,25.3,35.2,41.5
				C1256.7,1386.8,1257,1424.8,1238.7,1457.6z"/>
		</g>
		<g class="st13">
			<path class="st0" d="M1179.1,1300l-68.9,209.2c-7.3-2.2-14.4-5.3-21.3-9.1c-20-11.2-35.2-27.7-44.8-46.7l48.6-147.8
				C1119,1292.4,1150.2,1289.8,1179.1,1300z"/>
		</g>
		<g class="st13">
			<path class="st0" d="M1241.5,1355.5l-48.1,146.1c-16.3,8.5-34.5,12.8-52.9,12.4l65.9-200
				C1221.7,1325,1233.6,1339.3,1241.5,1355.5z"/>
		</g>
		<g>
			<path class="st1" d="M1142.3,1525.8c-20.1,0-40.4-5-59.2-15.4l0,0c-28.4-15.9-49-41.8-57.9-73.2c-8.9-31.3-5.1-64.2,10.8-92.7
				c15.8-28.4,41.8-49,73.2-57.9c31.3-8.9,64.3-5.1,92.7,10.8c28.4,15.9,49,41.8,57.9,73.2c8.9,31.3,5.1,64.3-10.8,92.7
				C1226.7,1503.3,1185.1,1525.8,1142.3,1525.8z M1142.7,1305.5c-9,0-18.1,1.3-27.1,3.8c-25.3,7.2-46.2,23.8-59,46.7
				c-12.8,23-15.9,49.5-8.7,74.8c7.2,25.3,23.8,46.2,46.7,59v0c47.4,26.4,107.4,9.4,133.9-38c12.8-23,15.9-49.5,8.7-74.8
				c-7.2-25.3-23.8-46.3-46.7-59.1C1175.6,1309.7,1159.2,1305.5,1142.7,1305.5z"/>
		</g>
		<g>
			<g>
				<path class="st0" d="M1522.4,1458.3c-4.3-65.1-27.9-146.9-107.1-140c-66.2,5.8-92.9,69.8-71.9,102
					c25.3,38.8,103.1,17.8,103.1,17.8"/>
			</g>
			<g>
				<path class="st1" d="M1510.7,1459.1c-8.9-65.2-34.8-149.3-117.4-118.4c-25.7,9.6-48.7,43.7-37.3,69
					c6.4,12.3,21.2,16.7,35.2,19.1c16.7,2.7,35.5,2.3,53.8,1.8c8.6-0.3,11.3,11.7,3.5,15.2c-23.9,10.5-50.3,15.2-76.4,10.2
					c-82.7-18.8-57.8-122.1,8.2-146.3c105.5-36.6,155.3,55.9,153.8,148C1533.8,1472.1,1512.9,1473.4,1510.7,1459.1L1510.7,1459.1z"
					/>
			</g>
		</g>
		<g>
			<path class="st1" d="M1325.1,2335c-15.1,0-29.5-11.4-37.8-19.5c-9.3,4.9-24.3,10.5-38,6c-7-2.3-16.4-8.1-21.3-23.1
				c-4.9-14.8-1-25.4,3.1-31.7c7.8-11.8,22-17.3,32-19.8c0.4-8.7,2.5-20.8,10-29.9c5.9-7.2,14.3-11.3,24.2-11.9
				c15.3-1,28.5,6.4,36.2,20.1c6.5,11.6,8,26,4.6,38.1c6.9,4.9,15.3,12.8,18.7,24c2.2,7.2,3,18.7-5.5,32
				c-7.7,12.1-17.6,15.1-24.5,15.5C1326.3,2335,1325.7,2335,1325.1,2335z M1298.5,2293.1c6.3,7.7,19.4,18.7,26.9,18.4
				c1-0.1,3.2-0.2,6.1-4.7c4.5-7,3.2-11.2,2.8-12.5c-2.4-7.9-13.2-14-15.9-15.2c-3.2-1.4-5.6-4.2-6.6-7.6c-0.9-3.4-0.3-7,1.7-9.9
				c4.1-5.8,3.8-16.8-0.5-24.6c-3.3-5.8-8-8.6-14.2-8.2c-4.4,0.3-6.3,2-7.5,3.4c-5.2,6.2-5,19.2-4.5,23.3c0.4,3.1-0.6,6.3-2.6,8.8
				c-2,2.5-4.9,4-8.1,4.3c-5,0.5-20.4,3.6-25.4,11.2c-1.2,1.8-2.5,5-0.4,11.4c2.2,6.8,5.3,7.7,6.2,8.1c7.4,2.4,20.7-4.5,26-8.2
				C1287.7,2287.4,1294.6,2288.3,1298.5,2293.1L1298.5,2293.1z M1289.4,2300.5L1289.4,2300.5L1289.4,2300.5z"/>
		</g>
	</g>
</g>
</svg>
