<?xml version="1.0" encoding="utf-8"?>
<!-- Generator: Adobe Illustrator 26.0.0, SVG Export Plug-In . SVG Version: 6.00 Build 0)  -->
<svg version="1.1" id="Layer_1" xmlns="http://www.w3.org/2000/svg" xmlns:xlink="http://www.w3.org/1999/xlink" x="0px" y="0px"
	 viewBox="0 0 4000 4000" style="enable-background:new 0 0 4000 4000;" xml:space="preserve">
<style type="text/css">
	.st0{fill:#FFFFFF;}
	.st1{opacity:0.3;}
	.st2{fill:#000072;}
	.st3{opacity:0.5;}
	.st4{fill:#EA3F24;}
	.st5{clip-path:url(#SVGID_00000069360674646569140530000006610762702525423291_);}
	.st6{fill:#FF7A45;}
	.st7{clip-path:url(#SVGID_00000163045928225708732960000015947571434944894382_);}
	.st8{fill:#232323;}
	.st9{opacity:0.6;}
	.st10{fill:#0086FF;}
	.st11{fill:#61BBFF;}
	.st12{opacity:0.7;}
	.st13{fill:#00B1FF;}
	.st14{fill:#00FF4E;}
	.st15{fill:#FFC524;}
	.st16{fill:#FF8500;}
	.st17{fill:#FFB600;}
</style>
<g>
	<g>
		<g>
			<g>
				<path class="st0" d="M1120,3178.2c-1.2,5.8-14.3,8.4-32.7,7.4c-9.3-0.5-17.9,5.1-21.2,13.8c-6.6,17.3-14.2,28.2-20,26.9
					s-8.4-14.3-7.4-32.7c0.5-9.3-5.1-17.9-13.8-21.2c-17.3-6.6-28.2-14.2-27-20c1.2-5.9,14.3-8.4,32.8-7.4
					c9.3,0.5,17.9-5.1,21.3-13.8c6.6-17.3,14.2-28.2,20-26.9s8.4,14.3,7.4,32.7c-0.5,9.3,5.1,17.9,13.9,21.3
					C1110.4,3164.7,1121.3,3172.3,1120,3178.2z"/>
			</g>
			<g>
				<path class="st0" d="M3368.9,1999.4c0,6-12.2,11.2-30.5,14c-9.2,1.4-16.5,8.7-17.9,17.9c-2.9,18.2-8.1,30.5-14,30.5
					s-11.2-12.2-14-30.5c-1.4-9.2-8.7-16.5-17.9-17.9c-18.3-2.9-30.5-8.1-30.5-14c0-6,12.2-11.2,30.5-14c9.2-1.4,16.5-8.7,17.9-17.9
					c2.9-18.3,8.1-30.5,14-30.5s11.2,12.2,14,30.5c1.4,9.2,8.7,16.5,17.9,17.9C3356.7,1988.2,3368.9,1993.4,3368.9,1999.4z"/>
			</g>
			<g>
				<path class="st0" d="M2809,527.1c0,6.6-13.5,12.4-33.8,15.5c-10.2,1.6-18.3,9.6-19.9,19.9c-3.2,20.2-8.9,33.8-15.5,33.8
					c-6.6,0-12.4-13.5-15.5-33.8c-1.6-10.2-9.6-18.3-19.9-19.9c-20.2-3.2-33.8-8.9-33.8-15.5c0-6.6,13.6-12.4,33.8-15.6
					c10.2-1.6,18.3-9.6,19.9-19.9c3.2-20.2,8.9-33.8,15.5-33.8c6.6,0,12.4,13.5,15.5,33.8c1.6,10.2,9.7,18.3,19.9,19.9
					C2795.5,514.7,2809,520.4,2809,527.1z"/>
			</g>
			<g>
				
					<ellipse transform="matrix(0.9239 -0.3827 0.3827 0.9239 -136.9841 1394.7438)" class="st0" cx="3437.4" cy="1041.7" rx="17.8" ry="17.8"/>
			</g>
			<g>
				<circle class="st0" cx="3606.1" cy="2303.6" r="21.1"/>
			</g>
			<g>
				<circle class="st0" cx="3138.7" cy="2872.3" r="21.1"/>
			</g>
			<g>
				<circle class="st0" cx="2986.5" cy="966.5" r="17.8"/>
			</g>
			<g>
				<ellipse class="st0" cx="611" cy="2932.3" rx="20" ry="20"/>
			</g>
			<g>
				<ellipse class="st0" cx="3150.7" cy="1396.9" rx="9.2" ry="9.2"/>
			</g>
			<g>
				<ellipse class="st0" cx="3212.4" cy="3309" rx="10.9" ry="10.9"/>
			</g>
			<g>
				
					<ellipse transform="matrix(0.7071 -0.7071 0.7071 0.7071 -1537.4757 1698.6996)" class="st0" cx="1281.8" cy="2705.2" rx="10.3" ry="10.3"/>
			</g>
			<g>
				<ellipse class="st0" cx="3482.5" cy="2708.1" rx="10.9" ry="10.9"/>
			</g>
			<g>
				<ellipse class="st0" cx="1235.1" cy="2021.6" rx="22" ry="22"/>
			</g>
			<g>
				<ellipse class="st0" cx="729.6" cy="570.9" rx="24.8" ry="24.8"/>
			</g>
			<g>
				<path class="st0" d="M489.7,850.2c-0.8,7-7.1,12-14.1,11.3c-7-0.8-12-7.1-11.3-14.1s7.1-12,14.1-11.3
					C485.4,836.8,490.4,843.2,489.7,850.2z"/>
			</g>
			<g>
				<path class="st0" d="M868.4,2480.4c-3,5.5-9.9,7.4-15.4,4.4s-7.4-9.9-4.4-15.4c3-5.5,9.9-7.4,15.4-4.4
					C869.5,2468.1,871.4,2475,868.4,2480.4z"/>
			</g>
			<g>
				
					<ellipse transform="matrix(0.7834 -0.6215 0.6215 0.7834 -1232.2361 855.226)" class="st0" cx="610.9" cy="2195.6" rx="20.9" ry="20.9"/>
			</g>
		</g>
		<g>
			<g>
				<g>
					<path class="st0" d="M2819.4,2524.7c-0.2,1.2-0.4,2.5-0.7,3.7l-60.5,296.5l-67.2,329.6c-6.6,32.4-39.7,52.1-71.3,42.6l-4.3-1.3
						l-571.6-173.2l85.4-333l71.3-278.1l406.9,16c60.8-5.2,111.7,0.3,149.7,8.1C2798.5,2444,2825.8,2483.3,2819.4,2524.7z"/>
				</g>
				<g class="st1">
					<path class="st2" d="M2816.3,2522.7c0.8,1.9,1.6,3.8,2.4,5.6l-60.5,296.5c-21,13.4-38.6,24.2-49,30.6
						c-6.6,4.1-11.4,10.5-13.3,18.1l-80.6,322.2l-571.6-173.2l85.4-333c162.6-97.2,390.5-221.6,496.8-225.4
						C2692.6,2461.7,2760.8,2487.1,2816.3,2522.7z"/>
				</g>
				<g>
					<path class="st2" d="M2635.9,3211.5c-6.6,0-13.3-1-19.8-2.9l-575.9-174.5c-6.2-1.9-9.8-8.3-8.2-14.5l156.7-611.2
						c1.4-5.5,6.6-9.2,12.2-9.1l406.2,16c52.4-4.5,103.7-1.6,152.4,8.3c49.2,10.1,81.1,58.2,71.1,107.1l-127.7,626.1
						c-3.8,18.8-15.5,35.2-31.9,45C2660.3,3208.2,2648.1,3211.5,2635.9,3211.5z M2058.3,3014.3l564.9,171.1
						c12,3.6,24.6,2.1,35.4-4.3c10.8-6.4,18.1-16.8,20.6-29.1l127.7-626.1c7.3-36-16.1-71.3-52.3-78.7
						c-46.6-9.6-95.8-12.2-146.2-7.9c-0.5,0-1,0-1.5,0l-397.2-15.7L2058.3,3014.3z"/>
				</g>
			</g>
			<g>
				<g>
					<path class="st0" d="M1898,2695.2c0,0-48.7-7.8-93.6,12.4c0,0-59.1-3.7-99.8-54.6c-25.1-31.3-43.2-80.6-36.3-158
						c0,0,103.9-96.5,283-59c23.1,4.8,47.4,11.9,73,21.7C2024.3,2457.7,2116.8,2679.7,1898,2695.2z"/>
				</g>
				<g class="st1">
					<path class="st2" d="M1898,2695.2c0,0-48.7-7.8-93.6,12.4c0,0-59.1-3.7-99.8-54.6c34.8-50.5,94.8-81.8,144-100.2
						c46.8-17.5,83.5-55.1,98.2-102.8c1.6-5.2,3.1-9.9,4.6-14c23.1,4.8,47.4,11.9,73,21.7C2024.3,2457.7,2116.8,2679.7,1898,2695.2z
						"/>
				</g>
				<g>
					<path class="st2" d="M1837.1,2709.5l-9-22.4c0.1-0.1,38.9-19.4,25.1-122.2c-13.8-102.5-122.7-94-127.3-93.6l-2.2-24
						c1.4-0.1,136.6-11.2,153.5,114.4C1893.3,2683.1,1842.9,2707.2,1837.1,2709.5z"/>
				</g>
				<g>
					<path class="st2" d="M1804.4,2719.7c-0.2,0-0.5,0-0.7,0c-2.5-0.2-61.5-4.3-104.9-54.8c-34.7-40.3-49-97.9-42.5-171
						c0.3-3,1.6-5.7,3.8-7.8c5.6-5.2,140.5-127,368.5-39.8c3.1,1.2,5.6,3.6,6.8,6.6c1.9,4.5,45.5,111.3-0.8,186.4
						c-24.9,40.4-70.6,63.3-135.8,67.9c-0.9,0.1-1.8,0-2.7-0.1c-0.4-0.1-45.9-6.9-86.7,11.5
						C1807.8,2719.3,1806.1,2719.7,1804.4,2719.7z M1680,2501c-4.9,64,7.6,113.8,37.1,148.2c31.9,37.1,74.4,44.7,85.4,46.1
						c42.8-18.1,87.2-13.4,95.9-12.2c56.3-4.2,95.2-23.2,115.7-56.4c34.8-56.5,8.4-139.1,0.9-159.7
						C1823,2395.9,1701.4,2483.6,1680,2501z"/>
				</g>
			</g>
			<g>
				<g>
					<path class="st0" d="M3037,2572c-136.5,131.2-374.1,251.5-374.1,251.5c-113.5,537.8-199.8,554.3-298.1,564.6
						c-98.2,10.4-194.4,53.8-226.4,170.6c-32.1,116.8-86.9,151-265.8,121c-103.1-17.3-128.3-61.9-131.1-96.6
						c-1.9-24,6.9-43.3,7.9-45.4c0,0,0-0.1,0.1-0.2c0,0-25.4,0.8-60.6-1.9c-14.9-1.2-31.6-2.9-48.7-5.7
						c-66.5-10.7-141.1-35.9-154.4-94.8c-2.7-11.8-3.6-22.8-3.1-33.2c3.5-85.5,102.4-118.9,102.4-118.9
						c40.3-336.6,268.4-350.6,268.4-350.6c12.4-257.5,123.9-408.5,123.9-408.5c275.9-182,680.2-22.2,680.2-22.2
						c103.4-27.9,165.4-81.2,184.1-98.3c18.6-17,3.9-145,41.1-158.2c37.2-13.2,52.7,38,52.7,38s41.8-107.8,77.6-98.5
						c35.7,9.3,20.2,69.8,20.2,69.8s38-72.1,80.6-43.4c42.7,28.7-9.3,126.4-9.3,126.4c16.7-16.3,31.2-23.4,42.3-26.1
						c14.5-3.5,29.7,3.9,36,17.4C3204.9,2376.1,3157.6,2456.2,3037,2572z"/>
				</g>
				<g>
					<path class="st2" d="M1977.4,3702.2c-30.2,0-65.5-3.7-106.8-10.6c-68.3-11.4-112.5-36.1-131.5-73.3
						c-13.3-26.2-10.7-52.1-6.6-68.6c-57.3-0.6-235.7-10.5-258.5-111.9c-23.2-103,72.4-151.6,100-163.3
						c22.5-173.4,95.5-260.2,153.2-302.7c48.8-35.8,94.5-46.8,114.7-50c14.8-252,121.1-398.7,125.7-404.9c0.8-1.1,1.9-2.1,3.1-2.9
						c145.6-96.1,326-97.2,451.7-81.3c122.5,15.5,215.8,48.9,235.7,56.4c90.2-25.1,148.4-69.8,175.3-94.5c4.2-5.1,6.5-34,8.1-53.1
						c3.8-47.8,7.8-97.2,37.2-107.6c12.1-4.3,24.2-3.7,35,1.7c8.9,4.5,15.8,11.7,20.9,18.9c16.9-36.6,47.8-90.2,81.5-81.4
						c20.7,5.4,29.4,22.6,31.9,41.4c9.2-9.2,20.6-17.4,33.5-20.7c13.4-3.4,26.9-0.9,39.1,7.3c31.8,21.4,23.5,68.3,11.7,102.6
						c3.9-1.7,7.8-3,11.8-3.9c20-4.9,41,5.2,49.8,24c24.8,53-23.7,137-148.4,256.8c-125.1,120.1-336.2,232.3-371.8,250.9
						c-51.9,244.8-101.3,397-155.3,478.6c-52.5,79.4-105.4,85-152.1,89.9c-117.3,12.4-190,66.8-216.1,161.8
						C2122.7,3661.3,2077.8,3702.2,1977.4,3702.2z M1749.5,3525.4c4.1,0,7.9,2.1,10.2,5.5c2.3,3.6,2.5,8.1,0.6,11.9
						c-0.1,0.3-15.8,33.2,0.4,64.7c15.4,29.9,53.7,50.1,113.8,60.2c182.2,30.5,223.6-8.1,252.1-112.3
						c28.6-104.1,110.4-166.1,236.8-179.4c89.6-9.4,174.3-18.3,287.5-555.1c0.8-3.6,3.1-6.6,6.4-8.3
						c2.4-1.2,237.6-121.1,371.2-249.4c142.9-137.2,156.8-200.3,143.3-229.1c-4-8.4-13.3-13-22.3-10.8
						c-11.6,2.8-24.3,10.7-36.7,22.9c-4.2,4.2-10.9,4.6-15.7,1c-4.8-3.6-6.2-10.1-3.4-15.3c12.1-22.9,40.6-92.3,13.2-110.8
						c-6.6-4.4-12.9-5.7-19.7-3.9c-19.7,5-38.1,32.7-43.5,43c-2.9,5.4-9.3,7.8-15,5.6c-5.7-2.2-8.9-8.3-7.3-14.3
						c0.1-0.5,11.7-49.1-11.5-55.1c-14.9-3.9-45.3,44.9-63.3,91.2c-1.9,4.8-6.6,7.8-11.7,7.7c-5.1-0.2-9.6-3.6-11.1-8.6
						c-1.9-6.2-9.5-23.8-21.2-29.7c-4.9-2.5-10-2.6-16-0.5c-14.6,5.2-18.7,56.3-21.2,86.8c-3,37.6-5.2,59.3-15.8,69
						c-28.9,26.4-91.8,74.7-189.1,101c-2.5,0.7-5.2,0.5-7.6-0.4c-4-1.6-399.9-154.6-667.2,19.8c-11.9,17.1-109,164-120.4,400.2
						c-0.3,6.1-5.2,11.1-11.3,11.5c-0.5,0-55.2,4.1-113.8,47.6c-77.7,57.7-127.3,158.8-143.3,292.4c-0.6,4.6-3.7,8.5-8.1,10
						c-4.6,1.6-113.5,39.9-91.4,137.9c18.6,82.4,187.9,95.1,251.5,93C1749.3,3525.5,1749.4,3525.4,1749.5,3525.4z"/>
				</g>
				<g class="st1">
					<path class="st2" d="M3037,2572c-136.5,131.2-374.1,251.5-374.1,251.5c-113.5,537.8-199.8,554.3-298.1,564.6
						c-98.2,10.4-194.4,53.8-226.4,170.6c-32.1,116.8-86.9,151-265.8,121c-103.1-17.3-128.3-61.9-131.1-96.6
						c132.6,95.8,304.8-13,304.8-13c49.2-150.7,158-239.1,248.3-288.6c77.1-42.3,75.1-154-2.9-194.6
						c-145.8-75.9-346.9-120.4-346.9-120.4l75.7-114.6c210.4-9.3,469.7,117.8,469.7,117.8c54.9-50.2,74.4-108.7,78.1-160.7
						c5.2-73.2-55.6-134.5-128.9-130.5c-334.5,18.4-462.1-154.5-462.1-154.5c275.9-182,680.2-22.2,680.2-22.2
						c68.8,303,302.5,53,302.5,53c194.5-110.9,222.8-225.8,222.8-225.8C3204.9,2376.1,3157.6,2456.2,3037,2572z"/>
				</g>
				<g class="st1">
					<path class="st2" d="M2307.6,3177.3c-40.6,18.8-127.9,44.2-255.4,1.2c-22.6-7.6-47.3-7-69.1,2.6c-40.8,18-102.6,60.5-142.7,159
						c0,0-15.3,55.1-29,135.5c0,0-40.9,13.8-61.8,61.9c0,0-25.4,0.8-60.6-1.9c-14.9-1.2-31.6-2.9-48.7-5.7
						c-66.5-10.7-141.1-35.9-154.4-94.8c-2.7-11.8-3.6-22.8-3.1-33.2c19.6,28.7,60.4,63.9,144,72c31.9,3.1,63.9-5,90.5-22.9
						c0.3-0.2,0.7-0.5,1.1-0.7c31-20.4,52.4-52.6,59.6-89c12-61.4,40.8-151.8,109.3-212.6c17-15.1,23-38.8,15.6-60.3
						c-8.5-24.9-16.8-60.8-14.5-102.1c0.5-9.2,11.9-13.3,18.3-6.6c36.7,38.2,145.4,126.7,398.6,177.5
						C2315.2,3159.3,2316.9,3173,2307.6,3177.3z"/>
				</g>
				<g>
					<g>
						<path class="st2" d="M1596.9,3285.6c-3,8.9-6.7,18-10.1,27l-5.2,13.6c-1.7,4.6-3.5,9.1-5,13.9c-1.3-4.9-2-9.9-2.6-14.8
							c-0.5-5-0.8-10-1.1-14.9c-0.3-9.9-0.4-19.8,0.4-29.7L1596.9,3285.6z"/>
					</g>
					<g>
						<path class="st2" d="M1760.7,3542.1l-22.3-9.3c1-2.3,22.5-53.2,65.6-67.6c3.9-50.5,31.8-292.3,212.5-356.4l8.1,22.7
							c-182.4,64.7-196.9,340.8-197,343.6c-0.2,5.6-4.3,10.2-9.7,11.3C1781.3,3493.7,1760.9,3541.7,1760.7,3542.1z"/>
					</g>
					<g>
						<path class="st2" d="M1918.6,3022.5c12.6,13,24,24.2,35.9,35.5l4.3,4.3l4.6,4.1l9.1,8.1c6.6,4.8,13,9.9,19.9,14.4
							c7.1,4.2,13.9,8.8,21.2,12.6l22,11.2l22.9,9.5c1.9,0.8,3.8,1.6,5.7,2.4l5.9,1.9l11.8,3.9c7.9,2.6,15.7,5.4,23.9,7.2l24.3,6.2
							c4,1.2,8.2,1.8,12.3,2.6l12.4,2.3c8.3,1.5,16.5,3.2,24.8,4.5l25.1,2.9c8.4,0.9,16.7,2.5,25.2,3.4c16.9,2,33.7,4.3,50.9,9
							c-17.1,3.9-34.3,5.5-51.6,6.7c-17.3,0.5-34.6-1.2-51.9-2.2c-8.6-0.8-17.2-2.2-25.8-3.3l-12.9-1.7c-4.3-0.6-8.6-1-12.9-2.1
							c-17-3.9-34.3-6.8-50.9-12.7l-12.6-4l-6.3-2c-2.1-0.8-4.1-1.7-6.1-2.5l-24.4-10.3l-23.4-12.6c-7.7-4.4-14.8-9.8-22.2-14.6
							c-7.2-5.2-14-11.1-20.9-16.6l-9.6-9.3l-4.8-4.7l-4.3-5.2c-2.8-3.6-5.7-6.9-8.1-10.8c-2.3-3.9-4.7-7.7-6.6-11.8
							C1921.8,3040.5,1918.7,3031.8,1918.6,3022.5z"/>
					</g>
					<g>
						<path class="st2" d="M1845.1,3336.1c-182.3-5.7-258.3-91.3-261.4-95l18.2-15.8c0.7,0.8,73,81.3,243.9,86.7L1845.1,3336.1z"/>
					</g>
					<g>
						<path class="st2" d="M2125.9,3493.4c-192.7,0-296.3-117.4-301-122.8l18.3-15.8c1.2,1.3,119.6,134.8,333.4,111.7l2.6,24
							C2160.7,3492.4,2142.9,3493.4,2125.9,3493.4z"/>
					</g>
					<g>
						<path class="st2" d="M3036.1,2584c-178.6-13.1-214.7-168.5-215.1-170.1l23.6-5.2c1.3,5.7,33,139.5,193.3,151.2L3036.1,2584z"
							/>
					</g>
					<g>
						<path class="st2" d="M3088.7,2435.3c-4.3,0-8.5-2.3-10.6-6.4c-48.3-90.4-152.5-93.4-153.5-93.4c-6.7-0.1-12-5.6-11.8-12.3
							c0.1-6.6,5.5-11.8,12.1-11.8c0.1,0,0.2,0,0.2,0c4.8,0.1,119.4,3.4,174.3,106.2c3.1,5.9,0.9,13.2-5,16.3
							C3092.6,2434.9,3090.6,2435.3,3088.7,2435.3z"/>
					</g>
					<g>
						<path class="st2" d="M2949.2,2325.4l-24.1-1.8c0.8-10.3-1-31.6-1.8-39l24-2.5C2947.5,2283.3,2950.3,2310.8,2949.2,2325.4z"/>
					</g>
					<g>
						<path class="st2" d="M3007.7,2345.9l-21.6-10.8c11.7-23.5,35.6-84.3,35.8-84.9l22.5,8.8
							C3043.4,2261.6,3019.9,2321.5,3007.7,2345.9z"/>
					</g>
					<g>
						<path class="st2" d="M3073.7,2398.6l-16.2-17.9c20.9-18.9,36.2-48.2,36.3-48.5l21.4,11.1
							C3114.5,2344.6,3097.8,2376.6,3073.7,2398.6z"/>
					</g>
					<g>
						<path class="st2" d="M2651,2821.7c1.6-8.8,3.4-17.6,5.4-26.4c1.9-8.8,4-17.5,6.2-26.3c4.4-17.5,9-34.9,16.1-52
							c1.8,18.4,1.1,36.5,0.3,54.5c-0.4,9-1,18-1.7,27c-0.6,9-1.4,17.9-2.5,26.8L2651,2821.7z"/>
					</g>
					<g>
						<path class="st2" d="M1827.5,3475.7c-0.9,4.7-3,9.2-5.3,13.8c-1.2,2.3-2.5,4.5-4,6.8c-1.5,2.2-3.1,4.5-5.1,6.7
							c-1.6-2.5-2.8-5-3.9-7.4c-1.1-2.5-2-4.9-2.8-7.3c-1.5-4.9-2.8-9.7-3-14.4L1827.5,3475.7z"/>
					</g>
				</g>
			</g>
			<g>
				<g>
					<g>
						<path class="st0" d="M1975.5,2383.8h-54.1c-55.7,0-100.8-45.1-100.8-100.8v-174.7c0-43.6,35.3-78.9,78.9-78.9h76.1
							L1975.5,2383.8L1975.5,2383.8z"/>
					</g>
					<g class="st1">
						<path class="st2" d="M1820.5,2192.1v101.3c0,49.9,40.5,90.4,90.4,90.4h64.5v-101.3H1911
							C1861,2282.5,1820.5,2242,1820.5,2192.1z"/>
					</g>
					<g>
						<path class="st2" d="M1987.6,2395.9h-66.2c-62.3,0-112.9-50.6-112.9-112.9v-174.7c0-50.1,40.8-90.9,90.9-90.9h88.1V2395.9z
							 M1899.4,2041.5c-36.8,0-66.8,30-66.8,66.8V2283c0,48.9,39.8,88.8,88.8,88.8h42v-330.3L1899.4,2041.5L1899.4,2041.5z"/>
					</g>
				</g>
				<g>
					<g>
						<path class="st0" d="M2662.9,2383.8h54.1c55.7,0,100.8-45.1,100.8-100.8v-174.7c0-43.6-35.3-78.9-78.9-78.9h-76.1V2383.8z"/>
					</g>
					<g class="st1">
						<path class="st2" d="M2817.9,2192.1v101.3c0,49.9-40.5,90.4-90.4,90.4h-64.5v-101.3h64.5
							C2777.4,2282.5,2817.9,2242,2817.9,2192.1z"/>
					</g>
					<g>
						<path class="st2" d="M2717,2395.9h-66.2v-378.6h88.1c50.1,0,90.9,40.8,90.9,90.9V2283
							C2829.9,2345.2,2779.3,2395.9,2717,2395.9z M2675,2371.8h42c49,0,88.8-39.8,88.8-88.8v-174.7c0-36.8-30-66.8-66.8-66.8h-64
							L2675,2371.8L2675,2371.8z"/>
					</g>
				</g>
				<g>
					<g>
						<path class="st0" d="M2661.1,2457.7v66.4c0,0-93.8,106.8-341.9,106.8s-341.9-106.8-341.9-106.8v-66.4L2661.1,2457.7
							L2661.1,2457.7z"/>
					</g>
					<g class="st1">
						<path class="st2" d="M2319.2,2457.7v145c-248,0-341.9-111.5-341.9-111.5v-33.5H2319.2z"/>
					</g>
					<g class="st1">
						<path class="st2" d="M2319.2,2457.7v145c248,0,341.9-111.5,341.9-111.5v-33.5H2319.2z"/>
					</g>
					<g>
						<path class="st2" d="M2319.2,2642.9c-250.6,0-346.9-106.4-350.9-110.9c-1.9-2.2-3-5-3-8v-66.4c0-6.7,5.4-12.1,12.1-12.1h683.7
							c6.7,0,12.1,5.4,12.1,12.1v66.4c0,2.9-1.1,5.8-3,8C2666.2,2536.6,2569.8,2642.9,2319.2,2642.9z M1989.4,2519.1
							c17.7,17,114.6,99.7,329.8,99.7c216.1,0,312.2-82.5,329.8-99.6v-49.4h-659.6V2519.1z"/>
					</g>
				</g>
				<g>
					<g>
						<path class="st0" d="M2319.2,2572c557.9,0,420.1-505.5,420.1-505.5c-50.7-177.6-215.9-307.1-420.1-307.1
							c-204.2,0-369.4,129.5-420.1,307.1C1899.1,2066.5,1761.3,2572,2319.2,2572z"/>
					</g>
					<g class="st1">
						<path class="st2" d="M2739.3,2066.5c-16.8-58.7-46.1-112.1-85.1-157.3c9.8,20.5,17.9,42,24.2,64.2
							c0,0,137.8,505.5-420.1,505.5c-172.8,0-278.9-48.5-343-115.5c46.8,110.1,157.5,208.6,403.9,208.6
							C2877.1,2572,2739.3,2066.5,2739.3,2066.5z"/>
					</g>
					<g>
						<path class="st2" d="M2319.2,2584c-174.6,0-300.4-48.9-374.1-145.4c-116.5-152.6-60.1-366.3-57.6-375.3
							c54-189.1,227.5-316,431.8-316s377.8,126.9,431.7,315.9c2.5,9.2,58.9,222.9-57.6,375.4C2619.6,2535.1,2493.8,2584,2319.2,2584
							z M2319.2,1771.5c-193.4,0-357.6,119.9-408.5,298.4c-0.5,1.9-55.7,211.3,53.7,354.3c68.9,90.1,188.3,135.8,354.9,135.8
							s286-45.7,354.9-135.8c109.3-143,54.2-352.3,53.6-354.4C2676.8,1891.4,2512.6,1771.5,2319.2,1771.5z"/>
					</g>
				</g>
				<g>
					<g>
						<path class="st2" d="M2319.2,2491.1c368.8,0,368.8-245.5,368.8-245.5c0-285.9-368.8-271.7-368.8-271.7
							s-368.8-14.2-368.8,271.7C1950.4,2245.6,1950.4,2491.1,2319.2,2491.1z"/>
					</g>
					<g class="st3">
						<path class="st0" d="M2319.2,1973.9c0,0-368.8-14.2-368.8,271.7c0,0,0,51.5,35.4,107.3c-13.9-36.7-13.9-64.3-13.9-64.3
							c0-77.3,26.9-132.6,66.2-172.2c5.3-5.4,13.3-7.5,20.6-5.2c23.2,7.3,62.6,2.9,103.5-13.5c42.6-17,75-42.3,85.5-64.2
							c3.2-6.7,9.4-11.5,16.8-12.4c44.6-5.4,76.2-4.2,76.2-4.2s238.2-9.1,331.7,135.7C2602.3,1963,2319.2,1973.9,2319.2,1973.9z"/>
					</g>
					<g>
						<path class="st2" d="M2319.2,2503.2c-195.5,0-288.6-69.4-332.3-127.6c-48-63.9-48.5-127.3-48.5-130
							c0-75.5,24.9-137.7,73.9-184.9c107.8-103.8,293.9-99.4,306.9-98.9c13.1-0.5,199.1-4.8,306.9,98.9
							c49,47.2,73.9,109.4,73.9,184.9c0,2.7-0.5,66.1-48.5,130C2607.8,2433.8,2514.7,2503.2,2319.2,2503.2z M2311.7,1985.8
							c-35,0-192.1,5.1-282.8,92.3c-44.1,42.5-66.4,98.8-66.4,167.4c0,0.6,0.8,59.1,44.5,116.6c58.1,76.4,166.1,116.8,312.2,116.8
							s254.1-40.4,312.2-116.8c43.7-57.5,44.5-116.1,44.5-116.6c0-68.6-22.4-125-66.5-167.5c-102.1-98.2-287.9-92.3-289.8-92.2
							l-0.5,0l-0.5,0C2318.5,1985.9,2316.1,1985.8,2311.7,1985.8z"/>
					</g>
				</g>
			</g>
			<g>
				<g>
					<path class="st0" d="M1944.6,2841.2c0,0-26.1-6.3-54.3-11.2c-22.1-3.8-37.1-27.4-31.4-50.6c0.1-0.3,0.2-0.7,0.3-1
						c4.9-18.7,22-30.5,40.1-28.5c16.4,1.8,42.5,5.5,65.5,12.6C1964.8,2762.6,2007.9,2819.7,1944.6,2841.2z"/>
				</g>
				<g class="st1">
					<path class="st2" d="M1945.6,2804.1c0,0-26.1-6.3-54.3-11.2c-13-2.3-23.4-11.3-28.8-23.1c-1.4,2.7-2.6,5.5-3.4,8.6
						c-0.1,0.3-0.2,0.7-0.3,1c-5.7,23.2,9.3,46.7,31.4,50.6c28.2,4.9,54.3,11.2,54.3,11.2c38.9-13.2,37.6-39.8,30.8-58.4
						C1970.6,2791.1,1961.4,2798.7,1945.6,2804.1z"/>
				</g>
				<g>
					<path class="st2" d="M1944.6,2853.2c-0.9,0-1.9-0.1-2.8-0.3c-0.3-0.1-26.1-6.2-53.5-11c-13.6-2.4-25.8-10.6-33.7-22.6
						c-8.2-12.6-10.9-28.2-7.4-42.7l0.3-1.2c6.4-24.4,28.8-40.1,53.1-37.5c18,2,44.3,5.8,67.8,13.1c2.4,0.8,4.5,2.2,6.1,4.3
						c1,1.3,23.6,31.9,14.6,61.1c-5.1,16.6-18.8,28.8-40.6,36.2C1947.2,2853,1945.9,2853.2,1944.6,2853.2z M1895.3,2761.8
						c-11.3,0-21.4,7.9-24.5,19.7l-0.2,0.8c-2,8.1-0.5,16.8,4.1,23.8c4.3,6.5,10.5,10.8,17.6,12c22.5,3.9,43.4,8.6,51.5,10.5
						c12.1-4.7,19.5-11.1,22.1-19.2c3.9-12.5-3.7-28.5-8.7-36.5c-20.6-6-43.4-9.3-59.3-11
						C1897.1,2761.8,1896.2,2761.8,1895.3,2761.8z"/>
				</g>
			</g>
			<g>
				<g>
					<path class="st0" d="M2437.3,2839.3c-44.5,113.5-93.3,238.1-93.3,238.1c-134.5-65.1-399.3-110.8-399.3-110.8l-16-44.9
						c14.2-120.9,65.4-241.8,65.4-241.8c132.8-3.3,261.5,35.8,341.7,66.7c51.2,19.8,82.6,36.2,82.6,36.2L2437.3,2839.3z"/>
				</g>
				<g class="st1">
					<path class="st2" d="M2437.3,2839.3c-44.5,113.5-93.3,238.1-93.3,238.1c-134.5-65.1-399.3-110.8-399.3-110.8l-16-44.9
						c0,0,396.7,86.7,407.1-175.2c51.2,19.8,82.6,36.2,82.6,36.2L2437.3,2839.3z"/>
				</g>
				<g>
					<path class="st2" d="M2344,3089.4c-1.8,0-3.6-0.4-5.3-1.2c-131.4-63.7-393.4-109.4-396.1-109.8c-4.3-0.7-7.9-3.7-9.3-7.8
						l-16-44.9c-0.6-1.7-0.8-3.6-0.6-5.5c14.2-121.2,64.2-240.1,66.3-245.1c1.8-4.4,6.1-7.2,10.8-7.4c5.5-0.1,10.9-0.2,16.4-0.2
						c211.9,0,405.4,100.1,413.8,104.4c2.8,1.4,4.9,3.9,5.8,6.9l18.8,56.5c0.9,2.7,0.8,5.6-0.2,8.2
						c-44.5,113.5-93.3,238.1-93.3,238.1c-1.2,3.1-3.7,5.6-6.8,6.8C2347,3089.2,2345.5,3089.4,2344,3089.4z M1953.7,2955.9
						c42.3,7.6,257.7,48,383.7,105.1c13.1-33.3,51.2-130.7,87-222.1l-15.9-47.7c-30.1-14.9-214.3-101.8-406.2-99.5
						c-10.9,27.4-49.1,128.3-61.3,228.5L1953.7,2955.9z"/>
				</g>
				<g>
					<g>
						<path class="st2" d="M2199.6,2819.1l-37.6-10.6c-5.7-1.6-9-7.5-7.4-13.3l10.6-37.6c1.6-5.7,7.5-9,13.3-7.4l37.6,10.6
							c5.7,1.6,9,7.5,7.4,13.3l-10.6,37.6C2211.2,2817.4,2205.3,2820.7,2199.6,2819.1z"/>
					</g>
					<g>
						<path class="st2" d="M2289.7,2844.6l-37.6-10.6c-5.7-1.6-9-7.5-7.4-13.3l10.6-37.6c1.6-5.7,7.5-9,13.3-7.4l37.6,10.6
							c5.7,1.6,9,7.5,7.4,13.3l-10.6,37.6C2301.4,2842.9,2295.4,2846.2,2289.7,2844.6z"/>
					</g>
					<g>
						<path class="st2" d="M2173.8,2906.2l-37.6-10.6c-5.7-1.6-9-7.5-7.4-13.3l10.6-37.6c1.6-5.7,7.5-9,13.3-7.4l37.6,10.6
							c5.7,1.6,9,7.5,7.4,13.3l-10.6,37.6C2185.5,2904.5,2179.5,2907.8,2173.8,2906.2z"/>
					</g>
					<g>
						<path class="st2" d="M2264,2931.7l-37.6-10.6c-5.7-1.6-9-7.5-7.4-13.3l10.6-37.6c1.6-5.7,7.5-9,13.3-7.4l37.6,10.6
							c5.7,1.6,9,7.5,7.4,13.3l-10.6,37.6C2275.6,2929.9,2269.7,2933.3,2264,2931.7z"/>
					</g>
					<g>
						<path class="st2" d="M2322.6,3035.9c-1.8,0-3.5-0.4-5.1-1.1c-142.9-67.1-387.9-100.8-390.4-101.1l3.2-23.9
							c9.9,1.3,238.5,32.8,385.6,97.8c13.7-35.7,55.4-144,91.4-229.4l22.2,9.4c-43.4,103-95.2,239.3-95.7,240.7
							c-1.2,3.1-3.6,5.6-6.8,6.9C2325.7,3035.6,2324.2,3035.9,2322.6,3035.9z"/>
					</g>
					<g>
						
							<rect x="2320.4" y="3024.7" transform="matrix(0.9222 -0.3866 0.3866 0.9222 -998.5223 1139.4259)" class="st2" width="25.8" height="54.7"/>
					</g>
					<g>
						<path class="st2" d="M2046.3,2942.6l-23.4-5.9l30.3-120.9l-30.8-4.9c-3.4-0.5-6.5-2.5-8.3-5.5c-1.9-2.9-2.4-6.5-1.4-9.9
							l34.7-117.6l23.1,6.8l-30.8,104.4l30.2,4.8c3.3,0.5,6.3,2.4,8.2,5.3s2.5,6.3,1.6,9.6L2046.3,2942.6z"/>
					</g>
				</g>
			</g>
			<g>
				<g>
					<path class="st0" d="M2394.5,2980.5c22,9.9,86.1,41.8,156.1,107.6c19.3,18.1,51,12.9,62.8-10.8c0.2-0.5,0.5-1,0.7-1.4
						c7.4-15.4,4.1-33.8-8.1-45.7c-30.5-29.9-98.6-90.7-183.3-128.5c-4.4-2-9.5-2.1-14-0.3c-12.5,4.9-33.8,20-24.6,66.1
						C2385.3,2973.2,2389.1,2978.1,2394.5,2980.5z"/>
				</g>
				<g class="st1">
					<path class="st2" d="M2554.7,3043.4c-70-65.7-134.1-97.7-156.1-107.6c-5.4-2.4-9.2-7.3-10.4-13.1c-0.2-1-0.3-1.9-0.5-2.9
						c-5.4,10.2-8.1,25.2-3.7,47.6c1.2,5.8,5,10.7,10.4,13.1c22,9.9,86.1,41.8,156.1,107.6c19.3,18.1,51,12.9,62.8-10.8
						c0.2-0.5,0.5-1,0.7-1.4c5.7-11.8,5-25.3-1-36.4C2599.1,3057.1,2572,3059.6,2554.7,3043.4z"/>
				</g>
				<g>
					<path class="st2" d="M2577.9,3111c-13.1,0-25.7-4.9-35.5-14.1c-67.9-63.7-129.4-94.9-152.8-105.4c-8.9-4-15.3-12.1-17.3-21.8
						c-11.3-56.4,18.6-74.6,32.1-79.8c7.5-2.9,16-2.7,23.3,0.5c85.2,38.2,153.6,98.4,186.8,130.9c15.9,15.6,20.1,39.5,10.5,59.6
						l-0.7,1.5c-7.3,14.6-20.7,24.7-36.9,27.6C2584.2,3110.8,2581,3111,2577.9,3111z M2415.4,2912.1c-0.8,0-1.6,0.1-2.3,0.4
						c-16.8,6.5-22.7,24.7-17.1,52.5c0.4,2,1.7,3.7,3.5,4.5c0,0,0,0,0,0c24.4,10.9,88.8,43.5,159.4,109.8c6.5,6.1,15.3,8.7,24.2,7.1
						c8.6-1.5,15.7-6.8,19.5-14.5l0.7-1.3c5.1-10.7,2.8-23.5-5.7-31.9c-32-31.4-97.9-89.5-179.7-126.1
						C2417.1,2912.3,2416.2,2912.1,2415.4,2912.1z"/>
				</g>
			</g>
			<g>
				<g>
					<path class="st2" d="M1741.6,1466.7l3.3,1303.2l0,2.5l-0.9,2c-12.6,29.3-25.9,58.4-39.5,87.3c-6.7,14.5-13.7,28.9-20.8,43.2
						c-7.1,14.3-14.4,28.6-22.2,42.7c4.1-15.5,8.7-30.9,13.4-46.2c4.8-15.2,9.7-30.5,14.9-45.6c10.1-30.3,20.6-60.5,31.8-90.4
						l-0.9,4.5l-3.3-1303.2c0-6.7,5.4-12.1,12-12.1S1741.6,1460,1741.6,1466.7z"/>
				</g>
				<g>
					<path class="st2" d="M1730.9,1859.2l-431.5-204.7c-6-2.9-8.6-10-5.7-16.1c2.8-6,10-8.6,16.1-5.7l418.5,198.6l273.3-201.1
						c5.4-4,12.9-2.8,16.9,2.6c3.9,5.4,2.8,12.9-2.6,16.9L1730.9,1859.2z"/>
				</g>
				<g>
					<path class="st2" d="M1729.5,1857.2c-4.8,0-9.3-2.8-11.2-7.5l-127.2-310.6c-2.5-6.2,0.4-13.2,6.6-15.7
						c6.2-2.5,13.2,0.4,15.7,6.6l127.2,310.6c2.5,6.2-0.4,13.2-6.6,15.7C1732.6,1856.9,1731.1,1857.2,1729.5,1857.2z"/>
				</g>
				<g>
					<path class="st2" d="M1744.3,2766.1c4.5,12.8,8.5,25.8,12.4,38.8c3.8,13,7.4,26.1,10.9,39.3c6.7,26.4,13.8,52.6,15.5,80.6
						c-15.1-23.6-24.8-49.1-34.8-74.3c-4.9-12.7-9.7-25.4-14.2-38.2c-4.5-12.8-8.9-25.7-12.7-38.7c-1.9-6.4,1.8-13.1,8.2-15
						C1735.7,2756.8,1742.2,2760.1,1744.3,2766.1z"/>
				</g>
				<g>
					<g>
						<g>
							<circle class="st4" cx="1697.8" cy="751.6" r="506.6"/>
						</g>
						<g>
							<g>
								<defs>
									
										<ellipse id="SVGID_1_" transform="matrix(0.7071 -0.7071 0.7071 0.7071 -34.2325 1420.6378)" cx="1697.7" cy="751.6" rx="506.6" ry="506.6"/>
								</defs>
								<clipPath id="SVGID_00000160895244605614281130000001707576941258867361_">
									<use xlink:href="#SVGID_1_"  style="overflow:visible;"/>
								</clipPath>
								<g style="clip-path:url(#SVGID_00000160895244605614281130000001707576941258867361_);">
									<g>
										<path class="st6" d="M1152.2,435.9c0,0,354.9-277.9,518-217S1402.5,383.9,1205,566.8s127.5-128.8,454.1-155
											c326.5-26.2,82.6,92.3,174.3,75.1c91.7-17.2,219.6-19.4,96.5,39.7c-123.1,59.1-276.3,36.8-342.7,74.7
											c-66.5,37.8-332.4,173.4-293.7,176.1c38.7,2.7,271.5-156.7,336.8-129.1c65.3,27.6,135.6,58.9,331.9-6.8
											c196.3-65.7,100.1-137.1,209-137.6c108.9-0.5-14.2,209.4-253.8,219.1s-301.7-61.1-370.5,24.4
											c-68.8,85.5-12.9,28.3-118.4,85.2c-105.5,57-194.4,62.7-213.1,107.3c-18.7,44.5,124-32.7,226.1-83.1
											c102.1-50.4,114.4-126.7,187.6-77.8c73.2,48.8,347.4,60.4,418.4,12.8c71-47.6,161.9,54.6-82.4,74.2s-356.4-5-390.3-19.7
											c-33.9-14.7,34.5,46.1-98.7,126.3s-292.6,54.4-233.7,132.6c58.8,78.2,96.5-36,274.1-78.4
											c177.6-42.4,114.1-155.9,231.1-100.7c117,55.2,38.3,124.3,194.1,31.4s241.5-133.9,185.4-64s-437,287.2-458.8,140
											c0,0-33.1-23.9-62.5,16.9c-29.4,40.8-17.4,72.6-134,102.8c-116.6,30.2-69.2,141.8-14,135.1
											c55.2-6.7,291.2-146.5,327.6-129.9s-15.6,70.1,146.2-28.3c161.8-98.4,332.9-166.7,252-27.6
											c-80.8,139.2-410.2,172.6-412.7,96.5c-2.5-76.1-0.3,78.8-177.2,109.9s675.2,279.2,817-180.4s-438.4-66.6-392-99.7
											c46.4-33.1,140.5-118,179.5-196.5s32.6-144.9-46.7-107.2c-79.4,37.7-85.3,1.6,42.9-75c128.2-76.6,154-321.4,46-250
											s-87.2,65.2-186.9,126.8c-99.7,61.6-58.5-33.8-18.3-54.5c40.3-20.7,78.4-53,42.5-73.1c-35.9-20.1-89.3,41.8-131,41.9
											s-10.6-43.7,33.6-48.5s97.9-73.4,14-106.3c-83.9-32.9-162.8,120.6-213.6,94c-50.8-26.6-66.2-17.2-108.2-12.7
											c-42,4.5,8.5-44.2,57.3-35.3c48.7,8.9,144.7-30.3,163.3-81.7c18.6-51.4-49.3-185.5-208.8-135.3
											C1524.5,166,1227.3,248.1,1152.2,435.9z"/>
									</g>
									<g>
										<path class="st6" d="M1196.5,459.4c14.2-14.3,100.1-88,148.4-71.3c48.3,16.7,207.7-108.3,196-70.4
											s-227.3,123.6-324.4,199.6c-97.1,76.1-190.7,180.4-101.5,150.3c89.1-30.1,167.6-95.8,211.3-79.9
											c43.8,15.9,358.8-122.5,265.8-66.8c-92.9,55.6-302.8,121.3-325.6,174.6s-49.2,20-23.8-17.1c25.5-37.2-74.2-77.9-91.6,26.9
											s-58,187.2,4.3,164.7c62.3-22.5,133.2-38.6,215.2-78.9c81.9-40.4,5.7,30.2-79.3,56.8c-85,26.5-167.7,88-165.1,106.6
											c2.5,18.6,36.5,55.5,116.5,19.8c79.9-35.7,39.5,38.3,146-17.3c106.5-55.6,36.8,14.3-82.1,57.6s-123,74-138.7,51.1
											c-15.7-22.9-172.9-270.9-94.5-470.2"/>
									</g>
								</g>
							</g>
							<g>
								<defs>
									
										<ellipse id="SVGID_00000134947107782501321120000010030120181458981506_" transform="matrix(0.7071 -0.7071 0.7071 0.7071 -34.2325 1420.6378)" cx="1697.7" cy="751.6" rx="506.6" ry="506.6"/>
								</defs>
								<clipPath id="SVGID_00000103243822616241668590000002534626169913403018_">
									<use xlink:href="#SVGID_00000134947107782501321120000010030120181458981506_"  style="overflow:visible;"/>
								</clipPath>
								<g style="clip-path:url(#SVGID_00000103243822616241668590000002534626169913403018_);">
									<g class="st1">
										<path class="st8" d="M1305.9,1072.5c110.8,104.8,267.5,158.6,429.7,132.2c276.1-45,463.5-305.3,418.5-581.4
											c-14.9-91.3-53.4-172.7-108.1-239.4c-110.5-104.5-266.5-158.2-428.1-132.4c0,0,0,0,0,0c57.2,23.7,107.6,62.1,145.6,111.2
											c58.3,52.4,99.9,124.2,113.5,207.6c31.7,194.3-100.2,377.4-294.4,409.1c-133.6,21.8-261.9-33.8-339.3-133.8c0,0,0,0,0,0
											c-18.8-16.9-35.8-35.8-50.8-56.5c-0.5-6.3-0.8-12.6-1.1-18.8c0.8,20.8,2.8,41.8,6.2,62.9
											c17.7,108.6,68.8,203.3,140.9,275.7C1327.2,1097.3,1316.3,1085.2,1305.9,1072.5z"/>
									</g>
								</g>
							</g>
						</g>
						<g class="st9">
							<path class="st0" d="M1735.4,274.1c108.1,0,208.2,33.9,290.4,91.6c-88.4-75.2-202.9-120.6-328.1-120.6
								c-279.8,0-506.6,226.8-506.6,506.6c0,77.1,17.3,150.2,48.1,215.7c28.2,53.6,65.7,101.5,110.4,141.6
								c-75.3-88.4-120.9-203-120.9-328.2C1228.9,500.9,1455.6,274.1,1735.4,274.1z"/>
						</g>
						<g>
							<path class="st2" d="M1697.8,1273.1c-287.5,0-521.5-233.9-521.5-521.5s233.9-521.5,521.5-521.5s521.5,233.9,521.5,521.5
								S1985.3,1273.1,1697.8,1273.1z M1697.8,260c-271.1,0-491.7,220.6-491.7,491.7c0,271.1,220.6,491.7,491.7,491.7
								s491.7-220.6,491.7-491.7C2189.4,480.5,1968.9,260,1697.8,260z"/>
						</g>
					</g>
					<g>
						<g>
							<path class="st10" d="M2491.6,1082.5c23.5,48.5,37.4,99.2,42.6,149.9c18.6,182.6-76.6,365.5-251.4,450
								c-191.4,92.6-416.1,37.1-544.4-121.3c-21.4-26.4-40.1-55.6-55.5-87.5c-7.7-15.8-14.3-31.9-19.9-48.2
								c-74.1-212.4,21.3-451.4,228.8-551.7c211.5-102.3,463.8-23.8,581.5,174.7C2479.8,1059.3,2486,1070.7,2491.6,1082.5z"/>
						</g>
						<g>
							<path class="st11" d="M2491.6,1082.5c23.5,48.5,37.4,99.2,42.6,149.9c-35.6,40.4-91.4,91.6-155.4,106.1
								c-110.3,25-202.2,113.7-238.8,133.3c-36.7,19.5-218.2,108.9-278,84.7c-33.7-13.7-85.1-5.3-123.5,4.7
								c-21.4-26.4-40.1-55.6-55.5-87.5c-7.7-15.8-14.3-31.9-19.9-48.2c30.8-16.2,88.2-40.5,130.9-24
								c61.1,23.7,185.3-23.9,273.4-102c88.1-78.1,195.3-102.2,259.4-105.4c54.8-2.7,118.8-96.9,146.6-145.7
								C2479.8,1059.3,2486,1070.7,2491.6,1082.5z"/>
						</g>
						<g class="st1">
							<path class="st2" d="M2534.2,1232.4c-5.1-50.7-19.1-101.4-42.6-149.9c-5.7-11.8-11.8-23.1-18.4-34.1
								c-48.9-82.4-121-144-203.7-180.7c38.7,32,72.6,70.9,99.4,116.1c6.6,11,12.7,22.4,18.4,34.1c23.5,48.5,37.4,99.2,42.6,149.9
								c18.6,182.6-76.6,365.5-251.4,450c-123.7,59.8-261.3,57.7-377.8,6.1c131.2,108.6,318.8,137.5,482.1,58.5
								C2457.6,1597.9,2552.8,1415,2534.2,1232.4z"/>
						</g>
						<g class="st12">
							<path class="st0" d="M1891.7,873.7c-207.5,100.3-302.9,339.3-228.8,551.7c5.6,16.3,12.3,32.4,19.9,48.2
								c15.4,31.9,34.1,61.1,55.5,87.5c45.5,56.2,103.2,99.4,167.2,127.7c-48.2-27.2-91.6-63.5-127.5-107.8
								c-21.4-26.4-40.1-55.6-55.5-87.5c-7.7-15.8-14.3-31.9-19.9-48.2c-31.4-89.9-32.3-184.6-7.3-271.5c2-7.1,7.8-12.4,15.1-13.9
								c22-4.7,51.9-30.3,75.9-67.3c25.9-39.9,36.9-80.6,29.2-101.5c-2.8-7.6-1-16,4.9-21.5c32.1-30,69.2-55.8,110.9-75.9
								c123.4-59.7,260.6-57.7,376.9-6.4C2184.5,817.2,2029.5,807,1891.7,873.7z"/>
						</g>
						<g>
							<path class="st2" d="M2087.6,1739.8c-51.1,0-102.4-8.6-152.1-25.9c-116.4-40.5-210.1-124-263.8-235
								c-53.7-111-60.9-236.2-20.4-352.7c40.5-116.4,124-210.1,235-263.8c111-53.7,236.2-60.9,352.7-20.4
								c116.4,40.5,210.1,124,263.8,235c53.7,111,60.9,236.2,20.4,352.7c-40.5,116.4-124,210.1-235,263.8
								C2224.6,1724.3,2156.3,1739.8,2087.6,1739.8z M2086.9,841.1c-65,0-129.6,14.7-189.8,43.8c-105,50.8-184,139.4-222.3,249.6
								c-38.4,110.2-31.5,228.7,19.3,333.7c50.8,105,139.4,184,249.6,222.3c110.2,38.3,228.7,31.5,333.7-19.3
								c105-50.8,184-139.4,222.3-249.6c38.4-110.2,31.5-228.7-19.3-333.7c-50.8-105-139.4-184-249.6-222.3
								C2183.8,849.2,2135.3,841.1,2086.9,841.1z"/>
						</g>
					</g>
					<g>
						<g>
							<path class="st13" d="M1578.3,1332.7c-10.2,82.2-42.9,160.7-95,225.9c-40.6,50.8-92.9,93.6-155.4,123.8
								c-80.1,38.7-166,51.6-248.3,41.7c-114.3-13.6-221.5-70.9-296.1-163.1c-21.4-26.4-40.1-55.6-55.5-87.5
								c-7.6-15.8-14.3-31.9-19.9-48.2c-38.5-110.3-31.3-227.8,13.7-329.4c30.3-68.3,77.6-129.4,139.5-176.2
								c23.2-17.5,48.4-33,75.6-46.2c59.9-29,123-43.4,185.4-44.8c158.1-3.5,311.7,77.1,396.1,219.4c6.6,11,12.7,22.4,18.4,34.2
								c23.4,48.5,37.4,99.2,42.6,149.9C1582.8,1266,1582.4,1299.6,1578.3,1332.7z"/>
						</g>
						<g>
							<path class="st14" d="M1578.3,1332.7c-33.3,27.3-64.1,49.2-87.7,59.8c-100,44.7-170.3-121.3-191.6-263.9
								c-21.3-142.6-153.3-74.5-195.8-152.3c-42.6-77.8,19.1-147.3,19.1-147.3c158.1-3.5,311.7,77.1,396.1,219.4
								c6.6,11,12.7,22.4,18.4,34.2c23.4,48.5,37.4,99.2,42.6,149.9C1582.8,1266,1582.4,1299.6,1578.3,1332.7z"/>
							<path class="st2" d="M1457.7,1409.8c-14,0-27.7-3.7-41.1-11c-70.3-38.5-112.6-168.9-127.5-268.9
								c-11.5-76.9-56.3-86.8-103.7-97.2c-35-7.7-71.3-15.7-91.1-51.8c-45.4-83,19.7-157.9,20.4-158.6l2.9-3.2l4.3-0.1
								c165.6-3.7,320.7,82.3,404.9,224.3c6.6,11,12.9,22.7,18.8,34.9c23.5,48.6,38.1,100.1,43.5,153.2c3.5,33.9,3.1,68.4-1.1,102.5
								l-0.5,3.9l-3.1,2.5c-37.3,30.6-67.6,51.2-90,61.1C1482.2,1407,1469.9,1409.8,1457.7,1409.8z M1127,838.7
								c-11,14-49.3,70.3-15.2,132.7c15.4,28.2,44.4,34.6,77.9,41.9c49.5,10.9,105.6,23.2,119.1,113.7
								c15.4,103,57.6,221.6,117.4,254.4c19.5,10.7,39.3,11.3,60.3,2c20.2-9,47.9-27.8,82.4-55.8c3.6-31.3,3.8-63,0.6-94.1
								c-5.2-50.8-19.2-100.1-41.6-146.6c-5.7-11.6-11.7-22.9-18-33.4C1430.1,918.8,1283.6,837,1127,838.7z"/>
						</g>
						<g>
							<path class="st14" d="M953.6,1549.4c-23.9-65.5-140.5-169.3-156.5-212.3c-15.9-43.1-41.5-22.4-67.1-73.5
								c-25.5-51.1-8.2-167.6-8.2-167.6l0-0.1c30.3-68.3,77.6-129.4,139.5-176.2c96.1-51.7,116.2,46.8,133.8,126.7
								c17.5,79.8-87.8,124.5-3.2,258.6C1076.5,1439.3,977.5,1614.8,953.6,1549.4z"/>
							<path class="st2" d="M968.5,1573.5c-0.8,0-1.5,0-2.3-0.1c-6.8-0.7-16.2-4.8-21.9-20.5l0,0c-12.6-34.5-53.9-82.1-90.3-124.1
								c-31.3-36.1-58.4-67.3-66.1-88.2c-6.6-17.8-14.3-22.2-24.9-28.2c-12.2-6.9-27.4-15.6-41.7-44.3
								c-23.8-47.7-12.9-145.1-9.9-168.5l-1.3-1.3l2.7-6.3c31.5-71.2,80.9-133.4,142.6-180.1l1.3-0.8c30.7-16.5,57.2-19.8,78.9-9.9
								c42.1,19.3,56.2,83.3,68.6,139.8l0.7,3.4c7.3,33.2-4.7,61-16.3,87.9c-18.7,43.4-38.1,88.3,11.9,167.5
								c57.5,91.2,33.4,198.6,4.7,244.8C993.3,1563.6,980.7,1573.5,968.5,1573.5z M962.9,1546c1.9,5.1,4,7.5,5.3,7.6
								c2.9,0.3,10.9-4.7,20-19.4c26.2-42.2,48-140.2-4.7-223.7c-55.6-88-33.1-140.1-13.3-186c11.3-26.2,21.1-48.9,15.2-75.8
								l-0.7-3.4c-11.4-51.9-24.4-110.8-57.5-126c-15.8-7.2-35.5-4.3-60.5,9c-58.4,44.2-105.1,103.1-135.2,170.4
								c-1.6,11.7-15.1,115.4,7.5,160.6c11.6,23.3,22.4,29.4,33.8,35.9c12.1,6.9,24.6,14,33.7,38.6c6.5,17.5,33.7,48.9,62.5,82.1
								C906.5,1459,949,1508.1,962.9,1546L962.9,1546z"/>
						</g>
						<g>
							<path class="st0" d="M1483.3,1558.6c-40.6,50.8-92.9,93.6-155.4,123.8c-80.1,38.7-166,51.6-248.3,41.7
								c9.3-17.9,25.4-35.5,52.8-39c59-7.4,58-35.1,87.8-61.7c29.8-26.6,76.1-2.1,114.7-13.9
								C1366.8,1599.9,1406.6,1526.8,1483.3,1558.6z"/>
							<path class="st2" d="M1132.7,1734.7c-18,0-36-1.1-53.9-3.2l-10.7-1.3l5-9.6c13-24.9,33.2-39.7,58.5-42.9
								c38.5-4.9,48.9-18.4,62.1-35.6c5.8-7.5,12.3-16,21.6-24.3c19.8-17.6,45.2-15.6,69.8-13.6c16.2,1.3,33,2.7,47.7-1.8
								c8-2.4,17.6-10.3,28.6-19.5c28.1-23.3,66.7-55.3,124.8-31.2l9.2,3.8l-6.2,7.7c-42.7,53.4-95.8,95.8-157.9,125.9
								C1268.8,1719.2,1201.1,1734.7,1132.7,1734.7z M1092.1,1717.9c79.8,7.4,159.9-7.1,232.6-42.3
								c56.9-27.6,106.1-65.8,146.2-113.7c-44.6-13.6-75.2,11.7-100.1,32.4c-12.3,10.2-22.9,19-33.8,22.3
								c-17.4,5.3-35.6,3.8-53.3,2.4c-23.4-1.9-43.6-3.5-58.6,9.9c-8.3,7.4-14.1,15-19.7,22.3c-14.1,18.3-27.4,35.7-72.1,41.3
								C1116.3,1694.7,1102.5,1703.2,1092.1,1717.9z"/>
						</g>
						<g class="st1">
							<path class="st2" d="M1579.4,1232.4c-5.1-50.7-19.1-101.4-42.6-149.9c-5.7-11.8-11.8-23.1-18.4-34.1
								c-48.9-82.4-121-144-203.7-180.7c38.7,32,72.6,70.9,99.4,116.1c6.6,11,12.7,22.4,18.4,34.1c23.5,48.5,37.4,99.2,42.6,149.9
								c18.6,182.6-76.6,365.5-251.4,450c-123.7,59.8-261.3,57.7-377.8,6.1c131.2,108.6,318.8,137.5,482.1,58.5
								C1502.8,1597.8,1598,1415,1579.4,1232.4z"/>
						</g>
						<g class="st12">
							<path class="st0" d="M936.9,873.6C729.4,974,634,1212.9,708.1,1425.4c5.6,16.3,12.3,32.4,19.9,48.2
								c15.4,31.9,34.1,61.1,55.5,87.5c45.5,56.2,103.2,99.4,167.2,127.7c-48.2-27.2-91.6-63.5-127.5-107.8
								c-21.4-26.4-40.1-55.6-55.5-87.5c-7.7-15.8-14.3-31.9-19.9-48.2c-31.4-89.9-32.3-184.6-7.3-271.5c2-7.1,7.8-12.4,15.1-13.9
								c22-4.7,51.9-30.3,75.9-67.3c25.9-39.9,36.9-80.6,29.2-101.5c-2.8-7.6-1-16,4.9-21.5c32.1-30,69.2-55.8,110.9-75.9
								c123.4-59.7,260.6-57.7,376.9-6.4C1229.6,817.1,1074.6,807,936.9,873.6z"/>
						</g>
						<g>
							<path class="st2" d="M1132.8,1739.8c-51.1,0-102.4-8.6-152.1-25.9c-116.4-40.5-210.1-124-263.8-235
								c-110.8-229.1-14.5-505.7,214.6-616.5c111-53.7,236.2-60.9,352.7-20.4c116.4,40.5,210.1,124,263.8,235
								c53.7,111,60.9,236.2,20.4,352.7s-124,210.1-235,263.8C1269.8,1724.3,1201.4,1739.8,1132.8,1739.8z M1132.1,841.1
								c-65,0-129.6,14.7-189.8,43.8c-216.8,104.8-307.9,366.5-203.1,583.3c50.8,105,139.4,184,249.6,222.3s228.7,31.5,333.7-19.3
								c105-50.8,184-139.4,222.3-249.6c38.4-110.2,31.5-228.7-19.3-333.7c-50.8-105-139.4-184-249.6-222.3
								C1229,849.2,1180.4,841.1,1132.1,841.1z"/>
						</g>
					</g>
					<g>
						<g>
							<g>
								<circle class="st15" cx="1550.9" cy="1152.3" r="443.4"/>
							</g>
							<g>
								<path class="st16" d="M1917.8,1286.2c-115.2-44.1-226.2-98.1-341.9-141c-101.4-37.6-198-86.4-292-139.6
									c-40.3-22.8-80.1-46.4-119.8-70.3c-35.3,62.7-55.7,134.9-56.6,211.7c12.1,5.4,24.4,10.6,36.6,16
									c169.8,74.1,342.8,141.9,521.5,191.2c80.8,22.3,163.9,48.9,248.2,52.7c22.1-31.5,40.2-65.9,53.6-102.6
									C1950.9,1298.5,1934.3,1292.5,1917.8,1286.2z"/>
							</g>
							<g>
								<path class="st16" d="M1200.4,880.7c81.7,49,164.1,96.9,249.8,138.8c98.4,48.1,202,83.5,302.6,126.6
									c76.9,33,153.6,67.5,232.6,95.4c5.9-28.8,9-58.7,9-89.2c0-31.2-3.2-61.7-9.4-91.1c-82.2-18.4-162.1-47.3-242-73.7
									c-109.1-36-218.5-70.8-326.5-109.9c-51.9-18.8-103.1-39.4-155.8-56c-1.2-0.4-2.5-0.7-3.7-1.1
									C1236.2,838.8,1217.3,858.9,1200.4,880.7z"/>
							</g>
							<g>
								<path class="st16" d="M1619.3,1409.2c-92.4-26.8-183.5-58.3-273.3-92.6c-78.6-30-155.9-62.8-233.2-96
									c32.9,212.4,216.5,375,438.1,375c121.5,0,231.5-48.9,311.6-128C1779.9,1457.1,1698.8,1432.2,1619.3,1409.2z"/>
							</g>
							<g>
								<g class="st1">
									<path class="st8" d="M1895.6,1389.1C1895.6,1389.1,1895.6,1389.1,1895.6,1389.1c-60.1,34.2-129.5,53.9-203.7,53.9
										c-227.7,0-412.3-184.6-412.3-412.3c0-117.2,49-222.9,127.6-298c-26.5,9.1-51.9,20.6-75.9,34.4
										c13.7-7.8,27.8-14.9,42.4-21.3c-134.7,76.1-225.7,220.5-225.7,386.3c0,244.9,198.5,443.4,443.4,443.4
										c63.1,0,123.2-13.2,177.5-37c-19.6,11.1-40.2,20.7-61.5,28.8c98.7-37.2,180.6-108.6,231.3-199.8
										C1924.7,1375.5,1910.4,1382.7,1895.6,1389.1z"/>
								</g>
							</g>
							<g>
								<path class="st16" d="M1400.3,802.2c106.9,40,215.4,75.7,324.1,110.7c79.3,25.5,157.8,54.7,238.6,75.5
									c-65.2-163.7-225.1-279.5-412.1-279.5c-84.3,0-163,23.5-230.1,64.3C1347.4,782.5,1373.8,792.3,1400.3,802.2z"/>
							</g>
							<g class="st9">
								<path class="st0" d="M1742.6,757.2c117,79.8,193.8,214.2,193.8,366.5c0,244.9-198.5,443.4-443.4,443.4
									c-63.9,0-124.7-13.5-179.6-37.9c71,48.3,156.8,76.6,249.1,76.6c244.9,0,443.4-198.5,443.4-443.4
									C2006,981.6,1897.7,826.2,1742.6,757.2z"/>
							</g>
							<g>
								<path class="st2" d="M1550.9,1608.1c-251.3,0-455.8-204.5-455.8-455.8s204.5-455.8,455.8-455.8
									c251.3,0,455.8,204.5,455.8,455.8S1802.2,1608.1,1550.9,1608.1z M1550.9,721.3c-237.6,0-431,193.3-431,431
									s193.3,431,431,431s431-193.3,431-431S1788.5,721.3,1550.9,721.3z"/>
							</g>
						</g>
						<g>
							<g>
								<path class="st17" d="M1903.3,874.1c85.7-7.6,146.3,6.6,164.8,44.9c42.4,87.7-150.6,268.8-431.1,404.5
									s-542.3,174.5-584.7,86.8c-18.4-38.1,7.6-93.8,65.8-155.7l-10.4-109.9c-181.9,144.5-278,294.3-231.8,389.9
									c70.1,144.9,440.1,110.8,826.5-76s642.8-455.8,572.8-600.6c-46.3-95.7-223.3-113.3-449.6-60.5L1903.3,874.1z"/>
							</g>
							<g>
								<g class="st1">
									<path class="st2" d="M2275.1,857.9c-5.2-10.7-12.1-20.4-20.4-29.2c53.3,147.1-200,407.7-577.2,590.1
										c-357.7,173-701.4,215-806,105.3c1.3,3.5,2.7,7,4.4,10.4c70.1,144.9,440.1,110.8,826.5-76S2345.2,1002.8,2275.1,857.9z"/>
								</g>
							</g>
							<g>
								<g class="st12">
									<path class="st0" d="M2282.4,877.6c-1.8-6.8-4.2-13.4-7.3-19.7c-46.3-95.7-223.3-113.3-449.6-60.5l36.5,36
										C2063.6,789,2223.6,801.9,2282.4,877.6z"/>
								</g>
								<g class="st12">
									<path class="st0" d="M1112.6,1196.4l-4.9-51.8c-181.9,144.5-278,294.3-231.8,389.9c3.5,7.2,7.7,13.9,12.6,20.2
										C863.3,1461.8,952,1327.7,1112.6,1196.4z"/>
								</g>
							</g>
							<g>
								<path class="st2" d="M1099.8,1636.8c-122.1,0-204.4-33.5-235.1-96.8c-47.7-98.7,40.2-250.1,235.2-405.1l17.9-14.2
									l13.1,138.3l-3.9,4.1c-56.3,59.9-79,110.3-63.7,141.8c34.5,71.3,271,51.1,568.2-92.6c297.2-143.7,459.9-316.6,425.4-387.9
									c-15.4-31.8-69.6-45.3-152.6-38l-5.7,0.5l-97.9-96.4l21.9-5.1c242.5-56.7,415.8-31.6,463.6,67.2
									c36.3,75.1-5.4,181.1-117.4,298.5c-109.2,114.5-273,227.7-461.1,318.7c-188.2,91-378.6,149.1-536.1,163.6
									C1146.4,1635.6,1122.4,1636.8,1099.8,1636.8z M1097.5,1168.8c-170.3,140-250.7,277-210.4,360.3
									c31,64.1,133.9,93.1,282.3,79.4c154.7-14.2,342-71.5,527.6-161.2c185.6-89.7,346.8-201.1,454-313.4
									c102.8-107.8,144-206.5,113-270.6c-40.3-83.4-197.8-105.4-413.5-58.8l57.5,56.6c92.1-7.3,151.3,10.8,171.4,52.4
									c23.1,47.7-11.4,118.3-97.1,198.7c-82.3,77.2-203,156.2-339.8,222.3c-136.8,66.1-273.6,111.7-385.2,128.3
									c-116.3,17.3-193,0.5-216.1-47.2c-19.9-41.2,2.2-98.4,64.1-165.5L1097.5,1168.8z"/>
							</g>
						</g>
					</g>
				</g>
			</g>
			<g>
				<g>
					<g>
						<path class="st0" d="M1818.5,2639.9c-14.8,5.2-28.1,4.8-28.1,4.8s-40.2-51.8-13-127.5c0,0,14.1-3.9,30.6-2
							c21.1,2.5,46,14.5,49.7,56.8C1861.5,2615.2,1838.6,2632.8,1818.5,2639.9z"/>
					</g>
					<g class="st1">
						<path class="st2" d="M1818.5,2639.9c-14.8,5.2-28.1,4.8-28.1,4.8s-40.2-51.8-13-127.5c0,0,14.1-3.9,30.6-2
							c0,0,9.9,36.3,0,59.6C1808,2574.8,1832.7,2606.7,1818.5,2639.9z"/>
					</g>
					<g>
						<path class="st2" d="M1791.2,2656.7c-0.7,0-1.1,0-1.2,0l-5.7-0.2l-3.5-4.5c-1.8-2.3-43.9-58-14.8-138.9l2.1-5.9l6-1.7
							c1.6-0.4,38.8-10.4,67,9.1c16.7,11.6,26.3,30.5,28.6,56.2c2.3,26-3.8,46.9-18.2,62C1830.2,2655.5,1798,2656.7,1791.2,2656.7z
							 M1786.6,2527.7c-16.5,52.8,2,91.3,10,104.6c8.9-0.8,26.1-4,37.5-16.1c9.3-9.9,13.2-24.4,11.6-43.2
							c-1.6-18.2-7.7-31.1-18.2-38.5C1814.1,2525.2,1795.9,2526.3,1786.6,2527.7z"/>
					</g>
				</g>
				<g>
					<g>
						<path class="st0" d="M1724.7,2488.4c0,0-123.1-12.9-85.3,93.1c0,0-34.6,40.8,6.2,89.5c0,0-43.4,84.6,69.2,90.4
							c28,1.5,55.9-8.3,74.9-28.9c16.4-17.7,24.9-42.4-6.6-70.3c0,0,27.4-43.9-8.3-81.7C1774.9,2580.4,1815.7,2502.4,1724.7,2488.4z
							"/>
					</g>
					<g class="st1">
						<path class="st2" d="M1783.1,2662.1c0,0,27.4-43.9-8.3-81.7c0,0,40.8-78.1-50.2-92c0,0-36.1-3.8-63.2,9.6c0.3,0,0.4,0,0.4,0
							c91,14,50.2,92,50.2,92c35.7,37.7,8.3,81.7,8.3,81.7c31.5,27.9,23,52.6,6.6,70.3c-7,7.5-15.2,13.6-24.1,18.2
							c3.8,0.4,7.7,0.8,11.9,1c28,1.5,55.9-8.3,74.9-28.9C1806.1,2714.7,1814.7,2690.1,1783.1,2662.1z"/>
					</g>
					<g>
						<path class="st2" d="M1720.3,2773.5c-2,0-4.1,0-6.2-0.2c-40.9-2.1-68.1-14.5-81-36.9c-13.6-23.7-6.3-50.9-1.5-63.7
							c-28.1-38.1-18-74.7-5.7-93.4c-9.7-30.8-7.3-55.7,7-73.9c27.9-35.4,90.3-29.3,93-29l0.6,0.1c31.6,4.8,52.8,17.5,63,37.8
							c12.1,24,4.5,51.1-0.6,64.1c22.6,28.9,17.5,61.8,9,81.4c11.6,12.2,17.8,25.1,18.5,38.4c0.7,14.7-5.3,29-17.9,42.6
							C1779,2761.7,1750.8,2773.5,1720.3,2773.5z M1712.8,2499.9c-18.3,0-47.7,3.7-60.9,20.5c-9.8,12.5-10.2,31.7-1.2,57l2.3,6.5
							l-4.5,5.3c-2.8,3.4-26.7,34.7,6.2,73.9l5.2,6.1l-3.7,7.1c-0.1,0.2-13.9,28-2.2,48.1c10.6,18.4,39.2,23.6,61.3,24.7
							c25.7,1.3,49.5-7.8,65.5-25c8-8.6,11.8-17,11.4-25c-0.4-8.9-6.2-18.4-17.2-28.1l-7.6-6.8l5.4-8.7c0.9-1.4,21.9-36.7-6.8-67
							l-5.9-6.3l4-7.6c0.1-0.3,14.6-28.7,3.8-49.8c-6.5-12.8-21.6-21.1-44.8-24.7C1720.5,2500.1,1716.9,2499.9,1712.8,2499.9z"/>
					</g>
					<g>
						<path class="st2" d="M1707,2608.7c-41.6,0-71.4-15.6-73.3-16.6l11.4-21.3c2.4,1.3,60.3,31.1,124.4-1.2l10.9,21.6
							C1754.2,2604.4,1728.9,2608.7,1707,2608.7z"/>
					</g>
					<g>
						<path class="st2" d="M1703.2,2698.3c-38.8,0-62.9-16.4-64.5-17.5l13.9-19.7l-6.9,9.9l6.9-9.9c2.1,1.4,51.6,34.2,124.5-9.2
							l12.3,20.7C1756.3,2692.2,1727,2698.3,1703.2,2698.3z"/>
					</g>
				</g>
			</g>
		</g>
	</g>
</g>
</svg>
