<svg width="664" height="386" viewBox="0 0 664 386" fill="none" xmlns="http://www.w3.org/2000/svg">
<path d="M145.923 370.637C146.586 369.754 146.407 368.5 145.523 367.837L131.123 357.037C130.239 356.375 128.986 356.554 128.323 357.437C127.66 358.321 127.839 359.575 128.723 360.237L141.523 369.837L131.923 382.637C131.26 383.521 131.439 384.775 132.323 385.437C133.207 386.1 134.46 385.921 135.123 385.037L145.923 370.637ZM12.3409 210.283L10.5808 209.333L12.3409 210.283ZM650.9 122.942L652.695 123.822L650.9 122.942ZM144.04 367.457C143.378 367.552 142.716 367.641 142.056 367.724L142.556 371.693C143.238 371.607 143.921 371.515 144.606 371.417L144.04 367.457ZM138.107 368.156C136.787 368.278 135.472 368.378 134.161 368.455L134.397 372.448C135.752 372.368 137.112 372.265 138.476 372.139L138.107 368.156ZM130.187 368.623C128.865 368.657 127.547 368.668 126.236 368.657L126.203 372.657C127.559 372.668 128.921 372.657 130.289 372.622L130.187 368.623ZM122.257 368.557C120.937 368.501 119.622 368.423 118.314 368.323L118.01 372.312C119.363 372.415 120.722 372.495 122.088 372.553L122.257 368.557ZM114.35 367.953C113.036 367.807 111.728 367.64 110.427 367.451L109.853 371.41C111.198 371.605 112.551 371.778 113.91 371.928L114.35 367.953ZM106.503 366.813C105.2 366.579 103.906 366.323 102.618 366.046L101.778 369.957C103.108 370.243 104.447 370.508 105.794 370.75L106.503 366.813ZM98.7486 365.146C97.4647 364.824 96.1889 364.482 94.9217 364.119L93.8207 367.964C95.1305 368.339 96.4492 368.693 97.7765 369.026L98.7486 365.146ZM91.1216 362.962C89.8616 362.556 88.6106 362.129 87.3689 361.683L86.0161 365.447C87.2989 365.908 88.5915 366.349 89.8935 366.769L91.1216 362.962ZM83.6533 360.278C82.4224 359.79 81.2013 359.282 79.9902 358.756L78.3955 362.424C79.646 362.968 80.907 363.492 82.1782 363.996L83.6533 360.278ZM76.3729 357.114C75.1758 356.547 73.9893 355.962 72.8136 355.358L70.9877 358.917C72.2009 359.54 73.4255 360.144 74.6612 360.729L76.3729 357.114ZM69.3074 353.489C68.1484 352.847 67.0007 352.188 65.8647 351.512L63.8189 354.949C64.9905 355.647 66.1744 356.327 67.37 356.989L69.3074 353.489ZM62.4814 349.426C61.3644 348.714 60.2595 347.984 59.1671 347.239L56.9128 350.543C58.0389 351.312 59.1781 352.064 60.3299 352.799L62.4814 349.426ZM55.9178 344.949C54.8464 344.169 53.788 343.373 52.7429 342.562L50.2914 345.723C51.3683 346.558 52.4591 347.378 53.5634 348.182L55.9178 344.949ZM49.6379 340.078C48.6156 339.234 47.6071 338.376 46.6128 337.504L43.9752 340.511C44.9996 341.41 46.0386 342.294 47.092 343.163L49.6379 340.078ZM43.6624 334.837C42.6926 333.933 41.7374 333.016 40.7974 332.086L37.9843 334.93C38.9526 335.888 39.9366 336.832 40.9356 337.763L43.6624 334.837ZM38.0114 329.246C37.0974 328.286 36.1991 327.314 35.3167 326.329L32.3384 329C33.2474 330.013 34.1728 331.015 35.1143 332.004L38.0114 329.246ZM32.7054 323.327C31.8508 322.314 31.0128 321.29 30.1917 320.255L27.0582 322.741C27.9042 323.808 28.7677 324.863 29.6482 325.907L32.7054 323.327ZM27.7658 317.101C26.9743 316.038 26.2003 314.966 25.4443 313.884L22.1653 316.174C22.9447 317.29 23.7425 318.395 24.5583 319.49L27.7658 317.101ZM23.2153 310.586C22.4904 309.477 21.784 308.359 21.0967 307.233L17.6822 309.316C18.3912 310.478 19.1197 311.631 19.8673 312.775L23.2153 310.586ZM19.0786 303.805C18.4244 302.653 17.7901 301.493 17.1758 300.325L13.6359 302.188C14.2701 303.393 14.9249 304.591 15.6 305.78L19.0786 303.805ZM15.3824 296.779C14.8039 295.586 14.2462 294.388 13.71 293.183L10.0557 294.81C10.61 296.055 11.1862 297.294 11.7839 298.525L15.3824 296.779ZM12.1565 289.53C11.6587 288.302 11.1831 287.068 10.7302 285.83L6.97373 287.205C7.44258 288.486 7.93467 289.762 8.44953 291.032L12.1565 289.53ZM9.43317 282.084C9.02189 280.825 8.63413 279.561 8.27029 278.295L4.42575 279.399C4.80294 280.712 5.20478 282.021 5.6308 283.326L9.43317 282.084ZM7.24735 274.471C6.92878 273.185 6.63507 271.897 6.36665 270.607L2.45054 271.422C2.72933 272.762 3.03425 274.099 3.3648 275.433L7.24735 274.471ZM5.63614 266.724C5.41678 265.419 5.22363 264.113 5.05712 262.806L1.08921 263.312C1.2625 264.671 1.46342 266.03 1.69147 267.387L5.63614 266.724ZM4.63751 258.881C4.52398 257.564 4.43792 256.249 4.3798 254.934L0.383702 255.111C0.444321 256.482 0.534031 257.853 0.652306 259.224L4.63751 258.881ZM4.28963 250.989C4.28787 249.671 4.31475 248.355 4.37073 247.042L0.374357 246.872C0.315862 248.244 0.2878 249.618 0.289635 250.994L4.28963 250.989ZM4.62677 243.107C4.7417 241.797 4.88631 240.491 5.06106 239.188L1.0966 238.656C0.913632 240.02 0.762304 241.387 0.642076 242.757L4.62677 243.107ZM5.67571 235.298C5.91094 234.006 6.17672 232.719 6.47351 231.437L2.57667 230.535C2.26547 231.878 1.98689 233.227 1.74041 234.581L5.67571 235.298ZM7.45257 227.628C7.80939 226.366 8.19733 225.111 8.61685 223.863L4.82524 222.588C4.38496 223.898 3.9779 225.216 3.60356 226.539L7.45257 227.628ZM9.95929 220.168C10.4359 218.95 10.9438 217.739 11.4834 216.537L7.83402 214.899C7.2676 216.161 6.7345 217.432 6.23423 218.711L9.95929 220.168ZM13.181 212.988C13.4797 212.401 13.7863 211.815 14.1009 211.233L10.5808 209.333C10.2508 209.944 9.92908 210.558 9.61564 211.175L13.181 212.988ZM14.1009 211.233C14.4252 210.632 14.7514 210.034 15.0795 209.439L11.5774 207.507C11.2432 208.112 10.911 208.721 10.5808 209.333L14.1009 211.233ZM17.0717 205.909C17.7435 204.744 18.423 203.592 19.1101 202.451L15.684 200.387C14.9837 201.549 14.2913 202.723 13.6068 203.91L17.0717 205.909ZM21.1942 199.067C21.8964 197.951 22.6062 196.847 23.3234 195.754L19.9798 193.559C19.2483 194.673 18.5245 195.799 17.8085 196.937L21.1942 199.067ZM25.4972 192.513C26.2368 191.434 26.9839 190.366 27.7385 189.31L24.4842 186.985C23.7142 188.062 22.9518 189.151 22.1973 190.253L25.4972 192.513ZM30.1208 186.05C30.9228 184.975 31.7329 183.914 32.5507 182.865L29.3966 180.405C28.5615 181.476 27.7345 182.56 26.9157 183.656L30.1208 186.05ZM35.0278 179.757C35.8613 178.734 36.7025 177.723 37.5514 176.725L34.5038 174.134C33.6367 175.154 32.7775 176.186 31.9262 177.232L35.0278 179.757ZM40.1208 173.766C40.9915 172.785 41.8699 171.816 42.7558 170.86L39.8213 168.142C38.916 169.119 38.0185 170.109 37.1289 171.111L40.1208 173.766ZM45.5135 167.947C46.4406 166.989 47.3756 166.045 48.3185 165.112L45.5061 162.268C44.5425 163.221 43.5869 164.186 42.6393 165.165L45.5135 167.947ZM51.1702 162.354C52.1285 161.447 53.0945 160.553 54.0681 159.671L51.383 156.706C50.3878 157.608 49.4004 158.522 48.4209 159.449L51.1702 162.354ZM57.0115 157.063C58.0088 156.199 59.0138 155.347 60.0262 154.507L57.4729 151.428C56.4381 152.286 55.4109 153.157 54.3915 154.041L57.0115 157.063ZM63.1211 151.998C64.1603 151.174 65.207 150.362 66.2612 149.563L63.8451 146.375C62.7678 147.192 61.698 148.021 60.636 148.863L63.1211 151.998ZM69.4461 147.203C70.5151 146.429 71.5914 145.667 72.6749 144.916L70.3982 141.628C69.2913 142.394 68.1916 143.173 67.0994 143.964L69.4461 147.203ZM75.9471 142.702C77.05 141.973 78.16 141.256 79.2771 140.55L77.1414 137.168C76.0007 137.888 74.867 138.621 73.7406 139.366L75.9471 142.702ZM82.654 138.467C83.7867 137.784 84.9263 137.113 86.0728 136.454L84.0788 132.986C82.9087 133.659 81.7455 134.344 80.5892 135.041L82.654 138.467ZM89.5326 134.511C90.6926 133.875 91.8594 133.25 93.0327 132.637L91.1798 129.092C89.983 129.717 88.7928 130.354 87.6092 131.003L89.5326 134.511ZM96.5698 130.832C97.7496 130.244 98.9359 129.668 100.128 129.103L98.4146 125.488C97.1991 126.065 95.9898 126.652 94.7868 127.251L96.5698 130.832ZM103.725 127.439C104.93 126.895 106.141 126.362 107.359 125.84L105.781 122.164C104.541 122.696 103.308 123.239 102.08 123.793L103.725 127.439ZM111.029 124.304C112.258 123.803 113.494 123.312 114.735 122.832L113.291 119.102C112.028 119.591 110.77 120.09 109.519 120.6L111.029 124.304ZM118.451 121.431C119.686 120.978 120.927 120.534 122.174 120.1L120.859 116.322C119.591 116.764 118.329 117.215 117.072 117.676L118.451 121.431ZM125.929 118.828C127.186 118.414 128.449 118.009 129.717 117.614L128.527 113.795C127.238 114.197 125.955 114.608 124.677 115.029L125.929 118.828ZM133.536 116.457C134.814 116.081 136.097 115.714 137.386 115.356L136.316 111.502C135.008 111.865 133.705 112.238 132.406 112.62L133.536 116.457ZM141.211 114.326C142.484 113.993 143.763 113.668 145.046 113.353L144.09 109.468C142.789 109.789 141.492 110.118 140.199 110.456L141.211 114.326ZM148.908 112.432C150.2 112.133 151.497 111.844 152.798 111.562L151.952 107.653C150.633 107.938 149.318 108.232 148.008 108.534L148.908 112.432ZM156.713 110.743C158.023 110.478 159.336 110.222 160.654 109.973L159.914 106.042C158.579 106.294 157.247 106.554 155.92 106.822L156.713 110.743ZM164.545 109.266C165.844 109.038 167.145 108.818 168.451 108.606L167.809 104.658C166.487 104.873 165.169 105.095 163.855 105.326L164.545 109.266ZM172.38 107.992C173.693 107.794 175.009 107.605 176.33 107.422L175.782 103.46C174.446 103.644 173.114 103.836 171.785 104.036L172.38 107.992ZM180.301 106.896C181.629 106.729 182.96 106.568 184.294 106.414L183.836 102.44C182.487 102.596 181.142 102.758 179.799 102.928L180.301 106.896ZM188.228 105.982C189.54 105.846 190.856 105.715 192.174 105.592L191.801 101.609C190.469 101.734 189.139 101.866 187.813 102.004L188.228 105.982ZM196.139 105.24C197.463 105.129 198.79 105.025 200.12 104.927L199.827 100.938C198.484 101.037 197.143 101.142 195.806 101.254L196.139 105.24ZM204.119 104.653C205.455 104.567 206.793 104.488 208.134 104.415L207.917 100.421C206.563 100.495 205.213 100.575 203.864 100.661L204.119 104.653ZM212.1 104.218C213.42 104.158 214.742 104.104 216.066 104.055L215.92 100.058C214.584 100.107 213.25 100.161 211.919 100.222L212.1 104.218ZM220.046 103.927C221.375 103.889 222.707 103.858 224.04 103.831L223.961 99.8322C222.617 99.8587 221.275 99.8906 219.934 99.9282L220.046 103.927ZM228.046 103.769C229.384 103.753 230.723 103.743 232.065 103.738L232.05 99.7384C230.698 99.7433 229.348 99.7536 228 99.7692L228.046 103.769ZM236.055 103.739C237.378 103.744 238.702 103.754 240.028 103.769L240.074 99.7697C238.738 99.7546 237.404 99.7443 236.071 99.739L236.055 103.739ZM244.012 103.829C245.341 103.854 246.673 103.883 248.005 103.917L248.107 99.9182C246.765 99.884 245.425 99.8544 244.086 99.8296L244.012 103.829ZM252.008 104.033C253.343 104.076 254.68 104.124 256.019 104.176L256.175 100.179C254.827 100.126 253.482 100.078 252.137 100.035L252.008 104.033ZM260.024 104.345C261.348 104.405 262.672 104.469 263.998 104.537L264.204 100.543C262.87 100.474 261.537 100.409 260.206 100.349L260.024 104.345ZM267.978 104.755C269.306 104.831 270.635 104.912 271.965 104.996L272.218 101.004C270.881 100.919 269.544 100.838 268.208 100.761L267.978 104.755ZM275.957 105.261C277.289 105.354 278.622 105.45 279.955 105.549L280.254 101.56C278.913 101.46 277.573 101.364 276.234 101.271L275.957 105.261ZM283.958 105.86C285.283 105.966 286.609 106.076 287.935 106.189L288.275 102.203C286.942 102.09 285.61 101.979 284.278 101.872L283.958 105.86ZM291.91 106.539C293.236 106.659 294.562 106.782 295.888 106.908L296.268 102.927C294.935 102.799 293.603 102.675 292.27 102.555L291.91 106.539ZM299.869 107.298C301.196 107.431 302.524 107.567 303.852 107.706L304.269 103.728C302.935 103.588 301.601 103.451 300.268 103.318L299.869 107.298ZM307.837 108.133C309.164 108.278 310.49 108.426 311.817 108.577L312.269 104.603C310.937 104.451 309.604 104.303 308.272 104.157L307.837 108.133ZM315.788 109.037C317.111 109.193 318.435 109.352 319.758 109.514L320.243 105.543C318.914 105.381 317.585 105.221 316.256 105.065L315.788 109.037ZM323.729 110.006C325.052 110.173 326.375 110.342 327.698 110.514L328.213 106.547C326.885 106.375 325.557 106.205 324.229 106.038L323.729 110.006ZM331.667 111.037C332.989 111.213 334.311 111.392 335.633 111.574L336.177 107.611C334.85 107.429 333.523 107.249 332.196 107.072L331.667 111.037ZM339.602 112.125C340.924 112.311 342.246 112.499 343.567 112.689L344.137 108.73C342.812 108.539 341.485 108.35 340.158 108.164L339.602 112.125ZM347.53 113.266C348.851 113.46 350.17 113.656 351.489 113.854L352.084 109.899C350.761 109.7 349.437 109.503 348.113 109.308L347.53 113.266ZM355.444 114.455C356.762 114.656 358.079 114.86 359.395 115.066L360.012 111.113C358.692 110.907 357.372 110.703 356.05 110.501L355.444 114.455ZM363.35 115.688C364.673 115.898 365.995 116.11 367.316 116.323L367.953 112.374C366.629 112.161 365.304 111.948 363.977 111.738L363.35 115.688ZM371.275 116.968C372.594 117.184 373.912 117.401 375.228 117.62L375.884 113.675C374.565 113.455 373.244 113.237 371.922 113.02L371.275 116.968ZM379.174 118.281C380.488 118.503 381.801 118.726 383.112 118.949L383.785 115.007C382.471 114.782 381.156 114.559 379.839 114.337L379.174 118.281ZM387.042 119.625C388.366 119.853 389.688 120.083 391.009 120.314L391.697 116.373C390.374 116.142 389.049 115.912 387.723 115.683L387.042 119.625ZM394.97 121.01C396.289 121.242 397.606 121.476 398.922 121.71L399.623 117.772C398.306 117.538 396.987 117.304 395.665 117.07L394.97 121.01ZM402.863 122.416C404.175 122.652 405.485 122.888 406.793 123.125L407.506 119.189C406.196 118.952 404.884 118.715 403.571 118.479L402.863 122.416ZM410.712 123.838C412.029 124.079 413.345 124.32 414.659 124.561L415.382 120.627C414.067 120.385 412.749 120.144 411.43 119.903L410.712 123.838ZM418.628 125.292C419.948 125.537 421.267 125.781 422.583 126.025L423.313 122.093C421.996 121.848 420.676 121.603 419.355 121.359L418.628 125.292ZM426.524 126.759C427.835 127.004 429.144 127.248 430.45 127.493L431.186 123.561C429.879 123.317 428.569 123.072 427.257 122.827L426.524 126.759ZM434.361 128.227C435.672 128.473 436.981 128.719 438.286 128.965L439.026 125.034C437.72 124.788 436.411 124.542 435.099 124.295L434.361 128.227ZM442.267 129.715C443.591 129.964 444.912 130.214 446.229 130.462L446.971 126.532C445.653 126.283 444.332 126.034 443.008 125.784L442.267 129.715ZM450.174 131.206C451.486 131.454 452.794 131.701 454.099 131.947L454.84 128.016C453.535 127.77 452.227 127.523 450.915 127.276L450.174 131.206ZM458.006 132.682C459.313 132.928 460.617 133.174 461.918 133.418L462.656 129.486C461.356 129.242 460.052 128.997 458.745 128.751L458.006 132.682ZM465.914 134.166C467.242 134.415 468.566 134.662 469.887 134.908L470.619 130.976C469.3 130.73 467.976 130.483 466.649 130.235L465.914 134.166ZM473.837 135.641C475.149 135.885 476.458 136.126 477.763 136.366L478.486 132.432C477.183 132.192 475.876 131.951 474.565 131.708L473.837 135.641ZM481.664 137.081C482.977 137.321 484.286 137.559 485.59 137.795L486.302 133.859C485 133.624 483.693 133.386 482.382 133.146L481.664 137.081ZM489.602 138.518C490.934 138.757 492.262 138.994 493.585 139.228L494.283 135.289C492.963 135.055 491.638 134.819 490.307 134.581L489.602 138.518ZM497.538 139.924C498.851 140.153 500.159 140.381 501.461 140.605L502.141 136.663C500.842 136.439 499.537 136.213 498.227 135.984L497.538 139.924ZM505.353 141.271C506.689 141.497 508.019 141.721 509.344 141.942L510.001 137.996C508.681 137.776 507.354 137.553 506.022 137.327L505.353 141.271ZM513.367 142.605C514.702 142.823 516.031 143.037 517.354 143.248L517.984 139.298C516.666 139.088 515.342 138.874 514.011 138.657L513.367 142.605ZM521.303 143.87C522.613 144.074 523.916 144.274 525.213 144.47L525.811 140.515C524.52 140.32 523.222 140.121 521.917 139.918L521.303 143.87ZM529.152 145.056C530.515 145.256 531.871 145.451 533.219 145.641L533.778 141.68C532.437 141.491 531.088 141.297 529.731 141.098L529.152 145.056ZM537.24 146.197C538.572 146.378 539.897 146.553 541.213 146.724L541.726 142.757C540.418 142.587 539.101 142.413 537.777 142.234L537.24 146.197ZM545.138 147.219C546.46 147.381 547.773 147.538 549.077 147.689L549.537 143.715C548.242 143.565 546.938 143.41 545.626 143.249L545.138 147.219ZM553.183 148.147C554.541 148.294 555.89 148.433 557.229 148.566L557.623 144.585C556.296 144.454 554.958 144.315 553.611 144.17L553.183 148.147ZM561.215 148.942C562.533 149.06 563.841 149.171 565.139 149.275L565.457 145.287C564.173 145.185 562.878 145.075 561.572 144.958L561.215 148.942ZM569.17 149.574C570.557 149.669 571.931 149.755 573.292 149.832L573.516 145.838C572.172 145.763 570.815 145.678 569.444 145.584L569.17 149.574ZM577.336 150.032C578.671 150.089 579.993 150.136 581.301 150.173L581.414 146.175C580.126 146.139 578.823 146.092 577.507 146.036L577.336 150.032ZM585.255 150.254C586.665 150.272 588.059 150.276 589.435 150.268L589.41 146.268C588.059 146.276 586.69 146.272 585.304 146.254L585.255 150.254ZM593.515 150.202C594.858 150.166 596.184 150.117 597.492 150.053L597.298 146.058C596.02 146.12 594.724 146.168 593.409 146.203L593.515 150.202ZM601.468 149.812C602.885 149.708 604.279 149.586 605.652 149.445L605.243 145.466C603.911 145.603 602.555 145.721 601.175 145.823L601.468 149.812ZM609.7 148.965C611.027 148.785 612.331 148.586 613.612 148.367L612.936 144.424C611.704 144.635 610.447 144.827 609.164 145.001L609.7 148.965ZM617.699 147.579C619.078 147.282 620.427 146.959 621.745 146.608L620.715 142.743C619.463 143.076 618.176 143.385 616.857 143.669L617.699 147.579ZM625.607 145.47C626.942 145.037 628.243 144.571 629.506 144.07L628.034 140.351C626.853 140.819 625.632 141.257 624.372 141.666L625.607 145.47ZM633.36 142.383C634.604 141.782 635.806 141.142 636.966 140.461L634.94 137.012C633.878 137.635 632.771 138.225 631.62 138.782L633.36 142.383ZM640.497 138.164C641.648 137.335 642.747 136.457 643.792 135.529L641.135 132.539C640.195 133.374 639.203 134.166 638.159 134.918L640.497 138.164ZM646.763 132.588C647.703 131.551 648.585 130.461 649.407 129.319L646.161 126.982C645.426 128.002 644.638 128.975 643.798 129.903L646.763 132.588ZM651.692 125.733C652.042 125.109 652.377 124.473 652.695 123.822L649.104 122.061C648.818 122.645 648.517 123.217 648.204 123.776L651.692 125.733ZM652.695 123.822C653.008 123.185 653.313 122.551 653.612 121.92L649.995 120.211C649.705 120.824 649.408 121.441 649.104 122.061L652.695 123.822ZM655.316 118.169C655.856 116.931 656.368 115.704 656.851 114.49L653.135 113.01C652.668 114.184 652.173 115.37 651.649 116.571L655.316 118.169ZM658.329 110.576C658.791 109.28 659.22 107.997 659.617 106.727L655.8 105.533C655.419 106.751 655.006 107.985 654.561 109.234L658.329 110.576ZM660.764 102.766C661.122 101.417 661.443 100.085 661.727 98.7676L657.817 97.9253C657.547 99.1787 657.241 100.45 656.898 101.739L660.764 102.766ZM662.489 94.7277C662.713 93.3405 662.895 91.9714 663.034 90.6201L659.056 90.2093C658.924 91.4827 658.753 92.7761 658.541 94.0899L662.489 94.7277ZM663.333 86.4996C663.39 85.0946 663.4 83.7099 663.364 82.3454L659.366 82.4513C659.399 83.7242 659.39 85.0191 659.336 86.3363L663.333 86.4996ZM663.106 78.1895C662.968 76.7951 662.779 75.4232 662.541 74.0737L658.602 74.7682C658.822 76.0169 658.997 77.2884 659.125 78.5833L663.106 78.1895ZM661.651 69.9794C661.3 68.6269 660.896 67.2989 660.443 65.9951L656.665 67.31C657.083 68.512 657.455 69.7368 657.779 70.985L661.651 69.9794ZM658.905 62.0977C658.342 60.8241 657.728 59.5759 657.065 58.3527L653.548 60.2577C654.161 61.3885 654.727 62.541 655.247 63.7159L658.905 62.0977ZM654.935 54.76C654.186 53.601 653.391 52.4665 652.552 51.3559L649.36 53.7668C650.142 54.8014 650.88 55.856 651.575 56.9311L654.935 54.76ZM649.918 48.1113C649.023 47.0825 648.088 46.0759 647.115 45.0909L644.27 47.9021C645.185 48.8289 646.062 49.7738 646.9 50.7369L649.918 48.1113ZM644.11 42.2256C643.1 41.3169 642.056 40.4278 640.979 39.5579L638.466 42.6701C639.49 43.4968 640.48 44.3397 641.435 45.1992L644.11 42.2256ZM637.707 37.0481C636.612 36.2492 635.487 35.4675 634.335 34.7027L632.123 38.0358C633.228 38.769 634.304 39.5169 635.349 40.2795L637.707 37.0481ZM630.872 32.5067C629.716 31.8054 628.535 31.1192 627.329 30.4476L625.383 33.942C626.547 34.5904 627.685 35.2519 628.798 35.9266L630.872 32.5067ZM623.726 28.5203C622.527 27.9045 621.307 27.3018 620.066 26.7119L618.349 30.3246C619.554 30.8974 620.737 31.4819 621.898 32.0783L623.726 28.5203ZM616.354 25.0124C615.125 24.4708 613.879 23.9406 612.614 23.4218L611.096 27.1223C612.329 27.6285 613.544 28.1451 614.74 28.6723L616.354 25.0124ZM608.812 21.9157C607.564 21.4384 606.3 20.9712 605.021 20.514L603.675 24.2806C604.927 24.7283 606.164 25.1853 607.384 25.6518L608.812 21.9157ZM601.143 19.1737C599.882 18.7521 598.607 18.3396 597.319 17.936L596.123 21.7529C597.387 22.1493 598.638 22.5541 599.875 22.9674L601.143 19.1737ZM593.415 16.7513C592.131 16.3742 590.836 16.0054 589.529 15.6446L588.465 19.5004C589.751 19.8555 591.025 20.2183 592.287 20.589L593.415 16.7513ZM585.615 14.5972C584.31 14.2588 582.995 13.928 581.669 13.6047L580.721 17.4908C582.029 17.8096 583.325 18.1357 584.611 18.4691L585.615 14.5972ZM577.751 12.6776C576.436 12.3756 575.111 12.0806 573.777 11.7925L572.932 15.7023C574.25 15.9869 575.558 16.2782 576.856 16.5762L577.751 12.6776ZM569.834 10.966C568.52 10.6987 567.197 10.4377 565.867 10.1829L565.114 14.1115C566.43 14.3635 567.738 14.6215 569.037 14.8858L569.834 10.966ZM561.872 9.44073C560.559 9.20406 559.239 8.97318 557.912 8.74797L557.243 12.6916C558.557 12.9146 559.864 13.1431 561.163 13.3773L561.872 9.44073ZM553.912 8.08924C552.588 7.87785 551.258 7.67188 549.922 7.47121L549.328 11.4268C550.652 11.6257 551.97 11.8298 553.281 12.0392L553.912 8.08924ZM545.933 6.89015C544.597 6.70161 543.257 6.51816 541.911 6.33969L541.385 10.305C542.72 10.482 544.05 10.6639 545.373 10.8509L545.933 6.89015ZM537.922 5.82717C536.591 5.66144 535.255 5.50041 533.914 5.34398L533.451 9.31702C534.781 9.47229 536.107 9.63209 537.428 9.79654L537.922 5.82717ZM529.889 4.88937C528.56 4.74419 527.227 4.60338 525.89 4.46684L525.484 8.44613C526.811 8.58174 528.135 8.72157 529.455 8.86572L529.889 4.88937ZM521.87 4.06993C520.532 3.94238 519.191 3.81896 517.847 3.69958L517.493 7.68389C518.829 7.80253 520.161 7.92515 521.49 8.05187L521.87 4.06993ZM513.836 3.3559C512.496 3.24526 511.154 3.1385 509.809 3.03553L509.504 7.02386C510.841 7.12623 512.175 7.23236 513.507 7.34233L513.836 3.3559ZM505.787 2.73924C504.449 2.64453 503.109 2.55345 501.767 2.46591L501.507 6.45742C502.841 6.54449 504.174 6.63507 505.504 6.72926L505.787 2.73924ZM497.737 2.21381C496.397 2.13357 495.056 2.05675 493.713 1.98326L493.495 5.97728C494.83 6.0504 496.165 6.12683 497.498 6.20666L497.737 2.21381ZM489.689 1.77299C488.346 1.70617 487.003 1.64257 485.658 1.58211L485.479 5.57807C486.817 5.63825 488.154 5.70154 489.49 5.76805L489.689 1.77299ZM481.632 1.41038C480.29 1.35622 478.947 1.3051 477.605 1.25693L477.461 5.25436C478.798 5.30232 480.135 5.35322 481.471 5.40713L481.632 1.41038ZM473.577 1.12116C472.233 1.07875 470.889 1.03921 469.546 1.00243L469.437 5.00094C470.774 5.03756 472.112 5.07694 473.451 5.11917L473.577 1.12116ZM465.518 0.900355C464.175 0.869022 462.833 0.840377 461.492 0.814331L461.414 4.81358C462.75 4.83952 464.087 4.86806 465.425 4.89927L465.518 0.900355ZM457.458 0.743674C456.114 0.722678 454.772 0.70421 453.431 0.688178L453.384 4.68789C454.719 4.70387 456.057 4.72227 457.395 4.74319L457.458 0.743674ZM449.405 0.647215C448.058 0.63589 446.712 0.626945 445.369 0.620289L445.349 4.62024C446.688 4.62687 448.029 4.63579 449.371 4.64707L449.405 0.647215ZM441.347 0.607092C440.677 0.606006 440.009 0.605469 439.341 0.605469V4.60547C440.007 4.60547 440.673 4.606 441.34 4.60709L441.347 0.607092Z" fill="white"/>
</svg>
