<?xml version="1.0" encoding="utf-8"?>
<!-- Generator: Adobe Illustrator 27.5.0, SVG Export Plug-In . SVG Version: 6.00 Build 0)  -->
<svg version="1.1" xmlns="http://www.w3.org/2000/svg" xmlns:xlink="http://www.w3.org/1999/xlink" x="0px" y="0px"
	 viewBox="0 0 750 500" style="enable-background:new 0 0 750 500;" xml:space="preserve">
<g id="BACKGROUND_02">
	<g>
		<rect style="fill:#3A76A3;" width="750" height="500"/>
		<linearGradient id="SVGID_1_" gradientUnits="userSpaceOnUse" x1="375" y1="515.43" x2="375" y2="-493.39">
			<stop  offset="0" style="stop-color:#000000;stop-opacity:0"/>
			<stop  offset="1" style="stop-color:#000000"/>
		</linearGradient>
		<rect style="fill:url(#SVGID_1_);" width="750" height="500"/>
		
			<linearGradient id="SVGID_00000096058909184326890450000010004154113114418338_" gradientUnits="userSpaceOnUse" x1="375" y1="481.43" x2="375" y2="-527.39">
			<stop  offset="0" style="stop-color:#000000;stop-opacity:0"/>
			<stop  offset="1" style="stop-color:#000000"/>
		</linearGradient>
		<rect style="fill:url(#SVGID_00000096058909184326890450000010004154113114418338_);" width="750" height="500"/>
		<g>
			<defs>
				<rect id="SVGID_00000114060988681385110920000005278928427672811911_" width="750" height="500"/>
			</defs>
			<clipPath id="SVGID_00000083086722550563286930000013403758263256080784_">
				<use xlink:href="#SVGID_00000114060988681385110920000005278928427672811911_"  style="overflow:visible;"/>
			</clipPath>
			
				<polygon style="opacity:0.35;clip-path:url(#SVGID_00000083086722550563286930000013403758263256080784_);fill:#10142B;" points="
				-22.595,360.222 79.117,117.879 215.745,364.306 271.914,296.232 438.905,545.383 274.951,640.686 -5.896,621.625 			"/>
			<g style="clip-path:url(#SVGID_00000083086722550563286930000013403758263256080784_);">
				<path style="fill:#23436B;" d="M714.932,632.918c-5.715-1.281-232.893-294.72-232.893-294.72L293.438,639.325L714.932,632.918z"
					/>
				<polygon style="opacity:0.56;fill:#10142B;" points="482.039,339.479 504.899,399.704 476.323,407.393 493.469,424.051 
					453.463,444.553 476.323,485.558 293.438,639.325 712.074,631.636 				"/>
				
					<linearGradient id="SVGID_00000038387508151231950700000013601997947635655339_" gradientUnits="userSpaceOnUse" x1="385.2068" y1="487.2337" x2="669.115" y2="658.5386">
					<stop  offset="0" style="stop-color:#000000;stop-opacity:0"/>
					<stop  offset="1" style="stop-color:#000000"/>
				</linearGradient>
				<path style="fill:url(#SVGID_00000038387508151231950700000013601997947635655339_);" d="M714.932,632.918
					c-5.715-1.281-232.893-294.72-232.893-294.72L293.438,639.325L714.932,632.918z"/>
			</g>
			<g style="clip-path:url(#SVGID_00000083086722550563286930000013403758263256080784_);">
				<path style="fill:#1B3454;" d="M867.006,560.359c-16.969-12.466-192.571-378.491-192.571-378.491
					S455.538,602.925,464.023,602.925C472.507,602.925,867.006,560.359,867.006,560.359z"/>
				<path style="opacity:0.56;fill:#10142B;" d="M674.435,183.253l15.272,90.029l-42.422,33.241l16.969,15.236l-25.453,22.161
					l55.997,66.483c0,0-240.956,202.218-234.169,199.448c6.788-2.77,398.766-58.172,398.766-58.172L674.435,183.253z"/>
				
					<linearGradient id="SVGID_00000060022880354666770160000016030891731141841807_" gradientUnits="userSpaceOnUse" x1="527.7344" y1="340.153" x2="791.482" y2="672.6108">
					<stop  offset="0" style="stop-color:#000000;stop-opacity:0"/>
					<stop  offset="1" style="stop-color:#000000"/>
				</linearGradient>
				<path style="fill:url(#SVGID_00000060022880354666770160000016030891731141841807_);" d="M859.395,554.448l-184.959-372.58
					c0,0-218.897,421.057-210.412,421.057C472.507,602.925,859.395,554.448,859.395,554.448z"/>
			</g>
			<g style="clip-path:url(#SVGID_00000083086722550563286930000013403758263256080784_);">
				<path style="fill:#10142B;" d="M-141.006,281.886L46.508,412.653l73.301-72.266l349.458,249.491
					c0,0-513.106,92.914-513.106,103.237C-43.84,703.439-141.006,281.886-141.006,281.886z"/>
				<polygon style="fill:#203E63;" points="119.809,340.387 78.896,419.536 123.218,469.434 56.736,595.039 469.266,589.878 				"/>
				
					<linearGradient id="SVGID_00000125596112697412291410000006371132308856659638_" gradientUnits="userSpaceOnUse" x1="-141.0063" y1="487.5936" x2="469.2664" y2="487.5936">
					<stop  offset="0" style="stop-color:#000000;stop-opacity:0"/>
					<stop  offset="1" style="stop-color:#000000"/>
				</linearGradient>
				<path style="fill:url(#SVGID_00000125596112697412291410000006371132308856659638_);" d="M-141.006,281.886L46.508,412.653
					l73.301-72.266l349.458,249.491c0,0-513.106,92.914-513.106,103.237C-43.84,703.439-141.006,281.886-141.006,281.886z"/>
			</g>
		</g>
		<g>
			<g>
				<g>
					<path style="fill:#FFFFFF;" d="M246.006,172.701c0.558,0,0.559-0.867,0-0.867C245.448,171.833,245.447,172.701,246.006,172.701
						L246.006,172.701z"/>
				</g>
			</g>
			<g>
				<g>
					<path style="fill:#FFFFFF;" d="M243.006,192.724c0.588,0,0.589-0.914,0-0.914C242.418,191.81,242.417,192.724,243.006,192.724
						L243.006,192.724z"/>
				</g>
			</g>
			<g>
				<g>
					<path style="fill:#FFFFFF;" d="M174.006,261.533c0.342,0,0.342-0.531,0-0.531C173.664,261.001,173.664,261.533,174.006,261.533
						L174.006,261.533z"/>
				</g>
			</g>
			<g>
				<g>
					<path style="fill:#FFFFFF;" d="M200.006,237.658c0.503,0,0.503-0.781,0-0.781C199.504,236.876,199.503,237.658,200.006,237.658
						L200.006,237.658z"/>
				</g>
			</g>
			<g>
				<g>
					<path style="fill:#FFFFFF;" d="M98.006,104.095c1.066,0,1.067-1.656,0-1.656C96.941,102.439,96.939,104.095,98.006,104.095
						L98.006,104.095z"/>
				</g>
			</g>
			<g>
				<g>
					<path style="fill:#FFFFFF;" d="M50.006,122.767c0.643,0,0.644-1,0-1C49.363,121.767,49.362,122.767,50.006,122.767
						L50.006,122.767z"/>
				</g>
			</g>
			<g>
				<g>
					<path style="fill:#FFFFFF;" d="M31.006,190.314c1.347,0,1.349-2.094,0-2.094C29.659,188.22,29.657,190.314,31.006,190.314
						L31.006,190.314z"/>
				</g>
			</g>
			<g>
				<g>
					<path style="fill:#FFFFFF;" d="M22.006,159.517c0.322,0,0.322-0.5,0-0.5C21.685,159.017,21.684,159.517,22.006,159.517
						L22.006,159.517z"/>
				</g>
			</g>
			<g>
				<g>
					<path style="fill:#FFFFFF;" d="M52.006,145.626c0.462,0,0.463-0.719,0-0.719C51.544,144.908,51.543,145.626,52.006,145.626
						L52.006,145.626z"/>
				</g>
			</g>
			<g>
				<g>
					<path style="fill:#FFFFFF;" d="M19.006,217.158c1.146,0,1.148-1.781,0-1.781C17.86,215.376,17.858,217.158,19.006,217.158
						L19.006,217.158z"/>
				</g>
			</g>
			<g>
				<g>
					<path style="fill:#FFFFFF;" d="M17.006,129.537c1.634,0,1.636-2.539,0-2.539C15.372,126.998,15.37,129.537,17.006,129.537
						L17.006,129.537z"/>
				</g>
			</g>
			<g>
				<g>
					<path style="fill:#FFFFFF;" d="M76.006,60.853c0.754,0,0.755-1.172,0-1.172C75.252,59.681,75.251,60.853,76.006,60.853
						L76.006,60.853z"/>
				</g>
			</g>
			<g>
				<g>
					<path style="fill:#FFFFFF;" d="M43.006,75.931c0.855,0,0.856-1.328,0-1.328C42.152,74.603,42.15,75.931,43.006,75.931
						L43.006,75.931z"/>
				</g>
			</g>
			<g>
				<g>
					<path style="fill:#FFFFFF;" d="M37.006,36.81c1.986,0,1.989-3.086,0-3.086C35.021,33.724,35.017,36.81,37.006,36.81
						L37.006,36.81z"/>
				</g>
			</g>
			<g>
				<g>
					<path style="fill:#FFFFFF;" d="M78.006,27.931c0.855,0,0.856-1.328,0-1.328C77.152,26.603,77.15,27.931,78.006,27.931
						L78.006,27.931z"/>
				</g>
			</g>
			<g>
				<g>
					<path style="fill:#FFFFFF;" d="M116.006,64.716c0.578,0,0.579-0.898,0-0.898C115.428,63.818,115.427,64.716,116.006,64.716
						L116.006,64.716z"/>
				</g>
			</g>
			<g>
				<g>
					<path style="fill:#FFFFFF;" d="M29.006,99.029c0.98,0,0.982-1.523,0-1.523C28.026,97.505,28.024,99.029,29.006,99.029
						L29.006,99.029z"/>
				</g>
			</g>
			<g>
				<g>
					<path style="fill:#FFFFFF;" d="M549.006,278.107c1.081,0,1.083-1.68,0-1.68C547.926,276.427,547.924,278.107,549.006,278.107
						L549.006,278.107z"/>
				</g>
			</g>
			<g>
				<g>
					<path style="fill:#FFFFFF;" d="M579.717,301.267c0.006,0.278,0.012,0.556,0.017,0.833c0.034,1.636,2.509,1.639,2.543,0
						c0.006-0.278,0.012-0.556,0.017-0.833C582.33,299.608,579.683,299.605,579.717,301.267L579.717,301.267z"/>
				</g>
			</g>
			<g>
				<g>
					<path style="fill:#FFFFFF;" d="M547.006,316.638c0.478,0,0.478-0.742,0-0.742C546.529,315.896,546.528,316.638,547.006,316.638
						L547.006,316.638z"/>
				</g>
			</g>
			<g>
				<g>
					<path style="fill:#FFFFFF;" d="M524.006,352.009c0.955,0,0.957-1.484,0-1.484C523.051,350.525,523.05,352.009,524.006,352.009
						L524.006,352.009z"/>
				</g>
			</g>
			<g>
				<g>
					<path style="fill:#FFFFFF;" d="M554.006,361.99c0.93,0,0.931-1.445,0-1.445C553.076,360.544,553.075,361.99,554.006,361.99
						L554.006,361.99z"/>
				</g>
			</g>
			<g>
				<g>
					<path style="fill:#FFFFFF;" d="M573.006,331.009c0.955,0,0.957-1.484,0-1.484C572.051,329.525,572.05,331.009,573.006,331.009
						L573.006,331.009z"/>
				</g>
			</g>
			<g>
				<g>
					<path style="fill:#FFFFFF;" d="M540.006,386.576c1.684,0,1.687-2.617,0-2.617C538.322,383.958,538.32,386.576,540.006,386.576
						L540.006,386.576z"/>
				</g>
			</g>
			<g>
				<g>
					<path style="fill:#FFFFFF;" d="M550.655,345.267c-0.007,0.352-0.07,0.748,0.05,1.083c0.106,0.296,0.496,0.296,0.603,0
						c0.121-0.335,0.058-0.731,0.05-1.083C551.348,344.815,550.664,344.814,550.655,345.267L550.655,345.267z"/>
				</g>
			</g>
			<g>
				<g>
					<path style="fill:#FFFFFF;" d="M423.006,403.712c1.86,0,1.863-2.891,0-2.891C421.146,400.822,421.143,403.712,423.006,403.712
						L423.006,403.712z"/>
				</g>
			</g>
			<g>
				<g>
					<path style="fill:#FFFFFF;" d="M386.006,442.185c1.181,0,1.183-1.836,0-1.836C384.825,440.349,384.823,442.185,386.006,442.185
						L386.006,442.185z"/>
				</g>
			</g>
			<g>
				<g>
					<path style="fill:#FFFFFF;" d="M445.006,344.302c1.332,0,1.334-2.07,0-2.07C443.674,342.232,443.672,344.302,445.006,344.302
						L445.006,344.302z"/>
				</g>
			</g>
			<g>
				<g>
					<path style="fill:#FFFFFF;" d="M673.006,95.298c2.614,0,2.618-4.063,0-4.063C670.392,91.236,670.388,95.298,673.006,95.298
						L673.006,95.298z"/>
				</g>
			</g>
			<g>
				<g>
					<path style="fill:#FFFFFF;" d="M643.006,116.595c1.709,0,1.712-2.656,0-2.656C641.297,113.939,641.294,116.595,643.006,116.595
						L643.006,116.595z"/>
				</g>
			</g>
			<g>
				<g>
					<path style="fill:#FFFFFF;" d="M644.006,80.794c0.679,0,0.68-1.055,0-1.055C643.328,79.74,643.327,80.794,644.006,80.794
						L644.006,80.794z"/>
				</g>
			</g>
			<g>
				<g>
					<path style="fill:#FFFFFF;" d="M622.006,117.931c0.855,0,0.856-1.328,0-1.328C621.152,116.603,621.15,117.931,622.006,117.931
						L622.006,117.931z"/>
				</g>
			</g>
			<g>
				<g>
					<path style="fill:#FFFFFF;" d="M693.006,44.146c1.131,0,1.133-1.758,0-1.758C691.875,42.388,691.873,44.146,693.006,44.146
						L693.006,44.146z"/>
				</g>
			</g>
			<g>
				<g>
					<path style="fill:#FFFFFF;" d="M651.006,44.009c0.955,0,0.957-1.484,0-1.484C650.051,42.525,650.05,44.009,651.006,44.009
						L651.006,44.009z"/>
				</g>
			</g>
			<g>
				<g>
					<path style="fill:#FFFFFF;" d="M635.006,61.576c1.684,0,1.687-2.617,0-2.617C633.322,58.958,633.32,61.576,635.006,61.576
						L635.006,61.576z"/>
				</g>
			</g>
			<g>
				<g>
					<path style="fill:#FFFFFF;" d="M725.006,28.498c1.583,0,1.586-2.461,0-2.461C723.423,26.037,723.42,28.498,725.006,28.498
						L725.006,28.498z"/>
				</g>
			</g>
			<g>
				<g>
					<path style="fill:#FFFFFF;" d="M680.006,24.439c1.508,0,1.511-2.344,0-2.344C678.498,22.095,678.496,24.439,680.006,24.439
						L680.006,24.439z"/>
				</g>
			</g>
			<g>
				<g>
					<path style="fill:#FFFFFF;" d="M731.006,86.439c1.508,0,1.511-2.344,0-2.344C729.498,84.095,729.496,86.439,731.006,86.439
						L731.006,86.439z"/>
				</g>
			</g>
			<g>
				<g>
					<path style="fill:#FFFFFF;" d="M668.006,153.165c1.156,0,1.158-1.797,0-1.797C666.85,151.369,666.848,153.165,668.006,153.165
						L668.006,153.165z"/>
				</g>
			</g>
			<g>
				<g>
					<path style="fill:#FFFFFF;" d="M638.006,167.244c1.257,0,1.259-1.953,0-1.953C636.75,165.29,636.747,167.244,638.006,167.244
						L638.006,167.244z"/>
				</g>
			</g>
			<g>
				<g>
					<path style="fill:#FFFFFF;" d="M710.245,127.267c-0.071,0.546-0.246,1.119,0.237,1.525c0.328,0.275,0.72,0.277,1.05,0
						c0.479-0.402,0.307-0.984,0.237-1.525C711.641,126.29,710.372,126.288,710.245,127.267L710.245,127.267z"/>
				</g>
			</g>
			<g>
				<g>
					<path style="fill:#FFFFFF;" d="M732.006,207.869c2.061,0,2.064-3.203,0-3.203C729.945,204.665,729.942,207.869,732.006,207.869
						L732.006,207.869z"/>
				</g>
			</g>
			<g>
				<g>
					<path style="fill:#FFFFFF;" d="M706.006,173.341c1.382,0,1.385-2.148,0-2.148C704.624,171.193,704.622,173.341,706.006,173.341
						L706.006,173.341z"/>
				</g>
			</g>
			<g>
				<g>
					<path style="fill:#FFFFFF;" d="M635.006,214.951c0.88,0,0.881-1.367,0-1.367C634.127,213.583,634.125,214.951,635.006,214.951
						L635.006,214.951z"/>
				</g>
			</g>
			<g>
				<g>
					<path style="fill:#FFFFFF;" d="M733.006,158.912c0.829,0,0.831-1.289,0-1.289C732.177,157.623,732.176,158.912,733.006,158.912
						L733.006,158.912z"/>
				</g>
			</g>
			<g>
				<g>
					<path style="fill:#FFFFFF;" d="M713.006,221.087c1.056,0,1.057-1.641,0-1.641C711.951,219.447,711.949,221.087,713.006,221.087
						L713.006,221.087z"/>
				</g>
			</g>
			<g>
				<g>
					<path style="fill:#FFFFFF;" d="M734.006,271.126c1.106,0,1.108-1.719,0-1.719C732.9,269.408,732.898,271.126,734.006,271.126
						L734.006,271.126z"/>
				</g>
			</g>
			<g>
				<g>
					<path style="fill:#FFFFFF;" d="M740.006,237.833c0.729,0,0.73-1.133,0-1.133C739.277,236.701,739.276,237.833,740.006,237.833
						L740.006,237.833z"/>
				</g>
			</g>
			<g>
				<g>
					<path style="fill:#FFFFFF;" d="M723.006,250.958c0.89,0,0.891-1.383,0-1.383C722.117,249.576,722.115,250.958,723.006,250.958
						L723.006,250.958z"/>
				</g>
			</g>
			<g>
				<g>
					<path style="fill:#FFFFFF;" d="M735.006,124.665c0.513,0,0.514-0.797,0-0.797C734.494,123.869,734.493,124.665,735.006,124.665
						L735.006,124.665z"/>
				</g>
			</g>
			<g>
				<g>
					<path style="fill:#FFFFFF;" d="M686.006,170.689c0.543,0,0.544-0.844,0-0.844C685.463,169.845,685.463,170.689,686.006,170.689
						L686.006,170.689z"/>
				</g>
			</g>
			<g>
				<g>
					<path style="fill:#FFFFFF;" d="M688.006,143.654c0.498,0,0.498-0.773,0-0.773C687.509,142.88,687.508,143.654,688.006,143.654
						L688.006,143.654z"/>
				</g>
			</g>
			<g>
				<g>
					<path style="fill:#FFFFFF;" d="M670.006,121.701c0.558,0,0.559-0.867,0-0.867C669.448,120.834,669.447,121.701,670.006,121.701
						L670.006,121.701z"/>
				</g>
			</g>
			<g>
				<g>
					<path style="fill:#FFFFFF;" d="M709.006,80.63c0.467,0,0.468-0.727,0-0.727C708.539,79.904,708.538,80.63,709.006,80.63
						L709.006,80.63z"/>
				</g>
			</g>
			<g>
				<g>
					<path style="fill:#FFFFFF;" d="M737.006,50.9c0.814,0,0.816-1.266,0-1.266C736.192,49.634,736.191,50.9,737.006,50.9
						L737.006,50.9z"/>
				</g>
			</g>
			<g>
				<g>
					<path style="fill:#FFFFFF;" d="M674.006,64.888c0.799,0,0.801-1.242,0-1.242C673.207,63.646,673.206,64.888,674.006,64.888
						L674.006,64.888z"/>
				</g>
			</g>
			<g>
				<g>
					<path style="fill:#FFFFFF;" d="M658.006,131.228c1.237,0,1.239-1.922,0-1.922C656.77,129.306,656.768,131.228,658.006,131.228
						L658.006,131.228z"/>
				</g>
			</g>
			<g>
				<g>
					<path style="fill:#FFFFFF;" d="M602.006,50.63c0.467,0,0.468-0.727,0-0.727C601.539,49.904,601.538,50.63,602.006,50.63
						L602.006,50.63z"/>
				</g>
			</g>
			<g>
				<g>
					<path style="fill:#FFFFFF;" d="M287.006,155.83c0.724,0,0.725-1.125,0-1.125C286.282,154.705,286.281,155.83,287.006,155.83
						L287.006,155.83z"/>
				</g>
			</g>
			<g>
				<g>
					<path style="fill:#FFFFFF;" d="M298.103,174.617c0.318-0.046,0.647-0.072,0.956-0.158c0.189-0.053,0.19-0.331,0-0.384
						c-0.31-0.086-0.638-0.113-0.956-0.158C297.517,173.833,297.513,174.702,298.103,174.617L298.103,174.617z"/>
				</g>
			</g>
			<g>
				<g>
					<path style="fill:#FFFFFF;" d="M441.534,21.267c0.015-0.378,0.071-0.77-0.03-1.137c-0.135-0.49-0.859-0.491-0.994,0
						c-0.101,0.368-0.045,0.76-0.03,1.137C440.506,21.945,441.507,21.947,441.534,21.267L441.534,21.267z"/>
				</g>
			</g>
			<g>
				<g>
					<path style="fill:#FFFFFF;" d="M340.006,46.666c0.513,0,0.514-0.797,0-0.797C339.494,45.869,339.493,46.666,340.006,46.666
						L340.006,46.666z"/>
				</g>
			</g>
			<g>
				<g>
					<path style="fill:#FFFFFF;" d="M582.006,269.665c0.513,0,0.514-0.797,0-0.797C581.494,268.869,581.493,269.665,582.006,269.665
						L582.006,269.665z"/>
				</g>
			</g>
			<g>
				<g>
					<path style="fill:#FFFFFF;" d="M567.006,228.841c0.739,0,0.74-1.148,0-1.148C566.267,227.693,566.266,228.841,567.006,228.841
						L567.006,228.841z"/>
				</g>
			</g>
			<g>
				<g>
					<path style="fill:#FFFFFF;" d="M521.006,222.439c1.508,0,1.511-2.344,0-2.344C519.498,220.095,519.496,222.439,521.006,222.439
						L521.006,222.439z"/>
				</g>
			</g>
			<g>
				<g>
					<path style="fill:#FFFFFF;" d="M546.006,215.665c0.513,0,0.514-0.797,0-0.797C545.494,214.869,545.493,215.665,546.006,215.665
						L546.006,215.665z"/>
				</g>
			</g>
			<g>
				<g>
					<path style="fill:#FFFFFF;" d="M513.006,296.748c0.618,0,0.619-0.961,0-0.961C512.388,295.787,512.387,296.748,513.006,296.748
						L513.006,296.748z"/>
				</g>
			</g>
			<g>
				<g>
					<path style="fill:#FFFFFF;" d="M283.006,291.076c1.041,0,1.042-1.617,0-1.617C281.966,289.458,281.964,291.076,283.006,291.076
						L283.006,291.076z"/>
				</g>
			</g>
			<g>
				<g>
					<path style="fill:#FFFFFF;" d="M325.006,352.712c0.573,0,0.574-0.891,0-0.891C324.433,351.822,324.432,352.712,325.006,352.712
						L325.006,352.712z"/>
				</g>
			</g>
			<g>
				<g>
					<path style="fill:#FFFFFF;" d="M368.006,327.373c0.136,0,0.136-0.211,0-0.211C367.871,327.162,367.87,327.373,368.006,327.373
						L368.006,327.373z"/>
				</g>
			</g>
			<g>
				<g>
					<path style="fill:#FFFFFF;" d="M325.006,291.349c0.106,0,0.106-0.164,0-0.164C324.901,291.185,324.901,291.349,325.006,291.349
						L325.006,291.349z"/>
				</g>
			</g>
			<g>
				<g>
					<path style="fill:#FFFFFF;" d="M314.006,306.853c0.754,0,0.755-1.172,0-1.172C313.252,305.681,313.251,306.853,314.006,306.853
						L314.006,306.853z"/>
				</g>
			</g>
			<g>
				<g>
					<path style="fill:#FFFFFF;" d="M525.006,116.771c0.648,0,0.65-1.008,0-1.008C524.358,115.763,524.357,116.771,525.006,116.771
						L525.006,116.771z"/>
				</g>
			</g>
			<g>
				<g>
					<path style="fill:#FFFFFF;" d="M537.006,119.748c0.618,0,0.619-0.961,0-0.961C536.388,118.787,536.387,119.748,537.006,119.748
						L537.006,119.748z"/>
				</g>
			</g>
			<g>
				<g>
					<path style="fill:#FFFFFF;" d="M244,267.548c0.362,0,0.362-0.563,0-0.563C243.638,266.986,243.637,267.548,244,267.548
						L244,267.548z"/>
				</g>
			</g>
			<g>
				<g>
					<path style="fill:#FFFFFF;" d="M507.333,101.697c0.553,0,0.554-0.859,0-0.859C506.78,100.837,506.779,101.697,507.333,101.697
						L507.333,101.697z"/>
				</g>
			</g>
			<g>
				<g>
					<path style="fill:#FFFFFF;" d="M509.333,8.968c0.473,0,0.473-0.734,0-0.734C508.861,8.233,508.86,8.968,509.333,8.968
						L509.333,8.968z"/>
				</g>
			</g>
			<g>
				<g>
					<path style="fill:#FFFFFF;" d="M428.667,22.85c0.322,0,0.322-0.5,0-0.5C428.345,22.35,428.344,22.85,428.667,22.85
						L428.667,22.85z"/>
				</g>
			</g>
			<g>
				<g>
					<path style="fill:#FFFFFF;" d="M473.333,74.811c0.272,0,0.272-0.422,0-0.422C473.062,74.39,473.061,74.811,473.333,74.811
						L473.333,74.811z"/>
				</g>
			</g>
			<g>
				<g>
					<path style="fill:#FFFFFF;" d="M575.333,133.022c0.543,0,0.544-0.844,0-0.844C574.79,132.178,574.789,133.022,575.333,133.022
						L575.333,133.022z"/>
				</g>
			</g>
			<g>
				<g>
					<path style="fill:#FFFFFF;" d="M582,154.843c0.312,0,0.312-0.484,0-0.484C581.688,154.358,581.688,154.843,582,154.843
						L582,154.843z"/>
				</g>
			</g>
			<g>
				<g>
					<path style="fill:#FFFFFF;" d="M372.667,388.137c0.222-0.005,0.444-0.01,0.667-0.016c0.241-0.006,0.242-0.369,0-0.375
						c-0.222-0.005-0.444-0.01-0.667-0.016C372.405,387.724,372.405,388.143,372.667,388.137L372.667,388.137z"/>
				</g>
			</g>
			<g>
				<g>
					<path style="fill:#FFFFFF;" d="M414,304.866c0.342,0,0.342-0.531,0-0.531C413.658,304.335,413.658,304.866,414,304.866
						L414,304.866z"/>
				</g>
			</g>
			<g>
				<g>
					<path style="fill:#FFFFFF;" d="M347.333,372.533c0.342,0,0.342-0.531,0-0.531C346.992,372.001,346.991,372.533,347.333,372.533
						L347.333,372.533z"/>
				</g>
			</g>
			<g>
				<g>
					<path style="fill:#FFFFFF;" d="M431.333,304.379c0.573,0,0.574-0.891,0-0.891C430.76,303.488,430.759,304.379,431.333,304.379
						L431.333,304.379z"/>
				</g>
			</g>
			<g>
				<g>
					<path style="fill:#FFFFFF;" d="M390.333,291.712c0.573,0,0.574-0.891,0-0.891C389.76,290.822,389.759,291.712,390.333,291.712
						L390.333,291.712z"/>
				</g>
			</g>
			<g>
				<g>
					<path style="fill:#FFFFFF;" d="M250,152.238c0.392,0,0.393-0.609,0-0.609C249.608,151.629,249.607,152.238,250,152.238
						L250,152.238z"/>
				</g>
			</g>
			<g>
				<g>
					<path style="fill:#FFFFFF;" d="M261.333,140.827c0.292,0,0.292-0.453,0-0.453C261.042,140.374,261.041,140.827,261.333,140.827
						L261.333,140.827z"/>
				</g>
			</g>
			<g>
				<g>
					<path style="fill:#FFFFFF;" d="M306,115.494c0.292,0,0.292-0.453,0-0.453C305.708,115.04,305.708,115.494,306,115.494
						L306,115.494z"/>
				</g>
			</g>
			<g>
				<g>
					<path style="fill:#FFFFFF;" d="M283.938,87.041c-0.212,0.038-0.424,0.075-0.636,0.113c-0.112,0.02-0.112,0.206,0,0.226
						c0.212,0.038,0.424,0.075,0.636,0.113C284.316,87.56,284.318,86.974,283.938,87.041L283.938,87.041z"/>
				</g>
			</g>
			<g>
				<g>
					<path style="fill:#FFFFFF;" d="M346,132.34c0.523,0,0.524-0.813,0-0.813C345.477,131.527,345.476,132.34,346,132.34L346,132.34
						z"/>
				</g>
			</g>
			<g>
				<g>
					<path style="fill:#FFFFFF;" d="M219.085,10.532c-0.045,0.323-0.026,0.475,0.038,0.793c0.041,0.209,0.38,0.209,0.422,0
						c0.063-0.315,0.083-0.467,0.038-0.793C219.548,10.286,219.119,10.285,219.085,10.532L219.085,10.532z"/>
				</g>
			</g>
			<g>
				<g>
					<path style="fill:#FFFFFF;" d="M364,13.619c0.452,0,0.453-0.703,0-0.703C363.548,12.915,363.547,13.619,364,13.619L364,13.619z
						"/>
				</g>
			</g>
			<g>
				<g>
					<path style="fill:#FFFFFF;" d="M464.667,95.478c0.272,0,0.272-0.422,0-0.422C464.395,95.056,464.395,95.478,464.667,95.478
						L464.667,95.478z"/>
				</g>
			</g>
			<g>
				<g>
					<path style="fill:#FFFFFF;" d="M440,116.897c0.382,0,0.383-0.594,0-0.594C439.618,116.303,439.617,116.897,440,116.897
						L440,116.897z"/>
				</g>
			</g>
			<g>
				<g>
					<path style="fill:#FFFFFF;" d="M273.333,197.363c-0.222-0.03-0.444-0.06-0.667-0.086c-0.844-0.097-0.845,1.41,0,1.313
						c0.223-0.026,0.445-0.056,0.667-0.086C274.065,198.406,274.066,197.461,273.333,197.363L273.333,197.363z"/>
				</g>
			</g>
			<g>
				<g>
					<path style="fill:#FFFFFF;" d="M210.667,149.1c0.643,0,0.644-1,0-1C210.023,148.1,210.022,149.1,210.667,149.1L210.667,149.1z"
						/>
				</g>
			</g>
			<g>
				<g>
					<path style="fill:#FFFFFF;" d="M450.667,143.069c0.603,0,0.604-0.938,0-0.938C450.064,142.132,450.063,143.069,450.667,143.069
						L450.667,143.069z"/>
				</g>
			</g>
			<g>
				<g>
					<path style="fill:#FFFFFF;" d="M501.333,186.16c0.241-0.015,0.474-0.019,0.708-0.076c0.149-0.036,0.149-0.265,0-0.301
						c-0.234-0.056-0.469-0.061-0.708-0.076C501.042,185.689,501.041,186.179,501.333,186.16L501.333,186.16z"/>
				</g>
			</g>
			<g>
				<g>
					<path style="fill:#FFFFFF;" d="M510,152.176c0.312,0,0.312-0.484,0-0.484C509.688,151.692,509.688,152.176,510,152.176
						L510,152.176z"/>
				</g>
			</g>
			<g>
				<g>
					<path style="fill:#FFFFFF;" d="M222,267.744c0.613,0,0.614-0.953,0-0.953C221.387,266.79,221.386,267.744,222,267.744
						L222,267.744z"/>
				</g>
			</g>
			<g>
				<g>
					<path style="fill:#FFFFFF;" d="M530,83.716c0.578,0,0.579-0.898,0-0.898C529.422,82.818,529.421,83.716,530,83.716L530,83.716z
						"/>
				</g>
			</g>
			<g>
				<g>
					<path style="fill:#FFFFFF;" d="M376,181.225c0.804,0,0.806-1.25,0-1.25C375.196,179.975,375.194,181.225,376,181.225
						L376,181.225z"/>
				</g>
			</g>
			<g>
				<g>
					<path style="fill:#FFFFFF;" d="M402.667,123.128c0.679,0,0.68-1.055,0-1.055C401.988,122.073,401.987,123.128,402.667,123.128
						L402.667,123.128z"/>
				</g>
			</g>
			<g>
				<g>
					<path style="fill:#FFFFFF;" d="M347.232,96.756c0.037-0.157,0.074-0.313,0.111-0.469c0.267-1.129-1.621-1.136-1.352,0
						c0.037,0.157,0.074,0.313,0.111,0.469C346.234,97.314,347.099,97.315,347.232,96.756L347.232,96.756z"/>
				</g>
			</g>
			<g>
				<g>
					<path style="fill:#FFFFFF;" d="M200.667,74.402c0.603,0,0.604-0.938,0-0.938C200.063,73.465,200.062,74.402,200.667,74.402
						L200.667,74.402z"/>
				</g>
			</g>
			<g>
				<g>
					<path style="fill:#FFFFFF;" d="M225.333,101.733c1.458,0,1.46-2.266,0-2.266C223.875,99.468,223.873,101.733,225.333,101.733
						L225.333,101.733z"/>
				</g>
			</g>
			<g>
				<g>
					<path style="fill:#FFFFFF;" d="M456,53.792c1.533,0,1.536-2.383,0-2.383C454.467,51.409,454.464,53.792,456,53.792L456,53.792z
						"/>
				</g>
			</g>
			<g>
				<g>
					<path style="fill:#FFFFFF;" d="M404.667,52.107c1.081,0,1.083-1.68,0-1.68C403.586,50.427,403.584,52.107,404.667,52.107
						L404.667,52.107z"/>
				</g>
			</g>
			<g>
				<g>
					<path style="fill:#FFFFFF;" d="M479.333,107.667c1.372,0,1.375-2.133,0-2.133C477.961,105.534,477.959,107.667,479.333,107.667
						L479.333,107.667z"/>
				</g>
			</g>
			<g>
				<g>
					<path style="fill:#FFFFFF;" d="M595.65,22.881c0.042,0.155,0.084,0.31,0.126,0.465c0.081,0.299,0.337,0.576,0.646,0.646
						c0.176,0.04,0.315,0.04,0.492,0c0.309-0.069,0.565-0.347,0.646-0.646c0.042-0.155,0.084-0.31,0.126-0.465
						c0.179-0.662-0.332-1.335-1.017-1.335C595.984,21.546,595.471,22.219,595.65,22.881L595.65,22.881z"/>
				</g>
			</g>
			<g>
				<g>
					<path style="fill:#FFFFFF;" d="M220,208.272c2.151,0,2.155-3.344,0-3.344C217.848,204.928,217.845,208.272,220,208.272
						L220,208.272z"/>
				</g>
			</g>
			<g>
				<g>
					<path style="fill:#FFFFFF;" d="M155.714,62.406c0.03-0.158,0.06-0.317,0.09-0.475c0.224-1.18-0.524-2.368-1.804-2.368
						c-1.272,0-2.028,1.187-1.804,2.368c0.03,0.158,0.06,0.317,0.09,0.475C152.608,64.102,155.392,64.103,155.714,62.406
						L155.714,62.406z"/>
				</g>
			</g>
			<g>
				<g>
					<path style="fill:#FFFFFF;" d="M401.333,41.132c0.684,0,0.685-1.063,0-1.063C400.65,40.069,400.649,41.132,401.333,41.132
						L401.333,41.132z"/>
				</g>
			</g>
			<g>
				<g>
					<path style="fill:#FFFFFF;" d="M371.56,61.267c-0.009-0.243-0.009-0.476-0.061-0.712c-0.036-0.164-0.295-0.164-0.331,0
						c-0.052,0.236-0.052,0.471-0.061,0.712C371.096,61.559,371.571,61.559,371.56,61.267L371.56,61.267z"/>
				</g>
			</g>
			<g>
				<g>
					<path style="fill:#FFFFFF;" d="M295.333,24.403c0.603,0,0.604-0.938,0-0.938C294.73,23.465,294.729,24.403,295.333,24.403
						L295.333,24.403z"/>
				</g>
			</g>
			<g>
				<g>
					<path style="fill:#FFFFFF;" d="M236,103.015c0.533,0,0.534-0.828,0-0.828C235.467,102.186,235.466,103.015,236,103.015
						L236,103.015z"/>
				</g>
			</g>
			<g>
				<g>
					<path style="fill:#FFFFFF;" d="M211.333,98.184c0.322,0,0.322-0.5,0-0.5C211.012,97.684,211.011,98.184,211.333,98.184
						L211.333,98.184z"/>
				</g>
			</g>
			<g>
				<g>
					<path style="fill:#FFFFFF;" d="M160,123.728c0.593,0,0.594-0.922,0-0.922C159.407,122.806,159.406,123.728,160,123.728
						L160,123.728z"/>
				</g>
			</g>
			<g>
				<g>
					<path style="fill:#FFFFFF;" d="M140.058,164.145c0.213-0.035,0.425-0.07,0.638-0.105c0.104-0.017,0.104-0.194,0-0.211
						c-0.213-0.035-0.425-0.07-0.638-0.105C139.705,163.665,139.703,164.203,140.058,164.145L140.058,164.145z"/>
				</g>
			</g>
			<g>
				<g>
					<path style="fill:#FFFFFF;" d="M155.006,171.79c0.674,0,0.675-1.047,0-1.047C154.333,170.744,154.332,171.79,155.006,171.79
						L155.006,171.79z"/>
				</g>
			</g>
			<g>
				<g>
					<path style="fill:#FFFFFF;" d="M408.333,166.58c0.402,0,0.403-0.625,0-0.625C407.931,165.955,407.931,166.58,408.333,166.58
						L408.333,166.58z"/>
				</g>
			</g>
			<g>
				<g>
					<path style="fill:#FFFFFF;" d="M429.333,167.225c0.804,0,0.806-1.25,0-1.25C428.529,165.975,428.528,167.225,429.333,167.225
						L429.333,167.225z"/>
				</g>
			</g>
			<g>
				<g>
					<path style="fill:#FFFFFF;" d="M436.667,183.194c0.764,0,0.765-1.188,0-1.188C435.903,182.007,435.901,183.194,436.667,183.194
						L436.667,183.194z"/>
				</g>
			</g>
			<g>
				<g>
					<path style="fill:#FFFFFF;" d="M514.667,35.681c0.533,0,0.534-0.828,0-0.828C514.134,34.853,514.133,35.681,514.667,35.681
						L514.667,35.681z"/>
				</g>
			</g>
			<g>
				<g>
					<path style="fill:#FFFFFF;" d="M545.333,24.348c0.533,0,0.534-0.828,0-0.828C544.8,23.52,544.8,24.348,545.333,24.348
						L545.333,24.348z"/>
				</g>
			</g>
			<g>
				<g>
					<path style="fill:#FFFFFF;" d="M258.667,164.869c2.061,0,2.064-3.203,0-3.203C256.606,161.665,256.602,164.869,258.667,164.869
						L258.667,164.869z"/>
				</g>
			</g>
			<g>
				<g>
					<path style="fill:#FFFFFF;" d="M215.006,319.869c2.061,0,2.064-3.203,0-3.203C212.945,316.665,212.942,319.869,215.006,319.869
						L215.006,319.869z"/>
				</g>
			</g>
			<g>
				<g>
					<path style="fill:#FFFFFF;" d="M307.333,57.96c1.749,0,1.752-2.719,0-2.719C305.584,55.241,305.581,57.96,307.333,57.96
						L307.333,57.96z"/>
				</g>
			</g>
			<g>
				<g>
					<path style="fill:#FFFFFF;" d="M418.667,94.832c1.156,0,1.158-1.797,0-1.797C417.511,93.035,417.509,94.832,418.667,94.832
						L418.667,94.832z"/>
				</g>
			</g>
			<g>
				<g>
					<path style="fill:#FFFFFF;" d="M412,184.65c1.779,0,1.783-2.766,0-2.766C410.221,181.884,410.218,184.65,412,184.65L412,184.65
						z"/>
				</g>
			</g>
			<g>
				<g>
					<path style="fill:#FFFFFF;" d="M548.667,57.968c1.759,0,1.762-2.734,0-2.734C546.907,55.233,546.904,57.968,548.667,57.968
						L548.667,57.968z"/>
				</g>
			</g>
			<g>
				<g>
					<path style="fill:#FFFFFF;" d="M590,146.1c1.93,0,1.934-3,0-3C588.07,143.1,588.066,146.1,590,146.1L590,146.1z"/>
				</g>
			</g>
			<g>
				<g>
					<path style="fill:#FFFFFF;" d="M530.667,132.422c0.628,0,0.629-0.977,0-0.977C530.038,131.445,530.037,132.422,530.667,132.422
						L530.667,132.422z"/>
				</g>
			</g>
			<g>
				<g>
					<path style="fill:#FFFFFF;" d="M538.332,185.542c0.058-0.151,0.116-0.301,0.174-0.452c0.29-0.752-0.442-1.539-1.173-1.539
						c-0.733,0-1.463,0.789-1.173,1.539c0.058,0.151,0.116,0.301,0.174,0.452C536.713,186.52,537.953,186.522,538.332,185.542
						L538.332,185.542z"/>
				</g>
			</g>
			<g>
				<g>
					<path style="fill:#FFFFFF;" d="M581.333,192.341c1.382,0,1.385-2.148,0-2.148C579.951,190.193,579.949,192.341,581.333,192.341
						L581.333,192.341z"/>
				</g>
			</g>
			<g>
				<g>
					<path style="fill:#FFFFFF;" d="M510.802,267.757c0.16-0.03,0.32-0.059,0.463-0.143c0.077-0.045,0.51-0.518,0.272-0.276
						c-0.212,0.216,0.142-0.114,0.177-0.159c0.091-0.118,0.151-0.249,0.183-0.395c-0.11,0.143-0.22,0.286-0.33,0.429
						c0.031-0.019,0.061-0.037,0.092-0.056c0.317-0.193,0.471-0.749,0.13-1.012c-0.001,0.002-0.002,0.005-0.003,0.007
						c-0.127-0.261-0.503-0.493-0.798-0.458c-0.27,0.032-0.487,0.07-0.722,0.211c-0.652,0.391-0.627,1.313,0,1.709
						C510.447,267.729,510.583,267.798,510.802,267.757L510.802,267.757z"/>
				</g>
			</g>
			<g>
				<g>
					<path style="fill:#FFFFFF;" d="M478.667,160.813c1.131,0,1.133-1.758,0-1.758C477.536,159.055,477.534,160.813,478.667,160.813
						L478.667,160.813z"/>
				</g>
			</g>
			<g>
				<g>
					<path style="fill:#FFFFFF;" d="M346.667,145.262c1.709,0,1.712-2.656,0-2.656C344.958,142.606,344.955,145.262,346.667,145.262
						L346.667,145.262z"/>
				</g>
			</g>
			<g>
				<g>
					<path style="fill:#FFFFFF;" d="M310.433,195.387c0.073-0.327,0.16-0.592,0.056-0.921c-0.151-0.482-0.828-0.483-0.979,0
						c-0.103,0.327-0.016,0.594,0.056,0.921C309.662,195.815,310.338,195.815,310.433,195.387L310.433,195.387z"/>
				</g>
			</g>
			<g>
				<g>
					<path style="fill:#FFFFFF;" d="M285.333,109.538c1.206,0,1.208-1.875,0-1.875C284.127,107.663,284.125,109.538,285.333,109.538
						L285.333,109.538z"/>
				</g>
			</g>
			<g>
				<g>
					<path style="fill:#FFFFFF;" d="M312,76.107c1.081,0,1.083-1.68,0-1.68C310.919,74.427,310.917,76.107,312,76.107L312,76.107z"
						/>
				</g>
			</g>
			<g>
				<g>
					<path style="fill:#FFFFFF;" d="M268,50.481c0.704,0,0.705-1.094,0-1.094C267.296,49.387,267.295,50.481,268,50.481L268,50.481z
						"/>
				</g>
			</g>
			<g>
				<g>
					<path style="fill:#FFFFFF;" d="M167.175,26.741c0.048-0.213,0.133-0.405,0.207-0.61c0.428-1.189-1.862-1.197-1.431,0
						c0.074,0.205,0.159,0.397,0.207,0.61C166.272,27.243,167.061,27.244,167.175,26.741L167.175,26.741z"/>
				</g>
			</g>
			<g>
				<g>
					<path style="fill:#FFFFFF;" d="M200,47.479c1.131,0,1.133-1.758,0-1.758C198.869,45.722,198.867,47.479,200,47.479L200,47.479z
						"/>
				</g>
			</g>
			<g>
				<g>
					<path style="fill:#FFFFFF;" d="M122.98,132.363c0.134-0.057,0.267-0.113,0.401-0.17c0.703-0.298,0.703-1.555,0-1.853
						c-0.134-0.057-0.267-0.113-0.401-0.17c-0.853-0.361-1.91,0.04-1.91,1.096C121.07,132.323,122.128,132.724,122.98,132.363
						L122.98,132.363z"/>
				</g>
			</g>
			<g>
				<g>
					<path style="fill:#FFFFFF;" d="M147.333,92.461c0.679,0,0.68-1.055,0-1.055C146.655,91.407,146.654,92.461,147.333,92.461
						L147.333,92.461z"/>
				</g>
			</g>
			<g>
				<g>
					<path style="fill:#FFFFFF;" d="M193.333,117.834c0.729,0,0.73-1.133,0-1.133C192.604,116.701,192.603,117.834,193.333,117.834
						L193.333,117.834z"/>
				</g>
			</g>
			<g>
				<g>
					<path style="fill:#FFFFFF;" d="M146.006,200.244c1.257,0,1.259-1.953,0-1.953C144.75,198.29,144.747,200.244,146.006,200.244
						L146.006,200.244z"/>
				</g>
			</g>
			<g>
				<g>
					<path style="fill:#FFFFFF;" d="M169.006,236.38c1.433,0,1.435-2.227,0-2.227C167.574,234.154,167.571,236.38,169.006,236.38
						L169.006,236.38z"/>
				</g>
			</g>
			<g>
				<g>
					<path style="fill:#FFFFFF;" d="M188.667,165.108c0.653,0,0.655-1.016,0-1.016C188.013,164.093,188.012,165.108,188.667,165.108
						L188.667,165.108z"/>
				</g>
			</g>
			<g>
				<g>
					<path style="fill:#FFFFFF;" d="M191.782,205.814c-0.14-0.185-0.269-0.392-0.444-0.545c-0.201-0.175-0.461-0.176-0.663,0
						c-0.175,0.152-0.305,0.36-0.444,0.545c-0.426,0.563,0.156,1.352,0.776,1.352C191.626,207.165,192.208,206.377,191.782,205.814
						L191.782,205.814z"/>
				</g>
			</g>
			<g>
				<g>
					<path style="fill:#FFFFFF;" d="M240,230.048c1.005,0,1.007-1.563,0-1.563C238.995,228.486,238.993,230.048,240,230.048
						L240,230.048z"/>
				</g>
			</g>
			<g>
				<g>
					<path style="fill:#FFFFFF;" d="M195.006,274.048c1.005,0,1.007-1.563,0-1.563C194.001,272.486,193.999,274.048,195.006,274.048
						L195.006,274.048z"/>
				</g>
			</g>
			<g>
				<g>
					<path style="fill:#FFFFFF;" d="M273.436,239.987c0.056,0.134,0.113,0.267,0.17,0.401c0.341,0.806,1.782,0.806,2.123,0
						c0.057-0.134,0.113-0.267,0.17-0.401c0.206-0.486,0.283-0.956,0-1.439c-0.254-0.434-0.728-0.706-1.231-0.706
						c-0.503,0-0.977,0.273-1.231,0.706C273.153,239.031,273.23,239.501,273.436,239.987L273.436,239.987z"/>
				</g>
			</g>
			<g>
				<g>
					<path style="fill:#FFFFFF;" d="M244.612,302.934c-0.053-0.427-0.037-0.746-0.398-1.021c-0.103-0.078-0.311-0.078-0.414,0
						c-0.362,0.275-0.346,0.594-0.399,1.021C243.305,303.712,244.708,303.713,244.612,302.934L244.612,302.934z"/>
				</g>
			</g>
			<g>
				<g>
					<path style="fill:#FFFFFF;" d="M331.476,323.461c-0.093-0.187-0.189-0.349-0.343-0.493c-0.267-0.249-0.663-0.25-0.932,0
						c-0.155,0.144-0.25,0.306-0.343,0.493c-0.31,0.624,0.062,1.411,0.81,1.411S331.786,324.085,331.476,323.461L331.476,323.461z"
						/>
				</g>
			</g>
			<g>
				<g>
					<path style="fill:#FFFFFF;" d="M308,300.576c1.684,0,1.687-2.617,0-2.617C306.316,297.958,306.313,300.576,308,300.576
						L308,300.576z"/>
				</g>
			</g>
			<g>
				<g>
					<path style="fill:#FFFFFF;" d="M362.667,356.048c1.005,0,1.007-1.563,0-1.563C361.661,354.486,361.66,356.048,362.667,356.048
						L362.667,356.048z"/>
				</g>
			</g>
			<g>
				<g>
					<path style="fill:#FFFFFF;" d="M395.333,329.931c0.855,0,0.856-1.328,0-1.328C394.479,328.603,394.477,329.931,395.333,329.931
						L395.333,329.931z"/>
				</g>
			</g>
			<g>
				<g>
					<path style="fill:#FFFFFF;" d="M346.333,282.931c0.855,0,0.856-1.328,0-1.328C345.479,281.603,345.477,282.931,346.333,282.931
						L346.333,282.931z"/>
				</g>
			</g>
			<g>
				<g>
					<path style="fill:#FFFFFF;" d="M501.333,319.987c1.785,0,1.788-2.773,0-2.773C499.549,317.214,499.546,319.987,501.333,319.987
						L501.333,319.987z"/>
				</g>
			</g>
			<g>
				<g>
					<path style="fill:#FFFFFF;" d="M362.333,296.654c1.785,0,1.788-2.773,0-2.773C360.549,293.88,360.546,296.654,362.333,296.654
						L362.333,296.654z"/>
				</g>
			</g>
			<g>
				<g>
					<path style="fill:#FFFFFF;" d="M473.232,308.756c0.081-0.435,0.155-0.714-0.042-1.128c-0.189-0.396-0.857-0.396-1.046,0
						c-0.197,0.414-0.123,0.693-0.042,1.128C472.206,309.315,473.128,309.316,473.232,308.756L473.232,308.756z"/>
				</g>
			</g>
			<g>
				<g>
					<path style="fill:#FFFFFF;" d="M418.667,370.52c0.754,0,0.755-1.172,0-1.172C417.913,369.348,417.911,370.52,418.667,370.52
						L418.667,370.52z"/>
				</g>
			</g>
			<g>
				<g>
					<path style="fill:#FFFFFF;" d="M388.667,409.128c0.679,0,0.68-1.055,0-1.055C387.988,408.073,387.987,409.128,388.667,409.128
						L388.667,409.128z"/>
				</g>
			</g>
			<g>
				<g>
					<path style="fill:#FFFFFF;" d="M442.667,313.147c0.704,0,0.705-1.094,0-1.094C441.963,312.053,441.962,313.147,442.667,313.147
						L442.667,313.147z"/>
				</g>
			</g>
			<g>
				<g>
					<path style="fill:#FFFFFF;" d="M475.333,262.595c1.709,0,1.712-2.656,0-2.656C473.624,259.939,473.621,262.595,475.333,262.595
						L475.333,262.595z"/>
				</g>
			</g>
			<g>
				<g>
					<path style="fill:#FFFFFF;" d="M481.333,221.736c0.603,0,0.604-0.938,0-0.938C480.73,220.798,480.729,221.736,481.333,221.736
						L481.333,221.736z"/>
				</g>
			</g>
			<g>
				<g>
					<path style="fill:#FFFFFF;" d="M539.333,237.323c0.93,0,0.932-1.445,0-1.445C538.403,235.878,538.402,237.323,539.333,237.323
						L539.333,237.323z"/>
				</g>
			</g>
			<g>
				<g>
					<path style="fill:#FFFFFF;" d="M606.667,263.379c1.86,0,1.863-2.891,0-2.891C604.807,260.488,604.804,263.379,606.667,263.379
						L606.667,263.379z"/>
				</g>
			</g>
			<g>
				<g>
					<path style="fill:#FFFFFF;" d="M593.038,231.267c0.019-0.316,0.048-0.543-0.084-0.834c-0.099-0.217-0.475-0.217-0.573,0
						c-0.132,0.292-0.104,0.514-0.084,0.834C592.324,231.744,593.009,231.745,593.038,231.267L593.038,231.267z"/>
				</g>
			</g>
			<g>
				<g>
					<path style="fill:#FFFFFF;" d="M610,186.461c0.679,0,0.68-1.055,0-1.055C609.321,185.406,609.32,186.461,610,186.461
						L610,186.461z"/>
				</g>
			</g>
			<g>
				<g>
					<path style="fill:#FFFFFF;" d="M560,161.167c0.729,0,0.73-1.133,0-1.133C559.271,160.034,559.27,161.167,560,161.167
						L560,161.167z"/>
				</g>
			</g>
			<g>
				<g>
					<path style="fill:#FFFFFF;" d="M596,82.559c0.804,0,0.806-1.25,0-1.25C595.196,81.309,595.194,82.559,596,82.559L596,82.559z"
						/>
				</g>
			</g>
		</g>
		
			<linearGradient id="SVGID_00000158714104417593583280000002887979879341245343_" gradientUnits="userSpaceOnUse" x1="375" y1="468.43" x2="375" y2="-345.735">
			<stop  offset="0" style="stop-color:#FF0090;stop-opacity:0"/>
			<stop  offset="1" style="stop-color:#D700FF"/>
		</linearGradient>
		<rect style="opacity:0.46;fill:url(#SVGID_00000158714104417593583280000002887979879341245343_);" width="750" height="500"/>
	</g>
	
		<text transform="matrix(1 0 0 1 285.0299 225.1504)" style="fill:#FFFFFF; font-family:'Metropolis-Medium'; font-size:19.428px; letter-spacing:5;">Starry Sky</text>
	
		<text transform="matrix(1 0 0 1 285.0002 248.2207)" style="fill:#FFFFFF; font-family:'Metropolis-Thin'; font-size:14.9726px; letter-spacing:7;">BACKGROUND</text>
	<rect x="260" y="191" style="fill:none;stroke:#FFFFFF;stroke-width:2;stroke-miterlimit:10;" width="230" height="78"/>
</g>
<g id="BACKGROUND_01">
	<g>
		<g>
			<defs>
				<rect id="SVGID_00000064335962758235320210000008452495558725483669_" x="-535.994" width="500" height="500"/>
			</defs>
			<clipPath id="SVGID_00000030466987970172790830000006358137888286321545_">
				<use xlink:href="#SVGID_00000064335962758235320210000008452495558725483669_"  style="overflow:visible;"/>
			</clipPath>
			<g style="clip-path:url(#SVGID_00000030466987970172790830000006358137888286321545_);">
				<path style="fill:#1B3454;" d="M34.006,512.267c-11.178-9.156-126.851-278-126.851-278s-144.192,309.265-138.603,309.265
					C-225.859,543.532,34.006,512.267,34.006,512.267z"/>
				<path style="opacity:0.56;fill:#10142B;" d="M-92.844,235.284l10.06,66.126l-27.944,24.416l11.178,11.19l-16.766,16.277
					l36.886,48.831c0,0-158.723,148.528-154.252,146.494c4.471-2.035,262.676-42.727,262.676-42.727L-92.844,235.284z"/>
				
					<linearGradient id="SVGID_00000029020574703247720760000001481410232246925228_" gradientUnits="userSpaceOnUse" x1="-196.1363" y1="346.092" x2="-8.0617" y2="583.1629">
					<stop  offset="0" style="stop-color:#000000;stop-opacity:0"/>
					<stop  offset="1" style="stop-color:#000000"/>
				</linearGradient>
				<path style="fill:url(#SVGID_00000029020574703247720760000001481410232246925228_);" d="M28.992,507.926L-92.844,234.267
					c0,0-144.192,309.265-138.603,309.265C-225.859,543.532,28.992,507.926,28.992,507.926z"/>
			</g>
		</g>
	</g>
</g>
<g id="DESIGNED_BY_FREEPIK">
	<g>
		<g id="XMLID_57_">
			<g id="XMLID_76_">
				<path id="XMLID_84_" style="fill:#F9FBFC;" d="M385.104,472.112c-0.432,0.443-0.803,0.931-1.108,1.453l-0.465-0.241
					c-0.067-0.298-0.349-0.502-0.659-0.466c-0.331,0.039-0.568,0.339-0.529,0.67c0.039,0.331,0.339,0.568,0.67,0.529
					c0.065-0.008,0.127-0.026,0.184-0.052l0.452,0.234c-0.251,0.554-0.433,1.139-0.539,1.744l0.746,0.132
					c0.23-1.306,0.85-2.507,1.792-3.473L385.104,472.112z"/>
				<path id="XMLID_83_" style="fill:#F9FBFC;" d="M390.592,469.81c-0.171,0-0.341,0.006-0.51,0.017l-0.074-0.626
					c0.188-0.149,0.296-0.389,0.266-0.645c-0.046-0.393-0.402-0.674-0.795-0.628c-0.393,0.046-0.674,0.402-0.628,0.795
					c0.03,0.254,0.189,0.461,0.405,0.564l0.073,0.624c-0.714,0.116-1.403,0.332-2.06,0.646l0.327,0.684
					c0.934-0.447,1.942-0.673,2.995-0.673c0.496,0,0.993,0.053,1.475,0.158l0.161-0.741
					C391.692,469.868,391.142,469.81,390.592,469.81z"/>
				<path id="XMLID_82_" style="fill:#F9FBFC;" d="M397.194,472.357c0.331-0.04,0.566-0.341,0.526-0.672
					c-0.04-0.331-0.342-0.566-0.672-0.526c-0.309,0.038-0.535,0.304-0.53,0.609l-0.416,0.363c-0.418-0.43-0.89-0.813-1.408-1.139
					l-0.404,0.641c1.134,0.715,2.021,1.726,2.563,2.925l0.69-0.313c-0.251-0.554-0.568-1.072-0.942-1.545l0.402-0.351
					C397.065,472.362,397.129,472.365,397.194,472.357z"/>
				<path id="XMLID_81_" style="fill:#F9FBFC;" d="M390.044,480.018c-0.386,0.023-0.775,0.035-1.157,0.035
					c-0.88,0-1.733-0.061-2.478-0.179c-0.39-0.062-0.846-0.155-1.27-0.292c1.046,1.861,3.069,3.125,5.388,3.125
					c2.855,0,5.262-1.916,5.95-4.504c-0.682,0.449-1.505,0.825-2.459,1.123C392.839,479.693,391.463,479.933,390.044,480.018z"/>
				<path id="XMLID_77_" style="fill:#F9FBFC;" d="M390.592,471.326c-3.352,0-6.08,2.666-6.08,5.944
					c0,0.426,0.046,0.849,0.137,1.261c0.673,0.483,2.706,0.89,5.348,0.731c2.879-0.173,5.297-0.957,6.672-2.159
					c-0.005-0.195-0.021-0.39-0.045-0.582C396.244,473.559,393.65,471.326,390.592,471.326z M388.432,477.841
					c-1.02,0-1.85-0.83-1.85-1.85c0-1.02,0.83-1.85,1.85-1.85c1.02,0,1.85,0.83,1.85,1.85
					C390.282,477.011,389.452,477.841,388.432,477.841z M393.17,476.932c-0.75,0-1.36-0.61-1.36-1.36c0-0.75,0.61-1.361,1.36-1.361
					c0.75,0,1.36,0.61,1.36,1.361C394.53,476.322,393.92,476.932,393.17,476.932z"/>
			</g>
			<path id="XMLID_74_" style="fill:#F9FBFC;" d="M406.595,473.193c-0.295-0.116-0.806-0.309-1.382-0.237
				c-0.551,0.068-0.844,0.34-0.844,1.007v0.866h2.228v1.717h-2.228V482h-1.932v-5.455h-1.34v-1.717h1.34v-0.888
				c0-1.68,0.896-2.783,2.568-2.783c0.643,0,1.157,0.122,1.59,0.308L406.595,473.193z"/>
			<path id="XMLID_72_" style="fill:#F9FBFC;" d="M411.298,476.525c-0.177-0.03-0.358-0.046-0.526-0.046
				c-0.895,0-1.51,0.548-1.51,1.613V482h-1.932v-7.172h1.873v0.785c0.451-0.674,1.14-0.977,2.021-0.977
				c0.414,0,0.848,0.128,1.094,0.337L411.298,476.525z"/>
			<path id="XMLID_69_" style="fill:#F9FBFC;" d="M418.965,478.403c0,0.222-0.015,0.489-0.037,0.651h-5.085
				c0.207,1.036,0.933,1.488,1.843,1.488c0.622,0,1.295-0.252,1.813-0.688l1.133,1.243c-0.814,0.748-1.85,1.088-3.057,1.088
				c-2.198,0-3.723-1.495-3.723-3.753c0-2.257,1.48-3.797,3.627-3.797C417.544,474.636,418.958,476.168,418.965,478.403z
				 M413.851,477.737h3.175c-0.177-0.918-0.733-1.436-1.562-1.436C414.554,476.301,414.021,476.849,413.851,477.737z"/>
			<path id="XMLID_66_" style="fill:#F9FBFC;" d="M426.618,478.403c0,0.222-0.015,0.489-0.037,0.651h-5.085
				c0.207,1.036,0.932,1.488,1.843,1.488c0.622,0,1.295-0.252,1.814-0.688l1.132,1.243c-0.814,0.748-1.85,1.088-3.057,1.088
				c-2.198,0-3.723-1.495-3.723-3.753c0-2.257,1.48-3.797,3.627-3.797C425.197,474.636,426.611,476.168,426.618,478.403z
				 M421.504,477.737h3.175c-0.178-0.918-0.733-1.436-1.562-1.436C422.207,476.301,421.674,476.849,421.504,477.737z"/>
			<path id="XMLID_63_" style="fill:#F9FBFC;" d="M434.964,478.41c0,2.154-1.495,3.775-3.471,3.775
				c-0.962,0-1.643-0.378-2.109-0.933v3.708h-1.924v-10.133h1.887v0.792c0.466-0.585,1.155-0.984,2.139-0.984
				C433.469,474.636,434.964,476.257,434.964,478.41z M429.287,478.41c0,1.132,0.747,1.976,1.843,1.976
				c1.14,0,1.85-0.881,1.85-1.976c0-1.095-0.711-1.976-1.85-1.976C430.035,476.434,429.287,477.278,429.287,478.41z"/>
			<path id="XMLID_60_" style="fill:#F9FBFC;" d="M438.068,472.482c0,0.696-0.54,1.229-1.236,1.229
				c-0.696,0-1.229-0.533-1.229-1.229c0-0.696,0.533-1.243,1.229-1.243C437.527,471.238,438.068,471.786,438.068,472.482z
				 M437.809,482h-1.932v-7.172h1.932V482z"/>
			<path id="XMLID_58_" style="fill:#F9FBFC;" d="M441.032,477.382l2.702-2.554h2.368l-3.479,3.375l3.501,3.797h-2.376l-2.716-2.901
				V482H439.1v-10.658h1.932V477.382z"/>
		</g>
		<g>
			<path style="fill:#F9FBFC;" d="M309.412,481.935v-1.055c-0.527,0.718-1.391,1.23-2.387,1.23c-1.846,0-3.149-1.406-3.149-3.706
				c0-2.256,1.289-3.721,3.149-3.721c0.952,0,1.816,0.469,2.387,1.245v-3.765h1.099v9.77H309.412z M309.412,480.016v-3.208
				c-0.395-0.615-1.245-1.143-2.124-1.143c-1.421,0-2.27,1.172-2.27,2.739c0,1.567,0.85,2.724,2.27,2.724
				C308.168,481.129,309.017,480.632,309.412,480.016z"/>
			<path style="fill:#F9FBFC;" d="M311.932,478.39c0-2.051,1.465-3.706,3.486-3.706c2.139,0,3.398,1.67,3.398,3.794v0.279h-5.727
				c0.088,1.333,1.026,2.446,2.549,2.446c0.806,0,1.626-0.322,2.182-0.893l0.527,0.718c-0.703,0.703-1.655,1.084-2.812,1.084
				C313.44,482.111,311.932,480.602,311.932,478.39z M315.404,475.593c-1.509,0-2.256,1.274-2.315,2.358h4.644
				C317.718,476.896,317.015,475.593,315.404,475.593z"/>
			<path style="fill:#F9FBFC;" d="M319.607,480.997l0.571-0.791c0.469,0.542,1.362,1.011,2.329,1.011c1.084,0,1.67-0.513,1.67-1.216
				c0-1.714-4.38-0.659-4.38-3.281c0-1.098,0.952-2.036,2.636-2.036c1.201,0,2.051,0.454,2.622,1.026l-0.513,0.762
				c-0.424-0.513-1.201-0.894-2.109-0.894c-0.967,0-1.567,0.483-1.567,1.113c0,1.553,4.38,0.527,4.38,3.281
				c0,1.187-0.952,2.139-2.783,2.139C321.306,482.111,320.325,481.759,319.607,480.997z"/>
			<path style="fill:#F9FBFC;" d="M326.477,473.117c0-0.41,0.337-0.747,0.732-0.747c0.41,0,0.747,0.337,0.747,0.747
				c0,0.41-0.337,0.732-0.747,0.732C326.814,473.849,326.477,473.527,326.477,473.117z M326.667,481.935v-7.075h1.099v7.075H326.667
				z"/>
			<path style="fill:#F9FBFC;" d="M329.582,483.751l0.556-0.82c0.586,0.703,1.289,0.967,2.3,0.967c1.172,0,2.27-0.571,2.27-2.124
				v-1.011c-0.513,0.718-1.377,1.26-2.373,1.26c-1.845,0-3.149-1.377-3.149-3.662c0-2.27,1.289-3.677,3.149-3.677
				c0.952,0,1.802,0.469,2.373,1.245v-1.069h1.099v6.87c0,2.344-1.641,3.076-3.369,3.076
				C331.237,484.806,330.417,484.572,329.582,483.751z M334.709,479.899v-3.091c-0.381-0.615-1.23-1.143-2.109-1.143
				c-1.421,0-2.27,1.128-2.27,2.695c0,1.553,0.849,2.695,2.27,2.695C333.478,481.056,334.328,480.514,334.709,479.899z"/>
			<path style="fill:#F9FBFC;" d="M342.413,481.935v-4.629c0-1.245-0.63-1.641-1.582-1.641c-0.865,0-1.685,0.527-2.095,1.099v5.17
				h-1.099v-7.075h1.099v1.025c0.498-0.586,1.465-1.201,2.519-1.201c1.48,0,2.256,0.747,2.256,2.285v4.966H342.413z"/>
			<path style="fill:#F9FBFC;" d="M344.933,478.39c0-2.051,1.465-3.706,3.486-3.706c2.138,0,3.398,1.67,3.398,3.794v0.279h-5.727
				c0.088,1.333,1.025,2.446,2.549,2.446c0.806,0,1.626-0.322,2.183-0.893l0.527,0.718c-0.703,0.703-1.655,1.084-2.812,1.084
				C346.441,482.111,344.933,480.602,344.933,478.39z M348.404,475.593c-1.509,0-2.256,1.274-2.314,2.358h4.643
				C350.718,476.896,350.015,475.593,348.404,475.593z"/>
			<path style="fill:#F9FBFC;" d="M358.35,481.935v-1.055c-0.527,0.718-1.391,1.23-2.388,1.23c-1.846,0-3.149-1.406-3.149-3.706
				c0-2.256,1.289-3.721,3.149-3.721c0.952,0,1.817,0.469,2.388,1.245v-3.765h1.099v9.77H358.35z M358.35,480.016v-3.208
				c-0.396-0.615-1.245-1.143-2.124-1.143c-1.421,0-2.27,1.172-2.27,2.739c0,1.567,0.849,2.724,2.27,2.724
				C357.105,481.129,357.954,480.632,358.35,480.016z"/>
			<path style="fill:#F9FBFC;" d="M364.692,481.935v-9.77h1.099v3.765c0.572-0.776,1.421-1.245,2.388-1.245
				c1.845,0,3.149,1.465,3.149,3.721c0,2.299-1.304,3.706-3.149,3.706c-0.996,0-1.86-0.513-2.388-1.23v1.055H364.692z
				 M367.9,481.129c1.436,0,2.285-1.157,2.285-2.724c0-1.568-0.85-2.739-2.285-2.739c-0.864,0-1.728,0.527-2.109,1.143v3.208
				C366.172,480.632,367.036,481.129,367.9,481.129z"/>
			<path style="fill:#F9FBFC;" d="M372.529,483.707c0.161,0.073,0.425,0.117,0.601,0.117c0.483,0,0.806-0.161,1.055-0.747
				l0.469-1.069l-2.959-7.148h1.187l2.358,5.801l2.344-5.801h1.201l-3.545,8.51c-0.425,1.025-1.143,1.421-2.08,1.435
				c-0.234,0-0.601-0.044-0.806-0.103L372.529,483.707z"/>
		</g>
	</g>
</g>
</svg>
