<?xml version="1.0" encoding="utf-8"?>
<!-- Generator: Adobe Illustrator 26.0.0, SVG Export Plug-In . SVG Version: 6.00 Build 0)  -->
<svg version="1.1" id="Camada_1" xmlns="http://www.w3.org/2000/svg" xmlns:xlink="http://www.w3.org/1999/xlink" x="0px" y="0px"
	 viewBox="0 0 300 300" style="enable-background:new 0 0 300 300;" xml:space="preserve">
<style type="text/css">
	.st0{fill:#FEEBCD;}
	.st1{fill:#D43935;}
	.st2{fill:none;}
	.st3{fill:#246082;}
	.st4{font-family:'Roboto-Bold';}
	.st5{font-size:16.1382px;}
	.st6{letter-spacing:-1;}
	.st7{fill:none;stroke:#246082;stroke-miterlimit:10;}
	.st8{fill:none;stroke:#FEEBCD;stroke-miterlimit:10;}
</style>
<g>
	
		<image style="overflow:visible;opacity:0.5;" width="304" height="304" xlink:href="B9949C66.png"  transform="matrix(1 0 0 1 -2 -3)">
	</image>
	<g>
		<g>
			<g>
				
					<ellipse transform="matrix(0.7071 -0.7071 0.7071 0.7071 -59.3769 148.874)" class="st0" cx="150" cy="146.1" rx="142.8" ry="142.8"/>
				<path class="st1" d="M150,12.1c35.8,0,69.5,13.9,94.8,39.3s39.3,59,39.3,94.8s-13.9,69.5-39.3,94.8s-59,39.3-94.8,39.3
					s-69.5-13.9-94.8-39.3c-25.3-25.3-39.3-59-39.3-94.8s13.9-69.5,39.3-94.8C80.6,26,114.2,12.1,150,12.1 M150,6.2
					C72.7,6.2,10.1,68.8,10.1,146.1S72.7,286,150,286s139.9-62.6,139.9-139.9S227.3,6.2,150,6.2L150,6.2z"/>
			</g>
			<g>
				<path id="SVGID_x5F_1_x5F_" class="st2" d="M53.5,146.1c0-53.3,43.2-96.5,96.5-96.5s96.5,43.2,96.5,96.5
					c0,53.3-43.2,96.5-96.5,96.5S53.5,199.4,53.5,146.1z"/>
				<text>				<textPath  xlink:href="#SVGID_x5F_1_x5F_" startOffset="-33.1787%">
<tspan  class="st3" style="font-family:'Roboto-Medium'; font-size:29.0488px;">space adventure</tspan>				</textPath>
</text>
				<g>
					<path id="SVGID_x5F_00000052106046007706965910000006830409736326941859_x5F_" class="st2" d="M267.2,146.1
						C267.2,81.4,214.7,29,150,29S32.9,81.4,32.9,146.1c0,64.7,52.5,117.2,117.2,117.2S267.2,210.8,267.2,146.1z"/>
					<text>					<textPath  xlink:href="#SVGID_x5F_00000052106046007706965910000006830409736326941859_x5F_" startOffset="166.805%">
<tspan  class="st3" style="font-family:'Roboto-Light'; font-size:25.8211px;">to infinity &amp; beyond</tspan>					</textPath>
</text>
				</g>
			</g>
			<g>
				<g>
					<text transform="matrix(1 0 0 1 33.5957 153.0693)" class="st3 st4 st5 st6">20</text>
					<line class="st7" x1="33.1" y1="156.6" x2="51" y2="156.6"/>
					<line class="st7" x1="33.1" y1="138" x2="51" y2="138"/>
				</g>
				<g>
					<text transform="matrix(1 0 0 1 248.9189 153.0693)" class="st3 st4 st5 st6">18</text>
					<line class="st7" x1="249" y1="156.6" x2="266.9" y2="156.6"/>
					<line class="st7" x1="249" y1="138" x2="266.9" y2="138"/>
				</g>
			</g>
			<g>
				<g>
					<g>
						<path class="st3" d="M150.1,134.3c47.8,0,64,15.9,64,20.1c0,6.5-23.7,16.2-64,16.2s-64-9.7-64-16.2
							C86.1,150.2,102.3,134.3,150.1,134.3z"/>
					</g>
					<g>
						<g>
							<path class="st0" d="M200.4,147.4c2.4,1.2,4.8,2.6,6.6,4.7c0.4,0.6,0.9,1.2,0.9,2.1c-0.9,5.5-14.9,8.3-19.7,9.5
								c-10.5,2.1-21.2,2.6-31.9,2.8c-15.9,0.1-32.1-0.7-47.6-4.5c-5.1-1.4-10.4-2.8-14.7-6c0,0,0.1-0.2,0.1-0.2
								c4.4,3,9.7,4.3,14.8,5.6c5.2,1.2,10.4,1.9,15.7,2.5c21,2.1,42.5,1.3,63.3-2.2c5.2-0.9,10.4-2.1,15.1-4.2
								c5.2-2.5,5-4.1,0.7-7.6c-1-0.8-2.1-1.6-3.2-2.3C200.3,147.6,200.4,147.4,200.4,147.4L200.4,147.4z"/>
						</g>
					</g>
					<g>
						<path class="st3" d="M150.1,140.9c19.7,0,36-4.3,39.5-7.7c-3.5-15.6-19.9-24.8-39.5-24.8s-36,9.1-39.5,24.8
							C114.1,136.6,130.4,140.9,150.1,140.9z"/>
					</g>
					<g>
						<path class="st0" d="M150.1,137.4c18.3,0,33.6-3.2,36.9-5.7c-3.3-11.6-18.6-20.3-36.9-20.3c-18.3,0-33.6,8.7-36.9,20.3
							C116.5,134.2,131.7,137.4,150.1,137.4z"/>
					</g>
					<path class="st0" d="M150.1,140.9c-19.7,0-36-4.3-39.5-7.7c-0.5,2-0.7,4.2-0.7,6.3c0,3.4,18,8.9,40.3,8.9s40.3-5.5,40.3-8.9
						c0-2.2-0.3-4.3-0.7-6.3C186.1,136.6,169.7,140.9,150.1,140.9z"/>
					<path class="st3" d="M185,169.2c-9.1,2-20.8,3.3-34.9,3.3c-14.1,0-25.8-1.3-34.9-3.3c0.7,0.7,1.6,1.4,2.6,2.1
						c2.6,1.7,3.8,4.4,2.9,7.1l-0.1,0.2c-0.3,1,1.1,1.8,2,1.1l2.8-1.9c1.9-1.3,4.3-1.8,6.6-1.3c5.3,1.1,11.4,1.7,18,1.7
						c6.5,0,12.6-0.6,18-1.7c2.3-0.5,4.8,0,6.6,1.3l2.8,1.9c1,0.7,2.4-0.1,2-1.1l-0.1-0.2c-0.9-2.6,0.3-5.4,2.9-7.1
						C183.4,170.6,184.3,170,185,169.2z"/>
					<g>
						<path class="st0" d="M109.8,139.6c1.2,4,15.2,6.8,19.2,7.5c17.3,3,35.5,2.5,52.4-2.5c2.5-0.8,5-1.7,7.3-3.1
							c0.7-0.5,1.5-1,1.6-2c-0.1,0.9-0.9,1.5-1.6,2.1c-2.2,1.6-4.7,2.5-7.2,3.5c-16.9,5.6-35.3,6.1-52.7,2.8
							C124.7,147,110.9,143.8,109.8,139.6L109.8,139.6z"/>
					</g>
					<g>
						<path class="st3" d="M168.8,113.9c-2-1-4.2-1.8-6.4-2.5c-7.8,7.8-18.9,19-27.1,27.2c2.6,0.3,5.3,0.5,8.2,0.7L168.8,113.9z"/>
						<path class="st3" d="M155.4,109.9c-7.4,8.5-18.6,19.9-27.3,27.5c1.3,0.2,2.7,0.4,4.1,0.6l27.3-27.3
							C158.2,110.4,156.8,110.1,155.4,109.9z"/>
					</g>
					<g>
						<path class="st0" d="M143.8,135.4c6.7-7.4,13.7-14.4,21.1-21.1C158.2,121.7,151.2,128.8,143.8,135.4L143.8,135.4z"/>
					</g>
					<g>
						<g>
							<path class="st0" d="M187.9,130.5c-9.7-22.1-40.1-26.6-59.9-16.4c-6.8,3.5-12.5,9.2-15.7,16.4c2.7-7.3,8.5-13.3,15.3-17
								C147.5,102.7,179.1,107.5,187.9,130.5L187.9,130.5z"/>
						</g>
					</g>
					<g>
						<path class="st0" d="M189.6,132.3c-2.6,2.2-6,3.2-9.2,4.2c-3.3,0.9-6.6,1.7-10,2.2c-18.1,2.8-38.2,2.4-55.5-3.9
							c-1.6-0.6-3.1-1.4-4.4-2.5c0.9,0.8,2.2,1.4,3.3,1.8c2,0.8,4,1.4,6,1.9c20,4.8,45.6,4.8,65.2-1.5
							C186.6,134,188.3,133.3,189.6,132.3L189.6,132.3z"/>
					</g>
					<g>
						<path class="st3" d="M189.6,137.1"/>
						<circle class="st3" cx="181.4" cy="140.8" r="0.8"/>
						<path class="st3" d="M172.6,144.1c-0.7,0-1.3-0.6-1.3-1.3s0.6-1.3,1.3-1.3c0.7,0,1.3,0.6,1.3,1.3S173.3,144.1,172.6,144.1z"/>
						<circle class="st3" cx="163.6" cy="144.1" r="1.6"/>
						<path class="st3" d="M154.6,146.4c-1,0-1.7-0.8-1.7-1.7c0-1,0.8-1.7,1.7-1.7c1,0,1.7,0.8,1.7,1.7
							C156.3,145.7,155.6,146.4,154.6,146.4z"/>
						<path class="st3" d="M145.6,146.4c-1,0-1.7-0.8-1.7-1.7c0-1,0.8-1.7,1.7-1.7c1,0,1.7,0.8,1.7,1.7
							C147.3,145.7,146.5,146.4,145.6,146.4z"/>
						<path class="st3" d="M136.5,145.7c-0.9,0-1.6-0.7-1.6-1.6c0-0.9,0.7-1.6,1.6-1.6c0.9,0,1.6,0.7,1.6,1.6
							C138.1,145,137.4,145.7,136.5,145.7z"/>
						<path class="st3" d="M127.6,144.1c-0.7,0-1.3-0.6-1.3-1.3c0-0.7,0.6-1.3,1.3-1.3c0.7,0,1.3,0.6,1.3,1.3
							C128.8,143.6,128.3,144.1,127.6,144.1z"/>
						<path class="st3" d="M118.7,141.6c-0.4,0-0.8-0.4-0.8-0.8s0.4-0.8,0.8-0.8s0.8,0.4,0.8,0.8S119.2,141.6,118.7,141.6z"/>
						<path class="st3" d="M110.5,137.1"/>
					</g>
					<g>
						<line class="st8" x1="151.1" y1="171.4" x2="151.1" y2="179.3"/>
						<line class="st8" x1="149.1" y1="171.4" x2="149.1" y2="179.3"/>
					</g>
				</g>
				<path class="st3" d="M216.8,187.7c0,1.9,0.3,3.8,0.9,5.6c-0.8-0.2-1.7-0.3-2.6-0.3c-3.2,0-6.1,1.6-7.8,4c-4.4-3.8-10.1-6-16.4-6
					c-13.6,0-24.7,10.8-25.2,24.2c-0.5,0-1-0.1-1.5-0.1c-6.3,0-11.7,3.7-14.2,9c-2.5-5.3-7.9-9-14.2-9c-0.5,0-1,0-1.5,0.1
					c-0.6-13.5-11.6-24.2-25.2-24.2c-6.2,0-12,2.3-16.4,6c-1.8-2.4-4.6-4-7.8-4c-0.9,0-1.7,0.1-2.6,0.3c0.6-1.7,0.9-3.6,0.9-5.6
					c0-9.3-7.3-16.8-16.4-17.3c10.5,36.1,43.7,62.4,83.2,62.4s72.7-26.4,83.2-62.4C224.1,170.8,216.8,178.4,216.8,187.7z"/>
				<path class="st3" d="M84.1,103.7c0-1.9-0.3-3.8-0.9-5.6c0.8,0.2,1.7,0.3,2.6,0.3c3.2,0,6.1-1.6,7.8-4c4.4,3.8,10.1,6,16.4,6
					c13.6,0,24.7-10.8,25.2-24.2c0.5,0,1,0.1,1.5,0.1c6.3,0,11.7-3.7,14.2-9c2.5,5.3,7.9,9,14.2,9c0.5,0,1,0,1.5-0.1
					c0.6,13.5,11.6,24.2,25.2,24.2c6.2,0,12-2.3,16.4-6c1.8,2.4,4.6,4,7.8,4c0.9,0,1.7-0.1,2.6-0.3c-0.6,1.7-0.9,3.6-0.9,5.6
					c0,9.3,7.3,16.8,16.4,17.3c-10.5-36.1-43.7-62.4-83.2-62.4S78.1,84.9,67.7,121C76.8,120.5,84.1,112.9,84.1,103.7z"/>
			</g>
			<g>
				<g>
					<circle class="st3" cx="105.1" cy="184.6" r="1"/>
				</g>
				<g>
					<circle class="st3" cx="84.1" cy="176.4" r="0.9"/>
				</g>
				<g>
					<path class="st3" d="M85.9,170.8c0,0.5-0.4,1-1,1c-0.5,0-1-0.4-1-1c0-0.5,0.4-1,1-1C85.4,169.8,85.9,170.3,85.9,170.8z"/>
				</g>
				<g>
					<path class="st3" d="M67.8,148.4c0,0.5-0.4,1-1,1c-0.5,0-1-0.4-1-1c0-0.5,0.4-1,1-1C67.4,147.5,67.8,147.9,67.8,148.4z"/>
				</g>
				<g>
					<circle class="st3" cx="85.4" cy="199.3" r="0.7"/>
				</g>
				<g>
					<circle class="st3" cx="102.8" cy="196" r="0.8"/>
				</g>
				<g>
					<circle class="st3" cx="72.7" cy="138.3" r="0.6"/>
				</g>
				<g>
					<circle class="st3" cx="83.9" cy="118.9" r="1.4"/>
				</g>
				<g>
					<path class="st3" d="M94.5,116.7c0,0.6-0.5,1.1-1.1,1.1s-1.1-0.5-1.1-1.1c0-0.6,0.5-1.1,1.1-1.1S94.5,116.1,94.5,116.7z"/>
				</g>
				<g>
					<path class="st3" d="M92.4,131.1c0,0.1-0.1,0.3-0.3,0.3c-0.1,0-0.3-0.1-0.3-0.3c0-0.1,0.1-0.3,0.3-0.3
						C92.3,130.8,92.4,131,92.4,131.1z"/>
				</g>
				<g>
					<path class="st3" d="M104.7,96c0,0.4-0.3,0.7-0.7,0.7c-0.4,0-0.7-0.3-0.7-0.7s0.3-0.7,0.7-0.7C104.4,95.3,104.7,95.6,104.7,96z
						"/>
				</g>
				<g>
					<path class="st3" d="M125.7,92.4c0,0.4-0.3,0.7-0.7,0.7c-0.4,0-0.7-0.3-0.7-0.7c0-0.4,0.3-0.7,0.7-0.7
						C125.4,91.8,125.7,92.1,125.7,92.4z"/>
				</g>
				<g>
					<path class="st3" d="M148.2,83.9c0,0.7-0.6,1.3-1.3,1.3c-0.7,0-1.3-0.6-1.3-1.3c0-0.7,0.6-1.3,1.3-1.3
						C147.6,82.5,148.2,83.1,148.2,83.9z"/>
				</g>
				<g>
					<path class="st3" d="M170.1,67.5c0,0.4-0.3,0.7-0.7,0.7c-0.4,0-0.7-0.3-0.7-0.7c0-0.4,0.3-0.7,0.7-0.7
						C169.8,66.8,170.1,67.1,170.1,67.5z"/>
				</g>
				<g>
					<path class="st3" d="M162.2,83.2c0,0.6-0.5,1.1-1.1,1.1c-0.6,0-1.1-0.5-1.1-1.1s0.5-1.1,1.1-1.1
						C161.7,82.1,162.2,82.6,162.2,83.2z"/>
				</g>
				<g>
					<circle class="st3" cx="157.4" cy="93.1" r="0.5"/>
				</g>
				<g>
					<circle class="st3" cx="178.8" cy="83.8" r="0.6"/>
				</g>
				<g>
					<circle class="st3" cx="202.3" cy="115.3" r="0.9"/>
				</g>
				<g>
					<path class="st3" d="M193.1,81.5c0,0.6-0.4,1-1,1c-0.6,0-1-0.4-1-1c0-0.6,0.4-1,1-1C192.7,80.5,193.1,81,193.1,81.5z"/>
				</g>
				<g>
					<path class="st3" d="M210.5,123.6c0,0.5-0.4,0.9-0.9,0.9c-0.5,0-0.9-0.4-0.9-0.9c0-0.5,0.4-0.9,0.9-0.9
						C210.1,122.7,210.5,123.1,210.5,123.6z"/>
				</g>
				<g>
					<circle class="st3" cx="202.3" cy="102.1" r="1.5"/>
				</g>
				<g>
					<circle class="st3" cx="223" cy="133.2" r="1"/>
				</g>
				<g>
					<circle class="st3" cx="215.7" cy="119.1" r="1.5"/>
				</g>
				<g>
					<path class="st3" d="M231.8,130.8c0,0.2-0.1,0.3-0.3,0.3c-0.1,0-0.3-0.1-0.3-0.3c0-0.1,0.1-0.3,0.3-0.3
						C231.7,130.6,231.8,130.7,231.8,130.8z"/>
				</g>
				<g>
					<path class="st3" d="M227.7,168.4c0.1,0.3-0.1,0.7-0.4,0.8c-0.3,0.1-0.7-0.1-0.8-0.4c-0.1-0.3,0.1-0.7,0.4-0.8
						C227.3,167.9,227.6,168.1,227.7,168.4z"/>
				</g>
				<g>
					<path class="st3" d="M206.3,172.9c0.2,0.8-0.2,1.6-0.9,1.8c-0.8,0.2-1.6-0.2-1.8-0.9c-0.2-0.8,0.2-1.6,0.9-1.8
						C205.2,171.7,206,172.2,206.3,172.9z"/>
				</g>
				<g>
					<circle class="st3" cx="235.7" cy="155.2" r="1.3"/>
				</g>
				<g>
					<path class="st3" d="M215,182.9c0,0.4-0.3,0.8-0.8,0.8c-0.4,0-0.8-0.3-0.8-0.8c0-0.4,0.3-0.8,0.8-0.8
						C214.6,182.1,215,182.5,215,182.9z"/>
				</g>
				<g>
					<path class="st3" d="M193.2,210.9c0,0.6-0.5,1.1-1.1,1.1c-0.6,0-1.1-0.5-1.1-1.1c0-0.6,0.5-1.1,1.1-1.1
						C192.7,209.8,193.2,210.3,193.2,210.9z"/>
				</g>
				<g>
					<path class="st3" d="M203.8,187.6c0.2,0.7-0.2,1.4-0.8,1.6c-0.7,0.2-1.4-0.2-1.6-0.8c-0.2-0.7,0.2-1.4,0.8-1.6
						C202.9,186.6,203.6,186.9,203.8,187.6z"/>
				</g>
				<g>
					<circle class="st3" cx="170.1" cy="191.3" r="0.6"/>
				</g>
				<g>
					<path class="st3" d="M138.8,189.1c0,0.7-0.6,1.3-1.3,1.3c-0.7,0-1.3-0.6-1.3-1.3c0-0.7,0.6-1.3,1.3-1.3
						C138.2,187.8,138.8,188.4,138.8,189.1z"/>
				</g>
				<g>
					<path class="st3" d="M155.8,195.6c0,0.8-0.7,1.5-1.5,1.5s-1.5-0.7-1.5-1.5s0.7-1.5,1.5-1.5S155.8,194.8,155.8,195.6z"/>
				</g>
				<g>
					<path class="st3" d="M150.2,203.5c0,0.4-0.3,0.7-0.7,0.7s-0.7-0.3-0.7-0.7s0.3-0.7,0.7-0.7S150.2,203.1,150.2,203.5z"/>
				</g>
				<g>
					<path class="st3" d="M147.5,209.7c0,0.7-0.6,1.3-1.3,1.3c-0.7,0-1.3-0.6-1.3-1.3c0-0.7,0.6-1.3,1.3-1.3
						C146.9,208.4,147.5,209,147.5,209.7z"/>
				</g>
			</g>
		</g>
	</g>
</g>
</svg>
