<?xml version="1.0" encoding="utf-8"?>
<!-- Generator: Adobe Illustrator 26.0.0, SVG Export Plug-In . SVG Version: 6.00 Build 0)  -->
<svg version="1.1" id="Camada_1" xmlns="http://www.w3.org/2000/svg" xmlns:xlink="http://www.w3.org/1999/xlink" x="0px" y="0px"
	 viewBox="0 0 300 273.1" style="enable-background:new 0 0 300 273.1;" xml:space="preserve">
<style type="text/css">
	.st0{fill:#246082;}
	.st1{fill:#FEEBCD;}
	.st2{fill:#D43935;}
	.st3{font-family:'Roboto-Bold';}
	.st4{font-size:9.903px;}
	.st5{font-family:'Roboto-Regular';}
	.st6{font-size:28.2943px;}
	.st7{font-size:14.1471px;}
</style>
<g>
	
		<image style="overflow:visible;opacity:0.5;" width="305" height="270" xlink:href="73A2F0B2.png"  transform="matrix(1 0 0 1 -2 2.5495)">
	</image>
	<g>
		<g>
			<g>
				<polygon class="st0" points="107.1,231.9 129.5,235 171.1,235 193.5,231.9 				"/>
				<g>
					<path class="st1" d="M150.3,257.7c-4,0-7.6-2.1-9.7-5.6L11.2,27.9c-2-3.5-2-7.7,0-11.2s5.6-5.6,9.7-5.6h259
						c4,0,7.6,2.1,9.7,5.6c2,3.5,2,7.7,0,11.2L160,252.1C157.9,255.6,154.3,257.7,150.3,257.7z"/>
					<path class="st0" d="M150.3,252.2c-1,0-3.4-0.3-4.9-2.8L15.9,25.1c-1.5-2.6-0.5-4.8,0-5.7s2-2.8,4.9-2.8h259
						c2.9,0,4.4,2,4.9,2.8c0.5,0.8,1.5,3.1,0,5.7L155.2,249.4C153.7,251.9,151.3,252.2,150.3,252.2z"/>
					<path class="st2" d="M279.8,13.6c3.1,0,5.9,1.6,7.5,4.3c1.6,2.7,1.6,5.9,0,8.7L157.8,250.9c-1.6,2.7-4.4,4.3-7.5,4.3
						c-3.1,0-5.9-1.6-7.5-4.3L13.3,26.6c-1.6-2.7-1.6-5.9,0-8.7c1.6-2.7,4.4-4.3,7.5-4.3H279.8 M279.8,8.6h-259
						C10.3,8.6,3.7,20,9,29.1l129.5,224.3c2.6,4.6,7.2,6.8,11.8,6.8s9.2-2.3,11.8-6.8L291.6,29.1C296.9,20,290.3,8.6,279.8,8.6
						L279.8,8.6z"/>
				</g>
				<g>
					<polygon class="st0" points="193.5,231.9 107.1,231.9 105.7,230.5 194.9,230.5 					"/>
					<polygon class="st2" points="194.9,230.5 105.7,230.5 105.7,217.2 105.7,203.9 194.9,203.9 194.9,217.2 					"/>
					<text transform="matrix(1 0 0 1 125.8701 221.0739)" class="st1 st3 st4">estd 2018</text>
					<g>
						<g>
							<polygon class="st1" points="117.7,213.9 118.5,216.4 121.2,216.4 119,218 119.8,220.5 117.7,218.9 115.5,220.5 116.3,218 
								114.2,216.4 116.8,216.4 							"/>
						</g>
						<g>
							<polygon class="st1" points="182.9,213.9 182.1,216.4 179.4,216.4 181.6,218 180.8,220.5 182.9,218.9 185.1,220.5 184.3,218 
								186.4,216.4 183.7,216.4 							"/>
						</g>
					</g>
				</g>
			</g>
			<g>
				<text transform="matrix(1 0 0 1 51.9629 54.3947)" class="st1 st5 st6">space travel</text>
				<text transform="matrix(1 0 0 1 77.2383 70.0744)" class="st1 st3 st7">exploring universe</text>
			</g>
			<g>
				<circle class="st1" cx="150.3" cy="137.6" r="43.3"/>
				<g>
					<g>
						<path class="st0" d="M124.9,164.3c0,0.6-0.5,1.2-1.2,1.2s-1.2-0.5-1.2-1.2c0-0.6,0.5-1.2,1.2-1.2S124.9,163.7,124.9,164.3z"/>
					</g>
					<g>
						<circle class="st0" cx="148.5" cy="135.2" r="2.5"/>
					</g>
					<g>
						<path class="st0" d="M155.3,129.4c0,1.2-1,2.2-2.2,2.2c-1.2,0-2.2-1-2.2-2.2c0-1.2,1-2.2,2.2-2.2
							C154.4,127.1,155.3,128.1,155.3,129.4z"/>
					</g>
					<g>
						<circle class="st0" cx="181.1" cy="147.5" r="2.4"/>
					</g>
					<g>
						<path class="st0" d="M133.1,157.6c0,1.5-1.2,2.7-2.7,2.7c-1.5,0-2.7-1.2-2.7-2.7c0-1.5,1.2-2.7,2.7-2.7
							C131.9,154.9,133.1,156.1,133.1,157.6z"/>
					</g>
					<g>
						<path class="st0" d="M124.5,110.4c0,1-0.8,1.9-1.9,1.9s-1.9-0.8-1.9-1.9s0.8-1.9,1.9-1.9S124.5,109.4,124.5,110.4z"/>
					</g>
					<g>
						<path class="st0" d="M158.5,118c0,0.5-0.4,0.9-0.9,0.9c-0.5,0-0.9-0.4-0.9-0.9c0-0.5,0.4-0.9,0.9-0.9
							C158.1,117,158.5,117.4,158.5,118z"/>
					</g>
					<g>
						<path class="st0" d="M129.2,126.2c0,0.2-0.1,0.3-0.3,0.3c-0.2,0-0.3-0.1-0.3-0.3c0-0.2,0.1-0.3,0.3-0.3
							C129.1,125.9,129.2,126.1,129.2,126.2z"/>
					</g>
					<g>
						<path class="st0" d="M142.1,175.4c0,0.6-0.5,1-1,1c-0.6,0-1-0.5-1-1c0-0.6,0.5-1,1-1C141.6,174.3,142.1,174.8,142.1,175.4z"/>
					</g>
					<g>
						<path class="st0" d="M138.6,109.1c0,0.2-0.1,0.3-0.3,0.3c-0.2,0-0.3-0.1-0.3-0.3c0-0.2,0.1-0.3,0.3-0.3
							C138.5,108.8,138.6,108.9,138.6,109.1z"/>
					</g>
					<g>
						<circle class="st0" cx="180.9" cy="114.8" r="2.5"/>
					</g>
					<g>
						<circle class="st0" cx="133.5" cy="125.5" r="0.4"/>
					</g>
					<g>
						<path class="st0" d="M130.4,117.2c0,0.4-0.3,0.8-0.8,0.8c-0.4,0-0.8-0.3-0.8-0.8s0.3-0.8,0.8-0.8
							C130.1,116.5,130.4,116.8,130.4,117.2z"/>
					</g>
					<g>
						<circle class="st0" cx="141.5" cy="125.3" r="1.3"/>
					</g>
				</g>
				<g>
					<g>
						<path class="st0" d="M186.3,87.6c4.3-2.4,9.8-3.9,14.7-2c4.2,1.5,5.2,5.1,4.5,9.1c-3.2,15.6-18.6,34-29.1,45.9
							c-13.3,14.8-28.3,29.1-47.2,36.2c-4.3,1.4-10.7,3.4-14.3-0.6c-1.2-2-1.3-4.1-1.6-6.3c0,0,0.7-0.1,0.7-0.1
							c0.4,1.8,1.1,3.8,2.1,5.2c3.4,1.9,7.9-0.8,11.2-2.4c11-6.2,20.8-14.9,30.6-22.9c9.9-8.2,19.2-17.3,27.5-27.2
							c6.1-7.4,12.1-15.1,16.1-23.9c1.1-2.7,2.3-5.9,1.6-8.7c-0.4-1.3-1.6-2.1-2.8-2.7c-4.4-1.9-9.4-1-13.7,1
							C186.6,88.2,186.3,87.6,186.3,87.6L186.3,87.6z"/>
					</g>
					<g>
						<path class="st1" d="M186.3,87.7c6.8-4.1,20.3-9,18.4,4.3c-2.4,11.3-9.5,20.8-16.1,29.9c-7.8,10.3-16.6,19.9-25.9,28.9
							c-9.5,9-20,16.9-32.1,22.1c-4.4,1.7-12.2,4.6-16.2,0.7c-1-1-1.3-2.5-1.2-3.7c0,0,0.6-0.1,0.6-0.1c2.5,10.8,25.8-8,30.3-11.5
							c14.9-11.7,29.3-24.3,41.4-38.9c4.6-5.1,29.7-38.1,9.9-34.5c-3.1,0.6-6,1.8-8.9,3.2C186.6,88.2,186.3,87.7,186.3,87.7
							L186.3,87.7z"/>
					</g>
					<g>
						<path class="st1" d="M186.4,87.7c6.7-3.9,20.1-8.9,18.2,4.2c-2.5,11.2-9.6,20.7-16.2,29.8c-16,20-34.1,40.1-57.8,50.9
							c-4.3,1.7-12,4.7-15.9,0.9c-0.9-0.9-1.3-2.4-1.3-3.6c0,0,0.5,0,0.5,0c2.5,11.1,26-7.5,30.6-11.1
							c14.9-11.7,29.3-24.4,41.3-39.1c6-7.3,11.7-15,15.5-23.7c2.7-6.2,3.3-13.1-5.9-11.1c-3.1,0.6-6,1.9-8.9,3.2L186.4,87.7
							L186.4,87.7z"/>
					</g>
				</g>
				<g>
					<g>
						<path class="st0" d="M114,88.2c-4.3-2-9.3-2.9-13.7-1c-10.8,4.1,10.6,30.2,14.8,35.3c8.3,9.9,17.6,18.9,27.5,27.2
							c9.8,8.1,19.5,16.7,30.6,22.9c2.7,1.5,5.6,2.8,8.4,3.1c1,0.1,2-0.1,2.8-0.6c1-1.4,1.7-3.5,2.1-5.2c0,0,0.7,0.1,0.7,0.1
							c-0.3,2.2-0.3,4.4-1.6,6.3c-5.2,5.7-18-0.7-23.6-3.6c-14.8-7.9-26.9-19.6-37.9-32c-8.8-9.9-17.1-20.3-23.6-31.8
							c-3.1-6-10.6-19.8-1-23.2c4.9-1.8,10.4-0.4,14.7,2C114.3,87.6,114,88.2,114,88.2L114,88.2z"/>
					</g>
					<g>
						<path class="st1" d="M114,88.2c-9.2-4.4-20.9-7.1-14.6,7.7c3.8,8.6,9.6,16.3,15.6,23.6c8.1,9.7,17.1,18.7,26.8,26.9
							c5.6,4.4,41.5,37.1,44.9,23.5c0,0,0.6,0.1,0.6,0.1c0,1.3-0.3,2.8-1.2,3.7c-4,3.9-11.7,1-16.2-0.7
							c-12.1-5.2-22.6-13.2-32.1-22.1c-9.3-9-18-18.6-25.9-28.9c-5.4-7.3-20.3-27.7-15.2-36.5c4.2-5.1,13-0.1,17.5,2.2
							C114.3,87.7,114,88.2,114,88.2L114,88.2z"/>
					</g>
					<g>
						<path class="st1" d="M114,88.1c-9.3-4.6-21.1-7.1-14.8,7.8c3.8,8.7,9.6,16.4,15.5,23.7c8.1,9.8,17.1,18.8,26.7,27.1
							c5.6,4.6,41.9,37.2,45.3,23.1c0,0,0.5,0,0.5,0c0,1.2-0.3,2.7-1.3,3.6c-3.9,3.8-11.6,0.8-15.9-0.9
							c-23.7-10.8-41.9-30.9-57.8-50.9c-5.7-7.7-18.7-25.3-15.9-34.9c3-7,13.4-1.5,18,0.9C114.2,87.7,114,88.1,114,88.1L114,88.1z"
							/>
					</g>
				</g>
			</g>
			<g>
				<g>
					<path class="st1" d="M218.6,90.5c0,0.3-0.2,0.5-0.5,0.5c-0.3,0-0.5-0.2-0.5-0.5c0-0.3,0.2-0.5,0.5-0.5
						C218.4,90,218.6,90.2,218.6,90.5z"/>
				</g>
				<g>
					<path class="st1" d="M98.6,118.2c0,0.6-0.5,1-1,1c-0.6,0-1-0.5-1-1c0-0.6,0.5-1,1-1C98.2,117.2,98.6,117.7,98.6,118.2z"/>
				</g>
				<g>
					<path class="st1" d="M99.9,127.4c0,0.5-0.4,0.9-0.9,0.9c-0.5,0-0.9-0.4-0.9-0.9c0-0.5,0.4-0.9,0.9-0.9
						C99.6,126.5,99.9,126.9,99.9,127.4z"/>
				</g>
				<g>
					<path class="st1" d="M142,188.6c0,0.6-0.5,1.1-1.1,1.1c-0.6,0-1.1-0.5-1.1-1.1c0-0.6,0.5-1.1,1.1-1.1
						C141.5,187.6,142,188,142,188.6z"/>
				</g>
				<g>
					<circle class="st1" cx="124.5" cy="183.1" r="0.3"/>
				</g>
				<g>
					<path class="st1" d="M131.2,196.1c0,0.5-0.4,0.9-0.9,0.9c-0.5,0-0.9-0.4-0.9-0.9c0-0.5,0.4-0.9,0.9-0.9
						C130.8,195.2,131.2,195.6,131.2,196.1z"/>
				</g>
				<g>
					<circle class="st1" cx="128.8" cy="200.6" r="0.7"/>
				</g>
				<g>
					<circle class="st1" cx="139.8" cy="196.2" r="0.7"/>
				</g>
				<g>
					<circle class="st1" cx="172.3" cy="199.9" r="0.8"/>
				</g>
				<g>
					<circle class="st1" cx="163.5" cy="192.8" r="0.5"/>
				</g>
				<g>
					<path class="st1" d="M173.5,187c0,0.5-0.4,0.9-0.9,0.9c-0.5,0-0.9-0.4-0.9-0.9c0-0.5,0.4-0.9,0.9-0.9
						C173.1,186.1,173.5,186.5,173.5,187z"/>
				</g>
				<g>
					<path class="st1" d="M201.8,133.4c0,0.6-0.5,1.2-1.2,1.2s-1.2-0.5-1.2-1.2s0.5-1.2,1.2-1.2S201.8,132.7,201.8,133.4z"/>
				</g>
				<g>
					<path class="st1" d="M195.4,126.6c0,0.4-0.3,0.7-0.7,0.7c-0.4,0-0.7-0.3-0.7-0.7s0.3-0.7,0.7-0.7
						C195.1,125.9,195.4,126.2,195.4,126.6z"/>
				</g>
				<g>
					<path class="st1" d="M199.4,116.2c0,0.5-0.4,1-1,1c-0.5,0-1-0.4-1-1c0-0.5,0.4-1,1-1C199,115.2,199.4,115.7,199.4,116.2z"/>
				</g>
				<g>
					<path class="st1" d="M206.6,113.7c0,0.2-0.1,0.3-0.3,0.3c-0.2,0-0.3-0.1-0.3-0.3c0-0.2,0.1-0.3,0.3-0.3
						C206.5,113.4,206.6,113.5,206.6,113.7z"/>
				</g>
				<g>
					<path class="st1" d="M223.8,102.6c0,0.1-0.1,0.3-0.3,0.3c-0.1,0-0.3-0.1-0.3-0.3c0-0.1,0.1-0.3,0.3-0.3
						C223.7,102.4,223.8,102.5,223.8,102.6z"/>
				</g>
				<g>
					<circle class="st1" cx="191.2" cy="107.1" r="0.2"/>
				</g>
				<g>
					<path class="st1" d="M214.8,109.4c0,0.6-0.4,1-1,1c-0.6,0-1-0.4-1-1c0-0.6,0.4-1,1-1C214.3,108.4,214.8,108.9,214.8,109.4z"/>
				</g>
				<g>
					<path class="st1" d="M212.1,105.4c0,0.6-0.5,1.1-1.1,1.1c-0.6,0-1.1-0.5-1.1-1.1c0-0.6,0.5-1.1,1.1-1.1
						C211.6,104.2,212.1,104.7,212.1,105.4z"/>
				</g>
				<g>
					<circle class="st1" cx="183.4" cy="78.2" r="1.2"/>
				</g>
				<g>
					<path class="st1" d="M176.9,87.3c0,0.5-0.4,0.9-0.9,0.9s-0.9-0.4-0.9-0.9s0.4-0.9,0.9-0.9S176.9,86.8,176.9,87.3z"/>
				</g>
				<g>
					<path class="st1" d="M172.9,82.4c0,0.2-0.2,0.4-0.4,0.4c-0.2,0-0.4-0.2-0.4-0.4c0-0.2,0.2-0.4,0.4-0.4
						C172.7,81.9,172.9,82.1,172.9,82.4z"/>
				</g>
				<g>
					<circle class="st1" cx="168.5" cy="93.8" r="0.2"/>
				</g>
				<g>
					<path class="st1" d="M158.1,92.3c0,0.2-0.1,0.3-0.3,0.3c-0.2,0-0.3-0.1-0.3-0.3c0-0.2,0.1-0.3,0.3-0.3
						C158,92,158.1,92.2,158.1,92.3z"/>
				</g>
				<g>
					<path class="st1" d="M79.1,93.7c0,0.5-0.4,1-1,1c-0.5,0-1-0.4-1-1s0.4-1,1-1C78.7,92.8,79.1,93.2,79.1,93.7z"/>
				</g>
				<g>
					<path class="st1" d="M123.6,95.1c0,0.7-0.6,1.3-1.3,1.3c-0.7,0-1.3-0.6-1.3-1.3c0-0.7,0.6-1.3,1.3-1.3
						C123,93.7,123.6,94.3,123.6,95.1z"/>
				</g>
				<g>
					<path class="st1" d="M138.9,79.7c0,0.6-0.5,1.1-1.1,1.1c-0.6,0-1.1-0.5-1.1-1.1c0-0.6,0.5-1.1,1.1-1.1
						C138.4,78.6,138.9,79.1,138.9,79.7z"/>
				</g>
				<g>
					<circle class="st1" cx="119.4" cy="102.2" r="0.4"/>
				</g>
				<g>
					<circle class="st1" cx="125.8" cy="81" r="0.4"/>
				</g>
				<g>
					<path class="st1" d="M134.5,89.2c0,0.7-0.6,1.3-1.3,1.3c-0.7,0-1.3-0.6-1.3-1.3s0.6-1.3,1.3-1.3
						C133.9,87.8,134.5,88.4,134.5,89.2z"/>
				</g>
				<g>
					<circle class="st1" cx="92.9" cy="87.8" r="0.6"/>
				</g>
				<g>
					<circle class="st1" cx="83.6" cy="116.2" r="0.8"/>
				</g>
				<g>
					<path class="st1" d="M86.1,81c0,0.6-0.5,1.1-1.1,1.1s-1.1-0.5-1.1-1.1c0-0.6,0.5-1.1,1.1-1.1S86.1,80.4,86.1,81z"/>
				</g>
				<g>
					<circle class="st1" cx="100.3" cy="102.8" r="0.4"/>
				</g>
				<g>
					<circle class="st1" cx="122.4" cy="111.7" r="0.3"/>
				</g>
				<g>
					<circle class="st1" cx="91.7" cy="101.5" r="0.5"/>
				</g>
				<g>
					<path class="st1" d="M81.2,110.4c0,0.6-0.5,1.1-1.1,1.1c-0.6,0-1.1-0.5-1.1-1.1c0-0.6,0.5-1.1,1.1-1.1
						C80.7,109.3,81.2,109.8,81.2,110.4z"/>
				</g>
				<g>
					<circle class="st1" cx="88.8" cy="101.6" r="0.3"/>
				</g>
				<g>
					<path class="st1" d="M89.2,105.8c0,0.8-0.6,1.4-1.4,1.4c-0.8,0-1.4-0.6-1.4-1.4c0-0.8,0.6-1.4,1.4-1.4
						C88.6,104.4,89.2,105,89.2,105.8z"/>
				</g>
				<g>
					<path class="st1" d="M99,77.2c0,0.8-0.6,1.4-1.4,1.4s-1.4-0.6-1.4-1.4s0.6-1.4,1.4-1.4S99,76.4,99,77.2z"/>
				</g>
				<g>
					<path class="st1" d="M105,99.4c0,0.3-0.2,0.5-0.5,0.5c-0.3,0-0.5-0.2-0.5-0.5c0-0.3,0.2-0.5,0.5-0.5
						C104.8,98.9,105,99.1,105,99.4z"/>
				</g>
				<g>
					<circle class="st1" cx="110.5" cy="80.9" r="1.2"/>
				</g>
				<g>
					<path class="st1" d="M124.8,88.9c0,0.6-0.5,1.1-1.1,1.1c-0.6,0-1.1-0.5-1.1-1.1c0-0.6,0.5-1.1,1.1-1.1
						C124.3,87.8,124.8,88.3,124.8,88.9z"/>
				</g>
			</g>
		</g>
	</g>
</g>
</svg>
