<?xml version="1.0" encoding="utf-8"?>
<!-- Generator: Adobe Illustrator 26.0.0, SVG Export Plug-In . SVG Version: 6.00 Build 0)  -->
<svg version="1.1" id="Camada_1" xmlns="http://www.w3.org/2000/svg" xmlns:xlink="http://www.w3.org/1999/xlink" x="0px" y="0px"
	 viewBox="0 0 300 300" style="enable-background:new 0 0 300 300;" xml:space="preserve">
<style type="text/css">
	.st0{fill:#FEEBCD;}
	.st1{fill:#246082;}
	.st2{fill:#D43935;}
	.st3{fill:none;stroke:#246082;stroke-width:0.75;stroke-miterlimit:10;}
	.st4{font-family:'Roboto-Bold';}
	.st5{font-size:18.6764px;}
	.st6{font-family:'Roboto-Regular';}
	.st7{font-size:11.4932px;}
	.st8{font-size:10.0565px;}
</style>
<g>
	
		<image style="overflow:visible;opacity:0.5;" width="305" height="305" xlink:href="4577F3D4.png"  transform="matrix(1 0 0 1 -3 -3)">
	</image>
	<g>
		<g>
			<g>
				<path class="st0" d="M149.9,287.4c-2.7,0-5.1-1-7-2.9L12.3,153.9c-3.9-3.9-3.9-10.2,0-14L142.9,9.3c1.9-1.9,4.4-2.9,7-2.9
					c2.7,0,5.1,1,7,2.9l130.6,130.6c3.9,3.9,3.9,10.2,0,14L156.9,284.5C155.1,286.3,152.6,287.4,149.9,287.4z"/>
				<path class="st1" d="M149.9,281.9c-1.2,0-2.3-0.5-3.1-1.3L16.2,150c-1.7-1.7-1.7-4.5,0-6.3L146.8,13.1c0.8-0.8,1.9-1.3,3.1-1.3
					s2.3,0.5,3.1,1.3l130.6,130.6c1.7,1.7,1.7,4.5,0,6.3L153,280.6C152.2,281.4,151.1,281.9,149.9,281.9z"/>
				<path class="st2" d="M149.9,8.9c2,0,3.9,0.8,5.3,2.2l130.6,130.6c1.4,1.4,2.2,3.3,2.2,5.3c0,2-0.8,3.9-2.2,5.3L155.2,282.7
					c-1.4,1.4-3.3,2.2-5.3,2.2c-2,0-3.9-0.8-5.3-2.2L14.1,152.1c-1.4-1.4-2.2-3.3-2.2-5.3c0-2,0.8-3.9,2.2-5.3L144.7,11
					C146.1,9.6,147.9,8.9,149.9,8.9 M149.9,3.9c-3.2,0-6.4,1.2-8.8,3.6L10.6,138.1c-4.9,4.9-4.9,12.7,0,17.6l130.6,130.6
					c2.4,2.4,5.6,3.6,8.8,3.6s6.4-1.2,8.8-3.6l130.6-130.6c4.9-4.9,4.9-12.7,0-17.6L158.7,7.5C156.3,5.1,153.1,3.9,149.9,3.9
					L149.9,3.9z"/>
			</g>
			<g>
				<g>
					<path class="st0" d="M149.9,45.6c3.5,0.1,6.9,0.7,10.1,2c-2.9-4.4-6.2-8.5-10.1-12.2l0,0c-3.8,3.7-7.2,7.8-10.1,12.2
						C143,46.3,146.5,45.7,149.9,45.6z"/>
					<path class="st0" d="M161.6,50.2c-0.5-0.2-1-0.4-1.6-0.6c-1.7-0.5-3.3-1-5-1.2c-1.7-0.3-3.4-0.4-5.1-0.4
						c-1.7,0-3.4,0.1-5.1,0.4c-1.7,0.2-3.4,0.7-5,1.2c-0.5,0.2-1,0.4-1.6,0.6c-7,11.7-10.5,25.2-10,39.1l3.3,89.2
						c0,1.3,1.1,2.3,2.4,2.3h32.1c1.3,0,2.4-1,2.4-2.3l3.3-89.2C172.1,75.5,168.6,61.9,161.6,50.2z"/>
				</g>
				<path class="st0" d="M161,187l-1.8-4.9h-18.7l-1.8,4.9c-0.6,1.6,0.6,3.2,2.3,3.2h17.7C160.4,190.3,161.6,188.6,161,187z"/>
				<g>
					<path class="st0" d="M129.1,178.6l-28.5-4.7v-3.4c0,0,21.6-10.7,26.9-34.9L129.1,178.6z"/>
					<g>
						<polygon class="st0" points="109.7,118.2 118.4,117.9 118.3,116.4 109.7,116.7 						"/>
						<path class="st0" d="M118.2,115.2c-0.2-4.3-0.9-8.6-2.2-12.8l-2.9-9.5l-2.2,9.7c-1,4.2-1.4,8.6-1.3,12.9L118.2,115.2z"/>
						<polygon class="st0" points="109.8,119.4 111.5,168.5 120.1,168.2 118.4,119 						"/>
					</g>
					<g>
						<path class="st1" d="M127.2,174c-7.4-0.6-14.8-1.8-22-3.7C112.6,170.8,120,172,127.2,174L127.2,174z"/>
					</g>
				</g>
				<g>
					<path class="st0" d="M170.7,178.6l28.5-4.7v-3.4c0,0-21.6-10.7-26.9-34.9L170.7,178.6z"/>
					<g>
						<polygon class="st0" points="190.1,118.2 181.5,117.9 181.5,116.4 190.2,116.7 						"/>
						<path class="st0" d="M181.6,115.2c0.2-4.3,0.9-8.6,2.2-12.8l2.9-9.5l2.2,9.7c1,4.2,1.4,8.6,1.3,12.9L181.6,115.2z"/>
						<polygon class="st0" points="190.1,119.4 188.3,168.5 179.7,168.2 181.4,119 						"/>
					</g>
					<g>
						<path class="st1" d="M172.6,174c7.2-1.9,14.5-3.1,22-3.7C187.4,172.2,180.1,173.4,172.6,174L172.6,174z"/>
					</g>
				</g>
				<path class="st1" d="M151.1,68.3v9.6c0,0,8.1,0.5,17.3,6.2c0,0,0-3.1-0.6-7.1C167.8,77.1,164.2,70.5,151.1,68.3z"/>
				<path class="st1" d="M148.7,68.3v9.6c0,0-8.1,0.5-17.3,6.2c0,0,0-3.1,0.6-7.1C132,77.1,135.7,70.5,148.7,68.3z"/>
				<g>
					<path class="st1" d="M169.6,88.3c-9.8-7.8-23.9-9.2-34.8-2.9c-1.6,0.8-3.1,1.8-4.5,2.9C141,77.8,158.8,77.8,169.6,88.3
						L169.6,88.3z"/>
				</g>
				<g>
					<path class="st1" d="M169.6,75.2c-7.8-8.3-19.8-12.3-30.3-6.6c-3.3,1.7-6.4,3.9-9,6.6c2.3-3,5.3-5.5,8.6-7.3
						C149.5,61.7,162.3,65.9,169.6,75.2L169.6,75.2z"/>
				</g>
				<g>
					<path class="st1" d="M169.6,110c-10.6-5.4-23.4-6-34.6-2c-1.6,0.6-3.2,1.2-4.7,2C141.8,102.5,158,102.6,169.6,110L169.6,110z"
						/>
				</g>
				<g>
					<path class="st1" d="M168.4,133.4c-10.7-1.8-21.6-2-32.4-0.7c-1.5,0.2-3.1,0.4-4.6,0.7C143.4,130,156.5,130,168.4,133.4
						L168.4,133.4z"/>
				</g>
				<g>
					<path class="st1" d="M135.5,154.7c9.6-0.7,19.3-0.7,28.9,0C154.8,155.4,145.1,155.4,135.5,154.7L135.5,154.7z"/>
				</g>
				<line class="st3" x1="149.9" y1="80.8" x2="149.9" y2="180.9"/>
				<g>
					<g>
						<path class="st1" d="M141,63.8c-2.5,0.5-3.7,0.9-6.1,1.8c0.2-0.4,0.2-0.6,0.4-1c1.5-1.4,2.2-2,3.6-3.3
							c0.5-0.4,0.8-0.8,1.1-1.1c0.2-0.3,0.4-0.5,0.5-0.8c0.1-0.3,0.1-0.5,0-0.6c-0.1-0.1-0.3-0.1-0.6-0.1c-0.3,0.1-0.6,0.3-0.9,0.6
							c-0.3,0.3-0.5,0.6-0.6,0.9c-0.6,0.2-0.9,0.3-1.5,0.5c0.2-0.4,0.4-0.9,0.8-1.3c0.4-0.4,0.8-0.8,1.2-1.1
							c0.5-0.3,0.9-0.6,1.4-0.7c0.7-0.2,1.3-0.2,1.6,0c0.3,0.2,0.4,0.7,0.3,1.3c-0.1,0.3-0.3,0.7-0.6,1.1c-0.3,0.4-0.8,0.9-1.4,1.5
							c-0.9,0.8-1.4,1.3-2.4,2.2c1.5-0.5,2.2-0.7,3.7-1C141.1,63.2,141.1,63.4,141,63.8z"/>
						<path class="st1" d="M145.9,60.8c-1.3,0.1-2,0.2-3.3,0.5c0.1-0.4,0.1-0.6,0.2-1.1c1.3-0.2,1.9-0.3,3.2-0.5
							C146,60.2,146,60.4,145.9,60.8z"/>
						<path class="st1" d="M152.9,60.3c0.1,0.9-0.1,1.6-0.6,2c-0.5,0.4-1.2,0.6-2.3,0.6c-1,0-1.8-0.2-2.2-0.7
							c-0.5-0.4-0.7-1.1-0.6-2c0-0.5,0.1-0.7,0.1-1.2c0.1-0.9,0.4-1.6,0.8-2.1s1.1-0.8,1.9-0.7s1.4,0.3,1.9,0.8
							c0.5,0.5,0.8,1.2,0.9,2.1C152.9,59.6,152.9,59.8,152.9,60.3z M151.2,58.9c0-0.5-0.1-0.9-0.3-1.2c-0.2-0.3-0.5-0.4-0.8-0.4
							c-0.4,0-0.6,0.1-0.8,0.4c-0.2,0.2-0.3,0.6-0.3,1.1c0,0.6,0,1-0.1,1.6c0,0.5,0.1,0.9,0.3,1.2c0.2,0.3,0.5,0.4,0.9,0.4
							c0.4,0,0.7-0.1,0.9-0.4c0.2-0.2,0.3-0.6,0.2-1.1C151.2,59.8,151.2,59.5,151.2,58.9z"/>
						<path class="st1" d="M157.5,63.6c-0.7-0.1-1.1-0.2-1.8-0.3c-0.3-2-0.5-3-0.8-5c-0.7,0.1-1.1,0.1-1.8,0.3c0-0.4-0.1-0.6-0.1-1
							c1.2-0.3,1.8-0.4,3-0.6c0.1,0,0.1,0,0.2,0C156.6,59.6,156.9,60.9,157.5,63.6z"/>
						<path class="st1" d="M162.9,60.4c0.1,0.3,0.2,0.6,0.1,0.8c-0.1,0.2-0.3,0.3-0.5,0.3c0.4,0.3,0.8,0.6,1.2,1
							c0.3,0.4,0.6,0.8,0.7,1.1c0.3,0.6,0.2,1-0.2,1.2c-0.4,0.2-1,0.1-2-0.2c-0.9-0.3-1.7-0.6-2.4-1.1c-0.6-0.5-1-1-1.2-1.6
							c-0.1-0.4-0.1-0.7,0.1-0.9c0.2-0.2,0.4-0.4,0.8-0.4c-0.4-0.2-0.7-0.5-1-0.8c-0.3-0.3-0.4-0.6-0.5-0.9c-0.1-0.6,0-1,0.3-1.2
							s0.8-0.3,1.5-0.1c0.7,0.2,1.3,0.6,1.9,1.1C162.2,59.3,162.6,59.8,162.9,60.4z M162.6,63c-0.1-0.3-0.3-0.6-0.6-0.8
							c-0.3-0.2-0.6-0.4-0.9-0.5c-0.3-0.1-0.6-0.1-0.7,0c-0.2,0.1-0.2,0.3-0.1,0.6c0.1,0.3,0.3,0.5,0.5,0.8c0.3,0.2,0.6,0.4,1,0.5
							c0.4,0.1,0.6,0.1,0.8,0C162.7,63.6,162.8,63.4,162.6,63z M161.4,60c-0.1-0.3-0.3-0.5-0.5-0.7c-0.2-0.2-0.5-0.4-0.7-0.4
							c-0.3-0.1-0.5-0.1-0.6,0c-0.1,0.1-0.1,0.3,0,0.6c0.1,0.3,0.2,0.5,0.4,0.7c0.2,0.2,0.5,0.4,0.8,0.4c0.3,0.1,0.5,0.1,0.6,0
							C161.5,60.5,161.5,60.3,161.4,60z"/>
					</g>
				</g>
				<g>
					<polygon class="st1" points="149.9,190.4 155.5,179.1 149.9,157 144.4,179.1 					"/>
					<polygon class="st0" points="149.9,188.8 151.7,179.7 149.9,162.1 148.2,179.7 					"/>
				</g>
			</g>
			<path class="st0" d="M157.4,193.3L157.4,193.3H154v26.5c-0.8,0-1.6,0-2.4,0.1v-26.6h-3.4v26.6c-0.8,0-1.6,0-2.4-0.1v-26.5h-3.4
				l0,0c0,18.7-20.3,30.5-36.5,21.1c-36.4-21.1-44.4-62.9-64.5-42.7l104.7,104.7c2.1,2.1,5.5,2.1,7.6,0l104.7-104.7
				c-20.2-20.2-28.1,21.6-64.5,42.7C177.7,223.8,157.4,212,157.4,193.3z"/>
			<g>
				<text transform="matrix(1 0 0 1 35.188 153.4092)" class="st0 st4 st5">Space</text>
				<text transform="matrix(1 0 0 1 198.9873 153.4092)" class="st0 st4 st5">Travel</text>
			</g>
			<text transform="matrix(1 0 0 1 119.2671 235.8291)"><tspan x="0" y="0" class="st1 st6 st7">exploring</tspan><tspan x="4.1" y="11.5" class="st1 st6 st7">universe</tspan></text>
			<text transform="matrix(1 0 0 1 138.377 257.5654)" class="st1 st4 st8">2018</text>
			<g>
				<polygon class="st1" points="149.9,263.2 150.8,265.7 153.5,265.7 151.3,267.3 152.1,269.9 149.9,268.3 147.7,269.9 
					148.6,267.3 146.4,265.7 149.1,265.7 				"/>
			</g>
			<g>
				<g>
					<path class="st0" d="M123.1,197.9c0,0.7-0.5,1.2-1.2,1.2c-0.7,0-1.2-0.5-1.2-1.2c0-0.7,0.5-1.2,1.2-1.2
						C122.5,196.7,123.1,197.3,123.1,197.9z"/>
				</g>
				<g>
					<path class="st0" d="M93,192.2c0,0.8-0.6,1.4-1.4,1.4c-0.8,0-1.4-0.6-1.4-1.4s0.6-1.4,1.4-1.4C92.4,190.8,93,191.5,93,192.2z"
						/>
				</g>
				<g>
					<circle class="st0" cx="91.8" cy="185.3" r="0.2"/>
				</g>
				<g>
					<path class="st0" d="M95,165.8c0,0.5-0.4,0.9-0.9,0.9c-0.5,0-0.9-0.4-0.9-0.9c0-0.5,0.4-0.9,0.9-0.9
						C94.6,164.9,95,165.3,95,165.8z"/>
				</g>
				<g>
					<circle class="st0" cx="80.6" cy="175" r="1.4"/>
				</g>
				<g>
					<path class="st0" d="M101.3,158.8c0,0.6-0.5,1.2-1.2,1.2c-0.6,0-1.2-0.5-1.2-1.2c0-0.6,0.5-1.2,1.2-1.2
						C100.7,157.7,101.3,158.2,101.3,158.8z"/>
				</g>
				<g>
					<circle class="st0" cx="62.7" cy="119.3" r="0.1"/>
				</g>
				<g>
					<circle class="st0" cx="82.4" cy="158.7" r="0.6"/>
				</g>
				<g>
					<path class="st0" d="M96.9,136.8c0,0.3-0.3,0.6-0.6,0.6c-0.3,0-0.6-0.3-0.6-0.6c0-0.3,0.3-0.6,0.6-0.6
						C96.7,136.2,96.9,136.4,96.9,136.8z"/>
				</g>
				<g>
					<path class="st0" d="M69.1,131.4c0,0.7-0.6,1.3-1.3,1.3c-0.7,0-1.3-0.6-1.3-1.3c0-0.7,0.6-1.3,1.3-1.3
						C68.5,130.1,69.1,130.7,69.1,131.4z"/>
				</g>
				<g>
					<path class="st0" d="M73.3,120.9c0,0.6-0.5,1.1-1.1,1.1s-1.1-0.5-1.1-1.1s0.5-1.1,1.1-1.1S73.3,120.3,73.3,120.9z"/>
				</g>
				<g>
					<path class="st0" d="M89.3,108.3c0,0.6-0.5,1-1,1c-0.6,0-1-0.5-1-1c0-0.6,0.5-1,1-1C88.9,107.3,89.3,107.7,89.3,108.3z"/>
				</g>
				<g>
					<path class="st0" d="M95.2,77.5c0,0.3-0.2,0.5-0.5,0.5c-0.3,0-0.5-0.2-0.5-0.5c0-0.3,0.2-0.5,0.5-0.5
						C95,77,95.2,77.2,95.2,77.5z"/>
				</g>
				<g>
					<circle class="st0" cx="133.8" cy="47.4" r="0.8"/>
				</g>
				<g>
					<path class="st0" d="M122.3,78c0,0.2-0.2,0.5-0.5,0.5c-0.2,0-0.5-0.2-0.5-0.5c0-0.2,0.2-0.5,0.5-0.5
						C122.1,77.6,122.3,77.8,122.3,78z"/>
				</g>
				<g>
					<path class="st0" d="M99.8,98.6c0,0.7-0.6,1.3-1.3,1.3c-0.7,0-1.3-0.6-1.3-1.3c0-0.7,0.6-1.3,1.3-1.3
						C99.2,97.3,99.8,97.9,99.8,98.6z"/>
				</g>
				<g>
					<path class="st0" d="M122.3,68.3c0,0.4-0.4,0.8-0.8,0.8c-0.4,0-0.8-0.4-0.8-0.8s0.4-0.8,0.8-0.8
						C122,67.5,122.3,67.8,122.3,68.3z"/>
				</g>
				<g>
					<path class="st0" d="M122.4,56.7c0,0.6-0.5,1-1,1c-0.6,0-1-0.5-1-1c0-0.6,0.5-1,1-1C122,55.6,122.4,56.1,122.4,56.7z"/>
				</g>
				<g>
					<circle class="st0" cx="101.9" cy="114.3" r="0.6"/>
				</g>
				<g>
					<path class="st0" d="M219.5,116.1c0,0.5-0.4,0.8-0.8,0.8c-0.5,0-0.8-0.4-0.8-0.8s0.4-0.8,0.8-0.8
						C219.1,115.3,219.5,115.7,219.5,116.1z"/>
				</g>
				<g>
					<circle class="st0" cx="221.1" cy="120.6" r="0.7"/>
				</g>
				<g>
					<path class="st0" d="M187.2,79.7c0,0.4-0.3,0.8-0.8,0.8s-0.8-0.3-0.8-0.8c0-0.4,0.3-0.8,0.8-0.8S187.2,79.2,187.2,79.7z"/>
				</g>
				<g>
					<circle class="st0" cx="230.6" cy="104.9" r="0.9"/>
				</g>
				<g>
					<circle class="st0" cx="232" cy="114.6" r="0.9"/>
				</g>
				<g>
					<path class="st0" d="M195.3,77.5c0,0.8-0.6,1.4-1.4,1.4s-1.4-0.6-1.4-1.4s0.6-1.4,1.4-1.4S195.3,76.7,195.3,77.5z"/>
				</g>
				<g>
					<path class="st0" d="M211.6,111.5c0,0.6-0.5,1.1-1.1,1.1c-0.6,0-1.1-0.5-1.1-1.1c0-0.6,0.5-1.1,1.1-1.1
						C211.1,110.4,211.6,110.9,211.6,111.5z"/>
				</g>
				<g>
					<circle class="st0" cx="202.3" cy="126.7" r="0.6"/>
				</g>
				<g>
					<path class="st0" d="M203.5,131.8c0,0.7-0.5,1.2-1.2,1.2c-0.7,0-1.2-0.5-1.2-1.2c0-0.7,0.5-1.2,1.2-1.2
						C202.9,130.6,203.5,131.2,203.5,131.8z"/>
				</g>
				<g>
					<circle class="st0" cx="211.6" cy="93.2" r="1"/>
				</g>
				<g>
					<path class="st0" d="M236.5,106.9c0,0.1-0.1,0.2-0.2,0.2c-0.1,0-0.2-0.1-0.2-0.2c0-0.1,0.1-0.2,0.2-0.2
						C236.4,106.7,236.5,106.8,236.5,106.9z"/>
				</g>
				<g>
					<circle class="st0" cx="214.8" cy="128.9" r="0.7"/>
				</g>
				<g>
					<path class="st0" d="M251.9,133.4c0,0.4-0.4,0.8-0.8,0.8c-0.4,0-0.8-0.4-0.8-0.8c0-0.4,0.4-0.8,0.8-0.8
						C251.5,132.7,251.9,133,251.9,133.4z"/>
				</g>
				<g>
					<path class="st0" d="M264.5,160.2c0,0.7-0.6,1.4-1.4,1.4c-0.7,0-1.4-0.6-1.4-1.4c0-0.7,0.6-1.4,1.4-1.4
						C263.9,158.9,264.5,159.5,264.5,160.2z"/>
				</g>
				<g>
					<path class="st0" d="M226.1,149.2c0,0.1-0.1,0.3-0.3,0.3c-0.1,0-0.3-0.1-0.3-0.3c0-0.1,0.1-0.3,0.3-0.3
						C226,148.9,226.1,149,226.1,149.2z"/>
				</g>
				<g>
					<path class="st0" d="M223.7,173.5c0,0.6-0.5,1-1,1c-0.6,0-1-0.5-1-1s0.5-1,1-1C223.3,172.5,223.7,173,223.7,173.5z"/>
				</g>
				<g>
					<path class="st0" d="M199.7,160.9c0,0.6-0.5,1.1-1.1,1.1s-1.1-0.5-1.1-1.1s0.5-1.1,1.1-1.1S199.7,160.3,199.7,160.9z"/>
				</g>
				<g>
					<circle class="st0" cx="197.7" cy="203.8" r="1.2"/>
				</g>
				<g>
					<path class="st0" d="M204.1,193.6c0,0.6-0.5,1.1-1.1,1.1c-0.6,0-1.1-0.5-1.1-1.1c0-0.6,0.5-1.1,1.1-1.1
						C203.6,192.5,204.1,193,204.1,193.6z"/>
				</g>
				<g>
					<path class="st0" d="M188.6,199c0,0.4-0.3,0.7-0.7,0.7c-0.4,0-0.7-0.3-0.7-0.7c0-0.4,0.3-0.7,0.7-0.7
						C188.3,198.3,188.6,198.6,188.6,199z"/>
				</g>
			</g>
		</g>
	</g>
</g>
</svg>
