<?xml version="1.0" encoding="utf-8"?>
<!-- Generator: Adobe Illustrator 26.0.0, SVG Export Plug-In . SVG Version: 6.00 Build 0)  -->
<svg version="1.1" id="Camada_1" xmlns="http://www.w3.org/2000/svg" xmlns:xlink="http://www.w3.org/1999/xlink" x="0px" y="0px"
	 viewBox="0 0 300 300" style="enable-background:new 0 0 300 300;" xml:space="preserve">
<style type="text/css">
	.st0{fill:#FEEBCD;}
	.st1{fill:#246082;}
	.st2{fill:#D43935;}
	.st3{fill:none;}
	.st4{fill:none;stroke:#246082;stroke-miterlimit:10;}
</style>
<g>
	
		<image style="overflow:visible;opacity:0.5;" width="304" height="305" xlink:href="FF86481F.png"  transform="matrix(1 0 0 1 -2 -1)">
	</image>
	<g>
		<g>
			<g>
				<g>
					
						<ellipse transform="matrix(0.7071 -0.7071 0.7071 0.7071 -61.1753 149.6754)" class="st0" cx="150.1" cy="148.7" rx="138.7" ry="138.7"/>
					<path class="st1" d="M150.1,14c36,0,69.8,14,95.3,39.5s39.5,59.3,39.5,95.3s-14,69.8-39.5,95.3s-59.3,39.5-95.3,39.5
						s-69.8-14-95.3-39.5s-39.5-59.3-39.5-95.3s14-69.8,39.5-95.3S114.1,14,150.1,14 M150.1,6C71.3,6,7.4,69.9,7.4,148.7
						s63.9,142.7,142.7,142.7s142.7-63.9,142.7-142.7S228.9,6,150.1,6L150.1,6z"/>
					<path class="st2" d="M150.1,21.1c34.1,0,66.1,13.3,90.2,37.4s37.4,56.1,37.4,90.2c0,34.1-13.3,66.1-37.4,90.2
						c-24.1,24.1-56.1,37.4-90.2,37.4S84,263,59.9,238.9c-24.1-24.1-37.4-56.1-37.4-90.2s13.3-66.1,37.4-90.2
						C84,34.4,116,21.1,150.1,21.1 M150.1,20.2c-70.9,0-128.4,57.5-128.4,128.4s57.5,128.4,128.4,128.4s128.4-57.5,128.4-128.4
						S221,20.2,150.1,20.2L150.1,20.2z"/>
				</g>
				<circle class="st1" cx="150.1" cy="148.7" r="87.3"/>
			</g>
			<g>
				<path id="SVGID_x5F_1_x5F_" class="st3" d="M53.6,148.7c0-53.3,43.2-96.5,96.5-96.5s96.5,43.2,96.5,96.5
					c0,53.3-43.2,96.5-96.5,96.5S53.6,202,53.6,148.7z"/>
				<text>				<textPath  xlink:href="#SVGID_x5F_1_x5F_" startOffset="-33.1787%">
<tspan  class="st1" style="font-family:'Roboto-Medium'; font-size:29.035px;">space adventure</tspan>				</textPath>
</text>
				<g>
					<path id="SVGID_x5F_00000010276060454676361490000009844244833506893462_x5F_" class="st3" d="M267.2,148.7
						c0-64.7-52.4-117.1-117.1-117.1S33,84,33,148.7s52.4,117.1,117.1,117.1S267.2,213.4,267.2,148.7z"/>
					<text>					<textPath  xlink:href="#SVGID_x5F_00000010276060454676361490000009844244833506893462_x5F_" startOffset="166.805%">
<tspan  class="st1" style="font-family:'Roboto-Light'; font-size:25.8089px;">to infinity &amp; beyond</tspan>					</textPath>
</text>
				</g>
				<g>
					<polygon class="st1" points="43.6,139.6 46,147 53.8,147 47.5,151.6 49.9,159 43.6,154.4 37.3,159 39.7,151.6 33.4,147 
						41.2,147 					"/>
					<polygon class="st1" points="256.5,139.6 254.1,147 246.3,147 252.7,151.6 250.2,159 256.5,154.4 262.9,159 260.4,151.6 
						266.8,147 259,147 					"/>
				</g>
			</g>
			<g>
				<ellipse class="st0" cx="150.1" cy="141.7" rx="62.7" ry="62.6"/>
				<g>
					<g>
						<path class="st1" d="M137.7,94.4c-3.4,0.7-5.1,1.2-8.4,2.4c0.2-0.5,0.3-0.8,0.5-1.3c2-1.9,3-2.8,4.9-4.5
							c0.6-0.6,1.1-1.1,1.5-1.5c0.3-0.4,0.5-0.7,0.6-1.1c0.1-0.4,0.1-0.7-0.1-0.9c-0.2-0.2-0.4-0.2-0.9-0.1
							c-0.5,0.1-0.9,0.4-1.2,0.8c-0.4,0.4-0.6,0.8-0.8,1.3c-0.8,0.3-1.3,0.4-2.1,0.7c0.2-0.6,0.6-1.2,1.1-1.8c0.5-0.6,1-1.1,1.7-1.6
							c0.6-0.4,1.3-0.8,1.9-1c1-0.3,1.7-0.3,2.2,0c0.5,0.3,0.6,0.9,0.4,1.7c-0.1,0.5-0.4,0.9-0.8,1.5c-0.4,0.5-1,1.2-1.9,2
							c-1.3,1.2-2,1.8-3.4,3c2-0.6,3.1-0.9,5.1-1.3C137.9,93.5,137.9,93.8,137.7,94.4z"/>
						<path class="st1" d="M144.5,90.3c-1.8,0.2-2.7,0.3-4.5,0.6c0.1-0.6,0.2-0.9,0.3-1.5c1.7-0.3,2.6-0.4,4.4-0.6
							C144.6,89.4,144.6,89.7,144.5,90.3z"/>
						<path class="st1" d="M154.1,89.6c0.1,1.2-0.1,2.2-0.8,2.8c-0.7,0.6-1.7,0.9-3.1,0.9c-1.4,0-2.4-0.3-3.1-0.9
							c-0.7-0.6-0.9-1.5-0.9-2.7c0.1-0.7,0.1-1,0.1-1.7c0.1-1.3,0.5-2.2,1.1-2.9c0.6-0.7,1.5-1,2.6-1c1.1,0,2,0.4,2.6,1
							c0.6,0.7,1.1,1.6,1.2,2.8C154,88.6,154.1,88.9,154.1,89.6z M151.8,87.6c0-0.7-0.2-1.3-0.4-1.6c-0.3-0.3-0.6-0.5-1.1-0.5
							c-0.5,0-0.9,0.2-1.1,0.5c-0.2,0.3-0.4,0.8-0.4,1.5c0,0.9,0,1.3-0.1,2.2c0,0.7,0.1,1.3,0.4,1.6c0.3,0.3,0.7,0.5,1.3,0.5
							c0.6,0,1-0.2,1.3-0.5s0.4-0.8,0.3-1.6C151.8,88.9,151.8,88.5,151.8,87.6z"/>
						<path class="st1" d="M160.4,94c-1-0.2-1.5-0.3-2.5-0.4c-0.5-2.8-0.7-4.2-1.1-6.9c-1,0.1-1.5,0.2-2.5,0.4
							c-0.1-0.6-0.1-0.9-0.1-1.4c1.7-0.4,2.5-0.5,4.1-0.8c0.1,0,0.1,0,0.2,0C159.2,88.5,159.6,90.4,160.4,94z"/>
						<path class="st1" d="M167.8,89.7c0.2,0.5,0.2,0.8,0.1,1.1c-0.1,0.3-0.4,0.4-0.8,0.5c0.6,0.4,1.1,0.9,1.6,1.4
							c0.5,0.5,0.8,1,1,1.6c0.3,0.9,0.3,1.4-0.3,1.6c-0.5,0.2-1.4,0.1-2.7-0.2c-1.3-0.4-2.4-0.9-3.2-1.5c-0.9-0.7-1.4-1.4-1.6-2.2
							c-0.1-0.5-0.1-0.9,0.1-1.2c0.2-0.3,0.6-0.5,1-0.6c-0.5-0.3-1-0.7-1.3-1.1c-0.4-0.4-0.6-0.8-0.7-1.3c-0.2-0.8-0.1-1.3,0.4-1.7
							c0.4-0.3,1.1-0.4,2.1-0.1c1,0.3,1.8,0.8,2.5,1.5C166.9,88.1,167.5,88.9,167.8,89.7z M167.5,93.3c-0.1-0.4-0.4-0.8-0.8-1.1
							c-0.4-0.3-0.8-0.6-1.3-0.7c-0.5-0.1-0.8-0.1-1,0c-0.2,0.2-0.3,0.5-0.1,0.9c0.1,0.4,0.4,0.8,0.7,1.1c0.4,0.3,0.8,0.6,1.3,0.7
							c0.5,0.2,0.9,0.2,1.1,0C167.6,94,167.6,93.7,167.5,93.3z M165.8,89.1c-0.1-0.4-0.3-0.7-0.6-1c-0.3-0.3-0.6-0.5-1-0.6
							c-0.4-0.1-0.6-0.1-0.8,0.1c-0.1,0.2-0.2,0.4-0.1,0.8c0.1,0.4,0.3,0.7,0.6,1c0.3,0.3,0.6,0.5,1.1,0.6c0.4,0.1,0.7,0.1,0.8-0.1
							C165.9,89.8,165.9,89.5,165.8,89.1z"/>
					</g>
				</g>
				<path class="st1" d="M196.9,171.6c0,0-14.8,17.7-46.8,17.7s-46.8-17.7-46.8-17.7s-3.8-9.1-3.8-25.2s3.8-25.2,3.8-25.2
					s14.8-17.7,46.8-17.7s46.8,17.7,46.8,17.7s3.8,9.1,3.8,25.2S196.9,171.6,196.9,171.6z"/>
				<g>
					<g>
						<path class="st1" d="M203.7,149.8c0,8.9-0.7,18.1-3.8,26.5c-21.8,22.4-62.8,24.4-88.9,8.5c-3.9-2.4-7.6-5.2-10.7-8.6
							c-3.1-8.5-3.8-17.6-3.8-26.5c0.2,8.9,1.2,17.9,4.3,26.2c2.8,2.9,6.8,6,10.5,8.2c25.9,15.4,66.2,13.5,88-8.3
							C202.3,168.1,203.6,158.6,203.7,149.8L203.7,149.8z"/>
					</g>
					<g>
						<path class="st1" d="M96.5,142.3c0-8.8,0.7-17.8,3.8-26.1c21.9-22.1,62.7-23.9,88.8-8.4c3.9,2.4,7.6,5.1,10.7,8.4
							c3.1,8.3,3.8,17.3,3.8,26c-0.2-8.7-1.2-17.6-4.3-25.8c-2.8-2.9-6.8-5.9-10.6-8.1c-25.9-15-66.1-13.3-88,8.1
							C97.9,124.3,96.6,133.7,96.5,142.3L96.5,142.3z"/>
					</g>
				</g>
				<g>
					<line class="st4" x1="151.1" y1="194.7" x2="151.1" y2="204.3"/>
					<line class="st4" x1="149.1" y1="194.7" x2="149.1" y2="204.3"/>
				</g>
				<g>
					<g>
						<path class="st0" d="M198.9,149.1c0,7.1-0.8,14.3-3.6,20.9c-20.5,17.8-56.8,18.9-80.4,6.8c-3.6-1.9-7-4.1-10-6.8
							c-2.8-6.6-3.5-13.8-3.6-20.8c0.1,7,1,14.2,3.8,20.7c2.8,2.6,6.4,4.9,9.9,6.7c23.2,11.8,59.9,10.7,80.1-6.7
							C197.8,163.5,198.8,156.1,198.9,149.1L198.9,149.1z"/>
					</g>
					<g>
						<path class="st0" d="M101.3,143.2c0-6.9,0.8-14.1,3.6-20.5c20.5-17.5,56.9-18.5,80.4-6.7c3.6,1.9,7.1,4,10.1,6.7
							c2.8,6.4,3.5,13.5,3.6,20.5c-0.1-6.9-1-14-3.8-20.3c-2.8-2.5-6.4-4.8-10-6.6c-23.2-11.5-59.8-10.6-80.1,6.6
							C102.4,129,101.4,136.3,101.3,143.2L101.3,143.2z"/>
					</g>
				</g>
				<g>
					<path class="st0" d="M195.2,122.8l-60.3,60.3c0,0-6.1-1.1-13.8-3.7l63.5-63.5C184.6,115.9,190.4,118.3,195.2,122.8z"/>
					<path class="st0" d="M182.1,114.6l-63.6,63.6c0,0-2.3-0.8-3.7-1.7l63.4-63.4C178.1,113.1,179.7,113.6,182.1,114.6z"/>
					<g>
						<path class="st1" d="M136.5,175.8c16.5-17.5,33.6-34.5,51-51C171,142.2,153.9,159.3,136.5,175.8L136.5,175.8z"/>
					</g>
				</g>
				<g>
					<path class="st0" d="M78.4,156l7.2-0.8c-0.1-0.5-0.1-1.1-0.2-1.6l-7.2,0.8C78.3,155,78.3,155.5,78.4,156z"/>
					<path class="st0" d="M85.3,152c-0.3-3.3-0.4-6.7-0.4-10.3c0-3.3,0.2-6.5,0.6-9.6c-1.8,0.7-3.3,1.4-5.5,2.4
						c-1.3,0.6-2.2,2-2.2,3.5c-0.1,5.8,0,10.4,0.4,14.7L85.3,152z"/>
					<path class="st0" d="M85.8,156.8l-7.2,0.8c0.6,4.7,1.7,9.5,3.2,15.6c0.4,1.5,1.5,2.6,2.9,2.9c2.9,0.6,4.6,0.9,7.1,1.3
						C88.8,171.3,86.9,164.4,85.8,156.8z"/>
				</g>
				<g>
					<path class="st0" d="M221.8,156l-7.2-0.8c0.1-0.5,0.1-1.1,0.2-1.6l7.2,0.8C221.9,155,221.8,155.5,221.8,156z"/>
					<path class="st0" d="M214.9,152c0.3-3.3,0.4-6.7,0.4-10.3c0-3.3-0.2-6.5-0.6-9.6c1.8,0.7,3.3,1.4,5.5,2.4
						c1.3,0.6,2.2,2,2.2,3.5c0.1,5.8,0,10.4-0.4,14.7L214.9,152z"/>
					<path class="st0" d="M214.4,156.8l7.2,0.8c-0.6,4.7-1.7,9.5-3.2,15.6c-0.4,1.5-1.5,2.6-2.9,2.9c-2.9,0.6-4.6,0.9-7.1,1.3
						C211.4,171.3,213.3,164.4,214.4,156.8z"/>
				</g>
				<path class="st0" d="M204.1,184.3c-9.6,13.8-26.5,22.2-54,22.2s-44.4-8.4-54-22.2c-1.1,1.1-2.5,3.1-3.3,7.1
					c-0.2,1,0.1,2.1,0.7,2.9c4.5,5.3,23.9,25.4,56.6,25.4s52.1-20.1,56.6-25.4c0.7-0.8,0.9-1.9,0.7-2.9
					C206.6,187.4,205.2,185.3,204.1,184.3z"/>
				<g>
					<path class="st1" d="M95.4,192.2c14.8,15.9,36.8,24.8,58.5,23.5c19.1-0.8,37.8-9.5,50.8-23.5c-12.6,14.6-31.5,23.6-50.8,24.5
						C132.1,218,109.7,208.8,95.4,192.2L95.4,192.2z"/>
				</g>
				<g>
					<g>
						<g>
							<path class="st0" d="M141.6,123.7c0,0.7-0.6,1.3-1.3,1.3s-1.3-0.6-1.3-1.3s0.6-1.3,1.3-1.3S141.6,123,141.6,123.7z"/>
						</g>
						<g>
							<path class="st0" d="M147.7,129c0,0.6-0.5,1-1,1c-0.6,0-1-0.5-1-1c0-0.6,0.5-1,1-1C147.2,128,147.7,128.5,147.7,129z"/>
						</g>
						<g>
							<path class="st0" d="M124.4,126c0,0.7-0.6,1.3-1.3,1.3c-0.7,0-1.3-0.6-1.3-1.3c0-0.7,0.6-1.3,1.3-1.3
								C123.8,124.6,124.4,125.2,124.4,126z"/>
						</g>
						<g>
							<circle class="st0" cx="108.9" cy="167.1" r="0.9"/>
						</g>
						<g>
							<circle class="st0" cx="126.6" cy="130.3" r="1.1"/>
						</g>
						<g>
							<path class="st0" d="M134.8,144c0,0.4-0.3,0.7-0.7,0.7s-0.7-0.3-0.7-0.7s0.3-0.7,0.7-0.7S134.8,143.6,134.8,144z"/>
						</g>
						<g>
							<path class="st0" d="M141.4,116.2c0,0.4-0.3,0.7-0.7,0.7c-0.4,0-0.7-0.3-0.7-0.7c0-0.4,0.3-0.7,0.7-0.7
								C141.1,115.5,141.4,115.8,141.4,116.2z"/>
						</g>
					</g>
					<g>
						<g>
							<path class="st0" d="M178.4,159.8c0,0.3-0.3,0.6-0.6,0.6c-0.3,0-0.6-0.3-0.6-0.6s0.3-0.6,0.6-0.6
								C178.1,159.2,178.4,159.5,178.4,159.8z"/>
						</g>
						<g>
							<circle class="st0" cx="153.5" cy="148.1" r="0.3"/>
						</g>
						<g>
							<circle class="st0" cx="190.3" cy="169.1" r="0.9"/>
						</g>
						<g>
							<circle class="st0" cx="172.2" cy="151.7" r="1.4"/>
						</g>
						<g>
							<path class="st0" d="M181.8,168.8c0,0.2-0.2,0.3-0.3,0.3s-0.3-0.2-0.3-0.3c0-0.2,0.2-0.3,0.3-0.3S181.8,168.6,181.8,168.8z"
								/>
						</g>
						<g>
							<path class="st0" d="M174,156.1c0,0.9-0.7,1.6-1.6,1.6s-1.6-0.7-1.6-1.6c0-0.9,0.7-1.6,1.6-1.6S174,155.3,174,156.1z"/>
						</g>
						<g>
							<path class="st0" d="M174.2,169.1c0,0.1-0.1,0.2-0.2,0.2s-0.2-0.1-0.2-0.2s0.1-0.2,0.2-0.2S174.2,168.9,174.2,169.1z"/>
						</g>
						<g>
							<path class="st0" d="M191.1,138.1c0,0.7-0.5,1.2-1.2,1.2c-0.7,0-1.2-0.5-1.2-1.2s0.5-1.2,1.2-1.2
								C190.6,136.9,191.1,137.4,191.1,138.1z"/>
						</g>
						<g>
							<path class="st0" d="M179.5,171.7c0,0.7-0.6,1.2-1.2,1.2c-0.7,0-1.2-0.6-1.2-1.2s0.6-1.2,1.2-1.2
								C179,170.5,179.5,171,179.5,171.7z"/>
						</g>
					</g>
				</g>
			</g>
		</g>
	</g>
</g>
</svg>
