<svg width="241" height="278" viewBox="0 0 241 278" fill="none" xmlns="http://www.w3.org/2000/svg">
<path opacity="0.25" d="M120.107 277.999C152.086 277.999 178.011 274.125 178.011 269.347C178.011 264.568 152.086 260.694 120.107 260.694C88.1273 260.694 62.2028 264.568 62.2028 269.347C62.2028 274.125 88.1273 277.999 120.107 277.999Z" fill="#371A45"/>
<path d="M171.182 207.213H67.0505L68.8331 130.376C68.8331 123.896 74.3864 118.643 81.2367 118.643H160.561C167.412 118.643 172.965 123.896 172.965 130.376L171.182 207.213Z" fill="white"/>
<g opacity="0.2">
<path d="M171.182 207.213H67.0505L68.8331 130.376C68.8331 123.896 74.3864 118.643 81.2367 118.643H160.561C167.412 118.643 172.965 123.896 172.965 130.376L171.182 207.213Z" fill="black"/>
</g>
<path d="M171.182 208.898H67.0506C66.5711 208.898 66.1119 208.715 65.7764 208.391C65.4411 208.067 65.2583 207.628 65.2686 207.175L67.0511 130.338C67.0506 122.976 73.4144 116.956 81.2369 116.956H160.561C168.384 116.956 174.747 122.976 174.747 130.375L172.964 207.249C172.943 208.165 172.151 208.898 171.182 208.898ZM68.8725 205.526H169.438L171.183 130.338C171.182 124.835 166.418 120.328 160.561 120.328H81.2368C75.3802 120.328 70.6154 124.835 70.6154 130.375L68.8725 205.526Z" fill="#371A45"/>
<g opacity="0.2">
<path d="M163.938 179.018L163.279 172.573C163.043 170.27 160.998 168.513 158.552 168.513H152.615V165.703C152.615 161.124 148.692 157.412 143.852 157.412H95.135C90.2953 157.412 86.3719 161.124 86.3719 165.703V168.513H81.0292C78.5835 168.513 76.5378 170.27 76.3023 172.573L75.6431 179.018C75.5025 180.392 76.644 181.582 78.103 181.582H86.3719V188.889C86.3719 193.468 90.2953 197.179 95.135 197.179H143.852C148.692 197.179 152.615 193.468 152.615 188.889V181.582H161.478C162.937 181.582 164.079 180.392 163.938 179.018Z" fill="black"/>
</g>
<path d="M77.3002 148.712L78.1423 176.774C78.1773 177.941 77.2058 178.914 75.9723 178.947C74.6191 178.994 73.5169 177.845 73.6913 176.577L77.3002 148.712Z" fill="#371A45"/>
<path d="M158.579 146.185C162.974 155.571 165.51 165.743 166.475 176.001C166.587 177.162 165.682 178.191 164.453 178.297C163.225 178.403 162.139 177.547 162.026 176.385C162.234 171.297 162.196 166.182 161.609 161.077C161.057 156.071 160.051 151.083 158.579 146.185Z" fill="#371A45"/>
<path d="M96.3874 122.03C78.2467 125.215 64.5014 133.983 56.5745 150.141C49.4236 159.36 42.2726 168.578 35.1216 177.797C38.2562 179.455 44.5977 182.277 53.0877 182.448C64.1275 182.669 72.1027 178.273 75.0964 176.418V194.827C50.1414 192.338 40.4131 218.064 64.176 232.376C69.0775 235.328 74.6795 237.042 80.4498 237.688C85.9455 238.304 90.9309 239.476 95.2233 241.443C98.4273 242.912 101.933 243.745 105.491 243.613C109.966 243.447 113.874 242.28 117.033 239.793C125.017 245.188 135.226 244.422 146.223 241.479C205.716 234.453 195.115 200.236 163.427 193.421V175.787C164.983 177.056 174.227 184.34 187.679 183.052C200.276 181.846 207.584 173.982 209.046 172.34C199.518 163.816 189.991 155.292 180.463 146.768C173.354 132.364 160.674 124.591 146.111 119.06L96.3874 122.03Z" fill="white"/>
<g opacity="0.2">
<path d="M75.0963 176.42V165.174C72.1026 167.029 64.1274 171.425 53.0877 171.203C48.6559 171.114 44.8169 170.301 41.7065 169.31C39.5115 172.139 37.3164 174.969 35.1214 177.799C38.2561 179.457 44.5975 182.279 53.0876 182.449C64.1275 182.671 72.1026 178.275 75.0963 176.42Z" fill="#371A45"/>
<path d="M146.223 230.236C135.227 233.179 125.017 233.945 117.033 228.55C113.874 231.037 109.966 232.204 105.491 232.37C101.933 232.502 98.4274 231.669 95.2234 230.2C90.9309 228.233 85.9456 227.061 80.4499 226.445C74.6795 225.799 69.0776 224.085 64.1761 221.133C57.3139 217 53.2498 211.915 51.5335 206.833C48.6528 214.813 52.0566 225.08 64.1761 232.379C69.0776 235.331 74.6796 237.045 80.4499 237.691C85.9456 238.307 90.931 239.48 95.2234 241.447C98.4274 242.915 101.933 243.749 105.491 243.617C109.966 243.45 113.874 242.283 117.033 239.797C125.017 245.192 135.226 244.426 146.223 241.483C182.625 237.184 192.781 222.706 187.925 210.553C184.299 219.241 171.685 227.229 146.223 230.236Z" fill="#371A45"/>
<path d="M187.679 171.807C174.227 173.095 164.984 165.811 163.427 164.542V175.788C164.984 177.057 174.227 184.341 187.679 183.053C200.276 181.847 207.584 173.983 209.046 172.341C206.897 170.418 204.748 168.496 202.599 166.574C199.011 168.91 194.015 171.2 187.679 171.807Z" fill="#371A45"/>
</g>
<path d="M131.214 245.473C125.701 245.473 121.109 244.279 117.101 241.869C113.965 243.977 110.09 245.129 105.561 245.297C101.868 245.437 98.1298 244.648 94.4462 242.96C90.5447 241.172 85.8978 239.995 80.2403 239.361C73.8957 238.651 68.1688 236.779 63.2189 233.797C51.5227 226.753 46.2895 215.906 49.8865 206.162C53.0645 197.555 62.1411 192.528 73.3139 193.008V179.387C68.8393 181.691 61.7843 184.301 53.0497 184.133C46.5195 184.001 40.0191 182.319 34.2514 179.268C33.8055 179.032 33.4881 178.626 33.3798 178.154C33.2713 177.682 33.3821 177.188 33.6845 176.799L55.0333 149.278C62.8275 133.509 76.6307 123.783 96.062 120.371C96.1324 120.359 96.2035 120.351 96.275 120.346L145.999 117.376C146.263 117.359 146.529 117.4 146.776 117.494C164.689 124.297 175.548 133.024 181.932 145.761L210.27 171.113C210.956 171.727 211.017 172.741 210.409 173.424C207.735 176.43 200.184 183.548 187.858 184.729C177.571 185.713 169.568 181.948 165.209 179.174V192.095C180.697 195.879 191.393 206.224 190.824 217.067C190.599 221.343 188.49 227.612 179.719 233.2C172.043 238.09 160.893 241.432 146.577 243.136C140.739 244.69 135.675 245.473 131.214 245.473ZM117.033 238.107C117.395 238.107 117.758 238.211 118.069 238.421C124.55 242.801 133.084 243.243 145.738 239.856C145.824 239.833 145.913 239.816 146.002 239.806C171.242 236.825 186.666 228.262 187.264 216.9C187.764 207.375 177.573 198.192 163.032 195.065C162.22 194.89 161.644 194.208 161.644 193.421V175.786C161.644 175.127 162.051 174.528 162.684 174.254C163.317 173.979 164.062 174.079 164.59 174.509C166.923 176.411 175.469 182.525 187.5 181.374C197.129 180.452 203.505 175.475 206.561 172.436L179.239 147.993C179.076 147.847 178.943 147.673 178.848 147.481C172.939 135.506 162.744 127.256 145.82 120.766L96.6077 123.705C78.1133 126.977 65.5465 135.858 58.1916 150.85C58.1418 150.951 58.0816 151.047 58.0117 151.138L37.7852 177.212C41.4718 178.916 46.7323 180.632 53.1256 180.761C63.0009 180.973 70.5147 177.241 74.1199 175.007C74.6679 174.668 75.368 174.64 75.944 174.934C76.52 175.229 76.8789 175.798 76.8789 176.417V194.826C76.8789 195.304 76.6646 195.759 76.289 196.079C75.9137 196.398 75.4145 196.553 74.9096 196.503C64.5495 195.467 56.0492 199.697 53.2522 207.274C50.2205 215.485 54.8842 224.78 65.1334 230.952C69.6279 233.659 74.8515 235.362 80.6595 236.013C86.7175 236.691 91.7356 237.971 96.0006 239.925C99.1514 241.369 102.321 242.045 105.421 241.927C109.739 241.767 113.164 240.644 115.893 238.496C116.222 238.238 116.627 238.107 117.033 238.107Z" fill="#371A45"/>
<path d="M163.427 200.727C160.563 202.098 157.451 202.738 154.361 203.328C151.365 203.938 148.408 204.673 145.499 205.553C139.641 207.301 134.031 209.598 128.441 212.038C127.828 212.353 127.091 212.297 126.555 211.94C122.9 209.544 118.525 207.431 114.09 207.438C110.557 207.391 107.892 209.349 107.323 212.534C106.396 217.368 108.695 222.906 110.937 227.254C113.048 231.277 115.641 235.118 118.473 238.801C119.052 239.553 118.876 240.606 118.082 241.154C117.287 241.702 116.172 241.535 115.594 240.783C112.678 236.988 109.983 233.009 107.745 228.745C105.227 223.826 103.049 218.46 103.665 212.84C104.255 207.543 108.439 204.044 114.041 204.07C119.48 204.08 124.303 206.39 128.606 209.187L126.723 209.088C129.413 207.445 132.256 206.015 135.199 204.787C141.071 202.298 147.375 200.645 153.765 199.914C156.999 199.516 160.354 199.558 163.427 200.727Z" fill="#371A45"/>
<path d="M73.806 204.382C76.9919 202.763 80.9222 203.729 83.6887 205.726L82.8649 205.279L105.944 210.883C108.197 211.495 107.369 214.636 105.058 214.149L81.9786 208.545C81.6545 208.476 81.3646 208.316 81.1546 208.098C79.6311 205.691 76.8639 204.013 73.806 204.382Z" fill="#371A45"/>
<path d="M128.902 210.753C127.64 215.582 128.156 220.748 129.957 225.46C127.26 220.925 125.829 215.647 126.258 210.376C126.46 208.563 129.274 208.961 128.902 210.753Z" fill="#371A45"/>
<path d="M75.0945 238.45C74.256 238.45 73.5087 237.888 73.3457 237.08C71.0399 225.661 73.5395 215.466 80.9871 205.912C81.5713 205.163 82.687 205.003 83.4796 205.556C84.2719 206.109 84.4405 207.164 83.8563 207.913C77.0309 216.67 74.7381 226.003 76.8471 236.447C77.0319 237.362 76.3977 238.245 75.4307 238.42C75.3179 238.44 75.2053 238.45 75.0945 238.45Z" fill="#371A45"/>
<path d="M161.932 240.317C161.919 240.317 161.905 240.317 161.891 240.316C160.907 240.295 160.127 239.523 160.15 238.592C160.539 222.496 156.595 211.104 148.091 203.762C147.364 203.135 147.313 202.069 147.976 201.381C148.64 200.692 149.767 200.644 150.494 201.272C159.804 209.309 164.128 221.541 163.714 238.669C163.691 239.587 162.898 240.317 161.932 240.317Z" fill="#371A45"/>
<g opacity="0.25">
<path d="M80.4673 205.379C105.144 204.695 133.677 203.896 155.626 201.392C143.483 202.301 134.043 204.906 128.62 210.034C118.434 204.786 109.324 202.176 105.501 212.515L80.4673 205.379Z" fill="#371A45"/>
</g>
<path d="M86.6587 176.675H78.3887C76.9295 176.675 75.7879 175.485 75.9285 174.111L76.5878 167.667C76.8234 165.364 78.8693 163.606 81.3154 163.606H86.6588L86.6587 176.675Z" fill="white"/>
<g opacity="0.2">
<path d="M163.858 170.427C163.422 171.075 162.658 171.511 161.775 171.511H152.911V176.675H161.775C163.234 176.675 164.376 175.486 164.235 174.112L163.858 170.427Z" fill="black"/>
</g>
<path d="M135.382 173.021C139.238 173.021 142.364 170.065 142.364 166.417C142.364 162.769 139.238 159.812 135.382 159.812C131.526 159.812 128.401 162.769 128.401 166.417C128.401 170.065 131.526 173.021 135.382 173.021Z" fill="#00AAFF"/>
<g opacity="0.25">
<path d="M76.3054 170.426L75.9285 174.111C75.788 175.485 76.9295 176.674 78.3887 176.674H86.6587V171.51H78.3887C77.5063 171.51 76.7422 171.074 76.3054 170.426Z" fill="#371A45"/>
</g>
<path d="M152.911 176.674H161.775C163.234 176.674 164.376 175.484 164.235 174.111L163.576 167.666C163.34 165.363 161.294 163.605 158.849 163.605H152.911V176.674Z" fill="white"/>
<path d="M86.6587 160.8V183.985C86.6587 188.564 90.5826 192.276 95.423 192.276H144.147C148.987 192.276 152.911 188.564 152.911 183.985V160.8C152.911 156.221 148.987 152.509 144.147 152.509H95.423C90.5826 152.509 86.6587 156.221 86.6587 160.8Z" fill="white"/>
<g opacity="0.25">
<path d="M144.147 181.1H95.423C90.5825 181.1 86.6587 177.388 86.6587 172.81V183.981C86.6587 188.56 90.5826 192.272 95.423 192.272H144.147C148.987 192.272 152.911 188.56 152.911 183.981V172.81C152.911 177.388 148.987 181.1 144.147 181.1Z" fill="#371A45"/>
</g>
<g opacity="0.25">
<path d="M135.085 179.838C139.679 179.838 143.404 176.684 143.404 172.793C143.404 168.902 139.679 165.748 135.085 165.748C130.491 165.748 126.767 168.902 126.767 172.793C126.767 176.684 130.491 179.838 135.085 179.838Z" fill="#371A45"/>
</g>
<path d="M135.382 176.815C139.238 176.815 142.364 173.858 142.364 170.211C142.364 166.563 139.238 163.606 135.382 163.606C131.526 163.606 128.401 166.563 128.401 170.211C128.401 173.858 131.526 176.815 135.382 176.815Z" fill="#00AAFF"/>
<g opacity="0.25">
<path d="M135.382 173.933C132.05 173.933 129.268 171.723 128.572 168.769C128.463 169.233 128.401 169.714 128.401 170.209C128.401 173.856 131.526 176.813 135.382 176.813C139.238 176.813 142.364 173.856 142.364 170.209C142.364 169.714 142.302 169.233 142.192 168.769C141.497 171.723 138.715 173.933 135.382 173.933Z" fill="#371A45"/>
</g>
<path d="M135.382 178.08C130.795 178.08 127.064 174.55 127.064 170.211C127.064 165.872 130.795 162.342 135.382 162.342C139.969 162.342 143.701 165.872 143.701 170.211C143.701 174.55 139.969 178.08 135.382 178.08ZM135.382 164.871C132.27 164.871 129.737 167.266 129.737 170.211C129.737 173.155 132.27 175.551 135.382 175.551C138.495 175.551 141.027 173.155 141.027 170.211C141.027 167.266 138.495 164.871 135.382 164.871Z" fill="#371A45"/>
<path d="M144.147 193.959H95.423C89.6074 193.959 84.8762 189.484 84.8762 183.983V160.797C84.8762 155.296 89.6074 150.82 95.423 150.82H144.147C149.962 150.82 154.693 155.296 154.693 160.797V183.983C154.693 189.484 149.962 193.959 144.147 193.959ZM95.423 154.192C91.5732 154.192 88.441 157.155 88.441 160.797V183.983C88.441 187.625 91.5731 190.588 95.423 190.588H144.147C147.996 190.588 151.128 187.625 151.128 183.983V160.797C151.128 157.155 147.996 154.192 144.147 154.192H95.423Z" fill="#371A45"/>
<path d="M115.874 193.959C114.895 193.96 114.098 193.212 114.092 192.284L113.987 176.145L106.068 172.425C105.462 172.139 105.079 171.554 105.079 170.914V152.506C105.079 151.575 105.877 150.82 106.861 150.82C107.846 150.82 108.644 151.575 108.644 152.506V169.869L116.555 173.586C117.158 173.869 117.54 174.449 117.545 175.086L117.657 192.263C117.663 193.194 116.87 193.954 115.886 193.959C115.882 193.959 115.878 193.959 115.874 193.959Z" fill="#371A45"/>
<path d="M86.6586 178.36H78.3886C77.1917 178.36 76.0437 177.88 75.2391 177.042C74.4345 176.203 74.0391 175.076 74.1542 173.949L74.8136 167.504C75.1391 164.32 77.9342 161.92 81.3151 161.92H86.6586C87.643 161.92 88.441 162.675 88.441 163.606V176.674C88.441 177.605 87.643 178.36 86.6586 178.36ZM81.3151 165.292C79.7794 165.292 78.5097 166.382 78.3619 167.828L77.7025 174.273C77.6769 174.523 77.8018 174.695 77.8783 174.775C77.955 174.855 78.123 174.989 78.3886 174.989H84.8762V165.292H81.3151Z" fill="#371A45"/>
<path d="M161.775 178.36H152.911C151.927 178.36 151.129 177.605 151.129 176.674V163.606C151.129 162.675 151.927 161.92 152.911 161.92H158.849C162.23 161.92 165.025 164.32 165.35 167.504L166.009 173.949C166.125 175.076 165.729 176.203 164.925 177.042C164.12 177.88 162.972 178.36 161.775 178.36ZM154.693 174.989H161.775C162.041 174.989 162.209 174.855 162.285 174.775C162.362 174.695 162.487 174.523 162.461 174.273L161.802 167.828C161.654 166.382 160.384 165.292 158.849 165.292H154.693V174.989H154.693Z" fill="#371A45"/>
<path d="M137.165 171.018C138.477 171.018 139.541 170.012 139.541 168.77C139.541 167.528 138.477 166.521 137.165 166.521C135.852 166.521 134.788 167.528 134.788 168.77C134.788 170.012 135.852 171.018 137.165 171.018Z" fill="white"/>
<path d="M41.7926 180.575C52.127 174.785 54.2146 164.737 53.4091 153.194L37.8766 145.491C37.2549 145.183 36.7929 144.648 36.5977 144.01L33.2613 133.116C32.4131 130.347 30.4279 128.014 27.7491 126.639L23.7789 124.602C21.668 123.518 19.0304 124.173 17.7549 126.098C16.5005 127.991 16.986 130.478 18.8726 131.822L21.8375 133.934C23.1996 134.904 23.632 136.658 22.8644 138.098L20.9587 141.673C19.0386 137.712 16.0622 137.075 12.3853 138.642L12.0135 136.091C11.8423 134.917 12.2103 133.73 13.0245 132.829L13.992 131.759C15.3485 130.258 15.123 127.993 13.4943 126.759C12.0375 125.654 9.93892 125.751 8.6025 126.984L4.42819 130.836C2.42906 132.68 1.40891 135.336 1.90918 137.935C2.36132 140.283 3.85057 141.879 6.7764 142.431C2.13471 155.231 5.53907 163.119 18.8752 164.942C26.177 172.04 33.715 177.815 41.7926 180.575Z" fill="white"/>
<g opacity="0.25">
<path d="M47.1079 174.43C39.0303 171.67 31.4923 165.895 24.1906 158.798C10.8898 156.979 7.47001 149.128 12.0567 136.388L12.0401 136.274C9.15035 135.712 7.67371 134.124 7.22439 131.79C6.97421 130.49 7.10425 129.176 7.54687 127.957L4.42812 130.835C2.42908 132.679 1.40884 135.335 1.90911 137.934C2.36125 140.282 3.85051 141.878 6.77633 142.43C2.13465 155.23 5.539 163.118 18.8752 164.942C26.1768 172.038 33.7148 177.814 41.7926 180.574C45.6988 178.385 48.4253 175.587 50.2642 172.331C49.3083 173.081 48.2623 173.783 47.1079 174.43Z" fill="#371A45"/>
</g>
<path d="M41.7926 182.26C41.5885 182.26 41.3837 182.227 41.1871 182.16C33.8542 179.655 26.481 174.68 18.0168 166.523C11.7894 165.567 7.44088 163.236 5.08529 159.588C2.5625 155.682 2.37598 150.288 4.52592 143.54C2.14287 142.587 0.64556 140.781 0.155771 138.236C-0.439408 135.144 0.692432 131.926 3.18369 129.628L7.3579 125.776C9.33579 123.952 12.4528 123.808 14.6086 125.441C14.9952 125.735 15.3328 126.069 15.6165 126.437C15.7726 126.013 15.9814 125.599 16.2446 125.202C18.0156 122.53 21.6981 121.613 24.6287 123.119L28.5991 125.156C31.6756 126.736 33.9989 129.466 34.9732 132.646L38.3096 143.54C38.3696 143.736 38.5134 143.903 38.7043 143.997L54.2368 151.7C54.7867 151.973 55.1469 152.496 55.1875 153.082C55.8204 162.15 55.214 175.014 42.7008 182.025C42.4227 182.181 42.1085 182.26 41.7926 182.26ZM11.1835 127.677C10.699 127.677 10.2162 127.849 9.84683 128.19L5.6729 132.042C4.03196 133.556 3.28044 135.645 3.6628 137.632C4.00702 139.42 5.07491 140.39 7.12548 140.777C7.62963 140.873 8.06566 141.169 8.32176 141.591C8.57786 142.012 8.6293 142.518 8.46248 142.977C6.09369 149.51 5.98112 154.507 8.12747 157.83C9.97832 160.697 13.6803 162.528 19.1304 163.273C19.5194 163.326 19.8786 163.499 20.1528 163.766C28.0867 171.478 34.9282 176.247 41.6022 178.706C49.232 174.093 52.3675 166.485 51.6896 154.244L37.049 146.983C36.0029 146.465 35.2144 145.552 34.8858 144.479L31.5492 133.585C30.8386 131.264 29.1436 129.273 26.8991 128.12L22.9288 126.082C21.649 125.425 20.039 125.825 19.265 126.993C18.4959 128.153 18.7881 129.65 19.9447 130.474L22.9096 132.586C24.9623 134.048 25.6127 136.685 24.4559 138.856L22.5503 142.432C22.2421 143.01 21.6025 143.363 20.9259 143.359C20.2412 143.346 19.6243 142.965 19.3387 142.376C17.9551 139.521 16.1527 138.885 13.1173 140.178C12.6055 140.396 12.0139 140.374 11.5227 140.116C11.0311 139.859 10.6966 139.397 10.6198 138.871L10.248 136.321C10.0072 134.671 10.5255 132.999 11.6698 131.733L12.6377 130.662C12.9772 130.286 13.1371 129.808 13.088 129.316C13.0392 128.824 12.7876 128.383 12.3799 128.074C12.0291 127.808 11.6057 127.677 11.1835 127.677ZM15.773 136.169C17.7103 136.169 19.3968 136.886 20.7617 138.297L21.2728 137.338C21.6526 136.625 21.4389 135.76 20.7648 135.28L17.8002 133.168C17.1517 132.705 16.6217 132.151 16.2173 131.538C16.0019 132.008 15.71 132.452 15.3466 132.854L14.3789 133.924C13.8963 134.458 13.6774 135.164 13.779 135.86L13.8558 136.386C14.5188 136.241 15.1584 136.169 15.773 136.169Z" fill="#371A45"/>
<path d="M6.32861 141.834C10.4302 135.275 19.2911 137.37 23.2454 142.903C26.2144 147.023 24.6152 152.592 20.7475 155.598C19.6128 156.594 18.2847 157.329 16.9523 157.969C17.9495 156.898 18.9435 155.878 19.7316 154.745C22.1131 151.662 22.8247 147.743 20.7293 144.366C18.3632 140.084 11.3588 138.129 8.50631 143.027C7.66424 144.499 5.39299 143.258 6.32861 141.834Z" fill="#371A45"/>
<path d="M198.421 180.573C188.087 174.783 185.999 164.735 186.805 153.192L202.337 145.489C202.959 145.181 203.421 144.646 203.616 144.008L206.953 133.114C207.801 130.345 209.786 128.012 212.465 126.637L216.435 124.6C218.546 123.516 221.183 124.171 222.459 126.096C223.713 127.989 223.228 130.476 221.341 131.82L218.376 133.932C217.014 134.902 216.582 136.656 217.349 138.096L219.255 141.671C221.175 137.71 224.151 137.073 227.828 138.64L228.2 136.09C228.371 134.915 228.003 133.728 227.189 132.827L226.222 131.757C224.865 130.256 225.091 127.991 226.719 126.757C228.176 125.652 230.275 125.749 231.611 126.982L235.786 130.834C237.785 132.678 238.805 135.334 238.304 137.933C237.852 140.281 236.363 141.877 233.437 142.429C238.079 155.23 234.675 163.117 221.338 164.941C214.037 172.038 206.499 177.813 198.421 180.573Z" fill="white"/>
<g opacity="0.25">
<path d="M193.106 174.43C201.184 171.67 208.722 165.895 216.023 158.798C229.324 156.979 232.744 149.128 228.157 136.388L228.174 136.274C231.063 135.712 232.54 134.124 232.989 131.79C233.24 130.49 233.109 129.176 232.667 127.957L235.786 130.835C237.785 132.679 238.805 135.335 238.305 137.934C237.852 140.282 236.363 141.878 233.437 142.43C238.079 155.23 234.675 163.118 221.338 164.942C214.037 172.038 206.499 177.814 198.421 180.574C194.515 178.385 191.788 175.587 189.949 172.331C190.906 173.081 191.952 173.783 193.106 174.43Z" fill="#371A45"/>
</g>
<path d="M198.421 182.258C198.105 182.258 197.791 182.179 197.513 182.023C184.999 175.013 184.394 162.148 185.026 153.081C185.067 152.495 185.427 151.972 185.977 151.699L201.51 143.996C201.7 143.901 201.844 143.734 201.904 143.539L205.241 132.645C206.215 129.464 208.538 126.735 211.615 125.155L215.585 123.117C218.516 121.613 222.198 122.528 223.969 125.2C224.232 125.597 224.441 126.012 224.597 126.436C224.881 126.068 225.218 125.734 225.605 125.441C227.76 123.807 230.877 123.95 232.855 125.774L237.03 129.626C239.521 131.925 240.653 135.143 240.058 138.235C239.568 140.779 238.071 142.585 235.688 143.539C237.838 150.287 237.651 155.68 235.128 159.587C232.773 163.234 228.424 165.566 222.197 166.521C213.733 174.678 206.36 179.653 199.027 182.158C198.83 182.225 198.625 182.258 198.421 182.258ZM188.524 154.243C187.846 166.484 190.982 174.091 198.612 178.704C205.286 176.245 212.128 171.476 220.061 163.765C220.335 163.498 220.694 163.325 221.083 163.271C226.534 162.527 230.236 160.695 232.087 157.829C234.233 154.506 234.12 149.508 231.751 142.976C231.584 142.516 231.636 142.011 231.892 141.589C232.148 141.167 232.584 140.871 233.088 140.776C235.139 140.388 236.207 139.418 236.551 137.63C236.933 135.644 236.182 133.554 234.541 132.041L230.367 128.189C229.676 127.551 228.587 127.501 227.834 128.072C227.426 128.381 227.175 128.823 227.126 129.315C227.077 129.807 227.237 130.285 227.576 130.66L228.544 131.731C229.688 132.997 230.207 134.67 229.966 136.319L229.594 138.87C229.517 139.396 229.183 139.857 228.691 140.114C228.199 140.372 227.608 140.394 227.097 140.177C224.061 138.883 222.259 139.52 220.875 142.374C220.59 142.963 219.973 143.345 219.288 143.357C218.615 143.362 217.972 143.009 217.664 142.43L215.758 138.854C214.601 136.684 215.252 134.047 217.304 132.584L220.269 130.472C221.426 129.648 221.718 128.152 220.949 126.991C220.175 125.824 218.564 125.424 217.285 126.081L213.315 128.119C211.07 129.271 209.375 131.263 208.665 133.583L205.328 144.477C204.999 145.55 204.211 146.463 203.165 146.982L188.524 154.243ZM223.996 131.536C223.592 132.15 223.062 132.704 222.413 133.166L219.449 135.278C218.775 135.758 218.561 136.624 218.941 137.337L219.452 138.295C221.25 136.438 223.606 135.782 226.358 136.385L226.435 135.859C226.536 135.163 226.317 134.457 225.835 133.922L224.867 132.852C224.503 132.45 224.212 132.007 223.996 131.536Z" fill="#371A45"/>
<path d="M231.707 143.029C229.74 139.52 225.117 139.426 222.008 141.643C219.949 143.081 218.648 145.331 218.3 147.684C217.706 151.677 220.528 155.163 223.261 157.97C219.011 156.077 215.244 152.223 215.422 147.475C215.579 141.135 223.981 135.713 230.187 138.513C230.971 138.85 231.688 139.391 232.325 139.93C232.618 140.226 232.902 140.533 233.179 140.841L233.885 141.835C234.817 143.261 232.555 144.5 231.707 143.029Z" fill="#371A45"/>
<g opacity="0.25">
<path d="M159.896 125.282C149.214 135.59 134.191 142.006 117.555 142.006C102.644 142.006 89.0252 136.846 78.6729 128.351C84.181 125.472 90.3843 123.482 97.2071 122.285L146.932 119.317C151.473 121.041 155.836 122.985 159.896 125.282Z" fill="#371A45"/>
</g>
<path d="M175.549 96.449L174.364 96.4445C173.759 96.4422 173.27 95.9764 173.273 95.404L173.411 62.5469C173.414 61.9745 173.906 61.5124 174.511 61.5147L175.696 61.5192C182.044 61.543 187.169 66.4302 187.144 72.4347L187.088 85.6199C187.063 91.6246 181.897 96.4729 175.549 96.449Z" fill="white"/>
<path d="M175.596 96.7769C175.58 96.7769 175.564 96.7769 175.548 96.7768L174.363 96.7723C173.569 96.7693 172.927 96.1564 172.93 95.4058L173.068 62.5486C173.071 61.8003 173.716 61.1934 174.507 61.1934C174.509 61.1934 174.51 61.1934 174.512 61.1934L175.698 61.1979C178.859 61.2097 181.827 62.3855 184.054 64.5089C186.28 66.632 187.5 69.4483 187.487 72.4393L187.432 85.6246C187.406 91.7832 182.1 96.7769 175.596 96.7769ZM175.551 96.1276C175.565 96.1276 175.581 96.1276 175.595 96.1276C181.724 96.1276 186.721 91.4239 186.745 85.6218L186.801 72.4365C186.813 69.6193 185.664 66.966 183.566 64.966C181.469 62.9656 178.673 61.858 175.695 61.8468L174.509 61.8423C174.508 61.8423 174.507 61.8423 174.507 61.8423C174.093 61.8423 173.756 62.1597 173.754 62.5512L173.616 95.4084C173.614 95.8008 173.95 96.1216 174.365 96.1231L175.551 96.1276Z" fill="#371A45"/>
<g opacity="0.25">
<path d="M187.115 79.375L187.094 84.5988C187.065 91.1665 181.413 96.4724 174.466 96.4487C173.805 96.4469 173.27 95.9339 173.272 95.3078L173.306 86.625C173.49 87.0215 173.908 87.2965 174.394 87.3019L175.212 87.3028C180.701 87.3246 185.385 84.0139 187.115 79.375Z" fill="#371A45"/>
</g>
<path d="M175.596 98.259C175.577 98.259 175.56 98.259 175.542 98.2588L174.356 98.2546C172.699 98.2483 171.356 96.9679 171.362 95.3999L171.501 62.5427C171.504 61.7834 171.82 61.0707 172.39 60.5357C172.96 60.0009 173.713 59.7257 174.518 59.7109L175.704 59.7154C179.284 59.7288 182.644 61.0604 185.166 63.4648C187.687 65.8692 189.068 69.0583 189.054 72.445L188.998 85.6303C188.969 92.6043 182.962 98.259 175.596 98.259ZM175.557 94.6452C175.569 94.6454 175.583 94.6454 175.595 94.6454C180.862 94.6454 185.157 90.6026 185.178 85.6159L185.234 72.4306C185.244 70.0092 184.257 67.7287 182.454 66.0096C180.651 64.2906 178.248 63.3385 175.689 63.3288L175.318 63.3275L175.186 94.6437L175.557 94.6452Z" fill="#371A45"/>
<path d="M59.564 61.0841L60.7493 61.0886C61.3544 61.0909 61.8429 61.5567 61.8405 62.129L61.7022 94.9862C61.6997 95.5586 61.2073 96.0207 60.6023 96.0184L59.4169 96.0139C53.0693 95.9901 47.944 91.1029 47.9693 85.0984L48.0248 71.9132C48.0501 65.9085 53.2164 61.0602 59.564 61.0841Z" fill="white"/>
<path d="M60.6074 96.3451C60.6053 96.3451 60.6031 96.3451 60.601 96.3451L59.4157 96.3406C56.2541 96.3288 53.2866 95.153 51.0597 93.0299C48.8331 90.9065 47.6136 88.0901 47.6264 85.0992L47.6818 71.9142C47.6943 68.9235 48.9375 66.1161 51.182 64.0097C53.4148 61.9144 56.3735 60.7617 59.5168 60.7617C59.5331 60.7617 59.549 60.7617 59.5653 60.7619L60.7504 60.7661C61.5439 60.7692 62.1867 61.3822 62.1836 62.1326L62.0452 94.9897C62.0438 95.3533 61.8927 95.6944 61.62 95.9506C61.3484 96.2052 60.9891 96.3451 60.6074 96.3451ZM59.5168 61.4109C56.5555 61.4109 53.7689 62.4964 51.6652 64.4707C49.5509 66.4549 48.3798 69.0993 48.3679 71.9168L48.3125 85.1018C48.3007 87.9193 49.4493 90.5724 51.5471 92.5725C53.6446 94.5726 56.4401 95.6803 59.4185 95.6915L60.6038 95.696C60.6048 95.696 60.606 95.696 60.6071 95.696C60.8068 95.696 60.9947 95.6227 61.1367 95.4895C61.2793 95.3557 61.3582 95.1773 61.3591 94.987L61.4975 62.1298C61.4992 61.7374 61.1627 61.4169 60.7478 61.4151L59.5625 61.4108C59.5476 61.4109 59.5319 61.4109 59.5168 61.4109Z" fill="#371A45"/>
<g opacity="0.25">
<path d="M61.7435 85.8268L61.7043 94.8879C61.7023 95.5139 61.16 96.0193 60.4983 96.0175C56.853 96.0023 53.5726 94.5232 51.2848 92.1676C49.2188 90.0402 47.9625 87.1953 47.9751 84.076L47.9946 79.3828C49.9487 83.5077 54.3293 86.3929 59.4214 86.4129L60.6814 86.4175C61.1411 86.4182 61.5333 86.1792 61.7435 85.8268Z" fill="#371A45"/>
</g>
<path d="M60.6076 97.8271C60.603 97.8271 60.5985 97.8272 60.5941 97.827L59.4094 97.8225C55.8292 97.8093 52.4689 96.4777 49.9473 94.0733C47.4259 91.6691 46.0451 88.4798 46.0594 85.0931L46.1151 71.9081C46.1292 68.5213 47.5369 65.3425 50.0784 62.9571C52.6069 60.5843 55.9573 59.2793 59.5167 59.2793C59.5352 59.2793 59.5532 59.2793 59.5716 59.2795L60.7567 59.2837C62.4145 59.2904 63.7572 60.5709 63.7508 62.1382L63.6124 94.9954C63.6091 95.7546 63.2935 96.4677 62.7234 97.0026C62.1564 97.5345 61.4053 97.8271 60.6076 97.8271ZM60.6094 94.2134H60.6099C60.6099 94.2134 60.6097 94.2134 60.6094 94.2134ZM59.517 62.8928C56.9716 62.8928 54.5766 63.8259 52.7688 65.5224C50.9515 67.228 49.9451 69.5008 49.9349 71.9223L49.8795 85.1073C49.8691 87.5289 50.8563 89.8092 52.6591 91.5283C54.4621 93.2473 56.8646 94.1994 59.4246 94.2088L59.7954 94.2104L59.9274 62.8941L59.5564 62.893C59.5431 62.8928 59.5301 62.8928 59.517 62.8928Z" fill="#371A45"/>
<path d="M159.166 118.123C182.144 96.3872 182.144 61.146 159.166 39.41C136.189 17.6739 98.9344 17.6739 75.9568 39.41C52.9791 61.146 52.9791 96.3872 75.9568 118.123C98.9344 139.859 136.189 139.859 159.166 118.123Z" fill="white"/>
<path d="M117.606 134.755C116.124 134.755 114.633 134.702 113.131 134.596C80.59 132.283 56.1041 105.359 58.5485 74.5763C59.7324 59.6644 66.9843 46.0812 78.9681 36.3289C90.9522 26.5768 106.235 21.8242 121.997 22.9428C137.76 24.0628 152.119 30.9228 162.429 42.2591C172.738 53.5953 177.763 68.0507 176.579 82.9626C174.248 112.325 148.242 134.755 117.606 134.755ZM117.472 23.4308C103.493 23.4308 90.1234 28.1072 79.4157 36.8209C67.571 46.4601 60.4032 59.8858 59.2327 74.6246C56.8171 105.05 81.0187 131.663 113.183 133.948C114.665 134.054 116.142 134.105 117.605 134.106C147.889 134.108 173.591 111.937 175.895 82.9138C177.065 68.1749 172.098 53.8869 161.908 42.6822C151.719 31.4774 137.526 24.6971 121.945 23.5898C120.449 23.4837 118.957 23.4308 117.472 23.4308Z" fill="#371A45"/>
<g opacity="0.35">
<path d="M176.285 75.2131C176.459 77.7493 176.445 80.3274 176.238 82.9368C173.8 113.589 145.559 136.571 113.156 134.272C80.7528 131.966 56.4576 105.251 58.8883 74.5985C58.9577 73.717 59.0494 72.8363 59.163 71.9707C60.9733 99.27 83.8287 121.813 113.477 123.921C144.949 126.154 172.489 104.541 176.285 75.2131Z" fill="#371A45"/>
</g>
<path d="M117.607 136.237C116.086 136.237 114.555 136.183 113.014 136.074C79.611 133.7 54.477 106.063 56.9859 74.465C58.2013 59.1584 65.6452 45.2159 77.9462 35.2053C90.247 25.1945 105.932 20.3126 122.114 21.4646C138.295 22.6143 153.034 29.6559 163.616 41.2923C174.199 52.9286 179.357 67.7668 178.142 83.0735C175.749 113.213 149.054 136.237 117.607 136.237ZM117.475 24.9133C103.87 24.9133 90.8582 29.4644 80.4375 37.9448C68.91 47.3258 61.9341 60.3916 60.7953 74.7359C58.4439 104.346 81.9977 130.246 113.3 132.471C114.742 132.573 116.18 132.624 117.604 132.624C147.076 132.625 172.09 111.049 174.333 82.8028C175.472 68.4588 170.638 54.5536 160.72 43.6491C150.804 32.7445 136.991 26.1456 121.828 25.0683C120.372 24.9646 118.92 24.9133 117.475 24.9133Z" fill="#371A45"/>
<path d="M175.936 84.3478C175.247 95.2199 170.877 105.102 163.967 113.092C158.787 119.082 138.428 128.924 114.133 127.754C91.6065 126.669 71.841 114.152 67.4541 107.62C61.6027 98.9067 58.5113 88.6014 59.2002 77.7292C61.0231 48.9583 87.9097 38.5126 120.147 40.3404C152.384 42.1682 177.759 55.5769 175.936 84.3478Z" fill="#371A45"/>
<g opacity="0.5">
<path d="M165.011 81.5172C166.373 76.2322 164.195 71.1912 160.146 70.2578C156.098 69.3243 151.712 72.8519 150.35 78.1368C148.989 83.4218 151.167 88.4628 155.215 89.3962C159.263 90.3297 163.649 86.8021 165.011 81.5172Z" fill="white"/>
</g>
<g opacity="0.5">
<path d="M151.047 100.204C152.02 97.8834 151.103 95.3614 148.997 94.5711C146.892 93.7809 144.396 95.0217 143.422 97.3426C142.449 99.6635 143.367 102.186 145.472 102.976C147.577 103.766 150.073 102.525 151.047 100.204Z" fill="white"/>
</g>
<g opacity="0.35">
<path d="M166.285 56.8652C173.012 63.7107 176.666 72.7924 175.936 84.3479C175.247 95.2222 170.874 105.104 163.969 113.094C158.787 119.083 138.427 128.926 114.132 127.758C105.554 127.347 97.3786 125.275 90.2968 122.505C120.193 123.338 144.999 111.248 151.423 103.819C160.194 93.6782 165.74 81.1343 166.612 67.3382C166.848 63.6512 166.724 60.162 166.285 56.8652Z" fill="#111A28"/>
</g>
<path d="M171.206 60.1502L171.027 59.9909L170.889 59.7869C161.898 46.211 143.376 37.6666 120.071 36.3448C96.6402 35.0138 77.1765 41.6494 66.6718 54.5422L66.5193 54.7078C65.7952 55.4104 64.6058 55.4384 63.8456 54.7641C63.1043 54.1062 63.0408 53.021 63.6828 52.2915C74.9807 38.4656 95.6143 31.3387 120.299 32.7376C144.852 34.1304 164.471 43.2901 174.126 57.8683L172.515 58.8345L171.206 60.1502Z" fill="#371A45"/>
<g opacity="0.5">
<path d="M71.7093 96.0504C71.7093 96.0504 64.0877 67.1337 80.9744 56.74C97.8611 46.3464 121.122 47.711 120.489 49.0915C120.489 49.0915 94.3602 53.5295 83.0625 72.2189C74.3508 86.6308 71.7093 96.0504 71.7093 96.0504Z" fill="white"/>
</g>
</svg>
