<svg width="1280" height="1112" viewBox="0 0 1280 1112" fill="none" xmlns="http://www.w3.org/2000/svg">
<path d="M332.817 400.117C333.961 400.117 333.963 398.011 332.817 398.011C331.673 398.008 331.671 400.117 332.817 400.117Z" fill="white"/>
<path d="M326.668 448.755C327.873 448.755 327.875 446.535 326.668 446.535C325.463 446.535 325.461 448.755 326.668 448.755Z" fill="white"/>
<path d="M185.242 615.901C185.943 615.901 185.943 614.611 185.242 614.611C184.541 614.609 184.541 615.901 185.242 615.901Z" fill="white"/>
<path d="M238.533 557.906C239.564 557.906 239.564 556.009 238.533 556.009C237.504 556.006 237.502 557.906 238.533 557.906Z" fill="white"/>
<path d="M29.4685 233.463C31.6535 233.463 31.6555 229.441 29.4685 229.441C27.2857 229.441 27.2816 233.463 29.4685 233.463Z" fill="white"/>
<path d="M66.3623 137.807C67.547 137.807 67.5491 135.625 66.3623 135.625C65.1776 135.625 65.1756 137.807 66.3623 137.807Z" fill="white"/>
<path d="M953.862 656.162C956.077 656.162 956.081 652.081 953.862 652.081C951.648 652.081 951.644 656.162 953.862 656.162Z" fill="white"/>
<path d="M1016.81 712.42C1016.82 713.096 1016.83 713.771 1016.84 714.444C1016.91 718.418 1021.99 718.425 1022.06 714.444C1022.07 713.769 1022.08 713.093 1022.09 712.42C1022.16 708.391 1016.74 708.383 1016.81 712.42Z" fill="white"/>
<path d="M949.762 749.759C950.742 749.759 950.742 747.956 949.762 747.956C948.785 747.956 948.783 749.759 949.762 749.759Z" fill="white"/>
<path d="M902.62 835.68C904.578 835.68 904.582 832.075 902.62 832.075C900.663 832.075 900.661 835.68 902.62 835.68Z" fill="white"/>
<path d="M964.11 859.925C966.016 859.925 966.018 856.415 964.11 856.415C962.204 856.412 962.202 859.925 964.11 859.925Z" fill="white"/>
<path d="M1003.05 784.668C1005.01 784.668 1005.02 781.063 1003.05 781.063C1001.1 781.063 1001.09 784.668 1003.05 784.668Z" fill="white"/>
<path d="M935.415 919.648C938.867 919.648 938.873 913.291 935.415 913.291C931.963 913.288 931.959 919.648 935.415 919.648Z" fill="white"/>
<path d="M957.242 819.302C957.227 820.158 957.098 821.119 957.344 821.933C957.561 822.652 958.361 822.652 958.58 821.933C958.828 821.119 958.699 820.158 958.682 819.302C958.662 818.204 957.26 818.202 957.242 819.302Z" fill="white"/>
<path d="M695.605 961.273C699.418 961.273 699.424 954.25 695.605 954.25C691.793 954.253 691.787 961.273 695.605 961.273Z" fill="white"/>
<path d="M619.768 1054.73C622.189 1054.73 622.193 1050.27 619.768 1050.27C617.348 1050.27 617.344 1054.73 619.768 1054.73Z" fill="white"/>
<path d="M740.698 816.958C743.428 816.958 743.432 811.93 740.698 811.93C737.968 811.93 737.964 816.958 740.698 816.958Z" fill="white"/>
<path d="M1208.02 212.094C1213.38 212.094 1213.38 202.225 1208.02 202.225C1202.66 202.227 1202.65 212.094 1208.02 212.094Z" fill="white"/>
<path d="M1146.53 263.828C1150.03 263.828 1150.04 257.376 1146.53 257.376C1143.03 257.376 1143.02 263.828 1146.53 263.828Z" fill="white"/>
<path d="M1148.58 176.862C1149.97 176.862 1149.97 174.299 1148.58 174.299C1147.19 174.302 1147.19 176.862 1148.58 176.862Z" fill="white"/>
<path d="M1103.49 267.073C1105.24 267.073 1105.24 263.847 1103.49 263.847C1101.74 263.847 1101.73 267.073 1103.49 267.073Z" fill="white"/>
<path d="M1249.01 87.8393C1251.33 87.8393 1251.33 83.5689 1249.01 83.5689C1246.69 83.5689 1246.69 87.8393 1249.01 87.8393Z" fill="white"/>
<path d="M1162.93 87.5065C1164.88 87.5065 1164.89 83.9017 1162.93 83.9017C1160.97 83.9017 1160.97 87.5065 1162.93 87.5065Z" fill="white"/>
<path d="M1130.13 130.179C1133.58 130.179 1133.59 123.822 1130.13 123.822C1126.68 123.82 1126.68 130.179 1130.13 130.179Z" fill="white"/>
<path d="M1222.37 39.9684C1225.46 39.9684 1225.46 34.2745 1222.37 34.2745C1219.27 34.2745 1219.27 39.9684 1222.37 39.9684Z" fill="white"/>
<path d="M1197.77 352.661C1200.14 352.661 1200.14 348.296 1197.77 348.296C1195.4 348.298 1195.4 352.661 1197.77 352.661Z" fill="white"/>
<path d="M1136.28 386.861C1138.86 386.861 1138.86 382.117 1136.28 382.117C1133.71 382.114 1133.7 386.861 1136.28 386.861Z" fill="white"/>
<path d="M1275.66 401.671C1278.49 401.671 1278.5 396.453 1275.66 396.453C1272.82 396.453 1272.82 401.671 1275.66 401.671Z" fill="white"/>
<path d="M1130.13 502.747C1131.94 502.747 1131.94 499.427 1130.13 499.427C1128.33 499.424 1128.33 502.747 1130.13 502.747Z" fill="white"/>
<path d="M1234.66 395.229C1235.78 395.229 1235.78 393.179 1234.66 393.179C1233.55 393.179 1233.55 395.229 1234.66 395.229Z" fill="white"/>
<path d="M1238.76 329.558C1239.78 329.558 1239.78 327.68 1238.76 327.68C1237.74 327.677 1237.74 329.558 1238.76 329.558Z" fill="white"/>
<path d="M1201.87 276.231C1203.01 276.231 1203.02 274.125 1201.87 274.125C1200.73 274.125 1200.72 276.231 1201.87 276.231Z" fill="white"/>
<path d="M1210.07 138.224C1211.71 138.224 1211.71 135.207 1210.07 135.207C1208.43 135.207 1208.43 138.224 1210.07 138.224Z" fill="white"/>
<path d="M1177.27 299.373C1179.81 299.373 1179.81 294.704 1177.27 294.704C1174.74 294.704 1174.74 299.373 1177.27 299.373Z" fill="white"/>
<path d="M1062.49 103.59C1063.45 103.59 1063.45 101.824 1062.49 101.824C1061.54 101.826 1061.53 103.59 1062.49 103.59Z" fill="white"/>
<path d="M416.853 359.135C418.337 359.135 418.339 356.402 416.853 356.402C415.369 356.402 415.367 359.135 416.853 359.135Z" fill="white"/>
<path d="M439.598 404.771C440.25 404.659 440.924 404.596 441.557 404.387C441.945 404.258 441.947 403.583 441.557 403.454C440.922 403.245 440.25 403.18 439.598 403.07C438.397 402.866 438.389 404.977 439.598 404.771Z" fill="white"/>
<path d="M733.582 32.2631C733.612 31.3449 733.727 30.3927 733.52 29.5012C733.243 28.3109 731.759 28.3085 731.483 29.5012C731.276 30.3951 731.391 31.3474 731.421 32.2631C731.475 33.9101 733.526 33.915 733.582 32.2631Z" fill="white"/>
<path d="M525.484 93.9607C526.536 93.9607 526.538 92.0247 525.484 92.0247C524.435 92.0247 524.433 93.9607 525.484 93.9607Z" fill="white"/>
<path d="M1021.5 635.655C1022.55 635.655 1022.55 633.719 1021.5 633.719C1020.45 633.721 1020.45 635.655 1021.5 635.655Z" fill="white"/>
<path d="M990.755 536.488C992.27 536.488 992.272 533.699 990.755 533.699C989.241 533.699 989.239 536.488 990.755 536.488Z" fill="white"/>
<path d="M896.471 520.937C899.562 520.937 899.568 515.243 896.471 515.243C893.38 515.243 893.376 520.937 896.471 520.937Z" fill="white"/>
<path d="M947.713 504.482C948.764 504.482 948.766 502.546 947.713 502.546C946.663 502.548 946.661 504.482 947.713 504.482Z" fill="white"/>
<path d="M880.074 701.443C881.341 701.443 881.343 699.109 880.074 699.109C878.807 699.109 878.805 701.443 880.074 701.443Z" fill="white"/>
<path d="M408.654 687.665C410.788 687.665 410.79 683.737 408.654 683.737C406.523 683.735 406.518 687.665 408.654 687.665Z" fill="white"/>
<path d="M494.74 837.387C495.914 837.387 495.916 835.223 494.74 835.223C493.565 835.225 493.563 837.387 494.74 837.387Z" fill="white"/>
<path d="M582.875 775.836C583.154 775.836 583.154 775.323 582.875 775.323C582.598 775.323 582.596 775.836 582.875 775.836Z" fill="white"/>
<path d="M494.74 688.328C494.957 688.328 494.957 687.93 494.74 687.93C494.524 687.93 494.524 688.328 494.74 688.328Z" fill="white"/>
<path d="M472.194 725.99C473.739 725.99 473.741 723.143 472.194 723.143C470.648 723.143 470.646 725.99 472.194 725.99Z" fill="white"/>
<path d="M904.67 264.255C905.998 264.255 906.002 261.807 904.67 261.807C903.342 261.807 903.34 264.255 904.67 264.255Z" fill="white"/>
<path d="M929.266 271.487C930.533 271.487 930.535 269.152 929.266 269.152C927.999 269.152 927.997 271.487 929.266 271.487Z" fill="white"/>
<path d="M328.705 630.512C329.447 630.512 329.447 629.145 328.705 629.145C327.963 629.147 327.961 630.512 328.705 630.512Z" fill="white"/>
<path d="M868.447 227.638C869.58 227.638 869.582 225.552 868.447 225.552C867.313 225.549 867.311 227.638 868.447 227.638Z" fill="white"/>
<path d="M872.546 2.38727C873.515 2.38727 873.515 0.604281 872.546 0.604281C871.578 0.601852 871.576 2.38727 872.546 2.38727Z" fill="white"/>
<path d="M707.208 36.1085C707.868 36.1085 707.868 34.8939 707.208 34.8939C706.548 34.8939 706.546 36.1085 707.208 36.1085Z" fill="white"/>
<path d="M798.758 162.329C799.316 162.329 799.316 161.304 798.758 161.304C798.203 161.306 798.201 162.329 798.758 162.329Z" fill="white"/>
<path d="M1007.82 303.731C1008.94 303.731 1008.94 301.681 1007.82 301.681C1006.71 301.681 1006.71 303.731 1007.82 303.731Z" fill="white"/>
<path d="M1021.49 356.737C1022.13 356.737 1022.13 355.561 1021.49 355.561C1020.85 355.559 1020.85 356.737 1021.49 356.737Z" fill="white"/>
<path d="M592.428 923.439C592.883 923.427 593.338 923.415 593.795 923.401C594.289 923.386 594.291 922.504 593.795 922.49C593.34 922.478 592.885 922.465 592.428 922.451C591.891 922.436 591.891 923.454 592.428 923.439Z" fill="white"/>
<path d="M677.146 721.163C677.847 721.163 677.847 719.873 677.146 719.873C676.445 719.873 676.445 721.163 677.146 721.163Z" fill="white"/>
<path d="M540.502 885.535C541.203 885.535 541.203 884.245 540.502 884.245C539.803 884.243 539.801 885.535 540.502 885.535Z" fill="white"/>
<path d="M712.673 719.98C713.848 719.98 713.85 717.816 712.673 717.816C711.499 717.816 711.497 719.98 712.673 719.98Z" fill="white"/>
<path d="M628.637 689.21C629.812 689.21 629.814 687.046 628.637 687.046C627.463 687.048 627.461 689.21 628.637 689.21Z" fill="white"/>
<path d="M341.003 350.409C341.807 350.409 341.809 348.93 341.003 348.93C340.2 348.93 340.198 350.409 341.003 350.409Z" fill="white"/>
<path d="M364.232 322.69C364.831 322.69 364.831 321.59 364.232 321.59C363.636 321.59 363.634 322.69 364.232 322.69Z" fill="white"/>
<path d="M455.784 261.153C456.382 261.153 456.382 260.053 455.784 260.053C455.185 260.05 455.185 261.153 455.784 261.153Z" fill="white"/>
<path d="M410.564 192.037C410.13 192.129 409.695 192.219 409.261 192.311C409.031 192.36 409.031 192.812 409.261 192.86C409.695 192.953 410.13 193.043 410.564 193.135C411.339 193.298 411.343 191.874 410.564 192.037Z" fill="white"/>
<path d="M537.77 302.074C538.842 302.074 538.844 300.099 537.77 300.099C536.698 300.099 536.696 302.074 537.77 302.074Z" fill="white"/>
<path d="M277.638 6.18642C277.546 6.97103 277.585 7.34026 277.716 8.11273C277.8 8.62041 278.495 8.62041 278.581 8.11273C278.71 7.34755 278.751 6.97832 278.659 6.18642C278.587 5.58885 277.708 5.58643 277.638 6.18642Z" fill="white"/>
<path d="M574.664 13.6852C575.59 13.6852 575.592 11.9775 574.664 11.9775C573.737 11.9751 573.735 13.6852 574.664 13.6852Z" fill="white"/>
<path d="M780.996 212.532C781.554 212.532 781.554 211.506 780.996 211.506C780.439 211.506 780.439 212.532 780.996 212.532Z" fill="white"/>
<path d="M730.437 264.561C731.22 264.561 731.222 263.118 730.437 263.118C729.654 263.118 729.652 264.561 730.437 264.561Z" fill="white"/>
<path d="M388.828 460.024C388.373 459.951 387.918 459.878 387.461 459.815C385.731 459.579 385.729 463.24 387.461 463.004C387.918 462.941 388.373 462.868 388.828 462.795C390.328 462.557 390.33 460.262 388.828 460.024Z" fill="white"/>
<path d="M260.384 342.787C261.702 342.787 261.704 340.357 260.384 340.357C259.065 340.357 259.062 342.787 260.384 342.787Z" fill="white"/>
<path d="M752.301 328.136C753.537 328.136 753.539 325.858 752.301 325.858C751.065 325.86 751.063 328.136 752.301 328.136Z" fill="white"/>
<path d="M856.149 432.81C856.643 432.774 857.12 432.764 857.6 432.626C857.905 432.538 857.905 431.982 857.6 431.894C857.12 431.758 856.639 431.746 856.149 431.71C855.552 431.666 855.55 432.856 856.149 432.81Z" fill="white"/>
<path d="M873.913 350.259C874.552 350.259 874.552 349.083 873.913 349.083C873.273 349.083 873.273 350.259 873.913 350.259Z" fill="white"/>
<path d="M283.613 630.989C284.87 630.989 284.872 628.674 283.613 628.674C282.357 628.671 282.355 630.989 283.613 630.989Z" fill="white"/>
<path d="M914.906 183.96C916.091 183.96 916.093 181.779 914.906 181.779C913.721 181.779 913.719 183.96 914.906 183.96Z" fill="white"/>
<path d="M599.259 420.823C600.907 420.823 600.911 417.786 599.259 417.786C597.612 417.786 597.607 420.823 599.259 420.823Z" fill="white"/>
<path d="M653.918 279.697C655.309 279.697 655.311 277.134 653.918 277.134C652.526 277.134 652.524 279.697 653.918 279.697Z" fill="white"/>
<path d="M540.295 215.636C540.371 215.255 540.447 214.876 540.523 214.497C541.07 211.754 537.2 211.737 537.752 214.497C537.827 214.878 537.903 215.257 537.979 215.636C538.25 216.991 540.023 216.994 540.295 215.636Z" fill="white"/>
<path d="M239.888 161.335C241.124 161.335 241.126 159.057 239.888 159.057C238.65 159.059 238.648 161.335 239.888 161.335Z" fill="white"/>
<path d="M651.183 80.5179C652.585 80.5179 652.587 77.9357 651.183 77.9357C649.783 77.9357 649.781 80.5179 651.183 80.5179Z" fill="white"/>
<path d="M590.159 129.428C590.141 128.838 590.141 128.272 590.034 127.699C589.96 127.301 589.429 127.301 589.356 127.699C589.249 128.272 589.249 128.843 589.231 129.428C589.208 130.138 590.182 130.138 590.159 129.428Z" fill="white"/>
<path d="M433.92 39.8809C435.156 39.8809 435.158 37.6024 433.92 37.6024C432.684 37.6024 432.682 39.8809 433.92 39.8809Z" fill="white"/>
<path d="M312.308 230.84C313.401 230.84 313.403 228.829 312.308 228.829C311.216 228.826 311.214 230.84 312.308 230.84Z" fill="white"/>
<path d="M665.531 385.248C666.355 385.248 666.357 383.73 665.531 383.73C664.707 383.73 664.707 385.248 665.531 385.248Z" fill="white"/>
<path d="M708.574 386.815C710.222 386.815 710.226 383.778 708.574 383.778C706.926 383.778 706.924 386.815 708.574 386.815Z" fill="white"/>
<path d="M723.606 425.606C725.172 425.606 725.174 422.72 723.606 422.72C722.04 422.722 722.036 425.606 723.606 425.606Z" fill="white"/>
<path d="M883.479 67.2767C884.571 67.2767 884.573 65.2654 883.479 65.2654C882.386 65.2654 882.384 67.2767 883.479 67.2767Z" fill="white"/>
<path d="M946.333 39.7473C947.426 39.7473 947.428 37.736 946.333 37.736C945.241 37.736 945.241 39.7473 946.333 39.7473Z" fill="white"/>
<path d="M358.768 381.092C362.992 381.092 362.998 373.311 358.768 373.311C354.543 373.309 354.535 381.092 358.768 381.092Z" fill="white"/>
<path d="M269.278 757.607C273.502 757.607 273.508 749.827 269.278 749.827C265.053 749.824 265.047 757.607 269.278 757.607Z" fill="white"/>
<path d="M458.516 121.395C462.101 121.395 462.107 114.791 458.516 114.791C454.931 114.791 454.925 121.395 458.516 121.395Z" fill="white"/>
<path d="M686.712 210.962C689.082 210.962 689.086 206.597 686.712 206.597C684.343 206.597 684.339 210.962 686.712 210.962Z" fill="white"/>
<path d="M673.047 429.142C676.693 429.142 676.701 422.423 673.047 422.423C669.401 422.423 669.394 429.142 673.047 429.142Z" fill="white"/>
<path d="M953.167 121.415C956.772 121.415 956.778 114.774 953.167 114.774C949.559 114.771 949.553 121.415 953.167 121.415Z" fill="white"/>
<path d="M1037.89 335.499C1041.84 335.499 1041.85 328.212 1037.89 328.212C1033.93 328.212 1033.92 335.499 1037.89 335.499Z" fill="white"/>
<path d="M916.273 302.274C917.561 302.274 917.563 299.9 916.273 299.9C914.984 299.9 914.982 302.274 916.273 302.274Z" fill="white"/>
<path d="M931.984 431.309C932.103 430.942 932.222 430.578 932.34 430.211C932.935 428.384 931.435 426.473 929.936 426.473C928.434 426.473 926.938 428.389 927.532 430.211C927.651 430.578 927.77 430.942 927.889 431.309C928.665 433.685 931.207 433.69 931.984 431.309Z" fill="white"/>
<path d="M1020.12 447.825C1022.95 447.825 1022.96 442.607 1020.12 442.607C1017.29 442.607 1017.28 447.825 1020.12 447.825Z" fill="white"/>
<path d="M875.557 631.02C875.885 630.947 876.213 630.877 876.506 630.673C876.664 630.564 877.551 629.415 877.063 630.002C876.629 630.527 877.354 629.725 877.426 629.616C877.613 629.33 877.736 629.011 877.801 628.657C877.576 629.004 877.35 629.351 877.125 629.699C877.188 629.653 877.25 629.609 877.313 629.563C877.963 629.094 878.279 627.743 877.58 627.104C877.578 627.109 877.576 627.117 877.574 627.121C877.313 626.487 876.543 625.924 875.938 626.009C875.385 626.087 874.94 626.179 874.458 626.521C873.122 627.471 873.173 629.711 874.458 630.673C874.829 630.952 875.108 631.12 875.557 631.02Z" fill="white"/>
<path d="M809.691 371.239C812.009 371.239 812.014 366.969 809.691 366.969C807.373 366.969 807.369 371.239 809.691 371.239Z" fill="white"/>
<path d="M539.137 333.464C542.64 333.464 542.646 327.012 539.137 327.012C535.634 327.012 535.628 333.464 539.137 333.464Z" fill="white"/>
<path d="M464.87 455.224C465.02 454.429 465.198 453.786 464.985 452.987C464.675 451.816 463.288 451.813 462.978 452.987C462.767 453.781 462.945 454.429 463.093 455.224C463.29 456.263 464.675 456.263 464.87 455.224Z" fill="white"/>
<path d="M413.424 246.685C415.896 246.685 415.9 242.131 413.424 242.131C410.952 242.131 410.948 246.685 413.424 246.685Z" fill="white"/>
<path d="M468.082 165.477C470.297 165.477 470.302 161.396 468.082 161.396C465.866 161.396 465.862 165.477 468.082 165.477Z" fill="white"/>
<path d="M377.897 103.228C379.34 103.228 379.342 100.57 377.897 100.57C376.454 100.57 376.452 103.228 377.897 103.228Z" fill="white"/>
<path d="M171.241 45.5602C171.339 45.0428 171.514 44.5764 171.665 44.0785C172.542 41.1902 167.849 41.1708 168.732 44.0785C168.884 44.5764 169.058 45.0428 169.156 45.5602C169.39 46.7797 171.007 46.7821 171.241 45.5602Z" fill="white"/>
<path d="M238.521 95.9356C240.839 95.9356 240.843 91.6652 238.521 91.6652C236.203 91.6676 236.198 95.9356 238.521 95.9356Z" fill="white"/>
<path d="M80.6566 302.13C80.9313 301.992 81.2038 301.856 81.4785 301.717C82.9194 300.993 82.9194 297.94 81.4785 297.216C81.2038 297.077 80.9313 296.941 80.6566 296.803C78.9083 295.926 76.7418 296.9 76.7418 299.465C76.7418 302.033 78.9103 303.007 80.6566 302.13Z" fill="white"/>
<path d="M130.572 205.203C131.963 205.203 131.965 202.64 130.572 202.64C129.182 202.643 129.18 205.203 130.572 205.203Z" fill="white"/>
<path d="M224.856 266.837C226.35 266.837 226.352 264.085 224.856 264.085C223.362 264.085 223.359 266.837 224.856 266.837Z" fill="white"/>
<path d="M127.852 467.022C130.428 467.022 130.432 462.278 127.852 462.278C125.277 462.276 125.271 467.022 127.852 467.022Z" fill="white"/>
<path d="M174.994 554.801C177.931 554.801 177.935 549.392 174.994 549.392C172.059 549.394 172.053 554.801 174.994 554.801Z" fill="white"/>
<path d="M215.292 381.672C216.63 381.672 216.635 379.204 215.292 379.204C213.952 379.207 213.95 381.672 215.292 381.672Z" fill="white"/>
<path d="M221.677 480.552C221.39 480.103 221.125 479.6 220.767 479.229C220.355 478.803 219.822 478.801 219.408 479.229C219.049 479.598 218.783 480.103 218.498 480.552C217.625 481.92 218.818 483.837 220.088 483.837C221.357 483.834 222.55 481.92 221.677 480.552Z" fill="white"/>
<path d="M320.507 539.42C322.567 539.42 322.571 535.623 320.507 535.623C318.447 535.626 318.443 539.42 320.507 539.42Z" fill="white"/>
<path d="M228.285 646.302C230.345 646.302 230.349 642.505 228.285 642.505C226.225 642.508 226.221 646.302 228.285 646.302Z" fill="white"/>
<path d="M389.039 563.563C389.154 563.889 389.271 564.212 389.388 564.537C390.087 566.495 393.04 566.495 393.739 564.537C393.856 564.212 393.971 563.889 394.087 563.563C394.51 562.383 394.668 561.241 394.087 560.068C393.567 559.013 392.595 558.353 391.564 558.353C390.533 558.353 389.562 559.016 389.041 560.068C388.459 561.241 388.617 562.383 389.039 563.563Z" fill="white"/>
<path d="M329.96 716.47C329.851 715.433 329.884 714.658 329.144 713.99C328.933 713.8 328.507 713.8 328.296 713.99C327.554 714.658 327.586 715.433 327.478 716.47C327.281 718.36 330.157 718.362 329.96 716.47Z" fill="white"/>
<path d="M508.001 766.332C507.81 765.878 507.614 765.485 507.298 765.135C506.751 764.53 505.939 764.528 505.388 765.135C505.07 765.485 504.875 765.878 504.685 766.332C504.049 767.848 504.812 769.76 506.345 769.76C507.878 769.76 508.636 767.848 508.001 766.332Z" fill="white"/>
<path d="M459.883 710.742C463.335 710.742 463.341 704.385 459.883 704.385C456.432 704.382 456.425 710.742 459.883 710.742Z" fill="white"/>
<path d="M571.932 845.491C573.991 845.491 573.996 841.694 571.932 841.694C569.87 841.697 569.868 845.491 571.932 845.491Z" fill="white"/>
<path d="M638.885 782.049C640.638 782.049 640.64 778.823 638.885 778.823C637.135 778.823 637.131 782.049 638.885 782.049Z" fill="white"/>
<path d="M538.453 667.88C540.205 667.88 540.207 664.654 538.453 664.654C536.702 664.654 536.698 667.88 538.453 667.88Z" fill="white"/>
<path d="M856.149 757.894C859.807 757.894 859.813 751.158 856.149 751.158C852.492 751.158 852.486 757.894 856.149 757.894Z" fill="white"/>
<path d="M571.247 701.215C574.906 701.215 574.912 694.479 571.247 694.479C567.59 694.476 567.584 701.215 571.247 701.215Z" fill="white"/>
<path d="M798.551 730.612C798.717 729.555 798.869 728.878 798.465 727.872C798.078 726.91 796.709 726.91 796.321 727.872C795.918 728.878 796.069 729.555 796.235 730.612C796.448 731.97 798.338 731.972 798.551 730.612Z" fill="white"/>
<path d="M686.712 880.645C688.258 880.645 688.26 877.798 686.712 877.798C685.167 877.798 685.163 880.645 686.712 880.645Z" fill="white"/>
<path d="M625.223 974.429C626.614 974.429 626.616 971.866 625.223 971.866C623.831 971.866 623.829 974.429 625.223 974.429Z" fill="white"/>
<path d="M735.904 741.278C737.347 741.278 737.349 738.621 735.904 738.621C734.461 738.621 734.459 741.278 735.904 741.278Z" fill="white"/>
<path d="M802.858 618.481C806.361 618.481 806.367 612.029 802.858 612.029C799.355 612.029 799.349 618.481 802.858 618.481Z" fill="white"/>
<path d="M815.156 519.229C816.391 519.229 816.393 516.951 815.156 516.951C813.92 516.951 813.918 519.229 815.156 519.229Z" fill="white"/>
<path d="M934.035 557.092C935.942 557.092 935.946 553.582 934.035 553.582C932.129 553.582 932.127 557.092 934.035 557.092Z" fill="white"/>
<path d="M1072.05 620.386C1075.86 620.386 1075.87 613.363 1072.05 613.363C1068.23 613.363 1068.23 620.386 1072.05 620.386Z" fill="white"/>
<path d="M1044.11 542.381C1044.15 541.614 1044.21 541.062 1043.94 540.355C1043.74 539.828 1042.97 539.828 1042.77 540.355C1042.49 541.065 1042.55 541.604 1042.59 542.381C1042.65 543.54 1044.05 543.542 1044.11 542.381Z" fill="white"/>
<path d="M1078.88 433.541C1080.27 433.541 1080.27 430.979 1078.88 430.979C1077.49 430.979 1077.48 433.541 1078.88 433.541Z" fill="white"/>
<path d="M976.396 372.099C977.89 372.099 977.892 369.347 976.396 369.347C974.902 369.347 974.9 372.099 976.396 372.099Z" fill="white"/>
<path d="M1050.18 181.15C1051.83 181.15 1051.84 178.113 1050.18 178.113C1048.54 178.113 1048.53 181.15 1050.18 181.15Z" fill="white"/>
<path d="M389.017 861.237C390.923 861.237 390.927 857.727 389.017 857.727C387.111 857.727 387.109 861.237 389.017 861.237Z" fill="white"/>
<path d="M353.795 971.445C355.702 971.445 355.706 967.935 353.795 967.935C351.889 967.935 351.887 971.445 353.795 971.445Z" fill="white"/>
<path d="M515.195 852.546C518.184 852.546 518.188 847.041 515.195 847.041C512.207 847.044 512.203 852.546 515.195 852.546Z" fill="white"/>
<path d="M987.983 736.09C991.125 736.09 991.131 730.302 987.983 730.302C984.841 730.302 984.834 736.09 987.983 736.09Z" fill="white"/>
<path d="M882.768 731.997C884.983 731.997 884.988 727.916 882.768 727.916C880.552 727.916 880.548 731.997 882.768 731.997Z" fill="white"/>
<path d="M1035.81 866.96C1038.62 866.96 1038.63 861.779 1035.81 861.779C1033 861.779 1032.99 866.96 1035.81 866.96Z" fill="white"/>
<path d="M1274.22 661.004C1274.3 661.38 1274.39 661.757 1274.47 662.133C1274.64 662.859 1275.17 663.532 1275.8 663.702C1276.16 663.799 1276.44 663.799 1276.81 663.702C1277.44 663.535 1277.97 662.859 1278.13 662.133C1278.22 661.757 1278.3 661.38 1278.39 661.004C1278.76 659.395 1277.71 657.761 1276.31 657.761C1274.9 657.761 1273.85 659.395 1274.22 661.004Z" fill="white"/>
<path d="M504.265 1111.34C508.673 1111.34 508.682 1103.22 504.265 1103.22C499.854 1103.22 499.848 1111.34 504.265 1111.34Z" fill="white"/>
<path d="M372.501 757.015C372.562 756.631 372.624 756.245 372.685 755.861C373.144 752.995 371.611 750.109 368.988 750.109C366.381 750.109 364.831 752.992 365.29 755.861C365.352 756.245 365.413 756.631 365.475 757.015C366.135 761.135 371.841 761.137 372.501 757.015Z" fill="white"/>
<path d="M486.5 843.925C487.16 843.925 487.16 842.71 486.5 842.71C485.842 842.71 485.84 843.925 486.5 843.925Z" fill="white"/>
<path d="M381.286 905.974C382.501 905.974 382.503 903.735 381.286 903.735C380.07 903.735 380.068 905.974 381.286 905.974Z" fill="white"/>
<path d="M340.411 1004.15C340.848 1004.07 341.282 1003.98 341.719 1003.9C341.932 1003.86 341.932 1003.43 341.719 1003.39C341.282 1003.3 340.848 1003.22 340.411 1003.13C339.688 1002.99 339.684 1004.29 340.411 1004.15Z" fill="white"/>
<path d="M371.05 1022.72C372.431 1022.72 372.433 1020.18 371.05 1020.18C369.67 1020.18 369.668 1022.72 371.05 1022.72Z" fill="white"/>
</svg>
