<?xml version="1.0" encoding="utf-8"?>
<!-- Generator: Adobe Illustrator 26.0.0, SVG Export Plug-In . SVG Version: 6.00 Build 0)  -->
<svg version="1.1" id="Layer_1" xmlns="http://www.w3.org/2000/svg" xmlns:xlink="http://www.w3.org/1999/xlink" x="0px" y="0px"
	 viewBox="0 0 4000 4000" style="enable-background:new 0 0 4000 4000;" xml:space="preserve">
<style type="text/css">
	.st0{fill:#E81818;}
	.st1{opacity:0.7;}
	.st2{fill:#FFFFFF;}
	.st3{opacity:0.3;}
	.st4{fill:#371A45;}
	.st5{opacity:0.2;}
	.st6{fill:#E7A900;}
	.st7{fill:#FFFD01;}
	.st8{fill:#E2E8E8;}
	.st9{fill:#E5E5E5;}
	.st10{fill:#C93535;}
	.st11{fill:#D1D1D1;}
	.st12{opacity:0.5;}
	.st13{opacity:0.25;}
	.st14{fill:#000072;}
	.st15{fill:#22A7F0;}
	.st16{clip-path:url(#SVGID_00000134971361005862568680000018104483797677637270_);}
	.st17{filter:url(#Adobe_OpacityMaskFilter);}
	.st18{clip-path:url(#SVGID_00000080177473148460827860000000500849235811827863_);}
	.st19{clip-path:url(#SVGID_00000010304740997159213200000012015712912879561133_);}
	
		.st20{clip-path:url(#SVGID_00000141420414986042984240000008875428161774622361_);fill:url(#SVGID_00000145059011194232928200000004779835324555982494_);}
	
		.st21{clip-path:url(#SVGID_00000080177473148460827860000000500849235811827863_);mask:url(#SVGID_00000042015098831346640400000009201915220778929838_);fill:url(#SVGID_00000056424839026996508350000004294893914568879761_);}
	.st22{opacity:0.7;fill:url(#SVGID_00000085220560402538068870000014142072924816638613_);enable-background:new    ;}
	.st23{clip-path:url(#SVGID_00000168820686245101241470000016850502228884557471_);}
	.st24{filter:url(#Adobe_OpacityMaskFilter_00000133516657436292141330000018344449749122896289_);}
	.st25{clip-path:url(#SVGID_00000145039238455447268090000009339171449821430711_);}
	.st26{clip-path:url(#SVGID_00000000192881246153469040000001003403731629854337_);}
	
		.st27{clip-path:url(#SVGID_00000062892685961212984230000009228662921863652533_);fill:url(#SVGID_00000167356362544201941030000010725702878154050452_);}
	
		.st28{clip-path:url(#SVGID_00000145039238455447268090000009339171449821430711_);mask:url(#SVGID_00000059269086227429300640000005807834793110862481_);fill:url(#SVGID_00000072251135312863602300000006737505497120669091_);}
	.st29{opacity:0.7;fill:url(#SVGID_00000183953981119955877030000015867701647638549919_);enable-background:new    ;}
</style>
<g>
	<g>
		<g>
			<path class="st0" d="M1116.9,2320c-55.4,37.2-87.9,100.4-87.5,167c1.5,212,25.7,416.2,81.1,609.6c9.3,32.3,19.4,64.3,30.4,96
				c30.7,50.5,57.7,58.6,79.6,10.1l52.2-372.7c6.7-47.8,35.7-89.9,78.8-111.9c50.2-25.6,117.2-40.7,189.4-52.6L1418.4,2216
				c-60.5,10.3-125.5,25.7-185,47.2C1190.4,2278.8,1150.3,2297.6,1116.9,2320z"/>
		</g>
		<g class="st1">
			<path class="st2" d="M1233.4,2263.3c59.5-21.6,124.5-36.9,185-47.2l9.9,36.3c-46.1,9.6-93.3,22.2-137.4,38.2
				c-43,15.5-83.1,34.3-116.5,56.7c-55.4,37.2-87.9,100.4-87.5,167c1.5,212,25.7,416.2,81.1,609.6c9.3,32.3,19.4,64.3,30.4,96
				c1.8,2.9,3.6,5.7,5.3,8.4c-18.4,16.5-39.5,2.7-62.8-35.6c-11-31.7-21.2-63.7-30.4-96c-55.5-193.4-79.7-397.6-81.1-609.6
				c-0.4-66.7,32.1-129.9,87.5-167C1150.3,2297.6,1190.4,2278.8,1233.4,2263.3z"/>
		</g>
		<g class="st3">
			<path class="st4" d="M1233.4,2263.3c38,230.4,3.3,518.7-122.8,833.4c9.3,32.3,19.4,64.3,30.4,96c30.7,50.5,57.7,58.6,79.6,10.1
				l52.2-372.7c6.7-47.8,35.7-89.9,78.8-111.9c50.2-25.6,117.2-40.7,189.4-52.6L1418.4,2216
				C1358,2226.4,1292.9,2241.7,1233.4,2263.3z"/>
		</g>
		<g>
			<path class="st4" d="M1126.8,3213.8c-2-3.1-3.9-6.1-5.7-9c-0.9-1.4-1.6-2.9-2.1-4.5c-74.1-212.7-111-446-112.8-713.1
				c-0.5-75.4,36-145.1,97.8-186.6c90.3-60.6,218.7-92,310.6-107.6c11.8-2,23.3,5.3,26.4,16.8l122.4,449.6
				c1.7,6.4,0.7,13.2-2.9,18.7c-3.6,5.5-9.3,9.3-15.8,10.4c-57.7,9.5-130.6,23.8-182.6,50.4c-35.8,18.2-60.5,53.5-66.3,94.3
				l-52.2,372.7c-0.3,2.2-0.9,4.3-1.8,6.4c-13.2,29.2-30.5,44.7-51.4,46C1162.6,3260.1,1141.4,3235.9,1126.8,3213.8z M1162.1,3182.6
				c14.3,23,22.8,28,25.2,29.1c1.4-1.1,5.4-4.8,10.6-15.5l51.7-369.3c7.8-55.9,41.9-104.3,91.2-129.4c50-25.5,114.7-40.4,170.7-50.5
				l-110.1-404.3c-114.4,21.4-210.3,55.5-271.7,96.7c-48.7,32.7-77.6,87.8-77.1,147.6C1054.5,2747.8,1090.3,2975.4,1162.1,3182.6z"
				/>
		</g>
	</g>
	<g>
		<g>
			<path class="st0" d="M2932.8,2265.9c53.1,40.4,81.7,105.5,77.3,172c-14.2,211.5-50.6,413.9-117.6,603.6
				c-11.2,31.7-23.2,63-36.1,94c-33.7,48.6-61.1,55.1-80,5.3l-29.7-375.2c-3.8-48.1-30.3-91.9-71.9-116.4
				c-48.6-28.5-114.6-47.6-185.9-63.8l149.2-441.4c59.7,14,123.7,33.2,181.8,58.3C2861.9,2220.4,2900.8,2241.6,2932.8,2265.9z"/>
		</g>
		<g class="st1">
			<path class="st2" d="M2819.9,2202.3c-58.1-25.1-122.1-44.3-181.8-58.3l-12,35.6c45.5,12.4,91.8,27.8,134.9,46.4
				c42,18.1,80.9,39.2,112.9,63.6c53.1,40.4,81.7,105.5,77.3,172c-14.2,211.5-50.6,413.9-117.6,603.6c-11.2,31.7-23.2,63-36.1,94
				c-2,2.8-3.9,5.5-5.8,8c17.3,17.6,39.2,5,64.8-31.8c12.9-31,24.9-62.3,36.1-94c67-189.8,103.4-392.1,117.6-603.6
				c4.4-66.5-24.2-131.6-77.3-172C2900.8,2241.6,2861.9,2220.4,2819.9,2202.3z"/>
		</g>
		<g class="st5">
			<path class="st4" d="M2819.9,2202.3c-51.8,227.7-34.4,517.6,72.6,839.2c-11.2,31.7-23.2,63-36.1,94c-33.7,48.6-61.1,55.1-80,5.3
				l-29.7-375.2c-3.8-48.1-30.3-91.9-71.9-116.4c-48.6-28.5-114.6-47.6-185.9-63.8l149.2-441.4
				C2697.8,2158,2761.9,2177.2,2819.9,2202.3z"/>
		</g>
		<g>
			<path class="st4" d="M2766.4,3172.8c-4.4-6.6-8.3-14.5-11.8-23.6c-0.8-2.1-1.3-4.2-1.4-6.4l-29.7-375.2
				c-3.3-41.1-25.9-77.8-60.5-98.2c-50.4-29.6-122.2-48.3-179.2-61.2c-6.4-1.5-12-5.6-15.2-11.3c-3.2-5.7-3.9-12.6-1.7-18.8
				l149.2-441.4c3.8-11.4,15.7-18,27.4-15.2c90.8,21.1,217.1,60.2,303.6,126.1c59.1,45,91.4,116.9,86.4,192.1
				c-17.8,266.5-68.7,497.1-155.4,705c-0.6,1.5-1.4,3-2.4,4.3c-16,23-40.9,53.2-72.4,49.4
				C2788.7,3196.4,2776.4,3187.9,2766.4,3172.8z M2799.3,3135.6c4.6,11,8.3,15,9.7,16.1c2.4-0.9,11.3-5.4,26.9-27.5
				c84.2-202.5,133.5-427.5,150.9-687.8c4-59.6-21.5-116.4-68.1-151.9c-58.8-44.8-152.5-84.6-265.4-112.8l-134.2,396.9
				c55.3,13.4,119.1,32.2,167.4,60.6c47.7,28.1,78.8,78.4,83.3,134.6L2799.3,3135.6z"/>
		</g>
	</g>
	<g>
		<g>
			<g>
				<path class="st0" d="M1705.7,3347.3c0,0,151.6,115.9-81.5,413.7c-11,14-31.9,14.1-43.4,0.2c-61.5-74.7-220.6-292.7-94.5-412.6
					L1705.7,3347.3z"/>
			</g>
			<g>
				<path class="st6" d="M1673.9,3346.9c0,0,107.6,82.3-58.5,293.6c-7.3,9.3-21.2,9.3-28.8,0.2c-42.7-51.7-157.6-207.5-67.8-292.8
					L1673.9,3346.9z"/>
			</g>
			<g>
				<path class="st7" d="M1648.5,3338.7c0,0,72.6,55.5-39.5,198.1c-4.9,6.2-14.3,6.3-19.4,0.1c-28.8-34.9-106.3-140-45.7-197.6
					L1648.5,3338.7z"/>
			</g>
			<g>
				<path class="st4" d="M1507.3,3692.2c-69.8-105.7-137-258.1-33.4-356.5c3.3-3.2,7.7-4.9,12.3-5l219.4-1.4c4,0,7.9,1.3,11,3.7
					c1.8,1.4,44.3,34.7,53.7,108.1c11.8,92.6-32.6,204-132,331c-8.6,10.9-21.4,17.3-35.3,17.5c-14,0.2-27.2-6-36.2-16.9
					C1549.9,3752,1528.5,3724.2,1507.3,3692.2z M1493.8,3366.6c-106.7,111.8,49.8,321,100.9,383.2c2.7,3.3,6.1,3.8,7.9,3.8
					c1.7,0,4.9-0.5,7.4-3.7c116.1-148.4,131.9-247.3,124.6-304.2c-5.8-45.4-26.9-71.3-35.9-80.3L1493.8,3366.6z"/>
			</g>
		</g>
		<g>
			<path class="st8" d="M1503.1,3208.2c-38.4,53.8-38.1,118.8-38.1,118.8s46.4,27.2,143.3,28.1c96.8,0.9,143-25.4,143-25.4
				s-0.3-65-39.2-119.5L1503.1,3208.2z"/>
		</g>
		<g>
			<path class="st4" d="M1449.3,3337.4c-2-3-3.1-6.6-3.1-10.3c0-2.9,0.1-71.7,41.6-129.8c6-8.4,17.8-10.4,26.2-4.4
				c8.4,6,10.4,17.8,4.4,26.2c-25.1,35.2-32,76.5-33.9,96.3c17.6,7.2,58.7,20.3,124,20.9c64.6,0.6,105.4-11.5,123.2-18.4
				c-2.1-19.9-9.3-61.3-34.9-96.8c-6.1-8.5-4.1-20.2,4.4-26.2c8.4-6,20.2-4.1,26.2,4.4c41.8,59,42.7,127.5,42.7,130.4
				c0,6.8-3.6,13.1-9.5,16.4c-2.1,1.2-51.7,28.8-152.5,27.8c-100.7-0.9-150.5-29.4-152.6-30.6
				C1453,3341.8,1450.9,3339.8,1449.3,3337.4z"/>
		</g>
		<g>
			<path class="st0" d="M1425.3,3168.8c24.8,110,152.6,108,182.6,108.3c30.1,0.3,157.9,4.7,181.7-104.9
				c24-110.8-14.5-587.6-184.9-589.2C1434.2,2581.5,1400.2,3057.6,1425.3,3168.8z"/>
		</g>
		<g class="st1">
			<path class="st2" d="M1636.2,3276.8c43.5-10.4,90.3-35.9,103.8-97.9c23.4-108-12.6-563.7-172.2-588.1c11.5-5.1,23.8-7.8,36.9-7.7
				c170.5,1.6,209,478.4,184.9,589.2C1770.6,3259.9,1685.1,3274.6,1636.2,3276.8z"/>
		</g>
		<g class="st3">
			<path class="st4" d="M1468.2,3168.2c19.6,86.8,103.1,103.9,152.3,107.3c-15.1-15.1-27-35-33-61.5c-21.7-96,0.7-463.5,116.7-561.6
				c-22.1-35.3-48.7-59.7-80.2-67.1C1474,2625.7,1444.3,3062.3,1468.2,3168.2z"/>
		</g>
		<g>
			<path class="st4" d="M1423.9,3225c-11-16.6-17.6-34.3-21.3-51l0,0c-19.7-87.4-7-426.5,100.7-560c29.3-36.3,63.5-54.5,101.6-54.1
				c38.2,0.4,72.5,19.3,102.1,56.3c108.4,135.7,124.2,474.3,105.4,561.1c-12.4,57.2-57.6,125-202.2,123.2l-4.9,0
				C1503.2,3299.7,1450.5,3265.3,1423.9,3225z M1681.4,2660.1c-3.5-5.3-7.1-10.2-10.8-14.9c-20.7-25.9-42.3-38.6-66.1-38.8
				c-23.5-0.2-44.7,11.8-64.9,36.8c-90.9,112.6-111.8,430.8-91.5,520.5c0,0,0,0,0,0c13.5,60,65.1,89.5,157.6,90.1l5.1,0.1
				c92.2,1.1,143.2-27.2,156.1-86.5C1785.4,3081.9,1764.1,2785.4,1681.4,2660.1z"/>
		</g>
		<g>
			<path class="st4" d="M1409,3001.2c-2.3-3.5-3-7.9-1.6-12.2c2.4-7.4,10.4-11.4,17.8-9c119,39.1,244.6,40.3,363.2,3.4
				c0.8-0.2,1.6-0.4,2.5-0.5c7.7-0.9,14.7,4.6,15.7,12.3c0.8,7-3.6,13.4-10.2,15.3c-124.1,38.5-255.5,37.2-380-3.7
				C1413.2,3005.8,1410.6,3003.8,1409,3001.2z"/>
		</g>
		<g>
			<g>
				<path class="st0" d="M2513.8,3343.1c0,0,151.6,115.9-81.5,413.7c-11,14-31.9,14.1-43.4,0.2c-61.5-74.7-220.6-292.7-94.5-412.6
					L2513.8,3343.1z"/>
			</g>
			<g>
				<path class="st6" d="M2482,3342.7c0,0,107.6,82.3-58.5,293.6c-7.3,9.3-21.2,9.3-28.8,0.2c-42.7-51.7-157.6-207.5-67.8-292.8
					L2482,3342.7z"/>
			</g>
			<g>
				<path class="st7" d="M2456.6,3334.5c0,0,72.6,55.5-39.5,198.1c-4.9,6.2-14.3,6.3-19.4,0.1c-28.8-34.9-106.3-140-45.7-197.6
					L2456.6,3334.5z"/>
			</g>
			<g>
				<path class="st4" d="M2315.4,3688c-69.8-105.7-137-258.1-33.4-356.5c3.3-3.2,7.7-4.9,12.3-5l219.4-1.4c4,0,7.9,1.3,11,3.7
					c1.8,1.4,44.3,34.7,53.7,108.1c11.8,92.6-32.6,204-132,331c-8.6,10.9-21.4,17.3-35.3,17.5c-14,0.2-27.2-6-36.2-16.9
					C2358,3747.8,2336.6,3720.1,2315.4,3688z M2301.9,3362.4c-106.7,111.8,49.8,321,100.9,383.2c2.7,3.3,6.1,3.8,7.9,3.8
					c1.7,0,4.9-0.5,7.4-3.7c116.1-148.4,131.9-247.3,124.6-304.2c-5.8-45.4-26.9-71.3-35.9-80.3L2301.9,3362.4z"/>
			</g>
		</g>
		<g>
			<path class="st8" d="M2311.2,3204.1c-38.4,53.8-38.1,118.8-38.1,118.8s46.4,27.2,143.3,28.1c96.8,0.9,143-25.4,143-25.4
				s-0.3-65-39.2-119.5L2311.2,3204.1z"/>
		</g>
		<g>
			<path class="st4" d="M2257.4,3333.2c-2-3-3.1-6.6-3.1-10.3c0-2.9,0.1-71.7,41.6-129.8c6-8.4,17.8-10.4,26.2-4.4
				c8.4,6,10.4,17.8,4.4,26.2c-25.1,35.2-32,76.5-33.9,96.3c17.6,7.2,58.7,20.3,124,20.9c64.6,0.6,105.4-11.5,123.2-18.4
				c-2.1-19.9-9.4-61.3-34.9-96.8c-6-8.6-4.1-20.2,4.4-26.2c8.4-6,20.2-4.1,26.2,4.4c41.8,58.9,42.7,127.5,42.7,130.4
				c0,6.8-3.6,13.1-9.5,16.4c-2.1,1.2-51.7,28.8-152.5,27.8c-100.7-0.9-150.5-29.4-152.6-30.6
				C2261.1,3337.6,2259,3335.6,2257.4,3333.2z"/>
		</g>
		<g>
			<path class="st0" d="M2233.4,3164.7c24.8,110,152.6,108,182.6,108.3c30.1,0.3,157.9,4.7,181.7-104.9
				c24-110.8-14.5-587.6-184.9-589.2S2208.3,3053.4,2233.4,3164.7z"/>
		</g>
		<g class="st1">
			<path class="st2" d="M2444.3,3272.6c43.5-10.4,90.3-35.9,103.8-97.9c23.4-108-12.6-563.7-172.2-588.1c11.5-5.1,23.8-7.8,36.9-7.7
				c170.5,1.6,209,478.4,184.9,589.2C2578.7,3255.7,2493.2,3270.4,2444.3,3272.6z"/>
		</g>
		<g class="st3">
			<path class="st4" d="M2276.3,3164.1c19.6,86.8,103.1,103.9,152.3,107.3c-15.1-15.1-27-35-32.9-61.5
				c-21.7-96,0.7-463.5,116.7-561.6c-22.1-35.3-48.7-59.7-80.2-67.1C2282.1,2621.5,2252.4,3058.1,2276.3,3164.1z"/>
		</g>
		<g>
			<path class="st4" d="M2232,3220.8c-11-16.6-17.6-34.3-21.3-51l0,0c-19.7-87.4-7-426.5,100.7-560c29.3-36.3,63.5-54.5,101.6-54.1
				c38.2,0.4,72.5,19.3,102.1,56.3c108.4,135.7,124.2,474.3,105.4,561.1c-12.4,57.2-57.6,125-202.2,123.2l-4.9,0
				C2311.3,3295.5,2258.6,3261.1,2232,3220.8z M2489.5,2655.9c-3.5-5.3-7.1-10.2-10.8-14.9c-20.7-25.9-42.3-38.6-66.1-38.8
				c-23.5-0.2-44.7,11.8-64.9,36.8c-90.9,112.6-111.8,430.8-91.5,520.5c0,0,0,0,0,0c13.5,60,65.1,89.5,157.6,90.1l5.1,0.1
				c92.2,1.1,143.2-27.2,156.1-86.5C2593.5,3077.7,2572.3,2781.2,2489.5,2655.9z"/>
		</g>
		<g>
			<path class="st4" d="M2217.1,2997c-2.3-3.5-3-7.9-1.6-12.2c2.4-7.4,10.4-11.4,17.8-9c119,39.1,244.6,40.3,363.2,3.4
				c0.8-0.2,1.6-0.4,2.5-0.5c7.7-0.9,14.7,4.6,15.7,12.3c0.8,7-3.6,13.4-10.2,15.3c-124.1,38.5-255.5,37.2-380-3.7
				C2221.3,3001.6,2218.8,2999.6,2217.1,2997z"/>
		</g>
		<g>
			<path class="st8" d="M1597,2927.7l27.5,127.9c12.5,57.9,55.2,104.6,111.2,121.6l0,0c166.9,50.8,343.8,54.5,511.3,10.7l0,0
				c56.3-14.7,99.6-59.6,112.8-116.9l29.2-126.7L1597,2927.7z"/>
		</g>
		<g>
			<path class="st8" d="M2180,3202.9c-75,13.8-151.3,18.3-227.2,13.5c-73.1-4.5-145.9-17.6-217-39.1c-56-17.1-98.8-63.8-111.2-121.6
				l-27.5-127.9l357.9,7.5l434.2,9.1l-29.2,126.8c-6.6,28.6-20.7,54.2-40.2,74.4c-19.5,20.2-44.4,35.1-72.6,42.5
				C2224.9,3193.8,2202.5,3198.7,2180,3202.9z"/>
		</g>
		<g class="st3">
			<g>
				<path class="st2" d="M2016.2,3218.2c-9.7,0.1-19.5-0.1-29.3-0.3c67.6-2.6,134.8-12.4,200.6-29.6c28.1-7.4,53.1-22.2,72.6-42.5
					c19.5-20.2,33.6-45.8,40.3-74.5l29.2-126.7l29.2,0.7l30.4-1l-29.2,126.7c-6.6,28.7-20.7,54.2-40.3,74.5
					c-19.5,20.2-44.4,35.1-72.5,42.5C2171.4,3207.7,2093.9,3217.8,2016.2,3218.2z"/>
			</g>
		</g>
		<g>
			<path class="st2" d="M1970.3,126.3c-3.2,1.3-6.4,2.8-9.6,4.6c-1,0.5-2,1.1-3,1.7c-0.1,0.1-0.2,0.1-0.3,0.2
				c-1.1,0.6-2.2,1.3-3.3,2c-1.1,0.6-2.2,1.4-3.2,2.2c-1.1,0.7-2.2,1.5-3.2,2.3c-0.6,0.4-1.1,0.8-1.7,1.2c-0.5,0.4-1.1,0.9-1.6,1.3
				c-0.4,0.2-0.7,0.4-1,0.7c-0.3,0.2-0.6,0.4-0.9,0.7c0,0.1-0.2,0.2-0.2,0.3c-0.3,0.2-0.6,0.4-0.9,0.7c-0.1,0-0.1,0.1-0.3,0.2
				c-0.1,0-0.1,0.1-0.2,0.2c-0.5,0.4-1.1,0.8-1.6,1.3c-0.1,0.1-0.3,0.1-0.4,0.3c-0.1,0.1-0.3,0.2-0.4,0.3c-0.8,0.6-1.7,1.3-2.5,2
				c-0.5,0.3-1.1,0.8-1.6,1.3c-0.4,0.3-0.8,0.6-1.1,0.9c-0.4,0.3-0.8,0.6-1.2,1c-0.3,0.1-0.5,0.3-0.8,0.5c-0.3,0.2-0.5,0.5-0.9,0.7
				c-0.1,0.1-0.3,0.2-0.4,0.4c-0.1,0-0.1,0.1-0.3,0.2c-0.3,0.1-0.5,0.3-0.8,0.6c-0.6,0.5-1.2,1.1-1.9,1.6c-0.4,0.3-0.7,0.5-1.1,0.8
				c-0.3,0.2-0.6,0.5-0.9,0.8l-0.1,0c-0.5,0.3-1,0.7-1.4,1.2c0,0,0,0.1-0.1,0.1c-0.6,0.4-1.1,0.8-1.6,1.3c-0.2,0.2-0.4,0.3-0.6,0.4
				c-0.2,0.1-0.5,0.3-0.7,0.6c-0.1,0.1-0.3,0.2-0.4,0.3c-0.9,0.8-1.9,1.5-2.8,2.3c-1.1,0.9-2.2,1.8-3.4,2.8
				c-0.3,0.3-0.7,0.6-1.1,0.9c-1.2,1-2.4,2-3.7,3.1c-1.4,1.2-2.9,2.4-4.3,3.6c-1.8,1.5-3.5,3-5.3,4.5c-0.9,0.7-1.7,1.5-2.6,2.2
				c-1,0.9-2,1.8-3.1,2.6c-1.1,0.9-2.1,1.9-3.3,2.8c-0.3,0.2-0.5,0.5-0.8,0.8c-0.4,0.3-0.8,0.6-1.1,0.9c-0.1,0-0.1,0-0.1,0.1
				c-0.8,0.8-1.8,1.6-2.7,2.4c-0.1,0.1-0.3,0.2-0.4,0.3c-0.7,0.6-1.4,1.2-2.2,1.9c0,0,0,0.1-0.2,0.2c-0.2,0.1-0.4,0.3-0.6,0.5
				c-0.4,0.4-0.8,0.8-1.3,1.2c-0.1,0.1-0.3,0.3-0.5,0.5c-0.2,0.2-0.4,0.4-0.7,0.6c-0.4,0.3-0.7,0.7-1.2,1c-0.3,0.3-0.6,0.6-1,0.9
				c-0.3,0.2-0.5,0.5-0.7,0.7c-1,0.9-2,1.8-3.1,2.7c-0.8,0.8-1.5,1.4-2.3,2.1c-0.8,0.7-1.6,1.5-2.5,2.2c-0.5,0.5-1.1,1.1-1.7,1.6
				c-0.4,0.4-0.9,0.8-1.4,1.2c-0.9,0.8-1.8,1.7-2.7,2.5c-0.2,0.1-0.3,0.2-0.5,0.4c-1,0.9-1.9,1.8-2.9,2.7c-0.2,0.2-0.4,0.4-0.7,0.6
				c-0.1,0-0.2,0.1-0.3,0.2c-0.7,0.6-1.4,1.3-2.1,2c-1,0.9-1.9,1.8-2.9,2.7c-0.4,0.3-0.7,0.7-1.1,1c-0.4,0.3-0.7,0.7-1.1,1.1
				c-0.1,0.1-0.3,0.2-0.4,0.3c-0.1,0-0.1,0.1-0.1,0.1c-0.9,0.9-1.8,1.7-2.7,2.6c-0.1,0-0.1,0.1-0.2,0.2c-0.4,0.3-0.7,0.7-1.1,1
				c-1.1,1.1-2.3,2.2-3.5,3.4c-0.6,0.6-1.2,1.1-1.8,1.7c-0.1,0-0.2,0.2-0.2,0.3c-0.3,0.2-0.5,0.5-0.7,0.7c-1.3,1.2-2.5,2.4-3.8,3.6
				c-0.2,0.3-0.4,0.4-0.7,0.6c-0.2,0.1-0.3,0.2-0.5,0.4c-0.4,0.4-0.8,0.8-1.2,1.2c-0.4,0.3-0.7,0.6-1,1c-0.4,0.4-0.9,0.9-1.3,1.3
				c-0.6,0.6-1.2,1.1-1.8,1.8c0,0.1-0.1,0.1-0.2,0.2c-0.5,0.4-0.9,0.8-1.4,1.3c-0.3,0.3-0.6,0.6-0.8,0.8c-0.3,0.3-0.6,0.6-0.9,1
				c-0.2,0.2-0.3,0.3-0.5,0.5c-0.1,0-0.2,0.1-0.3,0.2c-0.2,0.2-0.3,0.3-0.4,0.4c0,0.1-0.2,0.2-0.3,0.3c-0.4,0.3-0.7,0.6-1,0.9
				c-0.7,0.7-1.4,1.4-2.1,2.1c-0.9,1-1.9,1.9-2.9,2.9c-0.7,0.6-1.4,1.3-2,1.9c-0.5,0.5-1,1-1.5,1.5c-0.2,0.2-0.3,0.3-0.5,0.5
				c-0.7,0.7-1.5,1.5-2.2,2.2c-1.2,1.2-2.6,2.5-3.8,3.8c0,0-0.1,0-0.1,0.1c-0.2,0.2-0.4,0.3-0.6,0.6c-0.4,0.3-0.8,0.8-1.2,1.2
				c-0.3,0.2-0.6,0.5-0.9,0.9c-0.5,0.5-1,1-1.5,1.5c-0.4,0.4-0.8,0.8-1.2,1.2c-0.3,0.3-0.6,0.6-0.8,1c-0.1,0-0.1,0.1-0.3,0.2
				c-1.2,1.2-2.4,2.4-3.6,3.7c-0.1,0-0.1,0.1-0.3,0.2c-0.2,0.3-0.4,0.5-0.7,0.7c-0.2,0.2-0.4,0.3-0.5,0.5c-0.3,0.3-0.6,0.7-0.9,1
				c-0.3,0.3-0.6,0.6-0.9,0.9c-0.8,0.9-1.7,1.8-2.6,2.7c-0.4,0.5-1,1-1.5,1.6c-0.3,0.4-0.7,0.8-1,1.1c-0.4,0.4-0.8,0.8-1.2,1.1
				c0,0.1,0,0.1,0,0.1c-0.6,0.7-1.4,1.4-2,2.1c0,0.1-0.1,0.1-0.2,0.2c0,0.1-0.2,0.2-0.3,0.3c-0.7,0.6-1.2,1.2-1.9,1.9l-0.9,0.9
				c-0.1,0.1-0.2,0.3-0.4,0.5c-0.4,0.3-0.8,0.8-1.2,1.2c-0.3,0.4-0.7,0.8-1,1.1c-0.3,0.3-0.7,0.6-0.9,1c-0.5,0.5-1.1,1.1-1.6,1.6
				c-0.3,0.3-0.6,0.7-1,1.1c-0.1,0-0.1,0.1-0.3,0.2c-0.1,0.1-0.2,0.3-0.4,0.4c-0.5,0.6-1,1.1-1.5,1.7c0,0-0.1,0-0.1,0.1
				c-0.7,0.7-1.4,1.5-2.1,2.3c-0.5,0.5-1,1-1.5,1.6c-1.3,1.4-2.5,2.7-3.8,4.1c-0.4,0.4-0.7,0.8-1.1,1.2c-0.1,0.1-0.2,0.2-0.3,0.3
				c-0.5,0.6-1,1.1-1.5,1.7c-0.1,0-0.1,0.1-0.2,0.2c-0.4,0.5-0.9,1.1-1.4,1.6c-0.5,0.6-1.1,1.2-1.6,1.8c-2.8,3.1-5.6,6.2-8.4,9.4
				c-0.8,0.8-1.4,1.6-2.2,2.4c-0.2,0.3-0.5,0.6-0.7,0.8c-0.6,0.7-1.1,1.2-1.7,1.8c-0.3,0.4-0.6,0.7-0.8,1c-0.3,0.4-0.6,0.8-1,1.1
				l-2.2,2.5c-1.2,1.5-2.5,2.9-3.8,4.4c-0.1,0-0.1,0-0.1,0.1c-0.8,1-1.7,1.9-2.5,3c-0.7,0.7-1.4,1.6-2.2,2.4c-1.3,1.6-2.7,3.2-4,4.8
				c-1,1.1-2,2.3-3,3.5c-0.6,0.6-1.1,1.2-1.7,1.8c-1.4,1.7-2.8,3.4-4.1,5.1c-1.1,1.3-2.2,2.6-3.4,4.1c-0.3,0.4-0.7,0.8-1.1,1.2
				c-0.6,0.7-1.1,1.4-1.8,2.1c-2.3,2.8-4.6,5.6-6.9,8.4c-1.4,1.7-2.9,3.6-4.4,5.3c0,0.2-0.1,0.2-0.2,0.2c0,0.1-0.1,0.1-0.1,0.2
				c-1.1,1.4-2.4,2.9-3.5,4.4c-0.2,0.2-0.4,0.4-0.6,0.7c-0.3,0.4-0.7,0.9-1,1.3c-1.8,2.1-3.5,4.4-5.3,6.7c-0.9,1.2-1.9,2.4-2.8,3.5
				c-0.3,0.4-0.6,0.7-0.8,0.9c-0.1,0.1-0.2,0.3-0.3,0.4c-0.6,0.7-1.1,1.4-1.6,2.1c-0.3,0.3-0.6,0.7-0.8,1c-0.4,0.5-0.9,1.2-1.4,1.8
				c-2.9,3.6-5.6,7.3-8.5,11c-0.3,0.3-0.5,0.6-0.7,1c-1,1.4-2,2.7-3.1,4.1c-2,2.6-3.9,5.2-5.9,7.8c-0.9,1.3-1.9,2.6-2.9,3.9
				c0,0.1-0.1,0.1-0.2,0.2c-1.4,2-2.9,3.9-4.3,5.8c-0.3,0.3-0.6,0.7-0.8,1l0,0.1c-1,1.4-2,2.8-3,4c-0.7,1-1.6,2.1-2.3,3.1
				c-1.2,1.7-2.5,3.5-3.7,5.1c-3,4.1-6,8.4-9,12.7c-0.6,0.7-1.1,1.5-1.6,2.3c-0.5,0.8-1.1,1.6-1.6,2.4c-0.4,0.5-0.7,1.1-1.2,1.6
				c-1.5,2-2.9,4.1-4.4,6.2l-0.1,0.2c-0.2,0.2-0.3,0.5-0.5,0.6c-0.1,0.1-0.2,0.3-0.3,0.4c-0.8,1.2-1.6,2.3-2.4,3.6
				c-0.4,0.6-0.9,1.3-1.3,2c-0.8,1.2-1.6,2.4-2.5,3.6c-0.1,0.1-0.2,0.2-0.3,0.4c-0.6,0.8-1.2,1.6-1.7,2.5c-1,1.5-2,3-3,4.5
				c-0.7,1.1-1.4,2.2-2.2,3.2c-1.3,1.8-2.5,3.6-3.7,5.5c-0.8,1.2-1.6,2.4-2.5,3.7c-2.1,3.2-4.3,6.6-6.5,9.9
				c-0.7,1.1-1.5,2.2-2.3,3.4c-0.3,0.5-0.6,0.9-0.9,1.5c-1.9,2.8-3.8,5.7-5.6,8.6c-1,1.5-1.9,3-2.9,4.6c-1.4,2.2-2.9,4.3-4.2,6.6
				c-4.7,7.5-9.5,15.2-14.2,22.9c-2,3.3-4,6.6-6,10c-0.3,0.6-0.8,1.2-1.1,1.8c-1.4,2.4-2.8,4.7-4.3,7.3c-1,1.7-1.9,3.3-2.9,4.9
				c-0.7,1.3-1.4,2.5-2.2,3.7c-3.9,6.6-7.7,13.3-11.5,19.9c-0.5,0.9-1,1.8-1.5,2.7c-1.9,3.2-3.7,6.6-5.6,9.9
				c-1.4,2.6-2.8,5.2-4.3,7.8c-0.1,0.3-0.3,0.6-0.5,0.9c-0.3,0.5-0.6,1-0.8,1.6c-0.4,0.8-0.8,1.6-1.3,2.3
				c-2.9,5.3-5.7,10.5-8.5,15.9c0,0.1,0,0.1-0.1,0.1c-0.8,1.6-1.6,3-2.4,4.6c-1,1.9-2,3.7-2.9,5.5c-0.5,1-1.1,2-1.6,3
				c-0.4,0.8-0.8,1.6-1.2,2.3c-2.3,4.3-4.5,8.6-6.7,12.9c-0.2,0.4-0.4,0.7-0.6,1.1c-0.1,0.2-0.2,0.5-0.3,0.7
				c-5.9,11.5-11.7,23-17.5,34.9c-3.6,7.4-7.3,15-10.8,22.7c-3.8,7.9-7.5,15.9-11.2,24.2c-1.8,3.7-3.5,7.5-5.1,11.5
				c-1.7,3.6-3.3,7.3-4.9,11c-3.5,7.8-7,15.8-10.3,24c-6.9,16.1-13.6,32.7-20.2,49.5l0,0c-2.3,5.9-4.6,11.7-6.8,17.7
				c-11.4,29.7-22.3,60.3-32.6,91.9l-5.4,16.7c-0.4,1.2-0.7,2.4-1.2,3.5c-34.6,108.6-63.2,228.7-82.9,360.9
				c-6.9,45.6-12.6,92.5-17.2,141.1c-1.7,17.9-3.2,36.1-4.6,54.5c-1.3,16.4-2.3,32.7-3.2,48.7c-0.5,8.1-0.9,16.1-1.4,24.1
				c-1.2,23.9-2.1,47.6-2.7,70.8c-0.6,23.3-0.9,46.3-0.9,68.9c-0.1,12.4,0,24.7,0.2,36.8c0.1,4.6,0.1,9.1,0.2,13.6
				c0.2,5.5,0.3,11,0.4,16.5c0.2,7.4,0.4,14.7,0.6,21.9c0.2,6.2,0.4,12.4,0.7,18.6c0.5,12.2,1,24.2,1.6,36.2c0.3,5.7,0.6,11.4,1,17
				c1.6,27.9,3.7,55.1,6.1,81.8c0.6,6.5,1.2,13,1.9,19.4c0.6,6.4,1.3,12.9,1.9,19.2c1.4,12.8,2.8,25.4,4.3,37.9
				c0.8,6.2,1.6,12.5,2.4,18.6c0.8,6.3,1.6,12.6,2.5,18.8c1.6,11.8,3.4,23.4,5.1,34.9c0.2,1.1,0.4,2.3,0.6,3.4
				c1.4,9.2,2.9,18.2,4.4,27.2c3.5,21.1,7.3,41.7,11.2,61.9c1.1,5.3,2.1,10.6,3.2,15.8c6.2,30.9,12.9,60.6,20,89.3
				c1,4.5,2.1,8.8,3.3,13.2c1.4,5.5,2.8,10.9,4.1,16.3c2.4,9,4.8,17.9,7.1,26.7c3.7,13.6,7.5,26.9,11.5,40c1.1,3.8,2.2,7.5,3.3,11.2
				c1.5,5,3,10,4.5,14.8c4.6,14.7,9.2,29.2,13.9,43.3c3,8.8,6,17.5,9,26.1c0.7,2.2,1.5,4.3,2.2,6.4c24,67.8,49.2,126.8,73.2,176.8
				c8.9,18.5,17.5,35.8,25.9,51.9c48.7,92.8,88.1,144.8,96.2,155.1c1,1.3,1.5,2,1.5,2l0.1,0c4.2,1.7,8.4,3.4,12.6,4.9
				c2.5,1,5,1.8,7.4,2.8c8,3,16.1,6,24.1,8.8c6,2,11.9,4.1,17.9,6.1c2.1,0.8,4.2,1.5,6.4,2.1c24.4,7.9,48.9,15,73.6,21.2
				c0.4,0.1,0.7,0.2,1,0.2c7.9,2,15.8,3.9,23.7,5.8c8.1,1.9,16.1,3.6,24.3,5.3c1.1,0.2,2.1,0.4,3.2,0.6c7.4,1.5,14.8,2.9,22.3,4.3
				c5.6,1,11.3,2,16.9,2.9c6.3,1.1,12.5,2.1,18.7,2.9c4.9,0.8,9.7,1.5,14.5,2.1c8.3,1.2,16.6,2.2,25,3.2c0.8,0.1,1.6,0.1,2.4,0.2
				l0,0.1c6.6,0.7,13.2,1.4,19.8,2c9.4,0.9,18.8,1.7,28.2,2.3c7.3,0.5,14.6,0.9,21.9,1.3c1.1,0.1,2.2,0.1,3.3,0.2
				c16.8,0.7,33.6,1.1,50.5,1.2c0.8,0,1.7,0,2.5,0c3.8,0,7.5,0,11.3-0.1c8.3-0.1,16.6-0.3,24.9-0.5c10.1-0.3,20.2-0.8,30.2-1.5
				c4.6-0.3,9.2-0.6,13.8-0.9c15-1,30.2-2.4,45.1-4.1c7.8-0.9,15.7-1.8,23.6-2.9c4.6-0.7,9.2-1.2,13.7-2c4.1-0.5,8.2-1.1,12.3-1.9
				c0.2,0,0.5,0,0.7-0.1c6.1-1,12.3-2,18.4-3.1c3.2-0.5,6.3-1.2,9.5-1.7c2.5-0.4,5.1-1,7.7-1.4c2.5-0.5,5.1-1,7.7-1.5
				c1.4-0.3,2.8-0.6,4.2-0.9c6.3-1.2,12.6-2.6,18.8-4c4.3-0.9,8.6-1.9,12.9-3c1.9-0.4,3.9-0.9,5.8-1.4c6-1.4,12-2.9,17.9-4.4
				c9.6-2.4,19.2-5.1,28.7-7.8c3.6-1,7.2-2,10.8-3.1c5.6-1.7,11.2-3.4,16.8-5.2c5.8-1.8,11.5-3.6,17.2-5.6c6.5-2.1,13-4.4,19.4-6.6
				l0.1,0c0,0,0,0,0-0.1c0.1-0.1,0.1-0.1,0.2-0.2c0-0.1,0.1-0.2,0.3-0.4c0.3-0.3,0.7-0.8,1.3-1.5c0.6-0.9,1.5-2,2.6-3.2
				c0.8-0.9,1.7-2.1,2.7-3.4c1.9-2.5,4.1-5.3,6.6-8.6c0.9-1.2,1.9-2.6,2.9-3.9c0.8-0.9,1.5-1.9,2.2-3c2.4-3.3,5-6.9,7.8-10.7
				c1.2-1.6,2.4-3.4,3.7-5.2c3.1-4.5,6.4-9.3,10-14.5c0.3-0.4,0.7-0.9,1-1.5c2.9-4.3,5.9-8.9,9.1-13.7c0.1-0.1,0.1-0.2,0.2-0.4
				c7.1-11.1,14.8-23.4,23.1-37.1c0.1-0.1,0.2-0.3,0.3-0.4c10.1-17,20.9-36,32.3-57c0.7-1.3,1.4-2.5,2.1-3.8
				c3.3-6.1,6.5-12.4,9.8-19c8.9-16.9,17.9-35.2,27-54.6c1-1.9,1.9-3.8,2.7-5.8c0.1,0,0-0.1,0-0.1c6.3-13.4,12.6-27.5,18.9-42
				c1.2-2.8,2.4-5.6,3.6-8.3c10.8-25.3,21.6-52.1,32-80.5c0,0,0,0.1,0.1,0c20.4-54.7,40.1-115.5,57.9-182.3
				c1.2-4.5,2.4-9.2,3.7-13.8c3.6-13.8,7.1-28,10.6-42.5c12.6-52.4,23.8-108.3,33.2-167.5c0.9-5.8,1.9-11.5,2.8-17.4
				c5.6-36.7,10.5-74.7,14.6-113.9c0.7-6.5,1.3-13,2-19.6c0.2-1.2,0.2-2.2,0.3-3.3c1.2-11.8,2.1-23.8,3.2-36
				c1.1-13.6,2.1-27.3,3-41.2c0.5-6.8,0.9-13.8,1.3-20.6c3.1-53.8,4.6-109.8,4.4-167.9c0-6.7-0.1-13.4-0.2-20.2
				c-0.1-13.6-0.4-27.2-0.8-41c-0.3-13.8-0.8-27.6-1.3-41.7c-0.6-14-1.3-28.1-2-42.3c-0.3-7.2-0.7-14.3-1.1-21.4
				c-0.5-7.9-1.1-15.9-1.6-23.7c-0.3-3.3-0.4-6.5-0.8-9.8c-0.3-4.6-0.7-9.2-1.1-13.7c-0.6-8.3-1.3-16.6-2-24.8
				c-0.5-5.9-1-11.8-1.6-17.6c-4.8-51.5-11-101.3-18.4-149.4c-1-6.8-2.1-13.5-3.2-20.2c-0.3-2.2-0.7-4.5-1.1-6.7
				c-1.1-7-2.3-13.9-3.5-20.8c-0.2-1.2-0.4-2.4-0.6-3.5c-1.1-6.6-2.3-13.2-3.5-19.7c-0.2-0.8-0.3-1.7-0.5-2.6
				c-2.6-14.4-5.3-28.6-8.2-42.7c-1.5-7.4-2.9-14.5-4.5-21.7c-3-14.4-6.2-28.7-9.4-42.7c-0.3-1.2-0.5-2.3-0.8-3.3
				c-1.7-7-3.3-14-5-20.9c-1-4.4-2.1-8.7-3.1-13.1c-1-3.7-1.9-7.6-2.9-11.3c-0.9-3.7-1.9-7.3-2.8-11c-0.2-0.9-0.4-1.8-0.7-2.6
				c-8.9-34.3-18.4-67.5-28.5-99.8c-1.9-6.1-3.9-12.3-5.9-18.4c-1.8-5.5-3.6-11-5.3-16.5c-2.7-8.1-5.4-16.1-8.2-24.1
				c-3.9-11.4-7.9-22.6-11.9-33.8c-1.6-4.5-3.3-9.1-5-13.6c-0.5-1.4-1-2.7-1.5-4.1c-3.6-9.7-7.3-19.3-11-28.9
				c-3.7-9.5-7.5-18.9-11.3-28.3c-0.3-0.7-0.6-1.3-0.8-2c-6.6-16.3-13.4-32.3-20.2-47.9c-7.7-17.5-15.6-34.7-23.6-51.5
				c-0.6-1.3-1.2-2.5-1.7-3.7c-1.6-3.3-3.2-6.6-4.8-9.8c-0.3-0.7-0.7-1.3-0.9-1.9c-3.5-7.2-7-14.1-10.5-21.1
				c-1.5-2.9-2.9-5.9-4.4-8.8c-0.2-0.3-0.3-0.6-0.5-0.9c-2.5-4.9-5-9.7-7.4-14.5c-4.8-9.4-9.7-18.7-14.6-27.8
				c-0.1-0.1-0.2-0.3-0.2-0.4c-2.2-4.1-4.4-8.3-6.7-12.3c-2.9-5.2-5.7-10.3-8.5-15.4c-0.1-0.2-0.2-0.4-0.4-0.7
				c-4.6-8.2-9.3-16.4-13.9-24.3c-0.3-0.5-0.7-1.1-1-1.8c-0.3-0.5-0.6-1-0.9-1.6c-9.3-16.1-18.8-31.8-28.3-47
				c-0.2-0.3-0.3-0.5-0.5-0.8c-0.5-0.7-1-1.4-1.4-2.2c-4.4-7.1-8.8-14.1-13.3-20.9c-1.3-1.9-2.5-3.8-3.8-5.8
				c-4.2-6.4-8.4-12.7-12.5-19.1c-2.6-3.9-5.2-7.7-7.8-11.4c-3.3-4.8-6.5-9.5-9.7-14.2c-1.9-2.8-3.9-5.6-5.8-8.3
				c-0.9-1.2-1.7-2.4-2.5-3.6c-1.2-1.5-2.3-3.1-3.4-4.7c-1.5-2.1-3-4.1-4.4-6.1c-2.5-3.4-5-6.8-7.4-10.2c-1.6-2.2-3.2-4.3-4.7-6.4
				c-1.7-2.3-3.4-4.6-5-6.8c-1.2-1.5-2.3-3.1-3.5-4.7c-1.7-2.3-3.4-4.6-5.2-6.9c-1.7-2.2-3.4-4.4-5-6.5c-1.7-2.3-3.4-4.5-5.2-6.7
				c-0.9-1.2-1.7-2.2-2.6-3.4c-0.8-0.9-1.5-2-2.2-2.9c-1.8-2.4-3.6-4.7-5.5-6.9c-1.6-2.2-3.3-4.2-5-6.2c-1.5-1.9-3-3.8-4.4-5.6
				c-3.7-4.4-7.2-8.7-10.7-13.1c-1.3-1.7-2.8-3.4-4.1-5c-0.9-1-1.6-1.9-2.5-2.9c-1.3-1.6-2.6-3.2-4-4.7c-1.5-1.8-2.9-3.6-4.5-5.3
				c-3.7-4.4-7.3-8.7-11-12.9c-1.3-1.5-2.6-2.9-3.8-4.4c-2.5-2.8-5-5.6-7.4-8.4c-4.7-5.3-9.3-10.5-14-15.6c-3-3.3-5.9-6.5-8.8-9.7
				c-0.6-0.5-1.1-1.1-1.5-1.6c-6.3-6.7-12.4-13.2-18.4-19.6c-1.1-1.1-2-2.1-3-3.1c-1.4-1.4-2.7-2.7-3.9-4.1c-0.6-0.7-1.3-1.4-1.9-2
				c-0.6-0.6-1.2-1.1-1.7-1.6c-2.3-2.4-4.6-4.7-6.9-7c-3.2-3.3-6.5-6.5-9.6-9.7c-4-4-7.9-7.8-11.7-11.4c-0.5-0.5-0.9-0.9-1.3-1.3
				c-1.1-1.1-2.1-2.1-3.3-3.2c-1-1-2.1-2-3.1-3c-2.1-2.1-4.2-4-6.3-6c-0.3-0.2-0.5-0.5-0.8-0.8c-1.8-1.7-3.5-3.4-5.4-5
				c-1.3-1.1-2.6-2.4-3.8-3.5c-1.5-1.4-3-2.8-4.4-4.1c-1.3-1.1-2.6-2.4-3.8-3.4c-0.1-0.1-0.3-0.2-0.3-0.4c-3.1-2.9-6.2-5.7-9.3-8.3
				c-1.3-1.1-2.5-2.3-3.8-3.4c-1.3-1.1-2.5-2.3-3.8-3.3c-1.2-1.1-2.5-2.2-3.7-3.3c-1.9-1.6-3.7-3.2-5.5-4.7c-3.6-3.1-7.1-6.1-10.5-9
				c-0.4-0.3-0.7-0.6-1-0.8c-1.4-1.1-2.8-2.3-4.1-3.4c-1.7-1.4-3.4-2.8-5-4.1c-0.3-0.2-0.5-0.4-0.8-0.7c-1.5-1.2-2.9-2.4-4.4-3.5
				c-3.9-3.1-7.9-6-12.1-8.5c-4.2-2.5-8.4-4.7-12.8-6.5c-8.7-3.8-17.9-6.4-27.2-7.6c0,0,0,0.1-0.1,0c-9.2-1.3-18.7-1.3-27.8,0
				c-7.1,1-14,2.9-20.7,5.4c0-0.1,0-0.1,0-0.1c-0.9,0.3-1.8,0.6-2.8,1.1C1971.3,125.9,1970.8,126.1,1970.3,126.3z"/>
		</g>
		<g>
			<path class="st9" d="M2462.9,2185.1c2.1-3.2,4.2-6.3,6.4-9.1C2465.9,2181.2,2463.7,2184.2,2462.9,2185.1z"/>
		</g>
		<g>
			<path class="st10" d="M1432.1,856.1c52.1-132.9,112.7-245.9,174.6-340.8c0.8-1.2,1.6-2.3,2.3-3.4c8.6-13.3,17.4-26.2,26.2-38.8
				c0.3-0.3,0.5-0.7,0.8-1.1c3-4.3,6-8.6,9-12.7c3-4.2,6-8.4,9-12.6c3.2-4.5,6.5-8.9,9.8-13.4c5.7-7.7,11.5-15.3,17.2-22.8
				c9-11.7,17.9-23,26.7-34c3-3.7,5.9-7.3,8.8-10.9c11.8-14.3,23.5-28,35-41.1c2.9-3.3,5.8-6.5,8.6-9.7c25.7-28.7,50.6-54.4,74-77.1
				c3.9-3.7,7.7-7.4,11.5-11c4-3.8,8.1-7.6,12-11.2c4-3.6,7.9-7.2,11.7-10.7c3.2-2.9,6.5-5.8,9.6-8.6c4.8-4.2,9.4-8.3,13.9-12.2
				c19.5-16.7,37.1-30.9,52.6-42.7c-7.9,13.7-15.8,27.7-23.6,41.9c-96.1,175-184.5,386-248.9,637.3
				C1592.2,828.6,1511.9,840.5,1432.1,856.1z"/>
		</g>
		<g>
			<path class="st11" d="M1432.1,856.1c52.8-134.5,114.1-248.6,176.8-344.2c5.9-9.1,11.9-18.1,17.9-26.8c3-4.4,6-8.7,9-13.1l0.1-0.2
				c3-4.2,5.9-8.4,8.8-12.6c6-8.5,12-16.8,18-24.9c5.5-7.4,10.8-14.6,16.2-21.7c15.5-20.3,30.9-39.5,46.1-57.7
				c2.6-3.1,5.2-6.1,7.7-9.1c30.2-35.7,59.6-67.1,87.2-94.6c2-2,4-4,6-5.9c3.2-3.2,6.3-6.2,9.5-9.3c8.3-8,16.5-15.7,24.4-22.9
				c2-1.8,4-3.6,5.9-5.4c3.9-3.5,7.8-7,11.6-10.4c1.9-1.7,3.8-3.3,5.6-5c3.7-3.3,7.4-6.5,11-9.6c7.3-6.2,14.3-12.1,21-17.6
				c11.8-9.6,22.7-18.2,32.7-25.8c4.1-3.2,8.5-6,13-8.4c3.4-1.8,6.8-3.4,10.3-4.9c1.2-0.5,2.4-0.9,3.5-1.4
				c-44.7,139.1-112.7,377.8-166.6,685.2C1681.9,816.4,1556.4,831.9,1432.1,856.1z"/>
		</g>
		<g>
			<path class="st0" d="M2581.4,880.3c-151.8-36.1-305.7-59-460.1-68.7c-230.5-14.6-462,0.3-689.2,44.6
				c160.8-410,401.7-630.2,515.6-716.8c37.8-28.7,90.3-27.6,127.6,2.7c2.8,2.3,5.8,4.7,8.8,7.2C2200,245,2429.9,474.1,2581.4,880.3z
				"/>
		</g>
		<g class="st5">
			<path class="st4" d="M1910.4,215.8C1910.4,215.8,1910.4,215.8,1910.4,215.8c-92.3,86-211,220.2-317,413.2
				c-121.3,221-226.1,519.1-255.3,910.2c-18.9,253.7-3.1,473.2,29.6,657.9c85.4,481.9,286.1,727.4,286.1,727.4c0,0,0,0,0,0l-0.1,0
				l27.5,127.9c12.4,57.8,55.2,104.6,111.2,121.6c54.9,16.7,110.8,28.2,167.2,34.7l1.6-203.7c6.5,0.4,13,0.7,19.5,1l39.8-314.1
				c0,0-162.1-38.6-228.9,180.7c-62.4-151.1-124.8-345-166.7-580.9c-23.8-133.9-40.8-281.6-47.6-442.6
				c85.3,106.7,223.7,164.6,365.2,138.6c204.9-37.6,338.5-236.8,298.5-444.9c-40-208.1-238.6-346.3-443.5-308.6
				c-83.4,15.3-155,57.4-207.8,115.9C1632.9,870.9,1760.8,498.5,1910.4,215.8z"/>
		</g>
		<g class="st12">
			<path class="st2" d="M1912.9,182.1c37.8-28.7,90.3-27.6,127.6,2.7c2.8,2.3,5.8,4.7,8.8,7.2c110.5,91.4,324.6,304,475.5,675.5
				c18.9,4.1,37.7,8.3,56.5,12.8C2429.9,474.1,2200,245,2084.1,149.1c-3-2.5-5.9-4.9-8.8-7.2c-37.4-30.2-89.9-31.3-127.6-2.7
				c-59.7,45.4-154.2,127.5-253.8,254.3C1780.4,290.8,1860.2,222.1,1912.9,182.1z"/>
		</g>
		<g>
			<path class="st4" d="M1412.6,868.9c-4.1-6.3-5-14.2-2.3-21.3c158.5-404,392.5-626.3,517.9-722.8c49.4-38.1,118-36.7,166.9,3.3
				c124.1,101.7,355,333.6,508,744c3,8.1,1.3,17.1-4.4,23.6c-5.7,6.4-14.5,9.2-22.8,7.2c-377.5-89.7-760.9-97.8-1139.4-23.9
				c-8.3,1.6-16.9-1.4-22.4-8C1413.6,870.4,1413.1,869.7,1412.6,868.9z M2364.8,502.4c-111.3-168.4-225-277.4-299.2-338.3
				c-31.9-26.2-76.7-27.2-108.9-2.4c-117.5,90.4-333.4,294.9-487.1,663.7c357.1-64,718.1-56.5,1074.3,22.4
				C2490.1,712.2,2427.8,597.8,2364.8,502.4z"/>
		</g>
		<g>
			<path class="st4" d="M1545.4,2895.3c-17.6-26.7-41-64.7-66.7-113.7c-8.4-16.1-17.3-33.8-26.3-52.6
				c-26.9-56.4-51.8-116.7-74-179.3c-0.8-2.3-1.7-4.6-2.4-7c-2.9-8.1-5.9-16.9-8.9-25.8c-4.8-14.3-9.5-28.9-14.1-43.8l-4.9-16
				c-1.1-3.5-2.1-7-3.1-10.5c-4.2-14-8-27.2-11.5-40.2c-2.3-8.2-4.5-16.6-6.7-25l-4.7-18.3c-1.2-4.4-2.3-9-3.4-13.7
				c-7.2-29-13.9-59.4-20.1-90l-3.2-15.8c-4.3-22.1-8-42.5-11.3-62.6c-1.5-9.1-3-18.2-4.4-27.5l-0.2-1.1c-0.2-0.9-0.3-1.7-0.4-2.6
				c-1.8-11.3-3.4-23.1-5.1-35c-0.6-4.4-1.2-8.8-1.8-13.4l-3.1-24.3c-1.6-12.7-3-25.4-4.4-38.3c-0.6-5.7-1.2-11.5-1.7-17.2l-0.6-6.1
				c-0.5-5.3-1-10.6-1.5-15.9c-2.6-28.6-4.6-55.7-6.2-82.5c-0.3-4.1-0.5-8.4-0.7-12.7l-0.2-4.4c-0.6-12.2-1.2-24.3-1.6-36.6
				c-0.3-6.2-0.5-12.5-0.7-18.8c-0.2-4.5-0.3-9.1-0.4-13.7l-0.2-8.2c-0.1-5.6-0.3-11-0.4-16.5c0-4.3-0.1-8.1-0.1-12l0-1.9
				c-0.2-12.3-0.2-24.6-0.2-37.2c0-22.2,0.3-45.6,0.9-69.4c0.6-23.7,1.5-47.7,2.7-71.3l0.4-7.7c0.3-5.6,0.6-11.1,1-16.7
				c1-17.3,2-33.4,3.2-49c1.5-19.2,3-37.2,4.6-54.9c4.4-46.3,10.2-94.2,17.3-142.3c18.9-126.5,47.1-249.1,83.7-364.6
				c0.1-0.5,0.3-0.9,0.5-1.4l6.1-18.9c10.3-31.3,21.4-62.6,33-93.1c1.5-3.9,3-7.9,4.6-11.9l2.3-5.9c3.2-8.3,10.7-13.7,19-14.7
				c8.7-1.7,17-3.3,25.3-4.7c3.1-0.6,6.1-1.2,9.1-1.7c1-0.2,2.4-0.4,3.7-0.7l3.5-0.6c5.4-1,11-2,16.8-2.9c1.4-0.3,2.9-0.6,4.4-0.8
				l1.7-0.3c6.9-1.2,13.5-2.3,20.2-3.3l10-1.6c0.3-0.1,1.3-0.2,2.3-0.4l1.2-0.2c3-0.5,5.4-0.8,7.8-1.2c0.3-0.1,0.7-0.1,1-0.1
				l5.6-0.8c1.4-0.3,2.7-0.5,4.1-0.6c7.7-1.1,15.7-2.3,23.7-3.4c1-0.2,2-0.3,3.1-0.4c2.3-0.4,5.3-0.8,8.3-1.1l1.4-0.2
				c5.8-0.8,11.9-1.6,18-2.4l4-0.5c1.6-0.2,3.3-0.4,4.9-0.6l7.6-0.9c5.4-0.7,11.1-1.4,16.9-2l7.6-0.9c1-0.1,2-0.2,3.1-0.3
				c2.2-0.3,4.2-0.5,6.3-0.7c8.8-1,17.8-2,26.7-2.9c0.6-0.1,1.9-0.2,3.3-0.3l1-0.1c8.6-0.8,17.3-1.6,26.1-2.5l3.6-0.3
				c6.1-0.6,12.3-1.1,18.4-1.5c14.5-1.2,29.3-2.3,44.2-3.2c3.5-0.2,6.5-0.4,9.6-0.6l12.1-0.7c3.5-0.2,7.1-0.4,10.8-0.6
				c4.3-0.3,7.9-0.5,11.5-0.6c6.8-0.3,14.1-0.7,21.4-1c14.5-0.6,29.1-1.1,43.6-1.4c7.2-0.2,14.5-0.3,21.8-0.4
				c7-0.2,14.3-0.3,21.6-0.3c7.5,0,14.7-0.1,21.9-0.1c14.6,0,29.2,0.1,43.8,0.3c13.7,0.1,28.5,0.4,43.6,1l20.9,0.7
				c15.5,0.6,31.3,1.3,46.9,2.2c6.3,0.3,12.9,0.7,19.3,1.1c16.5,1.1,34.2,2.3,52.3,3.9c12.3,0.9,24.8,2.1,37.2,3.3l21.7,2.2
				c29.9,3.1,61.1,6.8,92.7,11.3c9.1,1.2,18.1,2.5,27.2,3.9c1.1,0.1,2.2,0.3,3.3,0.5c9.2,1.4,18.4,2.8,27.6,4.3
				c9.6,1.5,19.2,3.1,28.9,4.8c24.2,4.1,49.1,8.7,73.7,13.7c7.3,1.4,14.8,2.9,22.4,4.5c6.2,1.2,12.6,2.6,19,4l0.9,0.2
				c3.5,0.8,6.6,1.4,9.8,2.2c5.8,1.3,12.1,2.6,18.4,4c3.6,0.8,7.3,1.7,11,2.6c5.6,1.3,11.7,2.7,17.7,4.1c2.8,0.7,5.5,1.9,7.8,3.5
				c4,2.7,7,6.5,8.7,11.1c7.4,20.1,13.4,36.6,18.6,52c2.7,7.8,5.4,15.8,8.1,23.9l11.4,35.7c10.3,33.1,19.9,67,28.8,101
				c1.2,4.4,2.4,9.1,3.6,13.8l2.9,11.3c1.2,4.8,2.3,9.2,3.3,13.7c1.6,6.5,3.2,13.5,4.9,20.4c0.3,1.1,0.6,2.3,0.8,3.5
				c3.3,14.5,6.5,28.9,9.6,43.5c1.6,7.2,3.1,14.5,4.6,22c2.9,13.9,5.6,28.1,8.2,42.5c0.1,0.5,0.2,1,0.3,1.5c0.1,0.5,0.3,1.3,0.4,1.8
				l3.4,19.7c0.2,0.7,0.4,2.3,0.7,3.9l0.7,4.3c0.9,5.4,1.9,10.9,2.7,16.4c0.4,2.2,0.8,4.7,1.2,7.2c1,6,2,12.7,3,19.3
				c7.7,49.8,13.9,100.5,18.7,151.4l0.4,4.5c0.4,4.4,0.8,8.9,1.2,13.4c0.7,8.1,1.4,16.5,2,25l0.2,1.9c0.3,3.9,0.7,7.8,0.9,11.7
				c0.2,2.1,0.4,4.3,0.5,6.4l0.7,10.5c0.4,5.7,0.8,11.4,1.1,17.1c0.5,7.2,0.9,14.5,1.2,21.7c0.7,14.2,1.5,28.4,2,42.5
				c0.5,14.2,1,28.2,1.3,42.1c0.4,13.8,0.7,27.6,0.8,41.3c0.1,6.8,0.2,13.6,0.2,20.4c0.2,57.1-1.3,114.1-4.5,169.2
				c-0.4,6.9-0.8,13.9-1.3,20.9c-0.9,13.9-1.9,27.7-3,41.5c-1,12.1-2.1,24.2-3.2,36.2l-0.1,1.2c-0.1,0.8-0.2,1.7-0.3,2.6l-0.6,5.6
				c-0.5,4.6-0.9,9.2-1.4,13.8c-4,38.4-8.9,77.1-14.7,115c-0.9,5.9-1.9,11.7-2.8,17.5c-9.2,57.9-20.6,114.8-33.6,169.3
				c-3.5,14.6-7.1,28.9-10.7,42.9l-3.8,14c-17,63.6-36.7,125.6-58.5,184.3c-0.2,0.5-0.4,1-0.6,1.5c-9.8,26.4-20.2,52.7-31.9,80.1
				c-0.8,1.7-1.3,2.9-1.8,4.2c-0.7,1.5-1.3,3.1-2,4.6c-5.8,13.7-12.2,27.9-18.7,41.8c-1,2.3-2.1,4.6-3.2,6.8
				c-8.3,17.7-17.1,35.8-27.1,55.2c-2.8,5.5-5.7,11-8.6,16.4l-1.2,2.3c-0.8,1.6-1.7,3.2-2.6,4.7c-10.5,19.7-21.5,39.2-32.6,57.5l0,0
				c-0.2,0.3-0.4,0.6-0.6,0.9c-7.5,12.7-15.2,25-22.7,36.5c-0.2,0.4-0.5,0.8-0.7,1.2l0,0l-8.7,13.1c-0.6,1-1.2,1.9-1.9,2.8
				c-3.4,5.2-6.8,10-9.9,14.4c-1.2,1.8-2.6,3.8-4,5.7c-2.4,3.4-5,7.1-7.4,10.3c-1.1,1.6-2.1,3-3.3,4.4c-0.4,0.5-0.9,1.2-1.4,1.9
				c-0.3,0.5-0.6,0.9-1,1.4l0,0c-2.6,3.4-4.9,6.4-6.8,8.8c-0.9,1.3-2.1,2.7-3.1,3.9c-0.8,1-1.7,2.1-2.4,3c-0.4,0.5-0.8,1-1.1,1.4
				c-0.7,0.9-1.5,1.8-2.3,2.6c-1.8,1.8-4,3.4-6.4,4.5c-0.8,0.4-1.7,0.7-2.5,1c-6.6,2.3-13.2,4.6-19.9,6.8
				c-5.6,1.9-11.6,3.8-17.5,5.7c-5.5,1.8-11.2,3.5-16.9,5.2c-3.5,1-6.9,2-10.3,2.9l-1.1,0.3c-9.5,2.8-19.4,5.5-29.2,8
				c-5.9,1.5-11.8,3-17.8,4.4c-2.2,0.6-4.5,1.2-6.7,1.7c-4.1,1-8.7,2-13.2,3c-7.3,1.7-15.3,3.4-23.2,4.9c-1.3,0.3-2.9,0.6-4.5,0.9
				l-6.8,1.3c-1.5,0.3-3.1,0.6-4.6,0.9l-3.8,0.7c-1.9,0.4-3.8,0.7-5.8,1c-5.9,1.1-12.1,2.1-18.2,3.1c-1,0.2-1.9,0.4-2.9,0.4
				c-3.8,0.6-7.5,1.2-11.3,1.7c-2.5,0.4-5.7,0.8-8.8,1.3l-4.6,0.6c-8.1,1.1-16.2,2.1-24.2,3c-15.9,1.8-31.4,3.2-46.2,4.2
				c-4.6,0.3-9.3,0.7-14.1,0.9c-9.6,0.7-19.8,1.2-30.9,1.5c-8.4,0.3-16.8,0.4-25.3,0.5c-2,0.1-4.6,0.1-7.1,0.1l-4.1,0
				c-1.3,0-2.4,0-3.3-0.1c-7.5,0.1-15,0-22.5-0.2c-9.5-0.2-19.2-0.6-28.7-1c-1,0-2.4-0.1-3.8-0.2c-7.3-0.4-14.6-0.8-21.9-1.3
				c-8.6-0.5-18.1-1.3-28.8-2.3c-4.2-0.4-8.7-0.8-13.1-1.3l-8.6-0.9c-0.2,0-0.7-0.1-1-0.1c-8.5-1-17-2-25.5-3.2
				c-4.6-0.6-9.7-1.3-14.8-2.1c-6.4-0.9-12.9-1.9-19.4-3.1c-5.4-0.9-11.1-1.9-16.8-2.9c-7.7-1.4-15.3-2.8-22.9-4.4
				c-1-0.2-1.7-0.4-2.5-0.5c-0.3-0.1-0.6-0.1-1-0.2l-2.6-0.6c-7.4-1.6-14.8-3.2-22.1-4.9c-7.9-1.8-16.1-3.7-24.2-5.8
				c-0.6-0.1-1.4-0.3-2.3-0.7c-24.4-6.1-49.1-13.2-73.4-21.2c-2.5-0.7-5-1.6-7.5-2.5l-17.5-6c-8.3-2.9-16.4-5.9-24.5-8.9
				c-1.7-0.6-2.8-1-3.9-1.4c-1.4-0.5-2.8-1-4.1-1.5c-4.2-1.6-8.7-3.3-13.1-5.1l0,0c-3.3-1.3-6.4-3.5-8.9-6.3c0,0-0.8-0.9-2.2-2.8
				C1573.4,2935.4,1561.9,2920.4,1545.4,2895.3z M1408,993.5c-35.8,112.9-63.3,233-81.9,356.8c-7,47.3-12.7,94.3-17,139.8
				c-1.7,17.8-3.2,35.8-4.6,54c-1.2,15.3-2.2,31.1-3.2,48.3c-0.4,5.6-0.6,11-0.9,16.4l-0.4,7.7c-1.1,23.1-2,46.8-2.6,70.1
				c-0.6,23.4-0.9,46.4-0.9,68.3c0,12.3,0,24.4,0.2,36.4l0,2c0.1,4,0.1,7.9,0.1,11.9c0.1,5.1,0.3,10.6,0.4,16.1l0.2,8.2
				c0.1,4.5,0.2,8.9,0.4,13.4c0.2,6.2,0.4,12.3,0.6,18.4c0.5,12.2,1,24.1,1.6,36l0.2,4.3c0.2,4.2,0.4,8.3,0.7,12.4
				c1.5,26.5,3.5,53,6.1,81.2c0.5,5.2,1,10.3,1.5,15.4l0.6,6.1c0.6,5.6,1.1,11.3,1.7,16.8c1.4,12.6,2.8,25.1,4.3,37.5l3.1,24
				c0.6,4.3,1.1,8.6,1.7,12.9c1.6,11.8,3.3,23.2,5,34.7l0.2,1.1c0.2,0.9,0.3,1.7,0.4,2.6c1.4,8.7,2.8,17.7,4.3,26.6
				c3.3,19.7,6.9,39.7,11.1,61.3l3.1,15.7c6,29.9,12.7,59.6,19.7,88.3c1.1,4.5,2.1,8.6,3.2,12.8l4.7,18.3c2.2,8.2,4.3,16.4,6.5,24.5
				c3.7,13.5,7.5,26.6,11.3,39.5c1,3.6,2,6.8,3,10l4.9,16c4.5,14.5,9.1,28.7,13.7,42.7c2.9,8.6,5.9,17.3,8.8,25.7
				c0.8,2.5,1.5,4.3,2.2,6.2c21.7,61.3,46,120.1,72.2,174.9c8.8,18.2,17.5,35.5,25.6,51.2c44,84,80.2,133.6,91.5,148.4
				c2.2,0.8,4.3,1.7,6.5,2.5l3.5,1.3c1.4,0.5,2.8,1,4.2,1.6c7.8,2.9,15.6,5.8,23.4,8.5l17.7,6c2,0.7,3.5,1.3,5.1,1.7
				c0.4,0.1,0.7,0.2,1.1,0.3c23.8,7.8,48,14.8,72,20.7c0.6,0.2,1.3,0.4,1.9,0.6c7.7,1.9,15,3.7,22.3,5.3c7.3,1.7,14.4,3.2,21.5,4.7
				l2.2,0.5c1.3,0.2,2.5,0.5,3.7,0.7c6.9,1.4,14.2,2.8,21.5,4.1c5.5,1,11,2,16.5,2.9c6.3,1.1,12.1,2.1,18,2.8c0.3,0,0.6,0.1,0.8,0.1
				c4.5,0.8,8.9,1.4,13.4,1.9c8.6,1.2,16.8,2.2,24.9,3.2c0.1,0,0.8,0.1,1.6,0.2l7.2,0.7c4.2,0.4,8.5,0.9,12.7,1.3
				c10.3,1,19.2,1.7,27.4,2.2c7.4,0.5,14.6,0.9,21.7,1.3c0.5,0,1,0.1,1.5,0.1l0.9,0c0.2,0,0.7,0,0.9,0c9.1,0.5,18.3,0.8,27.4,1
				c7.3,0.2,14.5,0.2,21.7,0.1c0.4,0,0.9,0,1.3,0l5.5,0c2.1,0,4.2,0,6.4-0.1c8.7-0.1,16.8-0.3,24.9-0.5c10.5-0.3,20.1-0.8,29.4-1.4
				c4.8-0.3,9.2-0.6,13.7-0.9c14.3-1,29.1-2.3,44.2-4c7.6-0.9,15.3-1.8,23-2.9l4.7-0.7c2.8-0.4,5.7-0.8,8.5-1.2
				c4.5-0.6,8.2-1.2,12-1.8c0.6-0.1,1.1-0.2,1.7-0.2c5.7-0.9,11.5-1.9,17.3-2.9c1.9-0.3,3.6-0.6,5.3-1l18.9-3.6
				c7.7-1.5,15.2-3.1,22.6-4.8c4.6-0.9,8.7-1.9,12.6-2.8c1.7-0.4,3.2-0.7,4.5-1.1c0.5-0.2,1.1-0.3,1.6-0.4
				c5.8-1.3,11.6-2.8,17.4-4.3c9.4-2.4,18.8-5,28-7.6l1.3-0.4c3.1-0.9,6.2-1.7,9.3-2.6c5.4-1.6,10.9-3.3,16.4-5.1
				c5.8-1.8,11.4-3.6,16.9-5.5c4.5-1.5,8.8-2.9,13.1-4.4c0.9-1.1,1.6-2,2.4-3c1.9-2.4,3.8-4.9,6-7.7c0.1-0.1,0.2-0.3,0.3-0.4
				c1.1-1.5,2.3-3.2,3.6-4.9c0.6-0.7,0.8-1,1-1.4c0.3-0.4,0.6-0.8,0.9-1.3c2.3-3,4.7-6.4,7.3-10.1c1.4-1.9,2.4-3.4,3.5-4.9
				c3.2-4.6,6.5-9.2,9.8-14.2c0.2-0.3,0.4-0.6,0.6-0.9c0.1-0.2,0.2-0.4,0.4-0.6l8.5-12.9c0.2-0.4,0.5-0.8,0.7-1.2
				c7.5-11.4,15.1-23.6,22.5-36.2c0.2-0.4,0.5-0.8,0.8-1.2c10.5-17.4,21-36,31.2-55.2c0.1-0.2,0.3-0.5,0.4-0.7
				c0.4-0.7,0.8-1.4,1.2-2.1c0.2-0.3,0.3-0.6,0.5-1l1.5-2.8c2.7-5.1,5.5-10.3,8.2-15.7c9.9-19.2,18.5-36.8,26.6-54.1
				c0.1-0.3,0.3-0.5,0.4-0.8c0.6-1.2,1.3-2.5,1.8-3.8c0.2-0.5,0.4-0.9,0.6-1.4c6.4-13.6,12.6-27.5,18.5-41.3
				c0.8-1.7,1.3-2.9,1.8-4.2c0.7-1.5,1.3-3.1,2-4.6c11.4-26.8,21.8-52.8,31.4-79c0.2-0.6,0.4-1.1,0.7-1.7
				c21.1-56.7,40.2-116.8,56.6-178.6l3.7-13.9c3.5-13.4,7-27.4,10.4-41.8c12.8-53.3,23.8-109.1,32.9-165.8
				c0.9-5.8,1.9-11.5,2.8-17.3c5.6-37.1,10.5-75,14.4-112.8c0.5-4.5,0.9-9,1.4-13.5l0.6-6c0-0.3,0.1-0.5,0.1-0.8l0.3-2.8
				c1.1-11.3,2.1-23.2,3.1-35.1c1.1-13.5,2.1-27.1,3-40.8c0.5-6.8,0.9-13.6,1.2-20.4c3.1-54.3,4.6-110.3,4.4-166.6
				c0-6.7-0.1-13.3-0.2-19.9c-0.1-13.5-0.4-27.1-0.8-40.7c-0.3-13.8-0.8-27.5-1.3-41.5c-0.5-13.8-1.3-27.8-2-42
				c-0.3-7.1-0.7-14.1-1.2-21.2c-0.3-5.7-0.7-11.3-1.1-16.8l-0.7-10.4c-0.1-1.8-0.2-3.6-0.4-5.4c0-0.3-0.1-0.7-0.1-1
				c-0.2-3.7-0.5-7.4-0.8-11l-0.2-2.2c-0.6-8.4-1.3-16.6-2-24.7c-0.4-4.5-0.8-8.8-1.2-13.1l-0.4-4.5c-4.7-49.9-10.8-99.7-18.2-147.9
				c-1.1-7.1-2.1-13.6-3.1-20.1c-0.3-2.4-0.7-4.3-1-6.3c-0.9-5.8-1.9-11.1-2.8-16.5l-0.8-4.7c-0.2-1.1-0.3-1.9-0.5-2.7l-1.6-9
				c-0.6-3.7-1.3-7.3-1.9-11c-0.1-0.4-0.2-0.9-0.3-1.3c-0.1-0.4-0.3-1.2-0.3-1.6c-2.6-14.2-5.3-28.3-8.1-42.1
				c-1.5-7.3-2.9-14.4-4.5-21.5c-3-14.4-6.2-28.5-9.4-42.5c0-0.1-0.2-0.7-0.2-0.8c-0.1-0.5-0.2-1-0.3-1.5c-0.1-0.3-0.2-0.6-0.2-1
				c-1.6-6.9-3.3-13.9-5-20.7c-1.1-4.6-2.1-8.8-3.1-13l-2.8-11c-1.2-4.6-2.3-9.1-3.5-13.4c-8.7-33.5-18.2-66.7-28.2-99l-11.1-34.8
				c-2.7-7.9-5.3-15.8-8-23.6c-4.1-12-8.6-24.7-13.9-39.2c-1.8-0.4-3.6-0.8-5.4-1.2c-3.8-0.9-7.2-1.7-10.6-2.5
				c-6.2-1.4-12.4-2.7-18.5-4.1c-3.3-0.8-6.2-1.4-9-2l-1.2-0.3c-6.2-1.3-12.3-2.7-18.5-3.9c-7.5-1.6-14.7-3.1-22-4.4
				c-24.5-5-48.8-9.5-72.6-13.5c-9.5-1.6-19-3.2-28.5-4.7c-9.3-1.5-18.5-2.9-27.7-4.3c-0.3,0-0.7-0.1-1-0.2c-0.3,0-0.7-0.1-1-0.1
				c-9.1-1.4-18.3-2.6-27.4-3.9c-31.1-4.3-61.7-8.1-91-11l-21.6-2.2c-12.1-1.2-24.2-2.3-36.3-3.2c-17.9-1.5-35.4-2.7-51.6-3.8
				c-6.3-0.4-12.6-0.8-18.9-1.1c-15.4-0.9-30.8-1.6-46-2.2l-20.9-0.7c-14.7-0.5-29-0.8-42.6-1c-14.5-0.3-28.8-0.4-43.1-0.3
				c-7.1,0-14.3,0.1-21.5,0.1c-7.2,0-14.1,0.1-21.1,0.3c-7.4,0.1-14.6,0.3-21.7,0.4c-14.3,0.3-28.6,0.8-42.9,1.4
				c-7.1,0.3-14.3,0.6-21.4,1c-3.6,0.1-6.8,0.3-9.9,0.5c-0.1,0-0.7,0-0.8,0c-3.8,0.2-7.2,0.3-10.5,0.6l-12.9,0.8
				c-3.1,0.1-5.7,0.3-8.2,0.5c-15.1,1-29.6,2-44.2,3.2c-6.1,0.4-11.8,0.9-17.5,1.5c-1.1,0.1-2.2,0.2-3.3,0.3l-0.4,0
				c-8.7,0.8-17.3,1.6-25.9,2.4l-1.3,0.1c-0.8,0.1-1.5,0.1-2.2,0.2c-9.5,0.9-18.3,1.9-27,2.9c-0.3,0-0.5,0.1-0.8,0.1
				c-1.8,0.1-3.5,0.4-5.3,0.6c-0.4,0-1,0.1-1.4,0.1l-9.2,1.1c-5.7,0.6-11,1.2-16.4,2l-3.6,0.4c-1.2,0.2-2.6,0.3-4.1,0.5
				c-1.2,0.2-3.1,0.4-5,0.7l-3.7,0.5c-6,0.8-12,1.6-17.8,2.4l-1.6,0.2c-2.6,0.3-5.2,0.7-7.8,1.1l-1.6,0.2c-0.4,0.1-0.7,0.1-1.2,0.2
				c-8,1.1-16,2.3-24,3.5c-0.8,0.1-1.4,0.2-1.9,0.3c-0.6,0.1-1.2,0.2-1.9,0.3l-5.8,0.8c-2.6,0.4-5.3,0.8-7.9,1.3l-13.7,2.2
				c-6.6,1-13,2.1-19.5,3.2l-2,0.3c-0.9,0.2-1.9,0.3-2.8,0.5c-0.5,0.1-0.9,0.2-1.4,0.3c-5.5,0.9-11,1.8-16.5,2.9l-6.9,1.2
				c-3,0.5-5.7,1-8.4,1.6c-0.3,0.1-0.5,0.1-0.8,0.2c-4.6,0.8-9.3,1.7-13.9,2.5c-0.7,1.8-1.4,3.6-2,5.4c-11.4,29.9-22.3,60.5-32.3,91
				l-5.8,17.8C1408.6,991.7,1408.3,992.6,1408,993.5z M1745.9,2951.4c-0.2-0.1-0.4-0.1-0.6-0.1
				C1745.5,2951.3,1745.7,2951.3,1745.9,2951.4z M1750.4,2953.2C1750.4,2953.1,1750.4,2953.1,1750.4,2953.2
				C1750.4,2953.1,1750.4,2953.1,1750.4,2953.2z M2409.6,2877.6C2409.6,2877.6,2409.6,2877.6,2409.6,2877.6
				C2409.6,2877.6,2409.6,2877.6,2409.6,2877.6z M2411.5,2874.7C2411.5,2874.7,2411.4,2874.7,2411.5,2874.7
				C2411.4,2874.7,2411.5,2874.7,2411.5,2874.7z M2350.1,859.1C2350,859.1,2350,859.1,2350.1,859.1
				C2350,859.1,2350,859.1,2350.1,859.1z"/>
		</g>
		<g>
			<path class="st4" d="M1632.4,3121.9c-12.3-18.7-21.3-39.7-26.2-62.4l-27.5-127.9c-2.2-10.1,4.3-20.1,14.4-22.3
				c10.1-2.2,20.2,4.3,22.3,14.4l27.5,127.9c11.1,51.3,48.7,92.5,98.3,107.6c163.6,49.8,336.9,53.4,501.1,10.5
				c49.6-12.9,87.6-52.4,99.3-103l29.2-126.7c2.3-10.1,12.4-16.4,22.5-14.1c10.1,2.3,16.4,12.4,14.1,22.5l-29.2,126.7
				c-14.8,64.3-63.2,114.4-126.4,130.9c-170.9,44.6-351.3,40.8-521.5-10.9C1689.6,3182.8,1655.2,3156.5,1632.4,3121.9z"/>
		</g>
		<g class="st3">
			<path class="st2" d="M2070.5,280.6c97.4,58.1,275.8,312.4,217.1,393C2231.8,750.2,1973.1,222.5,2070.5,280.6z"/>
		</g>
		<g>
			
				<ellipse transform="matrix(0.9147 -0.4042 0.4042 0.9147 -486.3368 937.2621)" class="st0" cx="1976.8" cy="1620.6" rx="371.6" ry="378.7"/>
		</g>
		<g class="st1">
			<path class="st2" d="M2065.1,1988.8c-10.8,2-21.5,3.5-32.3,4.5c184-50.8,300.1-237.2,262.7-431.4
				c-37.4-194.3-214.9-326.8-405.2-308.9c10.4-2.9,21-5.3,31.7-7.3c202.1-37.1,397.9,99.2,437.4,304.4
				C2398.9,1755.3,2267.1,1951.7,2065.1,1988.8z"/>
		</g>
		<g class="st13">
			<path class="st14" d="M2048.2,1991.9c-202.1,37.1-397.9-99.2-437.3-304.3c-39.5-205.2,92.3-401.6,294.4-438.8
				c11.3-2.1,22.4-3.6,33.6-4.6c-183.1,51.3-298.6,237.3-261.3,431.1c37.3,193.8,214,326.1,403.7,308.9
				C2070.4,1987.3,2059.5,1989.9,2048.2,1991.9z"/>
		</g>
		<g>
			<path class="st4" d="M1650.5,1838.1c-28.6-43.2-49.3-92.7-59.7-146.7c-20.4-105.8,1.5-212.5,61.6-300.4
				c58.7-85.9,147.2-143.5,249.1-162.2c212.7-39.1,419.5,104.7,461,320.6c20.4,105.8-1.5,212.5-61.6,300.4
				c-58.7,85.9-147.2,143.5-249.1,162.2C1892.4,2041.3,1736.2,1967.7,1650.5,1838.1z M2268.9,1425.1
				c-76.9-116.4-216.9-182.4-359.9-156.2c-91.2,16.7-170.3,68.3-222.8,145.1c-53.9,78.9-73.5,174.6-55.2,269.7
				c37.3,193.9,222.9,323.2,413.6,288.2c91.2-16.7,170.3-68.3,222.8-145.1c53.9-78.9,73.5-174.6,55.2-269.7
				C2313.2,1508.5,2294.6,1464,2268.9,1425.1z"/>
		</g>
		<g>
			<path class="st15" d="M2021.3,1852.3c-75.6,13.9-149.8-11.2-202.4-61c-29.4-27.8-52-63.4-64.5-104.3c-2.4-8-4.5-16.2-6.1-24.6
				c-2.5-13.1-3.9-26.1-4.2-39c-1.2-43.6,9.6-85.5,30-121.6c32.3-57.4,88.4-100.4,157.9-113.2c69.5-12.8,137.9,7.4,189.3,49.4
				c32.3,26.5,58,61.6,73.1,102.7c4.5,12.1,8,24.7,10.6,37.8c1.6,8.4,2.8,16.8,3.5,25.1c3.6,42.5-4.2,83.7-21.2,120
				C2156.8,1788.7,2097,1838.4,2021.3,1852.3z"/>
		</g>
		<g>
			<g>
				<defs>
					<polygon id="SVGID_1_" points="3372.4,-2009.1 3373.3,-2007.9 3371.2,-2008.3 					"/>
				</defs>
				<defs>
					<polygon id="SVGID_00000039120481948318546120000016522596914332780941_" points="3373.3,-2013.3 3372.5,-2014.6 
						3374.6,-2014.2 					"/>
				</defs>
				<clipPath id="SVGID_00000120551705961438494980000014981445113969569694_">
					<use xlink:href="#SVGID_1_"  style="overflow:visible;"/>
				</clipPath>
				
					<clipPath id="SVGID_00000049218456857492123380000008264893990062709679_" style="clip-path:url(#SVGID_00000120551705961438494980000014981445113969569694_);">
					<use xlink:href="#SVGID_00000039120481948318546120000016522596914332780941_"  style="overflow:visible;"/>
				</clipPath>
				<defs>
					<filter id="Adobe_OpacityMaskFilter" filterUnits="userSpaceOnUse" x="1802.8" y="1391.5" width="401.4" height="328.2">
						<feColorMatrix  type="matrix" values="1 0 0 0 0  0 1 0 0 0  0 0 1 0 0  0 0 0 1 0"/>
					</filter>
				</defs>
				
					<mask maskUnits="userSpaceOnUse" x="1802.8" y="1391.5" width="401.4" height="328.2" id="SVGID_00000021825767442414842850000007689475591395280571_">
					<g class="st17">
						<g>
							<defs>
								<polygon id="SVGID_00000050648070723095555390000006167694948532729000_" points="3372.4,-2009.1 3373.3,-2007.9 
									3371.2,-2008.3 								"/>
							</defs>
							<defs>
								<polygon id="SVGID_00000077303597142611442740000010050320366932953522_" points="3373.3,-2013.3 3372.5,-2014.6 
									3374.6,-2014.2 								"/>
							</defs>
							
								<clipPath id="SVGID_00000121258287766964946150000001272980351426450089_" style="clip-path:url(#SVGID_00000049218456857492123380000008264893990062709679_);">
								<use xlink:href="#SVGID_00000050648070723095555390000006167694948532729000_"  style="overflow:visible;"/>
							</clipPath>
							
								<clipPath id="SVGID_00000170966044249512781010000005501668234268314558_" style="clip-path:url(#SVGID_00000121258287766964946150000001272980351426450089_);">
								<use xlink:href="#SVGID_00000077303597142611442740000010050320366932953522_"  style="overflow:visible;"/>
							</clipPath>
							
								<linearGradient id="SVGID_00000129899290039869585450000005144796093486676372_" gradientUnits="userSpaceOnUse" x1="1891.4612" y1="1986.5356" x2="1890.6586" y2="1757.7577" gradientTransform="matrix(-0.5643 0.8256 0.8256 0.5643 1536.1547 -1083.8097)">
								<stop  offset="0" style="stop-color:#FFFFFF"/>
								<stop  offset="1" style="stop-color:#000000"/>
							</linearGradient>
							
								<path style="clip-path:url(#SVGID_00000170966044249512781010000005501668234268314558_);fill:url(#SVGID_00000129899290039869585450000005144796093486676372_);" d="
								M2183.4,1719.6l-380.6-264.9c29.6-31.3,66.6-52.7,106.4-63.3l293.5,204.3C2207.4,1637.3,2201.3,1680.2,2183.4,1719.6z"/>
						</g>
					</g>
				</mask>
				
					<linearGradient id="SVGID_00000083775377585608006950000006220132303780349081_" gradientUnits="userSpaceOnUse" x1="1891.4612" y1="1986.5356" x2="1890.6586" y2="1757.7577" gradientTransform="matrix(-0.5643 0.8256 0.8256 0.5643 1536.1547 -1083.8097)">
					<stop  offset="0" style="stop-color:#FFFFFF"/>
					<stop  offset="1" style="stop-color:#000000"/>
				</linearGradient>
				
					<path style="clip-path:url(#SVGID_00000049218456857492123380000008264893990062709679_);mask:url(#SVGID_00000021825767442414842850000007689475591395280571_);fill:url(#SVGID_00000083775377585608006950000006220132303780349081_);" d="
					M2183.4,1719.6l-380.6-264.9c29.6-31.3,66.6-52.7,106.4-63.3l293.5,204.3C2207.4,1637.3,2201.3,1680.2,2183.4,1719.6z"/>
			</g>
		</g>
		
			<linearGradient id="SVGID_00000052782804472516682220000006323972654246189447_" gradientUnits="userSpaceOnUse" x1="1891.4612" y1="1986.5356" x2="1890.6586" y2="1757.7577" gradientTransform="matrix(-0.5643 0.8256 0.8256 0.5643 1536.1547 -1083.8097)">
			<stop  offset="0" style="stop-color:#FFFFFF"/>
			<stop  offset="1" style="stop-color:#FFFFFF"/>
		</linearGradient>
		<path style="opacity:0.7;fill:url(#SVGID_00000052782804472516682220000006323972654246189447_);enable-background:new    ;" d="
			M2183.4,1719.6l-380.6-264.9c29.6-31.3,66.6-52.7,106.4-63.3l293.5,204.3C2207.4,1637.3,2201.3,1680.2,2183.4,1719.6z"/>
		<g>
			<g>
				<defs>
					<polygon id="SVGID_00000093173246465399170070000014281499113259782066_" points="3372.4,-2009.1 3373.3,-2007.9 
						3371.2,-2008.3 					"/>
				</defs>
				<defs>
					<polygon id="SVGID_00000092432462202711766180000007895902307484598206_" points="3373.3,-2013.3 3372.5,-2014.6 
						3374.6,-2014.2 					"/>
				</defs>
				<clipPath id="SVGID_00000034797074388080461530000005291680070193924229_">
					<use xlink:href="#SVGID_00000093173246465399170070000014281499113259782066_"  style="overflow:visible;"/>
				</clipPath>
				
					<clipPath id="SVGID_00000176750602128825953580000013919008286038902413_" style="clip-path:url(#SVGID_00000034797074388080461530000005291680070193924229_);">
					<use xlink:href="#SVGID_00000092432462202711766180000007895902307484598206_"  style="overflow:visible;"/>
				</clipPath>
				<defs>
					
						<filter id="Adobe_OpacityMaskFilter_00000096049755215163614440000000684347905947593095_" filterUnits="userSpaceOnUse" x="1739" y="1506.5" width="410.6" height="335.5">
						<feColorMatrix  type="matrix" values="1 0 0 0 0  0 1 0 0 0  0 0 1 0 0  0 0 0 1 0"/>
					</filter>
				</defs>
				
					<mask maskUnits="userSpaceOnUse" x="1739" y="1506.5" width="410.6" height="335.5" id="SVGID_00000143594819681649012720000004395649820225230234_">
					<g style="filter:url(#Adobe_OpacityMaskFilter_00000096049755215163614440000000684347905947593095_);">
						<g>
							<defs>
								<polygon id="SVGID_00000030483670741807120090000002435352764156147119_" points="3372.4,-2009.1 3373.3,-2007.9 
									3371.2,-2008.3 								"/>
							</defs>
							<defs>
								<polygon id="SVGID_00000155863192539207923020000014346951501724888200_" points="3373.3,-2013.3 3372.5,-2014.6 
									3374.6,-2014.2 								"/>
							</defs>
							
								<clipPath id="SVGID_00000170978118542835107540000010402902431910884776_" style="clip-path:url(#SVGID_00000176750602128825953580000013919008286038902413_);">
								<use xlink:href="#SVGID_00000030483670741807120090000002435352764156147119_"  style="overflow:visible;"/>
							</clipPath>
							
								<clipPath id="SVGID_00000167385276831869429850000017891358010709201065_" style="clip-path:url(#SVGID_00000170978118542835107540000010402902431910884776_);">
								<use xlink:href="#SVGID_00000155863192539207923020000014346951501724888200_"  style="overflow:visible;"/>
							</clipPath>
							
								<linearGradient id="SVGID_00000168810734114638210710000014700997768138957718_" gradientUnits="userSpaceOnUse" x1="2067.5964" y1="1987.5348" x2="2066.7874" y2="1756.848" gradientTransform="matrix(-0.5643 0.8256 0.8256 0.5643 1536.1547 -1083.8097)">
								<stop  offset="0" style="stop-color:#FFFFFF"/>
								<stop  offset="1" style="stop-color:#000000"/>
							</linearGradient>
							
								<path style="clip-path:url(#SVGID_00000167385276831869429850000017891358010709201065_);fill:url(#SVGID_00000168810734114638210710000014700997768138957718_);" d="
								M2050.5,1842l-311.3-216.7c-1.7-40.5,6.9-81.5,26.6-118.9l383.8,267.1C2122.5,1805.8,2088.1,1828.9,2050.5,1842z"/>
						</g>
					</g>
				</mask>
				
					<linearGradient id="SVGID_00000014633007534899173170000016738322031949813381_" gradientUnits="userSpaceOnUse" x1="2067.5964" y1="1987.5348" x2="2066.7874" y2="1756.848" gradientTransform="matrix(-0.5643 0.8256 0.8256 0.5643 1536.1547 -1083.8097)">
					<stop  offset="0" style="stop-color:#FFFFFF"/>
					<stop  offset="1" style="stop-color:#000000"/>
				</linearGradient>
				
					<path style="clip-path:url(#SVGID_00000176750602128825953580000013919008286038902413_);mask:url(#SVGID_00000143594819681649012720000004395649820225230234_);fill:url(#SVGID_00000014633007534899173170000016738322031949813381_);" d="
					M2050.5,1842l-311.3-216.7c-1.7-40.5,6.9-81.5,26.6-118.9l383.8,267.1C2122.5,1805.8,2088.1,1828.9,2050.5,1842z"/>
			</g>
		</g>
		
			<linearGradient id="SVGID_00000135683070755559933890000015356809504531691392_" gradientUnits="userSpaceOnUse" x1="2067.5964" y1="1987.5348" x2="2066.7874" y2="1756.848" gradientTransform="matrix(-0.5643 0.8256 0.8256 0.5643 1536.1547 -1083.8097)">
			<stop  offset="0" style="stop-color:#FFFFFF"/>
			<stop  offset="1" style="stop-color:#FFFFFF"/>
		</linearGradient>
		<path style="opacity:0.7;fill:url(#SVGID_00000135683070755559933890000015356809504531691392_);enable-background:new    ;" d="
			M2050.5,1842l-311.3-216.7c-1.7-40.5,6.9-81.5,26.6-118.9l383.8,267.1C2122.5,1805.8,2088.1,1828.9,2050.5,1842z"/>
		<g>
			<path class="st4" d="M1770.9,1757.7c-18-27.3-31.1-58.4-37.6-92.5c-12.8-66.7,1-134,38.8-189.5c37-54.2,92.9-90.5,157.2-102.4
				c134.2-24.6,264.6,66.1,290.8,202.2c12.8,66.7-1,134-38.9,189.5c-37,54.2-92.9,90.5-157.2,102.4
				C1923.5,1885.9,1825,1839.5,1770.9,1757.7z M2156.8,1500c-47.4-71.8-133.8-112.5-221.9-96.3c-56.2,10.3-105,42.1-137.3,89.5
				c-33.2,48.6-45.3,107.7-34,166.3c23,119.6,137.4,199.3,255,177.7l0,0c56.2-10.3,105-42.1,137.3-89.4
				c33.2-48.6,45.3-107.7,34-166.3C2184.2,1551.4,2172.7,1524,2156.8,1500z"/>
		</g>
		<g>
			<g>
				<path class="st0" d="M2121,3467.9c0,0,151.6,115.9-81.5,413.7c-11,14-31.9,14.1-43.4,0.2c-61.5-74.7-220.6-292.7-94.5-412.6
					L2121,3467.9z"/>
			</g>
			<g>
				<path class="st6" d="M2089.2,3467.4c0,0,107.6,82.3-58.5,293.6c-7.3,9.3-21.2,9.3-28.8,0.2c-42.7-51.7-157.6-207.5-67.8-292.8
					L2089.2,3467.4z"/>
			</g>
			<g>
				<path class="st7" d="M2063.8,3459.2c0,0,72.6,55.5-39.5,198.1c-4.9,6.2-14.3,6.3-19.4,0.1c-28.8-34.9-106.3-140-45.7-197.6
					L2063.8,3459.2z"/>
			</g>
			<g>
				<path class="st4" d="M1922.6,3812.7c-69.8-105.7-137-258.1-33.4-356.5c3.3-3.2,7.7-4.9,12.3-5l219.4-1.4c4,0,7.9,1.3,11,3.7
					c1.8,1.4,44.3,34.7,53.7,108.1c11.8,92.6-32.6,204-132,330.9c-8.6,10.9-21.4,17.3-35.3,17.5c-14,0.2-27.2-6-36.2-16.9
					C1965.2,3872.6,1943.8,3844.8,1922.6,3812.7z M1909.1,3487.2c-106.7,111.8,49.8,321,100.9,383.2c2.7,3.3,6.1,3.8,7.9,3.8
					c1.7,0,4.9-0.5,7.4-3.7c197.6-252.5,110.7-363.1,88.9-384.5L1909.1,3487.2z"/>
			</g>
		</g>
		<g>
			<path class="st8" d="M1918.4,3328.8c-38.4,53.8-38.1,118.8-38.1,118.8s46.4,27.2,143.3,28.1c96.8,0.9,143-25.4,143-25.4
				s-0.3-65-39.2-119.5L1918.4,3328.8z"/>
		</g>
		<g>
			<path class="st4" d="M1864.6,3458c-2-3-3.1-6.6-3.1-10.3c0-2.9,0.1-71.7,41.6-129.8c6-8.4,17.8-10.4,26.2-4.4
				c8.4,6,10.4,17.8,4.4,26.2c-25.1,35.2-32,76.5-33.9,96.3c17.6,7.2,58.7,20.3,124,20.9c64.6,0.6,105.4-11.5,123.2-18.4
				c-2.1-19.9-9.4-61.2-34.9-96.8c-6-8.5-4.1-20.2,4.4-26.2c8.4-6,20.2-4.1,26.2,4.4c41.7,58.9,42.7,127.5,42.7,130.4
				c0,6.8-3.6,13.1-9.5,16.4c-2.1,1.2-51.7,28.8-152.5,27.8c-100.7-0.9-150.5-29.4-152.6-30.6
				C1868.3,3462.4,1866.2,3460.3,1864.6,3458z"/>
		</g>
		<g>
			<path class="st0" d="M1840.6,3289.4c24.8,110,152.6,108,182.6,108.3c30.1,0.3,157.9,4.7,181.7-104.9
				c24-110.8-14.5-587.6-184.9-589.2C1849.5,2702.1,1815.5,3178.2,1840.6,3289.4z"/>
		</g>
		<g class="st1">
			<path class="st2" d="M2051.5,3397.4c43.5-10.4,90.3-35.9,103.8-97.9c23.4-108-12.6-563.7-172.2-588.1c11.5-5.1,23.8-7.8,36.9-7.7
				c170.5,1.6,209,478.4,184.9,589.2C2185.9,3380.4,2100.4,3395.2,2051.5,3397.4z"/>
		</g>
		<g class="st3">
			<path class="st4" d="M1883.5,3288.8c19.6,86.8,103.1,103.9,152.3,107.3c-15.1-15.1-27-35-32.9-61.5
				c-21.7-96,0.7-463.5,116.7-561.6c-22.1-35.3-48.7-59.7-80.2-67.1C1889.3,2746.3,1859.6,3182.9,1883.5,3288.8z"/>
		</g>
		<g>
			<path class="st4" d="M1839.2,3345.5c-11-16.6-17.6-34.3-21.3-51c-19.7-87.4-7-426.5,100.7-560c29.3-36.3,63.5-54.5,101.6-54.1
				c38.2,0.4,72.5,19.3,102.1,56.3c108.4,135.8,124.2,474.3,105.4,561.1c-12.4,57.2-57.6,125-202.2,123.2l-4.9,0
				C1918.5,3420.3,1865.8,3385.9,1839.2,3345.5z M2096.7,2780.7c-3.5-5.3-7.1-10.2-10.8-14.9c-20.7-25.9-42.3-38.6-66.1-38.8
				c-23.5-0.2-44.7,11.8-64.9,36.8c-90.9,112.6-111.8,430.8-91.5,520.5c0,0,0,0,0,0c13.5,60,65.1,89.5,157.6,90.1l5.1,0.1
				c92.2,1.1,143.2-27.2,156.1-86.5C2200.7,3202.5,2179.5,2905.9,2096.7,2780.7z"/>
		</g>
		<g>
			<path class="st4" d="M1824.3,3121.8c-2.3-3.5-3-7.9-1.6-12.2c2.4-7.4,10.4-11.4,17.8-9c119,39.1,244.6,40.3,363.2,3.5
				c7.3-2.3,15.1,1.7,17.6,9c2.4,7.3-1.4,15.2-8.7,17.7c-124.8,38.8-256.3,37.5-380.9-3.4C1828.5,3126.4,1826,3124.3,1824.3,3121.8z
				"/>
		</g>
	</g>
</g>
</svg>
