<?xml version="1.0" encoding="utf-8"?>
<!-- Generator: Adobe Illustrator 26.0.0, SVG Export Plug-In . SVG Version: 6.00 Build 0)  -->
<svg version="1.1" id="Camada_1" xmlns="http://www.w3.org/2000/svg" xmlns:xlink="http://www.w3.org/1999/xlink" x="0px" y="0px"
	 viewBox="0 0 800 463.3" style="enable-background:new 0 0 800 463.3;" xml:space="preserve">
<style type="text/css">
	.st0{fill:#1E4857;}
	.st1{fill:#194150;}
	.st2{fill:#E81818;}
	.st3{opacity:0.7;}
	.st4{fill:#FFFFFF;}
	.st5{opacity:0.3;}
	.st6{fill:#371A45;}
	.st7{opacity:0.2;}
	.st8{fill:#E7A900;}
	.st9{fill:#FFFD01;}
	.st10{fill:#E2E8E8;}
	.st11{fill:#E5E5E5;}
	.st12{fill:#C93535;}
	.st13{fill:#D1D1D1;}
	.st14{opacity:0.5;}
	.st15{opacity:0.25;}
	.st16{fill:#000072;}
	.st17{fill:#22A7F0;}
	.st18{clip-path:url(#SVGID_00000151540830551376380820000011592276429883298969_);}
	.st19{filter:url(#Adobe_OpacityMaskFilter);}
	.st20{clip-path:url(#SVGID_00000152238959381395267540000003004468210868754332_);}
	.st21{clip-path:url(#SVGID_00000041262271975430467740000008126161446695790750_);}
	.st22{clip-path:url(#SVGID_00000125572907988076316240000003761260774856072117_);}
	.st23{clip-path:url(#SVGID_00000072268456095609347330000011643259081887254932_);}
	.st24{clip-path:url(#SVGID_00000034804173837898624680000010411342131406448045_);}
	.st25{clip-path:url(#SVGID_00000001630723827002875180000014812941915117765766_);}
	.st26{clip-path:url(#SVGID_00000176747677204661246200000007477854809253318815_);}
	.st27{clip-path:url(#SVGID_00000034800119379736676120000016263763157272694971_);}
	.st28{clip-path:url(#SVGID_00000175313961096129419860000000087283290220790699_);}
	.st29{clip-path:url(#SVGID_00000111901840593091305720000004030848360752457895_);}
	.st30{clip-path:url(#SVGID_00000145043789201953906780000017244418866118330762_);}
	.st31{clip-path:url(#SVGID_00000155837355964317145110000001337964314453630616_);}
	.st32{clip-path:url(#SVGID_00000019641462262501883420000002640287268457275034_);}
	.st33{clip-path:url(#SVGID_00000181799226117928768270000004757165971704295565_);}
	.st34{clip-path:url(#SVGID_00000106123515823265968840000009423824368156767388_);}
	.st35{clip-path:url(#SVGID_00000047062024973367430620000015074341356509297282_);}
	.st36{clip-path:url(#SVGID_00000063626498940763106180000003228506763412960153_);}
	.st37{clip-path:url(#SVGID_00000121238948200547135400000012998076659743920034_);}
	.st38{clip-path:url(#SVGID_00000072993372821163115130000017802905406777507242_);}
	.st39{clip-path:url(#SVGID_00000053535744370524347700000009010713746263836351_);}
	.st40{clip-path:url(#SVGID_00000156567596342091904320000012709116727113177276_);}
	.st41{clip-path:url(#SVGID_00000173120872704404467780000014730325554079978153_);}
	.st42{clip-path:url(#SVGID_00000065779403294091477920000012506767895483529127_);}
	.st43{clip-path:url(#SVGID_00000062183558077883904210000013403033826817525399_);}
	.st44{clip-path:url(#SVGID_00000152969683504057504810000003730499459062927035_);}
	
		.st45{clip-path:url(#SVGID_00000052798250417777582710000015556556738626492553_);fill:url(#SVGID_00000099658250123894563260000009787156665827660696_);}
	
		.st46{clip-path:url(#SVGID_00000152238959381395267540000003004468210868754332_);mask:url(#SVGID_00000152266028073578909660000001971376621656137644_);fill:url(#SVGID_00000018231197330962300650000015641898767172239250_);}
	.st47{opacity:0.7;fill:url(#SVGID_00000166647751334489782730000009515748365038569907_);enable-background:new    ;}
	.st48{clip-path:url(#SVGID_00000048482002073986986410000011534759878030663069_);}
	.st49{filter:url(#Adobe_OpacityMaskFilter_00000163054046237899113670000004503179447495881146_);}
	.st50{clip-path:url(#SVGID_00000183948812963977464550000013483625310063897531_);}
	.st51{clip-path:url(#SVGID_00000093869628070084793550000007013695239546408852_);}
	.st52{clip-path:url(#SVGID_00000159451964522619037550000013029917931999953846_);}
	.st53{clip-path:url(#SVGID_00000182522913085707271330000013981071007194089600_);}
	.st54{clip-path:url(#SVGID_00000138553648666680914900000015103626810039009978_);}
	.st55{clip-path:url(#SVGID_00000048474336491434532060000007914874566903498915_);}
	.st56{clip-path:url(#SVGID_00000055691053180888169180000008788632003409233538_);}
	.st57{clip-path:url(#SVGID_00000085969998197039858390000008754706725647021722_);}
	.st58{clip-path:url(#SVGID_00000099645137938534828120000011386742919078509466_);}
	.st59{clip-path:url(#SVGID_00000065764729062089506100000013400452247166027699_);}
	.st60{clip-path:url(#SVGID_00000113334098761018039350000016887396392792414606_);}
	.st61{clip-path:url(#SVGID_00000170245762360948543280000017100808722360646300_);}
	.st62{clip-path:url(#SVGID_00000158030207492094107490000014077368027953719436_);}
	.st63{clip-path:url(#SVGID_00000170956668708291483330000011786655169277025955_);}
	.st64{clip-path:url(#SVGID_00000082327646762784751660000007780262023655317687_);}
	.st65{clip-path:url(#SVGID_00000047060231708134903550000006318096797428202638_);}
	.st66{clip-path:url(#SVGID_00000152961567775201775380000004046111616516329911_);}
	.st67{clip-path:url(#SVGID_00000003077468777643096940000010053487120541308586_);}
	.st68{clip-path:url(#SVGID_00000085234601410898310980000008634373097708801963_);}
	.st69{clip-path:url(#SVGID_00000132785249912891417360000009263878259857503368_);}
	.st70{clip-path:url(#SVGID_00000088819399009285228230000012831942497797588374_);}
	.st71{clip-path:url(#SVGID_00000176027855939852844340000011824209759403993473_);}
	.st72{clip-path:url(#SVGID_00000015321689551739183400000008080957769039778237_);}
	.st73{clip-path:url(#SVGID_00000115514323922186607520000013437533542997618318_);}
	.st74{clip-path:url(#SVGID_00000028299471562219504250000007808576285050813085_);}
	
		.st75{clip-path:url(#SVGID_00000094598302027691147910000007215170081462729898_);fill:url(#SVGID_00000056427227901978623600000000108353591995022503_);}
	
		.st76{clip-path:url(#SVGID_00000183948812963977464550000013483625310063897531_);mask:url(#SVGID_00000005257603598619971420000011757298475844570046_);fill:url(#SVGID_00000023266732921298805200000002217123275244053172_);}
	.st77{opacity:0.7;fill:url(#SVGID_00000082330919689825560360000000238638130024553919_);enable-background:new    ;}
</style>
<path class="st0" d="M-281-7.7"/>
<polygon class="st1" points="436.5,152 488,383.7 389,398.3 329.9,383.7 399.9,152 "/>
<path class="st1" d="M823.8,242.3c9.7-7.4,15.8-18.6,15.8-31.2c0-11.7-5.3-22.2-13.8-29.6c16.2-11.1,26.7-29,26.7-49.3
	c0-33.7-28.9-61-64.6-61c-35.7,0-64.6,27.3-64.6,61c0,25.1,16.1,46.6,39,56c-4.8,6.5-7.7,14.4-7.7,22.9c0,6.9,1.9,13.4,5.1,19.1
	c-26.8,8.2-46.2,31.9-46.2,59.9c0,1.9,0.1,3.7,0.3,5.6c-17.6,1.8-32,13.7-36.6,29.4c-10.6-10-25.3-16.3-41.5-16.3
	c-21.3,0-40,10.8-50.3,26.9c-13.8-16.2-35-26.6-58.7-26.6c-36.9,0-67.6,25.1-74,58.1c-9.5-8.7-22.4-14.1-36.7-14.1
	c-17,0-32.1,7.6-41.7,19.5c-4-35.4-35.7-62.9-74.2-62.9c-21.4,0-40.7,8.5-54.3,22.1c-12.7-15.7-32.7-25.9-55.2-25.9
	c-14.5,0-28,4.2-39.2,11.4c-8.7-10.8-22-18.2-37.4-19.6c-4.6-0.4-9.2-0.3-13.6,0.4c-4.4-23.6-22.5-42.7-46.3-49.6
	c7.1-8.2,11.3-18.7,11.3-30.1c0-18.3-11-34.2-27-42.2c3.8-5.7,6-12.4,6-19.5c0-20.1-17.3-36.5-38.7-36.5S-33,136.5-33,156.7
	c0,10.8,5,20.5,12.9,27.2c-9.7,8.7-15.8,21-15.8,34.6c0,18.3,10.9,34.1,26.8,42.2c-14.6,11.6-24,29-24,48.5
	c0,35,30.1,63.3,67.1,63.3c9,0,17.6-1.7,25.5-4.7c7.4,16.4,23.9,28.5,44,30.3c7.8,0.7,15.4-0.2,22.4-2.5
	c10.2,24.1,35.2,41.1,64.3,41.1c18.3,0,34.9-6.7,47.3-17.6c13.4,19,36.3,31.6,62.3,31.6c27.9,0,52.2-14.4,65-35.8
	c5.7,21.5,26.4,37.5,51,37.5c22.3,0,41.3-13.1,49-31.6c13.6,18.4,36.2,30.4,61.8,30.4c32.1,0,59.5-19,70.3-45.6
	c10.3,8.6,23.8,13.8,38.7,13.8c30.6,0,55.7-22.1,58.3-50.4c6.9,4.5,15.3,7.2,24.4,7.2c18.4,0,34.1-11,40.1-26.4
	c6.8,2.2,14.1,3.4,21.7,3.4c36.9,0,66.8-28.2,66.8-63C847.1,271,838,253.8,823.8,242.3z"/>
<path class="st0" d="M892.9,371c0-33.1-28.2-59.9-63-59.9c-23.8,0-44.5,12.5-55.2,31.1c-8-5.1-17.7-8-28-8
	c-26.8,0-48.8,19.8-50.7,44.8c-9.2-5-19.9-8-31.4-8c-14.5,0-27.8,4.7-38.4,12.5c-16.2-18.8-40.8-30.8-68.3-30.8
	c-37.3,0-69.2,22-82.1,53.1c-5.4-1.5-11.2-2.3-17.1-2.3c-26.8,0-49.6,16.1-58.2,38.7c-7-25.2-31.1-43.8-59.9-43.8
	c-0.6,0-1.2,0-1.9,0c-8.6-27.1-35.1-46.9-66.4-46.9c-16.4,0-31.5,5.4-43.4,14.5c-12-15.2-31.1-25-52.6-25
	c-16.4,0-31.3,5.7-42.8,15.1c-10.7-7.9-24.1-12.6-38.7-12.6c-21.8,0-41.1,10.6-52.4,26.6c-11.5-16.8-31.4-28-54.1-28
	c-35.6,0-64.5,27.4-64.5,61.3c0,29.7,22.3,54.5,51.8,60.1l0,0H828l4.9-32.7C866.3,429.3,892.9,403.1,892.9,371z"/>
<path class="st0" d="M-332-183.7"/>
<g>
	<g>
		<g>
			<path class="st2" d="M377.8,111.9c-2.5,1.7-3.9,4.5-3.9,7.5c0.1,9.5,1.2,18.7,3.6,27.4c0.4,1.4,0.9,2.9,1.4,4.3
				c1.4,2.3,2.6,2.6,3.6,0.5l2.3-16.7c0.3-2.1,1.6-4,3.5-5c2.3-1.1,5.3-1.8,8.5-2.4l-5.5-20.2c-2.7,0.5-5.6,1.2-8.3,2.1
				C381.1,110.1,379.3,110.9,377.8,111.9z"/>
		</g>
		<g class="st3">
			<path class="st4" d="M383,109.4c2.7-1,5.6-1.7,8.3-2.1l0.4,1.6c-2.1,0.4-4.2,1-6.2,1.7c-1.9,0.7-3.7,1.5-5.2,2.5
				c-2.5,1.7-3.9,4.5-3.9,7.5c0.1,9.5,1.2,18.7,3.6,27.4c0.4,1.4,0.9,2.9,1.4,4.3c0.1,0.1,0.2,0.3,0.2,0.4c-0.8,0.7-1.8,0.1-2.8-1.6
				c-0.5-1.4-1-2.9-1.4-4.3c-2.5-8.7-3.6-17.8-3.6-27.4c0-3,1.4-5.8,3.9-7.5C379.3,110.9,381.1,110.1,383,109.4z"/>
		</g>
		<g class="st5">
			<path class="st6" d="M383,109.4c1.7,10.3,0.1,23.3-5.5,37.4c0.4,1.5,0.9,2.9,1.4,4.3c1.4,2.3,2.6,2.6,3.6,0.5l2.3-16.7
				c0.3-2.1,1.6-4,3.5-5c2.3-1.1,5.3-1.8,8.5-2.4l-5.5-20.2C388.6,107.7,385.7,108.4,383,109.4z"/>
		</g>
		<g>
			<path class="st6" d="M378.2,152c-0.1-0.1-0.2-0.3-0.3-0.4c0-0.1-0.1-0.1-0.1-0.2c-3.3-9.5-5-20-5.1-32c0-3.4,1.6-6.5,4.4-8.4
				c4.1-2.7,9.8-4.1,13.9-4.8c0.5-0.1,1,0.2,1.2,0.8l5.5,20.2c0.1,0.3,0,0.6-0.1,0.8c-0.2,0.2-0.4,0.4-0.7,0.5
				c-2.6,0.4-5.9,1.1-8.2,2.3c-1.6,0.8-2.7,2.4-3,4.2l-2.3,16.7c0,0.1,0,0.2-0.1,0.3c-0.6,1.3-1.4,2-2.3,2.1
				C379.8,154.1,378.9,153,378.2,152z M379.8,150.6c0.6,1,1,1.3,1.1,1.3s0.2-0.2,0.5-0.7l2.3-16.6c0.4-2.5,1.9-4.7,4.1-5.8
				c2.2-1.1,5.1-1.8,7.7-2.3l-4.9-18.1c-5.1,1-9.4,2.5-12.2,4.3c-2.2,1.5-3.5,3.9-3.5,6.6C375,131.1,376.6,141.3,379.8,150.6z"/>
		</g>
	</g>
	<g>
		<g>
			<path class="st2" d="M459.3,109.5c2.4,1.8,3.7,4.7,3.5,7.7c-0.6,9.5-2.3,18.6-5.3,27.1c-0.5,1.4-1,2.8-1.6,4.2
				c-1.5,2.2-2.7,2.5-3.6,0.2l-1.3-16.8c-0.2-2.2-1.4-4.1-3.2-5.2c-2.2-1.3-5.1-2.1-8.3-2.9l6.7-19.8c2.7,0.6,5.6,1.5,8.2,2.6
				C456.1,107.4,457.9,108.4,459.3,109.5z"/>
		</g>
		<g class="st3">
			<path class="st4" d="M454.2,106.6c-2.6-1.1-5.5-2-8.2-2.6l-0.5,1.6c2,0.6,4.1,1.2,6.1,2.1c1.9,0.8,3.6,1.8,5.1,2.9
				c2.4,1.8,3.7,4.7,3.5,7.7c-0.6,9.5-2.3,18.6-5.3,27.1c-0.5,1.4-1,2.8-1.6,4.2c-0.1,0.1-0.2,0.2-0.3,0.4c0.8,0.8,1.8,0.2,2.9-1.4
				c0.6-1.4,1.1-2.8,1.6-4.2c3-8.5,4.6-17.6,5.3-27.1c0.2-3-1.1-5.9-3.5-7.7C457.9,108.4,456.1,107.4,454.2,106.6z"/>
		</g>
		<g class="st7">
			<path class="st6" d="M454.2,106.6c-2.3,10.2-1.5,23.2,3.3,37.7c-0.5,1.4-1,2.8-1.6,4.2c-1.5,2.2-2.7,2.5-3.6,0.2l-1.3-16.8
				c-0.2-2.2-1.4-4.1-3.2-5.2c-2.2-1.3-5.1-2.1-8.3-2.9l6.7-19.8C448.8,104.6,451.6,105.5,454.2,106.6z"/>
		</g>
		<g>
			<path class="st6" d="M451.8,150.2c-0.2-0.3-0.4-0.7-0.5-1.1c0-0.1-0.1-0.2-0.1-0.3l-1.3-16.8c-0.1-1.8-1.2-3.5-2.7-4.4
				c-2.3-1.3-5.5-2.2-8-2.7c-0.3-0.1-0.5-0.3-0.7-0.5c-0.1-0.3-0.2-0.6-0.1-0.8l6.7-19.8c0.2-0.5,0.7-0.8,1.2-0.7
				c4.1,0.9,9.7,2.7,13.6,5.7c2.7,2,4.1,5.2,3.9,8.6c-0.8,12-3.1,22.3-7,31.6c0,0.1-0.1,0.1-0.1,0.2c-0.7,1-1.8,2.4-3.3,2.2
				C452.8,151.3,452.3,150.9,451.8,150.2z M453.3,148.5c0.2,0.5,0.4,0.7,0.4,0.7c0.1,0,0.5-0.2,1.2-1.2c3.8-9.1,6-19.2,6.8-30.9
				c0.2-2.7-1-5.2-3.1-6.8c-2.6-2-6.8-3.8-11.9-5.1l-6,17.8c2.5,0.6,5.3,1.4,7.5,2.7c2.1,1.3,3.5,3.5,3.7,6L453.3,148.5z"/>
		</g>
	</g>
	<g>
		<g>
			<g>
				<path class="st2" d="M404.2,158c0,0,6.8,5.2-3.7,18.6c-0.5,0.6-1.4,0.6-1.9,0c-2.8-3.4-9.9-13.1-4.2-18.5L404.2,158z"/>
			</g>
			<g>
				<path class="st8" d="M402.8,158c0,0,4.8,3.7-2.6,13.2c-0.3,0.4-1,0.4-1.3,0c-1.9-2.3-7.1-9.3-3-13.1L402.8,158z"/>
			</g>
			<g>
				<path class="st9" d="M401.6,157.6c0,0,3.3,2.5-1.8,8.9c-0.2,0.3-0.6,0.3-0.9,0c-1.3-1.6-4.8-6.3-2.1-8.9H401.6z"/>
			</g>
			<g>
				<path class="st6" d="M395.3,173.5c-3.1-4.7-6.2-11.6-1.5-16c0.1-0.1,0.3-0.2,0.6-0.2l9.8-0.1c0.2,0,0.4,0.1,0.5,0.2
					s2,1.6,2.4,4.9c0.5,4.2-1.5,9.2-5.9,14.9c-0.4,0.5-1,0.8-1.6,0.8s-1.2-0.3-1.6-0.8C397.2,176.2,396.3,175,395.3,173.5z
					 M394.7,158.9c-4.8,5,2.2,14.4,4.5,17.2c0.1,0.1,0.3,0.2,0.4,0.2s0.2,0,0.3-0.2c5.2-6.7,5.9-11.1,5.6-13.7
					c-0.3-2-1.2-3.2-1.6-3.6L394.7,158.9z"/>
			</g>
		</g>
		<g>
			<path class="st10" d="M395.1,151.8c-1.7,2.4-1.7,5.3-1.7,5.3s2.1,1.2,6.4,1.3c4.3,0,6.4-1.1,6.4-1.1s0-2.9-1.8-5.4L395.1,151.8z"
				/>
		</g>
		<g>
			<path class="st6" d="M392.7,157.6c-0.1-0.1-0.1-0.3-0.1-0.5c0-0.1,0-3.2,1.9-5.8c0.3-0.4,0.8-0.5,1.2-0.2
				c0.4,0.3,0.5,0.8,0.2,1.2c-1.1,1.6-1.4,3.4-1.5,4.3c0.8,0.3,2.6,0.9,5.6,0.9c2.9,0,4.7-0.5,5.5-0.8c-0.1-0.9-0.4-2.8-1.6-4.3
				c-0.3-0.4-0.2-0.9,0.2-1.2c0.4-0.3,0.9-0.2,1.2,0.2c1.9,2.6,1.9,5.7,1.9,5.9c0,0.3-0.2,0.6-0.4,0.7c-0.1,0.1-2.3,1.3-6.8,1.2
				c-4.5,0-6.8-1.3-6.9-1.4C392.9,157.8,392.8,157.7,392.7,157.6z"/>
		</g>
		<g>
			<path class="st2" d="M391.6,150c1.1,4.9,6.9,4.8,8.2,4.9c1.4,0,7.1,0.2,8.2-4.7c1.1-5-0.7-26.4-8.3-26.4
				C392,123.7,390.5,145,391.6,150z"/>
		</g>
		<g class="st3">
			<path class="st4" d="M401.1,154.9c2-0.5,4.1-1.6,4.7-4.4c1.1-4.8-0.6-25.3-7.7-26.4c0.5-0.2,1.1-0.4,1.7-0.3
				c7.7,0.1,9.4,21.5,8.3,26.4C407.1,154.1,403.3,154.8,401.1,154.9z"/>
		</g>
		<g class="st5">
			<path class="st6" d="M393.6,150c0.9,3.9,4.6,4.7,6.8,4.8c-0.7-0.7-1.2-1.6-1.5-2.8c-1-4.3,0-20.8,5.2-25.2c-1-1.6-2.2-2.7-3.6-3
				C393.8,125.6,392.5,145.2,393.6,150z"/>
		</g>
		<g>
			<path class="st6" d="M391.6,152.5c-0.5-0.7-0.8-1.5-1-2.3l0,0c-0.9-3.9-0.3-19.1,4.5-25.1c1.3-1.6,2.9-2.4,4.6-2.4
				s3.3,0.9,4.6,2.5c4.9,6.1,5.6,21.3,4.7,25.2c-0.6,2.6-2.6,5.6-9.1,5.5h-0.2C395.1,155.9,392.8,154.4,391.6,152.5z M403.1,127.2
				c-0.2-0.2-0.3-0.5-0.5-0.7c-0.9-1.2-1.9-1.7-3-1.7s-2,0.5-2.9,1.7c-4.1,5.1-5,19.3-4.1,23.4l0,0c0.6,2.7,2.9,4,7.1,4h0.2
				c4.1,0,6.4-1.2,7-3.9C407.8,146.1,406.8,132.8,403.1,127.2z"/>
		</g>
		<g>
			<path class="st6" d="M390.9,142.5c-0.1-0.2-0.1-0.4-0.1-0.5c0.1-0.3,0.5-0.5,0.8-0.4c5.3,1.8,11,1.8,16.3,0.2h0.1
				c0.3,0,0.7,0.2,0.7,0.6c0,0.3-0.2,0.6-0.5,0.7c-5.6,1.7-11.5,1.7-17.1-0.2C391.1,142.7,391,142.6,390.9,142.5z"/>
		</g>
		<g>
			<g>
				<path class="st2" d="M440.5,157.8c0,0,6.8,5.2-3.7,18.6c-0.5,0.6-1.4,0.6-1.9,0c-2.8-3.4-9.9-13.1-4.2-18.5L440.5,157.8z"/>
			</g>
			<g>
				<path class="st8" d="M439.1,157.8c0,0,4.8,3.7-2.6,13.2c-0.3,0.4-1,0.4-1.3,0c-1.9-2.3-7.1-9.3-3-13.1L439.1,157.8z"/>
			</g>
			<g>
				<path class="st9" d="M437.9,157.5c0,0,3.3,2.5-1.8,8.9c-0.2,0.3-0.6,0.3-0.9,0c-1.3-1.6-4.8-6.3-2.1-8.9H437.9z"/>
			</g>
			<g>
				<path class="st6" d="M431.6,173.3c-3.1-4.7-6.2-11.6-1.5-16c0.1-0.1,0.3-0.2,0.6-0.2l9.8-0.1c0.2,0,0.4,0.1,0.5,0.2
					s2,1.6,2.4,4.9c0.5,4.2-1.5,9.2-5.9,14.9c-0.4,0.5-1,0.8-1.6,0.8s-1.2-0.3-1.6-0.8C433.5,176,432.5,174.8,431.6,173.3z
					 M431,158.7c-4.8,5,2.2,14.4,4.5,17.2c0.1,0.1,0.3,0.2,0.4,0.2s0.2,0,0.3-0.2c5.2-6.7,5.9-11.1,5.6-13.7c-0.3-2-1.2-3.2-1.6-3.6
					L431,158.7z"/>
			</g>
		</g>
		<g>
			<path class="st10" d="M431.4,151.6c-1.7,2.4-1.7,5.3-1.7,5.3s2.1,1.2,6.4,1.3c4.3,0,6.4-1.1,6.4-1.1s0-2.9-1.8-5.4L431.4,151.6z"
				/>
		</g>
		<g>
			<path class="st6" d="M429,157.4c-0.1-0.1-0.1-0.3-0.1-0.5c0-0.1,0-3.2,1.9-5.8c0.3-0.4,0.8-0.5,1.2-0.2s0.5,0.8,0.2,1.2
				c-1.1,1.6-1.4,3.4-1.5,4.3c0.8,0.3,2.6,0.9,5.6,0.9c2.9,0,4.7-0.5,5.5-0.8c-0.1-0.9-0.4-2.8-1.6-4.3c-0.3-0.4-0.2-0.9,0.2-1.2
				c0.4-0.3,0.9-0.2,1.2,0.2c1.9,2.6,1.9,5.7,1.9,5.9c0,0.3-0.2,0.6-0.4,0.7c-0.1,0.1-2.3,1.3-6.8,1.2c-4.5,0-6.8-1.3-6.9-1.4
				C429.1,157.6,429.1,157.5,429,157.4z"/>
		</g>
		<g>
			<path class="st2" d="M427.9,149.8c1.1,4.9,6.9,4.8,8.2,4.9c1.4,0,7.1,0.2,8.2-4.7c1.1-5-0.7-26.4-8.3-26.5
				C428.3,123.5,426.8,144.8,427.9,149.8z"/>
		</g>
		<g class="st3">
			<path class="st4" d="M437.4,154.7c2-0.5,4.1-1.6,4.7-4.4c1.1-4.8-0.6-25.3-7.7-26.4c0.5-0.2,1.1-0.4,1.7-0.3
				c7.7,0.1,9.4,21.5,8.3,26.5C443.4,153.9,439.6,154.6,437.4,154.7z"/>
		</g>
		<g class="st5">
			<path class="st6" d="M429.8,149.8c0.9,3.9,4.6,4.7,6.8,4.8c-0.7-0.7-1.2-1.6-1.5-2.8c-1-4.3,0-20.8,5.2-25.2
				c-1-1.6-2.2-2.7-3.6-3C430.1,125.4,428.8,145,429.8,149.8z"/>
		</g>
		<g>
			<path class="st6" d="M427.8,152.4c-0.5-0.7-0.8-1.5-1-2.3l0,0c-0.9-3.9-0.3-19.1,4.5-25.1c1.3-1.6,2.9-2.4,4.6-2.4
				s3.3,0.9,4.6,2.5c4.9,6.1,5.6,21.3,4.7,25.2c-0.6,2.6-2.6,5.6-9.1,5.5H436C431.4,155.7,429,154.2,427.8,152.4z M439.4,127
				c-0.2-0.2-0.3-0.5-0.5-0.7c-0.9-1.2-1.9-1.7-3-1.7s-2,0.5-2.9,1.7c-4.1,5.1-5,19.3-4.1,23.4l0,0c0.6,2.7,2.9,4,7.1,4h0.2
				c4.1,0,6.4-1.2,7-3.9C444.1,145.9,443.1,132.6,439.4,127z"/>
		</g>
		<g>
			<path class="st6" d="M427.2,142.3c-0.1-0.2-0.1-0.4-0.1-0.5c0.1-0.3,0.5-0.5,0.8-0.4c5.3,1.8,11,1.8,16.3,0.2h0.1
				c0.3,0,0.7,0.2,0.7,0.6c0,0.3-0.2,0.6-0.5,0.7c-5.6,1.7-11.5,1.7-17.1-0.2C427.4,142.5,427.2,142.4,427.2,142.3z"/>
		</g>
		<g>
			<path class="st10" d="M399.3,139.2l1.2,5.7c0.6,2.6,2.5,4.7,5,5.5l0,0c7.5,2.3,15.4,2.4,23,0.5l0,0c2.5-0.7,4.5-2.7,5.1-5.2
				l1.3-5.7L399.3,139.2z"/>
		</g>
		<g>
			<path class="st10" d="M425.5,151.5c-3.4,0.6-6.8,0.8-10.2,0.6c-3.3-0.2-6.5-0.8-9.7-1.8c-2.5-0.8-4.4-2.9-5-5.5l-1.2-5.7
				l16.1,0.3l19.5,0.4l-1.3,5.7c-0.3,1.3-0.9,2.4-1.8,3.3s-2,1.6-3.3,1.9C427.5,151.1,426.5,151.4,425.5,151.5z"/>
		</g>
		<g class="st5">
			<g>
				<path class="st4" d="M418.2,152.2c-0.4,0-0.9,0-1.3,0c3-0.1,6.1-0.6,9-1.3c1.3-0.3,2.4-1,3.3-1.9s1.5-2.1,1.8-3.3l1.3-5.7h1.3
					h1.4l-1.3,5.7c-0.3,1.3-0.9,2.4-1.8,3.3s-2,1.6-3.3,1.9C425.1,151.8,421.6,152.2,418.2,152.2z"/>
			</g>
		</g>
		<g>
			<path class="st4" d="M416.1,13.4c-0.1,0.1-0.3,0.1-0.4,0.2c0,0-0.1,0-0.1,0.1l0,0l-0.1,0.1l-0.1,0.1l-0.1,0.1c0,0,0,0-0.1,0.1
				c0,0,0,0-0.1,0.1l0,0l0,0l0,0l0,0l0,0l0,0c0,0,0,0-0.1,0.1l0,0l0,0l-0.1,0.1c0,0,0,0-0.1,0.1l0,0c0,0,0,0-0.1,0l0,0l0,0l0,0l0,0
				l0,0c0,0-0.1,0-0.1,0.1l0,0l0,0l0,0c0,0,0,0-0.1,0.1l0,0c0,0,0,0-0.1,0.1l0,0l0,0l0,0l-0.1,0.1c0,0-0.1,0.1-0.2,0.1l0,0
				c-0.1,0-0.1,0.1-0.2,0.1c-0.1,0.1-0.1,0.1-0.2,0.2s-0.2,0.1-0.2,0.2l-0.1,0.1l-0.1,0.1l-0.1,0.1l0,0l0,0l0,0l-0.1,0.1l0,0L413,16
				l0,0l0,0c0,0,0,0-0.1,0.1l0,0l0,0c0,0,0,0-0.1,0l0,0l0,0l-0.1,0.1l-0.1,0.1l-0.1,0.1c0,0,0,0-0.1,0.1c0,0,0,0-0.1,0.1l-0.1,0.1
				l0,0l-0.1,0.1l0,0l0,0l-0.1,0.1l-0.1,0.1l0,0l0,0l0,0l0,0l-0.1,0.1l0,0l0,0c0,0-0.1,0.1-0.2,0.2c0,0-0.1,0-0.1,0.1l0,0l0,0
				c-0.1,0.1-0.1,0.1-0.2,0.2l0,0l0,0c0,0,0,0-0.1,0.1l0,0c0,0,0,0-0.1,0.1c0,0-0.1,0-0.1,0.1l0,0c0,0,0,0-0.1,0.1l0,0l0,0l0,0l0,0
				l0,0l0,0l0,0l-0.1,0.1l-0.1,0.1l-0.1,0.1c0,0,0,0-0.1,0.1l0,0l-0.1,0.1c-0.1,0.1-0.1,0.1-0.2,0.2l0,0l0,0c0,0,0,0-0.1,0.1l0,0
				c0,0,0,0-0.1,0.1c0,0,0,0-0.1,0.1l0,0l0,0c-0.1,0.1-0.1,0.1-0.2,0.2l0,0l0,0l0,0l0,0l0,0l-0.1,0.1c0,0,0,0-0.1,0.1l0,0
				c0,0,0,0-0.1,0l0,0l-0.1,0.1l0,0l0,0l-0.1,0.1l0,0l0,0c0,0,0,0-0.1,0.1l0,0l0,0c0,0,0,0-0.1,0.1l0,0l0,0l0,0c0,0,0,0-0.1,0.1l0,0
				l-0.1,0.1c0,0,0,0-0.1,0.1s-0.1,0.1-0.2,0.2c0,0,0,0,0,0.1l0,0c0,0,0,0-0.1,0.1l0,0c0,0,0,0-0.1,0.1c0,0,0,0.1-0.1,0.1
				c-0.1,0.1-0.3,0.3-0.4,0.4l-0.1,0.1l0,0c0,0,0,0.1-0.1,0.1l0,0l0,0l-0.1,0.1c-0.1,0.1-0.1,0.1-0.2,0.2l0,0l-0.1,0.1l-0.1,0.1
				c-0.1,0.1-0.1,0.1-0.2,0.2c0,0-0.1,0.1-0.1,0.2c0,0,0,0.1-0.1,0.1c-0.1,0.1-0.1,0.2-0.2,0.2c0,0.1-0.1,0.1-0.2,0.2c0,0,0,0,0,0.1
				c0,0,0,0.1-0.1,0.1c-0.1,0.1-0.2,0.3-0.3,0.4c-0.1,0.1-0.1,0.2-0.2,0.2l0,0l0,0c0,0.1-0.1,0.1-0.2,0.2l0,0c0,0,0,0,0,0.1
				c-0.1,0.1-0.2,0.2-0.2,0.3c0,0.1-0.1,0.1-0.1,0.2l0,0l0,0c0,0,0,0.1-0.1,0.1l0,0c0,0,0,0.1-0.1,0.1c-0.1,0.2-0.3,0.3-0.4,0.5l0,0
				c0,0.1-0.1,0.1-0.1,0.2c-0.1,0.1-0.2,0.2-0.3,0.4c0,0.1-0.1,0.1-0.1,0.2l0,0c-0.1,0.1-0.1,0.2-0.2,0.3l0,0l0,0
				c0,0.1-0.1,0.1-0.1,0.2l-0.1,0.1c-0.1,0.1-0.1,0.2-0.2,0.2c-0.1,0.2-0.3,0.4-0.4,0.6c0,0,0,0.1-0.1,0.1c0,0,0,0.1-0.1,0.1
				c0,0,0,0-0.1,0.1s-0.1,0.2-0.2,0.3l0,0l0,0l0,0c0,0.1-0.1,0.1-0.1,0.2c0,0,0,0.1-0.1,0.1c0,0.1-0.1,0.1-0.1,0.2l0,0l-0.1,0.1
				c0,0.1-0.1,0.1-0.1,0.2l-0.1,0.1c-0.1,0.1-0.1,0.2-0.2,0.2c0,0.1-0.1,0.1-0.1,0.2c-0.1,0.1-0.2,0.3-0.3,0.4c0,0-0.1,0.1-0.1,0.2
				c0,0,0,0,0,0.1c-0.1,0.1-0.2,0.3-0.3,0.4c0,0.1-0.1,0.1-0.1,0.2c-0.1,0.1-0.1,0.2-0.2,0.3c-0.2,0.3-0.4,0.7-0.6,1
				c-0.1,0.1-0.2,0.3-0.3,0.4v0.1c-0.1,0.1-0.1,0.2-0.2,0.3c0,0.1-0.1,0.1-0.1,0.2s-0.1,0.1-0.1,0.2c-0.2,0.3-0.3,0.6-0.5,0.9
				c0,0,0,0.1-0.1,0.1c-0.1,0.1-0.2,0.3-0.3,0.4c-0.1,0.1-0.1,0.2-0.2,0.4l0,0c0,0,0,0,0,0.1c0,0,0,0.1-0.1,0.1
				c-0.1,0.2-0.3,0.5-0.4,0.7l0,0c0,0.1-0.1,0.1-0.1,0.2s-0.1,0.2-0.1,0.2s0,0.1-0.1,0.1c0,0,0,0.1-0.1,0.1
				c-0.1,0.2-0.2,0.4-0.3,0.6l0,0l0,0c-0.3,0.5-0.5,1-0.8,1.6c-0.2,0.3-0.3,0.7-0.5,1c-0.2,0.4-0.3,0.7-0.5,1.1
				c-0.1,0.2-0.2,0.3-0.2,0.5c-0.1,0.2-0.1,0.3-0.2,0.5c-0.2,0.4-0.3,0.7-0.5,1.1c-0.3,0.7-0.6,1.5-0.9,2.2l0,0
				c-0.1,0.3-0.2,0.5-0.3,0.8c-0.5,1.3-1,2.7-1.5,4.1l-0.2,0.7c0,0.1,0,0.1-0.1,0.2c-1.6,4.9-2.8,10.3-3.7,16.2
				c-0.3,2-0.6,4.2-0.8,6.3c-0.1,0.8-0.1,1.6-0.2,2.4c-0.1,0.7-0.1,1.5-0.1,2.2c0,0.4,0,0.7-0.1,1.1c-0.1,1.1-0.1,2.1-0.1,3.2
				c0,1,0,2.1,0,3.1c0,0.6,0,1.1,0,1.7c0,0.2,0,0.4,0,0.6s0,0.5,0,0.7c0,0.3,0,0.7,0,1s0,0.6,0,0.8c0,0.5,0,1.1,0.1,1.6
				c0,0.3,0,0.5,0,0.8c0.1,1.3,0.2,2.5,0.3,3.7c0,0.3,0.1,0.6,0.1,0.9s0.1,0.6,0.1,0.9c0.1,0.6,0.1,1.1,0.2,1.7
				c0,0.3,0.1,0.6,0.1,0.8c0,0.3,0.1,0.6,0.1,0.8c0.1,0.5,0.2,1.1,0.2,1.6c0,0,0,0.1,0,0.2c0.1,0.4,0.1,0.8,0.2,1.2
				c0.2,0.9,0.3,1.9,0.5,2.8c0,0.2,0.1,0.5,0.1,0.7c0.3,1.4,0.6,2.7,0.9,4c0,0.2,0.1,0.4,0.1,0.6c0.1,0.2,0.1,0.5,0.2,0.7
				c0.1,0.4,0.2,0.8,0.3,1.2c0.2,0.6,0.3,1.2,0.5,1.8c0,0.2,0.1,0.3,0.1,0.5c0.1,0.2,0.1,0.4,0.2,0.7c0.2,0.7,0.4,1.3,0.6,1.9
				c0.1,0.4,0.3,0.8,0.4,1.2c0,0.1,0.1,0.2,0.1,0.3c1.1,3,2.2,5.7,3.3,7.9c0.4,0.8,0.8,1.6,1.2,2.3c2.2,4.2,4,6.5,4.3,7
				c0,0.1,0.1,0.1,0.1,0.1l0,0c0.2,0.1,0.4,0.2,0.6,0.2c0.1,0,0.2,0.1,0.3,0.1c0.4,0.1,0.7,0.3,1.1,0.4c0.3,0.1,0.5,0.2,0.8,0.3
				c0.1,0,0.2,0.1,0.3,0.1c1.1,0.4,2.2,0.7,3.3,1l0,0c0.4,0.1,0.7,0.2,1.1,0.3c0.4,0.1,0.7,0.2,1.1,0.2h0.1c0.3,0.1,0.7,0.1,1,0.2
				c0.3,0,0.5,0.1,0.8,0.1s0.6,0.1,0.8,0.1c0.2,0,0.4,0.1,0.7,0.1c0.4,0.1,0.7,0.1,1.1,0.1h0.1l0,0c0.3,0,0.6,0.1,0.9,0.1
				c0.4,0,0.8,0.1,1.3,0.1c0.3,0,0.7,0,1,0.1h0.1c0.8,0,1.5,0,2.3,0.1h0.1c0.2,0,0.3,0,0.5,0c0.4,0,0.7,0,1.1,0c0.5,0,0.9,0,1.4-0.1
				c0.2,0,0.4,0,0.6,0c0.7,0,1.4-0.1,2-0.2c0.4,0,0.7-0.1,1.1-0.1c0.2,0,0.4-0.1,0.6-0.1s0.4,0,0.6-0.1l0,0c0.3,0,0.6-0.1,0.8-0.1
				c0.1,0,0.3-0.1,0.4-0.1s0.2,0,0.3-0.1c0.1,0,0.2,0,0.3-0.1c0.1,0,0.1,0,0.2,0c0.3-0.1,0.6-0.1,0.8-0.2c0.2,0,0.4-0.1,0.6-0.1
				c0.1,0,0.2,0,0.3-0.1c0.3-0.1,0.5-0.1,0.8-0.2c0.4-0.1,0.9-0.2,1.3-0.4c0.2,0,0.3-0.1,0.5-0.1c0.3-0.1,0.5-0.2,0.8-0.2
				c0.3-0.1,0.5-0.2,0.8-0.3c0.3-0.1,0.6-0.2,0.9-0.3l0,0l0,0l0,0l0,0c0,0,0,0,0.1-0.1l0.1-0.1c0,0,0.1-0.1,0.1-0.2
				c0.1-0.1,0.2-0.2,0.3-0.4c0-0.1,0.1-0.1,0.1-0.2l0.1-0.1c0.1-0.1,0.2-0.3,0.4-0.5c0.1-0.1,0.1-0.2,0.2-0.2
				c0.1-0.2,0.3-0.4,0.4-0.7c0,0,0,0,0-0.1c0.1-0.2,0.3-0.4,0.4-0.6l0,0c0.3-0.5,0.7-1.1,1-1.7l0,0c0.5-0.8,0.9-1.6,1.5-2.6
				c0-0.1,0.1-0.1,0.1-0.2c0.1-0.3,0.3-0.6,0.4-0.9c0.4-0.8,0.8-1.6,1.2-2.5c0-0.1,0.1-0.2,0.1-0.3l0,0c0.3-0.6,0.6-1.2,0.8-1.9
				c0.1-0.1,0.1-0.3,0.2-0.4c0.5-1.1,1-2.3,1.4-3.6l0,0c0.9-2.5,1.8-5.2,2.6-8.2c0.1-0.2,0.1-0.4,0.2-0.6c0.2-0.6,0.3-1.3,0.5-1.9
				c0.6-2.4,1.1-4.9,1.5-7.5c0-0.3,0.1-0.5,0.1-0.8c0.3-1.6,0.5-3.4,0.7-5.1c0-0.3,0.1-0.6,0.1-0.9c0-0.1,0-0.1,0-0.1
				c0.1-0.5,0.1-1.1,0.1-1.6c0-0.6,0.1-1.2,0.1-1.8c0-0.3,0-0.6,0.1-0.9c0.1-2.4,0.2-4.9,0.2-7.5c0-0.3,0-0.6,0-0.9
				c0-0.6,0-1.2,0-1.8c0-0.6,0-1.2-0.1-1.9c0-0.6-0.1-1.3-0.1-1.9c0-0.3,0-0.6,0-1s0-0.7-0.1-1.1c0-0.1,0-0.3,0-0.4
				c0-0.2,0-0.4,0-0.6c0-0.4-0.1-0.7-0.1-1.1c0-0.3,0-0.5-0.1-0.8c-0.2-2.3-0.5-4.5-0.8-6.7c0-0.3-0.1-0.6-0.1-0.9
				c0-0.1,0-0.2,0-0.3c0-0.3-0.1-0.6-0.2-0.9c0-0.1,0-0.1,0-0.2c0-0.3-0.1-0.6-0.2-0.9v-0.1c-0.1-0.6-0.2-1.3-0.4-1.9
				c-0.1-0.3-0.1-0.7-0.2-1c-0.1-0.6-0.3-1.3-0.4-1.9c0-0.1,0-0.1,0-0.1c-0.1-0.3-0.1-0.6-0.2-0.9c0-0.2-0.1-0.4-0.1-0.6
				s-0.1-0.3-0.1-0.5s-0.1-0.3-0.1-0.5v-0.1c-0.4-1.5-0.8-3-1.3-4.5c-0.1-0.3-0.2-0.6-0.3-0.8c-0.1-0.2-0.2-0.5-0.2-0.7
				c-0.1-0.4-0.2-0.7-0.4-1.1c-0.2-0.5-0.4-1-0.5-1.5c-0.1-0.2-0.1-0.4-0.2-0.6c0-0.1,0-0.1-0.1-0.2c-0.2-0.4-0.3-0.9-0.5-1.3
				s-0.3-0.8-0.5-1.3v-0.1c-0.3-0.7-0.6-1.4-0.9-2.2c-0.3-0.8-0.7-1.6-1.1-2.3c0-0.1-0.1-0.1-0.1-0.2c-0.1-0.1-0.1-0.3-0.2-0.4V38
				c-0.2-0.3-0.3-0.6-0.5-0.9c-0.1-0.1-0.1-0.3-0.2-0.4l0,0c-0.1-0.2-0.2-0.4-0.3-0.7c-0.2-0.4-0.4-0.8-0.7-1.2l0,0
				c-0.1-0.2-0.2-0.4-0.3-0.6c-0.1-0.2-0.3-0.5-0.4-0.7l0,0c-0.2-0.4-0.4-0.7-0.6-1.1c0,0,0,0,0-0.1c0,0,0,0,0-0.1
				c-0.4-0.7-0.8-1.4-1.3-2.1l0,0c0,0,0-0.1-0.1-0.1c-0.2-0.3-0.4-0.6-0.6-0.9c-0.1-0.1-0.1-0.2-0.2-0.3c-0.2-0.3-0.4-0.6-0.6-0.9
				c-0.1-0.2-0.2-0.3-0.4-0.5c-0.1-0.2-0.3-0.4-0.4-0.6c-0.1-0.1-0.2-0.3-0.3-0.4c0-0.1-0.1-0.1-0.1-0.2c-0.1-0.1-0.1-0.1-0.2-0.2
				s-0.1-0.2-0.2-0.3c-0.1-0.2-0.2-0.3-0.3-0.5c-0.1-0.1-0.1-0.2-0.2-0.3c-0.1-0.1-0.2-0.2-0.2-0.3c-0.1-0.1-0.1-0.1-0.2-0.2
				s-0.2-0.2-0.2-0.3c-0.1-0.1-0.2-0.2-0.2-0.3c-0.1-0.1-0.2-0.2-0.2-0.3c0-0.1-0.1-0.1-0.1-0.2l-0.1-0.1c-0.1-0.1-0.2-0.2-0.2-0.3
				c-0.1-0.1-0.1-0.2-0.2-0.3c-0.1-0.1-0.1-0.2-0.2-0.3c-0.2-0.2-0.3-0.4-0.5-0.6c-0.1-0.1-0.1-0.2-0.2-0.2l-0.1-0.1
				c-0.1-0.1-0.1-0.1-0.2-0.2S431,21,430.9,21c-0.2-0.2-0.3-0.4-0.5-0.6c-0.1-0.1-0.1-0.1-0.2-0.2s-0.2-0.3-0.3-0.4
				c-0.2-0.2-0.4-0.5-0.6-0.7c-0.1-0.1-0.3-0.3-0.4-0.4c0,0,0,0-0.1-0.1c-0.3-0.3-0.6-0.6-0.8-0.9l-0.1-0.1
				c-0.1-0.1-0.1-0.1-0.2-0.2l-0.1-0.1c0,0-0.1,0-0.1-0.1c-0.1-0.1-0.2-0.2-0.3-0.3c-0.1-0.1-0.3-0.3-0.4-0.4
				c-0.2-0.2-0.4-0.4-0.5-0.5c0,0,0,0-0.1-0.1l-0.1-0.1l-0.1-0.1c-0.1-0.1-0.2-0.2-0.3-0.3l0,0c-0.1-0.1-0.2-0.2-0.2-0.2
				c-0.1,0-0.1-0.1-0.2-0.2s-0.1-0.1-0.2-0.2c-0.1,0-0.1-0.1-0.2-0.2l0,0c-0.1-0.1-0.3-0.3-0.4-0.4c-0.1,0-0.1-0.1-0.2-0.2
				c-0.1,0-0.1-0.1-0.2-0.1s-0.1-0.1-0.2-0.1c-0.1-0.1-0.2-0.1-0.2-0.2c-0.2-0.1-0.3-0.3-0.5-0.4l0,0c-0.1,0-0.1-0.1-0.2-0.2
				s-0.2-0.1-0.2-0.2l0,0c-0.1-0.1-0.1-0.1-0.2-0.2c-0.2-0.1-0.4-0.3-0.5-0.4c-0.2-0.1-0.4-0.2-0.6-0.3c-0.4-0.2-0.8-0.3-1.2-0.3
				l0,0c-0.4-0.1-0.8-0.1-1.2,0c-0.3,0-0.6,0.1-0.9,0.2l0,0C416.2,13.4,416.2,13.4,416.1,13.4L416.1,13.4z"/>
		</g>
		<g>
			<path class="st11" d="M438.2,105.9c0.1-0.1,0.2-0.3,0.3-0.4C438.3,105.7,438.2,105.8,438.2,105.9z"/>
		</g>
		<g>
			<path class="st12" d="M391.9,46.2c2.3-6,5.1-11,7.8-15.3c0-0.1,0.1-0.1,0.1-0.2c0.4-0.6,0.8-1.2,1.2-1.7l0,0
				c0.1-0.2,0.3-0.4,0.4-0.6s0.3-0.4,0.4-0.6s0.3-0.4,0.4-0.6c0.3-0.3,0.5-0.7,0.8-1c0.4-0.5,0.8-1,1.2-1.5c0.1-0.2,0.3-0.3,0.4-0.5
				c0.5-0.6,1.1-1.3,1.6-1.8c0.1-0.1,0.3-0.3,0.4-0.4c1.2-1.3,2.3-2.4,3.3-3.5c0.2-0.2,0.3-0.3,0.5-0.5s0.4-0.3,0.5-0.5
				c0.2-0.2,0.4-0.3,0.5-0.5c0.1-0.1,0.3-0.3,0.4-0.4c0.2-0.2,0.4-0.4,0.6-0.5c0.9-0.7,1.7-1.4,2.4-1.9c-0.4,0.6-0.7,1.2-1.1,1.9
				c-4.3,7.9-8.3,17.3-11.2,28.6C399.1,45,395.5,45.5,391.9,46.2z"/>
		</g>
		<g>
			<path class="st13" d="M391.9,46.2c2.4-6,5.1-11.2,7.9-15.5c0.3-0.4,0.5-0.8,0.8-1.2c0.1-0.2,0.3-0.4,0.4-0.6l0,0
				c0.1-0.2,0.3-0.4,0.4-0.6c0.3-0.4,0.5-0.8,0.8-1.1c0.2-0.3,0.5-0.7,0.7-1c0.7-0.9,1.4-1.8,2.1-2.6c0.1-0.1,0.2-0.3,0.3-0.4
				c1.4-1.6,2.7-3,3.9-4.2c0.1-0.1,0.2-0.2,0.3-0.3c0.1-0.1,0.3-0.3,0.4-0.4c0.4-0.4,0.7-0.7,1.1-1c0.1-0.1,0.2-0.2,0.3-0.2
				c0.2-0.2,0.4-0.3,0.5-0.5c0.1-0.1,0.2-0.1,0.3-0.2c0.2-0.1,0.3-0.3,0.5-0.4c0.3-0.3,0.6-0.5,0.9-0.8c0.5-0.4,1-0.8,1.5-1.2
				c0.2-0.1,0.4-0.3,0.6-0.4s0.3-0.2,0.5-0.2c0.1,0,0.1,0,0.2-0.1c-2,6.2-5.1,17-7.5,30.8C403.1,44.4,397.5,45.1,391.9,46.2z"/>
		</g>
		<g>
			<path class="st2" d="M443.5,47.3c-6.8-1.6-13.7-2.6-20.7-3.1c-10.3-0.7-20.7,0-30.9,2c7.2-18.4,18-28.3,23.1-32.2
				c1.7-1.3,4.1-1.2,5.7,0.1c0.1,0.1,0.3,0.2,0.4,0.3C426.4,18.8,436.7,29,443.5,47.3z"/>
		</g>
		<g class="st7">
			<path class="st6" d="M413.4,17.5L413.4,17.5c-4.1,3.9-9.5,9.9-14.2,18.5c-5.4,9.9-10.1,23.3-11.5,40.9
				c-0.8,11.4-0.1,21.2,1.3,29.5c3.8,21.6,12.8,32.7,12.8,32.7l0,0l0,0l1.2,5.7c0.6,2.6,2.5,4.7,5,5.5c2.5,0.7,5,1.3,7.5,1.6
				l0.1-9.1c0.3,0,0.6,0,0.9,0l1.8-14.1c0,0-7.3-1.7-10.3,8.1c-2.8-6.8-5.6-15.5-7.5-26.1c-1.1-6-1.8-12.6-2.1-19.9
				c3.8,4.8,10,7.4,16.4,6.2c9.2-1.7,15.2-10.6,13.4-20c-1.8-9.3-10.7-15.5-19.9-13.9c-3.7,0.7-7,2.6-9.3,5.2
				C400.9,46.9,406.7,30.1,413.4,17.5z"/>
		</g>
		<g class="st14">
			<path class="st4" d="M413.5,15.9c1.7-1.3,4.1-1.2,5.7,0.1c0.1,0.1,0.3,0.2,0.4,0.3c5,4.1,14.6,13.6,21.3,30.3
				c0.8,0.2,1.7,0.4,2.5,0.6c-6.8-18.2-17.1-28.5-22.3-32.8c-0.1-0.1-0.3-0.2-0.4-0.3c-1.7-1.4-4-1.4-5.7-0.1
				c-2.7,2-6.9,5.7-11.4,11.4C407.6,20.8,411.2,17.7,413.5,15.9z"/>
		</g>
		<g>
			<path class="st6" d="M391.1,46.8c-0.2-0.3-0.2-0.6-0.1-1c7.1-18.1,17.6-28.1,23.2-32.4c2.2-1.7,5.3-1.6,7.5,0.1
				c5.6,4.6,15.9,15,22.8,33.4c0.1,0.4,0.1,0.8-0.2,1.1c-0.3,0.3-0.7,0.4-1,0.3c-16.9-4-34.2-4.4-51.1-1.1
				C391.8,47.3,391.4,47.2,391.1,46.8L391.1,46.8z M433.8,30.3c-5-7.6-10.1-12.5-13.4-15.2c-1.4-1.2-3.4-1.2-4.9-0.1
				c-5.3,4.1-15,13.2-21.9,29.8c16-2.9,32.2-2.5,48.2,1C439.4,39.7,436.6,34.6,433.8,30.3z"/>
		</g>
		<g>
			<path class="st6" d="M397,137.7c-0.8-1.2-1.8-2.9-3-5.1c-0.4-0.7-0.8-1.5-1.2-2.4c-1.2-2.5-2.3-5.2-3.3-8c0-0.1-0.1-0.2-0.1-0.3
				c-0.1-0.4-0.3-0.8-0.4-1.2c-0.2-0.6-0.4-1.3-0.6-2l-0.2-0.7c0-0.2-0.1-0.3-0.1-0.5c-0.2-0.6-0.4-1.2-0.5-1.8
				c-0.1-0.4-0.2-0.7-0.3-1.1l-0.2-0.8c-0.1-0.2-0.1-0.4-0.2-0.6c-0.3-1.3-0.6-2.7-0.9-4l-0.1-0.7c-0.2-1-0.4-1.9-0.5-2.8
				c-0.1-0.4-0.1-0.8-0.2-1.2l0,0v-0.1c-0.1-0.5-0.2-1-0.2-1.6c0-0.2-0.1-0.4-0.1-0.6l-0.1-1.1c-0.1-0.6-0.1-1.1-0.2-1.7
				c0-0.3-0.1-0.5-0.1-0.8v-0.3c0-0.2,0-0.5-0.1-0.7c-0.1-1.3-0.2-2.5-0.3-3.7c0-0.2,0-0.4,0-0.6v-0.2c0-0.5-0.1-1.1-0.1-1.6
				c0-0.3,0-0.6,0-0.8c0-0.2,0-0.4,0-0.6v-0.4c0-0.3,0-0.5,0-0.7s0-0.4,0-0.5v-0.1c0-0.6,0-1.1,0-1.7c0-1,0-2,0-3.1s0.1-2.1,0.1-3.2
				v-0.3c0-0.3,0-0.5,0-0.7c0-0.8,0.1-1.5,0.1-2.2c0.1-0.9,0.1-1.7,0.2-2.5c0.2-2.1,0.5-4.2,0.8-6.4c0.8-5.7,2.1-11.2,3.8-16.4
				c0,0,0,0,0-0.1l0.3-0.8c0.5-1.4,1-2.8,1.5-4.2c0.1-0.2,0.1-0.4,0.2-0.5l0.1-0.3c0.1-0.4,0.5-0.6,0.9-0.7s0.8-0.1,1.1-0.2
				c0.1,0,0.3-0.1,0.4-0.1c0,0,0.1,0,0.2,0h0.2c0.2,0,0.5-0.1,0.8-0.1c0.1,0,0.1,0,0.2,0h0.1c0.3-0.1,0.6-0.1,0.9-0.1l0.4-0.1h0.1
				h0.1c0.1,0,0.2,0,0.4-0.1l0,0h0.3c0.1,0,0.1,0,0.2,0c0.3,0,0.7-0.1,1.1-0.2h0.1c0.1,0,0.2,0,0.4,0h0.1c0.3,0,0.5-0.1,0.8-0.1h0.2
				c0.1,0,0.1,0,0.2,0h0.3c0.2,0,0.5-0.1,0.8-0.1h0.3h0.1c0.1,0,0.2,0,0.3,0c0.4,0,0.8-0.1,1.2-0.1h0.1l0,0c0.4,0,0.8-0.1,1.2-0.1
				h0.2c0.3,0,0.6,0,0.8-0.1c0.7-0.1,1.3-0.1,2-0.1c0.2,0,0.3,0,0.4,0h0.5c0.2,0,0.3,0,0.5,0s0.4,0,0.5,0c0.3,0,0.6,0,1,0
				c0.7,0,1.3,0,2-0.1c0.3,0,0.7,0,1,0s0.6,0,1,0c0.3,0,0.7,0,1,0c0.7,0,1.3,0,2,0c0.6,0,1.3,0,2,0h0.9c0.7,0,1.4,0.1,2.1,0.1
				c0.3,0,0.6,0,0.9,0c0.7,0,1.5,0.1,2.3,0.2c0.6,0,1.1,0.1,1.7,0.1l1,0.1c1.3,0.1,2.7,0.3,4.2,0.5c0.4,0.1,0.8,0.1,1.2,0.2h0.1
				c0.4,0.1,0.8,0.1,1.2,0.2c0.4,0.1,0.9,0.1,1.3,0.2c1.1,0.2,2.2,0.4,3.3,0.6c0.3,0.1,0.7,0.1,1,0.2s0.6,0.1,0.9,0.2l0,0
				c0.2,0,0.3,0.1,0.4,0.1c0.3,0.1,0.5,0.1,0.8,0.2c0.2,0,0.3,0.1,0.5,0.1c0.3,0.1,0.5,0.1,0.8,0.2c0.1,0,0.2,0.1,0.4,0.2
				c0.2,0.1,0.3,0.3,0.4,0.5c0.3,0.9,0.6,1.6,0.8,2.3c0.1,0.4,0.2,0.7,0.4,1.1l0.5,1.6c0.5,1.5,0.9,3,1.3,4.5
				c0.1,0.2,0.1,0.4,0.2,0.6l0.1,0.5c0.1,0.2,0.1,0.4,0.1,0.6c0.1,0.3,0.1,0.6,0.2,0.9c0,0,0,0.1,0,0.2c0.1,0.7,0.3,1.3,0.4,2
				c0.1,0.3,0.1,0.7,0.2,1c0.1,0.6,0.3,1.3,0.4,1.9c0,0,0,0,0,0.1V65l0.2,0.9c0,0,0,0.1,0,0.2v0.2c0,0.2,0.1,0.5,0.1,0.7
				c0,0.1,0,0.2,0.1,0.3c0,0.3,0.1,0.6,0.1,0.9c0.3,2.2,0.6,4.5,0.8,6.8v0.2c0,0.2,0,0.4,0.1,0.6c0,0.4,0.1,0.7,0.1,1.1V77
				c0,0.2,0,0.4,0,0.5s0,0.2,0,0.3v0.5c0,0.3,0,0.5,0,0.8s0,0.7,0.1,1c0,0.6,0.1,1.3,0.1,1.9s0,1.3,0.1,1.9c0,0.6,0,1.2,0,1.9
				c0,0.3,0,0.6,0,0.9c0,2.6-0.1,5.1-0.2,7.6c0,0.3,0,0.6-0.1,0.9c0,0.6-0.1,1.2-0.1,1.9c0,0.5-0.1,1.1-0.1,1.6v0.1v0.1v0.3
				c0,0.2,0,0.4-0.1,0.6c-0.2,1.7-0.4,3.5-0.7,5.2c0,0.3-0.1,0.5-0.1,0.8c-0.4,2.6-0.9,5.2-1.5,7.6c-0.2,0.7-0.3,1.3-0.5,1.9
				l-0.2,0.6c-0.8,2.9-1.6,5.6-2.6,8.3c0,0,0,0,0,0.1c-0.4,1.2-0.9,2.4-1.4,3.6c0,0.1-0.1,0.1-0.1,0.2s-0.1,0.1-0.1,0.2
				c-0.3,0.6-0.5,1.3-0.8,1.9c0,0.1-0.1,0.2-0.1,0.3c-0.4,0.8-0.8,1.6-1.2,2.5c-0.1,0.2-0.3,0.5-0.4,0.7l-0.1,0.1
				c0,0.1-0.1,0.1-0.1,0.2c-0.5,0.9-1,1.8-1.5,2.6l0,0l0,0c-0.3,0.6-0.7,1.1-1,1.6c0,0,0,0,0,0.1l0,0l-0.4,0.6l-0.1,0.1
				c-0.2,0.2-0.3,0.4-0.4,0.6c-0.1,0.1-0.1,0.2-0.2,0.3c-0.1,0.2-0.2,0.3-0.3,0.5c0,0.1-0.1,0.1-0.1,0.2c0,0,0,0.1-0.1,0.1
				c0,0,0,0,0,0.1l0,0c-0.1,0.2-0.2,0.3-0.3,0.4c0,0.1-0.1,0.1-0.1,0.2l-0.1,0.1c0,0,0,0,0,0.1l-0.1,0.1c-0.1,0.1-0.2,0.2-0.3,0.2
				h-0.1c-0.3,0.1-0.6,0.2-0.9,0.3c-0.3,0.1-0.5,0.2-0.8,0.3c-0.2,0.1-0.5,0.2-0.8,0.2c-0.2,0-0.3,0.1-0.5,0.1l0,0
				c-0.4,0.1-0.9,0.2-1.3,0.4c-0.3,0.1-0.5,0.1-0.8,0.2c-0.1,0-0.2,0.1-0.3,0.1c-0.2,0-0.4,0.1-0.6,0.1c-0.3,0.1-0.7,0.2-1,0.2
				c-0.1,0-0.1,0-0.2,0l-0.3,0.1c-0.1,0-0.1,0-0.2,0h-0.2c-0.1,0-0.2,0-0.3,0c-0.3,0-0.5,0.1-0.8,0.1h-0.1c-0.2,0-0.3,0.1-0.5,0.1
				c-0.1,0-0.3,0-0.4,0.1h-0.2c-0.4,0-0.7,0.1-1.1,0.1c-0.7,0.1-1.4,0.1-2.1,0.2c-0.2,0-0.4,0-0.6,0c-0.4,0-0.9,0.1-1.4,0.1
				c-0.4,0-0.8,0-1.1,0c-0.1,0-0.2,0-0.3,0h-0.2c-0.1,0-0.1,0-0.1,0c-0.3,0-0.7,0-1,0c-0.4,0-0.9,0-1.3,0c0,0-0.1,0-0.2,0
				c-0.3,0-0.7,0-1-0.1c-0.4,0-0.8-0.1-1.3-0.1c-0.2,0-0.4,0-0.6-0.1h-0.4l0,0c-0.4,0-0.8-0.1-1.1-0.1c-0.2,0-0.4-0.1-0.7-0.1
				c-0.3,0-0.6-0.1-0.9-0.1c-0.2,0-0.5-0.1-0.8-0.1c-0.3-0.1-0.7-0.1-1-0.2h-0.1l0,0h-0.1c-0.3-0.1-0.7-0.1-1-0.2
				c-0.4-0.1-0.7-0.2-1.1-0.3h-0.1c-1.1-0.3-2.2-0.6-3.3-1c-0.1,0-0.2-0.1-0.3-0.1l-0.8-0.3c-0.4-0.1-0.7-0.3-1.1-0.4
				c-0.1,0-0.1,0-0.2-0.1c-0.1,0-0.1,0-0.2-0.1c-0.2-0.1-0.4-0.1-0.6-0.2l0,0c-0.1-0.1-0.3-0.2-0.4-0.3c0,0,0,0-0.1-0.1
				C398.3,139.5,397.8,138.9,397,137.7z M390.9,52.4c-1.6,5.1-2.8,10.5-3.7,16c-0.3,2.1-0.6,4.2-0.8,6.3c-0.1,0.8-0.1,1.6-0.2,2.4
				c-0.1,0.7-0.1,1.4-0.1,2.2c0,0.3,0,0.5,0,0.7v0.3c0,1-0.1,2.1-0.1,3.1c0,1.1,0,2.1,0,3.1c0,0.6,0,1.1,0,1.6v0.1
				c0,0.2,0,0.4,0,0.5c0,0.2,0,0.5,0,0.7v0.4c0,0.2,0,0.4,0,0.6c0,0.3,0,0.6,0,0.8c0,0.5,0,1.1,0.1,1.6V93c0,0.2,0,0.4,0,0.6
				c0.1,1.2,0.2,2.4,0.3,3.6c0,0.2,0,0.5,0.1,0.7v0.3c0,0.3,0,0.5,0.1,0.8c0.1,0.6,0.1,1.1,0.2,1.7l0.1,1.1c0,0.2,0,0.4,0.1,0.6
				c0.1,0.5,0.1,1,0.2,1.6l0,0v0.1c0.1,0.4,0.1,0.8,0.2,1.2c0.1,0.9,0.3,1.8,0.5,2.8l0.1,0.7c0.3,1.3,0.6,2.7,0.9,4
				c0,0.2,0.1,0.4,0.1,0.6l0.2,0.8c0.1,0.4,0.2,0.7,0.3,1.1c0.2,0.6,0.3,1.2,0.5,1.8c0,0.2,0.1,0.3,0.1,0.4l0.2,0.7
				c0.2,0.7,0.4,1.3,0.6,1.9c0.1,0.4,0.3,0.8,0.4,1.2c0,0.1,0.1,0.2,0.1,0.3c1,2.8,2.1,5.4,3.2,7.9c0.4,0.8,0.8,1.6,1.1,2.3
				c2,3.8,3.6,6,4.1,6.7c0.1,0,0.2,0.1,0.3,0.1l0.2,0.1c0.1,0,0.1,0,0.2,0.1c0.4,0.1,0.7,0.3,1.1,0.4l0.8,0.3c0.1,0,0.2,0.1,0.2,0.1
				l0,0c1.1,0.4,2.2,0.7,3.2,0.9h0.1c0.3,0.1,0.7,0.2,1,0.2c0.3,0.1,0.6,0.1,1,0.2h0.1c0.1,0,0.1,0,0.2,0c0.3,0.1,0.6,0.1,1,0.2
				c0.2,0,0.5,0.1,0.7,0.1c0.3,0,0.5,0.1,0.8,0.1l0,0c0.2,0,0.4,0.1,0.6,0.1c0.4,0.1,0.8,0.1,1.1,0.1c0,0,0,0,0.1,0h0.3
				c0.2,0,0.4,0,0.6,0.1c0.5,0,0.9,0.1,1.2,0.1c0.3,0,0.7,0,1,0.1c0,0,0,0,0.1,0l0,0l0,0c0.4,0,0.8,0,1.2,0c0.3,0,0.7,0,1,0
				c0,0,0,0,0.1,0h0.2c0.1,0,0.2,0,0.3,0c0.4,0,0.8,0,1.1,0c0.5,0,0.9,0,1.3-0.1c0.2,0,0.4,0,0.6,0c0.6,0,1.3-0.1,2-0.2
				c0.3,0,0.7-0.1,1-0.1h0.2c0.1,0,0.3,0,0.4-0.1c0.2,0,0.4-0.1,0.5-0.1c0,0,0,0,0.1,0c0.3,0,0.5-0.1,0.8-0.1c0.1,0,0.2,0,0.2,0
				l0.8-0.2c0.3-0.1,0.7-0.1,1-0.2c0.2,0,0.4-0.1,0.6-0.1c0.1,0,0.1,0,0.2,0c0,0,0,0,0.1,0c0.3-0.1,0.5-0.1,0.8-0.2
				c0.4-0.1,0.8-0.2,1.3-0.3h0.1c0.1,0,0.3-0.1,0.4-0.1c0.2-0.1,0.5-0.1,0.7-0.2c0.3-0.1,0.5-0.2,0.8-0.2c0.2-0.1,0.4-0.1,0.6-0.2
				l0.1-0.1c0.1-0.1,0.2-0.2,0.3-0.3l0,0c0-0.1,0.1-0.1,0.2-0.2c0,0,0,0,0-0.1c0,0,0,0,0-0.1c0.1-0.1,0.2-0.3,0.3-0.5
				c0.1-0.1,0.1-0.2,0.2-0.2c0.1-0.2,0.3-0.4,0.4-0.6l0,0l0,0l0.4-0.6c0,0,0,0,0-0.1c0.3-0.5,0.7-1.1,1-1.6c0,0,0,0,0-0.1
				c0.5-0.8,0.9-1.6,1.4-2.5l0,0c0,0,0-0.1,0.1-0.1l0,0l0.1-0.1c0.1-0.2,0.2-0.5,0.4-0.7c0.4-0.9,0.8-1.7,1.2-2.4l0,0
				c0-0.1,0.1-0.1,0.1-0.2c0,0,0,0,0-0.1c0.3-0.6,0.6-1.2,0.8-1.9c0-0.1,0.1-0.1,0.1-0.2s0.1-0.1,0.1-0.2c0.5-1.2,1-2.4,1.4-3.5
				c0,0,0,0,0-0.1c0.9-2.5,1.8-5.2,2.5-8l0.2-0.6c0.2-0.6,0.3-1.2,0.5-1.9c0.6-2.4,1.1-4.9,1.5-7.4c0-0.3,0.1-0.5,0.1-0.8
				c0.3-1.7,0.5-3.4,0.6-5.1c0-0.2,0-0.4,0.1-0.6v-0.3l0,0v-0.1c0-0.5,0.1-1,0.1-1.6s0.1-1.2,0.1-1.8c0-0.3,0-0.6,0.1-0.9
				c0.1-2.4,0.2-5,0.2-7.5c0-0.3,0-0.6,0-0.9c0-0.6,0-1.2,0-1.8c0-0.6,0-1.2-0.1-1.9c0-0.6-0.1-1.2-0.1-1.9c0-0.3,0-0.6-0.1-1
				c0-0.3,0-0.5,0-0.8v-0.5c0-0.1,0-0.2,0-0.2l0,0c0-0.2,0-0.3,0-0.5v-0.1c0-0.4-0.1-0.7-0.1-1.1c0-0.2,0-0.4-0.1-0.6v-0.2
				c-0.2-2.2-0.5-4.5-0.8-6.6c0-0.3-0.1-0.6-0.1-0.9c0-0.1,0-0.2,0-0.3c0-0.3-0.1-0.5-0.1-0.7v-0.2V66l-0.1-0.4
				c0-0.2-0.1-0.3-0.1-0.5c0,0,0,0,0-0.1v-0.1c-0.1-0.6-0.2-1.3-0.4-1.9c-0.1-0.3-0.1-0.6-0.2-1c-0.1-0.6-0.3-1.3-0.4-1.9l0,0
				c0,0,0,0,0-0.1l0,0c-0.1-0.3-0.1-0.6-0.2-0.9c0-0.2-0.1-0.4-0.1-0.6l-0.1-0.5c-0.1-0.2-0.1-0.4-0.2-0.6c-0.4-1.5-0.8-3-1.3-4.4
				l-0.5-1.6c-0.1-0.4-0.2-0.7-0.4-1.1c-0.2-0.5-0.4-1.1-0.6-1.8c-0.1,0-0.2,0-0.2-0.1c-0.2,0-0.3-0.1-0.5-0.1
				c-0.3-0.1-0.6-0.1-0.8-0.2c-0.1,0-0.3-0.1-0.4-0.1h-0.1c-0.3-0.1-0.6-0.1-0.8-0.2c-0.3-0.1-0.7-0.1-1-0.2
				c-1.1-0.2-2.2-0.4-3.3-0.6c-0.4-0.1-0.9-0.1-1.3-0.2s-0.8-0.1-1.2-0.2l0,0l0,0c-0.4-0.1-0.8-0.1-1.2-0.2
				c-1.4-0.2-2.8-0.4-4.1-0.5l-1-0.1c-0.5-0.1-1.1-0.1-1.6-0.1c-0.8-0.1-1.6-0.1-2.3-0.2c-0.3,0-0.6,0-0.8,0c-0.7,0-1.4-0.1-2.1-0.1
				H419c-0.7,0-1.3,0-1.9,0c-0.7,0-1.3,0-1.9,0c-0.3,0-0.6,0-1,0s-0.6,0-0.9,0s-0.7,0-1,0c-0.6,0-1.3,0-1.9,0.1c-0.3,0-0.6,0-1,0
				c-0.2,0-0.3,0-0.4,0l0,0c-0.2,0-0.3,0-0.5,0h-0.6c-0.1,0-0.3,0-0.4,0c-0.7,0-1.3,0.1-2,0.1c-0.3,0-0.5,0-0.8,0.1h-0.1l0,0
				c-0.4,0-0.8,0.1-1.2,0.1h-0.1h-0.1c-0.4,0-0.8,0.1-1.2,0.1l0,0c-0.1,0-0.2,0-0.2,0s0,0-0.1,0h-0.4c-0.3,0-0.5,0.1-0.7,0.1h-0.2
				c-0.1,0-0.1,0-0.2,0s-0.1,0-0.2,0h-0.2c-0.3,0-0.5,0.1-0.8,0.1h-0.1c-0.1,0-0.2,0-0.4,0h-0.1c0,0,0,0-0.1,0
				c-0.4,0-0.7,0.1-1.1,0.2h-0.1H397h-0.3c-0.1,0-0.2,0-0.4,0.1l-0.6,0.1c-0.3,0-0.6,0.1-0.9,0.1h-0.1h-0.1c0,0,0,0-0.1,0
				c-0.2,0-0.5,0.1-0.7,0.1l-0.3,0.1c-0.1,0-0.3,0-0.4,0.1l0,0c-0.2,0-0.4,0.1-0.6,0.1c0,0.1-0.1,0.2-0.1,0.2
				c-0.5,1.3-1,2.7-1.5,4.1l-0.3,0.8C390.9,52.3,390.9,52.3,390.9,52.4z M406,140.3L406,140.3L406,140.3z M406.2,140.3L406.2,140.3
				L406.2,140.3z M435.8,136.9L435.8,136.9L435.8,136.9z M435.9,136.8L435.9,136.8L435.9,136.8z M433.1,46.3L433.1,46.3L433.1,46.3z
				"/>
		</g>
		<g>
			<path class="st6" d="M400.9,147.9c-0.6-0.8-1-1.8-1.2-2.8l-1.2-5.7c-0.1-0.5,0.2-0.9,0.6-1c0.5-0.1,0.9,0.2,1,0.6l1.2,5.7
				c0.5,2.3,2.2,4.2,4.4,4.8c7.3,2.2,15.1,2.4,22.5,0.5c2.2-0.6,3.9-2.4,4.5-4.6l1.3-5.7c0.1-0.5,0.6-0.7,1-0.6s0.7,0.6,0.6,1
				l-1.3,5.7c-0.7,2.9-2.8,5.1-5.7,5.9c-7.7,2-15.8,1.8-23.4-0.5C403.5,150.6,401.9,149.5,400.9,147.9z"/>
		</g>
		<g class="st5">
			<path class="st4" d="M420.6,20.4c4.4,2.6,12.4,14,9.7,17.6C427.8,41.4,416.2,17.8,420.6,20.4z"/>
		</g>
		<g>
			
				<ellipse transform="matrix(0.9147 -0.4042 0.4042 0.9147 3.0108 175.1713)" class="st2" cx="416.4" cy="80.5" rx="16.7" ry="17"/>
		</g>
		<g class="st3">
			<path class="st4" d="M420.3,97c-0.5,0.1-1,0.2-1.4,0.2c8.3-2.3,13.5-10.6,11.8-19.4c-1.7-8.7-9.6-14.7-18.2-13.9
				c0.5-0.1,0.9-0.2,1.4-0.3c9.1-1.7,17.9,4.5,19.6,13.7C435.3,86.6,429.4,95.4,420.3,97z"/>
		</g>
		<g class="st15">
			<path class="st16" d="M419.6,97.2c-9.1,1.7-17.9-4.5-19.6-13.7c-1.8-9.2,4.1-18,13.2-19.7c0.5-0.1,1-0.2,1.5-0.2
				c-8.2,2.3-13.4,10.7-11.7,19.4c1.7,8.7,9.6,14.6,18.1,13.9C420.6,97,420.1,97.1,419.6,97.2z"/>
		</g>
		<g>
			<path class="st6" d="M401.7,90.3c-1.3-1.9-2.2-4.2-2.7-6.6c-0.9-4.7,0.1-9.5,2.8-13.5c2.6-3.9,6.6-6.4,11.2-7.3
				c9.5-1.8,18.8,4.7,20.7,14.4c0.9,4.7-0.1,9.5-2.8,13.5c-2.6,3.9-6.6,6.4-11.2,7.3C412.6,99.4,405.6,96.1,401.7,90.3z M429.5,71.7
				c-3.5-5.2-9.7-8.2-16.2-7c-4.1,0.7-7.6,3.1-10,6.5c-2.4,3.5-3.3,7.8-2.5,12.1c1.7,8.7,10,14.5,18.6,12.9c4.1-0.7,7.6-3.1,10-6.5
				c2.4-3.5,3.3-7.8,2.5-12.1C431.5,75.5,430.7,73.5,429.5,71.7z"/>
		</g>
		<g>
			<path class="st17" d="M418.4,90.9c-3.4,0.6-6.7-0.5-9.1-2.7c-1.3-1.2-2.3-2.8-2.9-4.7c-0.1-0.4-0.2-0.7-0.3-1.1
				c-0.1-0.6-0.2-1.2-0.2-1.8c-0.1-2,0.4-3.8,1.3-5.5c1.5-2.6,4-4.5,7.1-5.1s6.2,0.3,8.5,2.2c1.4,1.2,2.6,2.8,3.3,4.6
				c0.2,0.5,0.4,1.1,0.5,1.7c0.1,0.4,0.1,0.8,0.2,1.1c0.2,1.9-0.2,3.8-1,5.4C424.5,88.1,421.8,90.3,418.4,90.9z"/>
		</g>
		<g>
			<g>
				<g>
					<g>
						<defs>
							<path id="SVGID_1_" d="M479-82.4h0.1H479z"/>
						</defs>
						<clipPath id="SVGID_00000156578123445887166670000008195794824170281377_">
							<use xlink:href="#SVGID_1_"  style="overflow:visible;"/>
						</clipPath>
					</g>
					<g>
						<defs>
							<path id="SVGID_00000003802737224407526620000016089792174338681731_" d="M479-82.4h0.1H479z"/>
						</defs>
						<defs>
							<polygon id="SVGID_00000179618921027272863890000003862537931539718837_" points="479.1,-82.6 479,-82.7 479.1,-82.7 							
								"/>
						</defs>
						<clipPath id="SVGID_00000078758284730717545580000000954070794856331417_">
							<use xlink:href="#SVGID_00000003802737224407526620000016089792174338681731_"  style="overflow:visible;"/>
						</clipPath>
						
							<clipPath id="SVGID_00000173125382679486719060000004015702146372912815_" style="clip-path:url(#SVGID_00000078758284730717545580000000954070794856331417_);">
							<use xlink:href="#SVGID_00000179618921027272863890000003862537931539718837_"  style="overflow:visible;"/>
						</clipPath>
						<defs>
							<filter id="Adobe_OpacityMaskFilter" filterUnits="userSpaceOnUse" x="408.6" y="70.3" width="18" height="14.7">
								<feColorMatrix  type="matrix" values="1 0 0 0 0  0 1 0 0 0  0 0 1 0 0  0 0 0 1 0"/>
							</filter>
						</defs>
						
							<mask maskUnits="userSpaceOnUse" x="408.6" y="70.3" width="18" height="14.7" id="SVGID_00000152266028073578909660000001971376621656137644_">
							<g class="st19">
								<g>
									<g>
										<g>
											<defs>
												<path id="SVGID_00000168796617330877833890000009649569853134094731_" d="M479-82.4h0.1H479z"/>
											</defs>
											<defs>
												<polygon id="SVGID_00000044155000740880317040000016818358569670535607_" points="479.1,-82.6 479,-82.7 479.1,-82.7 
																									"/>
											</defs>
											
												<clipPath id="SVGID_00000064351170055047631980000008994310161974146716_" style="clip-path:url(#SVGID_00000173125382679486719060000004015702146372912815_);">
												<use xlink:href="#SVGID_00000168796617330877833890000009649569853134094731_"  style="overflow:visible;"/>
											</clipPath>
											
												<clipPath id="SVGID_00000031193649863097166620000003387498647484652446_" style="clip-path:url(#SVGID_00000064351170055047631980000008994310161974146716_);">
												<use xlink:href="#SVGID_00000044155000740880317040000016818358569670535607_"  style="overflow:visible;"/>
											</clipPath>
										</g>
										<g>
											<defs>
												<path id="SVGID_00000119838836277432647900000013545530456971776173_" d="M479-82.4h0.1H479z"/>
											</defs>
											<defs>
												<polygon id="SVGID_00000114042339910588116850000006643051138976149144_" points="479.1,-82.6 479,-82.7 479.1,-82.7 
																									"/>
											</defs>
											<defs>
												<path id="SVGID_00000158014564469363142160000000443153182534341517_" d="M479-82.4h0.1H479z"/>
											</defs>
											
												<clipPath id="SVGID_00000085243191036142840240000004378649785021397950_" style="clip-path:url(#SVGID_00000173125382679486719060000004015702146372912815_);">
												<use xlink:href="#SVGID_00000119838836277432647900000013545530456971776173_"  style="overflow:visible;"/>
											</clipPath>
											
												<clipPath id="SVGID_00000070813030103400932750000015437732680087763841_" style="clip-path:url(#SVGID_00000085243191036142840240000004378649785021397950_);">
												<use xlink:href="#SVGID_00000114042339910588116850000006643051138976149144_"  style="overflow:visible;"/>
											</clipPath>
											
												<clipPath id="SVGID_00000183248973782937496950000009064714656987104701_" style="clip-path:url(#SVGID_00000070813030103400932750000015437732680087763841_);">
												<use xlink:href="#SVGID_00000158014564469363142160000000443153182534341517_"  style="overflow:visible;"/>
											</clipPath>
										</g>
									</g>
									<g>
										<g>
											<defs>
												<path id="SVGID_00000036251453202712668870000004878928003395734411_" d="M479-82.4h0.1H479z"/>
											</defs>
											<defs>
												<polygon id="SVGID_00000029768112427334270960000010869459943861422496_" points="479.1,-82.6 479,-82.7 479.1,-82.7 
																									"/>
											</defs>
											
												<clipPath id="SVGID_00000005248597850763271310000002396311762107286181_" style="clip-path:url(#SVGID_00000173125382679486719060000004015702146372912815_);">
												<use xlink:href="#SVGID_00000036251453202712668870000004878928003395734411_"  style="overflow:visible;"/>
											</clipPath>
											
												<clipPath id="SVGID_00000120524031970613697660000007019154655712883873_" style="clip-path:url(#SVGID_00000005248597850763271310000002396311762107286181_);">
												<use xlink:href="#SVGID_00000029768112427334270960000010869459943861422496_"  style="overflow:visible;"/>
											</clipPath>
										</g>
										<g>
											<defs>
												<path id="SVGID_00000026858735286496298250000012854325062365027002_" d="M479-82.4h0.1H479z"/>
											</defs>
											<defs>
												<polygon id="SVGID_00000149344605141179699180000003231693149388928923_" points="479.1,-82.6 479,-82.7 479.1,-82.7 
																									"/>
											</defs>
											<defs>
												<path id="SVGID_00000080166759740566472060000006736175885551192762_" d="M479-82.4h0.1H479z"/>
											</defs>
											
												<clipPath id="SVGID_00000173856336042805708970000009350970608824706179_" style="clip-path:url(#SVGID_00000173125382679486719060000004015702146372912815_);">
												<use xlink:href="#SVGID_00000026858735286496298250000012854325062365027002_"  style="overflow:visible;"/>
											</clipPath>
											
												<clipPath id="SVGID_00000097499372214156980630000000769446105803995560_" style="clip-path:url(#SVGID_00000173856336042805708970000009350970608824706179_);">
												<use xlink:href="#SVGID_00000149344605141179699180000003231693149388928923_"  style="overflow:visible;"/>
											</clipPath>
											
												<clipPath id="SVGID_00000119090940460495572620000016160792996870714005_" style="clip-path:url(#SVGID_00000097499372214156980630000000769446105803995560_);">
												<use xlink:href="#SVGID_00000080166759740566472060000006736175885551192762_"  style="overflow:visible;"/>
											</clipPath>
										</g>
										<g>
											<defs>
												<path id="SVGID_00000182525896696283929790000005936024671180430740_" d="M479-82.4h0.1H479z"/>
											</defs>
											<defs>
												<polygon id="SVGID_00000175317151913850951490000006643679789352768156_" points="479.1,-82.6 479,-82.7 479.1,-82.7 
																									"/>
											</defs>
											<defs>
												<path id="SVGID_00000009572446922499767680000011906349061136389042_" d="M479-82.4h0.1H479z"/>
											</defs>
											<defs>
												<polygon id="SVGID_00000037659161865401443740000000882442368687838631_" points="479.1,-82.6 479,-82.7 479.1,-82.7 
																									"/>
											</defs>
											
												<clipPath id="SVGID_00000114783012333821859250000003109119799899774610_" style="clip-path:url(#SVGID_00000173125382679486719060000004015702146372912815_);">
												<use xlink:href="#SVGID_00000182525896696283929790000005936024671180430740_"  style="overflow:visible;"/>
											</clipPath>
											
												<clipPath id="SVGID_00000142136729068673127480000018433217508590092177_" style="clip-path:url(#SVGID_00000114783012333821859250000003109119799899774610_);">
												<use xlink:href="#SVGID_00000175317151913850951490000006643679789352768156_"  style="overflow:visible;"/>
											</clipPath>
											
												<clipPath id="SVGID_00000095303740651769950880000016206955885635944870_" style="clip-path:url(#SVGID_00000142136729068673127480000018433217508590092177_);">
												<use xlink:href="#SVGID_00000009572446922499767680000011906349061136389042_"  style="overflow:visible;"/>
											</clipPath>
											
												<clipPath id="SVGID_00000007426504021613317390000008294937669148824735_" style="clip-path:url(#SVGID_00000095303740651769950880000016206955885635944870_);">
												<use xlink:href="#SVGID_00000037659161865401443740000000882442368687838631_"  style="overflow:visible;"/>
											</clipPath>
										</g>
									</g>
									<g>
										<g>
											<defs>
												<path id="SVGID_00000027576623803654814550000002150196013459716245_" d="M479-82.4h0.1H479z"/>
											</defs>
											<defs>
												<polygon id="SVGID_00000084496797122078288390000006084626789072195769_" points="479.1,-82.6 479,-82.7 479.1,-82.7 
																									"/>
											</defs>
											
												<clipPath id="SVGID_00000161611612149264176850000012901507491614241423_" style="clip-path:url(#SVGID_00000173125382679486719060000004015702146372912815_);">
												<use xlink:href="#SVGID_00000027576623803654814550000002150196013459716245_"  style="overflow:visible;"/>
											</clipPath>
											
												<clipPath id="SVGID_00000175302992753839200380000014865366915634136214_" style="clip-path:url(#SVGID_00000161611612149264176850000012901507491614241423_);">
												<use xlink:href="#SVGID_00000084496797122078288390000006084626789072195769_"  style="overflow:visible;"/>
											</clipPath>
										</g>
										<g>
											<defs>
												<path id="SVGID_00000169548138131771934580000004530607845528042410_" d="M479-82.4h0.1H479z"/>
											</defs>
											<defs>
												<polygon id="SVGID_00000148621007354678519720000016968137138245535636_" points="479.1,-82.6 479,-82.7 479.1,-82.7 
																									"/>
											</defs>
											<defs>
												<path id="SVGID_00000066482508562070725110000003461563760288031656_" d="M479-82.4h0.1H479z"/>
											</defs>
											
												<clipPath id="SVGID_00000134952242102457002950000002759566013463394439_" style="clip-path:url(#SVGID_00000173125382679486719060000004015702146372912815_);">
												<use xlink:href="#SVGID_00000169548138131771934580000004530607845528042410_"  style="overflow:visible;"/>
											</clipPath>
											
												<clipPath id="SVGID_00000128454750948992550160000003875391849503426700_" style="clip-path:url(#SVGID_00000134952242102457002950000002759566013463394439_);">
												<use xlink:href="#SVGID_00000148621007354678519720000016968137138245535636_"  style="overflow:visible;"/>
											</clipPath>
											
												<clipPath id="SVGID_00000149341838984053141390000008555636139717944767_" style="clip-path:url(#SVGID_00000128454750948992550160000003875391849503426700_);">
												<use xlink:href="#SVGID_00000066482508562070725110000003461563760288031656_"  style="overflow:visible;"/>
											</clipPath>
										</g>
										<g>
											<defs>
												<path id="SVGID_00000082330108024587139100000014368496715926407597_" d="M479-82.4h0.1H479z"/>
											</defs>
											<defs>
												<polygon id="SVGID_00000106126193001333120320000009542180577214673807_" points="479.1,-82.6 479,-82.7 479.1,-82.7 
																									"/>
											</defs>
											<defs>
												<path id="SVGID_00000074444081942130424760000015768100221545710987_" d="M479-82.4h0.1H479z"/>
											</defs>
											<defs>
												<polygon id="SVGID_00000085943864739502450080000017291539591772966842_" points="479.1,-82.6 479,-82.7 479.1,-82.7 
																									"/>
											</defs>
											
												<clipPath id="SVGID_00000109751017039459258750000010662234589620554170_" style="clip-path:url(#SVGID_00000173125382679486719060000004015702146372912815_);">
												<use xlink:href="#SVGID_00000082330108024587139100000014368496715926407597_"  style="overflow:visible;"/>
											</clipPath>
											
												<clipPath id="SVGID_00000039126560133513913360000010730195896608154808_" style="clip-path:url(#SVGID_00000109751017039459258750000010662234589620554170_);">
												<use xlink:href="#SVGID_00000106126193001333120320000009542180577214673807_"  style="overflow:visible;"/>
											</clipPath>
											
												<clipPath id="SVGID_00000134947500783616558530000007558295330146465193_" style="clip-path:url(#SVGID_00000039126560133513913360000010730195896608154808_);">
												<use xlink:href="#SVGID_00000074444081942130424760000015768100221545710987_"  style="overflow:visible;"/>
											</clipPath>
											
												<clipPath id="SVGID_00000173867650234049714900000012430266221886220682_" style="clip-path:url(#SVGID_00000134947500783616558530000007558295330146465193_);">
												<use xlink:href="#SVGID_00000085943864739502450080000017291539591772966842_"  style="overflow:visible;"/>
											</clipPath>
										</g>
										<g>
											<defs>
												<path id="SVGID_00000134246887772169959500000008695274428385196186_" d="M479-82.4h0.1H479z"/>
											</defs>
											<defs>
												<polygon id="SVGID_00000098213510896048793740000011041930348795873209_" points="479.1,-82.6 479,-82.7 479.1,-82.7 
																									"/>
											</defs>
											<defs>
												<path id="SVGID_00000176740550189199716800000007328254423612111525_" d="M479-82.4h0.1H479z"/>
											</defs>
											<defs>
												<polygon id="SVGID_00000068648144858506589790000003568980627062630328_" points="479.1,-82.6 479,-82.7 479.1,-82.7 
																									"/>
											</defs>
											<defs>
												<path id="SVGID_00000169537747034094801750000010556738280527239297_" d="M479-82.4h0.1H479z"/>
											</defs>
											
												<clipPath id="SVGID_00000083077126957422731440000016771733439381371550_" style="clip-path:url(#SVGID_00000173125382679486719060000004015702146372912815_);">
												<use xlink:href="#SVGID_00000134246887772169959500000008695274428385196186_"  style="overflow:visible;"/>
											</clipPath>
											
												<clipPath id="SVGID_00000142153148746028629190000013960221284575801016_" style="clip-path:url(#SVGID_00000083077126957422731440000016771733439381371550_);">
												<use xlink:href="#SVGID_00000098213510896048793740000011041930348795873209_"  style="overflow:visible;"/>
											</clipPath>
											
												<clipPath id="SVGID_00000123414461413143416120000012551641060898315189_" style="clip-path:url(#SVGID_00000142153148746028629190000013960221284575801016_);">
												<use xlink:href="#SVGID_00000176740550189199716800000007328254423612111525_"  style="overflow:visible;"/>
											</clipPath>
											
												<clipPath id="SVGID_00000049931450983107809560000005612031503203038883_" style="clip-path:url(#SVGID_00000123414461413143416120000012551641060898315189_);">
												<use xlink:href="#SVGID_00000068648144858506589790000003568980627062630328_"  style="overflow:visible;"/>
											</clipPath>
											
												<clipPath id="SVGID_00000035508012160606998790000010408806018629390765_" style="clip-path:url(#SVGID_00000049931450983107809560000005612031503203038883_);">
												<use xlink:href="#SVGID_00000169537747034094801750000010556738280527239297_"  style="overflow:visible;"/>
											</clipPath>
										</g>
										<g>
											<defs>
												<path id="SVGID_00000116231327724930233340000003144017238591891376_" d="M479-82.4h0.1H479z"/>
											</defs>
											<defs>
												<polygon id="SVGID_00000016791218587148314170000009402802877724397715_" points="479.1,-82.6 479,-82.7 479.1,-82.7 
																									"/>
											</defs>
											<defs>
												<path id="SVGID_00000081621523181724705630000009889333668675426975_" d="M479-82.4h0.1H479z"/>
											</defs>
											<defs>
												<polygon id="SVGID_00000106860577714999073020000016550854634777000328_" points="479.1,-82.6 479,-82.7 479.1,-82.7 
																									"/>
											</defs>
											<defs>
												<path id="SVGID_00000080180667217608862710000005031472541372083840_" d="M479-82.4h0.1H479z"/>
											</defs>
											<defs>
												<polygon id="SVGID_00000120541919601138421600000018004590307396154789_" points="479.1,-82.6 479,-82.7 479.1,-82.7 
																									"/>
											</defs>
											
												<clipPath id="SVGID_00000020393362736108868260000002302141887263167141_" style="clip-path:url(#SVGID_00000173125382679486719060000004015702146372912815_);">
												<use xlink:href="#SVGID_00000116231327724930233340000003144017238591891376_"  style="overflow:visible;"/>
											</clipPath>
											
												<clipPath id="SVGID_00000042722723952680304020000011072347816945013169_" style="clip-path:url(#SVGID_00000020393362736108868260000002302141887263167141_);">
												<use xlink:href="#SVGID_00000016791218587148314170000009402802877724397715_"  style="overflow:visible;"/>
											</clipPath>
											
												<clipPath id="SVGID_00000080208048351041093470000007935847926172424600_" style="clip-path:url(#SVGID_00000042722723952680304020000011072347816945013169_);">
												<use xlink:href="#SVGID_00000081621523181724705630000009889333668675426975_"  style="overflow:visible;"/>
											</clipPath>
											
												<clipPath id="SVGID_00000144338655295676063020000014405595472782628003_" style="clip-path:url(#SVGID_00000080208048351041093470000007935847926172424600_);">
												<use xlink:href="#SVGID_00000106860577714999073020000016550854634777000328_"  style="overflow:visible;"/>
											</clipPath>
											
												<clipPath id="SVGID_00000109715751243746442270000011388501691823788949_" style="clip-path:url(#SVGID_00000144338655295676063020000014405595472782628003_);">
												<use xlink:href="#SVGID_00000080180667217608862710000005031472541372083840_"  style="overflow:visible;"/>
											</clipPath>
											
												<clipPath id="SVGID_00000140005537264341137580000005080954064778917802_" style="clip-path:url(#SVGID_00000109715751243746442270000011388501691823788949_);">
												<use xlink:href="#SVGID_00000120541919601138421600000018004590307396154789_"  style="overflow:visible;"/>
											</clipPath>
											
												<linearGradient id="SVGID_00000138545778283280132600000004889687850080227243_" gradientUnits="userSpaceOnUse" x1="2236.2559" y1="-1204.7687" x2="2236.2197" y2="-1215.0388" gradientTransform="matrix(-0.5643 0.8256 0.8256 0.5643 2678.8831 -1086.9005)">
												<stop  offset="0" style="stop-color:#FFFFFF"/>
												<stop  offset="1" style="stop-color:#000000"/>
											</linearGradient>
											
												<path style="clip-path:url(#SVGID_00000140005537264341137580000005080954064778917802_);fill:url(#SVGID_00000138545778283280132600000004889687850080227243_);" d="
												M425.7,85l-17.1-11.9c1.3-1.4,3-2.4,4.8-2.8l13.2,9.2C426.7,81.3,426.5,83.2,425.7,85z"/>
										</g>
									</g>
								</g>
							</g>
						</mask>
						
							<linearGradient id="SVGID_00000129177575811448595630000007178888386768731266_" gradientUnits="userSpaceOnUse" x1="2236.2559" y1="-1204.7687" x2="2236.2197" y2="-1215.0388" gradientTransform="matrix(-0.5643 0.8256 0.8256 0.5643 2678.8831 -1086.9005)">
							<stop  offset="0" style="stop-color:#FFFFFF"/>
							<stop  offset="1" style="stop-color:#000000"/>
						</linearGradient>
						
							<path style="clip-path:url(#SVGID_00000173125382679486719060000004015702146372912815_);mask:url(#SVGID_00000152266028073578909660000001971376621656137644_);fill:url(#SVGID_00000129177575811448595630000007178888386768731266_);" d="
							M425.7,85l-17.1-11.9c1.3-1.4,3-2.4,4.8-2.8l13.2,9.2C426.7,81.3,426.5,83.2,425.7,85z"/>
					</g>
				</g>
			</g>
		</g>
		
			<linearGradient id="SVGID_00000082359764652898267030000002637574390462564535_" gradientUnits="userSpaceOnUse" x1="2236.2559" y1="-1204.7687" x2="2236.2197" y2="-1215.0388" gradientTransform="matrix(-0.5643 0.8256 0.8256 0.5643 2678.8831 -1086.9005)">
			<stop  offset="0" style="stop-color:#FFFFFF"/>
			<stop  offset="1" style="stop-color:#FFFFFF"/>
		</linearGradient>
		<path style="opacity:0.7;fill:url(#SVGID_00000082359764652898267030000002637574390462564535_);enable-background:new    ;" d="
			M425.7,85l-17.1-11.9c1.3-1.4,3-2.4,4.8-2.8l13.2,9.2C426.7,81.3,426.5,83.2,425.7,85z"/>
		<g>
			<g>
				<g>
					<g>
						<defs>
							<path id="SVGID_00000151541849165267918020000010509742656146707080_" d="M479-82.4h0.1H479z"/>
						</defs>
						<clipPath id="SVGID_00000160874179053670650090000017872098020188496002_">
							<use xlink:href="#SVGID_00000151541849165267918020000010509742656146707080_"  style="overflow:visible;"/>
						</clipPath>
					</g>
					<g>
						<defs>
							<path id="SVGID_00000019648689355396689800000007404218779447778204_" d="M479-82.4h0.1H479z"/>
						</defs>
						<defs>
							<polygon id="SVGID_00000013883125430854480480000008088935488725685378_" points="479.1,-82.6 479,-82.7 479.1,-82.7 							
								"/>
						</defs>
						<clipPath id="SVGID_00000132790797747471890760000012152305118049773483_">
							<use xlink:href="#SVGID_00000019648689355396689800000007404218779447778204_"  style="overflow:visible;"/>
						</clipPath>
						
							<clipPath id="SVGID_00000114760352063472275620000004336801763131352252_" style="clip-path:url(#SVGID_00000132790797747471890760000012152305118049773483_);">
							<use xlink:href="#SVGID_00000013883125430854480480000008088935488725685378_"  style="overflow:visible;"/>
						</clipPath>
						<defs>
							
								<filter id="Adobe_OpacityMaskFilter_00000112602841706941577320000018354070462729214894_" filterUnits="userSpaceOnUse" x="405.7" y="75.5" width="18.4" height="15">
								<feColorMatrix  type="matrix" values="1 0 0 0 0  0 1 0 0 0  0 0 1 0 0  0 0 0 1 0"/>
							</filter>
						</defs>
						
							<mask maskUnits="userSpaceOnUse" x="405.7" y="75.5" width="18.4" height="15" id="SVGID_00000005257603598619971420000011757298475844570046_">
							<g style="filter:url(#Adobe_OpacityMaskFilter_00000112602841706941577320000018354070462729214894_);">
								<g>
									<g>
										<g>
											<defs>
												<path id="SVGID_00000165194529807216224730000014323485617357189763_" d="M479-82.4h0.1H479z"/>
											</defs>
											<defs>
												<polygon id="SVGID_00000104694231331899943750000014520866857257380245_" points="479.1,-82.6 479,-82.7 479.1,-82.7 
																									"/>
											</defs>
											
												<clipPath id="SVGID_00000101802180722766883690000008512484328348578236_" style="clip-path:url(#SVGID_00000114760352063472275620000004336801763131352252_);">
												<use xlink:href="#SVGID_00000165194529807216224730000014323485617357189763_"  style="overflow:visible;"/>
											</clipPath>
											
												<clipPath id="SVGID_00000052806636846865601600000014520841300249466510_" style="clip-path:url(#SVGID_00000101802180722766883690000008512484328348578236_);">
												<use xlink:href="#SVGID_00000104694231331899943750000014520866857257380245_"  style="overflow:visible;"/>
											</clipPath>
										</g>
										<g>
											<defs>
												<path id="SVGID_00000000924420945367529920000015634795377848575131_" d="M479-82.4h0.1H479z"/>
											</defs>
											<defs>
												<polygon id="SVGID_00000105397428651785480910000009174966937684836743_" points="479.1,-82.6 479,-82.7 479.1,-82.7 
																									"/>
											</defs>
											<defs>
												<path id="SVGID_00000004520701870857226410000013125856834777932429_" d="M479-82.4h0.1H479z"/>
											</defs>
											
												<clipPath id="SVGID_00000101815887992907652840000017524170884704120711_" style="clip-path:url(#SVGID_00000114760352063472275620000004336801763131352252_);">
												<use xlink:href="#SVGID_00000000924420945367529920000015634795377848575131_"  style="overflow:visible;"/>
											</clipPath>
											
												<clipPath id="SVGID_00000116937243318323234000000007307734526582109345_" style="clip-path:url(#SVGID_00000101815887992907652840000017524170884704120711_);">
												<use xlink:href="#SVGID_00000105397428651785480910000009174966937684836743_"  style="overflow:visible;"/>
											</clipPath>
											
												<clipPath id="SVGID_00000014594402567502007020000013087945370338454183_" style="clip-path:url(#SVGID_00000116937243318323234000000007307734526582109345_);">
												<use xlink:href="#SVGID_00000004520701870857226410000013125856834777932429_"  style="overflow:visible;"/>
											</clipPath>
										</g>
									</g>
									<g>
										<g>
											<defs>
												<path id="SVGID_00000111889128390489840700000006254668021786012601_" d="M479-82.4h0.1H479z"/>
											</defs>
											<defs>
												<polygon id="SVGID_00000028288389420306437850000001107012909907754137_" points="479.1,-82.6 479,-82.7 479.1,-82.7 
																									"/>
											</defs>
											
												<clipPath id="SVGID_00000119105752280496008820000005008892598631068854_" style="clip-path:url(#SVGID_00000114760352063472275620000004336801763131352252_);">
												<use xlink:href="#SVGID_00000111889128390489840700000006254668021786012601_"  style="overflow:visible;"/>
											</clipPath>
											
												<clipPath id="SVGID_00000176735370153042316600000004375902891156496783_" style="clip-path:url(#SVGID_00000119105752280496008820000005008892598631068854_);">
												<use xlink:href="#SVGID_00000028288389420306437850000001107012909907754137_"  style="overflow:visible;"/>
											</clipPath>
										</g>
										<g>
											<defs>
												<path id="SVGID_00000181770365233968889920000012499932802090826400_" d="M479-82.4h0.1H479z"/>
											</defs>
											<defs>
												<polygon id="SVGID_00000029731733910548858420000003697002114310753672_" points="479.1,-82.6 479,-82.7 479.1,-82.7 
																									"/>
											</defs>
											<defs>
												<path id="SVGID_00000037655936867307099090000003586777455631255206_" d="M479-82.4h0.1H479z"/>
											</defs>
											
												<clipPath id="SVGID_00000178898723171207880080000017134553809896325539_" style="clip-path:url(#SVGID_00000114760352063472275620000004336801763131352252_);">
												<use xlink:href="#SVGID_00000181770365233968889920000012499932802090826400_"  style="overflow:visible;"/>
											</clipPath>
											
												<clipPath id="SVGID_00000163056628031129376030000003321686045742647948_" style="clip-path:url(#SVGID_00000178898723171207880080000017134553809896325539_);">
												<use xlink:href="#SVGID_00000029731733910548858420000003697002114310753672_"  style="overflow:visible;"/>
											</clipPath>
											
												<clipPath id="SVGID_00000032634858821969862870000001581463799064581293_" style="clip-path:url(#SVGID_00000163056628031129376030000003321686045742647948_);">
												<use xlink:href="#SVGID_00000037655936867307099090000003586777455631255206_"  style="overflow:visible;"/>
											</clipPath>
										</g>
										<g>
											<defs>
												<path id="SVGID_00000004531991723468611210000011836290603543842434_" d="M479-82.4h0.1H479z"/>
											</defs>
											<defs>
												<polygon id="SVGID_00000140736209365993604660000015909574986759291283_" points="479.1,-82.6 479,-82.7 479.1,-82.7 
																									"/>
											</defs>
											<defs>
												<path id="SVGID_00000063596148923424342020000004161318618933766825_" d="M479-82.4h0.1H479z"/>
											</defs>
											<defs>
												<polygon id="SVGID_00000085943894151054750400000017339344974569350057_" points="479.1,-82.6 479,-82.7 479.1,-82.7 
																									"/>
											</defs>
											
												<clipPath id="SVGID_00000183238275742017923210000003780154630578006146_" style="clip-path:url(#SVGID_00000114760352063472275620000004336801763131352252_);">
												<use xlink:href="#SVGID_00000004531991723468611210000011836290603543842434_"  style="overflow:visible;"/>
											</clipPath>
											
												<clipPath id="SVGID_00000098206944889740860830000000350230218279481225_" style="clip-path:url(#SVGID_00000183238275742017923210000003780154630578006146_);">
												<use xlink:href="#SVGID_00000140736209365993604660000015909574986759291283_"  style="overflow:visible;"/>
											</clipPath>
											
												<clipPath id="SVGID_00000119102074519370116380000003792610405861165485_" style="clip-path:url(#SVGID_00000098206944889740860830000000350230218279481225_);">
												<use xlink:href="#SVGID_00000063596148923424342020000004161318618933766825_"  style="overflow:visible;"/>
											</clipPath>
											
												<clipPath id="SVGID_00000122687392027351834140000005226845360849545141_" style="clip-path:url(#SVGID_00000119102074519370116380000003792610405861165485_);">
												<use xlink:href="#SVGID_00000085943894151054750400000017339344974569350057_"  style="overflow:visible;"/>
											</clipPath>
										</g>
									</g>
									<g>
										<g>
											<defs>
												<path id="SVGID_00000022559967818569930320000005774348176510901950_" d="M479-82.4h0.1H479z"/>
											</defs>
											<defs>
												<polygon id="SVGID_00000109003959832493095140000016509505032604548997_" points="479.1,-82.6 479,-82.7 479.1,-82.7 
																									"/>
											</defs>
											
												<clipPath id="SVGID_00000139292600413288841500000013119721818666826924_" style="clip-path:url(#SVGID_00000114760352063472275620000004336801763131352252_);">
												<use xlink:href="#SVGID_00000022559967818569930320000005774348176510901950_"  style="overflow:visible;"/>
											</clipPath>
											
												<clipPath id="SVGID_00000079462912593649757250000002761467792435817350_" style="clip-path:url(#SVGID_00000139292600413288841500000013119721818666826924_);">
												<use xlink:href="#SVGID_00000109003959832493095140000016509505032604548997_"  style="overflow:visible;"/>
											</clipPath>
										</g>
										<g>
											<defs>
												<path id="SVGID_00000078013488611041668310000001941558414398405271_" d="M479-82.4h0.1H479z"/>
											</defs>
											<defs>
												<polygon id="SVGID_00000015324354847413201610000015319903353733576849_" points="479.1,-82.6 479,-82.7 479.1,-82.7 
																									"/>
											</defs>
											<defs>
												<path id="SVGID_00000084502714771720494980000004542429847998372772_" d="M479-82.4h0.1H479z"/>
											</defs>
											
												<clipPath id="SVGID_00000099646682273019627550000010236761433494017413_" style="clip-path:url(#SVGID_00000114760352063472275620000004336801763131352252_);">
												<use xlink:href="#SVGID_00000078013488611041668310000001941558414398405271_"  style="overflow:visible;"/>
											</clipPath>
											
												<clipPath id="SVGID_00000072984528767318478710000001414285825377610882_" style="clip-path:url(#SVGID_00000099646682273019627550000010236761433494017413_);">
												<use xlink:href="#SVGID_00000015324354847413201610000015319903353733576849_"  style="overflow:visible;"/>
											</clipPath>
											
												<clipPath id="SVGID_00000163067051877572093350000006325080659105134725_" style="clip-path:url(#SVGID_00000072984528767318478710000001414285825377610882_);">
												<use xlink:href="#SVGID_00000084502714771720494980000004542429847998372772_"  style="overflow:visible;"/>
											</clipPath>
										</g>
										<g>
											<defs>
												<path id="SVGID_00000101104356974195285880000015164111663218356145_" d="M479-82.4h0.1H479z"/>
											</defs>
											<defs>
												<polygon id="SVGID_00000143583977055744577720000013383229379007959949_" points="479.1,-82.6 479,-82.7 479.1,-82.7 
																									"/>
											</defs>
											<defs>
												<path id="SVGID_00000182502120292525457960000003104154945843475076_" d="M479-82.4h0.1H479z"/>
											</defs>
											<defs>
												<polygon id="SVGID_00000075124879167741771970000009064217864478830232_" points="479.1,-82.6 479,-82.7 479.1,-82.7 
																									"/>
											</defs>
											
												<clipPath id="SVGID_00000085969659431514603020000003625812346004522685_" style="clip-path:url(#SVGID_00000114760352063472275620000004336801763131352252_);">
												<use xlink:href="#SVGID_00000101104356974195285880000015164111663218356145_"  style="overflow:visible;"/>
											</clipPath>
											
												<clipPath id="SVGID_00000047753295080775407140000016176027745921819325_" style="clip-path:url(#SVGID_00000085969659431514603020000003625812346004522685_);">
												<use xlink:href="#SVGID_00000143583977055744577720000013383229379007959949_"  style="overflow:visible;"/>
											</clipPath>
											
												<clipPath id="SVGID_00000095335638128750388100000012328546773031958947_" style="clip-path:url(#SVGID_00000047753295080775407140000016176027745921819325_);">
												<use xlink:href="#SVGID_00000182502120292525457960000003104154945843475076_"  style="overflow:visible;"/>
											</clipPath>
											
												<clipPath id="SVGID_00000119097833468256508050000004448401285358844547_" style="clip-path:url(#SVGID_00000095335638128750388100000012328546773031958947_);">
												<use xlink:href="#SVGID_00000075124879167741771970000009064217864478830232_"  style="overflow:visible;"/>
											</clipPath>
										</g>
										<g>
											<defs>
												<path id="SVGID_00000135650627978777941100000008277296039137222053_" d="M479-82.4h0.1H479z"/>
											</defs>
											<defs>
												<polygon id="SVGID_00000159456213403194062040000009976293567482058909_" points="479.1,-82.6 479,-82.7 479.1,-82.7 
																									"/>
											</defs>
											<defs>
												<path id="SVGID_00000091699496310936741650000012177970448082230418_" d="M479-82.4h0.1H479z"/>
											</defs>
											<defs>
												<polygon id="SVGID_00000011008242773735223410000003646427083698330785_" points="479.1,-82.6 479,-82.7 479.1,-82.7 
																									"/>
											</defs>
											<defs>
												<path id="SVGID_00000135666355985997661920000004579185497694201274_" d="M479-82.4h0.1H479z"/>
											</defs>
											
												<clipPath id="SVGID_00000067919580390343407110000005986127600136772247_" style="clip-path:url(#SVGID_00000114760352063472275620000004336801763131352252_);">
												<use xlink:href="#SVGID_00000135650627978777941100000008277296039137222053_"  style="overflow:visible;"/>
											</clipPath>
											
												<clipPath id="SVGID_00000164495721509814992300000018240079497674986896_" style="clip-path:url(#SVGID_00000067919580390343407110000005986127600136772247_);">
												<use xlink:href="#SVGID_00000159456213403194062040000009976293567482058909_"  style="overflow:visible;"/>
											</clipPath>
											
												<clipPath id="SVGID_00000028284875715405817990000005395950637635411891_" style="clip-path:url(#SVGID_00000164495721509814992300000018240079497674986896_);">
												<use xlink:href="#SVGID_00000091699496310936741650000012177970448082230418_"  style="overflow:visible;"/>
											</clipPath>
											
												<clipPath id="SVGID_00000152972541408959279310000016435027491287209606_" style="clip-path:url(#SVGID_00000028284875715405817990000005395950637635411891_);">
												<use xlink:href="#SVGID_00000011008242773735223410000003646427083698330785_"  style="overflow:visible;"/>
											</clipPath>
											
												<clipPath id="SVGID_00000148647916210690351040000008452960373784691368_" style="clip-path:url(#SVGID_00000152972541408959279310000016435027491287209606_);">
												<use xlink:href="#SVGID_00000135666355985997661920000004579185497694201274_"  style="overflow:visible;"/>
											</clipPath>
										</g>
										<g>
											<defs>
												<path id="SVGID_00000181788315768651134400000017898959275285681294_" d="M479-82.4h0.1H479z"/>
											</defs>
											<defs>
												<polygon id="SVGID_00000155855712408840155730000004265193950322742187_" points="479.1,-82.6 479,-82.7 479.1,-82.7 
																									"/>
											</defs>
											<defs>
												<path id="SVGID_00000111182398277706240350000016938389065349065128_" d="M479-82.4h0.1H479z"/>
											</defs>
											<defs>
												<polygon id="SVGID_00000181085734425594704130000016800842177342633875_" points="479.1,-82.6 479,-82.7 479.1,-82.7 
																									"/>
											</defs>
											<defs>
												<path id="SVGID_00000086656057900078559000000009698707881992906665_" d="M479-82.4h0.1H479z"/>
											</defs>
											<defs>
												<polygon id="SVGID_00000123411752139541096770000005786007688967940254_" points="479.1,-82.6 479,-82.7 479.1,-82.7 
																									"/>
											</defs>
											
												<clipPath id="SVGID_00000039131480635494202340000004793500891562280079_" style="clip-path:url(#SVGID_00000114760352063472275620000004336801763131352252_);">
												<use xlink:href="#SVGID_00000181788315768651134400000017898959275285681294_"  style="overflow:visible;"/>
											</clipPath>
											
												<clipPath id="SVGID_00000010269076091584679870000018230610368814019517_" style="clip-path:url(#SVGID_00000039131480635494202340000004793500891562280079_);">
												<use xlink:href="#SVGID_00000155855712408840155730000004265193950322742187_"  style="overflow:visible;"/>
											</clipPath>
											
												<clipPath id="SVGID_00000072981156746185056260000002708385363177093028_" style="clip-path:url(#SVGID_00000010269076091584679870000018230610368814019517_);">
												<use xlink:href="#SVGID_00000111182398277706240350000016938389065349065128_"  style="overflow:visible;"/>
											</clipPath>
											
												<clipPath id="SVGID_00000025402422363989598550000015133068190767007877_" style="clip-path:url(#SVGID_00000072981156746185056260000002708385363177093028_);">
												<use xlink:href="#SVGID_00000181085734425594704130000016800842177342633875_"  style="overflow:visible;"/>
											</clipPath>
											
												<clipPath id="SVGID_00000148656874199754864020000002357391941909944963_" style="clip-path:url(#SVGID_00000025402422363989598550000015133068190767007877_);">
												<use xlink:href="#SVGID_00000086656057900078559000000009698707881992906665_"  style="overflow:visible;"/>
											</clipPath>
											
												<clipPath id="SVGID_00000182510011872382186740000003166311601488118165_" style="clip-path:url(#SVGID_00000148656874199754864020000002357391941909944963_);">
												<use xlink:href="#SVGID_00000123411752139541096770000005786007688967940254_"  style="overflow:visible;"/>
											</clipPath>
											
												<linearGradient id="SVGID_00000014629267183597459290000009646692404331245500_" gradientUnits="userSpaceOnUse" x1="2244.2068" y1="-1204.724" x2="2244.1707" y2="-1215.0798" gradientTransform="matrix(-0.5643 0.8256 0.8256 0.5643 2678.8831 -1086.9005)">
												<stop  offset="0" style="stop-color:#FFFFFF"/>
												<stop  offset="1" style="stop-color:#000000"/>
											</linearGradient>
											
												<path style="clip-path:url(#SVGID_00000182510011872382186740000003166311601488118165_);fill:url(#SVGID_00000014629267183597459290000009646692404331245500_);" d="
												M419.7,90.5l-14-9.7c-0.1-1.8,0.3-3.7,1.2-5.3l17.2,12C422.9,88.8,421.4,89.9,419.7,90.5z"/>
										</g>
									</g>
								</g>
							</g>
						</mask>
						
							<linearGradient id="SVGID_00000139999340619283287290000016369235545506393508_" gradientUnits="userSpaceOnUse" x1="2244.2068" y1="-1204.724" x2="2244.1707" y2="-1215.0798" gradientTransform="matrix(-0.5643 0.8256 0.8256 0.5643 2678.8831 -1086.9005)">
							<stop  offset="0" style="stop-color:#FFFFFF"/>
							<stop  offset="1" style="stop-color:#000000"/>
						</linearGradient>
						
							<path style="clip-path:url(#SVGID_00000114760352063472275620000004336801763131352252_);mask:url(#SVGID_00000005257603598619971420000011757298475844570046_);fill:url(#SVGID_00000139999340619283287290000016369235545506393508_);" d="
							M419.7,90.5l-14-9.7c-0.1-1.8,0.3-3.7,1.2-5.3l17.2,12C422.9,88.8,421.4,89.9,419.7,90.5z"/>
					</g>
				</g>
			</g>
		</g>
		
			<linearGradient id="SVGID_00000088119227902660250000000004779222521218464656_" gradientUnits="userSpaceOnUse" x1="2244.2068" y1="-1204.724" x2="2244.1707" y2="-1215.0798" gradientTransform="matrix(-0.5643 0.8256 0.8256 0.5643 2678.8831 -1086.9005)">
			<stop  offset="0" style="stop-color:#FFFFFF"/>
			<stop  offset="1" style="stop-color:#FFFFFF"/>
		</linearGradient>
		<path style="opacity:0.7;fill:url(#SVGID_00000088119227902660250000000004779222521218464656_);enable-background:new    ;" d="
			M419.7,90.5l-14-9.7c-0.1-1.8,0.3-3.7,1.2-5.3l17.2,12C422.9,88.8,421.4,89.9,419.7,90.5z"/>
		<g>
			<path class="st6" d="M407.1,86.7c-0.8-1.2-1.4-2.6-1.7-4.2c-0.6-3,0-6,1.7-8.5c1.7-2.4,4.2-4.1,7.1-4.6c6-1.1,11.9,3,13.1,9.1
				c0.6,3,0,6-1.7,8.5c-1.7,2.4-4.2,4.1-7.1,4.6C414,92.4,409.6,90.3,407.1,86.7z M424.5,75.1c-2.1-3.2-6-5.1-10-4.3
				c-2.5,0.5-4.7,1.9-6.2,4c-1.5,2.2-2,4.8-1.5,7.5c1,5.4,6.2,8.9,11.4,8l0,0c2.5-0.5,4.7-1.9,6.2-4c1.5-2.2,2-4.8,1.5-7.5
				C425.7,77.4,425.2,76.2,424.5,75.1z"/>
		</g>
		<g>
			<g>
				<path class="st2" d="M422.9,163.4c0,0,6.8,5.2-3.7,18.6c-0.5,0.6-1.4,0.6-1.9,0c-2.8-3.4-9.9-13.1-4.2-18.5L422.9,163.4z"/>
			</g>
			<g>
				<path class="st8" d="M421.4,163.4c0,0,4.8,3.7-2.6,13.2c-0.3,0.4-1,0.4-1.3,0c-1.9-2.3-7.1-9.3-3-13.1L421.4,163.4z"/>
			</g>
			<g>
				<path class="st9" d="M420.3,163.1c0,0,3.3,2.5-1.8,8.9c-0.2,0.3-0.6,0.3-0.9,0c-1.3-1.6-4.8-6.3-2.1-8.9H420.3z"/>
			</g>
			<g>
				<path class="st6" d="M414,178.9c-3.1-4.7-6.2-11.6-1.5-16c0.1-0.1,0.3-0.2,0.6-0.2l9.8-0.1c0.2,0,0.4,0.1,0.5,0.2s2,1.6,2.4,4.9
					c0.5,4.2-1.5,9.2-5.9,14.9c-0.4,0.5-1,0.8-1.6,0.8s-1.2-0.3-1.6-0.8C415.9,181.6,414.9,180.4,414,178.9z M413.3,164.3
					c-4.8,5,2.2,14.4,4.5,17.2c0.1,0.1,0.3,0.2,0.4,0.2s0.2,0,0.3-0.2c8.9-11.3,5-16.3,4-17.3L413.3,164.3z"/>
			</g>
		</g>
		<g>
			<path class="st10" d="M413.8,157.2c-1.7,2.4-1.7,5.3-1.7,5.3s2.1,1.2,6.4,1.3c4.3,0,6.4-1.1,6.4-1.1s0-2.9-1.8-5.4L413.8,157.2z"
				/>
		</g>
		<g>
			<path class="st6" d="M411.3,163c-0.1-0.1-0.1-0.3-0.1-0.5c0-0.1,0-3.2,1.9-5.8c0.3-0.4,0.8-0.5,1.2-0.2c0.4,0.3,0.5,0.8,0.2,1.2
				c-1.1,1.6-1.4,3.4-1.5,4.3c0.8,0.3,2.6,0.9,5.6,0.9c2.9,0,4.7-0.5,5.5-0.8c-0.1-0.9-0.4-2.7-1.6-4.3c-0.3-0.4-0.2-0.9,0.2-1.2
				c0.4-0.3,0.9-0.2,1.2,0.2c1.9,2.6,1.9,5.7,1.9,5.9c0,0.3-0.2,0.6-0.4,0.7c-0.1,0.1-2.3,1.3-6.8,1.2c-4.5,0-6.8-1.3-6.9-1.4
				C411.5,163.2,411.4,163.1,411.3,163z"/>
		</g>
		<g>
			<path class="st2" d="M410.3,155.4c1.1,4.9,6.9,4.8,8.2,4.9c1.4,0,7.1,0.2,8.2-4.7c1.1-5-0.7-26.4-8.3-26.4
				C410.7,129.1,409.1,150.4,410.3,155.4z"/>
		</g>
		<g class="st3">
			<path class="st4" d="M419.7,160.3c2-0.5,4.1-1.6,4.7-4.4c1.1-4.8-0.6-25.3-7.7-26.4c0.5-0.2,1.1-0.4,1.7-0.3
				c7.7,0.1,9.4,21.5,8.3,26.4C425.8,159.5,421.9,160.2,419.7,160.3z"/>
		</g>
		<g class="st5">
			<path class="st6" d="M412.2,155.4c0.9,3.9,4.6,4.7,6.8,4.8c-0.7-0.7-1.2-1.6-1.5-2.8c-1-4.3,0-20.8,5.2-25.2
				c-1-1.6-2.2-2.7-3.6-3C412.5,131.1,411.1,150.7,412.2,155.4z"/>
		</g>
		<g>
			<path class="st6" d="M410.2,158c-0.5-0.7-0.8-1.5-1-2.3c-0.9-3.9-0.3-19.1,4.5-25.1c1.3-1.6,2.9-2.4,4.6-2.4s3.3,0.9,4.6,2.5
				c4.9,6.1,5.6,21.3,4.7,25.2c-0.6,2.6-2.6,5.6-9.1,5.5h-0.2C413.8,161.3,411.4,159.8,410.2,158z M421.8,132.6
				c-0.2-0.2-0.3-0.5-0.5-0.7c-0.9-1.2-1.9-1.7-3-1.7s-2,0.5-2.9,1.7c-4.1,5.1-5,19.3-4.1,23.4l0,0c0.6,2.7,2.9,4,7.1,4h0.2
				c4.1,0,6.4-1.2,7-3.9C426.4,151.5,425.5,138.2,421.8,132.6z"/>
		</g>
		<g>
			<path class="st6" d="M409.5,147.9c-0.1-0.2-0.1-0.4-0.1-0.5c0.1-0.3,0.5-0.5,0.8-0.4c5.3,1.8,11,1.8,16.3,0.2
				c0.3-0.1,0.7,0.1,0.8,0.4c0.1,0.3-0.1,0.7-0.4,0.8c-5.6,1.7-11.5,1.7-17.1-0.2C409.7,148.1,409.6,148,409.5,147.9z"/>
		</g>
	</g>
</g>
</svg>
