<?xml version="1.0" encoding="utf-8"?>
<!-- Generator: Adobe Illustrator 26.0.0, SVG Export Plug-In . SVG Version: 6.00 Build 0)  -->
<svg version="1.1" id="Layer_1" xmlns="http://www.w3.org/2000/svg" xmlns:xlink="http://www.w3.org/1999/xlink" x="0px" y="0px"
	 viewBox="0 0 4000 4000" style="enable-background:new 0 0 4000 4000;" xml:space="preserve">
<style type="text/css">
	.st0{fill:#FFFFFF;}
	.st1{opacity:0.25;}
	.st2{fill:#371B45;}
	.st3{fill:#E81818;}
	.st4{opacity:0.7;}
	.st5{opacity:0.5;}
	.st6{fill:#45C4EF;}
	.st7{opacity:0.35;}
	.st8{fill:#39A1FF;}
	.st9{fill:#121A27;}
</style>
<g>
	<g>
		<g>
			<g>
				<g>
					<path class="st0" d="M1493.9,1656c0,0,136.6,448.5,547.2,615.9c233.5,95.2,369.1-477.8,369.1-477.8l-354.8-60.2L1493.9,1656z"
						/>
				</g>
				<g class="st1">
					<g>
						<g>
							<path class="st2" d="M1493.9,1656c0,0,136.6,448.5,547.2,615.9c233.5,95.2,369.1-477.8,369.1-477.8l-354.8-60.2L1493.9,1656z
								"/>
						</g>
					</g>
				</g>
				<g>
					<path class="st2" d="M2093.1,2301.8c-19.6,0-39.4-4-59.3-12.1c-216.8-88.4-357-254.4-436.5-378.1
						c-85.9-133.8-120.4-245.3-121.8-250l-8.8-28.8l591.9,82.1l375.1,63.6l-4.7,20c-3.8,16.2-96,398.3-264.8,485.3
						C2140.8,2295.8,2117.1,2301.8,2093.1,2301.8z M1522.6,1679.4c15.6,41.4,49.9,122.4,107.8,212.3c76.4,118.7,211,277.9,418,362.3
						c33.6,13.7,65.7,12.2,98.1-4.5c132.7-68.3,218.7-360.7,239.9-440l-333.9-56.6L1522.6,1679.4z"/>
				</g>
				<g>
					<polygon class="st3" points="2234.9,1291.4 2468.8,611.5 2681.3,516.6 2710.3,1078.9 					"/>
				</g>
				<g>
					<polygon class="st3" points="2234.9,1291.4 2897.4,1570.6 3109.9,1475.6 2710.3,1078.9 					"/>
				</g>
				<g class="st1">
					<path class="st2" d="M2234.9,1291.4l475.4-212.5l399.6,396.7l-75.8,33.9L2921.9,1398c-26.4-26.2-65.4-35.1-100.6-23
						c-57.2,19.7-116.1,33.4-175.7,41.1c-32.6,4.2-65.5,6.5-98.3,7.1L2234.9,1291.4z"/>
				</g>
				<g class="st1">
					<path class="st2" d="M2234.9,1291.4l475.4-212.5l-29-562.3l-75.8,33.9l8.2,158c1.9,37.1-17.4,72.1-49.9,90.3
						c-52.8,29.5-102.3,64.2-147.8,103.5c-24.9,21.5-48.5,44.4-70.9,68.6L2234.9,1291.4z"/>
				</g>
				<g class="st4">
					<g>
						<g>
							<polygon class="st0" points="2468.8,611.5 2510.1,593 2290.2,1266.7 2234.9,1291.4 							"/>
						</g>
					</g>
				</g>
				<g class="st4">
					<g>
						<g>
							<polygon class="st0" points="2234.9,1291.4 2290.2,1266.7 2938.8,1552.1 2897.4,1570.6 							"/>
						</g>
					</g>
				</g>
				<g>
					<path class="st2" d="M2202.3,1327.1l251-729.7l245.8-109.8l31.2,603.6L2202.3,1327.1z M2484.3,625.7l-216.7,630l422.9-189
						l-26.9-521.1L2484.3,625.7z"/>
				</g>
				<g>
					<path class="st3" d="M2244.1,661.7c16.5,36.9,163.6-8.9,218.1-34.7l308.9-146.6c19-9,27.4-31.6,18.8-50.8l-8.8-19.6
						c-8.6-19.2-31-28.1-50.4-19.9l-315.3,132.4C2359.9,545.7,2227.6,624.8,2244.1,661.7"/>
				</g>
				<g class="st4">
					<g>
						<g>
							<path class="st0" d="M2415.4,522.4l33.6-14.1c-62.4,32.4-154.1,93.4-140.2,124.5c13.9,31.1,120.5,3.5,186.3-21.4l-33,15.7
								c-54.4,25.8-201.5,71.6-218,34.7C2227.6,624.8,2359.9,545.7,2415.4,522.4"/>
						</g>
					</g>
				</g>
				<g>
					<path class="st2" d="M2897.6,1591.6l-711.1-299.7l528-236l428.9,425.8L2897.6,1591.6z M2283.2,1290.9l614,258.7l179.3-80.1
						l-370.3-367.6L2283.2,1290.9z"/>
				</g>
				<g>
					<path class="st3" d="M2710.2,1704.5c-16.5-36.9,115.8-116,171.3-139.3l315.3-132.4c19.4-8.2,41.8,0.7,50.4,19.9l8.8,19.6
						c8.6,19.2,0.3,41.8-18.8,50.8l-308.9,146.6C2873.8,1695.6,2726.7,1741.4,2710.2,1704.5"/>
				</g>
				<g class="st1">
					<path class="st2" d="M2991.2,1519.1l205.6-86.3c19.4-8.2,41.8,0.7,50.4,19.9l8.8,19.6c8.6,19.2,0.3,41.8-18.8,50.8l-201.6,95.7
						c59.9-33.8,131.1-85.2,118.7-112.8C3141.9,1478.4,3056.3,1497.1,2991.2,1519.1"/>
				</g>
				<g class="st4">
					<g>
						<g>
							<path class="st0" d="M2881.5,1565.2l33.6-14.1c-62.4,32.4-154.1,93.4-140.2,124.5c13.9,31.1,120.5,3.5,186.3-21.5l-33,15.7
								c-54.4,25.8-201.5,71.6-218,34.7C2693.7,1667.6,2826,1588.5,2881.5,1565.2"/>
						</g>
					</g>
				</g>
				<g>
					<path class="st2" d="M2746.9,1737.4c-12,0-22.5-1.3-30.9-4.4c-14-5.2-20.5-14.1-23.4-20.6c-2.9-6.5-5.2-17.2,0.3-31.2
						c19.5-49.2,135.9-114.7,181.2-133.7l315.3-132.4c28.8-12.1,62.7,1.3,75.4,29.8l8.8,19.6c12.8,28.6,0.2,62.7-28.1,76.1
						l-308.9,146.6C2899.6,1704.7,2806,1737.4,2746.9,1737.4z M2728.2,1696.4c5.7,2.9,27.9,6.1,80.6-6.4
						c43.8-10.4,88.4-26.8,111.2-37.7l308.9-146.6c9.5-4.5,13.7-16,9.4-25.6l-8.8-19.6c-4.3-9.6-15.7-14.1-25.4-10L2889,1582.9
						c-23.3,9.8-65.2,32-102.2,57.7C2742.3,1671.6,2729.9,1690.2,2728.2,1696.4z"/>
				</g>
				<g class="st1">
					<path class="st2" d="M2525.1,476.4l205.6-86.3c19.4-8.2,41.8,0.7,50.4,19.9l8.8,19.6c8.6,19.2,0.3,41.8-18.8,50.8l-201.6,95.7
						c59.9-33.8,131.1-85.2,118.7-112.8C2675.8,435.6,2590.2,454.4,2525.1,476.4"/>
				</g>
				<g>
					<path class="st2" d="M2280.9,694.6c-12,0-22.5-1.3-30.9-4.4c-14-5.2-20.5-14.1-23.4-20.6l0,0c-2.9-6.5-5.2-17.2,0.3-31.2
						c19.5-49.2,135.9-114.7,181.2-133.7l315.3-132.4c28.8-12.1,62.7,1.3,75.4,29.8l8.8,19.6c12.8,28.5,0.2,62.7-28.1,76.1
						l-308.9,146.6C2433.6,661.9,2339.9,694.6,2280.9,694.6z M2262.2,653.7c5.7,2.9,27.9,6.1,80.6-6.4
						c43.8-10.4,88.4-26.8,111.2-37.7L2762.8,463c9.5-4.5,13.7-16,9.4-25.6l-8.8-19.6c-4.3-9.6-15.7-14.1-25.4-10l-315.3,132.4
						c-23.3,9.8-65.2,32-102.2,57.7C2276.2,628.8,2263.8,647.5,2262.2,653.7z M2261.7,653.9L2261.7,653.9L2261.7,653.9z"/>
				</g>
				<g>
					<path class="st0" d="M2741.4,1385.1c-120.1,123-434.7,415.9-880.4,615.1c-803.1,358.9-1400.7,211.3-1448,105.5
						c-46.2-103.3,227.9-624.3,988.6-982.9h0c18.3-8.6,36.9-17.2,55.7-25.6c138.2-61.7,274.7-108.1,402.3-142.9
						c284.2-77.4,524.7-97.6,643.2-102.8c47.3-2,90.9,24.9,110.2,68.1l151.1,337.9C2783.5,1300.7,2774.4,1351.2,2741.4,1385.1"/>
				</g>
				<g class="st1">
					<g>
						<g>
							<path class="st2" d="M1697.4,1238.2c-178.4,51.7-202,18.8-242.2-58.5c-34.5-66.4-111.8-31.2-117.8-31.1
								c18.3-8.6,36.9-17.2,55.7-25.6c138.2-61.7,274.7-108.1,402.3-142.9C1907.5,1128.2,1874.8,1186.7,1697.4,1238.2"/>
						</g>
					</g>
				</g>
				<g>
					<path class="st2" d="M888.5,2246.9c-12.1,0-23.9-0.1-35.3-0.4c-263.9-5.4-430.1-71-457.8-132.9
						c-27.7-61.9,34.3-229.4,206.3-429.7c143.2-166.8,406.6-407,847.9-604.2c451.1-201.6,886.4-240.1,1052.6-247.3
						c55.4-2.4,106,28.8,128.6,79.5l151,337.9c22.6,50.7,12.2,109.1-26.6,148.8c-116.2,119-435.2,417.7-886.3,619.3
						C1450.5,2204.8,1110,2246.9,888.5,2246.9z M1465.2,1114.8c-434.8,194.3-693.7,430.4-834.4,594.2
						c-167.9,195.5-218.8,347.6-200.3,388.9c18.5,41.3,165.8,104.8,423.4,110.2c215.9,4.5,564.4-31,999.2-225.3
						c445-198.9,759.8-493.6,874.5-611c27.7-28.4,35.2-70.1,19-106.2l-151-337.9c-16.2-36.2-52-58.4-91.8-56.7
						C2339.8,877.9,1910.3,915.8,1465.2,1114.8L1465.2,1114.8z"/>
				</g>
				<g>
					<path class="st3" d="M1651.3,1203.7c60.8-27.2,125.6-34.1,186.7-23.6c102.7,17.7,195,84.6,240.7,186.9
						c39.7,88.9,36.1,186.1-1.8,268c-31.7,68.4-87.3,126.2-161.5,159.4c-163.1,72.9-354.5-0.2-427.4-163.3
						C1415,1467.9,1488.1,1276.6,1651.3,1203.7"/>
				</g>
				<g class="st4">
					<g>
						<g>
							<path class="st0" d="M2029.2,1288.7c-46-41.9-103-69.5-163.6-80c-61.1-10.5-125.8-3.6-186.7,23.6
								c-163.1,72.9-236.3,264.2-163.4,427.4c13,29,29.7,55.2,49.3,78.2c-31.8-29-58.2-64.9-76.9-106.7
								c-72.9-163.1,0.2-354.4,163.4-427.4c60.8-27.2,125.6-34.1,186.6-23.6C1911.4,1192.8,1979.6,1230.7,2029.2,1288.7"/>
						</g>
					</g>
				</g>
				<g class="st1">
					<path class="st2" d="M2078.6,1367c39.7,88.9,36.1,186.1-1.8,268c-31.7,68.4-87.3,126.2-161.5,159.4
						c-143.3,64.1-308.3,15.4-395.8-107.9c91.1,69.4,216.3,88.1,328.3,38.1c74.3-33.2,129.9-90.9,161.5-159.3
						c37.9-81.9,41.5-179.1,1.8-268c-8.9-19.8-19.5-38.3-31.6-55.4C2021.2,1273.5,2055.7,1315.8,2078.6,1367"/>
				</g>
				<g>
					<path class="st2" d="M2605.6,902.8l46-20.6c35.6-15.9,77.3,0.1,93.2,35.6l108.5,242.8c15.9,35.6-0.1,77.3-35.6,93.2l-46,20.6
						L2605.6,902.8z"/>
				</g>
				<g class="st4">
					<g>
						<g>
							<path class="st0" d="M2605.6,902.8l46-20.6c35.6-15.9,77.3,0.1,93.1,35.6l17.9,40.2c-15.9-35.5-57.6-51.5-93.1-35.6l-46,20.6
								L2605.6,902.8z"/>
						</g>
					</g>
				</g>
				<g class="st4">
					<g>
						<g>
							<path class="st0" d="M2634.8,968l46-20.6c35.6-15.9,77.3,0.1,93.1,35.6l17.9,40.2c-5-11.1-21.8-41.2-30.9-48.2
								c-19.9-15.1-47.2-19.2-71.6-8.3l-46,20.6L2634.8,968z"/>
						</g>
					</g>
				</g>
				<g class="st4">
					<g>
						<g>
							<path class="st0" d="M2765.5,1260.4l46-20.6c35.6-15.9,51.5-57.6,35.6-93.1l-17.9-40.2c5,11.1,16.2,43.8,15.3,55.1
								c-2,24.9-17.1,48-41.5,58.9l-46,20.6L2765.5,1260.4z"/>
						</g>
					</g>
				</g>
				<g>
					<path class="st2" d="M2795.5,854c18-8.1,39.2,0,47.2,18.1l110,246.1c8.1,18,0,39.2-18.1,47.2c-5.9,2.7-12.5,3.7-19,2.8
						l-62.4-7.6l-108.5-242.8l36-51.6C2784.5,860.8,2789.6,856.7,2795.5,854"/>
				</g>
				<g class="st4">
					<g>
						<g>
							<path class="st0" d="M2795.5,854c18-8.1,39.2,0,47.3,18l15.7,35.1c-8.1-18-29.2-26.1-47.3-18c-6,2.7-11,6.9-14.8,12.2
								l-36,51.6l-15.7-35.1l36-51.6C2784.5,860.8,2789.6,856.7,2795.5,854"/>
						</g>
					</g>
				</g>
				<g class="st4">
					<g>
						<g>
							<path class="st0" d="M2936.5,1169.5c18-8.1,26.2-29.2,18.1-47.2l-15.7-35.1c8.1,18,0,39.2-18.1,47.2
								c-6,2.7-12.5,3.6-18.9,2.9l-62.5-7.6l15.7,35.1l62.4,7.6C2924.1,1173.1,2930.6,1172.2,2936.5,1169.5"/>
						</g>
					</g>
				</g>
				<g>
					<path class="st3" d="M889.8,1436.4c69.2,108,135.2,229.9,194.1,361.8c61.1,136.6,109.1,271.6,143.7,399
						c-467.8,80.6-781-16.1-814.7-91.5C379.2,2030.2,516.5,1731.6,889.8,1436.4"/>
				</g>
				<g class="st1">
					<g>
						<g>
							<path class="st2" d="M2741.4,1385.1c-120.1,123-434.7,415.9-880.4,615.1c-803.1,358.9-1400.7,211.3-1448,105.5
								c-6.3-14-6.6-35.7-0.7-63.6c32.7,81.9,389.6,224.4,587.4,10.2c101.4-109.9,25.8-377.3,25.8-377.3s131.7,211.2,334.5,247
								c130.9,23.1,254.2-11.5,369.6-63.1c445.7-199.2,760.2-492.1,880.4-615.1c33-33.9,42.1-84.4,22.8-127.5l-118.2-264.5
								c42.7,2.5,80.9,28.4,98.6,68l151.1,337.9C2783.5,1300.7,2774.4,1351.2,2741.4,1385.1"/>
						</g>
					</g>
				</g>
				<g class="st5">
					<g>
						<g>
							<path class="st0" d="M620.9,1853.4c47.1-93.5,119.5-193.8,233-278.3c78.9-58.7-40,153.5-112.1,244.3
								C621.8,1970.5,565.4,1963.5,620.9,1853.4"/>
						</g>
					</g>
				</g>
				<g class="st5">
					<g>
						<g>
							<path class="st0" d="M889.8,1436.4c4.3,6.7,8.6,13.5,12.9,20.4c-321.1,275.8-439.2,541.7-407.7,612.3
								c31.5,70.5,307.6,159.6,726.1,104.9c2.2,7.8,4.4,15.6,6.5,23.3c-467.8,80.6-781-16.1-814.7-91.5
								C379.2,2030.2,516.5,1731.6,889.8,1436.4"/>
						</g>
					</g>
				</g>
				<g>
					<path class="st2" d="M2762,1299.8l-181.8-406.7l63.6-28.4c45.2-20.2,98.4,0.1,118.6,45.3l108.5,242.8
						c9.8,21.9,10.5,46.3,1.9,68.7c-8.6,22.4-25.3,40.1-47.2,49.9L2762,1299.8z M2631.1,912.5l150.4,336.4l28.4-12.7
						c12.5-5.6,22.1-15.7,27-28.5c4.9-12.8,4.5-26.7-1.1-39.2l-108.5-242.8c-11.5-25.8-41.9-37.4-67.7-25.9L2631.1,912.5z"/>
				</g>
				<g>
					<path class="st2" d="M2920.1,1187.8c-2.3,0-4.5-0.1-6.8-0.4l-73.2-9l-117.4-262.6l42.2-60.6c5.7-8.2,13.5-14.7,22.7-18.8l0,0
						c13.4-6,28.4-6.4,42.1-1.2c13.7,5.2,24.6,15.5,30.6,29l110,246.1c6,13.4,6.4,28.4,1.2,42.1c-5.2,13.7-15.5,24.6-29,30.6
						C2935.5,1186.2,2927.8,1187.8,2920.1,1187.8z M2866.4,1142.8l51.7,6.3c3,0.4,6-0.1,8.8-1.3c4-1.8,7.1-5.1,8.7-9.2
						c1.6-4.1,1.4-8.6-0.4-12.6l-110-246.1c-1.8-4-5.1-7.1-9.2-8.7c-4.1-1.6-8.6-1.4-12.6,0.4l0,0c-2.7,1.2-5.1,3.2-6.8,5.6
						l-29.8,42.7L2866.4,1142.8z"/>
				</g>
				<g>
					<path class="st2" d="M1783.4,1842c-41.3,0-82.7-7.6-122.5-22.8c-85.5-32.7-153.2-96.7-190.6-180.3
						c-37.4-83.6-39.9-176.7-7.2-262.3s96.7-153.2,180.3-190.6c83.6-37.4,176.7-39.9,262.3-7.2c85.5,32.7,153.2,96.7,190.6,180.3
						c37.4,83.6,39.9,176.7,7.3,262.3c-32.7,85.5-96.7,153.2-180.3,190.6C1878.4,1832,1831,1842,1783.4,1842z M1783.2,1194.6
						c-42.2,0-84.3,8.9-124,26.6c-74.2,33.2-131,93.2-160.1,169.2c-29,75.9-26.7,158.6,6.4,232.8c33.2,74.2,93.2,131.1,169.2,160.1
						c75.9,29,158.6,26.7,232.8-6.4c74.2-33.2,131-93.2,160.1-169.2c29-75.9,26.7-158.6-6.4-232.8c-33.2-74.2-93.2-131-169.2-160.1
						C1856.6,1201.3,1819.8,1194.6,1783.2,1194.6z"/>
				</g>
				<g>
					<path class="st6" d="M1999.1,1402.6c33.2,74.3,25,156.6-14.8,221c-14.8,24-34.1,45.5-57.2,63.2c-14.3,11-30.2,20.4-47.3,28.1
						c-14.5,6.5-29.3,11.4-44.2,14.8c-42.1,9.6-85,7.2-124.5-5.5c-61.7-19.8-115-64.8-143.5-128.6c-32.2-72.1-25.4-151.7,11.4-215.1
						c20.6-35.7,50.7-66.3,88.7-87.5c6.2-3.5,12.6-6.7,19.3-9.7c12.8-5.7,25.8-10.2,39-13.5c41.4-10.4,83.9-9.1,123.3,2.3
						C1913.5,1290.6,1969.6,1336.5,1999.1,1402.6"/>
				</g>
				<g class="st1">
					<path class="st2" d="M1976.1,1362.1c8.8,12.5,16.6,26,23,40.5c33.2,74.3,25,156.6-14.8,221c-14.8,24-34.1,45.5-57.2,63.2
						c-14.3,11-30.1,20.4-47.3,28.1c-14.5,6.5-29.3,11.4-44.2,14.8c-42.1,9.6-85,7.2-124.5-5.5c-61.7-19.8-115-64.8-143.5-128.6
						c-0.5-1.2-1-2.3-1.5-3.5c30.1,42.5,72.8,72.8,120.5,88.2c39.5,12.7,82.5,15.1,124.5,5.5c14.9-3.4,29.7-8.3,44.2-14.8
						c17.2-7.7,33-17.2,47.3-28.1c23.1-17.7,42.4-39.2,57.2-63.2C1998.9,1516.2,2007.5,1435.5,1976.1,1362.1"/>
				</g>
			</g>
			<g>
				<g>
					<path class="st2" d="M1783.4,1754.8c-30.8,0-61.7-5.7-91.4-17c-63.8-24.4-114.3-72.1-142.1-134.5
						c-57.5-128.7,0.4-280.2,129.1-337.7c62.4-27.9,131.8-29.8,195.6-5.4c63.8,24.4,114.3,72.1,142.1,134.5
						c27.9,62.3,29.8,131.8,5.4,195.6c-24.4,63.8-72.1,114.3-134.5,142.1C1854.2,1747.3,1818.8,1754.8,1783.4,1754.8z
						 M1783.2,1281.7c-30.1,0-60.2,6.4-88.5,19l0,0c-109.3,48.9-158.5,177.6-109.7,286.9c23.7,53,66.5,93.5,120.7,114.2
						s113.2,19.1,166.1-4.6c53-23.7,93.5-66.5,114.2-120.7c20.7-54.2,19.1-113.2-4.6-166.1c-23.7-53-66.5-93.5-120.7-114.2
						C1835.6,1286.5,1809.4,1281.7,1783.2,1281.7z M1686.8,1283.2L1686.8,1283.2L1686.8,1283.2z"/>
				</g>
				<g>
					<path class="st3" d="M2477.2,1183.1c16.5,36.9,163.6-8.9,218.1-34.7l308.9-146.6c19-9,27.4-31.6,18.8-50.8l-8.8-19.6
						c-8.6-19.2-31-28.1-50.4-19.9l-315.3,132.4C2592.9,1067.1,2460.7,1146.2,2477.2,1183.1"/>
				</g>
				<g class="st4">
					<g>
						<g>
							<path class="st0" d="M2648.5,1043.8l40.5-17c-62.4,32.7-151.4,92.5-137.7,123.2c13.7,30.7,117.7,4.2,183.7-20.4l-39.8,18.9
								c-54.4,25.8-201.5,71.6-218,34.7C2460.7,1146.2,2592.9,1067.1,2648.5,1043.8"/>
						</g>
					</g>
				</g>
				<g>
					<path class="st2" d="M888.4,2247c-97.2,0-175.5-8.3-234.1-18.1c-138.2-23.1-237.5-67.3-258.9-115.3
						c-21.5-48.2,11.8-151.8,87.1-270.4c63.4-99.9,183.5-254.3,395.4-421.9l16.7-13.2l11.5,17.9c71.7,111.8,137.4,234.4,195.5,364.3
						c60.1,134.4,108.8,269.6,144.7,401.8l5.5,20.4l-20.9,3.6C1098.9,2238.9,984.5,2247,888.4,2247z M885.1,1464.8
						c-197.3,159.1-309.9,304.2-370.1,399c-76.2,120.1-97.2,205.6-84.5,234.1c12.7,28.5,90.2,69.7,230.1,93.1
						c110.4,18.4,293.2,31.4,542.7-9.2c-34.8-123.8-80.8-250-137-375.7C1012.2,1684.8,951.3,1570.1,885.1,1464.8z"/>
				</g>
				<g class="st1">
					<path class="st2" d="M2757.9,997.2l205.6-86.3c19.4-8.2,41.8,0.7,50.4,19.9l8.8,19.6c8.6,19.2,0.3,41.8-18.8,50.8l-201.6,95.7
						c59.9-33.8,131.1-85.2,118.7-112.8C2908.6,956.5,2823,975.3,2757.9,997.2"/>
				</g>
				<g>
					<path class="st2" d="M2513.9,1216c-12,0-22.5-1.3-30.9-4.4c-14-5.2-20.5-14.1-23.4-20.6l0,0c-2.9-6.5-5.2-17.2,0.3-31.2
						c19.5-49.2,135.9-114.7,181.2-133.7l315.2-132.4c28.8-12.1,62.7,1.3,75.4,29.8l8.8,19.6c12.8,28.5,0.2,62.7-28.1,76.1
						l-308.9,146.6C2666.6,1183.3,2573,1216,2513.9,1216z M2495.2,1175c5.7,2.9,27.9,6.1,80.6-6.4c43.8-10.4,88.4-26.8,111.2-37.7
						l308.9-146.6c9.5-4.5,13.7-16,9.4-25.6l-8.8-19.6c-4.3-9.6-15.7-14.1-25.4-10l-315.2,132.4c-23.3,9.8-65.2,32-102.2,57.7
						C2509.2,1150.2,2496.8,1168.9,2495.2,1175z M2494.7,1175.3L2494.7,1175.3L2494.7,1175.3z"/>
				</g>
				<g>
					<path class="st0" d="M2892.1,2066.4c83.9,102.8,87.2,494.1,9,707.5c-78.2,213.4-469.9,133.8-689.9,71.7
						c-219.9-62.1-95-563.1-58.8-696.7C2209,1940.3,2767.7,1914,2892.1,2066.4"/>
				</g>
				<g class="st1">
					<g>
						<g>
							<path class="st2" d="M2211.2,2845.6c219.9,62.1,611.6,141.7,689.9-71.7c10.2-27.9,19.1-58.9,26.5-91.9
								c-73.1,33-147.8-31-143.5-92.4c13.8-197.4-6.9-338.9-37.5-438.2c-35.4-114.9-147.4-189.9-267-177.4
								c-155.8,16.2-299.9,74.4-327.1,175C2116.3,2282.4,1991.3,2783.5,2211.2,2845.6"/>
						</g>
					</g>
				</g>
				<g>
					<path class="st2" d="M2615.4,2932.5c-128.1,0-276.6-30.9-409.4-68.4c-103.4-29.2-150.3-143.9-139.4-341.1
						c7.5-135.7,40.7-281.1,67.3-379.1c22.4-82.6,114-145,258.1-175.7c182.2-38.8,430.9-17,515,86c60.4,74,68.8,251.4,69.7,324.2
						c1.7,149-19.8,299.3-57.5,402.1C2877.8,2893.4,2759.5,2932.5,2615.4,2932.5z M2571,1988.2c-56.2,0-114.7,5.7-171,17.7
						c-127.4,27.2-210.8,81.1-229,148.1c-39,143.9-150.9,617.7,45.4,673.1c218.2,61.5,594.9,135.6,666.6-59.8
						c75.7-206.6,72.4-592.8-5.9-688.7C2830.6,2021.5,2707.4,1988.2,2571,1988.2z"/>
				</g>
				<g>
					<path class="st0" d="M2779.1,2428.9l108.1-14.8c24.4-3.4,46.3,15.4,46.6,40.1c0.9,84.9-8.2,258-96.8,271.9
						c-107.4,16.9-114.1-103.8-93-262.1C2746.5,2445.8,2760.9,2431.4,2779.1,2428.9"/>
				</g>
				<g class="st1">
					<g>
						<g>
							<path class="st2" d="M2744.3,2463.8c-21.5,158.3-15.1,279,92.4,262.3c44.1-6.8,68.6-53.2,82-108.4
								c-12,13.8-26.7,23.1-44.6,25.9c-96.2,14.9-111.4-80.3-98-214.1C2759.4,2433.1,2746.6,2446.8,2744.3,2463.8"/>
						</g>
					</g>
				</g>
				<g>
					<path class="st2" d="M2817.8,2747c-26,0-47.5-8.2-64.1-24.5c-39.5-38.8-48.1-116.9-28.5-261.2c3.6-26.7,24.9-47.9,51.7-51.5
						l108.1-14.6c17.1-2.3,34.5,2.9,47.6,14.2c13,11.3,20.6,27.7,20.8,44.9c0.9,101.9-12.8,275.2-113.7,290.9
						C2832,2746.4,2824.8,2747,2817.8,2747z M2893.2,2433.1c-1,0-2,0.1-3,0.2l-108.1,14.6c-9.7,1.3-17.3,8.9-18.6,18.5
						c-6.3,46.2-25.3,186.8,17.3,228.6c12.1,11.8,29.4,15.8,53,12.2c52.1-8.1,82.4-102.5,81.1-252.5c-0.1-6.3-2.7-12-7.5-16.2
						C2903.3,2434.9,2898.4,2433.1,2893.2,2433.1z M2779.4,2428.8L2779.4,2428.8L2779.4,2428.8z"/>
				</g>
				<g>
					<path class="st2" d="M2910.1,2119.5c-12.6-0.2-25.6-0.1-38.4,0c-12.8,0.2-25.7,0.5-38.5,1.1c-25.7,1.1-51.3,2.8-76.7,6.1
						l-0.1,0c-4.9,0.6-9.3-2.8-9.9-7.7c-0.6-4.5,2.4-8.7,6.7-9.8c25.6-6.3,51.4-11.1,77.4-15.1c13-2,25.9-3.9,38.9-5.5
						c13-1.7,25.9-3.2,39.2-4.5c9.8-1,18.5,6.2,19.5,16c1,9.8-6.2,18.5-16,19.5c-0.7,0.1-1.3,0.1-2,0.1L2910.1,2119.5z"/>
				</g>
				<g>
					<path class="st0" d="M2397.8,2638.2c-9.1,40.4-17,79.4-23.6,117.2c-19.4,109.9-29.1,208.3-33.7,295.2
						c-15,282.7,23.8,443.6-43.7,483.1c-43.8,25.6-109.5,44.5-219.9,43.1c-143.7-1.8-234-7.6-230.3-127.4
						c2.9-95.7,158.8-118.5,158.8-118.5c-46.1-172.3-54.3-359.7-49.4-513.3c1.8-58.8,5.6-112.6,9.9-158.7
						c9.2-99.9,20.9-163.7,20.9-163.7L2397.8,2638.2z"/>
				</g>
				<g class="st1">
					<g>
						<g>
							<path class="st2" d="M2374.3,2755.3c-1.4,8.1-2.8,16.1-4.1,24.1c-1,5.6-1.9,11.1-2.7,16.6c-1.1,6.7-2.1,13.3-3.1,19.9
								c-1,6.3-1.9,12.6-2.8,18.8c-0.1,0.6-0.2,1.3-0.3,1.9c-0.9,6-1.7,12-2.5,17.9c0,0.3-0.1,0.5-0.1,0.8
								c-0.9,6.3-1.7,12.6-2.4,18.8c-0.8,6.3-1.6,12.6-2.3,18.8c-0.8,6.3-1.5,12.5-2.1,18.6c-0.7,6.1-1.3,12.3-2,18.3
								c-0.6,6.1-1.2,12.1-1.8,18.1c-1.1,12-2.2,23.8-3.1,35.4c-0.4,4.7-0.8,9.3-1.1,13.9c-1,12.9-1.8,25.5-2.5,37.9
								c-0.3,5.2-0.6,10.3-0.9,15.4c-15,282.7,23.8,443.6-43.7,483.1c-43.8,25.6-109.5,44.5-219.9,43.1
								c-131.7-1.6-218.5-6.6-229.3-99.6c39.4,25.6,105.1,28,189,29.1c110.4,1.4,176.2-17.5,219.9-43.1
								c46-26.8,41.8-121.9,34.8-262.5c-4.4-89.3-60.8-167.8-144-200.5c-110-43.2-164.5-110.3-191.4-182.5
								c1.8-58.8,5.6-112.6,9.9-158.7c64.7-31.4,239.1,27.9,359.8,76.4C2343.1,2742.2,2359.5,2749,2374.3,2755.3"/>
						</g>
					</g>
				</g>
				<g>
					<path class="st2" d="M2088.2,3596.1c-3.8,0-7.7,0-11.6-0.1c-105.4-1.3-177.6-5.4-218.3-47.9c-22.2-23.2-32.4-55.7-31-99.3
						c2.7-88.2,108.2-122.2,154.3-132.9c-93.8-376.6-14.6-819.7-13.8-824.2c1.9-10.5,12-17.4,22.4-15.5
						c10.5,1.9,17.4,11.9,15.5,22.4c-0.8,4.5-81.2,455,18.3,827.2l5.6,20.9l-21.4,3.1c-1.4,0.2-139.9,21.7-142.3,100.1
						c-1,32.8,5.7,56.2,20.4,71.5c30.2,31.6,98.2,34.9,191,36c92.6,1.2,161.3-12.1,210-40.5c34.3-20,33.1-97.8,31.3-215.4
						c-2.3-148.9-5.8-373.9,60.6-667.6c2.4-10.4,12.7-16.9,23-14.5c10.4,2.3,16.9,12.7,14.5,23c-65.4,289.2-62,511.4-59.7,658.5
						c2.1,135.9,3.4,217.9-50.4,249.3C2253.8,3581,2182.3,3596,2088.2,3596.1z"/>
				</g>
				<g>
					<path class="st2" d="M2187.2,3183.5c-64.5,0-144-13.6-230.5-58.2c-9.5-4.9-13.2-16.5-8.3-25.9c4.9-9.5,16.5-13.2,25.9-8.3
						c197.7,102,358.1,26.3,359.7,25.5c9.5-4.6,21.1-0.7,25.7,8.9c4.7,9.5,0.7,21-8.8,25.7
						C2346.7,3153.3,2283.5,3183.5,2187.2,3183.5z"/>
				</g>
				<g>
					<path class="st2" d="M2004.5,3313c14.2,0.2,27.3,1.3,40.8,2.6c13.4,1.5,26.8,3.3,40.1,5.9c13.3,2.7,26.5,5.8,39.5,10.2
						c13,4.5,25.8,9.9,37.8,17.4c4.2,2.6,5.4,8.1,2.8,12.2c-2.4,3.9-7.3,5.2-11.3,3.3l-0.3-0.1c-10.9-5.2-22.8-8.7-34.9-11.4
						c-12.2-2.7-24.7-4.2-37.3-5.3c-12.6-1.1-25.3-1.3-38-1.3c-12.6,0.1-25.6,0.6-37.6,1.8l-0.2,0c-9.8,1-18.5-6.2-19.4-16
						c-0.9-9.8,6.2-18.5,16-19.4C2003.1,3313,2003.8,3313,2004.5,3313"/>
				</g>
				<g>
					<path class="st0" d="M3465.2,2054.6c-178.5,159.8-323.3,226.2-439.3,255.1c-118.6,29.5-249.5,28.5-303.1,19
						c-5.8-1-10.7-2.1-14.6-3.3c-46.2-14.2-61.9-93.2-61.9-93.2l33.1-133.4l31.5-126.9c12.3,1.5,24.4,2.6,36.4,3.2
						c21.2,1.1,41.9,0.8,62.1-0.8c200.6-14.9,347.8-143.9,347.8-143.9s16-178.1,94.2-172.7c54.7,3.8,42.2,81.5,51.1,76.6
						c62.5-34.1,128.6-84.4,174.6-40.3c32.6,31.3,9.9,83.3,9.9,83.3s64.6-6.5,97.2,107.2C3615.9,1995.6,3512.1,2012.6,3465.2,2054.6
						"/>
				</g>
				<g class="st1">
					<g>
						<g>
							<path class="st2" d="M2646.2,2304.1l87.5,27.3c167.2,10.2,407.4,13.2,731.4-276.8c46.9-42,150.7-58.9,118.8-170.1
								c-19.5-68.3-50.7-93.2-72.4-102.3c6.3,12.4,10,28.1,17.4,45.2c41.1,96.1-109.3,167.9-146.1,147.5
								c-22.6-12.5-29.9-23-38.5-69.9c-9.1-49.9-29.2-75.4-32.2-72.7c-13.7,12.3-33,180.3-67.6,236.3
								c-88.2,142.7-308.6,225.5-455,150.4c-30.9-15.8-43.3-38.8-58.5-43.1c-35.5-9.8-48.8,35-71.4,58.9
								C2653.6,2241.2,2643.8,2294.6,2646.2,2304.1"/>
						</g>
					</g>
				</g>
				<g>
					<path class="st2" d="M2812.2,2353.8c-51,0-91.1-4.3-109.7-10c-55.6-17-73.3-98.6-75.2-107.9c-2.1-10.4,4.7-20.6,15.1-22.6
						c10.4-2.1,20.6,4.7,22.6,15.1c3.6,17.6,20.1,69.8,48.7,78.6c36.9,11.3,178.9,15.9,307.4-16c140.6-34.9,281.6-116.9,431.1-250.7
						c13.3-11.9,30-21.7,46.3-31.1c46.5-27.1,86.6-50.5,66.9-119.4c-27.2-94.8-75.1-93.5-77.2-93.4c-6.7,0.7-13.2-2.3-17.3-7.8
						c-4-5.5-4.6-12.8-1.9-19c0.1-0.3,16.7-40.2-5.6-61.7c-26.9-25.8-64.8-6.9-124.1,27.5c-9.1,5.3-18.6,10.7-27.9,15.8
						c-6,3.3-13.2,3.4-19.2,0.4c-10.7-5.4-12.1-15.9-13.7-28c-3.8-29.2-9.6-45.3-28.7-46.6c-0.6,0-1.3-0.1-1.9-0.1
						c-43.5,0-67.1,104.1-71.7,155.3c-0.4,4.9-2.8,9.5-6.5,12.8c-8.3,7.3-206.7,178.2-461.5,146.1c-10.5-1.3-18-11-16.7-21.5
						c1.3-10.5,10.9-18,21.5-16.7c214.5,27,392.1-105.4,425.6-132.2c4.6-40.2,27.3-188.1,113.8-182.1c44.9,3.1,57.6,41.6,62.2,66.6
						c1.8-1,3.6-2.1,5.3-3.1c56.4-32.7,120.4-69.7,170.1-21.9c26.3,25.3,25.6,59.3,21.1,81.7c26.8,8.4,67.5,35.1,91.1,117.5
						c27.9,97.6-37.1,135.5-84.6,163.2c-15.2,8.9-29.6,17.3-40,26.5c-154.3,138-300.6,222.9-447.5,259.4
						C2954.7,2347.2,2875.1,2353.8,2812.2,2353.8z"/>
				</g>
				<g>
					<path class="st2" d="M3316.5,1728l-2.6,63l-2.6-10.4h0c2,3.8,3.1,6.5,4.4,9.6c1.2,3,2.3,6.1,3.3,9.2c2,6.1,3.5,12.4,4.6,18.7
						c2.3,12.7,2.7,25.8,1,38.6c-0.6,6.5-2.5,12.7-4.1,19c-2.4,6-4.4,12.2-7.7,17.7c-1.6,2.8-2.9,5.7-4.8,8.2l-5.6,7.6
						c-1.7,2.6-4,4.8-6.2,7l-6.4,6.7c-3.4,3.5-9,3.6-12.5,0.3c-3.3-3.1-3.6-8.2-0.9-11.7l0.6-0.8c6.4-8.5,12.4-17,15.7-26.7
						c2.1-4.6,2.9-9.6,4.2-14.4c0.5-5,1.4-9.8,1.2-14.8c0-9.9-1.6-19.8-4.7-29.4c-1.6-4.8-3.3-9.5-5.5-14c-1-2.3-2.2-4.5-3.4-6.6
						c-1.1-2-2.6-4.5-3.5-5.6l-0.3-0.5c-1.7-3.1-2.4-6.5-2.3-9.8l2.6-61.4l0-0.9c0.4-9.8,8.7-17.4,18.5-17
						C3309.3,1710,3316.9,1718.2,3316.5,1728"/>
				</g>
				<g>
					<path class="st2" d="M3074.2,2311c-5.4,0-10.8-2.3-14.6-6.7c-112.2-130.3-92.5-365.2-91.6-375.1c1-10.6,10.3-18.4,20.9-17.4
						c10.6,0.9,18.4,10.3,17.5,20.9c-0.2,2.3-19.1,228.6,82.4,346.5c6.9,8.1,6,20.2-2,27.1C3083.1,2309.5,3078.6,2311,3074.2,2311z"
						/>
				</g>
				<g class="st7">
					<g>
						<g>
							<path class="st2" d="M1802.3,2777.6c1.8,7.5,3.7,14.9,5.8,22.1C1806,2792.4,1804.1,2785.1,1802.3,2777.6"/>
						</g>
					</g>
				</g>
				<g>
					<path class="st0" d="M2765.4,1791.9c-7.1,67.3-13.1,127.9-18.2,183.1c-2.6,28.1-5,54.7-7.1,80.1
						c-9.3,111.5-14.4,198.5-17.4,273.6c-2.5,64.2-3.5,119.6-4.2,174.3c-0.6,44.6-1.1,88.6-2,136.3c-0.1,3.2-0.1,6.6-0.2,9.9
						c-2.8,131.5,17.3,251.3-286.7,284.2c-373.3,40.3-522.5-91-507.4-438.2c5.2-120.4,49.3-298.9,92.8-449.8
						c0.2-0.7,0.4-1.4,0.6-2.1l93.1-120C2121.9,1787.5,2774.7,1705.1,2765.4,1791.9"/>
				</g>
				<g class="st1">
					<g>
						<g>
							<path class="st2" d="M2705.4,2785c-20.5,71.7-82.9,127.6-275.9,148.4c-245,26.5-393.4-21-462.3-154.9
								c104.9,60.2,263.9,78.7,484.6,59.9C2571.6,2828.3,2651.8,2809.7,2705.4,2785"/>
						</g>
					</g>
				</g>
				<g class="st1">
					<g>
						<g>
							<path class="st2" d="M2809.3,1974.3c-17.6,29.4-41,56.6-69.2,80.9c-18.3,15.8-38.7,30.4-60.8,43.6
								c-80.4,47.8-183.7,76.6-296.4,76.6c-149.9,0-283.1-50.9-368-129.9c0.2-0.7,0.4-1.4,0.6-2.1l93.1-120
								c13.2-135.7,666-218.2,656.7-131.3c-7.1,67.3-13.1,127.9-18.2,183.1C2768.4,1976.1,2789.1,1975.8,2809.3,1974.3"/>
						</g>
					</g>
				</g>
				<g>
					<path class="st2" d="M2032.3,1907.4c-0.6,0-1.3,0-1.9-0.1c-10.6-1-18.3-10.4-17.3-21c3-31.2,29.6-57.6,81.2-80.9
						c165.5-74.6,593-103.9,672.7-46.2c17.1,12.4,18.3,27.1,17.5,34.8c-1.1,10.6-10.6,18.2-21.2,17.1c-10-1.1-17.4-9.6-17.2-19.5
						c-7.2-7.8-55.5-26.6-198-24.1c-115.3,2-245.8,17.7-340.6,41c-112,27.6-154.1,60.2-156.2,81.4
						C2050.5,1899.9,2042.1,1907.4,2032.3,1907.4z"/>
				</g>
				<g>
					<path class="st2" d="M2024.1,2045.8c-17.8,90.8-40.4,179.9-58.7,269.7c-8.9,44.9-16.6,90-21.3,135c-2.2,22.6-3.6,44.8-3.9,67.6
						c-0.5,11.4-0.1,22.6-0.1,34c0.1,11.3,0.8,22.6,1.1,33.8c1.6,22.4,3.4,44.9,7.2,66.8c1.5,11.1,4.1,21.9,6.3,32.7
						c1.1,5.4,2.8,10.7,4.1,16l2.1,8c0.8,2.7,1.7,5.2,2.5,7.8c6.3,21.1,15,41.1,25.5,60c10.5,18.8,22.9,36.5,37.8,51.7
						c14.8,15.4,31.6,28.7,49.8,39.9c18.2,11.4,38.3,19.9,58.9,27.1c41.3,14.2,85.8,20.5,130.5,23.2c44.8,2.7,90.2,0.8,135.5-3
						c22.7-2.1,45.3-4.3,67.6-7.8c11.2-1.5,22.2-3.7,33.3-5.6c10.9-2.4,22-4.5,32.7-7.4c21.5-5.5,42.6-12.2,62.3-21
						c19.6-8.8,37.9-19.8,52.8-33.6c7.4-7,13.9-14.6,19.6-22.9c5.4-8.4,10-17.4,13.7-26.9c7.1-19.2,10.6-40.4,12.1-62.5
						c1.6-22.1,1.6-44.9,2-68.2l1.5-69.3c0.9-46.1,1.3-92.3,2.7-138.5c2.5-92.5,8.4-185.2,20.3-277l0-0.1c0.6-4.9,5.1-8.3,10-7.7
						c4.5,0.6,7.8,4.5,7.8,8.9l-3.1,276.5l-1.2,138.4l-1,69.2c-0.2,22.9,0,46.2-1.6,70.3c-1.6,23.9-5.1,48.8-13.9,73.1
						c-4.5,12.1-10.3,23.8-17.4,34.8c-7.3,10.9-15.8,20.9-25.1,29.8c-18.9,17.7-40.7,30.8-63.1,41.1c-22.4,10.2-45.5,17.6-68.6,23.5
						c-11.6,3.1-23.2,5.4-34.8,8c-11.6,2.1-23.3,4.4-35,6c-23.3,3.7-46.7,6.1-70,8.3c-46.7,4.1-93.8,6.2-141.2,3.5
						c-47.3-2.7-95.2-9.5-141.2-25.5c-22.9-8.1-45.6-17.7-66.6-30.9c-21-13-40.6-28.6-57.8-46.6c-17.3-17.9-31.7-38.4-43.5-59.9
						c-11.8-21.5-21.5-44.2-28.4-67.3c-0.9-2.9-1.9-5.8-2.7-8.7l-2.3-8.7c-1.4-5.8-3.2-11.6-4.4-17.5c-2.4-11.8-5-23.5-6.6-35.3
						c-3.9-23.6-5.6-47.3-7.1-70.9c-0.3-11.8-0.9-23.6-0.9-35.4c0.1-11.8-0.2-23.6,0.4-35.3c0.5-23.4,2.1-47.3,4.6-70.6
						c5.3-46.8,13.5-92.7,22.9-138.3c19-91.1,43.6-180.7,76.8-267.4c1.8-4.6,6.9-6.9,11.5-5.1
						C2022.7,2037.3,2025,2041.6,2024.1,2045.8L2024.1,2045.8z"/>
				</g>
				<g>
					<path class="st0" d="M1859.1,2495.3c0,36.7,29.8,66.5,66.5,66.5c36.7,0,66.5-29.8,66.5-66.5s-29.8-66.5-66.5-66.5
						S1859.1,2458.6,1859.1,2495.3"/>
				</g>
				<g class="st7">
					<g>
						<g>
							<path class="st2" d="M1859.1,2495.3c0,36.7,29.7,66.5,66.5,66.5s66.5-29.8,66.5-66.5c0-10.1-2.3-19.8-6.4-28.4
								c-10.7,22.4-33.6,38-60.1,38s-49.4-15.6-60.1-38C1861.4,2475.5,1859.1,2485.1,1859.1,2495.3"/>
						</g>
					</g>
				</g>
				<g>
					<path class="st2" d="M1925.6,2581c-47.3,0-85.7-38.5-85.7-85.7c0-47.3,38.5-85.7,85.7-85.7c47.3,0,85.7,38.5,85.7,85.7
						C2011.3,2542.5,1972.9,2581,1925.6,2581z M1925.6,2448c-26,0-47.2,21.2-47.2,47.2c0,26,21.2,47.2,47.2,47.2
						c26,0,47.2-21.2,47.2-47.2C1972.8,2469.2,1951.6,2448,1925.6,2448z"/>
				</g>
				<g class="st1">
					<g>
						<g>
							<path class="st2" d="M2718.5,2503c-0.6,44.6-1.1,88.6-2,136.3c-41,12.4-147.4,36.7-272.4,4.4l-1.3,21.7
								c-2.5,41.6-38.5,73.5-80,71.1l-350.8-20.9c-41.5-2.5-73.5-38.5-71-80l2.3-38.8l8.8-147.9c2.4-41.6,38.5-73.5,80-71
								l350.8,20.9c5.2,0.3,10.2,1.1,15,2.4c34,9.1,58.2,41.2,56,77.6l-2.5,42.2C2494.8,2524.4,2627.3,2531.7,2718.5,2503"/>
						</g>
					</g>
				</g>
				<g>
					<path class="st0" d="M1994.9,2660.2l350.8,20.9c41.5,2.5,77.6-29.5,80-71.1l11.1-186.7c2.2-36.4-22.1-68.5-56.1-77.6
						c-4.8-1.3-9.8-2.1-15-2.4l-350.8-20.9c-41.6-2.5-77.6,29.5-80,71.1l-8.8,147.9l-2.3,38.8
						C1921.4,2621.7,1953.4,2657.7,1994.9,2660.2"/>
				</g>
				<g class="st1">
					<g>
						<g>
							<path class="st2" d="M1994.9,2660.2l350.8,20.9c41.5,2.5,77.6-29.5,80-71.1l11.1-186.7c2.2-36.4-22.1-68.5-56.1-77.6
								c-20.7,12-33.9,19.8-33.9,19.8c-26,148.8-26,260.3-257.6,231.1c-79.8-10.1-132.1-36.8-163.2-55.2l-2.3,38.8
								C1921.4,2621.7,1953.4,2657.7,1994.9,2660.2"/>
						</g>
					</g>
				</g>
				<g>
					<path class="st2" d="M2350.3,2695.7c-1.8,0-3.6-0.1-5.4-0.2l-350.8-20.9c-49.6-3-87.6-45.7-84.6-95.3l11.1-186.7
						c1.4-23.9,12.1-46,30.2-62s41.1-24.1,65.1-22.6l350.8,20.9c23.9,1.4,46,12.1,62,30.2c16,18,24.1,41.2,22.6,65.1l-11.1,186.7
						c-1.4,23.9-12.1,46-30.2,62C2393.3,2687.7,2372.3,2695.7,2350.3,2695.7z M2010.5,2336.7c-14.9,0-29.2,5.4-40.6,15.5
						c-12.3,10.9-19.6,25.9-20.5,42.1l-11.1,186.7c-2,33.7,23.8,62.8,57.5,64.8l350.8,20.9c16.2,1,32-4.5,44.2-15.4
						c12.3-10.9,19.6-25.8,20.5-42.1l11.1-186.7c1-16.2-4.5-32-15.4-44.2s-25.9-19.6-42.1-20.5l-350.8-20.9
						C2012.9,2336.7,2011.7,2336.7,2010.5,2336.7z"/>
				</g>
				<g>
					<path class="st0" d="M1980.9,2658c4.5,1.2,9.1,1.9,14,2.2l350.8,20.9c30.4,1.8,57.9-14.8,71.4-40.3c4.9-9.2,8-19.6,8.6-30.7
						l5-82.9l1.6-27.4l4.5-76.4c2.5-41.6-29.5-77.6-71.1-80l-75.8-4.5c34.6,8.7,59.3,41.1,57.2,77.8l-6,100.8l-5.1,85.9
						c-2.5,41.5-38.5,73.5-80,71.1L1980.9,2658z"/>
				</g>
				<g class="st1">
					<g>
						<g>
							<path class="st2" d="M1980.9,2658c4.5,1.2,9.1,1.9,14,2.2l350.8,20.9c41.5,2.5,77.6-29.5,80-71.1l6.6-110.3
								c-10,19-27.3,42-52.8,43c-14,0.6-27.1-10.2-38.4-25.2l-5.1,85.9c-2.5,41.5-38.5,73.5-80,71.1L1980.9,2658z"/>
						</g>
					</g>
				</g>
				<g>
					<path class="st2" d="M2350.3,2695.7c-1.8,0-3.6-0.1-5.5-0.2l-350.8-20.9c-5.6-0.3-11.3-1.2-16.8-2.6l4.5-28.4l275.2,16.4
						c16.2,1,31.9-4.5,44.2-15.4c12.3-10.9,19.6-25.9,20.5-42.1l11.1-186.7c1.7-29.3-17.7-55.8-46.2-63l4.4-28.4l75.8,4.5
						c24,1.4,46,12.2,62,30.2c16,18.1,24.1,41.2,22.6,65.1l-11.1,186.7c-1.4,23.9-12.1,46-30.2,62
						C2393.3,2687.7,2372.3,2695.7,2350.3,2695.7z M2321.4,2665.2l25.2,1.5c16.2,1,31.9-4.5,44.2-15.4
						c12.3-10.9,19.6-25.9,20.5-42.1v0l11.1-186.7c1-16.2-4.5-32-15.4-44.2c-10.9-12.3-25.9-19.6-42.1-20.6l-22.6-1.3
						c13.3,16.9,20.6,38.4,19.3,61.2l-11.1,186.7C2349.1,2627.6,2338.8,2649.2,2321.4,2665.2z"/>
				</g>
				<g>
					<path class="st3" d="M2203.2,2503.3c-0.4,6.9,6.3,63.2,6.3,63.2s17.7,0.9,39.3,2.1c27.1,1.5,50.6-25.4,52.4-60
						c1.9-34.6-18.6-63.8-45.7-65.3c-18.3-1-39.3-2.1-39.3-2.1S2203.8,2492,2203.2,2503.3"/>
				</g>
				<g class="st7">
					<g>
						<g>
							<path class="st8" d="M2203.2,2503.3c-0.4,6.9,6.3,63.2,6.3,63.2s17.7,0.9,39.3,2.1c27.1,1.5,50.6-25.4,52.4-60
								c1.9-34.6-18.6-63.8-45.7-65.3c-18.3-1-39.3-2.1-39.3-2.1S2203.8,2492,2203.2,2503.3"/>
						</g>
					</g>
				</g>
				<g>
					<path class="st2" d="M2251,2578.2c-0.9,0-1.8,0-2.7-0.1l-47.4-2.5l-1-8c-1.6-13.4-6.8-57.6-6.4-64.8l0,0
						c0.6-11.8,12-58.6,13.3-63.9l1.9-7.7l47.3,2.5c32.4,1.7,56.9,35.6,54.8,75.4c-1,18.9-7.8,36.4-19.1,49.4
						C2280.6,2571.3,2266.2,2578.2,2251,2578.2z M2218.1,2557.3l31.2,1.7c10.2,0.4,20-4.1,27.9-13.2c8.5-9.7,13.6-23.1,14.4-37.7
						c1.6-29.2-14.8-54-36.6-55.2l-31.4-1.7c-4.7,19.5-10.6,46-10.9,52.6C2212.7,2507.6,2215.3,2532.6,2218.1,2557.3z
						 M2203.2,2503.3L2203.2,2503.3L2203.2,2503.3z"/>
				</g>
				<g>
					<path class="st8" d="M2163.8,2501.1c-1.9,34.6,18.6,63.8,45.7,65.3c27.1,1.5,50.6-25.4,52.4-60c1.9-34.6-18.6-63.8-45.7-65.3
						C2189.2,2439.7,2165.7,2466.5,2163.8,2501.1"/>
				</g>
				<g class="st7">
					<g>
						<g>
							<path class="st2" d="M2262,2506.4c-1.8,34.6-25.3,61.5-52.4,60c-27.1-1.5-47.6-30.7-45.7-65.3c0.2-4.7,0.9-9.2,1.9-13.6
								c5.7,24.1,22.7,42,43.8,43.1c23.4,1.3,44.1-18.6,50.5-46.4C2261.7,2491.2,2262.3,2498.7,2262,2506.4"/>
						</g>
					</g>
				</g>
				<g>
					<path class="st0" d="M2262,2506.4c-0.1,2.4-0.4,4.7-0.7,6.9c-3.9-27.4-22.1-48.5-45-49.7c-25.2-1.3-47.4,21.9-51.7,53.1
						c-0.7-5.1-1-10.3-0.7-15.7c1.8-34.6,25.3-61.5,52.4-60C2243.3,2442.6,2263.8,2471.8,2262,2506.4"/>
				</g>
				<g>
					<path class="st2" d="M2211.6,2576.1c-0.9,0-1.7,0-2.6-0.1c-16.1-0.9-30.7-9.5-41.1-24.3c-9.9-14.1-14.7-32.2-13.7-51.1l0,0
						c2.1-39.8,30.1-70.9,62.6-69.1c32.3,1.7,56.9,35.6,54.8,75.4C2269.5,2545.7,2242.8,2576.1,2211.6,2576.1z M2173.4,2501.7
						c-0.8,14.6,2.9,28.5,10.3,39c6.9,9.9,16.2,15.6,26.3,16.1c21.7,1,40.7-21.7,42.3-50.9c1.6-29.2-14.8-54-36.6-55.2
						C2194.2,2449.7,2175,2472.4,2173.4,2501.7L2173.4,2501.7z"/>
				</g>
				<g>
					<path class="st2" d="M2104,2679.8c-0.2,0-0.4,0-0.5,0c-8-0.3-14.2-7-13.9-14.9l4.4-121.9l-51.5-36.8c-4-2.9-6.3-7.6-6-12.5
						l9.5-169.1c0.4-8,7.4-14,15.2-13.6c8,0.4,14.1,7.3,13.6,15.2l-9,161.2l51.4,36.7c3.9,2.8,6.2,7.4,6,12.3l-4.6,129.7
						C2118.2,2673.6,2111.8,2679.8,2104,2679.8z"/>
				</g>
				<g>
					<path class="st0" d="M2719.5,2441.1c0,0,40,17.5,40.1,63.7c0,57.3-42,72.9-42,72.9s-144.6,57.7-317.1,2.8c0,0-58-72,19.6-116.4
						C2420.1,2464.2,2610.9,2484.3,2719.5,2441.1"/>
				</g>
				<g class="st1">
					<g>
						<g>
							<path class="st2" d="M2759.5,2504.9c0,57.3-42,72.9-42,72.9s-144.6,57.8-317.1,2.8c0,0-28-34.8-19-70.9
								c5.6,11.5,11.5,18.9,11.5,18.9c172.5,54.9,317.1-2.8,317.1-2.8s33.3-12.4,40.6-55.6
								C2755.8,2479.3,2759.5,2490.7,2759.5,2504.9"/>
						</g>
					</g>
				</g>
				<g>
					<path class="st2" d="M2555.2,2618.9c-47.2,0-101.5-6.2-159.1-24.5l-4.1-1.3l-2.7-3.4c-1.2-1.5-30.5-38.4-22.7-79.4
						c4.5-23.9,20.1-43.6,46.4-58.6l4-2.3l4.6,0.5c1.9,0.2,188.6,19.2,292.6-22.2l5.6-2.2l5.5,2.4c2,0.9,48.7,21.9,48.7,77
						c0.1,66.6-49.3,85.7-51.4,86.5C2718.7,2592.9,2651.8,2618.9,2555.2,2618.9z M2409.3,2568.3c163.2,50.2,301.5-3.4,302.9-3.9
						c1.5-0.6,32.9-13.5,32.9-59.5c0-27.6-17.9-42.3-26.7-47.9c-102.7,37.6-264.4,24.9-295,22.1c-16.2,10.2-25.8,22.4-28.5,36.4
						C2390.6,2537.7,2403.7,2560,2409.3,2568.3z"/>
				</g>
				<g>
					<path class="st0" d="M2309.7,2846.6c0,0,18.6,338.7,33.6,580.1c10.5,167.8,137.3,175.8,371.8,166.6
						c82.5-3.2,89.5-73.5,85.3-106.8c-9.7-76.9-93.8-104-93.8-104s-10.3-315.6,8.9-775.6l-16.9,58.5l-124.5,25L2309.7,2846.6z"/>
				</g>
				<g class="st1">
					<g>
						<g>
							<polygon class="st2" points="2715.6,2607.3 2715.4,2607.3 2715.6,2606.9 							"/>
						</g>
					</g>
				</g>
				<g class="st1">
					<g>
						<g>
							<path class="st2" d="M2799.7,3522.5c-5.6,32.6-26.1,68.4-84.5,70.7c-234.5,9.2-361.3,1.2-371.8-166.6
								c-15-241.3-33.6-580-33.6-580s37.3,66.3,51.9,136.4c14.6,70,22.8,182.2,35,378.4c10.5,167.8,224.4,204.7,392.9,141.2
								C2800.7,3498.3,2799.7,3518.2,2799.7,3522.5"/>
						</g>
					</g>
				</g>
				<g>
					<path class="st2" d="M2318.6,2846.1c11.3,55.8,15.5,111.9,18.8,168.1l10.5,168.5l10.5,168.5l2.6,42.1l1.3,21.1l0.7,10.5
						l0.9,9.9c2.4,26.2,9,51.3,21.2,71.9c12.2,20.6,31.1,35.9,54.2,45.8c11.5,5,23.9,8.9,36.6,11.9c12.8,3,26.1,5.1,39.4,6.8
						c53.8,6.2,109.8,5,165.7,3.4l21-0.7l10.5-0.4c1.9,0,3.2-0.2,4.7-0.3l4.5-0.4c11.8-1.2,22.9-4,31.8-9.5
						c8.9-5.4,15.8-13.2,20.5-23c4.8-9.8,7.4-21.4,8.2-33.3c0.2-6,0.2-12.1-0.5-17.9c-1.2-5.7-1.7-11.6-3.8-17
						c-3.5-11-9-21.5-16.7-30.8c-7.6-9.3-16.9-17.6-27.2-24.8c-5.1-3.6-10.6-6.8-16.2-9.8c-2.8-1.4-5.6-2.9-8.5-4.1
						c-1.4-0.7-2.8-1.3-4.3-1.8c-0.7-0.3-1.4-0.6-2.1-0.8l-1.8-0.7h0l-12-4.4l-0.3-11.9c-1.8-65-2.4-129.6-2.7-194.4
						c-0.2-64.8,0.2-129.5,1-194.2c1-64.7,2.1-129.5,4-194.2c1.7-64.7,4.1-129.4,6.7-194.1c0.4-9.8,8.7-17.4,18.5-17
						c9.8,0.4,17.4,8.7,17,18.5l0,0.1c-2.6,64.5-4.9,129-6.7,193.6c-1.9,64.5-3,129.1-4,193.6c-0.8,64.6-1.2,129.1-1,193.6
						c0.2,64.5,0.9,129.2,2.7,193.4l-12.3-16.3l0,0l3.2,1.1c1,0.3,1.9,0.7,2.8,1.1c1.9,0.7,3.7,1.4,5.5,2.2
						c3.6,1.5,7.1,3.2,10.6,4.9c6.9,3.5,13.6,7.3,20.1,11.7c13,8.6,25.1,18.9,35.5,31.3c21,24.5,32.4,59,30.4,91
						c-0.8,16.1-4.1,32.6-11.5,48.2c-7.3,15.6-19.5,30.1-34.7,39.3c-15.2,9.5-32,13.7-48.1,15.5l-6,0.6c-2,0.2-4.1,0.4-5.8,0.4
						l-10.6,0.4l-21.2,0.7c-56.6,1.6-113.5,3.1-171.7-3.5c-29-3.6-58.6-9.2-87.3-21.7c-14.3-6.2-28.3-14.2-40.8-24.7
						c-12.5-10.4-23.3-23.1-31.6-36.9c-8.4-13.9-14.2-28.8-18.4-43.7c-4.3-15-6.5-30.1-7.9-45l-0.9-11.2l-0.6-10.5l-1.1-21.1
						l-2.3-42.2l-9.1-168.7l-9.1-168.7c-3.3-56.2-5.6-112.5-0.8-169.2c0.4-4.9,4.8-8.6,9.7-8.2
						C2314.6,2839.2,2317.8,2842.2,2318.6,2846.1L2318.6,2846.1z"/>
				</g>
				<g>
					<path class="st2" d="M2520,3158.4c-55.9,0-123.1-7.4-200.1-28.8c-10.2-2.8-16.2-13.5-13.4-23.7c2.8-10.2,13.4-16.3,23.7-13.4
						c227.9,63.3,363.6-3.8,364.9-4.4c9.5-4.8,21.1-1.1,25.9,8.4c4.8,9.5,1.1,21.1-8.4,25.9C2708.6,3124.5,2640,3158.4,2520,3158.4z
						"/>
				</g>
				<g>
					<path class="st2" d="M2702.9,3399.8c-3.9-1-8.5-2-12.9-2.9c-4.4-0.9-9-1.7-13.5-2.5c-9-1.5-18.1-2.7-27.3-3.8
						c-18.3-2-36.7-3-55.2-2.9c-18.5-0.1-36.9,1.2-55.1,3.6l-13.7,2l-13.5,2.7l-6.8,1.4l-6.7,1.8l-13.3,3.6l-0.6,0.2
						c-4.7,1.3-9.6-1.5-10.9-6.2c-1.2-4.5,1.3-9.1,5.6-10.7l13.8-4.9l6.9-2.4l7-2l14.1-4l14.3-3.2c19.1-4,38.4-7,57.8-8.4
						c19.4-1.5,38.9-2,58.5-1.4c9.8,0.4,19.5,0.9,29.3,1.7c4.9,0.4,9.8,0.9,14.7,1.5c5,0.6,9.7,1.2,15.1,2.1
						c9.7,1.6,16.2,10.8,14.6,20.5c-1.6,9.7-10.8,16.2-20.5,14.6c-0.4-0.1-0.9-0.2-1.3-0.3L2702.9,3399.8z"/>
				</g>
				<g>
					<path class="st0" d="M3011.1,1707.4L3011.1,1707.4c-6.8-0.7-11.8-6.8-11.1-13.6l36.8-355.9c0.7-6.8,6.8-11.8,13.6-11.1
						c71.6,7.4,123.6,71.4,116.2,143l-12.5,121.4C3146.7,1662.8,3082.7,1714.8,3011.1,1707.4"/>
				</g>
				<g>
					<path class="st2" d="M3024.7,1711.6c-4.6,0-9.3-0.2-14-0.7l0,0c-8.7-0.9-15.1-8.7-14.2-17.4l36.8-355.9c0.4-4.2,2.5-8,5.8-10.7
						c3.3-2.7,7.4-3.9,11.6-3.5c35.5,3.7,67.5,21,90.1,48.7c22.5,27.7,32.9,62.6,29.2,98.1l-12.5,121.4c-3.7,35.5-21,67.5-48.7,90.1
						C3084.8,1701.2,3055.3,1711.6,3024.7,1711.6z M3049.1,1330.2c-2.1,0-4,0.7-5.6,2c-1.9,1.5-3,3.7-3.3,6l-36.8,355.9
						c-0.5,4.9,3.1,9.3,8,9.8l0,0c33.7,3.5,66.7-6.4,93-27.7c26.3-21.4,42.7-51.7,46.2-85.4l12.5-121.4c3.5-33.7-6.4-66.7-27.7-93
						c-21.4-26.3-51.7-42.7-85.4-46.2C3049.7,1330.2,3049.4,1330.2,3049.1,1330.2z"/>
				</g>
				<g class="st7">
					<g>
						<g>
							<path class="st2" d="M3160,1534.3l-5.9,56.9c-7.4,71.6-71.4,123.6-143,116.2c-6.8-0.7-11.8-6.8-11.1-13.7l9.7-94.6
								c1.5,4.5,5.5,7.9,10.5,8.5l8.4,0.8C3085.2,1614.4,3137.1,1583.1,3160,1534.3"/>
						</g>
					</g>
				</g>
				<g>
					<path class="st2" d="M3024.8,1727.4c-5.2,0-10.4-0.3-15.7-0.8c-17.4-1.8-30-17.4-28.2-34.8l36.8-355.9c0.9-8.4,5-16,11.5-21.3
						c6.6-5.3,14.8-7.8,23.2-6.9c39.7,4.1,75.5,23.4,100.7,54.4c25.2,31,36.8,70,32.7,109.7l-12.5,121.4
						c-4.1,39.7-23.4,75.5-54.4,100.7C3091.9,1715.7,3059,1727.4,3024.8,1727.4z M3019.9,1688.7c27.2,1.2,53.4-7.5,74.6-24.8
						c23-18.7,37.4-45.3,40.4-74.8l12.5-121.4c3.1-29.5-5.6-58.4-24.3-81.5c-17.3-21.2-41.2-35.1-68-39.5L3019.9,1688.7z"/>
				</g>
				<g>
					<path class="st0" d="M1875.7,1205.4L1875.7,1205.4c6.8,0.7,11.8,6.8,11.1,13.6l-36.8,355.9c-0.7,6.8-6.8,11.8-13.6,11.1
						c-71.6-7.4-123.6-71.4-116.2-143l12.5-121.4C1740.1,1250,1804.1,1198,1875.7,1205.4"/>
				</g>
				<g>
					<path class="st2" d="M1837.6,1589.5c-0.5,0-1.1,0-1.6-0.1c-73.4-7.6-126.9-73.5-119.3-146.8l12.5-121.4
						c7.6-73.4,73.5-126.9,146.8-119.3l0,0c4.2,0.4,8,2.5,10.7,5.8c2.7,3.3,3.9,7.4,3.5,11.6l-36.8,355.9
						C1852.6,1583.4,1845.7,1589.5,1837.6,1589.5z M1862.2,1208.1c-64.1,0-119.4,48.7-126.1,113.8l-12.5,121.4
						c-7.2,69.6,43.6,132,113.1,139.2c4.9,0.5,9.3-3.1,9.8-8l36.8-355.9c0.2-2.4-0.4-4.7-2-6.6c-1.5-1.9-3.7-3-6-3.3
						C1870.9,1208.4,1866.6,1208.1,1862.2,1208.1z"/>
				</g>
				<g class="st1">
					<g>
						<g>
							<path class="st2" d="M1860.2,1476.2l-10.2,98.7c-0.7,6.8-6.8,11.8-13.7,11.1c-37.6-3.9-69.8-23.4-90.8-51.4
								c-19-25.3-28.9-57.6-25.4-91.6l5.3-51.1c15.7,47,57.7,82.9,110.2,88.3l13,1.3C1853.4,1482,1857.7,1479.8,1860.2,1476.2"/>
						</g>
					</g>
				</g>
				<g>
					<path class="st2" d="M1837.7,1605.3c-1.1,0-2.2-0.1-3.3-0.2c-82-8.5-141.9-82.1-133.4-164.2l12.5-121.4
						c8.5-82,82.1-141.9,164.1-133.4l0,0c8.4,0.9,16,5,21.3,11.5s7.8,14.8,6.9,23.2l-36.8,355.9
						C1867.5,1593.1,1853.7,1605.3,1837.7,1605.3z M1862.2,1223.9c-56.2,0-104.5,42.6-110.4,99.6l-12.5,121.4
						c-6.1,58.6,34.9,111.5,92.3,121l35.3-341.9C1865.4,1224,1863.8,1223.9,1862.2,1223.9z"/>
				</g>
				<g>
					<path class="st0" d="M3044,1561.9c-58.3,331.6-374.4,553.2-706,494.9c-331.6-58.3-553.2-374.4-494.9-706
						c58.3-331.6,374.4-553.2,706-494.9C2880.7,914.2,3102.2,1230.3,3044,1561.9"/>
				</g>
				<g>
					<path class="st2" d="M2443.8,2069.6c-35.1,0-70.7-3-106.5-9.3c-333-58.5-556.3-377.1-497.7-710
						c28.4-161.3,117.8-301.9,251.9-395.9c134.1-94,296.8-130.2,458.1-101.8c333,58.5,556.3,377.1,497.7,710
						C2995.1,1859.8,2735.7,2069.6,2443.8,2069.6z M2442.2,850c-123.4,0-243.6,37.7-346.7,110c-132.6,93-221.1,232-249.1,391.5
						c-57.9,329.2,162.9,644.2,492.1,702c329.2,57.9,644.2-162.9,702-492.1s-162.9-644.2-492.1-702
						C2513,853.1,2477.4,850,2442.2,850z"/>
				</g>
				<g class="st7">
					<g>
						<g>
							<path class="st2" d="M3052.8,1477.8c-0.9,27.8-3.9,55.9-8.8,84.1c-58.3,331.6-374.4,553.2-706.1,495
								c-331.6-58.3-553.2-374.4-495-706.1c1.7-9.5,3.6-19,5.7-28.4c-10.9,299.4,200.4,568.6,503.8,621.9
								C2674.5,2001,2981.9,1793.6,3052.8,1477.8"/>
						</g>
					</g>
				</g>
				<g>
					<path class="st2" d="M2443.8,2085.4c-36,0-72.5-3.1-109.2-9.6c-341.6-60-570.6-386.8-510.6-728.3
						c29.1-165.5,120.9-309.7,258.4-406.1c137.6-96.4,304.4-133.5,469.9-104.4c341.6,60,570.6,386.8,510.6,728.3l0,0
						C3009.3,1870.2,2743.2,2085.4,2443.8,2085.4z M2442.2,865.8c-120.2,0-237.2,36.7-337.7,107.1
						c-129.1,90.5-215.3,225.9-242.6,381.3c-56.4,320.7,158.7,627.4,479.3,683.7c320.6,56.3,627.4-158.6,683.7-479.3
						c56.4-320.7-158.7-627.4-479.3-683.7C2511.2,868.8,2476.5,865.8,2442.2,865.8z M3044,1561.9L3044,1561.9L3044,1561.9z"/>
				</g>
				<g>
					<path class="st2" d="M3039.3,1577c-18.9,117.8-74.6,221-154.5,301.1c-59.9,60-280.5,146.4-529.7,108.8
						c-231.1-34.9-421.4-191.6-459.5-267.3c-50.9-101-71.6-216.5-52.7-334.3c50-311.7,338.5-398.1,668.9-345.1
						C2842.1,1093.1,3089.3,1265.3,3039.3,1577"/>
				</g>
				<g class="st5">
					<g>
						<g>
							<path class="st0" d="M2777.9,1477.6c-19.8,56.2-2.8,113.4,38,127.7c40.7,14.3,89.8-19.6,109.5-75.8
								c19.8-56.2,2.8-113.4-38-127.7C2846.7,1387.4,2797.7,1421.4,2777.9,1477.6"/>
						</g>
					</g>
				</g>
				<g class="st5">
					<g>
						<g>
							<path class="st0" d="M2685.5,1679.9c-12.6,24.3-5.8,52.7,15,63.5c20.9,10.8,47.9-0.2,60.5-24.5c12.6-24.3,5.8-52.7-15-63.5
								C2725.2,1644.6,2698.1,1655.6,2685.5,1679.9"/>
						</g>
					</g>
				</g>
				<g class="st7">
					<g>
						<g>
							<path class="st9" d="M2969.6,1267.6c62,81.5,89.8,184.2,69.8,309.5c-18.9,117.8-74.7,221.1-154.5,301.1
								c-59.9,60-280.5,146.4-529.8,108.8c-88-13.3-170.1-44.2-240.1-81.7c307.4,39.7,576.3-66.7,650.5-141.1
								c101.4-101.5,172.2-232.6,196.1-382.1C2968,1342.1,2970.5,1303.9,2969.6,1267.6"/>
						</g>
					</g>
				</g>
				<g>
					<path class="st2" d="M3031.7,1314.7c-5.3,0-10.6-2.2-14.4-6.5l-1.7-1.9l-1.2-2.4c-78.1-157.4-260-269.6-499-307.9
						c-240.3-38.5-448.4,13.9-570.8,143.8l-1.9,1.8c-8.3,6.7-20.4,5.4-27.1-2.9c-6.3-7.8-5.5-19,1.5-25.8
						c131.3-139,351.6-195.4,604.4-154.9c251,40.2,443,159.7,526.9,327.8c4.4,7.7,3,17.8-3.9,24
						C3040.8,1313.1,3036.2,1314.7,3031.7,1314.7z"/>
				</g>
				<g class="st5">
					<g>
						<g>
							<path class="st0" d="M1947.4,1592.3c0,0-47.3-323,138.1-419s423.8-57.3,415.7-42.9c0,0-274.2,21.6-411,213.8
								C1984.9,1492.3,1947.4,1592.3,1947.4,1592.3"/>
						</g>
					</g>
				</g>
				<g>
					<path class="st0" d="M1860.7,1111.4c-30.4,60.9-209.4,123.2-297.2,102.9c-56.7-13.1-66.2-27.7-83.9-71.1
						c-6.9-16.9-23.8-27.4-39.4-29.5c-14.8-2-22.8,1.1-23.5,1.4c10-26.7,25.4-49.9,44.3-69.9c87.1-91.7,250.3-114.8,322.1-93.2
						c39.4,11.8,63.4,54.4,74.2,93.3C1865.4,1073.8,1866.2,1100.4,1860.7,1111.4"/>
				</g>
				<g class="st1">
					<g>
						<g>
							<path class="st2" d="M1860.7,1111.4c-30.4,60.9-209.4,123.2-297.2,102.9c-56.7-13.1-66.2-27.7-83.9-71.1
								c-6.9-16.9-23.8-27.4-39.4-29.5c-14.8-2-22.8,1.1-23.5,1.4c10-26.7,25.4-49.9,44.3-69.9c4.7,11,13.1,22.4,27.9,27
								c43.5,13.6,28.1,85.9,168.7,69.3c90.8-10.7,174.2-52.5,199.7-96.3C1865.4,1073.8,1866.2,1100.4,1860.7,1111.4"/>
						</g>
					</g>
				</g>
				<g>
					<path class="st2" d="M1602.5,1237.4c-15.7,0-30.3-1.4-43.3-4.4c-64.3-14.8-77.8-34.4-97.4-82.6c-4.3-10.5-15.5-16.5-24.2-17.7
						c-7.8-1.1-12.4-0.2-13.7,0.2c-7,3.6-14.7,2.2-20.7-2.9c-6.1-5.3-7.5-14.2-4.6-21.7c26.6-70.9,91.7-127.3,183.2-158.9
						c72.4-25,155.5-31.4,206.8-16c41.3,12.4,64.8,49.3,77.2,78.1c17.5,40.4,22.7,87,12,108.4
						C1848.3,1179.5,1703.6,1237.4,1602.5,1237.4z M1447.2,1095.4c22.5,4.5,41.9,20.1,50.3,40.5c15.8,38.8,21.4,48.3,70.4,59.6
						c84.8,19.6,250.9-43.2,275.6-92.7c3.2-6.8,2.5-41.5-13.6-77.6c-7.5-16.9-24.3-46.4-52.2-54.8
						C1706.4,949,1515,977.6,1447.2,1095.4z"/>
				</g>
			</g>
		</g>
	</g>
</g>
</svg>
